<?xml version="1.0" encoding="UTF-8" standalone="no"?>
<!-- Created with Inkscape (http://www.inkscape.org/) -->

<svg
   version="1.1"
   id="svg79"
   width="2092"
   height="1226.6667"
   viewBox="0 0 2092 1226.6667"
   sodipodi:docname="stack4.png"
   xmlns:inkscape="http://www.inkscape.org/namespaces/inkscape"
   xmlns:sodipodi="http://sodipodi.sourceforge.net/DTD/sodipodi-0.dtd"
   xmlns="http://www.w3.org/2000/svg"
   xmlns:svg="http://www.w3.org/2000/svg">
  <defs
     id="defs83" />
  <sodipodi:namedview
     id="namedview81"
     pagecolor="#ffffff"
     bordercolor="#000000"
     borderopacity="0.25"
     inkscape:showpageshadow="2"
     inkscape:pageopacity="0.0"
     inkscape:pagecheckerboard="0"
     inkscape:deskcolor="#d1d1d1"
     showgrid="false" />
  <g
     inkscape:groupmode="layer"
     inkscape:label="Image"
     id="g85">
    <path
       style="fill:#000000;stroke-width:1.33333"
       d="m 429.90328,1162.5102 c -0.50643,-0.8194 -0.21845,-4.5694 0.63993,-8.3333 1.35963,-5.9618 4.58428,-21.0954 9.77315,-45.8662 1.36161,-6.5001 1.25573,-7.2234 -1.42264,-9.7186 -1.59155,-1.4828 -2.89372,-3.8675 -2.89372,-5.2994 0,-1.4319 -1.22492,-3.3585 -2.72205,-4.2814 -3.17298,-1.9559 -9.27795,-11.826 -9.27795,-14.9998 0,-1.6568 1.04071,-2.0801 4.33333,-1.7626 3.52019,0.3394 4.31347,0.9807 4.22747,3.4178 -0.0583,1.65 0.59877,3 1.46001,3 0.86124,0 2.65187,1.2 3.97919,2.6667 1.32732,1.4666 3.57413,2.6666 4.99292,2.6666 3.21017,0 7.57017,-5.0499 7.62939,-8.8367 0.0535,-3.4188 3.31722,-6.4367 5.50129,-5.0869 2.20849,1.3649 0.52589,21.4124 -2.73176,32.5477 -1.40133,4.7901 -2.95701,11.5666 -3.45705,15.059 -0.50003,3.4923 -1.43992,6.6778 -2.08864,7.0787 -0.64871,0.4009 -1.17948,2.4173 -1.17948,4.4808 0,2.0635 -1.1299,6.3781 -2.51088,9.5879 -1.38098,3.2099 -2.91542,9.09 -3.40984,13.0668 -0.49444,3.9769 -1.48566,8.3269 -2.20271,9.6667 -1.43301,2.6776 -7.18087,3.3071 -8.63996,0.9462 z m -91.79955,-4.4907 c -2.35701,-4.3767 -2.39546,-5.5213 -0.66072,-19.6667 2.60727,-21.26 2.36763,-39.1788 -0.5989,-44.7819 -1.83618,-3.4681 -2.00208,-4.8423 -0.76462,-6.3333 2.4832,-2.9921 4.7869,-2.2505 6.59903,2.1244 0.91779,2.2157 2.13643,4.3177 2.70811,4.671 2.24501,1.3875 5.2867,-1.2048 8.00684,-6.8239 3.05188,-6.3043 6.62594,-8.1626 12.74537,-6.6267 3.0424,0.7636 3.38783,1.4004 2.79073,5.1445 -1.52181,9.5427 -3.50306,14.2497 -9.07926,21.5703 -8.77066,11.5144 -9.12042,12.5233 -10.01422,28.8877 -1.15496,21.1461 -1.09781,20.7894 -3.81004,23.7863 -3.42464,3.7842 -5.0488,3.3841 -7.92232,-1.9517 z m -22.3003,-37.0732 c -1.46091,-1.4609 -1.66532,-4.6527 -0.96492,-15.0666 0.48876,-7.2672 0.46873,-13.6643 -0.0445,-14.2159 -0.51324,-0.5516 -3.30185,1.1699 -6.1969,3.8257 -8.89882,8.1632 -11.48994,9.8439 -15.17688,9.8439 -5.00174,0 -6.75352,-2.3172 -6.75352,-8.9334 0,-7.1029 -1.57763,-7.2468 -8.04132,-0.7333 -8.37159,8.4361 -11.82522,10.8181 -16.31263,11.2508 L 258,1107.3334 257.996,1098 c -0.003,-5.1333 -0.75247,-10.6439 -1.66667,-12.2457 -2.19197,-3.8405 -2.09913,-6.3985 0.30464,-8.3934 1.61066,-1.3367 2.69722,-0.902 6,2.4008 2.40187,2.4019 4.03318,5.4229 4.03318,7.4691 0,4.5487 3.34092,4.492 7.10089,-0.1207 8.5606,-10.5018 12.78236,-13.965 16.50348,-13.538 3.56783,0.4094 3.74653,0.7736 4.13551,8.4279 0.2236,4.4 0.9525,8.5489 1.61978,9.2198 0.73156,0.7355 3.83035,-1.4813 7.80506,-5.5834 4.66389,-4.8135 8.02608,-7.0723 11.49584,-7.7232 8.88877,-1.6676 9.6787,1.3476 7.70398,29.4057 -0.84145,11.956 -1.4308,14.7284 -3.2027,15.0666 -1.19432,0.2279 -3.00562,-0.4197 -4.02508,-1.4392 z m -95.93248,-9.8816 c -1.90432,-0.2946 -7.483,-4.1047 -12.39707,-8.4669 -4.91408,-4.3621 -9.46315,-7.9311 -10.10904,-7.9311 -1.71275,0 -5.36624,-3.9301 -5.35641,-5.7619 0.004,-0.8643 1.80464,-2.5935 4,-3.8428 3.0627,-1.7427 3.99157,-3.2165 3.99157,-6.3333 0,-2.2341 0.6,-4.062 1.33333,-4.062 0.73334,0 1.33334,-1.5158 1.33334,-3.3684 0,-4.3949 10.26957,-14.754 16.23452,-16.3761 5.24056,-1.4251 9.09881,1.041 9.09881,5.8157 0,4.5153 -7.49061,17.9038 -13.41595,23.9793 -6.0736,6.2275 -6.51201,8.2488 -2.03293,9.373 1.97559,0.4958 3.54579,2.1144 4.06743,4.1928 0.83669,3.3337 1.00896,3.376 11.31633,2.7793 10.23908,-0.5928 10.43899,-0.5451 9.19264,2.1903 -1.51629,3.3279 -9.16196,8.8305 -11.87669,8.5477 -1.05463,-0.1099 -3.47558,-0.4409 -5.37988,-0.7356 z M 214.97959,1070 c 1.37474,-1.8712 1.25252,-3.3333 -0.27868,-3.3333 -0.71451,0 -2.30722,1.95 -3.53938,4.3333 -2.18345,4.2234 -2.17586,4.2826 0.2991,2.3334 1.39665,-1.1 2.98018,-2.6 3.51896,-3.3334 z m 186.85161,33.3987 c -1.4196,-0.9944 -4.86483,-6.3072 -7.65608,-11.8064 -4.15821,-8.1923 -4.81305,-10.4879 -3.62505,-12.7077 2.07632,-3.8797 1.78813,-9.1362 -0.55007,-10.0334 -2.49391,-0.957 -2.60699,-5.3542 -0.18929,-7.3607 0.99588,-0.8266 2.20061,-5.2333 2.67718,-9.7929 0.91891,-8.7917 3.2355,-12.6007 6.8257,-11.223 1.78604,0.6854 2.11057,2.4655 1.77005,9.7088 -0.40604,8.6371 -0.31209,8.9295 3.58303,11.153 2.72734,1.5569 4.93946,1.9359 6.9528,1.1911 1.62404,-0.6007 3.23445,-0.6365 3.57869,-0.08 1.1676,1.8892 -1.18068,3.6672 -6.53149,4.945 l -5.33334,1.2737 -0.39101,8.8579 c -0.35892,8.1307 -0.11267,9.0768 3,11.5252 6.97807,5.489 3.01044,19.3371 -4.11112,14.3489 z M 241.33333,938.73693 c -1.11724,-0.7596 -8.01392,-1.22504 -15.62521,-1.05452 -16.21032,0.3632 -18.53245,-0.82569 -16.36613,-8.37921 0.72857,-2.5404 1.32468,-6.4994 1.32468,-8.79777 0,-2.29839 0.9,-4.92582 2,-5.83874 2.93653,-2.43711 2.53006,-7.55037 -0.66667,-8.38633 -1.78184,-0.46596 -2.66667,-1.81868 -2.66667,-4.07682 0,-1.8587 -0.6,-3.75029 -1.33333,-4.20352 -2.19103,-1.35412 -1.51532,-5.25153 1.33333,-7.69062 3.56859,-3.05552 3.35946,-6.24971 -0.8116,-12.39608 -3.23817,-4.77174 -3.45536,-6.02698 -3.14653,-18.18607 0.38741,-15.25296 0.31645,-23.46849 -0.54463,-63.06056 -1.19089,-54.7563 -0.99718,-67.72727 1.20614,-80.76508 4.14522,-24.52894 4.83573,-32.93916 5.35597,-65.23493 0.28943,-17.96666 0.84227,-44.96666 1.22856,-60 1.39861,-54.43033 0.55893,-94.94837 -2.14829,-103.66505 -0.73995,-2.38244 -1.60968,-23.68244 -1.93275,-47.33334 -0.73508,-53.81357 -0.73831,-53.08529 0.42404,-95.66828 1.57487,-57.69536 1.1924,-110.06808 -0.82153,-112.49472 -1.29979,-1.56615 -1.37554,-3.13406 -0.31178,-6.45368 1.48195,-4.62462 1.94027,-35.26444 0.56088,-37.49632 -1.17445,-1.90031 -0.60774,-22.62127 0.93312,-34.11853 0.7295,-5.44312 0.97666,-10.24312 0.54926,-10.66666 -1.5907,-1.57634 -25.18439,-0.79198 -26.96943,0.89657 -0.96904,0.91667 -2.76904,1.68437 -4,1.70603 -1.23095,0.0216 -6.43809,0.34046 -11.57143,0.7085 -9.15081,0.65608 -19.60505,0.75819 -20.16625,0.19699 -0.15601,-0.15601 -0.68213,-1.87129 -1.16915,-3.81173 -0.82718,-3.29578 -0.52496,-3.58899 4.5903,-4.4532 3.01166,-0.50882 8.31137,-2.45191 11.7771,-4.31798 5.83676,-3.1427 7.77584,-3.41902 26.30134,-3.74806 20.41722,-0.36263 23.33333,0.22843 23.33333,4.72936 0,1.29253 1.50825,3.33832 3.35168,4.54617 l 3.35169,2.19611 -0.26398,20.95724 c -0.20336,16.14492 0.17513,21.72265 1.64832,24.29057 1.05176,1.83334 2.01176,7.23334 2.13333,12 0.41673,16.3404 1.52903,31.77874 2.51292,34.87868 1.384,4.36063 2.12539,83.31791 1.9752,210.36062 -0.0771,65.23395 -0.4616,82.15236 -2.01972,88.87079 -1.47875,6.37627 -1.73759,13.65501 -1.11759,31.42738 1.14124,32.7139 0.95691,39.15006 -1.54124,53.8153 -1.48236,8.70211 -2.14897,19.64528 -2.0195,33.15195 0.22754,23.73802 -1.94511,55.27868 -4.3279,62.82863 -1.5868,5.02785 -1.72486,13.27727 -0.97064,58 0.11747,6.96667 -0.40648,14.25497 -1.16436,16.19624 -0.75788,1.94125 -1.07901,3.82852 -0.71364,4.19389 0.36539,0.36539 0.79879,17.97709 0.96314,39.1371 0.29637,38.16203 0.32764,38.54843 3.87092,47.83911 2.0794,5.45229 3.24713,10.60916 2.79438,12.34042 -0.42776,1.63576 -0.0247,3.88158 0.89587,4.9907 1.89679,2.28548 0.97487,14.49054 -1.30176,17.23372 -0.75261,0.90685 -1.52336,4.59332 -1.71276,8.19216 -0.30499,5.79512 -0.0188,6.58976 2.50232,6.94931 1.56568,0.22329 8.8496,-1.6835 16.18648,-4.2373 12.867,-4.4787 14.08931,-4.652 34.48665,-4.88919 11.63078,-0.13524 26.24686,-0.87173 32.48019,-1.63665 9.65437,-1.18473 11.94411,-1.07481 15.4562,0.74193 3.64007,1.88297 5.30981,1.92659 14.25841,0.37263 9.97639,-1.73243 14.59296,-1.42836 25.61872,1.6874 6.3626,1.798 40.42976,4.70331 52.66667,4.49151 4.76667,-0.0825 20.31597,-0.20896 34.554,-0.28101 14.23804,-0.072 26.9916,-0.72199 28.34125,-1.4443 1.657,-0.8868 4.16094,-0.80186 7.71028,0.26155 4.088,1.22479 6.13526,1.2108 9.21039,-0.0629 3.68464,-1.52624 8.57664,-2.1469 20.26257,-2.5708 2.60984,-0.0947 5.86596,-0.99167 7.23582,-1.99334 2.16073,-1.57996 2.27841,-2.33363 0.88838,-5.68943 -1.19409,-2.8828 -1.27385,-7.61062 -0.31312,-18.55873 0.78408,-8.93501 0.81535,-16.79923 0.0799,-20.07284 -1.32644,-5.90359 -1.86557,-23.73136 -1.64884,-54.52445 0.26171,-37.18505 0.48073,-45.28826 1.72988,-64.00001 1.12957,-16.92028 2.84363,-60.0976 2.64655,-66.66666 -0.3047,-10.15656 0.32801,-25.33933 1.36134,-32.66667 1.63358,-11.58378 1.58403,-20.93126 -0.12786,-24.13002 -1.23942,-2.31584 -2.58067,-13.68516 -6.59111,-55.86998 -0.59259,-6.23334 -0.95077,-20.93334 -0.79597,-32.66667 0.3125,-23.68635 -0.63795,-30 -4.51618,-30 -4.44502,0 -4.99484,-8.16506 -0.66177,-9.82782 1.50175,-0.57626 1.72103,-6.80785 1.23524,-35.10308 -0.32485,-18.92134 -1.0082,-41.00244 -1.51856,-49.06911 -0.51035,-8.06666 -0.84123,-30.26666 -0.73528,-49.33333 0.72691,-130.82028 0.66201,-141.46544 -0.89399,-146.66667 -4.655,-15.56016 -5.81765,-47.48568 -2.69341,-73.95879 1.33877,-11.344 2.26288,-20.79671 2.05357,-21.00601 -0.2093,-0.20931 -2.29038,0.28521 -4.62461,1.09893 -3.14673,1.09695 -4.7204,1.08416 -6.08635,-0.0495 -4.42816,-3.67504 7.8149,-16.99294 14.15798,-15.40092 2.13414,0.53563 4.34166,-0.10655 6.67469,-1.94171 3.75329,-2.95234 9.68429,-3.64324 11.13433,-1.29704 0.49118,0.79475 3.67659,1.31732 7.07868,1.16127 12.79622,-0.58693 15.46048,0.50634 14.1321,5.79906 C 549.87775,124.65817 542.73436,128 532.19557,128 h -8.98532 l -2.36225,7 c -1.29924,3.85 -2.37607,10.9 -2.39293,15.66667 -0.11987,33.86604 0.65126,61.36096 2.29977,82 2.20012,27.54498 2.37796,64.30219 0.36771,76.00001 -2.2864,13.30474 -2.44651,80.82582 -0.2693,113.57388 1.4437,21.71512 1.58759,30.97983 0.54151,34.86467 -0.94653,3.51517 -1.00368,7.46169 -0.17028,11.75945 0.68991,3.55776 1.60072,14.86867 2.02403,25.13533 0.42332,10.26667 1.4277,21.03958 2.23198,23.93979 0.95295,3.43624 1.10392,9.70647 0.43342,18 -0.56592,6.99979 -0.89955,19.41863 -0.74142,27.59743 0.28806,14.89776 5.32352,57.33369 8.10496,68.30375 1.00659,3.96998 1.06046,7.1732 0.16816,10 -1.45558,4.61141 -1.06894,43.05481 0.5002,49.73347 0.66603,2.83474 0.2312,6.54502 -1.3113,11.18908 -2.00934,6.04953 -2.15823,9.46672 -1.15139,26.42558 0.636,10.71267 1.20199,35.37758 1.25773,54.81091 0.0557,19.43334 0.46754,37.06086 0.9151,39.17227 0.44754,2.11141 0.2062,5.41141 -0.53634,7.33333 -2.04216,5.28576 -3.97888,28.7984 -2.66664,32.37414 0.6807,1.85478 0.44654,9.60932 -0.57736,19.12026 -1.75509,16.30299 -0.68413,35.57006 2.2836,41.08341 1.822,3.38484 0.21362,7.43889 -3.30126,8.32106 -1.63039,0.4092 -6.57495,0.16252 -10.98791,-0.54816 -6.06516,-0.97677 -9.95752,-0.82834 -15.94681,0.6081 -5.72918,1.37405 -17.15372,1.91442 -41.25656,1.95141 -21.36343,0.0328 -36.92431,0.68089 -43.33334,1.80484 -8.34125,1.46279 -10.99525,1.45411 -16,-0.0524 -3.3,-0.99333 -8.76918,-1.81256 -12.15374,-1.82051 -3.38458,-0.008 -14.80795,-1.18633 -25.3853,-2.61866 -16.83768,-2.2801 -22.5444,-2.45868 -45.84625,-1.4348 -19.38916,0.85197 -29.87255,1.95226 -38.61471,4.05286 -6.6,1.58587 -15.3,3.39638 -19.33333,4.02335 -4.03333,0.62697 -9.43333,1.49684 -12,1.93307 -2.56667,0.43621 -5.56667,0.18121 -6.66667,-0.56667 z m 288,-113.40357 c 0,-0.73334 -0.63541,-1.33334 -1.41202,-1.33334 -0.77662,0 -1.0412,0.6 -0.58798,1.33334 0.45323,0.73333 1.08864,1.33333 1.41203,1.33333 0.32339,0 0.58797,-0.6 0.58797,-1.33333 z M 220.83024,459.22249 c 0.17247,-18.15874 -0.9172,-24.00744 -3.30347,-17.7312 -1.38249,3.63616 -1.89616,29.38324 -0.66997,33.58212 0.38655,1.3237 1.40191,2.17382 2.25635,1.88914 1.06394,-0.35447 1.60506,-5.94503 1.71709,-17.74006 z m 0.116,-86.22248 c 1.46865,-26.74791 0.96195,-39 -1.61291,-39 -1.96022,0 -3.07748,9.76352 -3.35668,29.33333 -0.41681,29.21644 0.0935,36.66667 2.51174,36.66667 0.53645,0 1.64248,-12.15 2.45785,-27 z M 1646.6929,633.3966 c -3.1054,-7.49702 -5.3966,-45.43013 -4.0237,-66.61449 l 0.6405,-9.88457 -6.6548,-0.11547 L 1630,556.6666 v -4.66667 -4.66666 l 6.1952,0.42957 c 7.1983,0.49913 8.0075,-0.34329 8.5769,-8.92933 0.2251,-3.3918 0.7996,-9.01691 1.277,-12.50024 0.9682,-7.0661 1.1276,-6.97402 -8.7158,-5.0357 -6.2034,1.22155 -15.4701,-0.0491 -21,-2.87942 -5.0762,-2.59816 -8.5514,0.51477 -12.6253,11.30925 -1.994,5.28323 -4.6393,14.10587 -5.8784,19.60587 -2.3611,10.47964 -4.3599,13.33333 -9.3391,13.33333 -4.6753,0 -4.9416,-2.12265 -1.2461,-9.93405 1.8823,-3.97879 3.4325,-8.32131 3.4451,-9.65004 0.04,-4.22643 4.9349,-20.87494 7.8526,-26.70843 1.5478,-3.09423 4.0848,-6.30599 5.6382,-7.13725 3.8397,-2.05503 18.2708,-0.40576 24.5757,2.80868 3.6375,1.85448 6.4753,2.30993 10.7456,1.72462 6.4964,-0.89044 8.7619,-2.87969 9.3039,-8.16985 0.2029,-1.98019 1.671,-7.80035 3.2626,-12.93368 1.5915,-5.13333 3.1954,-10.98333 3.564,-13 0.3688,-2.01667 1.2428,-3.66667 1.9424,-3.66667 0.6995,0 0.8948,-1.18797 0.434,-2.63994 -1.1484,-3.61819 4.2278,-17.82424 8.1343,-21.49424 1.7548,-1.64852 3.2072,-3.94274 3.2276,-5.09823 0.02,-1.15551 1.7601,-3.79073 3.8663,-5.85605 3.1022,-3.04238 4.8036,-3.67507 8.9629,-3.33334 5.0845,0.41776 5.1337,0.47611 5.1337,6.08775 0,3.11627 -0.2528,5.66627 -0.5617,5.66667 -0.3089,4e-4 -1.7143,-1.04239 -3.1231,-2.3173 -2.4569,-2.22354 -2.7193,-2.14118 -6.4382,2.02103 -2.1323,2.38648 -3.877,5.63235 -3.877,7.21304 0,1.58068 -0.9989,3.97772 -2.2197,5.32676 -2.752,3.04089 -12.3571,45.39676 -15.1119,66.63975 -2.373,18.29828 -2.9726,16.39584 5.3158,16.8648 7.6425,0.43241 12.0158,2.94512 12.0158,6.90373 0,3.48011 -1.5648,4.2194 -4.0913,1.93296 -2.9672,-2.68528 -10.7679,-1.38776 -14.1548,2.3544 -2.1673,2.3946 -2.4205,5.44242 -2.4205,29.13422 0,19.38986 0.4453,26.90528 1.6666,28.12692 1.7252,1.72556 2.3596,17.77668 0.8574,21.69136 -1.412,3.67962 -6.6866,2.54518 -8.4978,-1.8277 z m 221.0872,-36.96049 c -3.597,-0.95268 -3.826,-3.85596 -0.9861,-12.50676 1.9444,-5.92267 2.2857,-8.6284 1.2464,-9.88057 -2.1247,-2.56016 0.6673,-9.24079 3.4205,-8.18431 1.1498,0.44123 2.3334,0.80221 2.6303,0.80221 1.9549,0 4.2627,10.28427 4.0371,17.99038 -0.2074,7.07966 -0.7988,9.3816 -2.7839,10.83312 -2.5573,1.86996 -3.5884,1.99889 -7.5643,0.94593 z m -77.1674,-21.87035 c -0.8147,-1.52218 -2.732,-4.01846 -4.261,-5.54729 l -2.7796,-2.77969 -3.9154,4.88061 c -2.887,3.59864 -4.932,4.88063 -7.786,4.88063 -2.1288,0 -3.8707,-0.56727 -3.8707,-1.26058 0,-0.69332 -1.65,-2.05141 -3.6667,-3.01797 -3.4425,-1.64996 -3.6666,-2.28607 -3.6666,-10.40608 0,-7.95389 0.241,-8.68293 3,-9.07477 2.6764,-0.38011 3,0.14165 3,4.83673 0,7.04097 2.8214,9.43459 6.6306,5.62531 1.5451,-1.54503 3.3704,-4.28518 4.0563,-6.08922 1.5687,-4.12598 2.7289,-4.11669 6.6464,0.0532 1.7223,1.83334 3.8255,3.33334 4.6737,3.33334 0.8483,0 2.3451,1.5 3.3263,3.33333 0.9812,1.83333 2.462,3.33333 3.2908,3.33333 2.3073,0 4.7092,-8.0607 4.7092,-15.80416 0,-9.18919 2.9276,-16.19584 6.7672,-16.19584 2.86,0 2.8911,0.22655 2.0901,15.222 -1.1034,20.66031 -4.1565,27.44467 -12.3504,27.44467 -3.1021,0 -4.853,-0.82215 -5.8942,-2.76759 z m -70.6666,-3.4823 c -3.9662,-3.33744 -4.2068,-4.01848 -3.5069,-9.92832 0.9353,-7.89683 3.9621,-13.93373 7.4427,-14.84389 2.3578,-0.61658 2.6998,0.0585 3.0533,6.02654 0.5589,9.43665 3.5996,11.19397 9.0477,5.22905 2.2095,-2.41894 4.0171,-5.15645 4.0171,-6.08336 0,-3.07824 -6.0495,-7.48347 -10.2767,-7.48347 -6.1861,0 -8.367,-8.4365 -2.7233,-10.53442 5.2231,-1.94152 13.4781,2.95485 14.9119,8.84473 3.9241,16.12084 3.2208,20.37386 -4.6347,28.02303 -5.686,5.53684 -11.3509,5.78203 -17.3311,0.75011 z m -22.0605,-2.75011 c -4.1325,-9.60941 -4.7208,-13.12801 -5.18,-30.9844 -0.3816,-14.83936 0,-19.73588 2.2189,-28 1.4748,-5.50858 2.9954,-12.1156 3.3791,-14.68227 0.3836,-2.56667 1.5729,-5.17485 2.6429,-5.79596 1.631,-0.94677 1.4963,-1.54777 -0.8338,-3.7186 -3.3155,-3.08879 -3.5776,-5.15211 -0.6546,-5.15211 1.1687,0 2.4387,1.2 2.8223,2.66667 0.3835,1.46667 1.5159,2.66667 2.5164,2.66667 2.2363,0 3.7291,5.43489 2.8429,10.3504 -5.2057,28.87584 -6.3064,36.59152 -6.3064,44.20676 0,8.74129 2.9212,21.78765 5.6183,25.09219 0.7404,0.90714 0.9677,3.15714 0.5052,5 -0.6139,2.44617 -1.7291,3.35065 -4.1309,3.35065 -2.5307,0 -3.7864,-1.15405 -5.4403,-5 z m -287.5523,-2.1894 C 1409.05,565.16976 1408,562.78071 1408,560.83494 c 0,-1.94578 -0.7364,-4.71687 -1.6364,-6.15799 -1.2652,-2.02603 -1.2832,-3.55579 -0.079,-6.74576 0.8564,-2.26904 1.1972,-5.06367 0.7572,-6.21028 -0.5372,-1.40006 -0.1828,-1.88391 1.0792,-1.4732 1.0335,0.33634 2.6982,4.01822 3.6994,8.18193 1.0012,4.16371 2.2513,7.57038 2.7782,7.57038 0.5268,0 2.7078,-3.36955 4.8464,-7.4879 4.8068,-9.25631 14.7968,-18.55215 21.2358,-19.76011 3.7886,-0.71073 5.4988,-0.27561 8.5681,2.18002 2.1091,1.68738 4.2005,3.96798 4.6476,5.06798 0.4471,1.1 1.7347,3.5 2.8612,5.33334 1.5172,2.46886 1.866,5.54212 1.3451,11.85031 -0.7708,9.33374 -3.472,14.81636 -7.3002,14.81636 -3.1182,0 -4.2369,-5.0609 -3.2696,-14.79222 0.893,-8.98235 -1.0452,-14.54112 -5.07,-14.54112 -2.9242,0 -19.7198,16.45375 -19.7718,19.36952 -0.031,1.71039 -7.489,9.979 -8.9492,9.92142 -0.5914,-0.0233 -2.1252,-0.83947 -3.4086,-1.81367 z m -63.5481,-1.97867 c -3.2349,-1.19089 -8.4375,-4.71526 -11.5615,-7.83193 -3.1239,-3.11667 -6.6272,-5.66667 -7.7851,-5.66667 -1.5562,0 -2.1053,-1.34845 -2.1053,-5.17008 0,-2.84353 -0.8333,-5.86168 -1.8518,-6.70697 -2.8258,-2.34518 -4.485,-11.60499 -4.2592,-23.76935 0.2113,-11.38203 1.4213,-14.27189 5.6361,-13.46064 2.1341,0.41079 2.4923,1.85093 2.6013,10.45837 0.069,5.49011 0.6327,12.082 1.2515,14.64867 0.6189,2.56667 0.9828,5.42957 0.8087,6.36201 -0.5454,2.92007 10.2076,16.89164 14.7821,19.20677 6.8747,3.47925 15.2353,4.18861 19.5221,1.65637 6.9351,-4.09663 16.2488,-29.89182 10.793,-29.89182 -0.6036,0 -0.5655,-1.85522 0.085,-4.12272 0.6503,-2.26749 0.8112,-6.01749 0.3575,-8.33333 -0.9012,-4.59988 -5.5407,-14.39049 -7.4374,-15.69473 -0.6537,-0.4496 -0.9861,-2.2496 -0.7386,-4 0.3309,-2.34066 1.42,-3.29415 4.1166,-3.60444 2.0167,-0.23204 3.6667,0.21622 3.6667,0.99616 0,0.77992 1.9871,3.66977 4.4159,6.42189 3.3242,3.76704 4.8357,7.19112 6.1146,13.85317 1.7252,8.98552 0.945,23.16014 -1.353,24.58031 -0.6476,0.40025 -1.1775,2.41887 -1.1775,4.48579 0,2.06693 -0.9,4.50498 -2,5.4179 -1.1,0.91292 -2,2.89926 -2,4.4141 0,1.51482 -1.2741,4.59136 -2.8316,6.83673 -6.476,9.33706 -18.1616,12.92298 -29.0499,8.91444 z m 205.6559,0.99371 c -7.2126,-6.35836 -9.7744,-9.24963 -9.7744,-11.031 0,-1.14244 -1.5042,-2.45468 -3.3426,-2.9161 -2.6292,-0.65989 -4.4794,0.18824 -8.6705,3.97461 -5.176,4.67626 -8.5531,5.8051 -11.3475,3.7931 -1.9,-1.36812 -4.6394,-7.91287 -4.6394,-11.08417 0,-3.40652 -3.295,-4.64472 -7.3922,-2.77792 -2.0849,0.95 -2.9465,2.18576 -2.4414,3.50188 1.1953,3.11512 -7.4687,11.00384 -13.2835,12.09469 -5.7551,1.07966 -12.3307,-1.19086 -14.3441,-4.95289 -0.7475,-1.39685 -1.4272,-5.52467 -1.5103,-9.17291 -0.128,-5.59283 0.4465,-7.257 3.6596,-10.61072 2.096,-2.18765 3.0985,-3.97755 2.228,-3.97755 -2.7212,0 -1.7664,-2.53206 3.7925,-10.05693 3.3452,-4.52813 6.3668,-7.2764 8,-7.2764 3.7743,0 3.302,3.89057 -1.1364,9.36288 -2.638,3.25248 -4.2873,7.48643 -5.5237,14.17937 -1.8603,10.07036 -1.4225,13.34752 1.9557,14.64391 3.0694,1.17782 14.8658,-11.2284 17.4162,-18.31656 3.4782,-9.66671 7.5254,-31.99989 7.3049,-40.31075 -0.2352,-8.86449 1.3223,-11.55885 6.6815,-11.55885 4.1466,0 5.2822,2.16335 4.5493,8.66667 -0.248,2.2 -0.7724,7.3 -1.1653,11.33333 -1.9634,20.15011 -2.4432,23.64616 -3.7771,27.51767 -1.2357,3.58662 -1.0301,4.70746 1.4389,7.84648 1.5844,2.01417 2.8899,5.23122 2.9011,7.149 0.032,5.4759 1.7735,7.38113 5.1128,5.59396 5.1733,-2.76871 7.5487,-12.22527 3.9696,-15.80427 -1.1961,-1.19623 -1.1961,-2.37065 0,-4.99608 0.8601,-1.88773 1.5639,-4.94116 1.5639,-6.7854 0,-3.80984 5.5046,-15.85189 9.076,-19.85469 8.3186,-9.32367 18.2048,-7.13926 21.6225,4.77769 3.2767,11.42537 -0.2111,20.1084 -11.6985,29.12395 -3.85,3.02153 -7,6.09322 -7,6.82598 0,0.73276 3.102,4.29099 6.8933,7.90718 6.1668,5.88184 7.6075,6.61655 13.6667,6.97005 l 6.7733,0.39515 -3.606,3.66667 c -2.9676,3.0174 -4.7383,3.65486 -10,3.6 -3.5167,-0.0367 -7.0956,-0.68514 -7.9529,-1.44103 z m 1.4008,-36.98423 c 3.02,-3.33711 4.9814,-12.92251 3.462,-16.91892 -1.5436,-4.05993 -5.1816,-5.11311 -8.2064,-2.37569 -7.1396,6.46129 -9.9415,16.56024 -6.4199,23.14036 1.2988,2.4267 1.7443,2.49653 5.0433,0.79049 1.9903,-1.02921 4.7447,-3.11552 6.121,-4.63624 z m -487.7162,23.16331 c -1.2301,-1.87736 -1.8981,-3.96092 -1.4845,-4.63015 1.1718,-1.89605 2.0559,-33.86155 0.9821,-35.50836 -0.6208,-0.95205 -11.7292,-1.78125 -31.6411,-2.36188 -30.5298,-0.89024 -55.79745,0.29255 -72.14625,3.37721 -6.69747,1.26367 -10.76931,1.14183 -22.66667,-0.67824 -17.36164,-2.656 -32.79932,-2.7609 -44.26933,-0.30086 -6.23674,1.33762 -12.04206,1.51992 -22.28784,0.69985 -9.2008,-0.73643 -15.32531,-0.62919 -18.2333,0.31925 -2.40834,0.78548 -9.17881,1.50204 -15.04548,1.59236 -8.11982,0.12507 -12.12018,0.87916 -16.75429,3.1585 -8.37963,4.1216 -9.54169,3.92789 -8.53781,-1.42326 l 0.82873,-4.41752 -15.8226,0.16638 c -8.70243,0.0915 -16.49403,0.58133 -17.31465,1.0885 -3.87936,2.39758 -8.79646,-5.38744 -5.21286,-8.25326 0.81408,-0.65103 11.98015,-1.60378 24.81348,-2.1172 15.99879,-0.64007 26.45087,-1.73756 33.25112,-3.49144 11.53863,-2.97598 16.46358,-3.19504 20.5032,-0.91198 2.11892,1.19754 13.62812,1.66682 42.24568,1.72254 23.98804,0.0467 43.08966,0.701 48.9616,1.67712 8.19226,1.36181 11.07575,1.27226 19.33334,-0.6004 7.91628,-1.79528 17.6547,-2.20774 52.83583,-2.23779 l 43.1307,-0.0368 -0.804,-5.02829 c -0.4423,-2.76556 -2.6011,-7.69096 -4.7974,-10.94532 -4.5306,-6.71304 -4.9353,-9.61292 -1.8215,-13.05358 1.8245,-2.01601 3.4774,-2.26474 10.3333,-1.55496 12.0856,1.25123 15.9039,3.39434 23.8795,13.4028 8.8527,11.10916 10.282,13.7394 10.282,18.92111 0,3.15733 0.589,4.08765 2.5879,4.08765 4.7412,0 4.2133,2.47942 -1.8822,8.84104 -3.3215,3.46648 -6.0391,6.84094 -6.0391,7.49878 0,0.65784 -2.85,4.87604 -6.3333,9.37377 -3.4833,4.49775 -7.8333,11.16568 -9.6667,14.81763 -1.8333,3.65194 -4.6018,7.44546 -6.1522,8.43005 -2.5303,1.60692 -3.0478,1.44076 -5.0554,-1.62321 z m 16.8041,-30.09883 c 2.7114,-3.69615 4.6231,-7.51971 4.2481,-8.4968 -0.7377,-1.92237 -8.0297,-3.86405 -9.9815,-2.65779 -1.4387,0.88912 -1.6256,17.92406 -0.1964,17.89511 0.55,-0.0107 3.2184,-3.04439 5.9298,-6.74052 z m 1.2043,-26.95089 c 0.8386,-3.1355 0.1459,-4.46451 -5.0192,-9.6296 -8.3785,-8.37852 -16.1881,-8.24431 -11.7827,0.20249 1.0916,2.09299 1.9906,4.40544 1.9979,5.13877 0.01,0.73334 1.1621,3.21755 2.5664,5.52047 2.2751,3.73117 3.0275,4.09011 6.909,3.29625 3.2596,-0.66666 4.6006,-1.80625 5.3286,-4.52838 z M 1755,538.71532 c -2.1985,-3.53415 -2.1275,-8.04864 0.1267,-8.04864 2.7005,0 6.5036,4.80699 5.9749,7.55215 -0.6551,3.40104 -4.1193,3.68294 -6.1016,0.49649 z m 102.8089,-7.39895 c -0.4256,-1.10934 -0.191,-2.75934 0.5212,-3.66666 0.7419,-0.9449 1.1616,-10.30119 0.9824,-21.89967 -0.3054,-19.78077 -0.2342,-20.36017 3.0708,-25.00543 1.8611,-2.61549 3.6179,-4.52114 3.9043,-4.2348 0.9353,0.93534 1.7676,13.12279 2.2659,33.18304 0.4674,18.81771 0.364,19.78056 -2.3288,21.66667 -3.6294,2.54213 -7.4311,2.52264 -8.4158,-0.0432 z m 7.5244,-58.95196 c 0,-3.3248 2.0576,-5.09534 3.399,-2.92486 0.5041,0.81566 -0.055,2.45402 -1.2412,3.6408 -1.9882,1.98813 -2.1578,1.93184 -2.1578,-0.71594 z M 927.34647,449.3546 c -1.235,-1.99828 -4.27947,-13.07812 -6.05088,-22.02126 -0.87154,-4.4 -2.26958,-8.842 -3.10676,-9.87112 -2.59234,-3.18665 -1.96154,-34.09212 0.87649,-42.942 4.09733,-12.77686 10.04261,-16.24998 23.60135,-13.78748 4.16852,0.75707 5.12924,1.79786 9,9.74992 4.68604,9.62699 5.43854,14.51027 2.41481,15.67058 -1.05519,0.40492 -2.28661,2.41208 -2.73649,4.46036 -0.44988,2.04828 -4.45843,8.04904 -8.9079,13.335 l -8.08993,9.61084 0.0937,8.88696 c 0.0515,4.88781 0.44551,12.60401 0.87551,17.14711 0.69161,7.30729 0.47864,8.4224 -1.84628,9.66666 -3.27961,1.75519 -5.08003,1.78295 -6.1236,0.0944 z m 10.36921,-51.70062 c 2.94932,-2.66909 6.12303,-8.44252 7.73976,-14.07972 1.27264,-4.43745 -0.14791,-7.96777 -5.0594,-12.57342 -2.96071,-2.77636 -3.47721,-2.85496 -6.95225,-1.05795 -4.08067,2.1102 -5.44379,6.19459 -5.44379,16.31144 0,3.25655 -0.6462,7.12843 -1.436,8.60419 -0.78981,1.47576 -1.08057,3.60946 -0.64613,4.74157 0.99738,2.59917 8.06325,1.43363 11.79781,-1.94611 z m -137.3228,44.0127 c -1.17575,-2.75 -2.09948,-6.8 -2.05273,-9 0.0468,-2.2 0.0857,-8.8 0.0868,-14.66667 0.003,-14.00605 -0.001,-13.92179 0.96413,-19.33333 0.94619,-5.30036 4.14265,-13.03166 6.61513,-16 0.91624,-1.1 2.48968,-4.39996 3.49654,-7.33324 1.00685,-2.93327 4.43494,-7.95336 7.61798,-11.15576 5.71914,-5.75391 5.86843,-5.81187 12.66667,-4.91788 3.78363,0.49757 7.44932,1.46766 8.14599,2.15577 0.69666,0.68811 2.49666,1.27268 4,1.29905 3.24408,0.0569 9.21801,4.86068 10.71818,8.61872 2.89467,7.25135 -2.74708,19.79595 -14.18336,31.53714 -6.61233,6.78862 -6.66261,6.81128 -13.36057,6.018 -7.50316,-0.88863 -10.11292,-2.51888 -12.00691,-7.50034 -1.20552,-3.17068 -1.37829,-3.22714 -2.69189,-0.87992 -1.34128,2.39668 -1.21439,6.11406 1.05792,30.99126 0.78151,8.55608 0.58625,9.78091 -1.96617,12.33333 -4.1119,4.1119 -6.68519,3.49987 -9.10766,-2.16613 z m 29.80493,-42.66667 c 1.43322,-1.28333 5.19583,-6.06035 8.36138,-10.6156 4.46322,-6.42261 5.56573,-9.03852 4.91017,-11.65044 -0.92235,-3.67493 -9.236,-8.73396 -14.35276,-8.73396 -3.44531,0 -11.78327,7.51103 -11.78327,10.61464 0,1.15033 -1.2,4.33045 -2.66666,7.06693 -3.22295,6.01332 -3.39686,8.9851 -0.52582,8.9851 1.17748,0 3.92351,1.5 6.10231,3.33333 4.69087,3.94711 6.46439,4.12527 9.95465,1 z m 42.41903,3.36429 c -3.18101,-3.78042 -3.5148,-5.07133 -2.88617,-11.1622 0.91628,-8.87792 4.30896,-15.30473 10.786,-20.43214 7.5958,-6.01304 9.91225,-5.41708 13.46592,3.46438 1.22353,3.05794 3.078,5.88735 4.12101,6.28759 2.69031,1.03237 2.36936,8.68617 -0.56607,13.49967 -7.87476,12.91294 -18.17392,16.3608 -24.92069,8.3427 z m 18.90769,-9.21057 c 4.5827,-4.30523 3.89268,-7.958 -2.4393,-12.91291 -4.7128,-3.68788 -10.41856,3.68679 -10.41856,13.46595 0,3.82857 0.17952,3.94636 4.85786,3.18716 2.67182,-0.43357 6.27182,-2.11667 8,-3.7402 z m 94.08308,3.13991 c -1.98468,-2.12462 -5.4083,-8.30984 -7.60806,-13.74495 C 974.50133,373.90536 974,371.03106 974,359.61805 c 0,-7.63173 0.58192,-13.44359 1.40179,-14 0.77098,-0.52325 2.46685,-3.79156 3.76861,-7.26289 3.00437,-8.01164 6.51731,-12.4509 8.75729,-11.0665 2.16996,1.34111 0.91796,9.74839 -2.65436,17.8242 -2.93637,6.63815 -3.32364,15.7795 -1.17106,27.64227 1.69314,9.33084 4.29542,13.91155 7.90306,13.91155 1.67196,0 2.91106,1.19737 3.44639,3.33034 1.07095,4.26696 0.0729,6.78334 -3.435,8.66071 -2.38821,1.27813 -3.33193,0.93001 -6.40911,-2.36409 z m 20.27189,-17.80912 c 0.5026,-6.86648 1.5564,-15.89899 2.3418,-20.07226 1.0349,-5.4994 1.0175,-8.76512 -0.063,-11.86562 -0.8203,-2.35284 -1.4913,-7.15295 -1.4913,-10.66691 0,-3.51395 -0.6,-6.75983 -1.3334,-7.21305 -0.7333,-0.45323 -1.3333,-2.08163 -1.3333,-3.61867 0,-2.71017 0.081,-2.72171 2.6667,-0.38133 1.4666,1.32732 2.6666,3.23913 2.6666,4.24849 0,1.00936 0.9224,2.18913 2.0497,2.62173 5.4759,2.10131 7.269,16.88544 4.584,37.79644 -1.5788,12.29607 -3.2506,16.55727 -7.619,19.41951 l -3.3823,2.21617 z"
       id="path247" />
  </g>
</svg>
