<?xml version="1.0" encoding="UTF-8" standalone="no"?>
<!-- Created with Inkscape (http://www.inkscape.org/) -->

<svg
   version="1.1"
   id="svg37"
   width="1904"
   height="1330.6667"
   viewBox="0 0 1904 1330.6667"
   sodipodi:docname="stack5.png"
   xmlns:inkscape="http://www.inkscape.org/namespaces/inkscape"
   xmlns:sodipodi="http://sodipodi.sourceforge.net/DTD/sodipodi-0.dtd"
   xmlns="http://www.w3.org/2000/svg"
   xmlns:svg="http://www.w3.org/2000/svg">
  <defs
     id="defs41" />
  <sodipodi:namedview
     id="namedview39"
     pagecolor="#ffffff"
     bordercolor="#000000"
     borderopacity="0.25"
     inkscape:showpageshadow="2"
     inkscape:pageopacity="0.0"
     inkscape:pagecheckerboard="0"
     inkscape:deskcolor="#d1d1d1"
     showgrid="false" />
  <g
     inkscape:groupmode="layer"
     inkscape:label="Image"
     id="g43">
    <path
       style="fill:#000000;stroke-width:1.33333"
       d="m 181.07012,1245.6667 c -1.10541,-1.2833 -3.08436,-4.4333 -4.39765,-7 -6.18912,-12.0959 -5.32894,-11.3333 -12.78396,-11.3333 -5.21906,0 -7.2681,-0.5881 -8.3962,-2.4097 -1.26584,-2.0439 -0.59822,-3.1769 4.39948,-7.4659 l 5.89177,-5.0562 -2.04432,-5.2008 c -4.14713,-10.5504 -4.12752,-32.0615 0.0367,-40.1477 1.58996,-3.0874 2.89082,-6.474 2.89082,-7.5256 0,-1.0517 1.74072,-3.7756 3.86828,-6.0531 3.20494,-3.4309 4.88434,-4.141 9.79335,-4.141 6.60628,0 11.30272,3.5637 9.81288,7.4462 -0.64744,1.6872 -1.84515,2.013 -5.04665,1.3727 -2.71447,-0.5429 -5.259,-0.1442 -7.20112,1.1283 -6.99707,4.5847 -11.92295,29.368 -8.59466,43.2419 1.4766,6.1552 1.96326,6.8029 4.51154,6.0051 1.57101,-0.4919 4.18638,-1.9325 5.81194,-3.2012 3.00542,-2.3458 9.71111,-2.1785 9.71111,0.2422 0,0.6918 -3,4.4298 -6.66667,8.3067 -5.35849,5.6659 -6.65796,7.9395 -6.6223,11.5869 0.0415,4.2422 3.64789,10.4455 6.16936,10.6116 0.61578,0.041 2.54129,1.872 4.27889,4.0699 3.05721,3.867 3.07875,4.0571 0.66667,5.8838 -3.23332,2.4487 -3.69263,2.4215 -6.08916,-0.3608 z m 37.86321,-9.9333 c -0.88,-0.88 -1.6,-2.3989 -1.6,-3.3752 0,-0.9764 -0.9,-2.1206 -2,-2.5427 -2.42398,-0.9301 -2.79177,-9.8155 -0.40629,-9.8155 0.87655,0 3.27655,1.6123 5.33333,3.5828 l 3.73963,3.5828 3.98465,-3.8175 c 2.19158,-2.0997 4.3756,-5.0493 4.85342,-6.5548 1.1657,-3.6728 7.10094,-11.0612 10.91782,-13.5909 4.36844,-2.8953 6.91078,-0.4077 6.91078,6.7619 0,9.8845 -2.00119,13.1821 -11.43794,18.8476 -15.89109,9.5405 -17.22233,9.9945 -20.2954,6.9215 z m 77.63095,0.101 c -0.50953,-0.8244 -1.09364,-6.7593 -1.298,-13.1886 -0.49915,-15.7031 -1.87319,-26.3789 -4.09396,-31.8085 -1.01144,-2.473 -1.83899,-6.1839 -1.83899,-8.2466 0,-2.0627 -0.52544,-5.1395 -1.16765,-6.8372 -0.64221,-1.6978 -1.60844,-6.3089 -2.14715,-10.247 -0.78688,-5.7522 -0.62282,-7.0414 0.83432,-6.5561 0.9976,0.3321 2.0367,1.7542 2.30911,3.1601 0.27241,1.4059 1.92241,4.2522 3.66667,6.3252 1.74425,2.0729 3.17137,4.5466 3.17137,5.4971 0,0.9505 1.23113,4.5114 2.73585,7.9131 1.50472,3.4017 2.39538,6.7358 1.97922,7.4091 -0.41615,0.6734 0.1503,6.8165 1.25878,13.6513 2.76052,17.0213 2.72226,32.5413 -0.0829,33.6177 -3.04089,1.167 -4.27825,1.0067 -5.32667,-0.6896 z m -22.36316,-7.6244 c -6.22072,-6.493 -8.89561,-16.057 -10.28231,-36.764 -0.7662,-11.4413 -0.77969,-20.4453 -0.0345,-23.0431 0.92201,-3.2143 0.7586,-4.6493 -0.66393,-5.8299 -2.20754,-1.8321 -2.46524,-4.7248 -0.5276,-5.9223 0.74766,-0.4621 3.5301,-0.1238 6.18318,0.7518 l 4.82379,1.592 -0.93867,24.1947 -0.93865,24.1948 4.76063,6.2348 c 6.76213,8.8561 8.06138,12.7926 5.24822,15.9011 -2.92936,3.2369 -3.34185,3.1661 -7.63012,-1.3099 z M 126.58441,1071.117 c -0.74227,-1.9523 -0.94559,-6.2437 -0.45183,-9.5364 l 0.89776,-5.9866 -4.16725,0.8334 c -8.86945,1.7739 -11.09377,-2.8078 -3.52976,-7.2707 2.56667,-1.5144 4.71258,-3.1441 4.76868,-3.6217 0.0561,-0.4776 0.323,-2.0544 0.59308,-3.5041 1.31533,-7.06 3.12473,-44.02679 3.95102,-80.72106 0.42862,-19.03428 0.12648,-27.3602 -1.12498,-31.00046 -1.23205,-3.5838 -1.39126,-7.49606 -0.56877,-13.97648 0.62822,-4.94974 1.00516,-14.99954 0.83765,-22.33288 -0.16752,-7.33333 0.0904,-17.53333 0.57312,-22.66666 1.13067,-12.02347 1.17731,-21.35983 0.13894,-27.81347 -0.63305,-3.93454 -0.1302,-6.38855 2.1349,-10.41875 2.66001,-4.73285 2.87738,-6.45617 2.12567,-16.85319 -1.16529,-16.11749 -0.96436,-22.71298 0.79191,-25.99461 0.8582,-1.60357 1.64784,-10.61767 1.82832,-20.87131 0.17473,-9.92677 1.09374,-23.14868 2.04224,-29.38201 1.8471,-12.13868 2.08542,-18.96611 1.46613,-42 -0.21689,-8.06667 0.31148,-31.16667 1.17416,-51.33334 1.65636,-38.72073 2.12553,-72.33701 1.39735,-100.11876 -0.43138,-16.45804 -0.49703,-16.77451 -3.36578,-16.22611 -5.02041,0.95971 -6.13254,-2.04078 -4.58994,-12.38358 0.76056,-5.09935 1.66133,-29.07155 2.00174,-53.27155 0.3404,-24.2 0.88015,-52.1 1.19944,-62 0.31928,-9.9 0.53587,-20.4 0.48128,-23.33334 -0.61494,-33.05181 -0.29012,-79.92243 0.61556,-88.81832 0.62612,-6.14992 1.37455,-16.88168 1.66318,-23.84835 0.28861,-6.96666 1.15788,-19.56666 1.93169,-28 0.7738,-8.43333 1.64757,-18.63333 1.94169,-22.66666 0.29414,-4.03334 1.12958,-15.58719 1.85654,-25.67525 0.72696,-10.08805 1.71277,-18.97462 2.1907,-19.74793 0.47794,-0.77332 1.04732,-6.67569 1.26531,-13.1164 0.22872,-6.75781 1.14689,-12.91221 2.17103,-14.55212 2.39213,-3.8304 0.14212,-6.17536 -4.28902,-4.47001 -6.53345,2.51441 -16.13076,4.22837 -23.67673,4.22837 -4.27293,0 -10.50352,0.82299 -13.84577,1.82885 -3.34224,1.00587 -6.85987,1.3449 -7.81695,0.75338 -2.661139,-1.64467 0.67284,-6.87988 6.31713,-9.91954 2.56854,-1.38325 5.27698,-3.64902 6.01877,-5.03505 C 115.34065,126.91596 122.67623,124 129.367,124 c 2.99896,0 9.68867,-0.69956 14.86601,-1.55458 8.40326,-1.38777 9.54674,-1.31623 10.65643,0.66667 0.68368,1.22169 2.73208,2.22125 4.55199,2.22125 4.68838,0 5.10748,2.52129 1.90964,11.48856 -2.16392,6.06793 -3.10379,13.39604 -4.14955,32.35377 -0.7436,13.47996 -1.02759,25.35443 -0.63108,26.38771 0.39652,1.03329 0.15591,6.20424 -0.53468,11.491 -3.39036,25.95501 -4.9768,87.94368 -3.26589,127.6123 0.85489,19.82118 0.93266,26.68841 0.74868,66.10785 -0.0584,12.52599 0.39832,27.27415 1.01506,32.77368 1.80374,16.08383 0.60612,42.38576 -2.06432,45.33656 -1.61594,1.7856 -1.74185,2.44858 -0.46502,2.44858 1.42428,0 1.5693,6.0317 0.77741,32.33333 -0.53541,17.78333 -0.78033,37.73333 -0.54425,44.33333 0.23608,6.6 0.17325,20.7 -0.13962,31.33334 -1.18917,40.41565 -1.17781,40.60824 2.42527,41.1176 3.15756,0.44639 3.18152,0.56743 2.37452,12 -0.44837,6.35199 -1.45864,26.84907 -2.24504,45.54907 -0.7864,18.7 -2.04163,37.60702 -2.78941,42.0156 -1.38379,8.1582 -1.79535,13.15779 -3.12683,37.9844 -0.41296,7.7 -1.40483,18.06807 -2.20415,23.04016 -0.79933,4.97208 -1.12226,9.90287 -0.71765,10.95729 0.40463,1.05443 0.16189,2.27178 -0.53941,2.7052 -2.04912,1.26643 -1.46727,7.52952 0.85742,9.22938 3.19668,2.33748 7.40866,23.27912 7.92475,39.4013 0.35855,11.20086 -1.44359,30.57809 -3.41011,36.66667 -1.6721,5.1771 -4.18105,25.57651 -4.50966,36.66667 -0.14124,4.76667 -0.95052,10.76667 -1.79839,13.33333 -0.84788,2.56667 -1.79993,11.26667 -2.11568,19.33334 -0.31573,8.06666 -1.49049,21.56666 -2.61055,30 -1.12005,8.43333 -2.41666,23.34854 -2.88133,33.14494 -0.76549,16.1382 -0.62123,17.9751 1.53556,19.5522 1.30923,0.9573 2.38472,2.8421 2.38999,4.1884 0.008,2.0573 1.07316,2.4358 6.67622,2.3726 9.6181,-0.1085 39.2925,-4.4702 42.55802,-6.2553 2.43561,-1.3315 1.64946,-1.7444 -6.42262,-3.3733 -8.18685,-1.652 -9.7258,-1.6201 -14,0.2906 -5.48804,2.4534 -26.91305,3.548 -27.65873,1.4132 -0.57207,-1.6378 7.95496,-5.1429 19.52333,-8.0252 4.76667,-1.1877 11.23764,-3.0178 14.37994,-4.0671 6.83444,-2.2821 15.76665,-2.4946 17.0576,-0.4058 0.63012,1.0196 3.54596,1.203 9.07869,0.5712 4.48275,-0.512 9.35044,-0.9576 10.81711,-0.9903 1.46666,-0.033 13.76666,-0.5795 27.33333,-1.2152 24.05569,-1.1272 52.15303,0.146 60.11272,2.7238 2.18437,0.7074 8.77463,0.2385 18,-1.2808 15.24905,-2.5113 35.65431,-3.4088 52.55395,-2.3114 11.96184,0.7767 29.88645,-0.9418 40,-3.8348 13.03553,-3.729 12.88581,-3.5684 15.22833,-16.3321 2.68157,-14.61095 2.77351,-31.22596 0.19484,-35.21255 -1.58827,-2.45544 -1.69872,-6.21113 -0.65547,-22.28643 0.6901,-10.63333 1.36628,-46.09042 1.50267,-78.79354 0.24735,-59.31149 0.24067,-59.4695 -2.66707,-63.16609 -3.10373,-3.94574 -3.10509,-4.34094 -0.0804,-23.3737 0.75752,-4.76667 1.32714,-13.76667 1.26582,-20 -0.0613,-6.23334 0.5071,-14.63334 1.26314,-18.66667 3.14012,-16.75195 4.33048,-89.60531 2.61483,-160.03349 -0.60404,-24.79601 -0.43105,-27.89022 1.84155,-32.93874 2.34477,-5.20887 2.4065,-6.94428 0.9475,-26.63319 -2.27989,-30.76641 -2.42005,-58.44777 -0.33617,-66.39459 0.96149,-3.66667 1.86915,-11.76667 2.01699,-18 0.14785,-6.23333 1.32862,-16.29855 2.62393,-22.36715 1.29531,-6.0686 1.90137,-11.76798 1.3468,-12.6653 -0.55457,-0.89731 -1.42385,-5.15578 -1.93175,-9.46324 -0.71341,-6.05054 -0.3348,-9.62484 1.66471,-15.71564 1.42348,-4.33614 2.4648,-8.61246 2.31404,-9.50294 -0.15075,-0.89049 0.16429,-4.31906 0.70011,-7.61906 0.53581,-3.3 1.21256,-23.1 1.50386,-44.00001 0.29132,-20.9 0.9414,-42.8 1.44462,-48.66666 1.02936,-12.00036 1.2512,-66.55614 0.41594,-102.28375 -0.46185,-19.75568 -0.22513,-23.93303 1.44787,-25.54943 2.58049,-2.4932 11.75299,-4.97852 12.70271,-3.44185 0.398,0.644 -0.33839,8.84433 -1.63643,18.22296 -2.55048,18.42777 -2.93587,36.35582 -1.45573,67.71873 3.01962,63.98368 3.01962,63.98403 -0.63384,83.33334 -4.17148,22.09284 -5.15994,42.33561 -5.67859,116.29263 -0.32184,45.89185 -0.75253,56.74137 -2.46121,62 -2.54043,7.81841 -4.33902,43.01235 -4.74691,92.88531 -0.16125,19.71453 -0.78271,41.91453 -1.38101,49.33333 -0.59832,7.4188 -0.85732,26.38874 -0.57556,42.1554 0.76457,42.78294 0.70514,45.74504 -0.98214,48.95455 -1.02925,1.95781 -1.11309,3.53215 -0.24852,4.66667 0.77106,1.0118 1.05852,8.80205 0.70279,19.04545 -0.78793,22.68927 -0.75121,24.3522 0.88093,39.89464 1.46314,13.93302 1.2427,15.76274 -1.76026,14.61039 -3.4883,-1.33859 -5.04071,4.45295 -3.92267,14.63407 0.57545,5.24016 0.89304,15.12869 0.70573,21.97452 -0.30998,11.33025 -0.12693,12.40581 2.04015,11.98846 3.53007,-0.67982 4.75093,-9.80158 3.85043,-28.76874 -0.79659,-16.77871 0.43649,-20.98923 3.31908,-11.33334 2.32666,7.79375 -0.37654,39.37267 -4.70808,55 -2.80791,10.13039 -3.56096,15.98046 -3.76088,29.21638 -0.15948,10.55789 0.25546,16.72031 1.14609,17.02091 0.93032,0.31401 1.32193,11.47356 1.17385,33.4503 -0.12226,18.1385 0.16911,37.77908 0.64742,43.64575 0.47829,5.86667 0.4617,13.96667 -0.0368,18.00001 -0.49859,4.0333 -1.1976,12.5168 -1.55339,18.8521 l -0.64688,11.5187 5.00371,-0.6711 c 3.13952,-0.4211 5.37524,-0.07 6.00098,0.9425 1.47438,2.3856 -2.5245,5.693 -6.86585,5.6785 -2.08215,-0.01 -5.37399,0.8016 -7.31521,1.7967 -2.92095,1.4973 -3.62152,2.9075 -4.0633,8.1792 -0.29358,3.5035 -0.0303,6.5784 0.58515,6.8331 0.61541,0.2546 0.4538,1.2644 -0.35915,2.2439 -2.51317,3.0282 -6.63321,-1.6869 -6.63321,-7.5912 0,-2.7271 -0.6,-5.3292 -1.33333,-5.7824 -0.73334,-0.4532 -1.33334,-2.2152 -1.33334,-3.9154 0,-5.6838 -2.681,-6.4562 -18.98041,-5.4682 -8.26077,0.5008 -18.61959,1.5189 -23.01959,2.2624 -15.01109,2.5366 -27.44074,2.7706 -29.88066,0.5625 -1.34883,-1.2206 -3.42423,-1.6914 -5.29734,-1.2016 -2.5755,0.6735 -2.95397,1.4337 -2.31193,4.6439 1.24553,6.2277 -2.56955,8.995 -10.65987,7.7321 -3.58428,-0.5595 -11.75169,-0.4454 -18.1498,0.2535 -7.87264,0.8601 -17.57002,0.7818 -30,-0.2422 -10.10189,-0.8322 -21.96706,-1.4413 -26.36706,-1.3537 -19.99646,0.3983 -57.43996,2.8497 -72,4.7138 -8.8,1.1266 -22.6,2.6713 -30.66667,3.4325 -8.24685,0.7782 -15.41576,2.124 -16.37805,3.0746 -0.94127,0.9297 -2.07452,4.0489 -2.51835,6.9315 -1.35301,8.7874 -4.8307,11.2191 -7.18585,5.0246 z M 136,878.66669 c 0,-0.73333 -0.26459,-1.33333 -0.58797,-1.33333 -0.32339,0 -0.9588,0.6 -1.41203,1.33333 -0.45323,0.73333 -0.18864,1.33333 0.58797,1.33333 0.77662,0 1.41203,-0.6 1.41203,-1.33333 z M 436,487.25465 c 0,-1.14328 -0.6,-1.70786 -1.33333,-1.25464 -0.73334,0.45323 -1.33334,1.38864 -1.33334,2.0787 0,0.69005 0.6,1.25464 1.33334,1.25464 0.73333,0 1.33333,-0.93542 1.33333,-2.0787 z m -263.02372,506.5402 c -2.06848,-3.4682 -2.19224,-21.10495 -0.36813,-52.46149 1.13049,-19.43334 2.05614,-40.24428 2.05698,-46.24654 0.003,-16.27437 0.61423,-17.2441 11.57386,-18.34101 5.00189,-0.50061 17.79434,-1.20337 28.42768,-1.56168 10.82858,-0.36489 22.85254,-1.55584 27.33333,-2.70729 4.4,-1.1307 12.5,-2.55474 18,-3.16452 5.5,-0.60979 12.4,-1.7402 15.33333,-2.51203 2.93334,-0.77183 7.36075,-1.41763 9.83868,-1.43512 2.47795,-0.0175 8.47795,-1.4557 13.33334,-3.19599 18.65696,-6.68711 68.22173,-13.05284 70.67866,-9.07744 0.5094,0.82424 0.47515,5.86579 -0.0761,11.20345 -2.68609,26.00735 -2.81203,40.84715 -0.40771,48.04235 1.88576,5.64336 2.38247,12.27999 2.56928,34.32915 0.12734,15.03333 0.70804,28.38333 1.29039,29.66667 0.58235,1.28333 0.71345,3.23333 0.29133,4.33333 -0.89722,2.33816 -8.2426,2.73004 -9.61289,0.51285 -0.60144,-0.97316 -3.04801,-1.16854 -7.07869,-0.56532 -3.38776,0.507 -8.67515,0.8545 -11.74972,0.77222 -3.07459,-0.0823 -11.47459,0.8657 -18.66667,2.10668 -8.38395,1.44661 -18.8182,2.15294 -29.07652,1.96829 -12.98241,-0.23369 -17.63452,0.22676 -24.66667,2.44144 -9.93545,3.12903 -16.98992,3.39065 -33.20676,1.23152 -10.73881,-1.42977 -11.94252,-1.34055 -17.98728,1.33333 -6.75108,2.98632 -15.35957,3.7742 -17.53929,1.60524 -1.20001,-1.19408 -15.27745,-0.0909 -25.44211,1.99374 -2.29649,0.47097 -4.47821,0.34865 -4.84828,-0.27183 z M 202,983.80933 c 8.96411,0.22824 15.47604,-0.31779 19.87212,-1.66625 5.49445,-1.6854 8.82727,-1.76646 20.86761,-0.50754 13.37019,1.39798 14.99272,1.30112 24.25159,-1.44753 8.47065,-2.51465 12.73384,-2.91021 29.13237,-2.70303 14.90602,0.18834 20.55386,-0.24518 25.20964,-1.93505 3.72651,-1.35257 10.21663,-2.18512 17.12812,-2.19717 6.12047,-0.0107 14.34642,-0.95499 18.27988,-2.09847 l 7.15175,-2.07907 -0.57312,-18.92093 c -0.78971,-26.07121 -2.0614,-41.28556 -3.61248,-43.21899 -1.22543,-1.5275 -1.06136,-6.84062 1.11851,-36.22014 l 0.73096,-9.85155 -7.77848,0.86714 c -4.27816,0.47694 -13.56932,1.40924 -20.64703,2.0718 -9.74805,0.91252 -15.73663,2.36585 -24.69613,5.99327 -13.38495,5.41916 -30.00899,8.75716 -43.76864,8.78846 -5.13334,0.012 -11.90855,0.91822 -15.05604,2.01456 -3.6748,1.28001 -12.99215,2.2203 -26.03655,2.62758 -26.47917,0.82672 -33.47469,2.94535 -37.80864,11.45051 -2.63471,5.17047 -2.93805,7.43668 -2.48385,18.55643 0.28456,6.96666 -0.0948,17.46666 -0.84319,23.33333 -2.31628,18.15929 -3.45065,45.16239 -1.97801,47.08572 0.89868,1.17372 2.4751,1.4164 4.77401,0.73491 1.88775,-0.5596 9.43227,-0.8647 16.7656,-0.67799 z m -21.66667,-151.5593 c -4.13986,-0.40026 -4.33149,-0.66818 -4.29216,-6.00116 0.0227,-3.0702 0.62722,-10.08218 1.34348,-15.58218 0.71628,-5.5 1.61832,-29.79914 2.00454,-53.99808 0.5102,-31.96727 1.14544,-44.43482 2.32317,-45.59529 1.24367,-1.22542 9.74348,-1.29732 36.51679,-0.30889 33.44502,1.23473 35.41288,1.16923 47.33333,-1.57559 6.84064,-1.57514 14.83752,-3.2983 17.77085,-3.82928 5.35326,-0.96898 13.8775,-3.74382 30,-9.7657 5.40974,-2.02058 14.42895,-3.824 24,-4.79891 8.43334,-0.85901 17.89195,-2.13928 21.01914,-2.84505 10.8576,-2.45043 11.87522,-2.04892 12.79956,5.05012 0.45354,3.48333 1.41694,10.23333 2.1409,15 1.26072,8.30093 2.83534,30.56513 5.42216,76.66667 0.65839,11.73333 1.36683,23.43333 1.57432,26 l 0.37726,4.66666 L 370,815.66155 c -16.75792,0.51563 -21.58908,0.51084 -38.66667,-0.0383 -15.78262,-0.5075 -33.96478,0.97189 -62.66666,5.09886 -21.19358,3.04736 -21.27883,3.05799 -37.31638,4.6476 -9.43798,0.93548 -16.79029,2.4445 -20.66666,4.24171 -5.82442,2.70036 -18.40194,3.79383 -30.3503,2.63859 z m 19.04083,-10.95504 c 3.59359,-3.376 15.64627,-5.10113 18.58712,-2.66044 1.62165,1.34586 3.07117,1.24191 7.52336,-0.5395 3.3528,-1.34152 10.98395,-2.45232 19.46596,-2.83348 7.67319,-0.3448 15.139,-1.26259 16.59072,-2.03952 1.45171,-0.77694 9.34879,-1.96043 17.54907,-2.62999 8.20029,-0.66956 20.30961,-1.69565 26.90961,-2.28021 6.6,-0.58455 19.2,-0.8996 28,-0.70012 26.59043,0.6028 31.81341,0.33926 35.06368,-1.7692 2.93559,-1.90434 3.02605,-2.47218 2.16403,-13.58163 -0.57403,-7.39789 -1.6388,-12.44068 -2.9419,-13.93296 -1.61621,-1.85087 -1.7339,-3.01551 -0.56413,-5.58287 1.07769,-2.36528 1.08883,-9.85864 0.0411,-27.66124 -0.79032,-13.42944 -1.41195,-25.61715 -1.38136,-27.08381 0.0305,-1.46667 -0.59579,-6.75584 -1.39198,-11.75371 -1.41152,-8.86057 -1.53328,-9.06529 -4.88517,-8.21404 -1.89067,0.48015 -10.63757,1.65627 -19.43757,2.6136 -8.8,0.95732 -19,2.92827 -22.66667,4.37987 -3.66667,1.4516 -10.86667,4.27858 -16,6.2822 -13.41903,5.23762 -59.33488,12.73962 -62.49813,10.2113 -0.82603,-0.66021 -8.10187,-1.33433 -16.16854,-1.49802 -8.06666,-0.1637 -19.16666,-0.38543 -24.66666,-0.49275 l -10,-0.19512 -0.90114,14.66667 c -0.49562,8.06667 -1.22784,29.13083 -1.62714,46.80924 -0.3993,17.67841 -1.34379,33.76748 -2.09887,35.75347 -2.53076,6.65641 -1.94896,7.43729 5.54121,7.43729 5.11168,0 7.66467,-0.70516 9.79343,-2.70503 z m -1.41369,-149.01825 c -0.87048,-0.60962 -1.26156,-16.98214 -1.10539,-46.27672 0.32144,-60.29435 0.46211,-62.66667 3.71565,-62.66667 1.69868,0 2.91491,1.28688 3.5853,3.79357 1.33905,5.00691 0.31805,21.37271 -1.67767,26.8918 -1.19003,3.29096 -1.20785,5.31654 -0.072,8.17788 1.63292,4.11339 2.12556,13.3295 2.0742,38.80342 -0.0379,18.80924 -0.18435,18.64812 11.08732,12.19912 7.96348,-4.55624 3.95325,-4.38576 40.1106,-1.70515 6.83007,0.50636 11.34277,0.12467 15.33333,-1.29668 3.11016,-1.10781 11.05483,-2.33307 17.65483,-2.72277 6.6,-0.38971 18.73333,-1.36371 26.96297,-2.16444 10.512,-1.0228 16.46134,-1.03978 20,-0.0571 2.77036,0.76933 12.70586,1.40215 22.07887,1.40623 13.55253,0.005 17.19165,-0.38295 17.77351,-1.89922 0.40241,-1.04866 -0.23794,-6.66046 -1.423,-12.47065 -1.51119,-7.40919 -2.08174,-16.53847 -1.9105,-30.56967 0.13428,-11.00311 -0.10653,-20.57315 -0.53525,-21.26675 -1.03812,-1.6797 -1.17371,-37.32578 -0.16203,-42.59496 0.73491,-3.82765 0.46968,-4.20713 -3.49465,-5 -7.89144,-1.57829 -25.31621,-0.88118 -34.28464,1.37162 -7.70489,1.93541 -10.55716,2.01981 -21.61619,0.63964 -13.59536,-1.6967 -24.57029,-0.58607 -30.11606,3.04766 -1.58574,1.03902 -5.22088,2.311 -8.0781,2.82663 -2.85721,0.51563 -6.0083,1.58533 -7.00242,2.37712 -1.1124,0.886 -7.63558,1.31737 -16.9629,1.12175 -9.9415,-0.20851 -18.17822,0.38318 -23.94192,1.71988 C 221.12176,547.08302 213.92047,548 209.95148,548 c -6.63504,0 -7.37947,-0.31543 -9.24116,-3.91554 -3.25111,-6.28694 0.4656,-11.0938 4.66521,-6.03358 1.7702,2.13296 9.14914,1.81396 17.95778,-0.77636 2.2,-0.64694 11.26142,-1.49819 20.13652,-1.89167 12.88273,-0.57115 17.99096,-1.40997 25.33333,-4.16003 17.16836,-6.43034 22.17312,-7.24689 48.79603,-7.96132 33.87708,-0.90909 44.60541,-1.48524 46.21834,-2.48209 0.73234,-0.4526 1.66504,-0.28325 2.0727,0.37633 0.40764,0.65959 4.00956,1.60762 8.00425,2.10672 l 7.26307,0.90746 -0.91212,13.5817 c -1.26615,18.85334 -1.03595,40.50078 0.80346,75.55527 1.40304,26.73832 1.89638,30.58352 4.57067,35.6246 4.33073,8.16351 2.68377,9.31246 -10.59685,7.39266 -28.25646,-4.08466 -86.04919,-2.45911 -104.35607,2.93525 -5.48493,1.6162 -10.18996,1.95767 -18.66667,1.35469 -10.4525,-0.7435 -11.83104,-0.53962 -17.73721,2.6232 -7.21083,3.8615 -8.94505,4.07848 -15.02505,1.87992 -4.43634,-1.6042 -5.93538,-1.06686 -16.6991,5.9858 -1.7771,1.1644 -3.83729,1.69258 -4.57817,1.17371 z M 1491.6117,648.50071 c -0.5197,-0.51983 -0.945,-1.95215 -0.945,-3.18293 0,-1.23079 -1.2,-3.32378 -2.6667,-4.6511 -1.4667,-1.32732 -2.6667,-3.48489 -2.6667,-4.79462 0,-1.30974 -0.6,-2.75215 -1.3333,-3.20538 -0.7333,-0.45322 -1.3333,-2.85322 -1.3333,-5.33333 0,-2.48011 -0.4984,-4.81731 -1.1076,-5.19379 -1.7978,-1.11112 -3.7598,-11.70589 -8.2972,-44.80621 -0.8544,-6.23334 -2.0922,-12.83334 -2.7506,-14.66667 -1.0902,-3.03612 -0.5949,-10.57331 2.3514,-35.77771 0.483,-4.13176 1.5937,-7.40358 2.6509,-7.80932 1.0009,-0.38405 1.8197,-1.83625 1.8197,-3.22712 0,-4.19509 4.3123,-10.9174 11.3459,-17.68689 8.1769,-7.86991 11.7011,-9.77048 20.2099,-10.89921 5.2726,-0.69944 7.1022,-0.41798 8.8874,1.36724 3.2071,3.20706 1.8595,4.37477 -7.0774,6.13301 -20.9779,4.12715 -34.0327,30.87057 -31.4271,64.38012 0.7908,10.17012 3.1404,18.38132 5.7152,19.97259 0.6925,0.42804 4.9872,1.0348 9.5437,1.34834 9.1012,0.6263 10.1712,1.11264 9.0243,4.10171 -1.0949,2.85308 -7.328,4.10097 -11.8875,2.37993 -2.1241,-0.80176 -4.6642,-1.14994 -5.6445,-0.77374 -2.4656,0.9461 -3.6995,6.69214 -2.0851,9.70888 0.735,1.37304 1.3994,5.71073 1.4767,9.63931 0.1397,7.10008 4.5621,21.14286 6.6584,21.14286 0.6032,0 1.5203,2.82406 2.0379,6.27568 0.5869,3.91399 1.9974,7.14402 3.7482,8.58314 2.2566,1.85468 2.519,2.78169 1.3379,4.72432 -1.5455,2.54182 -5.9789,3.85738 -7.5855,2.25089 z m 238.5162,-18.91996 c -2.3766,-4.59579 -1.3594,-14.78104 1.5893,-15.91252 2.8153,-1.08039 5.1123,2.63307 6.104,9.86893 1.3047,9.51863 -3.816,13.5413 -7.6933,6.04359 z m -308.2899,-1.26781 c -0.9127,-0.59788 -1.3693,-4.39086 -1.1719,-9.73392 0.251,-6.78732 1.1112,-10.00192 3.8287,-14.30684 1.9279,-3.05388 3.5052,-6.19018 3.5052,-6.96954 0,-2.08589 10.6945,-15.89039 13.4551,-17.36777 3.5846,-1.91847 21.624,-1.56888 24.4166,0.47318 3.239,2.3683 2.3922,8.22968 -1.205,8.3416 -1.4667,0.0456 -3.2766,-0.36152 -4.0219,-0.90478 -0.7453,-0.54327 -4.3453,-0.36855 -8,0.38826 -7.5972,1.57324 -14.3449,7.13506 -17.5112,14.43355 -1.1135,2.56667 -2.574,5.70852 -3.2457,6.98191 -0.6716,1.27339 -1.2212,3.48797 -1.2212,4.92131 0,1.43334 -0.5438,2.94208 -1.2082,3.35276 -0.6645,0.41068 -0.9105,1.88474 -0.5468,3.2757 1.348,5.1547 -3.1538,9.68243 -7.0737,7.11458 z m 218.5744,-3.31292 c -0.5931,-0.91667 -1.6785,-2.63088 -2.412,-3.80935 -4.8737,-7.82997 -8.8576,-13.19065 -9.8029,-13.19065 -0.6063,0 -3.0134,2.1 -5.349,4.66666 -4.0041,4.40031 -10.8485,6.54155 -10.8485,3.39394 0,-0.7 -1.5,-2.77272 -3.3333,-4.60606 -4.8528,-4.85284 -4.3216,-14.12121 0.8093,-14.12121 2.0557,0 2.524,0.98936 2.524,5.33333 0,7.1759 3.6248,7.21527 8.0653,0.0876 3.771,-6.05303 8.6284,-8.94496 11.3002,-6.72765 0.9534,0.79133 2.429,4.33776 3.279,7.88095 2.0022,8.34606 7.8448,14.39177 11.6262,12.03026 3.3236,-2.07558 8.054,-16.7506 9.114,-28.27432 0.8096,-8.79972 0.7593,-8.99553 -2.2236,-8.66667 -4.0712,0.44888 -4.6531,-2.94152 -1.15,-6.70154 3.073,-3.29859 7.9889,-3.9783 7.9889,-1.10463 0,1.02155 0.9,2.20271 2,2.62483 3.62,1.38913 1.5828,27.09335 -2.8361,35.78495 -1.0068,1.98025 -1.8306,4.62361 -1.8306,5.87414 0,1.25054 -1.5305,4.28032 -3.4012,6.73288 -2.6778,3.51094 -4.3624,4.45919 -7.9213,4.45919 -2.486,0 -5.0053,-0.75 -5.5984,-1.66667 z m -74.048,-4.66667 c -3.7845,-4.30984 -4.0053,-8.17284 -1.0321,-18.06443 2.0457,-6.80613 4.2793,-11.04508 7.6702,-14.55715 4.0255,-4.16934 4.431,-5.09036 2.5574,-5.80932 -5.4571,-2.09409 -1.1936,-6.59916 7.0368,-7.4354 4.084,-0.41496 5.0876,0.17644 9,5.30328 5.1301,6.7228 5.6886,12.7475 2.2544,24.32102 -2.8626,9.64699 -6.0568,13.83459 -12.5275,16.42368 -6.9877,2.79591 -12.4023,2.73015 -14.9592,-0.18168 z m 11.4647,-7.16473 c 5.3361,-2.4313 13.1013,-14.80165 12.5964,-20.06657 -0.5907,-6.1578 -4.5147,-6.47018 -10.3156,-0.82122 -5.3531,5.21269 -8.1099,11.2216 -8.1099,17.67636 0,5.08475 0.7775,5.51309 5.8291,3.21143 z m -203.7339,6.06949 c -1.1524,-1.15237 -2.0952,-3.0098 -2.0952,-4.12761 0,-1.1178 -0.8372,-3.62495 -1.8604,-5.57143 -1.0233,-1.94648 -2.9733,-7.13905 -4.3333,-11.53906 -1.3602,-4.4 -3.115,-8.6 -3.8996,-9.33333 -2.0367,-1.90349 -5.9067,-8.34289 -5.9067,-9.82827 0,-0.69048 1.2,-0.94161 2.6667,-0.55806 1.4666,0.38354 2.6666,1.27442 2.6666,1.97973 0,0.70531 2.372,3.63075 5.2711,6.50097 3.2908,3.25811 5.6016,6.9811 6.1511,9.91018 0.4841,2.58036 1.4264,5.02913 2.0938,5.44169 2.3132,1.42964 6.164,-10.78315 6.9723,-22.11291 0.6047,-8.47516 1.3819,-11.75365 3.0817,-13 3.4891,-2.55826 6.6774,-2.00257 10.1794,1.77422 4.6068,4.96825 10.1637,4.0827 13.2254,-2.10755 4.431,-8.95895 11.9902,-12.22921 14.2894,-6.18184 0.659,1.73331 2.017,3.46568 3.0177,3.84969 1.0008,0.38402 1.9703,2.93564 2.1544,5.67028 0.6707,9.95816 -4.3337,17.9952 -11.2049,17.9952 -1.5631,0 -4.4919,1.52915 -6.5086,3.3981 -3.5284,3.26994 -3.721,4.63564 -1.4354,10.17129 0.7206,1.74518 0.3493,2.08595 -1.6914,1.5523 -3.2316,-0.8451 -6.8504,-9.60045 -5.9388,-14.36879 0.432,-2.25974 -0.1742,-4.44768 -1.6994,-6.13295 -5.172,-5.71504 -8.7678,-2.11415 -10.6979,10.71339 -0.4967,3.3 -1.4457,7.03385 -2.1091,8.29745 -0.6634,1.2636 -1.7953,5.40408 -2.5154,9.20108 -1.9319,10.187 -5.2596,13.02012 -9.8735,8.40623 z m 45.1429,-41.33334 c 2.153,-2.15296 2.7162,-6.73522 1.2859,-10.46237 -1.3915,-3.62616 -5.944,-2.49329 -7.5988,1.89095 -0.8304,2.2 -1.9783,4 -2.5508,4 -1.2692,0 -1.3887,4.54122 -0.1521,5.77777 1.6237,1.6238 6.8904,0.91911 9.0158,-1.20635 z m -130.2411,39.77311 c -8.8103,-0.45652 -9.1566,-0.61497 -16.1874,-7.40552 -10.5395,-10.17925 -11.4446,-12.11335 -11.7195,-25.04169 -0.2084,-9.80246 0.2158,-12.13478 3.3356,-18.3402 1.9658,-3.91026 3.5743,-7.74488 3.5743,-8.5214 0,-4.86942 19.0867,-23.1876 32.6359,-31.3218 6.7474,-4.0508 18.0308,-0.56856 18.0308,5.56458 0,2.26439 1.0855,3.50572 3.9342,4.49878 2.9126,1.01534 4.9912,3.46541 8.0049,9.43542 3.6891,7.30812 4.089,9.34762 4.2665,21.75896 0.2134,14.93538 -0.8847,22.9184 -3.7129,26.99168 -1.0043,1.4465 -1.8261,3.55913 -1.8261,4.69471 0,6.13799 -20.8424,19.35106 -29.0466,18.41414 -1.2577,-0.14363 -6.338,-0.47108 -11.2897,-0.72766 z m 17.8402,-8.98904 c 5.7667,-2.53677 7.4247,-3.95828 13.8156,-11.84569 l 5.2588,-6.4902 0.5137,-16.84314 c 0.4776,-15.66286 0.2929,-17.26357 -2.6367,-22.84313 -2.2125,-4.21372 -4.123,-6.13781 -6.4173,-6.46291 -1.7967,-0.25458 -3.8903,-1.24066 -4.6524,-2.19126 -1.752,-2.18552 -12.6585,-3.77548 -16.4011,-2.391 -5.7921,2.14265 -17.7338,15.33476 -21.9532,24.25185 -3.6622,7.73965 -4.1729,10.23753 -4.2627,20.84588 -0.085,10.00705 0.3507,12.69587 2.5648,15.84303 1.4666,2.08476 3.4078,5.06111 4.3136,6.61411 0.9059,1.553 1.6559,2.39297 1.6667,1.8666 0.011,-0.52636 1.3697,-0.4144 3.0197,0.24882 4.8294,1.9412 20.2253,1.5724 25.1705,-0.60296 z m -313.21152,6.18674 c -1.95801,-1.24247 -3.50472,-14.01279 -3.30627,-27.29791 l 0.13578,-9.08902 -12.89426,0.73554 c -33.16594,1.8919 -74.83956,0.96461 -87.03425,-1.93663 -4.97547,-1.18371 -7.75717,-1.03408 -14.66667,0.78893 -6.66905,1.75958 -16.07916,2.3508 -43.19334,2.71375 -58.42532,0.78207 -78.2494,2.98084 -107.39527,11.91165 -5.53405,1.69575 -14.53405,3.50642 -20,4.02372 -5.46593,0.51731 -11.96135,1.76568 -14.43423,2.77415 -6.44929,2.6301 -8.1705,2.31951 -8.1705,-1.47435 0,-3.73509 0.97565,-4.08622 14.99269,-5.39588 5.23957,-0.48954 9.41311,-1.57149 10,-2.59241 0.55403,-0.96371 3.40731,-2.44936 6.34064,-3.30144 8.78853,-2.55291 28.79036,-7.53548 37.33333,-9.29995 4.4,-0.90877 10.4,-2.20474 13.33334,-2.87992 4.28638,-0.98661 50.58232,-2.87026 63,-2.56329 1.65,0.0408 4.95,0.13492 7.33333,0.20919 9.78563,0.30492 34.62959,-1.51202 39.833,-2.91315 3.39451,-0.91405 8.76257,-1.13203 13.70671,-0.5566 16.47192,1.91712 39.86026,2.78916 51.79362,1.93113 1.65,-0.11866 6.12835,0.45688 9.95188,1.27892 6.15142,1.32254 7.56,1.18439 12.2332,-1.1997 4.69907,-2.39728 6.3581,-2.55451 15.04812,-1.42615 15.88855,2.06307 16.84703,1.74321 18.44048,-6.1538 1.66014,-8.22741 7.34099,-22.95873 10.50269,-27.23519 5.6855,-7.69012 9.6407,-3.95622 11.2132,10.58596 2.7876,25.77932 2.4406,24.60108 7.6104,25.83995 2.5667,0.61507 7.1658,1.06223 10.2203,0.99369 3.0545,-0.0685 5.901,0.43739 6.3255,1.12424 1.1599,1.87678 -27.2072,30.43598 -36.1118,36.3563 -8.13881,5.41123 -9.35481,5.81667 -12.14162,4.04827 z M 1015,590.89601 c 8.0113,-7.7529 8.8259,-12.76077 1.2079,-7.42486 -2.8768,2.015 -3.0943,1.97672 -3.7855,-0.66667 -0.8905,-3.40512 -5.2182,-3.70419 -8.6507,-0.59781 -3.6433,3.29709 -3.1624,7.12668 0.895,7.12668 4.1883,0 4.2329,1.88824 0.1414,5.9798 -1.7556,1.75556 -2.8767,3.50717 -2.4914,3.89248 1.2308,1.23081 6.1661,-2.00256 12.6833,-8.30962 z m -4.2457,-21.60957 c 3.0877,-1.65245 3.4127,-6.38355 0.515,-7.49551 -2.3431,-0.89913 -5.8286,2.97012 -5.8936,6.54242 -0.048,2.65446 1.6404,2.9537 5.3786,0.95309 z m 534.3616,38.38024 c -1.1523,-2.10176 -1.6143,-10.58516 -1.543,-28.33333 0.124,-30.94596 2.5,-52.66667 5.7604,-52.66667 2.4428,0 3.1926,6.63499 2.6367,23.33333 -0.7055,21.19742 -0.3897,41.8539 0.7697,50.36523 1.2643,9.27948 -3.8528,14.18011 -7.6238,7.30144 z M 1604,584.00001 c -2.13,-2.9914 -2.3732,-4 -0.9641,-4 2.2073,0 6.2974,4.18159 6.2974,6.43832 0,2.76887 -2.4101,1.66703 -5.3333,-2.43832 z m -93.3333,-3.41202 c 0,-1.14328 0.6,-1.70787 1.3333,-1.25464 0.7333,0.45322 1.3333,1.38864 1.3333,2.07869 0,0.69005 -0.6,1.25464 -1.3333,1.25464 -0.7333,0 -1.3333,-0.93541 -1.3333,-2.07869 z m 218.0013,-13.91916 c -0.4525,-0.73215 -1.1183,-5.38215 -1.4793,-10.33334 -0.6911,-9.47341 1.6458,-20.84849 7.6016,-37.00214 1.9584,-5.31175 2.9932,-11.2647 3.0796,-17.71544 0.093,-6.94632 0.682,-10.05648 2.0665,-10.91202 3.116,-1.92562 4.3785,-0.0764 3.4943,5.11827 -0.4535,2.66339 -0.7747,6.04252 -0.7139,7.50919 0.3795,9.15548 -0.1732,14.73768 -2.0747,20.95441 -3.1104,10.16973 -5.0862,21.77452 -5.3993,31.71225 -0.1501,4.76667 -0.3412,9.41667 -0.4245,10.33334 -0.1803,1.98152 -4.9715,2.24286 -6.1503,0.33548 z M 688.21924,535.87805 c -1.27743,-2.06158 -1.75748,-8.19781 -1.69841,-21.7093 0.0453,-10.35947 -0.47108,-22.67946 -1.14751,-27.37775 -1.19141,-8.27524 -0.69849,-13.02885 2.86207,-27.60112 0.7954,-3.25534 3.66928,-8.08892 7.08521,-11.91667 l 5.74703,-6.43987 h 9.01522 c 8.46156,0 9.22719,0.25491 12.46619,4.15042 4.52077,5.43705 6.90308,13.19688 5.32544,17.34637 -3.18624,8.38047 -20.17237,24.11698 -28.20944,26.13415 l -3.47075,0.87111 0.68196,16.99898 c 0.85471,21.30491 -0.49076,31.51262 -4.22338,32.04162 -1.56632,0.22198 -3.38222,-0.8011 -4.43363,-2.49794 z m 16.63604,-60.21137 c 3.61649,-3.85 8.20353,-9.15664 10.19341,-11.79252 5.93391,-7.86031 4.30355,-14.7947 -3.87558,-16.48406 -3.72174,-0.76869 -4.72066,-0.2226 -9.47704,5.18094 -3.93819,4.47402 -5.65344,7.86244 -6.61511,13.06792 -1.07556,5.82197 -1.34173,13.31797 -0.58096,16.36105 0.56113,2.24452 4.64244,-0.25162 10.35528,-6.33333 z M 1546,524.00001 c -0.4532,-0.73333 -0.1887,-1.33333 0.588,-1.33333 0.7765,0 1.412,0.6 1.412,1.33333 0,0.73334 -0.2645,1.33334 -0.588,1.33334 -0.3233,0 -0.9588,-0.6 -1.412,-1.33334 z M 793.39071,495.40248 c -2.39204,-2.88223 1.00541,-8.98189 5.69453,-10.22377 5.01435,-1.32802 7.58143,-3.61871 7.58143,-6.76514 0,-1.95858 -0.63223,-2.3926 -2.58327,-1.77336 -2.25832,0.71676 -7.46217,-1.16441 -9.41673,-3.40412 -0.36667,-0.42016 -1.71667,-1.15133 -3,-1.62482 -1.28334,-0.4735 -2.33334,-1.77972 -2.33334,-2.90275 0,-2.32551 2.6156,-2.55613 9.33334,-0.82297 2.56666,0.66218 6.91778,1.58624 9.66916,2.05344 2.87642,0.48844 6.38465,2.34005 8.2546,4.3567 3.76584,4.06128 3.32174,5.50883 -4.26694,13.9086 -7.60406,8.41679 -15.44678,11.39856 -18.93278,7.19819 z m -49.24608,-4.88636 c -4.82396,-5.60925 -6.93647,-14.51611 -3.4429,-14.51611 2.27027,0 5.96494,5.13895 5.96494,8.29668 0,1.5825 1.01654,2.36999 3.05934,2.36999 2.10279,0 4.64248,-2.07592 8.12252,-6.63927 4.04015,-5.29777 5.39318,-8.59776 6.69639,-16.33223 1.27695,-7.5786 2.16731,-9.79581 4.08168,-10.16449 2.2502,-0.43335 2.37724,0.26843 1.56884,8.66556 -1.76341,18.31695 -10.54703,34.03652 -18.82545,33.6909 -1.48683,-0.062 -4.73824,-2.47904 -7.22536,-5.37103 z m 190.1887,-5.70551 c -4.48793,-3.40681 -2.89544,-8.6478 5.99092,-19.71648 5.8651,-7.30544 6.25202,-10.02089 1.67575,-11.76079 -1.99527,-0.7586 -3.33333,-2.31944 -3.33333,-3.8883 0,-3.62442 2.73613,-4.97734 4.6826,-2.3154 0.88625,1.21204 3.1877,2.2037 5.11433,2.2037 2.66655,0 4.35007,-1.34192 7.0508,-5.62017 3.42465,-5.42499 3.58765,-5.5126 4.69363,-2.52285 0.84426,2.28225 0.23422,5.1285 -2.31823,10.81612 -3.92319,8.74201 -3.41347,11.11096 3.44083,15.99164 4.43517,3.15813 5.60337,9.76907 1.97246,11.16237 C 961.04943,480.02527 956,475.67829 956,472.87333 c 0,-0.98634 -1.16871,-2.85102 -2.59713,-4.14373 -2.49591,-2.25876 -2.71859,-2.21932 -5.71338,1.01211 -3.06366,3.30574 -4.5755,5.98016 -7.49489,13.2583 -1.64604,4.10363 -2.49508,4.36591 -5.86127,1.8106 z m 46.27234,0.42403 c -0.48678,-0.78761 0.40277,-2.80285 1.97677,-4.47831 4.06223,-4.32404 5.73379,-11.40866 4.24996,-18.01269 -0.67717,-3.01391 -0.94979,-6.5561 -0.60579,-7.87154 0.344,-1.31544 -0.31626,-3.17326 -1.46725,-4.12849 -1.15097,-0.95523 -2.11228,-2.71332 -2.13623,-3.90685 -0.0727,-3.62119 -4.8836,-16.42832 -6.56057,-17.46475 -4.50124,-2.78192 -7.25471,-14.70533 -3.39589,-14.70533 1.1,0 2,0.62726 2,1.39393 0,0.76667 1.39092,2.78487 3.09093,4.48488 3.34103,3.34103 8.90907,15.17203 8.90907,18.93004 0,1.27297 0.9128,3.32313 2.02844,4.55591 2.29204,2.53268 5.91337,18.10096 5.94841,25.57251 0.0247,5.2734 -1.93851,10.9346 -5.10799,14.7294 -2.16026,2.58648 -7.55204,3.13066 -8.92986,0.90129 z m -119.31795,-2.65319 c -0.94765,-1.77072 -1.01813,-3.31576 -0.19767,-4.33333 0.70131,-0.8698 1.7048,-4.18537 2.22998,-7.36796 l 0.95486,-5.78652 -8.47078,0.71271 c -4.65892,0.392 -10.87078,1.08237 -13.80411,1.53416 -4.89844,0.75445 -5.47475,0.51585 -7.06752,-2.92619 -2.84644,-6.15128 -4.43021,-16.66164 -3.52823,-23.41431 0.72855,-5.4542 1.26754,-6.33333 3.88288,-6.33333 2.85867,0 3.07356,0.63325 3.6615,10.78942 0.69369,11.98303 1.80734,13.5724 8.22113,11.73296 5.8382,-1.67437 14.6164,-1.47696 20.85124,0.46892 6.10892,1.90659 6.41071,3.34734 3.36837,16.08066 -2.70685,11.32923 -6.83633,14.94411 -10.10165,8.84281 z M 292.33333,479.67101 C 288.46648,478.43056 288,477.74507 288,473.30309 c 0,-3.5472 -0.79009,-5.50356 -2.74909,-6.80712 -3.39007,-2.25581 -2.45272,-5.33167 3.77169,-12.37669 4.01893,-4.54878 4.84415,-4.89883 10.66667,-4.52474 l 6.31073,0.40547 1.21869,6.30781 c 1.47691,7.6442 -0.43222,15.09398 -5.37273,20.96543 -1.87899,2.23306 -3.81301,3.99884 -4.29781,3.92398 -0.48482,-0.0749 -2.83148,-0.76166 -5.21482,-1.52622 z m 609.1059,-6.7258 c -0.63879,-1.68013 -2.13748,-3.86484 -3.33043,-4.8549 -1.23157,-1.02212 -1.84443,-2.82278 -1.418,-4.16634 0.41305,-1.30141 0.19461,-2.71008 -0.48541,-3.13036 -2.48338,-1.53481 -3.03799,-9.93848 -0.92551,-14.02357 1.1294,-2.18402 2.05345,-5.47146 2.05345,-7.30543 0,-3.95627 2.58278,-13.92031 6.94627,-26.79793 2.57343,-7.59476 3.73789,-9.41619 6.25125,-9.77816 2.9046,-0.41831 3.04922,-0.1004 2.42594,5.33333 -0.36454,3.17799 -1.35695,8.17816 -2.20535,11.11149 -4.63837,16.03698 -6.92557,30.24879 -5.51799,34.28662 0.78827,2.26122 1.43322,6.47794 1.43322,9.3705 0,4.13787 0.56857,5.40789 2.66666,5.95655 3.39118,0.88682 3.43742,3.88002 0.0876,5.67276 -4.07854,2.18278 -6.7264,1.62726 -7.98176,-1.67456 z m -120.9568,-13.87127 c -0.76322,-3.04085 -0.1228,-4.26602 4.16905,-7.97605 5.38527,-4.65521 13.27672,-7.03635 15.60459,-4.70848 0.96472,0.96472 -0.59606,2.8258 -5.0996,6.08079 -3.56939,2.57981 -7.24488,5.92941 -8.16776,7.44353 -2.33714,3.8344 -5.43344,3.43475 -6.50628,-0.83979 z m 52.8509,-33.6619 c 0,-2.15672 0.6,-4.29214 1.33334,-4.74536 0.79349,-0.4904 1.33333,1.09726 1.33333,3.9213 0,2.60995 -0.6,4.74536 -1.33333,4.74536 -0.73334,0 -1.33334,-1.76458 -1.33334,-3.9213 z m -546.65694,-6.06699 c -1.36262,-1.64185 -0.92643,-2.66433 2.5034,-5.86828 2.28445,-2.13399 4.15354,-4.88244 4.15354,-6.10765 0,-1.92236 -1.00501,-2.1021 -7.33333,-1.31142 -7.18559,0.89778 -7.33333,0.84876 -7.33333,-2.4326 0,-3.79517 7.4116,-11.09196 12.58546,-12.39052 4.8849,-1.22602 11.41991,4.13584 11.39514,9.34951 -0.0189,3.99345 -2.8116,13.40695 -5.4272,18.29421 -1.60484,2.99868 -8.20007,3.29063 -10.54368,0.46675 z m 7.35965,-58.14739 c -4.4924,-4.97256 -4.88601,-6.01916 -4.33608,-11.52968 0.36491,-3.65658 -0.11347,-7.43724 -1.20601,-9.53098 -2.75619,-5.28196 -2.35832,-13.0923 0.75173,-14.75675 3.52231,-1.88508 9.0338,-1.73664 10.63483,0.28642 0.72544,0.91667 3.44909,4.13939 6.05257,7.16161 5.21068,6.04876 5.74275,9.48646 3.38913,21.89705 -1.44644,7.627 -4.35138,11.94135 -8.04038,11.94135 -1.26767,0 -4.52828,-2.46106 -7.24579,-5.46902 z m 7.29729,-9.78562 c 0,-1.05672 -0.53713,-2.25328 -1.19362,-2.65902 -1.37255,-0.84828 -3.02754,2.58139 -1.82562,3.7833 1.4307,1.4307 3.01924,0.83917 3.01924,-1.12428 z m -113,-49.62841 c -1.94964,-0.78669 -2.1787,-7.34918 -0.46509,-13.32418 0.74152,-2.58554 0.71347,-4.67774 -0.0733,-5.46447 C 184.97475,280.17475 184.11016,222.88827 186.24053,180 l 1.0928,-22 h 3.33334 c 3.28542,0 3.3291,0.14371 3.03889,10 -0.84651,28.74992 -0.73177,98.35474 0.18097,109.78998 l 1.0475,13.12331 4.86632,-0.90192 c 2.67648,-0.49607 6.86689,-2.13174 9.31202,-3.63484 3.80272,-2.33766 5.63471,-2.59135 12.66667,-1.75407 10.8328,1.28984 43.14085,0.88172 48.22096,-0.60912 2.2,-0.64564 7.9,-2.18897 12.66667,-3.42965 4.76666,-1.24068 11.21013,-3.37956 14.3188,-4.75307 3.10868,-1.37351 6.44086,-2.49728 7.40488,-2.49728 0.964,0 4.72054,-1.43524 8.34786,-3.18941 3.62732,-1.75419 10.08939,-3.56463 14.36016,-4.02322 4.27078,-0.45858 9.89404,-1.72334 12.49616,-2.81058 5.74438,-2.40015 15.55632,-2.40844 38.40547,-0.0324 15.90619,1.654 17.66268,1.61516 21.33333,-0.4718 4.73419,-2.69164 5.81307,-7.32912 2.54515,-10.94014 -1.98452,-2.19286 -2.45181,-6.3372 -3.10715,-27.5567 -1.23832,-40.09642 -0.93945,-57.62317 1.12631,-66.05081 1.31064,-5.34701 1.50831,-8.85274 0.63903,-11.33333 -1.18891,-3.39267 -1.78804,-3.61315 -10.8192,-3.98171 -5.48994,-0.22404 -12.85826,0.46171 -17.3057,1.6106 -4.84906,1.25264 -10.48717,1.71859 -15.07844,1.24612 -4.77885,-0.49177 -13.13898,0.26994 -24,2.18667 -24.17993,4.26723 -32.47104,4.89984 -53.33333,4.06933 -6.23333,-0.24814 -16.73333,0.19976 -23.33333,0.99536 -6.6,0.79559 -16.5,1.8393 -22,2.31935 -5.5,0.48005 -13.14648,1.7596 -16.99218,2.84345 -6.94286,1.95672 -12.34116,1.49384 -12.34116,-1.05822 0,-2.8628 2.93082,-6.55728 6.78154,-8.54856 4.06925,-2.1043 13.45588,-3.57504 37.84052,-5.92907 7.3088,-0.70556 16.3088,-1.95495 20,-2.7764 4.27322,-0.95097 9.13313,-1.08333 13.37794,-0.36435 7.55107,1.27902 30.0511,0.17935 44,-2.15045 5.13334,-0.8574 17.43334,-2.10976 27.33334,-2.78303 9.9,-0.67328 21.35098,-1.58439 25.44662,-2.0247 4.5487,-0.48901 9.73751,-0.13029 13.33334,0.92177 6.50817,1.90415 7.51193,2.12131 10.8398,2.34516 4.10038,0.27581 5.05138,4.39879 3.60936,15.64797 -0.7407,5.7782 -1.81924,14.70583 -2.39676,19.83916 -1.28842,11.45224 0.55952,54.88963 3.1601,74.28118 1.61628,12.052 2.54303,15.1478 5.93714,19.83323 2.21204,3.05364 3.72297,6.03572 3.35764,6.62685 -0.72762,1.17731 -31.25575,0.64871 -36.62058,-0.63408 -1.83333,-0.43837 -10.14949,-1.37416 -18.48037,-2.07953 -14.94009,-1.26496 -15.23145,-1.23535 -21.32687,2.16768 -3.94822,2.20428 -9.07105,3.69457 -14.18629,4.12698 -4.40356,0.37224 -10.10647,1.74238 -12.67313,3.04472 -8.29703,4.20992 -14.35276,6.63291 -16.57767,6.63291 -1.19605,0 -4.40537,0.95604 -7.13183,2.12453 -7.58844,3.25223 -20.6621,5.01835 -38.2905,5.17267 -12.5708,0.11 -17.88636,0.76192 -24.80139,3.04155 -6.07292,2.00202 -11.98813,2.88485 -19.08109,2.84782 -7.1847,-0.0375 -11.24476,0.57867 -13.48503,2.04655 -3.33771,2.18695 -4.19237,2.33628 -6.96583,1.21717 z m -0.79334,-158.88861 c -3.15124,-3.48208 -2.72778,-6.71342 1.00249,-7.64966 3.15996,-0.79309 8.79085,1.2384 8.79085,3.17155 0,1.97423 -4.19372,6.91643 -5.86896,6.91643 -0.94476,0 -2.71073,-1.09724 -3.92438,-2.43832 z M 450,131.04925 c -4.75731,-1.14429 -4.68632,-2.36227 0.46624,-7.99908 l 5.0698,-5.54628 9.89864,0.72294 c 5.44427,0.39762 14.39865,0.0219 19.89865,-0.83499 21.01908,-3.27465 22.98067,-3.33641 22.46623,-0.70725 -0.70728,3.61469 -14.98868,8.33321 -29.81185,9.84972 -7.31315,0.74819 -14.26984,2.21749 -16.06346,3.39271 -3.11848,2.04331 -6.69536,2.37994 -11.92425,1.12223 z"
       id="path205" />
  </g>
</svg>
