<?xml version="1.0" encoding="UTF-8" standalone="no"?>
<!-- Created with Inkscape (http://www.inkscape.org/) -->

<svg
   version="1.1"
   id="svg441"
   width="2112"
   height="1850.6667"
   viewBox="0 0 2112 1850.6667"
   xmlns="http://www.w3.org/2000/svg"
   xmlns:svg="http://www.w3.org/2000/svg">
  <defs
     id="defs445" />
  <g
     id="g447">
    <path
       style="fill:#000000;stroke-width:1.33333"
       d="m 395.88543,1589.2188 c -3.92666,-3.9266 -3.13032,-8.004 2.61998,-13.4144 4.2152,-3.966 6.48803,-5.0042 12.33114,-5.6329 9.17816,-0.9876 13.16345,-2.1428 13.16345,-3.8159 0,-0.7333 1.26439,-1.0026 2.80976,-0.5985 1.54537,0.4041 4.39537,0.1307 6.33333,-0.6088 1.93796,-0.7389 6.82358,-1.6292 10.85691,-1.9785 4.03333,-0.3492 8.53333,-1.141 10,-1.7594 5.48644,-2.3136 24.36584,-4.2408 34.66667,-3.5386 28.63178,1.9516 82.08833,0.2917 88,-2.7326 1.7412,-0.8906 29.04253,-1.2873 78.66666,-1.1429 41.8,0.1213 76.42712,0 76.94916,-0.2681 2.45664,-1.2666 44.49174,-2.1947 73.26206,-1.6176 22.29257,0.447 25.12266,-0.2226 25.01468,-5.9184 -0.0297,-1.5723 0.27681,-9.4588 0.68137,-17.5255 1.41988,-28.3115 1.02815,-58.0741 -0.78137,-59.3671 -0.53914,-0.385 -0.42732,-3.085 0.24846,-6 1.51079,-6.5164 1.65056,-13.9662 0.26203,-13.9662 -0.56667,0 -0.6958,-3.9863 -0.28696,-8.8584 0.53481,-6.3735 0.25173,-9.35 -1.00913,-10.6108 -1.06958,-1.0696 -1.42099,-3.0732 -0.90183,-5.1416 0.52785,-2.1032 0.28984,-3.3892 -0.62725,-3.3892 -0.84851,0 -1.48138,-2.4132 -1.4861,-5.6667 -0.008,-5.9771 -2.88541,-12.9415 -6.0853,-14.7323 -2.73712,-1.5317 -2.34875,-8.6181 0.68358,-12.4732 2.40872,-3.0621 2.55666,-5.167 2.1128,-30.0618 -0.35264,-19.7795 -0.9195,-27.0426 -2.17098,-27.816 -1.18338,-0.7314 -1.28499,-1.5796 -0.33722,-2.8151 0.90116,-1.1747 0.95483,-7.1391 0.15986,-17.7683 -0.65818,-8.8 -0.79167,-25.9 -0.29666,-38 1.16443,-28.4632 1.15867,-26.0466 0.108,-45.3333 -1.07637,-19.7573 -1.17469,-49.6645 -0.19717,-59.9799 0.38325,-4.0444 0.98768,-10.6122 1.34316,-14.5952 0.35548,-3.9829 1.40576,-7.7112 2.33393,-8.285 2.022,-1.2502 2.50104,-29.3046 0.71386,-41.8066 -0.92087,-6.4418 -2.09898,-31.8868 -2.64563,-57.1408 -0.0453,-2.0941 0.67736,-4.277 1.60597,-4.8509 0.92862,-0.5739 1.35223,-1.5874 0.94138,-2.2522 -0.41087,-0.6647 -0.1477,-5.6818 0.58481,-11.149 0.73249,-5.4672 1.26775,-15.6404 1.18943,-22.6071 -0.4322,-38.44634 -0.30804,-55.08872 0.48244,-64.66665 1.2973,-15.71867 1.11785,-30.36412 -0.42167,-34.41335 -0.74516,-1.95992 -1.00813,-4.46697 -0.5844,-5.57122 0.42375,-1.10426 0.0495,-8.15947 -0.83172,-15.67826 -2.11777,-18.06989 -2.6492,-62.10893 -0.75785,-62.80375 0.98485,-0.3618 0.97246,-1.27566 -0.0411,-3.02589 -1.06027,-1.83101 -1.00055,-4.66589 0.22135,-10.50753 1.23046,-5.8826 1.29802,-9.31076 0.25525,-12.95232 -1.00644,-3.5147 -0.99769,-7.77234 0.0301,-14.66667 1.84474,-12.374 1.84347,-19.55509 -0.005,-30.38101 -1.64829,-9.65158 -1.64069,-8.78883 -0.36695,-41.66667 0.70115,-18.09817 0.53832,-23.66667 -0.69206,-23.66667 -0.8986,0 -1.26224,-0.90348 -0.82366,-2.04642 0.43191,-1.12554 0.13398,-5.0834 -0.66208,-8.79527 -0.92184,-4.2984 -0.98393,-7.21228 -0.17101,-8.0252 0.79903,-0.79903 0.82212,-3.77556 0.0617,-7.95908 -0.80444,-4.42589 -0.70798,-9.12317 0.28558,-13.90919 0.82512,-3.97456 1.17685,-7.74968 0.78162,-8.38916 -0.39521,-0.63948 -0.18221,-3.03287 0.47334,-5.31865 0.65556,-2.28578 1.33869,-7.0212 1.51809,-10.52316 0.17939,-3.50196 0.92045,-7.14292 1.64681,-8.09103 1.76812,-2.30791 1.51,-26.18427 -0.43542,-40.27617 -0.86052,-6.23334 -1.50263,-13.51712 -1.42691,-16.18619 0.0757,-2.66907 -0.71521,-8.12736 -1.75765,-12.12953 -1.04243,-4.00219 -2.03706,-12.0184 -2.21027,-17.81383 -0.79095,-26.46324 -0.74568,-32.18189 0.29035,-36.68311 1.47684,-6.41637 2.38477,-39.73024 1.10437,-40.52157 -0.55461,-0.34278 -1.098,-5.55415 -1.20752,-11.58083 -0.13013,-7.16395 -0.83435,-11.67207 -2.03385,-13.02128 -1.43726,-1.61661 -1.5581,-3.65228 -0.55779,-9.397 0.70231,-4.03333 1.39685,-22.63333 1.54345,-41.33333 0.14659,-18.7 0.69192,-34.65631 1.21186,-35.45847 0.51993,-0.80215 0.41945,-3.50215 -0.2233,-6 -2.59938,-10.10184 -3.0079,-19.78883 -0.9225,-21.87424 3.64764,-3.64764 15.90442,-1.85153 13.53436,1.98332 -0.75866,1.22753 -0.36152,1.2746 1.65386,0.19599 1.45875,-0.7807 3.0115,-1.0602 3.45058,-0.62114 1.30146,1.30147 7.5523,1.63736 7.5523,0.40583 0,-0.62364 2.85,-0.77331 6.33334,-0.33259 7.55866,0.95632 21.11474,0.86588 30.33333,-0.20238 13.16279,-1.52532 17.00608,-1.25947 18.88208,1.30612 4.16788,5.69992 1.25423,9.62697 -8.49387,11.44812 -3.43796,0.64228 -8.72117,2.36365 -11.74049,3.82528 -3.01931,1.46161 -6.53563,2.65749 -7.81404,2.65749 -1.27841,0 -2.04555,0.45 -1.70475,1 0.57943,0.93507 -32.15084,-0.12973 -36.40886,-1.18448 -1.5904,-0.39396 -1.8732,1.16383 -1.54548,8.51316 0.32548,7.29955 -0.005,9.15125 -1.75411,9.82237 -1.65464,0.63495 -1.80427,1.2499 -0.6442,2.6477 0.84267,1.01534 1.39659,5.51712 1.25231,10.17762 -0.46312,14.9597 -0.0711,21.36059 2.67565,43.6903 3.10476,25.23992 3.14999,26.18621 1.96236,41.06352 -0.53967,6.76046 -0.33169,12.64553 0.53475,15.13097 0.97582,2.79928 0.9989,5.93714 0.074,10.0642 -2.14588,9.57532 -2.79812,20.13352 -1.30095,21.05883 1.83819,1.13607 1.72803,5.67056 -0.15299,6.29756 -1.00237,0.33412 -0.80388,1.212 0.58902,2.60488 1.75682,1.75683 2.05904,5.51401 1.84524,22.94029 -0.14063,11.46166 -0.76987,20.83946 -1.39834,20.83956 -0.62845,1.1e-4 -0.74274,1.04232 -0.25397,2.31604 1.81088,4.71908 4.97056,43.42856 3.77319,46.2256 -0.65735,1.53554 -1.04162,12.39188 -0.85394,24.12522 0.21852,13.66144 -0.19216,22.40725 -1.14197,24.31958 -1.11383,2.24252 -1.05345,4.28844 0.24236,8.21481 0.95148,2.88304 1.31848,6.85054 0.81808,8.84426 -0.86289,3.43808 -1.00039,3.49304 -2.79855,1.11854 -1.72749,-2.28118 -1.89473,-2.0002 -1.93348,3.24817 -0.0233,3.15995 0.49474,5.41339 1.15123,5.00765 0.65648,-0.40573 1.55648,0.20794 2,1.3637 1.45645,3.79545 0.844,8.61921 -1.19363,9.40112 -2.61084,1.00188 -2.57885,3.14884 0.0469,3.14884 1.65581,0 1.76512,0.52654 0.57206,2.75578 -0.97352,1.81903 -1.20126,7.82444 -0.67001,17.66667 1.18399,21.935 2.17012,33.3582 2.99493,34.69277 0.4021,0.6506 0.0528,1.60212 -0.77624,2.1145 -1.1079,0.68472 -1.02996,2.67677 0.29418,7.5176 2.31581,8.46618 2.70173,19.7525 0.94366,27.59732 -1.8462,8.23812 -3.08353,36.98869 -1.59186,36.98869 1.82576,0 3.5106,19.32568 4.94024,56.66667 1.13209,29.56921 0.62381,39.00884 -2.01271,37.37937 -1.78304,-1.10197 -2.69061,14.30716 -1.19299,20.2548 0.78247,3.10748 0.95071,6.71103 0.37387,8.0079 -1.65528,3.72141 -2.01587,15.02458 -0.56573,17.73418 0.87237,1.63004 0.86582,2.74111 -0.0193,3.28819 -1.73388,1.0716 -1.73665,8.26447 -0.004,9.33556 1.8462,1.14101 1.65363,6.01116 -0.39541,10 -1.08963,2.12115 -1.57236,7.21232 -1.32747,14 0.7038,19.50675 0.50423,57.01275 -0.44341,83.33335 -0.51487,14.3 -0.79569,27.2 -0.62408,28.6667 0.17161,1.4666 0.41965,28.1165 0.5512,59.2218 0.15748,37.2366 0.70612,56.711 1.60615,57.0112 1.81481,0.6054 1.26806,51.3675 -0.74394,69.0688 -0.83156,7.316 -1.49878,19.616 -1.4827,27.3333 0.0161,7.7174 -0.52832,18.0572 -1.20976,22.9775 -0.78242,5.6495 -0.76611,10.1898 0.0443,12.3211 0.70576,1.8563 1.58755,14.6307 1.95954,28.3873 0.72093,26.6623 1.8043,40.1838 3.39286,42.3456 0.53886,0.7334 1.38448,6.4006 1.87919,12.5939 0.49469,6.1932 1.5306,12.0209 2.30201,12.9504 1.4678,1.7687 2.60538,21.8469 3.17242,55.9933 0.18453,11.1123 0.6857,20.7708 1.11372,21.4634 0.42801,0.6925 1.13538,6.3006 1.57193,12.4624 0.43655,6.1618 1.09812,12.2533 1.47015,13.5366 0.37202,1.2834 0.036,2.3334 -0.74678,2.3334 -2.36796,0 -1.59666,3.2502 1.18328,4.9862 2.2216,1.3875 2.40203,2.2143 1.2219,5.5996 -1.62826,4.6708 -6.29748,6.769 -8.05898,3.6214 -0.66321,-1.1851 -2.07046,-1.7522 -3.23717,-1.3044 -1.99561,0.7657 -1.948,2.5613 0.26597,10.0289 0.9041,3.0495 -4.0062,7.7349 -8.10612,7.7349 -3.30592,0 -4.07926,-1.3568 -5.11036,-8.9656 -0.60133,-4.4376 -1.18358,-4.583 -9.71617,-2.4268 -9.07149,2.2926 -31.05993,2.7946 -46.5322,1.0626 -8.74837,-0.9794 -27.47335,-0.9602 -81.33333,0.083 -1.46667,0.028 -8.36667,-0.3634 -15.33334,-0.8709 -6.96666,-0.5073 -15.96666,-1.0307 -20,-1.1628 -10.93984,-0.3584 -71.03466,1.6839 -72.28485,2.4565 -2.12209,1.3116 -37.95816,4.5322 -51.71515,4.6476 -14.47934,0.1214 -43.15152,-1.2384 -46.66666,-2.2134 -3.21428,-0.8916 -26.51104,1.681 -36.66667,4.049 -5.13333,1.197 -10.06597,2.321 -10.96141,2.4978 -0.89544,0.1768 -2.04544,0.7388 -2.55555,1.2489 -0.51012,0.5101 -2.09696,0.9275 -3.52631,0.9275 -2.55588,0 -11.12478,2.5301 -21.6234,6.3846 -10.8131,3.97 -14.02478,4.2572 -16.78124,1.5008 z M 383.7454,1567.096 c -1.24004,-0.3269 -3.34004,-3.4073 -4.66667,-6.8453 -2.42033,-6.2721 -2.47354,-8.1964 -1.7215,-62.2507 0.0204,-1.4666 -0.35652,-11.6666 -0.83762,-22.6666 -0.48109,-11 -0.82814,-21.65 -0.77124,-23.6667 0.0569,-2.0167 0.11587,-4.4167 0.13107,-5.3333 0.0152,-0.9167 -0.22955,-6.4667 -0.54388,-12.3334 -0.31432,-5.8666 -0.005,-17.2666 0.68649,-25.3333 0.6919,-8.0667 1.59323,-19.7667 2.00298,-26 0.40973,-6.2333 1.06214,-12.3833 1.4498,-13.6667 0.38765,-1.2833 0.0289,-2.3333 -0.79704,-2.3333 -0.82603,0 -1.09491,-0.6585 -0.59752,-1.4633 0.4974,-0.8048 0.76197,-6.3548 0.58794,-12.3334 -0.71638,-24.6108 -0.61316,-52.5373 0.21266,-57.5315 0.48458,-2.9305 0.44085,-5.6305 -0.0972,-6 -2.01543,-1.3841 -2.77584,-5.7414 -1.31015,-7.5075 1.11831,-1.3475 1.12744,-2.3035 0.0345,-3.6203 -0.81676,-0.9842 -1.1508,-2.1236 -0.74229,-2.5321 1.04911,-1.049 -1.96633,-11.6786 -3.31291,-11.6786 -1.30602,0 -1.09424,-50.6775 0.22067,-52.8051 0.49193,-0.7959 -0.30689,-4.6087 -1.77515,-8.4729 -1.93849,-5.1016 -2.65954,-10.1791 -2.63297,-18.5405 0.0201,-6.3331 0.0368,-13.0148 0.0371,-14.8481 2.1e-4,-1.8334 0.0405,-6.2319 0.0895,-9.7745 0.0489,-3.5425 -0.63869,-7.318 -1.52822,-8.3898 -1.16232,-1.4005 -1.21048,-2.3556 -0.1712,-3.3949 0.97898,-0.979 1.03018,-2.5401 0.15848,-4.8329 -0.89927,-2.3652 -0.82539,-3.6724 0.24496,-4.3339 1.04098,-0.6434 1.2297,-3.1495 0.58832,-7.8129 -0.73416,-5.338 -0.45048,-7.6193 1.27494,-10.2527 1.69084,-2.5805 1.85763,-3.8226 0.70051,-5.2168 -1.78753,-2.1539 -2.69587,-28.4786 -1.01843,-29.5153 1.34326,-0.8302 -0.0928,-6.1073 -1.99446,-7.3289 -0.76503,-0.4915 -0.97776,-3.3152 -0.50228,-6.6667 1.52472,-10.7474 2.15096,-50.3468 0.8093,-51.1759 -1.90288,-1.1761 -1.59029,-21.51858 0.37951,-24.69696 1.15273,-1.86 1.23045,-2.98506 0.25201,-3.64857 -0.77805,-0.52763 -1.56373,-4.85932 -1.74596,-9.62599 -0.18222,-4.76666 -0.52352,-11.84592 -0.75844,-15.73168 -0.28913,-4.7827 0.17994,-7.67205 1.45206,-8.94417 2.05236,-2.05236 1.15657,-8.65748 -1.17414,-8.65748 -0.81496,0 -0.73182,-0.74733 0.20928,-1.88129 0.94947,-1.14403 1.06243,-2.18964 0.28827,-2.66811 -0.72539,-0.44831 -1.08005,-6.80015 -0.82439,-14.76415 0.24679,-7.68753 0.0405,-14.22958 -0.45833,-14.53789 -0.49887,-0.30832 -0.75256,-7.06787 -0.56376,-15.02124 0.1888,-7.95336 0.25471,-16.26065 0.14644,-18.46065 -0.10827,-2.2 -0.1264,-6.1 -0.0404,-8.66667 0.086,-2.56667 0.18363,-6.45264 0.21687,-8.63548 0.0332,-2.18285 0.68238,-6.27865 1.44257,-9.10177 1.00527,-3.73324 0.96127,-5.64011 -0.16133,-6.99276 -1.67636,-2.0199 -0.81148,-22.26075 1.36092,-31.84958 0.735,-3.24423 0.69501,-6.16845 -0.1048,-7.66289 -0.71134,-1.32915 -1.51743,-9.16834 -1.79131,-17.42042 -0.27388,-8.25208 -0.90684,-16.02504 -1.40659,-17.27325 -0.49974,-1.24823 -0.44096,-3.0262 0.13067,-3.95108 1.83508,-2.96921 2.03611,-10.81093 0.37964,-14.80996 -1.30465,-3.14972 -1.26365,-4.09535 0.21724,-5.01059 1.93812,-1.19782 2.34957,-24.57957 0.79511,-45.18413 -0.59562,-7.89479 -0.28684,-10.674 1.52937,-13.76567 2.15412,-3.66685 2.1498,-3.96624 -0.0808,-5.60534 -1.37507,-1.01043 -2.01833,-2.61284 -1.54453,-3.84755 0.44658,-1.16377 0.0905,-9.49 -0.79112,-18.50273 -0.8817,-9.01275 -1.78278,-20.88681 -2.0024,-26.38681 -0.21963,-5.5 -0.82203,-12.61084 -1.33867,-15.80188 -0.60988,-3.76698 -0.36067,-6.88313 0.71056,-8.88474 1.31869,-2.46399 1.29379,-4.91276 -0.124,-12.19812 -1.20677,-6.20092 -1.79196,-21.05148 -1.83029,-46.44859 -0.0471,-31.22883 -0.42996,-38.60232 -2.34122,-45.09407 -2.56512,-8.7126 -2.50773,-7.39914 -1.9813,-45.34845 0.33893,-24.43282 0.016,-29.72855 -2.68251,-44 -2.36741,-12.52011 -2.85405,-18.35499 -2.13156,-25.55748 1.16121,-11.57606 0.97861,-48.54684 -0.24581,-49.76834 -1.65531,-1.65134 -33.15568,-0.59438 -48.67395,1.63319 -8.43333,1.21056 -17.31305,2.48767 -19.73271,2.83799 -2.76016,0.39964 -6.58313,-0.35784 -10.26018,-2.03294 -3.22354,-1.46845 -8.27999,-2.6699 -11.23664,-2.6699 -6.73355,0 -9.73866,-3.73636 -8.35183,-10.38412 L 254,329.23178 264.66667,328.6013 c 5.86666,-0.34676 12.76666,-0.84028 15.33333,-1.09672 2.56667,-0.25643 7.25208,-0.54987 10.41203,-0.65207 3.16321,-0.10226 5.40058,-0.74368 4.97825,-1.42704 -1.09969,-1.77933 0.47372,-2.41794 7.27639,-2.95329 3.3,-0.25969 6.37324,-0.98337 6.82941,-1.60817 0.45617,-0.6248 6.37987,-1.14386 13.16376,-1.15344 7.51089,-0.0107 11.61855,-0.47086 10.50392,-1.17691 -1.40761,-0.89165 -1.21445,-1.20616 0.83624,-1.36155 10.02761,-0.75978 12.90047,-1.20238 14.98088,-2.30794 4.13248,-2.19606 11.90379,1.96957 14.63429,7.84436 1.31166,2.82208 3.73483,5.86854 5.38483,6.7699 4.44573,2.42864 4.24181,10.97976 -0.33333,13.97752 -3.7471,2.45519 -4.2996,5.20414 -1.37495,6.84086 1.49212,0.83502 2.10939,4.89826 2.5926,17.06625 0.34881,8.78365 1.54701,21.97963 2.66265,29.32439 1.16542,7.6724 1.98542,21.57094 1.92731,32.66666 -0.0556,10.62191 0.52068,25.01256 1.28065,31.97923 0.75998,6.96667 2.31998,21.36667 3.46668,32 1.63919,15.20008 4.3629,87.7808 3.6526,97.33334 -0.0819,1.1 -0.6499,5.9 -1.26246,10.66666 -1.48442,11.55107 -0.78262,74.50026 0.87932,78.87146 1.38986,3.65565 0.92709,74.83391 -0.50158,77.14555 -0.634,1.02582 -2.44634,78.17016 -2.23926,95.31633 0.06,4.96428 1.58232,58.46835 2.26948,79.76175 0.27976,8.66897 -0.0645,17.26932 -0.76507,19.11189 -0.70055,1.84258 -0.9284,3.90887 -0.50635,4.59176 0.42206,0.68291 1.0243,7.68255 1.33831,15.55479 2.58353,64.76783 3.10277,80.38423 3.15803,94.97983 0.0889,23.4815 1.22377,54.416 2.21412,60.3517 0.50221,3.01 0.23298,5.7465 -0.67272,6.8378 -1.02632,1.2366 -1.10424,2.8867 -0.24326,5.1513 1.56492,4.116 1.67064,17.2912 0.19223,23.9541 -0.78921,3.5567 -0.61396,5.3656 0.61896,6.3889 2.20136,1.8269 3.13725,12.6836 4.0214,46.6495 0.39133,15.0334 1.32056,31.9834 2.06497,37.6667 0.74442,5.6834 1.54471,38.0834 1.77844,72 0.43152,62.6211 1.22751,73 5.59852,73 3.25088,0 4.83808,18.8209 3.07644,36.4801 -0.7418,7.4359 -1.64629,16.4948 -2.00997,20.1308 -0.36369,3.636 -0.89801,6.8478 -1.18739,7.1371 -0.28936,0.2895 0.0587,2.0644 0.77347,3.9444 0.71479,1.88 1.52621,8.2683 1.80319,14.1963 0.55404,11.8581 3.76504,25.505 6.78669,28.844 3.99963,4.4194 1.51636,10.6006 -4.2588,10.6006 -3.56329,0 -10.85503,-7.282 -12.01601,-12 -1.30342,-5.2966 -1.93451,-5.713 -4.05995,-2.6786 -1.38071,1.9713 -1.72661,4.3665 -1.12132,7.7646 1.02881,5.7759 1.06035,7.3666 0.49355,24.895 l -0.43052,13.3142 3.67852,1.7642 c 2.96488,1.422 3.55526,2.4438 3.04317,5.2678 -0.54769,3.0204 -6.77477,9.7819 -8.72169,9.4702 -0.36667,-0.059 -1.68124,-0.3743 -2.92127,-0.7014 z m 66.58743,-20.1449 c -5.16832,-0.6505 -6.87536,-4.6645 -7.2089,-16.9511 -0.2104,-7.7504 0.31234,-11.8424 1.91198,-14.9669 1.88817,-3.6881 1.96825,-5.1724 0.56261,-10.428 -0.9014,-3.3703 -1.19645,-6.8351 -0.65568,-7.6997 0.54077,-0.8646 1.07171,-7.572 1.17984,-14.9054 0.10813,-7.3333 0.38667,-13.9333 0.61893,-14.6666 0.23228,-0.7334 -0.0816,-4.6334 -0.6976,-8.6667 -0.61596,-4.0333 -1.09661,-9.7333 -1.06813,-12.6667 0.0285,-2.9333 -0.58853,-5.7361 -1.37116,-6.2285 -0.99885,-0.6284 -0.94397,-2.4939 0.18415,-6.2592 0.94353,-3.1492 1.51394,-12.1388 1.38148,-21.7715 -0.21762,-15.8238 1.77137,-33.9837 4.23464,-38.6632 0.65308,-1.2408 0.91225,-7.789 0.57594,-14.5518 -0.41142,-8.2734 -0.1004,-12.9119 0.95083,-14.1786 0.85927,-1.0353 1.714,-4.4576 1.89941,-7.605 0.29078,-4.936 -0.10973,-5.9263 -2.91369,-7.2038 -3.69944,-1.6856 -4.31981,-6.2334 -1.39581,-10.2322 1.69332,-2.3158 3.96093,-2.5574 26.0171,-2.7725 13.28916,-0.1296 24.90442,-0.8168 25.81167,-1.5272 0.90725,-0.7103 6.97571,-1.097 13.48545,-0.8593 6.50974,0.2377 12.9561,-0.1673 14.32523,-0.9001 1.67591,-0.8969 6.08651,-0.8416 13.49745,0.1692 6.05446,0.8258 16.4081,2.0002 23.0081,2.6098 6.6,0.6096 15.56586,1.8049 19.92414,2.6563 4.35827,0.8514 9.60911,1.211 11.66851,0.7991 2.05941,-0.4119 8.39355,-0.132 14.07587,0.6219 5.6823,0.754 12.99802,1.6914 16.25714,2.0831 3.25912,0.3918 9.85912,1.4309 14.66667,2.3092 5.98825,1.0939 10.96517,1.205 15.80357,0.3526 7.26452,-1.2797 14.76855,-0.1999 28.81054,4.1459 8.10576,2.5086 23.53153,1.5736 42.79356,-2.5939 7.33333,-1.5866 16.33333,-3.0332 20,-3.2145 3.66666,-0.1814 10.3995,-1.3027 14.96186,-2.4918 8.55518,-2.2297 11.38858,-1.7581 14.90699,2.4813 1.27452,1.5357 1.29453,2.6509 0.088,4.9052 -1.79755,3.3588 -2.2616,6.1483 -3.30065,19.8411 -0.4141,5.4568 -1.27764,10.5568 -1.91903,11.3334 -1.7116,2.0721 -2.2606,50.0417 -0.58556,51.1652 1.70308,1.1424 4.04884,15.1252 5.74524,34.2465 0.71565,8.0667 1.934,17.3667 2.70743,20.6667 2.37817,10.1469 3.91262,20.2177 4.67257,30.6666 1.17148,16.1072 2.1908,21.3334 4.16089,21.3334 1.83788,0 4.8396,4.4125 5.42539,7.9753 0.67283,4.0921 -3.62103,6.4291 -14.62397,7.9591 -15.42744,2.145 -24.78592,1.5912 -40.23923,-2.382 -10.65892,-2.7406 -43.34309,-1.98 -50.25519,1.1693 -2.84737,1.2975 -4.72428,1.1169 -10.60233,-1.0197 -6.85839,-2.4931 -7.38113,-2.5048 -13.14248,-0.2952 -6.46916,2.4812 -13.3744,2.104 -18.16077,-0.9919 -2.85595,-1.8472 -12.16786,-1.3537 -37.83923,2.0055 -9.19728,1.2036 -12.84685,1.0622 -26.66667,-1.0322 -9.75721,-1.4786 -18.81121,-0.6512 -24.50096,2.2391 -4.14509,2.1057 -9.84776,1.8583 -22.62968,-0.982 -6.75889,-1.5019 -8.26821,-1.4576 -11.33333,0.3324 -4.36204,2.5473 -15.91627,4.9805 -30.86267,6.4992 -15.70066,1.5955 -36.16926,5.6104 -39.34002,7.7167 -0.73334,0.4872 -2.98356,0.678 -5.00051,0.4241 z m 22.33384,-19.1213 c 4.4,-0.8244 8.71954,-2.0715 9.599,-2.7715 0.87945,-0.6999 7.17945,-1.5527 14,-1.8951 14.44982,-0.7256 18.78202,-1.468 17.80354,-3.0512 -2.41625,-3.9096 14.8261,-6.1397 24.50676,-3.1697 9.80638,3.0085 21.11322,2.6523 28.00515,-0.8825 5.48183,-2.8116 6.45712,-2.9135 13.33333,-1.3935 4.08039,0.902 9.39224,2.2253 11.80412,2.9408 3.00447,0.8911 6.42662,0.8109 10.86844,-0.2547 3.60864,-0.8656 9.10675,-1.1618 12.4003,-0.6678 4.49405,0.6738 6.42265,0.3817 8.01926,-1.215 2.87948,-2.8794 18.33171,-3.0437 26.99343,-0.2869 7.49893,2.3867 11.86699,2.7595 10.72735,0.9155 -0.41984,-0.6794 2.61145,-1.6568 6.73622,-2.1722 4.73842,-0.592 7.81346,-0.429 8.3521,0.4424 1.65754,2.682 24.0695,3.3964 35.0432,1.1171 8.87794,-1.8441 11.71478,-1.8896 22,-0.3527 6.49429,0.9704 13.728,2.7626 16.07492,3.9826 3.0066,1.5628 7.63457,2.218 15.66666,2.218 12.40011,0 13.51852,-0.8599 9.36447,-7.1998 -1.25399,-1.9138 -1.80777,-4.9385 -1.44284,-7.8806 0.37588,-3.0306 -0.0695,-5.324 -1.21901,-6.278 -0.99618,-0.8268 -1.50599,-2.2987 -1.13292,-3.271 0.37308,-0.9721 0.0357,-2.1646 -0.74952,-2.65 -0.95079,-0.5877 -0.99839,-1.6849 -0.14246,-3.2842 0.99246,-1.8544 0.53579,-3.106 -2.00386,-5.4919 l -3.28926,-3.0901 2.7495,-2.9267 c 2.71073,-2.8855 2.71962,-3.1405 0.63021,-18.0939 -1.16561,-8.342 -2.37937,-17.8672 -2.69725,-21.1672 -1.32311,-13.7357 -3.26012,-24.3042 -4.79308,-26.1513 -2.14439,-2.5839 -1.95635,-36.6252 0.22482,-40.7008 0.8435,-1.5761 1.2208,-5.198 0.83844,-8.0487 -0.38236,-2.8506 0.45024,-10.6553 1.85023,-17.3434 1.39997,-6.6883 2.54541,-12.6063 2.54541,-13.1511 0,-0.5448 -2.25,-0.4461 -5,0.2192 -7.16352,1.7332 -17.76208,3.8992 -21.79234,4.4536 -1.90246,0.2617 -6.10246,1.3723 -9.33334,2.468 -3.23088,1.0957 -12.55894,3.0571 -20.72905,4.3587 -14.69265,2.3406 -14.94724,2.3361 -23.33333,-0.4102 -10.56547,-3.4598 -18.48027,-4.6613 -33.06399,-5.0189 -13.72092,-0.3364 -25.49181,-1.8768 -27.68704,-3.6231 -0.88316,-0.7025 -8.68316,-1.2685 -17.33333,-1.2578 -8.65016,0.013 -18.12758,-0.6039 -21.06091,-1.366 -2.93333,-0.762 -10.73333,-1.557 -17.33333,-1.7665 -6.6,-0.2094 -15.57606,-1.344 -19.9468,-2.5212 C 540.2044,1327.8469 528,1327.2616 528,1329.1468 c 0,2.269 -14.60385,2.7281 -21.51295,0.6764 -5.98373,-1.777 -7.48157,-1.7745 -13.60552,0.023 -3.78484,1.1106 -11.03025,2.324 -16.1009,2.6964 -5.41584,0.3978 -9.67054,1.3884 -10.31292,2.4009 -1.16444,1.8355 -1.47258,6.7032 -1.84784,29.1901 -0.12974,7.7734 -0.66952,18.5343 -1.19958,23.9135 -0.53004,5.3791 -1.18257,19.1192 -1.45006,30.5335 -0.66091,28.2013 -1.77156,50.1908 -3.32506,65.832 -1.07708,10.8444 -0.95844,13.7372 0.69456,16.9337 1.76636,3.4157 1.76787,4.8124 0.0133,12.2547 -1.08916,4.6197 -1.98915,10.4196 -1.99999,12.8884 -0.0185,4.2108 0.20731,4.4377 3.64696,3.6642 2.01667,-0.4534 7.26667,-1.499 11.66667,-2.3233 z M 579.71257,1479 c -1.11873,-1.2833 -2.43316,-5.4892 -2.92096,-9.3462 -0.80348,-6.3534 -0.56649,-7.3334 2.51956,-10.4195 1.87355,-1.8736 3.0589,-3.9688 2.63408,-4.6561 -0.42481,-0.6875 0.91372,-1.8919 2.97452,-2.6767 2.92362,-1.1133 4.00302,-1.0223 4.91256,0.4143 0.89398,1.4118 2.75868,0.1565 8,-5.3854 3.75888,-3.9744 6.86383,-7.6097 6.89988,-8.0784 0.24828,-3.2276 2.6463,-6.6532 6.66343,-9.5186 C 621.89785,1421.842 623.33283,1420 618.66667,1420 617.2,1420 616,1420.6631 616,1421.4734 c 0,1.4625 -0.70979,1.416 -16.66667,-1.0922 l -6.66666,-1.0478 -0.1518,-6.2604 c -0.10614,-4.3792 0.43618,-6.4859 1.805,-7.0112 1.0767,-0.4132 1.61357,-1.6454 1.19365,-2.7396 -0.41973,-1.0939 -0.25197,-1.9888 0.37281,-1.9888 1.17918,0 3.04234,-4.5176 3.29938,-8 0.0812,-1.1 1.49762,-3.8927 3.14762,-6.2059 1.65,-2.3132 3,-4.8277 3,-5.588 0,-3.2356 -3.10852,-2.8647 -6.42622,0.7668 -1.96558,2.1516 -4.68074,4.3159 -6.0337,4.8096 -1.35296,0.4936 -2.77293,2.0945 -3.1555,3.5575 -0.38258,1.463 -1.22562,2.66 -1.87342,2.66 -0.6478,0 -1.17782,0.8265 -1.17782,1.8368 0,3.1648 -3.5823,4.9981 -10.37642,5.3102 -5.7143,0.2624 -7.1097,0.9342 -10.89349,5.2436 -2.38681,2.7186 -5.03597,4.9427 -5.88701,4.9427 -0.85104,0 -2.62092,-2.478 -3.93307,-5.5068 l -2.38572,-5.5068 4.40452,-4.4139 c 7.24809,-7.2634 9.07119,-9.7736 9.07119,-12.4902 0,-1.4214 1.71701,-4.4643 3.81558,-6.7619 3.44903,-3.7763 4.56982,-4.1776 11.66667,-4.1775 5.04276,0 8.62721,-0.7022 10.02087,-1.9633 2.41361,-2.1841 7.24889,-3.3565 14.9621,-3.6276 4.20363,-0.1479 5.7147,0.5396 8.35398,3.8004 1.77214,2.1896 4.14838,4.9651 5.28052,6.1679 1.85577,1.9716 1.85445,2.675 -0.0133,7.1454 -1.52128,3.641 -2.64461,4.7387 -4.22752,4.1312 -1.52982,-0.5869 -1.93597,-0.2545 -1.39882,1.1452 0.41628,1.085 0.18309,2.3271 -0.51822,2.7606 -0.7013,0.4334 -1.2751,1.6292 -1.2751,2.6574 0,2.6178 5.5503,7.5086 7.61985,6.7144 0.94241,-0.3616 1.71348,-0.104 1.71348,0.5736 0,0.6771 2.07955,1.6212 4.6212,2.098 3.05439,0.573 4.92099,1.8115 5.50536,3.6527 0.48628,1.5321 2.08175,3.7555 3.54547,4.9407 1.46372,1.1852 2.6613,3.6653 2.6613,5.5112 0,3.0085 -5.30928,11.6077 -11.91493,19.2982 -3.10217,3.6116 -5.44791,7.1595 -6.95407,10.5178 -0.65777,1.4666 -3.13085,4.4666 -5.49573,6.6666 -2.36487,2.2 -7.28461,7.6 -10.93276,12 -11.66731,14.0719 -19.40183,18.2632 -23.98993,13 z m 861.05433,5.6692 c -4.433,-3.4041 -8.3606,-19.3358 -4.7669,-19.3358 0.7333,0 1.3333,-1.5642 1.3333,-3.476 0,-2.6659 -0.5068,-3.2815 -2.1744,-2.6416 -1.8756,0.7197 -2.0521,0.069 -1.2846,-4.7302 1.0593,-6.6245 1.6888,-7.8189 4.1205,-7.8189 2.2196,0 1.5317,-7.0467 -1.528,-15.6524 -1.8081,-5.0853 -1.7971,-6.0785 0.1107,-9.9019 2.8928,-5.7986 1.676,-9.209 -2.985,-8.3666 -1.9757,0.3572 -6.8921,1.0993 -10.9254,1.6493 l -7.3334,1 0.1915,4.6359 c 0.2896,7.0093 1.4179,15.0217 2.4857,17.6521 0.5247,1.2923 0.6702,4.2836 0.3232,6.6473 -0.3469,2.3638 0.021,5.3415 0.8178,6.6171 1.0534,1.6869 1.0308,2.7369 -0.083,3.8508 -1.1532,1.1532 -0.898,2.2117 1.0333,4.2848 1.7066,1.8317 2.565,4.6719 2.565,8.4868 0,5.0459 -0.3599,5.7381 -3,5.7715 -1.65,0.021 -4.446,0.057 -6.2134,0.081 -3.7617,0.052 -5.4045,-2.0493 -5.4329,-6.9471 -0.013,-1.9382 -0.9204,-3.8693 -2.0204,-4.2914 -1.3707,-0.526 -2,-2.6688 -2,-6.8094 0,-3.323 -0.4993,-6.0418 -1.1096,-6.0418 -0.6103,0 -1.7544,-2.1008 -2.5425,-4.6686 -0.788,-2.5677 -0.8887,-4.3324 -0.2236,-3.9213 0.6649,0.4109 1.209,-0.7881 1.209,-2.6648 0,-1.8765 -0.6,-3.412 -1.3333,-3.412 -0.7333,0 -1.3333,-1.2 -1.3333,-2.6667 0,-1.4666 0.885,-2.6666 1.9666,-2.6666 1.8532,0 1.837,-4.1924 -0.04,-10.3334 -0.6638,-2.1717 -4.5494,-2.1169 -9.9172,0.14 -3.2392,1.362 -5.0589,1.4471 -7.3924,0.3459 -3.2966,-1.5557 -5.2996,-7.4027 -2.7854,-8.1312 0.826,-0.2395 4.6146,-1.3921 8.419,-2.5616 3.8044,-1.1696 7.7128,-2.1264 8.6851,-2.1264 1.3717,0 1.7368,-3.3611 1.6291,-15 -0.076,-8.25 0.2896,-15.6 0.8133,-16.3333 0.5237,-0.7334 1.37,-4.2183 1.8805,-7.7443 1.0306,-7.1185 2.2234,-8.0777 8.0748,-6.4929 4.2648,1.155 6.1679,5.936 3.4463,8.6576 -1.8615,1.8614 -1.8776,6.2462 -0.023,6.2462 1.684,0 0.1879,5.76 -1.6809,6.4716 -0.6812,0.2595 -0.2405,1.5744 0.9793,2.9224 2.0454,2.26 2.0516,2.7839 0.081,6.7332 -2.2399,4.4899 -2.8711,10.5395 -1.0998,10.5395 0.5702,0 2.4104,-0.9623 4.0895,-2.1383 1.7577,-1.2312 4.5105,-1.8597 6.4887,-1.4816 1.8896,0.3612 5.5326,-0.2194 8.0958,-1.2904 l 4.6602,-1.947 -0.7631,-9.1012 c -0.8815,-10.5139 -0.1147,-14.7082 2.6904,-14.7082 1.2555,0 1.6923,0.7686 1.1863,2.0872 -0.6148,1.602 -0.1834,1.8912 1.8562,1.2438 3.1592,-1.0027 4.7406,2.2813 6.1254,12.7204 1.0082,7.6008 3.176,9.2457 12.2874,9.3244 5.8415,0.051 9.5799,2.532 9.5799,6.3592 0,3.5033 -1.1292,4.1892 -5.5167,3.3504 -2.7594,-0.5275 -3.349,-1.252 -2.7824,-3.4192 0.4882,-1.8664 0.2234,-2.4434 -0.8242,-1.796 -0.8488,0.5246 -1.5434,1.8185 -1.5434,2.8752 0,1.0568 -1.08,1.9213 -2.4,1.9213 -3.8366,0 -5.7105,2.6355 -4.0629,5.714 0.7768,1.4515 1.3947,6.3095 1.3732,10.7957 -0.021,4.4864 0.5977,9.4724 1.3763,11.0803 1.0184,2.1033 0.9228,6.4041 -0.3406,15.3333 -2.0102,14.2075 -2.1497,18.5818 -0.7964,24.9624 0.5311,2.5038 0.4898,4.9038 -0.092,5.3334 -0.5817,0.4294 -1.7189,1.9809 -2.527,3.4476 -1.8392,3.3373 -5.7438,3.9108 -9.097,1.3358 z m 0.5664,-90.5265 c 0,-1.0216 -0.8321,-2.1767 -1.849,-2.5669 -1.2972,-0.4978 -1.6488,0.057 -1.1779,1.8573 0.772,2.9523 3.0269,3.4808 3.0269,0.7096 z m -458.17725,88.8277 c -1.56417,-1.267 -3.53528,-3.6537 -4.38024,-5.3037 -0.84497,-1.65 -2.05173,-3 -2.68172,-3 -1.56549,0 -10.16024,-8.1776 -9.82406,-9.3473 0.14852,-0.5167 -2.96982,-2.3091 -6.92963,-3.9831 -3.95981,-1.6739 -8.84357,-4.7593 -10.85281,-6.8565 -2.00924,-2.0972 -4.74611,-3.8131 -6.08192,-3.8131 -1.33582,0 -4.21256,-1.5893 -6.39276,-3.532 -3.16628,-2.8211 -3.79032,-4.2299 -3.10094,-7 0.97371,-3.9125 4.30194,-7.0017 6.65523,-6.1772 0.86197,0.3021 3.71604,-0.044 6.34239,-0.7693 4.26121,-1.1766 4.6829,-1.6862 3.9179,-4.7342 -0.75982,-3.0273 -0.5335,-3.3128 1.99095,-2.5116 1.56652,0.4972 2.84823,0.3284 2.84823,-0.375 0,-2.5131 12.2957,-14.9007 14.79022,-14.9007 1.39871,0 2.54311,-0.6 2.54311,-1.3333 0,-0.7334 1.95,-1.3524 4.33333,-1.3758 2.38334,-0.023 5.34015,-0.8078 6.57068,-1.7434 1.23055,-0.9356 4.31042,-1.4591 6.84416,-1.1632 5.79251,0.6761 7.58516,4.2277 7.58516,15.0276 v 7.9529 L 1003,1427.2244 c 3.1167,-0.4438 7.6084,-1.6752 9.9817,-2.7362 5.1931,-2.3219 23.3201,-2.5631 37.685,-0.5016 16.7713,2.4069 48.0976,2.773 50.2829,0.5877 2.4246,-2.4247 16.9237,-1.1364 21.9909,1.9539 3.2314,1.9706 3.4397,2.5304 2,5.3717 -2.488,4.91 -5.531,6.2816 -9.3736,4.2251 -2.8933,-1.5484 -3.6,-1.4252 -6.0868,1.0616 -2.0903,2.0904 -4.6126,2.854 -9.8134,2.9713 -3.85,0.087 -7.6,0.025 -8.3334,-0.1352 -4.6585,-1.0244 -53.7027,-3.8135 -56.1696,-3.1943 -1.6648,0.4179 -5.9077,0.9914 -9.4286,1.2744 -10.1483,0.816 -15.5798,1.5376 -17.7351,2.3563 -1.1,0.4177 -3.7604,0.9355 -5.9119,1.1503 -3.05701,0.3053 -4.16037,1.2648 -5.0487,4.3906 -0.62521,2.2 -0.85257,5.95 -0.50524,8.3334 0.45664,3.1333 0.1124,4.3333 -1.24281,4.3333 -1.12528,0 -1.56502,0.806 -1.10034,2.0169 0.4257,1.1094 0.0965,2.8334 -0.73152,3.8311 -1.76636,2.1283 -0.72729,5.636 1.97694,6.6737 3.53824,1.3578 2.1585,7.1431 -2.56228,10.7438 -5.24431,4 -5.96643,4.0772 -9.7181,1.0382 z m -0.81484,-26.637 c -0.12,-2.0167 0.21722,-4.9303 0.74928,-6.4747 0.91923,-2.6684 0.51808,-2.8131 -8.06156,-2.9065 -4.96592,-0.055 -9.92893,-0.2906 -11.02893,-0.5254 -3.10753,-0.6632 -3.35384,2.0763 -0.32593,3.6252 1.4895,0.762 3.67885,2.1911 4.86522,3.1756 3.16031,2.6228 10.54359,6.6075 12.40703,6.6959 0.93875,0.044 1.52183,-1.4561 1.39489,-3.5901 z m 0.0773,-29.6123 c 0.37181,-5.0975 0.14841,-5.6268 -2,-4.7392 -1.3302,0.5496 -3.71318,1.1696 -5.29547,1.3777 -3.09184,0.4068 -11.12309,5.8158 -11.12309,7.4914 0,0.8804 12.92773,2.2612 16.66666,1.78 0.73334,-0.095 1.5217,-2.7539 1.7519,-5.9099 z M 978,1416 c 0.45323,-0.7333 0.18864,-1.3333 -0.58797,-1.3333 -0.77662,0 -1.41203,0.6 -1.41203,1.3333 0,0.7334 0.26459,1.3334 0.58797,1.3334 0.32339,0 0.9588,-0.6 1.41203,-1.3334 z m 303.0122,67.4166 c -2.0099,-0.8471 -4.495,-2.6896 -5.5223,-4.0947 -1.6049,-2.1948 -2.1764,-2.2985 -4.0577,-0.7372 -1.8077,1.5003 -2.7523,1.5163 -5.4137,0.092 -3.4855,-1.8653 -4.0626,-3.7895 -5.4019,-18.0099 -0.4834,-5.1333 -1.4774,-10.0641 -2.2089,-10.9572 -0.7315,-0.8932 -1.5648,-5.9932 -1.8518,-11.3333 -0.9031,-16.804 -2.1652,-26.3629 -3.3814,-25.6113 -0.646,0.3993 -1.1745,0.091 -1.1745,-0.6862 0,-0.7765 0.6568,-1.412 1.4596,-1.412 1.0219,0 1.1686,-3.6978 0.4892,-12.3333 -0.5336,-6.7833 -1.1046,-15.7975 -1.2688,-20.0315 -0.1643,-4.234 -0.6844,-8.084 -1.156,-8.5556 -0.4715,-0.4716 -0.8573,-2.0216 -0.8573,-3.4445 0,-1.7312 0.65,-2.3376 1.9647,-1.8331 1.0806,0.4147 2.5225,-0.2428 3.2043,-1.461 1.0438,-1.8652 1.5758,-1.936 3.3686,-0.448 1.171,0.9717 2.129,2.9738 2.129,4.4489 0,1.4752 0.6475,5.1517 1.4389,8.1701 0.7914,3.0184 1.9835,7.588 2.649,10.1547 0.6656,2.5667 1.4952,11.3176 1.8437,19.4464 0.3485,8.1288 1.2564,16.4179 2.0177,18.4201 0.7612,2.0023 1.3841,7.4659 1.3841,12.1416 0,4.6756 0.5458,8.8386 1.213,9.2508 2.3259,1.4375 4.9636,-0.7184 6.6773,-5.4577 1.7161,-4.7457 4.1015,-8.0496 11.1097,-15.3873 2.0166,-2.1116 3.6666,-4.4539 3.6666,-5.2052 0,-0.7514 0.5198,-1.0448 1.1552,-0.6522 0.6353,0.3927 2.2283,-0.472 3.54,-1.9213 1.3116,-1.4493 3.1514,-2.6352 4.0883,-2.6352 0.9369,0 2.0844,-1.2 2.5499,-2.6667 0.894,-2.8169 3.945,-3.5796 5.3333,-1.3333 0.4532,0.7333 2.4386,1.3373 4.412,1.3421 4.0233,0.013 10.122,3.5899 12.9197,7.5842 2.3044,3.2901 4.3054,23.0737 2.3337,23.0737 -0.753,0 -1.3413,0.75 -1.3072,1.6667 0.034,0.9166 -0.033,2.9553 -0.1482,4.5305 -0.2577,3.5145 -15.8588,20.3089 -19.5433,21.0381 -4.472,0.8852 -9.692,3.1876 -10.6159,4.6824 -1.1932,1.9307 1.0372,1.7943 3.0159,-0.1844 1.2256,-1.2256 1.6,-1.2296 1.6,-0.017 0,1.5693 -6.297,6.0197 -14,9.8944 -3.1951,1.6072 -4.7354,1.7023 -7.6545,0.4721 z m 8.8664,-18.2796 c -0.3865,-0.6254 -0.1172,-1.137 0.5983,-1.137 0.7155,0 1.5009,0.5868 1.7453,1.3042 0.6881,2.0188 12.4742,-7.9914 12.2165,-10.3756 -0.2615,-2.419 4.1496,-8.5624 5.3128,-7.3994 0.4247,0.4248 0.6851,-0.3834 0.5787,-1.796 -0.1064,-1.4125 0.5986,-4.4802 1.5666,-6.8173 1.7757,-4.2869 4.0141,-5.6605 4.2085,-2.5825 0.074,1.1724 0.2924,1.2092 0.7364,0.124 0.7632,-1.8654 -2.9354,-11.1264 -4.4403,-11.1186 -0.5875,0 -3.9565,1.4711 -7.4869,3.2622 -6.2622,3.1772 -11.5812,8.3542 -11.5812,11.272 0,0.7989 -2.1,3.777 -4.6666,6.618 -2.5667,2.841 -4.6667,5.8428 -4.6667,6.6705 0,0.8277 -0.837,1.5051 -1.8599,1.5051 -1.1963,0 -2.0415,1.903 -2.3686,5.3333 -0.4968,5.2095 0.9152,7.2365 2.3807,3.4175 1.2748,-3.3222 4.5123,-0.6756 4.5569,3.7252 0.04,3.9301 0.1614,4.0333 1.9573,1.6609 1.0531,-1.3913 1.5987,-3.0413 1.2122,-3.6667 z M 1504,1474 c -0.9129,-1.1 -2.3531,-2 -3.2003,-2 -2.1026,0 -5.7118,-4.4102 -7.9018,-9.6556 -2.5091,-6.0097 -4.0447,-20.5569 -2.2848,-21.6446 0.7628,-0.4714 1.3869,-1.9022 1.3869,-3.1794 0,-3.9461 3.1995,-9.4814 6,-10.3804 1.4667,-0.4706 3.4507,-1.9698 4.4089,-3.3313 1.8463,-2.6231 5.5911,-3.388 5.5911,-1.142 0,0.7333 0.9,1.3333 2,1.3333 2.3165,0 2.5957,1.5376 0.6352,3.4982 -0.9309,0.9309 -0.5071,2.1412 1.3333,3.8066 1.484,1.3431 2.6982,3.2678 2.6982,4.2771 0,1.0093 1.05,2.2355 2.3333,2.7247 3.9984,1.5241 7.9287,6.1149 10.6776,12.4717 2.5064,5.7959 2.5283,6.3472 0.4233,10.6747 -3.1126,6.3992 -8.155,11.8804 -10.9293,11.8804 -1.2912,0 -2.7184,0.6 -3.1716,1.3333 -1.2621,2.0421 -8.132,1.5841 -10,-0.6667 z m 10.5504,-14.8216 2.7439,-3.4882 -2.8131,-3.9507 c -1.5472,-2.1728 -3.6384,-4.2672 -4.6471,-4.6543 -1.0088,-0.387 -1.8341,-1.8396 -1.8341,-3.2278 0,-3.761 -3.3201,-3.0492 -5.3301,1.1426 -2.3822,4.9679 -1.6874,11.0376 1.6789,14.6667 3.6577,3.9433 6.8353,3.7912 10.2016,-0.4883 z m -3.8837,-1.845 c 0,-0.7334 0.6,-1.3334 1.3333,-1.3334 0.7333,0 1.3333,0.6 1.3333,1.3334 0,0.7333 -0.6,1.3333 -1.3333,1.3333 -0.7333,0 -1.3333,-0.6 -1.3333,-1.3333 z m -165.9343,13.7804 c -5.294,-2.8876 -8.8408,-7.269 -8.1863,-10.1124 0.2954,-1.2827 -0.016,-2.6742 -0.693,-3.0922 -0.6764,-0.4181 -0.8783,-1.329 -0.4486,-2.0244 0.4299,-0.6954 0.7682,-5.454 0.752,-10.5745 -0.025,-7.8891 0.3171,-9.3107 2.2404,-9.3132 1.2484,0 4.0698,-2.6884 6.2698,-5.9707 4.1585,-6.2042 6,-7.44 6,-4.0264 0,3.213 1.7733,2.3147 5.1133,-2.5904 3.2173,-4.7248 7.6569,-5.2701 6.2269,-0.7649 -0.5969,1.8811 0.2748,2.4648 4.5351,3.0361 7.2099,0.9671 12.5749,6.0911 12.4111,11.8535 -0.069,2.4267 -0.757,4.6225 -1.5287,4.8799 -0.9716,0.3238 -0.9545,1.3057 0.056,3.1934 1.7689,3.3054 -0.5864,8.5958 -4.3603,9.7935 -1.5597,0.4951 -2.4706,2.0813 -2.5012,4.3555 -0.069,5.1594 -5.2442,10.8629 -10.4548,11.5222 -2.3946,0.3031 -5.9612,0.8728 -7.9256,1.266 -2.0541,0.4111 -5.2432,-0.1969 -7.5058,-1.431 z m 12.6009,-14.5922 c 0,-1.0086 2.2067,-2.8886 4.9038,-4.1777 6.2008,-2.9637 8.3162,-8.2833 5.1909,-13.0532 -1.2492,-1.9064 -3.4052,-3.2716 -5.1255,-3.2455 -3.1564,0.048 -14.8157,5.1662 -11.9437,5.243 1.8231,0.048 0.958,6.2938 -1.1976,8.6452 -3.4521,3.7657 0.3071,8.065 3.9055,4.4666 1.1525,-1.1525 1.6,-1.1745 1.6,-0.079 0,0.8366 -0.6,1.8921 -1.3334,2.3453 -2.3498,1.4523 -1.4249,3.1076 1.3334,2.3863 1.4666,-0.3835 2.6666,-1.5226 2.6666,-2.5314 z m 253.6086,12.438 c -1.618,-1.7222 -2.9419,-4.0968 -2.9419,-5.2765 0,-1.1799 -1.4764,-3.8997 -3.2809,-6.0443 -3.7024,-4.4 -9.4663,-5.0213 -11.5779,-1.2481 -0.7005,1.2519 -2.0517,2.276 -3.0027,2.276 -0.9508,0 -3.5498,0.9084 -5.7756,2.0188 -5.5109,2.7492 -8.0994,1.5 -7.8052,-3.7667 0.1307,-2.3386 -0.574,-4.868 -1.566,-5.6206 -2.2678,-1.7208 -0.6774,-6.3854 1.847,-5.4167 1.3281,0.5097 1.828,-0.5416 1.828,-3.8447 0,-5.7524 -1.4159,-6.5952 -7.0942,-4.2226 -2.977,1.2438 -4.8457,3.0982 -5.4173,5.3757 -0.5672,2.2595 -1.7828,3.4768 -3.4721,3.4768 -1.7239,0 -2.3494,0.6517 -1.857,1.9348 0.4084,1.0641 -0.8105,3.9707 -2.7085,6.4592 -1.898,2.4884 -3.4509,5.1443 -3.4509,5.9019 0,0.7577 -0.9,2.1245 -2,3.0374 -1.3819,1.1468 -2,1.1974 -2,0.1632 0,-0.823 -0.5812,-1.4965 -1.2915,-1.4965 -0.7104,0 -0.9461,0.9 -0.524,2 0.5404,1.4083 -0.1093,2 -2.1973,2 -2.3091,0 -2.8106,-0.5903 -2.2671,-2.6685 0.3839,-1.4676 0.2051,-2.3639 -0.3972,-1.9916 -1.7883,1.1052 -2.3557,-2.4415 -0.9075,-5.6716 1.4036,-3.1304 -0.9285,-16.6715 -3.4382,-19.9644 -0.814,-1.0679 -0.5399,-2.3318 0.7952,-3.6667 3.8297,-3.8297 6.0249,-2.378 8.5125,5.6295 1.9273,6.2038 2.9389,7.6852 5.3024,7.764 2.4871,0.083 2.7148,-0.2871 1.5341,-2.4932 -1.0806,-2.0194 -0.769,-3.4258 1.4127,-6.3768 1.5396,-2.0823 2.7992,-4.6924 2.7992,-5.8002 0,-1.1077 1.7764,-3.3274 3.9476,-4.9326 2.1712,-1.6052 3.6359,-3.4232 3.2547,-4.0399 -0.3811,-0.6168 -0.093,-1.1213 0.6404,-1.1213 0.7333,0 1.7414,0.6604 2.2404,1.4676 0.5165,0.8358 2.5637,1.1364 4.7546,0.6981 3.2435,-0.6487 4.814,0.1564 10.0006,5.1259 5.6762,5.4389 6.0838,6.2622 5.2634,10.6352 -0.5581,2.975 -0.3702,4.7398 0.5046,4.7398 0.7665,0 1.3937,-0.53 1.3937,-1.1778 0,-1.6048 6.552,-2.7531 7.4469,-1.3051 0.394,0.6376 2.1859,0.7907 3.9816,0.3399 3.8966,-0.9779 12.5715,4.943 12.5715,8.5804 0,1.266 1.7205,4.1854 3.8233,6.4877 4.2212,4.6216 5.9487,10.4065 3.6568,12.2459 -0.814,0.6533 -3.3062,1.5776 -5.5382,2.054 -3.2202,0.6872 -4.6658,0.2193 -7,-2.2654 z m -32.2752,-19.6262 c 0,-0.7334 -0.2646,-1.3334 -0.588,-1.3334 -0.3234,0 -0.9588,0.6 -1.412,1.3334 -0.4532,0.7333 -0.1887,1.3333 0.588,1.3333 0.7765,0 1.412,-0.6 1.412,-1.3333 z M 453.1386,1288.2582 c -4.58689,-0.5312 -8.18868,-4.6016 -8.17647,-9.2403 0.0227,-8.6027 2.17996,-26.5572 3.48663,-29.0179 1.8914,-3.5618 1.12937,-8.8603 -1.55677,-10.8245 -3.84644,-2.8126 -6.60048,-24.2007 -4.78688,-37.1755 1.15532,-8.2652 1.34677,-26.1814 0.28678,-26.8365 -0.60613,-0.3746 -0.64226,-1.3896 -0.0803,-2.2556 1.3938,-2.1479 1.33248,-20.9079 -0.0684,-20.9079 -0.61699,0 -0.77494,-1.65 -0.35099,-3.6666 0.42393,-2.0167 1.07561,-12.6667 1.44817,-23.6667 0.37256,-11 0.97028,-23.2243 1.32827,-27.1652 0.58807,-6.4737 0.27765,-7.5902 -3.21665,-11.57 -2.12715,-2.4227 -4.29859,-3.9984 -4.82543,-3.5015 -0.52684,0.4968 -0.52276,-0.5966 0.009,-2.43 1.17698,-4.0574 4.27188,-6.6598 7.95251,-6.6869 3.89899,-0.029 14.32428,-3.2895 13.41723,-4.1966 -0.41667,-0.4166 1.18213,-1.561 3.55289,-2.543 5.00964,-2.0751 13.14088,-2.0301 17.11083,0.094 3.03053,1.6219 5.78233,1.0884 14.31634,-2.7755 7.93915,-3.5946 17.63827,-3.2927 28.05112,0.8731 10.81966,4.3286 31.64851,5.2934 51.7513,2.3974 10.80074,-1.556 14.6141,-1.6223 19.33333,-0.3361 3.23333,0.8813 9.58243,1.4927 14.10909,1.3588 4.54584,-0.1345 10.81323,0.6561 14,1.766 3.55962,1.2398 10.6472,2.017 18.50303,2.029 7.6222,0.012 13.33492,0.621 14.23207,1.5181 2.14432,2.1443 22.47098,2.2655 22.0346,0.1315 -0.18554,-0.9073 1.14472,-1.7041 3,-1.7968 4.50561,-0.2253 5.03778,-0.3538 7.24292,-1.7493 1.05028,-0.6646 5.24573,-1.4554 9.32324,-1.7572 4.0775,-0.3019 7.71818,-1.018 8.09041,-1.5915 0.81903,-1.2618 5.72111,-2.8653 10.29444,-3.3673 1.84372,-0.2024 3.79312,-1.0814 4.332,-1.9533 0.63601,-1.0291 5.91419,-1.6918 15.04364,-1.8889 7.73512,-0.1669 14.87599,-0.9592 15.8686,-1.7607 0.99261,-0.8015 3.64119,-1.8493 5.88572,-2.3284 6.53851,-1.3957 8.17119,1.6996 9.08831,17.2299 2.67105,45.2311 5.8313,73.1464 9.28312,82 2.5589,6.5634 2.8821,10.2033 3.07813,34.6667 0.20701,25.8351 0.39739,27.7353 3.47331,34.6666 3.67764,8.2874 6.7911,22.579 5.59686,25.6911 -0.43614,1.1366 -0.16766,4.3312 0.5966,7.0992 0.97028,3.514 0.96466,5.5446 -0.0187,6.7294 -0.77452,0.9333 -0.95362,2.4324 -0.39798,3.3315 0.55564,0.899 1.1463,3.1753 1.31258,5.0584 0.16626,1.8831 0.70057,5.2238 1.18732,7.4238 0.55712,2.518 0.23685,4.8374 -0.86446,6.2603 -1.52994,1.9768 -2.57081,2.068 -8.29549,0.7267 -3.60032,-0.8435 -7.96191,-2.9495 -9.69243,-4.68 -3.42856,-3.4286 -13.84268,-8.4807 -17.48398,-8.4819 -1.25266,-4e-4 -6.77755,0.4137 -12.27755,0.9202 -5.5,0.5065 -10.9,0.8478 -12,0.7584 -1.1,-0.089 -7.28673,-0.4299 -13.74829,-0.7567 -6.46156,-0.3267 -13.66156,-1.219 -16,-1.9827 -7.6436,-2.4965 -14.25196,-2.8506 -14.25196,-0.7638 0,3.4968 -13.93182,4.1277 -27.85318,1.2612 -7.90864,-1.6284 -15.40796,-1.8586 -38,-1.1663 -15.48074,0.4744 -30.91665,0.7716 -34.30198,0.6604 -3.38535,-0.1112 -10.28535,0.7037 -15.33334,1.8109 -8.32566,1.8261 -20.8066,3.9101 -34.18653,5.7084 -2.7546,0.3702 -5.34,1.2097 -5.74535,1.8656 -0.40536,0.6559 -2.84104,1.1925 -5.41264,1.1925 -2.5716,0 -5.87886,0.6439 -7.34948,1.431 -6.80328,3.641 -17.13576,4.9681 -37.15084,4.7718 -11.36666,-0.1115 -22.25429,-0.3867 -24.19473,-0.6113 z m 28.36643,-18.5915 c 6.50412,-6.0348 8.69869,-6.935 13.53858,-5.5535 6.53204,1.8644 49.00164,-0.6268 53.52031,-3.1395 1.52317,-0.847 7.56941,-1.6933 13.43608,-1.8806 5.86667,-0.1873 12.46667,-0.4053 14.66667,-0.4845 2.2,-0.079 13,-0.1146 24,-0.079 11,0.036 23.85092,-0.4875 28.55761,-1.1628 6.28683,-0.902 11.51495,-0.7121 19.70248,0.7157 12.16037,2.1206 29.45596,2.2646 32.02232,0.2666 1.64799,-1.283 5.40477,-1.0903 32.38425,1.6614 14.61419,1.4905 23.21568,0.8539 32,-2.3683 3.90084,-1.4308 7.69776,-0.6448 16.13066,3.3396 4.69481,2.2182 9.12589,4.0982 9.84684,4.1779 2.14074,0.2365 0.77541,-18.9658 -1.43812,-20.2261 -1.16103,-0.661 -1.87271,-3.287 -1.87271,-6.9101 0,-4.4209 -0.57496,-6.0264 -2.36125,-6.5933 -1.68732,-0.5355 -2.8357,-3.2505 -4.02356,-9.5124 -0.91428,-4.8196 -1.37894,-9.2215 -1.03256,-9.7819 0.34636,-0.5604 0.79474,-10.8703 0.99641,-22.9108 0.34903,-20.838 0.22392,-22.0844 -2.59885,-25.8918 -3.77835,-5.0964 -5.68327,-20.5868 -7.70639,-62.6667 -0.38783,-8.0667 -1.13308,-17.3667 -1.65613,-20.6667 -0.82568,-5.2093 -1.4169,-6.0539 -4.48628,-6.4092 -1.9444,-0.2251 -7.0444,0.5794 -11.33334,1.7877 -15.06738,4.245 -29.21609,7.4593 -37.79805,8.5869 -4.76667,0.6264 -11.96667,2.4483 -16,4.0486 -6.30324,2.5011 -8.81295,2.7828 -17.86679,2.0055 -5.79341,-0.4974 -11.95596,-1.4452 -13.69456,-2.1062 -1.81258,-0.6891 -6.64765,-0.725 -11.33417,-0.084 -5.64217,0.7716 -11.10427,0.5587 -17.63879,-0.6875 -5.20613,-0.9929 -12.76569,-1.8375 -16.79902,-1.877 -4.03334,-0.039 -11.54183,-0.8261 -16.68554,-1.7481 -6.2121,-1.1135 -10.91274,-1.2666 -14,-0.456 -2.55629,0.6712 -13.3478,0.9364 -23.98113,0.5894 -16.89047,-0.5513 -20.4966,-1.0828 -28.53972,-4.2068 -8.21657,-3.1912 -9.905,-3.4258 -15.70447,-2.1821 -3.57394,0.7665 -7.97756,2.363 -9.7858,3.5478 -2.5455,1.6679 -6.07374,2.0761 -15.62886,1.8081 -16.66874,-0.4674 -16.14759,-0.5826 -21.89436,4.8373 -4.41915,4.1678 -4.80491,4.9878 -2.9794,6.3334 5.20086,3.8333 6.88444,14.2848 3.3822,20.9963 -1.40519,2.6928 -1.50582,5.3283 -0.45818,12 0.73836,4.7021 1.26127,10.3493 1.162,12.5493 -0.23716,5.2567 -0.45969,28.709 -0.49341,52 -0.0149,10.2667 -0.0613,21.0667 -0.10333,24 -0.042,2.9333 1.82565,10.4284 4.15018,16.6557 4.3917,11.7651 5.24842,19.8434 2.7847,26.2575 -0.79295,2.0644 -1.70654,6.6035 -2.03018,10.0868 l -0.58845,6.3333 h 7.4216 c 6.72916,0 7.92437,-0.4665 12.81045,-5 z m 119.8283,-56.6763 c -5.50124,-1.5789 -16.21696,-13.643 -17.49416,-19.6955 -1.14224,-5.4129 1.71932,-7.7581 5.82707,-4.7755 13.25496,9.6244 13.14545,9.5757 15.21211,6.7567 1.05209,-1.4352 1.74597,-4.2148 1.54192,-6.177 -0.2412,-2.3195 0.81921,-4.9033 3.03126,-7.386 1.87123,-2.1001 3.16014,-4.5447 2.86424,-5.4324 -0.84116,-2.5235 -5.36664,-1.8965 -8.43132,1.1682 -1.94866,1.9487 -3.74625,2.5403 -6,1.9746 -2.5519,-0.6405 -3.21778,-0.2858 -3.21778,1.714 0,1.9024 -1.28375,2.727 -5.22736,3.3576 -6.18455,0.9889 -12.43328,-1.9931 -14.99958,-7.1581 -0.91193,-1.8353 -2.37336,-4.237 -3.24762,-5.337 -0.87427,-1.1 -1.80015,-5.6 -2.05751,-10 -0.25736,-4.4 -0.97988,-8.3737 -1.6056,-8.8304 -0.62571,-0.4568 -0.4266,-2.1591 0.44247,-3.7829 0.99854,-1.8658 1.25456,-5.3196 0.69558,-9.3839 -1.12554,-8.1837 1.74118,-13.3361 7.42004,-13.3361 2.07922,0 4.30515,-0.9377 4.94651,-2.0837 0.64135,-1.1461 2.02116,-2.2475 3.06625,-2.4476 14.80199,-2.8345 18.59816,-3.9731 16.99978,-5.0989 -2.24234,-1.5793 10.89397,-0.1575 18.04296,1.9529 3.72336,1.0992 5.70738,2.7026 7.18916,5.8099 3.36489,7.0562 1.91952,8.3094 -9.2396,8.0107 -8.29638,-0.222 -18.07135,0.9913 -31.31551,3.8871 -2.73064,0.597 -2.89619,1.4001 -3.00184,14.5634 -0.10347,12.8827 0.1256,14.1877 3.04291,17.3355 4.05674,4.3773 5.62216,4.2857 10.18229,-0.596 2.05511,-2.2 4.32585,-4 5.04611,-4 0.72025,0 1.62146,-1.1928 2.00269,-2.6506 0.81788,-3.1276 5.96392,-5.3494 12.39003,-5.3494 5.45313,0 12.81888,4.4858 15.88288,9.6727 2.1313,3.608 2.07877,3.8588 -1.84695,8.8154 -2.22237,2.806 -4.96333,5.8675 -6.09104,6.8034 -1.12772,0.936 -2.05039,3.3136 -2.05039,5.2836 0,1.9701 -0.88092,4.7466 -1.9576,6.1701 -1.07666,1.4235 -1.97666,4.5099 -2,6.8588 -0.0764,7.6891 -4.78089,15.1415 -9.37573,14.8518 -1.1,-0.069 -4.1,-0.7288 -6.66667,-1.4654 z m -151.7687,-194.9992 c -2.1325,-2.711 -2.57674,-5.1294 -2.3525,-12.8066 0.18114,-6.2017 -0.25888,-9.66996 -1.27637,-10.0604 -0.85404,-0.32773 -1.53801,-3.11474 -1.51992,-6.19336 0.0181,-3.07862 -0.42983,-8.20086 -0.99537,-11.38277 -0.56555,-3.18189 -1.20942,-9.65161 -1.4308,-14.37713 -0.22139,-4.72552 -1.17106,-9.51788 -2.11036,-10.64968 -1.38366,-1.6672 -1.38503,-2.25732 -0.007,-3.10886 1.72883,-1.06846 1.21787,-3.82793 -4.58197,-24.74572 -1.01666,-3.66666 -1.97222,-9.66666 -2.12346,-13.33333 -0.15125,-3.66667 -0.5934,-7.24995 -0.98256,-7.96284 -0.38916,-0.71289 -0.5439,-3.56289 -0.34386,-6.33333 0.22206,-3.08344 -0.22408,-5.03716 -1.15086,-5.03716 -0.83269,0 -1.1371,-0.60979 -0.67649,-1.35508 0.46061,-0.7453 1.38916,-1.01414 2.06341,-0.59742 0.67427,0.41671 0.96114,-0.0235 0.6375,-0.97825 -0.32364,-0.95476 -0.94156,-14.03592 -1.37315,-29.06925 -0.43159,-15.03334 -0.81715,-27.93334 -0.85679,-28.66667 -0.2362,-4.36894 3.21331,-15.97704 5.18322,-17.44228 2.79078,-2.07584 1.17465,-5.77143 -3.44336,-7.8739 -1.59002,-0.72389 -2.89094,-2.00042 -2.89094,-2.83673 0,-0.83632 -0.9,-2.26751 -2,-3.18043 -1.1,-0.91292 -2,-3.10521 -2,-4.87177 0,-1.76656 0.9,-3.55728 2,-3.97939 1.1,-0.42212 2,-1.56285 2,-2.53497 0,-1.49853 3.82898,-3.65604 6.8889,-3.88165 0.48888,-0.036 1.33888,-0.51555 1.88888,-1.06555 0.55,-0.55 2.35714,-1 4.01588,-1 1.65873,0 3.91354,-0.89767 5.01069,-1.99483 3.35932,-3.35932 7.83921,-4.32488 16.19565,-3.49066 14.7465,1.47212 32.72324,0.88465 33.9558,-1.10966 0.88532,-1.43248 3.7341,-1.63689 13.32471,-0.95613 9.11491,0.647 11.95637,0.47392 11.24033,-0.68467 -0.62968,-1.01885 -0.24216,-1.27574 1.13008,-0.74917 1.1486,0.44076 2.45926,0.43051 2.91256,-0.0228 0.84451,-0.84451 3.727,-1.31856 10.76986,-1.77119 2.2,-0.14138 8.5,0.70716 14,1.88568 6.72166,1.44028 19.29268,2.32494 38.34574,2.69847 17.26416,0.33845 29.01488,1.11104 30.05735,1.97621 2.14264,1.77823 12.96951,0.79523 19.0018,-1.72522 4.69339,-1.96102 13.179,-1.46654 16.24716,0.94678 0.90863,0.7147 3.75021,0.90583 6.31464,0.42474 2.71181,-0.50874 5.86793,-0.22963 7.54347,0.66709 2.33738,1.25092 3.10218,1.14633 4.05396,-0.55437 0.64518,-1.15291 1.96108,-1.79379 2.92418,-1.42422 0.96312,0.36959 2.52072,-0.25533 3.46134,-1.3887 2.0411,-2.45939 4.625,-2.77427 3.23318,-0.39402 -0.536,0.91667 0.17859,0.65943 1.58799,-0.57165 1.40939,-1.23108 3.16252,-2.35747 3.89585,-2.50309 3.1203,-0.61963 5.55886,-1.51031 9.10806,-3.32674 2.07609,-1.06252 6.05262,-1.93185 8.83673,-1.93185 2.78412,0 5.73761,-0.81404 6.56335,-1.80897 0.85893,-1.03495 5.63544,-2.18252 11.16325,-2.682 7.70031,-0.69578 10.82035,-1.68202 15.3676,-4.8577 5.52539,-3.85877 13.91368,-5.42464 15.48033,-2.88973 0.37219,0.60221 1.03778,8.85221 1.47908,18.33333 0.44131,9.48112 1.40099,21.4384 2.13263,26.57174 1.57864,11.07624 1.84287,30.55153 0.44516,32.81306 -0.58951,0.95386 -0.42453,1.25059 0.40891,0.7355 2.0952,-1.29491 3.24126,5.16248 1.56801,8.83487 -1.01449,2.2266 -1.05004,4.68525 -0.11653,8.06593 1.2774,4.62636 0.007,8.09933 -1.66772,4.55895 -0.43576,-0.92124 -0.41764,3.12502 0.0403,8.99169 1.30419,16.70892 1.46138,17.98393 3.69847,30 1.16051,6.23333 2.12105,13.76333 2.13456,16.73333 0.0135,2.97 0.62616,6.00159 1.36143,6.73686 1.36308,1.36308 3.46669,13.71302 5.21293,30.60404 0.53491,5.17416 1.43297,10.15253 1.99571,11.06304 0.56272,0.9105 0.99009,5.9771 0.94972,11.2591 -0.0916,11.98222 0.85344,16.93696 3.23048,16.93696 2.05604,0 3.80104,2.83459 5.10505,8.29264 0.69973,2.92882 0.22273,4.04767 -2.48096,5.81918 -3.11943,2.0439 -3.6842,2.0333 -8.29739,-0.1558 -3.76481,-1.78648 -8.95321,-2.42255 -21.66793,-2.65635 -9.19479,-0.16907 -18.88445,-0.73179 -21.53257,-1.25051 -4.17551,-0.81789 -4.91131,-0.57396 -5.54184,1.8372 -0.41407,1.58336 -1.81402,2.78036 -3.2519,2.78036 -1.38865,0 -3.18853,0.6637 -3.99973,1.4749 -1.07764,1.0776 -4.04761,1.0409 -11.02671,-0.1363 -7.45892,-1.2581 -10.41786,-2.4577 -13.5044,-5.47486 -2.17398,-2.12508 -4.53196,-3.86379 -5.24001,-3.86379 -0.70805,0 -1.28736,-0.90709 -1.28736,-2.01576 0,-1.61448 -1.12807,-1.84837 -5.66667,-1.17495 -3.11666,0.46244 -6.28073,1.59831 -7.03125,2.52414 -2.80792,3.46382 -26.73095,4.56384 -38.16505,1.75489 -5.36878,-1.31892 -6.88236,-1.18435 -11.33334,1.00771 -2.88614,1.42138 -8.35025,2.6184 -12.47036,2.73186 -4.03333,0.11107 -7.63333,0.35226 -8,0.53596 -2.08706,1.04564 -18.01852,1.01719 -26.15497,-0.0467 -8.12703,-1.06268 -10.56123,-0.86359 -16.96669,1.3878 -4.11311,1.4456 -8.34475,2.6284 -9.40364,2.6284 -1.0589,0 -3.62388,0.912 -5.69998,2.0267 -6.54524,3.514 -11.54829,4.9615 -19.10805,5.5281 -4.03333,0.3023 -9.07287,1.1261 -11.19896,1.8308 -2.12611,0.7045 -5.27611,1.2811 -7,1.2811 -1.72391,0 -3.13437,0.5 -3.13437,1.1111 0,0.6111 -0.9,1.2777 -2,1.4814 -2.37035,0.439 -20.52608,0.5531 -27.70834,0.1741 -3.15569,-0.1665 -6.70593,0.7626 -9.4907,2.4837 -6.009,3.7137 -10.67203,3.515 -13.903,-0.5925 z m 28.7687,-16.9843 C 479.25,1000.2735 480,998.99346 480,998.16228 c 0,-2.74834 13.59856,-7.90228 21.98659,-8.33305 9.63025,-0.49455 16.86557,-1.69532 18.68008,-3.10012 C 521.4,986.16136 522.9,985.66323 524,985.62216 c 1.1,-0.0411 3.5,-0.47921 5.33333,-0.97362 1.83334,-0.49443 4.51484,-0.86999 5.95892,-0.83459 1.44407,0.0353 3.04182,-0.60912 3.55055,-1.43227 1.56183,-2.52708 14.31873,-3.41566 32.49053,-2.26313 9.53334,0.60464 18.53334,1.13452 20,1.17749 2.22118,0.0651 2.33255,0.29708 0.66667,1.3887 -1.1,0.7208 -3.59288,0.97648 -5.53973,0.56818 -1.94686,-0.40829 -3.84595,-0.2469 -4.2202,0.35866 -0.37426,0.60556 3.91862,1.20552 9.53973,1.33325 7.33668,0.16672 9.56188,-0.14059 7.88687,-1.0892 -1.28334,-0.7268 -2.33334,-1.89164 -2.33334,-2.58853 0,-2.00347 4.93554,-1.47442 7.17955,0.76961 2.05143,2.05143 3.14629,2.01031 14.21844,-0.53396 3.33556,-0.76648 7.31784,-1.06589 8.84952,-0.66535 1.53168,0.40055 3.188,0.076 3.68071,-0.72122 0.4927,-0.79723 1.49582,-1.4495 2.22916,-1.4495 0.73333,0 1.05908,0.45 0.72386,1 -0.3352,0.55 1.87939,1.11739 4.92132,1.26087 3.04192,0.14348 9.64239,0.63589 14.6677,1.09423 6.34358,0.57858 8.8672,0.39693 8.25465,-0.5942 -0.53481,-0.86534 0.3972,-1.42756 2.36648,-1.42756 1.78681,0 4.05332,-0.96943 5.03665,-2.15428 2.91042,-3.50684 16.75947,-1.43594 27.10666,4.05336 4.64309,2.46321 10.86949,4.88869 13.83644,5.38996 4.59237,0.77586 5.61005,0.50852 6.84453,-1.79812 1.97821,-3.69634 7.77919,-4.48436 22.751,-3.09055 15.89199,1.47948 17.84611,0.86759 18.07275,-5.65919 0.0953,-2.74478 0.73661,-5.38442 1.42509,-5.86585 1.66184,-1.16207 -1.06108,-22.35425 -2.79784,-21.77533 -0.715,0.23833 -1.515,-0.21167 -1.77777,-1 -0.26279,-0.78834 0.47221,-1.43334 1.63333,-1.43334 2.37337,0 2.83027,-2.06482 0.74241,-3.35518 -0.75278,-0.46524 -1.28169,-1.55066 -1.17536,-2.41203 0.45951,-3.72223 -0.22224,-6.32859 -1.45594,-5.56612 -0.73334,0.45323 -1.33334,-0.11133 -1.33334,-1.25464 0,-1.14328 0.47952,-2.07869 1.0656,-2.07869 1.41083,0 0.31112,-9.14914 -1.21292,-10.09106 C 752.53371,921.50582 752,919.37194 752,917.167 c 0,-2.20493 -0.54801,-5.03293 -1.2178,-6.28445 -1.34104,-2.50576 -2.48423,-9.99723 -4.00048,-26.21587 -0.54847,-5.86666 -1.09872,-9.88125 -1.2228,-8.9213 -0.34336,2.65656 -2.89225,0.46154 -2.89225,-2.49072 0,-1.42339 0.6,-2.58798 1.33333,-2.58798 0.73333,0 1.32415,-2.55 1.31292,-5.66666 -0.0149,-4.14995 -0.36637,-5.13135 -1.31292,-3.66667 -0.71088,1.1 -1.30169,3.45 -1.31292,5.22223 -0.022,3.4783 -1.58248,2.85102 -2.2788,-0.91606 -1.99444,-10.78997 -1.88056,-13.03161 0.80756,-15.89514 1.5088,-1.60727 3.79177,-3.50907 5.07327,-4.22623 3.35925,-1.87995 3.3408,-23.83332 -0.0216,-25.71503 -1.82395,-1.02073 -1.93615,-1.70316 -0.62518,-3.80237 1.19171,-1.90823 1.24247,-4.35108 0.19976,-9.61288 -0.76888,-3.87999 -1.33421,-10.05452 -1.25632,-13.72119 0.0779,-3.66667 -0.30773,-6.99325 -0.85697,-7.3924 -0.54924,-0.39916 -0.38247,-2.95721 0.37059,-5.68459 2.1675,-7.85002 -0.80207,-9.90045 -7.12986,-4.92301 -1.86456,1.46667 -5.15234,2.66667 -7.30617,2.66667 -2.15384,0 -7.4592,1.18525 -11.78969,2.63388 -4.33051,1.44864 -9.03104,2.64864 -10.44564,2.66666 -3.51598,0.0448 -11.71478,3.00724 -13.81576,4.99198 -0.94659,0.89421 -6.64659,3.1917 -12.66667,5.10552 -11.61255,3.69172 -19.97193,3.82125 -28.49977,0.44164 -3.5281,-1.3982 -5.54911,-1.30347 -12.31322,0.57712 -8.9439,2.48662 -24.26082,2.98864 -28.12288,0.92173 -1.3649,-0.73048 -14.05429,-1.6564 -28.19864,-2.05761 -14.14433,-0.40122 -28.13814,-1.34275 -31.09736,-2.09231 -8.40766,-2.12965 -12.85344,-2.33211 -20.04704,-0.91295 -6.52697,1.28766 -24.99098,3.08628 -47.07329,4.58552 -6.37599,0.4329 -13.55375,0.1272 -16.92064,-0.72057 -4.61696,-1.16256 -7.75784,-1.04152 -14.92671,0.57525 -11.96688,2.69884 -13.33505,3.214 -11.56854,4.35586 1.24533,0.80497 4.93742,9.87652 5.09898,12.52828 0.0313,0.51333 0.80687,1.68333 1.72354,2.6 0.91666,0.91666 1.66666,3.94666 1.66666,6.73333 0,4.55101 -0.34838,5.06667 -3.42318,5.06667 -2.65323,0 -3.25672,0.52482 -2.68308,2.33333 0.40705,1.28333 1.00616,13.73334 1.33134,27.66667 0.9839,42.15661 2.30106,62.35141 4.32759,66.35037 1.02672,2.02603 2.22976,8.62603 2.67341,14.66667 0.44364,6.04063 1.46816,12.18296 2.2767,13.64963 0.80853,1.46666 1.59634,6.86666 1.7507,12 0.15436,5.13333 0.94915,14.13333 1.7662,20 2.75795,19.80278 2.98464,20.37158 8.37822,21.02238 4.9297,0.5949 8.8918,-0.1138 11.26877,-2.0155 z m 150.08628,-68.34903 c -4.32237,-1.82164 -9.19009,-8.99916 -7.71825,-11.38065 0.44569,-0.72115 -0.12973,-3.19571 -1.27884,-5.49903 -1.14905,-2.30333 -2.08919,-5.03513 -2.08919,-6.07068 0,-5.33961 -2.19297,-6.52527 -10.23325,-5.53272 -4.27171,0.52732 -10.92516,1.63243 -14.78545,2.45579 -9.65423,2.05914 -13.6116,0.088 -15.92946,-7.93408 -1.22537,-4.24107 -1.34208,-7.13734 -0.40298,-10 0.72709,-2.2164 1.24522,-11.22982 1.15142,-20.02982 -0.0939,-8.8 0.27236,-18.00438 0.81372,-20.4542 0.82503,-3.73341 1.44832,-4.3297 3.85182,-3.68486 1.57713,0.42312 3.3021,0.77752 3.83328,0.78753 1.43964,0.0272 5.30432,8.0182 3.8778,8.0182 -2.58076,0 -2.67222,4.24751 -0.19427,9.02259 1.45769,2.80902 2.77412,8.46704 3.02177,12.98761 0.24135,4.40561 0.89951,8.75561 1.46256,9.66667 0.56307,0.91105 0.62106,2.30805 0.12894,3.10442 -1.06278,1.7196 13.86236,0.25167 16.18226,-1.59157 1.71298,-1.361 1.02483,-14.81052 -1.03306,-20.19092 -0.88956,-2.32579 -0.94158,-4.27728 -0.14216,-5.33333 0.6934,-0.91602 1.421,-4.36547 1.6169,-7.66547 0.60992,-10.27447 4.48792,-12.06927 11.00464,-5.09311 2.90194,3.10654 3.71378,4.97811 3.03646,7 -0.79279,2.36658 -1.45918,8.72202 -1.94771,18.57564 -0.18568,3.74528 4.00111,7.85982 6.16795,6.0615 2.03856,-1.69186 9.36638,-0.40882 10.78625,1.88857 2.48236,4.01653 1.47396,9.12475 -2.56284,12.98253 -2.25501,2.15502 -4.91104,3.9182 -5.90227,3.9182 -2.26762,0 -2.24017,0.64162 0.34228,8 1.15815,3.3 2.29632,6.95315 2.52926,8.11811 0.23294,1.16496 1.18573,4.66212 2.11732,7.77147 1.1296,3.77024 1.24197,5.95154 0.33738,6.54856 -0.74601,0.49236 -1.90512,1.89594 -2.57577,3.11906 -1.07581,1.96204 -1.71943,2.01314 -5.46644,0.43399 z m -96.72486,59.59124 c 0.32477,-0.97433 -0.28479,-1.27232 -1.58334,-0.77401 -1.16128,0.44562 -2.11141,1.39602 -2.11141,2.11201 0,1.75252 3.03037,0.65512 3.69475,-1.338 z M 536,992.00002 c 0,-0.73334 -0.6,-1.33334 -1.33333,-1.33334 -0.73334,0 -1.33334,0.6 -1.33334,1.33334 0,0.73333 0.6,1.33333 1.33334,1.33333 0.73333,0 1.33333,-0.6 1.33333,-1.33333 z m 7.14884,-3.33334 c 0.42211,-1.1 0.25049,-2 -0.38137,-2 -0.63186,0 -1.49419,0.9 -1.91631,2 -0.42211,1.1 -0.25049,2 0.38137,2 0.63186,0 1.49419,-0.9 1.91631,-2 z m 906.23676,-5.7159 c -1.8047,-0.29878 -4.0283,-1.53492 -4.9415,-2.747 -2.3137,-3.07103 -5.0058,-15.83618 -4.6501,-22.0487 0.1731,-3.02068 -0.5069,-6.07618 -1.6319,-7.33333 -2.2258,-2.48735 -5.2177,-17.1138 -3.9276,-19.20123 0.8024,-1.2984 1.1087,-5.17489 1.9712,-24.95384 0.1759,-4.03333 0.9312,-7.74888 1.6786,-8.25677 0.7632,-0.51875 -0.1067,-1.48047 -1.9843,-2.19444 -3.9084,-1.48599 -7.3487,-5.21124 -6.0301,-6.52976 0.5041,-0.50409 3.6952,-1.02707 7.0914,-1.16216 4.7534,-0.18907 6.2539,-0.78404 6.5182,-2.58443 0.1888,-1.28636 1.06,-2.7818 1.936,-3.32322 0.8761,-0.54143 1.2258,-1.57827 0.7772,-2.30411 -0.8516,-1.378 7.7077,-7.74717 14.2937,-10.6362 9.0879,-3.98648 17.3769,0.52509 20.5216,11.16953 2.2172,7.50488 0.075,23.05338 -3.5844,26.0166 -1.5163,1.22783 -2.7569,3.36854 -2.7569,4.75714 0,2.35645 -7.6548,11.04782 -9.7302,11.04782 -0.515,0 -2.1365,1.2 -3.6032,2.66667 -1.4666,1.46667 -4.1312,2.66667 -5.9213,2.66667 -1.79,0 -3.5831,0.53154 -3.9847,1.1812 -0.4014,0.64966 0.2624,5.20285 1.4755,10.11821 1.7837,7.22848 1.8756,9.1408 0.4805,10.00305 -1.0274,0.635 -1.288,1.77302 -0.6444,2.81447 0.5943,0.96163 1.1746,2.97871 1.2895,4.4824 0.1147,1.50371 1.3333,6.7926 2.7075,11.75311 l 2.4986,9.0191 -3.284,3.06123 c -2.1369,1.99204 -4.4298,2.87148 -6.5649,2.51799 z m 11.2367,-72.9952 c 5.0666,-5.06667 5.8932,-7.2889 2.711,-7.2889 -3.1101,0 -2.3537,-2.5982 1.1438,-3.92789 4.1476,-1.57693 5.8302,-11.45261 2.5657,-15.05975 -2.6864,-2.96856 -4.2396,-2.9722 -5.2801,-0.012 -0.4511,1.28334 -2.1599,3.83334 -3.7974,5.66667 -4.5852,5.13403 -6.1476,12.78404 -4.8333,23.66667 0.3373,2.79289 2.5537,1.89201 7.4903,-3.04444 z m -455.2427,42.39904 c -2.8844,-1.13415 -6.40411,-5.88608 -7.17572,-9.68794 -0.37208,-1.83333 -1.4374,-5.13333 -2.36739,-7.33333 -0.92997,-2.2 -1.73366,-4.64109 -1.78596,-5.42465 -0.16354,-2.45012 -9.24289,-12.1694 -12.24337,-13.10631 -1.78035,-0.55592 -3.60147,-0.15092 -4.82555,1.07316 -1.22588,1.22588 -3.16117,1.65508 -5.1405,1.14007 -3.77376,-0.98194 -10.50778,-7.37752 -10.50778,-9.97971 0,-1.00973 -0.6508,-2.48669 -1.44621,-3.28211 -0.79543,-0.79542 -1.24543,-2.86542 -1,-4.6 0.40127,-2.83616 1.11764,-3.15378 7.11288,-3.15378 4.85368,0 6.56585,-0.48372 6.29599,-1.77872 -0.20388,-0.97831 1.18258,-3.00055 3.08104,-4.49387 2.2067,-1.73579 3.15662,-3.48421 2.63356,-4.84731 -0.45002,-1.17268 -0.3918,-1.70576 0.12933,-1.1846 0.52116,0.52115 3.50384,-1.14713 6.6282,-3.7073 3.12436,-2.56018 6.02448,-4.65487 6.44471,-4.65487 0.42024,0 3.51522,-2.1 6.87773,-4.66667 3.36254,-2.56666 6.96774,-4.66666 8.01154,-4.66666 1.0438,0 1.8979,-0.61486 1.8979,-1.36634 0,-0.75148 1.5,-1.93664 3.3333,-2.63366 1.8333,-0.69703 3.3333,-1.88219 3.3333,-2.63367 0,-0.75148 2.3886,-1.36633 5.308,-1.36633 4.5525,0 5.4272,0.4753 6.1461,3.33969 0.461,1.83683 0.2796,7.22476 -0.4032,11.97317 -0.6828,4.74842 -0.7577,9.39556 -0.1665,10.32698 0.5911,0.93142 1.084,3.79349 1.0952,6.36016 l 0.02,4.66666 h 16.4618 c 11.7312,0 17.0753,0.5092 18.5968,1.77198 2.6869,2.22996 9.1912,3.52657 16.9414,3.37725 15.1599,-0.29207 24.1854,-1.03709 24.8101,-2.04799 0.3744,-0.60568 4.8452,-1.10124 9.9353,-1.10124 5.09,0 9.2546,-0.4784 9.2546,-1.06312 0,-0.5847 4.5621,-0.62734 10.1379,-0.0948 5.5758,0.5326 10.9529,0.65562 11.949,0.27336 0.9961,-0.38225 3.7263,0.26039 6.067,1.42808 2.3407,1.16771 6.1591,2.1231 8.4852,2.1231 2.697,0 5.2798,1.1181 7.1285,3.08593 4.1659,4.43443 3.6405,6.2474 -1.8105,6.2474 -3.6125,0 -4.9586,-0.67291 -5.7782,-2.8884 -0.7071,-1.91153 -2.2817,-2.94151 -4.6558,-3.04544 -2.4119,-0.1056 -3.3725,0.40313 -2.9314,1.55241 0.3607,0.9402 -0.6748,2.57363 -2.3012,3.62983 -2.2715,1.47508 -7.3144,1.86215 -21.7487,1.66932 -15.0159,-0.20061 -19.2763,0.1508 -21.2041,1.74895 -1.8889,1.56586 -6.4302,2 -20.9213,2 -11.7912,0 -18.8549,-0.52332 -19.4626,-1.4419 -0.5246,-0.79302 -4.6473,-2.21302 -9.1615,-3.15553 -6.6027,-1.37853 -10.5139,-1.39159 -20,-0.0667 -13.0777,1.82646 -14.4613,2.50266 -15.7672,7.7055 -0.4967,1.97924 -1.6056,4.04544 -2.4641,4.59156 -1.1608,0.73836 -1.1337,0.99817 0.1057,1.01336 2.0689,0.0253 2.2151,3.61538 0.175,4.29544 -1.0859,0.36194 -1.033,2.54736 0.1944,8.03209 1.3382,5.97959 1.3484,8.35059 0.049,11.48691 -2.0014,4.83188 -7.7212,6.78258 -13.3723,4.56057 z m -4.0463,-37.46571 c 0,-0.61112 -0.8736,-1.11112 -1.94131,-1.11112 -1.06775,0 -1.63234,0.5 -1.25464,1.11112 0.37768,0.61111 1.25129,1.11111 1.94135,1.11111 0.69,0 1.2546,-0.5 1.2546,-1.11111 z m 9.4584,-17.62245 c 1.4693,-0.78638 2.2042,-2.06702 1.6763,-2.92116 -0.517,-0.83652 -0.8099,-4.03307 -0.651,-7.10346 0.3744,-7.23213 -2.7113,-8.80004 -7.7737,-3.94996 -1.9374,1.85615 -4.53971,3.3748 -5.78293,3.3748 -1.2432,0 -2.26037,0.89492 -2.26037,1.98871 0,1.09379 -1.2,2.73811 -2.66667,3.65405 -4.94146,3.086 -3.22104,5.18103 3.98464,4.85224 3.65823,-0.16692 7.05823,0.10347 7.55553,0.60075 1.265,1.26501 2.8807,1.12961 5.9182,-0.49597 z m 307.0862,40.89612 c -0.4564,-1.18942 -1.6,-2.16256 -2.5413,-2.16256 -0.9414,0 -2.0287,-1.95 -2.4163,-4.33334 -0.3877,-2.38333 -1.763,-9.13333 -3.0564,-15 -1.2933,-5.86666 -2.3084,-14.11666 -2.2558,-18.33333 l 0.096,-7.66667 h -7.1065 c -3.9086,0 -7.4774,-0.6 -7.9306,-1.33333 -0.4533,-0.73333 -2.8078,-1.33333 -5.2322,-1.33333 -7.7663,0 -14.7928,-8.33578 -9.7678,-11.58798 0.9166,-0.59328 7.9666,-1.07869 15.6666,-1.07869 h 14 l -0.049,-11 c -0.027,-6.05 0.423,-11 1,-11 0.5771,0 1.0683,-1.05 1.0916,-2.33333 0.023,-1.28334 0.9233,-3.49802 2,-4.92151 2.1926,-2.89884 2.6237,-7.41183 0.7081,-7.41183 -0.6873,0 -0.9087,-2.1 -0.4922,-4.66666 0.4914,-3.02865 0.228,-4.66667 -0.7505,-4.66667 -2.64,0 -1.6246,-4.99179 1.1637,-5.72094 3.478,-0.90952 7.8798,2.82391 8.3172,7.05427 0.1895,1.83333 1.171,3.98115 2.1811,4.77294 1.3985,1.09626 1.638,3.64009 1.0044,10.66666 -0.4575,5.07488 -1.2025,13.72707 -1.6553,19.22707 l -0.8234,10 7.8189,-0.10787 c 7.4201,-0.1024 7.8842,-0.30636 9.0988,-4 0.7038,-2.14069 1.46,-4.14836 1.6804,-4.46149 0.879,-1.2492 4.0301,4.57819 3.3849,6.25968 -0.4127,1.07519 0.4815,2.10881 2.2165,2.56253 2.4794,0.64838 2.8488,1.55876 2.5064,6.17612 -0.4493,6.06216 1.724,5.30575 -19.0681,6.63644 l -8,0.512 -0.41,5.54462 c -0.2416,3.26697 0.1692,5.54461 1,5.54461 0.7755,0 1.41,1.76459 1.41,3.92131 0,2.15672 0.6415,4.31777 1.4255,4.80232 0.784,0.48456 1.2779,3.06996 1.0975,5.74536 -0.1804,2.67538 0.6781,6.78454 1.9078,9.13146 2.366,4.51544 2.8917,10.6361 1.1492,13.37947 -0.5752,0.90563 -2.9568,2.02877 -5.2924,2.49589 -3.2229,0.64458 -4.4466,0.328 -5.0764,-1.31325 z m 46.6734,-9.88996 c -4.5809,-2.39436 -7.1589,-5.54175 -6.323,-7.71983 0.3289,-0.85743 -0.6356,-3.58256 -2.1435,-6.05587 -3.448,-5.65572 -3.4297,-6.59936 0.2029,-10.49854 2.0966,-2.2504 2.3222,-2.92854 0.777,-2.3356 -1.3176,0.5056 -2.4842,0.036 -2.9543,-1.18934 -1.3028,-3.39504 -0.9004,-4.27012 2.1683,-4.71402 1.6685,-0.24138 3.258,-1.65206 3.6666,-3.25426 1.2023,-4.71368 8.0878,-9.34668 13.388,-9.0083 2.5667,0.16385 5.9443,0.34409 7.5059,0.40053 1.5616,0.0564 5.3613,2.55019 8.4437,5.54165 5.1951,5.04164 5.6094,5.96602 5.6695,12.65222 0.036,3.96726 -0.6089,8.0249 -1.4323,9.017 -0.8233,0.99208 -1.1536,2.14718 -0.7338,2.5669 1.312,1.31207 -2.1742,6.44852 -3.7259,5.48952 -0.8724,-0.53921 -1.0961,-0.30125 -0.5491,0.58399 1.2228,1.97851 -5.871,9.85983 -8.1036,9.00313 -0.9576,-0.36745 -1.741,-0.16874 -1.741,0.44158 0,1.87936 -10.0068,1.2266 -14.1154,-0.92076 z m 6.782,-13.60594 c -0.6006,-1.89242 -0.2396,-2.66666 1.2435,-2.66666 1.1495,0 2.0899,0.9 2.0899,2 0,2.96496 1.7525,2.44341 5.6008,-1.66667 4.544,-4.85329 5.6685,-8.83995 3.096,-10.97501 -1.1166,-0.92667 -2.0302,-2.77596 -2.0302,-4.10956 0,-1.33359 -0.6,-2.79554 -1.3333,-3.24876 -0.7333,-0.45323 -1.3333,-0.24791 -1.3333,0.45628 0,0.70417 -2.0402,2.48401 -4.5336,3.95521 -5.3583,3.16145 -7.2291,9.05681 -4.7632,15.00991 1.8294,4.4168 3.2574,5.32249 1.9634,1.24526 z m -24.0548,-41.42204 c -0.4834,-0.78212 -0.5929,-1.708 -0.2434,-2.0575 0.3496,-0.34951 0.9908,0.29041 1.425,1.42204 0.9016,2.34948 0.1334,2.76274 -1.1816,0.63546 z M 1024,678.00001 c 0,-1.1 0.6,-2 1.3333,-2 0.7334,0 1.3334,0.9 1.3334,2 0,1.1 -0.6,2 -1.3334,2 -0.7333,0 -1.3333,-0.9 -1.3333,-2 z m 707.1827,-262.91704 c -3.6066,-0.70906 -6.298,-6.31404 -4.5392,-9.45322 2.2157,-3.95513 10.9938,-36.60862 11.9078,-44.29641 0.5272,-4.43384 2.5675,-10.39708 5.1603,-15.08212 2.3587,-4.26184 4.2884,-9.11184 4.2884,-10.77779 0,-1.66593 0.3981,-3.42713 0.8848,-3.91376 1.7147,-1.71462 5.7023,-14.6097 4.9129,-15.88698 -1.1525,-1.86483 3.6784,-17.00602 5.426,-17.00602 1.9286,0 5.1998,5.17472 5.7798,9.14323 0.2526,1.72879 -0.2682,6.52879 -1.1575,10.66667 -0.8893,4.13789 -1.7236,8.42344 -1.854,9.52344 -1.4001,11.81784 -4.5488,24 -6.2031,24 -0.6172,0 -1.1222,1.16458 -1.1222,2.58797 0,1.42339 -0.6523,2.99111 -1.4495,3.48381 -0.7972,0.49271 -1.1409,2.07568 -0.7639,3.51772 0.3771,1.44203 -1.3282,8.72431 -3.7897,16.18286 -2.4615,7.45853 -5.4709,17.16097 -6.6877,21.56097 -5.01,18.11576 -4.2676,17.03256 -10.7932,15.74963 z m -306.138,-24.08296 c -3.9092,-4.48152 -4.891,-7.9545 -6.3399,-22.42579 -0.8025,-8.01581 -2.0393,-17.91033 -2.7487,-21.98781 -0.7092,-4.07747 -1.2894,-9.89207 -1.2894,-12.92131 0,-3.02924 -0.6,-5.87853 -1.3334,-6.33176 -0.7333,-0.45323 -1.3333,-2.85323 -1.3333,-5.33333 0,-2.48011 0.6,-4.88011 1.3333,-5.33334 1.9527,-1.20681 1.6263,-7.79709 -0.5984,-12.08532 -2.363,-4.55466 -1.4833,-6.40904 2.1243,-4.47826 2.454,1.31328 2.6601,1.08792 2.2843,-2.49638 -0.2274,-2.167 0.2441,-4.765 1.0477,-5.77334 0.8036,-1.00835 1.8681,-4.09218 2.3657,-6.85296 1.0766,-5.97384 7.4263,-12.98871 11.7315,-12.96033 5.2676,0.0347 13.4888,3.56087 16.5209,7.08599 1.6043,1.86499 4.2426,7.37468 5.8628,12.24376 2.8246,8.48768 2.8554,9.09054 0.746,14.61363 -1.5164,3.97069 -3.3782,6.24877 -5.9916,7.33128 -2.6778,1.1092 -3.6065,2.27811 -3.1617,3.97932 0.434,1.65956 -1.9107,4.87952 -7.5383,10.3522 l -8.1684,7.9434 0.7084,7.65552 c 0.3896,4.21053 1.1154,8.31399 1.6127,9.11877 0.4975,0.80479 1.0172,5.10664 1.1551,9.55966 0.1378,4.45302 0.7238,12.15264 1.3022,17.11026 0.9042,7.7497 0.715,9.38592 -1.349,11.66667 -2.9626,3.2736 -6.2632,3.39151 -8.9428,0.31947 z m 12.3489,-78.00959 c 3.3989,-2.68027 3.7979,-3.82012 3.8463,-10.99041 0.029,-4.4 -0.7022,-9.49468 -1.6264,-11.32152 -4.6571,-9.20492 -10.2802,-0.003 -10.2802,16.82449 0,11.17985 0.4516,11.48735 8.0603,5.48744 z m -384.2417,41.65447 c -2.6002,-1.5186 -4.4368,-8.70444 -4.9545,-19.38432 -0.2322,-4.79098 -8.2359,-14.3404 -11.0985,-13.24192 -1.0246,0.39314 -5.0994,-2.06164 -9.1222,-5.49542 -3.9987,-3.41328 -8.6294,-7.09636 -10.2902,-8.18461 -2.1735,-1.42407 -3.0198,-3.27032 -3.0198,-6.5872 0,-4.09891 2.3744,-8.41808 4.6277,-8.41808 2.3019,0 11.3723,-9.52616 11.3723,-11.94372 0,-0.76429 0.9,-1.38961 2,-1.38961 1.1,0 2,-0.66419 2,-1.47599 0,-0.81179 0.8408,-1.15331 1.8686,-0.75893 1.1065,0.42461 2.1398,-0.31982 2.5334,-1.82523 0.3657,-1.39826 2.3748,-3.29411 4.4647,-4.213 2.09,-0.91888 4.2868,-2.44596 4.8819,-3.3935 0.595,-0.94752 1.645,-1.37474 2.3333,-0.94938 0.6883,0.42537 1.2514,0.10413 1.2514,-0.71378 0,-3.1395 8.5415,-9.33686 12.8686,-9.33686 7.0611,0 8.8909,3.05112 8.1383,13.56993 -0.3564,4.98179 -1.3618,9.91784 -2.2342,10.96903 -0.9218,1.11071 -1.4159,4.88856 -1.1795,9.01947 l 0.4068,7.10824 9.5944,-0.26247 c 5.2769,-0.14436 12.1769,-0.96235 15.3333,-1.81775 11.4735,-3.10934 44.1879,-2.35116 55.8967,1.29544 2.1146,0.65858 4.4804,0.51851 6,-0.3552 1.3799,-0.79337 8.6259,-1.57262 16.1021,-1.73168 7.4762,-0.15905 14.7174,-0.89088 16.0916,-1.62628 1.374,-0.7354 3.3571,-1.15066 4.4068,-0.92282 8.7587,1.90122 10.589,2.69753 11.2922,4.91286 1.0549,3.32376 -0.4586,7.84123 -2.6271,7.84123 -0.9517,0 -3.3832,-1.30011 -5.4033,-2.88913 l -3.673,-2.88914 -2.4772,3.22247 c -1.3624,1.77236 -2.4905,2.47247 -2.5068,1.5558 -0.033,-1.85719 -4.0297,-2.34821 -4.0297,-0.49509 0,1.49864 -6.5175,4.14172 -10,4.05537 -1.4667,-0.0364 -7.1667,0.99389 -12.6667,2.28944 -10.9797,2.58632 -23.4511,2.91811 -27.5349,0.73253 -5.3945,-2.88709 -24.4861,-3.33756 -35.7984,-0.84466 -6.3158,1.39181 -14.8816,2.22298 -21,2.03773 -11.2848,-0.34169 -12.216,0.41064 -7.6667,6.19419 3.5454,4.50714 3.3844,5.85897 -1.3319,11.18314 -2.9249,3.30198 -3.8118,5.40904 -3.303,7.84735 1.3458,6.44893 1.0903,13.84823 -0.4965,14.37713 -0.8706,0.2902 -2.4293,1.37406 -3.4638,2.40859 -2.1711,2.17108 -4.4935,2.33205 -7.5862,0.52583 z m -10.4852,-61.26971 c 0,-0.71031 -0.9,-0.94612 -2,-0.52401 -1.1,0.42212 -2,1.00328 -2,1.29149 0,0.2882 0.9,0.52401 2,0.52401 1.1,0 2,-0.58117 2,-1.29149 z m 632.4133,50.95816 c -2.8335,-2.48424 -5.7467,-7.29185 -5.7467,-9.48377 0,-0.72916 0.9602,-2.28591 2.1338,-3.45943 2.201,-2.20117 1.8097,-3.68772 -3.3495,-12.72347 -3.5039,-6.13665 -6.4084,-16.21106 -7.3999,-25.66666 -0.2113,-2.01667 -0.4593,-4.26667 -0.551,-5 -0.092,-0.73334 -1.0456,-1.33334 -2.1198,-1.33334 -4.5244,0 -6.3254,-9.71021 -2.2096,-11.91293 2.1572,-1.15448 2.6468,-3.70026 3.5352,-18.38024 1.2346,-20.39752 1.7232,-31.172 2.2398,-49.37343 0.321,-11.31761 0.7446,-13.6666 2.4645,-13.66667 1.894,-6e-5 5.2283,5.97168 7.0721,12.6666 0.6771,2.45814 1.0978,26.87606 0.927,53.79819 -0.039,6.12233 0.2448,11.64208 0.6305,12.26611 0.3857,0.62402 3.6588,0.78432 7.2737,0.35618 9.6499,-1.14288 18.207,3.3394 16.3791,8.57953 -0.7492,2.1475 -4.3592,2.17786 -4.3592,0.0367 0,-0.89649 -0.9355,-0.29438 -2.0789,1.33803 -1.6987,2.42525 -2.5634,2.70873 -4.7283,1.55013 -3.6868,-1.97314 -10.6432,-1.03989 -12.3295,1.6541 -1.7572,2.8073 2.8418,18.54308 8.6034,29.43696 1.6413,3.10336 4.5298,12.12276 6.3952,19.9688 1.3548,5.69816 1.239,6.58112 -1.1799,9 -3.302,3.30205 -8.07,3.44534 -11.602,0.34866 z m -405.7467,-1.89559 c -5.4644,-1.54769 -10.4016,-5.74101 -12.2893,-10.43774 -1.9717,-4.9055 -1.3556,-24.67318 0.9401,-30.16768 2.493,-5.96651 12.4606,-16.49899 15.6141,-16.49899 1.321,0 2.4018,-0.57889 2.4018,-1.28643 0,-4.68341 17.1529,-3.565 24.1003,1.57139 4.1659,3.08 5.3182,8.94297 2.233,11.36201 -2.7582,2.1627 -15.7085,1.85667 -16.4035,-0.38762 -2.1052,-6.7982 -2.0312,-6.70606 -3.6917,-4.59268 -0.8643,1.1 -2.7002,2 -4.0798,2 -1.4452,0 -3.458,1.77062 -4.7487,4.17725 -1.2322,2.29749 -3.2279,5.16485 -4.435,6.37192 -1.207,1.20707 -1.8559,3.07731 -1.442,4.15608 0.414,1.07877 0.088,1.96141 -0.7233,1.96141 -2.0664,0 -1.8427,3.26883 0.7968,11.64244 l 2.2728,7.21016 10.0606,-0.55922 c 9.017,-0.50122 22.3057,-4.04128 28.262,-7.5289 2.9752,-1.74212 11.2792,0.62578 12.3954,3.53459 0.4743,1.23585 -0.216,4.25111 -1.534,6.70059 -2.2636,4.20704 -2.6915,4.40501 -7.7296,3.57621 -2.9333,-0.48256 -6.1482,-1.53688 -7.1442,-2.34296 -1.3719,-1.11021 -2.261,-0.85023 -3.6667,1.07227 -1.0207,1.39581 -1.8557,2.94369 -1.8557,3.43973 0,0.49604 -2.4,0.76648 -5.3334,0.60096 -2.9333,-0.16551 -5.3333,0.21396 -5.3333,0.84327 0,0.6293 -0.8265,1.1442 -1.8367,1.1442 -1.0102,0 -2.5837,0.9 -3.4966,2 -1.8654,2.24768 -6.4156,2.39706 -13.3334,0.43774 z m 463.4107,-2.31257 c -0.4107,-0.66449 -1.8635,-0.91612 -3.2284,-0.55917 -1.75,0.45764 -2.7125,-0.2336 -3.2645,-2.34444 -0.6678,-2.55348 -1.0914,-2.73732 -2.8826,-1.25083 -2.4565,2.03883 -2.5433,1.97036 -4.3677,-3.44572 -0.8273,-2.45603 -0.9161,-4.89799 -0.2184,-6 2.0049,-3.16617 1.3408,-11.34971 -1.4491,-17.85835 -1.4666,-3.4216 -2.6666,-7.63593 -2.6666,-9.36518 0,-1.72926 -0.5016,-3.45411 -1.1147,-3.833 -1.7616,-1.0887 -0.8545,-6.80182 1.0799,-6.80182 0.9593,0 2.4096,1.2 3.2228,2.66667 0.8133,1.46667 2.1926,3.12635 3.0653,3.68819 1.6507,1.06265 9.7467,12.56196 9.7467,13.84381 0,0.69025 2.712,7.138 5.5553,13.20773 0.7059,1.50686 3.0075,4.58447 5.1145,6.83914 2.5286,2.7055 3.5943,5.00557 3.1344,6.7644 -1.0653,4.07386 -9.8896,7.42133 -11.7269,4.44857 z m -151.4107,-6.49452 c -2.5666,-1.24144 -7.6529,-4.2162 -11.3029,-6.61057 -3.65,-2.39439 -7.1419,-4.35342 -7.7597,-4.35342 -0.618,0 -3.7398,-1.8 -6.9374,-4 -3.1976,-2.2 -6.4074,-4 -7.133,-4 -0.7256,0 -2.3048,-2.96706 -3.5094,-6.59348 -2.044,-6.15409 -2.0349,-7.37381 0.1356,-18.3033 1.6599,-8.35775 3.2103,-12.59455 5.4162,-14.80046 1.6998,-1.69985 3.0906,-3.63283 3.0906,-4.29551 0,-2.16745 9.2535,-8.3232 11.3198,-7.5303 3.154,1.21032 2.3645,4.53862 -1.5302,6.45029 -4.4133,2.16631 -7.2172,6.47212 -4.7896,7.35529 1.8627,0.67765 2.2868,6.51015 0.5515,7.58265 -1.6613,1.02681 -2.5103,15.04634 -1.1291,18.64588 0.3872,1.00893 3.409,2.75612 6.7151,3.88262 6.4243,2.18894 20.4204,11.14538 24.8547,15.90502 2.9449,3.16104 2.5562,6.81752 -1.1315,10.64522 -2.064,2.14232 -2.4705,2.14351 -6.8607,0.0201 z m -241.9722,-1.61245 c -6.7038,-4.39763 -9.169,-9.9017 -8.8031,-19.65496 0.1833,-4.88536 1.2192,-6.71204 7.7712,-13.7034 4.158,-4.43667 8.1848,-9.94392 8.9487,-12.23836 1.4504,-4.3567 6.289,-8.64572 10.5432,-9.34557 3.3798,-0.556 8.6569,6.31278 6.504,8.46571 -0.844,0.84391 -3.3204,1.4836 -5.5032,1.42154 -2.7176,-0.0773 -4.5384,0.80404 -5.7755,2.79533 -3.0097,4.8446 -7.9567,20.48892 -7.4869,23.67672 0.6756,4.58579 4.6718,4.25057 7.698,-0.64573 1.461,-2.36406 3.8548,-5.38274 5.3193,-6.70819 1.7415,-1.57596 2.6052,-3.94692 2.496,-6.85144 -0.2024,-5.38253 2.1723,-8.56319 6.3931,-8.56319 4.5569,0 7.095,4.78603 6.9061,13.02246 -0.1359,5.91657 0.3996,7.60781 3.4,10.73961 4.5732,4.77329 4.6939,9.96053 0.2787,11.97223 -3.6872,1.68004 -11.384,-0.21912 -11.384,-2.809 0,-0.81428 -2.6842,1.15374 -5.9647,4.37338 -5.082,4.98755 -6.8429,5.89091 -11.8989,6.10396 -3.7406,0.15762 -7.2308,-0.60057 -9.442,-2.0511 z m 141.5502,-1.40694 c -1.6101,-2.2987 -2.0385,-2.40506 -2.7037,-0.67136 -1.1427,2.97774 -4.1015,2.5382 -8.644,-1.2841 -3.0761,-2.5884 -4.1324,-4.77306 -4.6736,-9.66667 -0.3845,-3.47736 -1.0925,-8.15235 -1.5735,-10.38887 -1.118,-5.20029 7.5746,-24.63388 13.7988,-30.84966 6.4299,-6.42102 9.2283,-6.81581 13.4286,-1.89449 1.9452,2.27914 4.8345,4.14389 6.4208,4.14389 5.0581,0 7.0298,4.80926 7.0912,17.29668 0.041,8.45062 0.6937,12.5682 2.54,16.03665 1.3662,2.56667 2.991,4.50608 3.6108,4.3098 0.6196,-0.19628 1.3093,2.01516 1.5325,4.91431 0.3193,4.14816 -0.1581,5.57292 -2.2408,6.68754 -2.0141,1.07792 -3.1239,0.93908 -4.6439,-0.58096 -1.0985,-1.09854 -2.5674,-1.99736 -3.2642,-1.99736 -1.1459,0 -2.5708,-2.90293 -4.7994,-9.77754 -1.3093,-4.03884 -4.0741,-1.70654 -4.8652,4.10401 -1.2185,8.95037 -7.587,14.51152 -11.0144,9.61813 z m -4.6669,-6.90016 c -0.9567,-0.95674 -1.5777,-1.03546 -1.5777,-0.2 0,1.77971 1.5768,3.35652 2.4666,2.46667 0.379,-0.37888 -0.021,-1.39888 -0.8889,-2.26667 z m 9.6371,-7.81341 c 1.8985,-2.25625 3.4518,-5.22085 3.4518,-6.58797 0,-1.36712 0.6,-2.8565 1.3334,-3.30972 1.4758,-0.91211 1.8596,-7.33334 0.4382,-7.33334 -0.4922,0 -1.879,0.89058 -3.0817,1.97906 -1.6219,1.46773 -3.2404,1.6769 -6.2644,0.80962 -5.7332,-1.64425 -8.2495,1.42428 -6.8179,8.31428 2.293,11.03635 5.3634,12.75616 10.9406,6.12807 z m -0.7899,-25.09633 c 0.3935,-4.0056 0.2204,-4.21708 -2.3333,-2.8504 -2.6859,1.43741 -3.6866,5.34305 -1.8416,7.18793 1.8544,1.85436 3.7613,-0.12693 4.1749,-4.33753 z M 1486,284.00001 c 0.4532,-0.73334 0.1887,-1.33334 -0.588,-1.33334 -0.7765,0 -1.412,0.6 -1.412,1.33334 0,0.73333 0.2645,1.33333 0.588,1.33333 0.3233,0 0.9588,-0.6 1.412,-1.33333 z m 128.8295,41.27048 c -3.0271,-2.52132 -3.1278,-3.13167 -2.2243,-13.48911 0.5205,-5.96656 1.4983,-12.30004 2.1729,-14.07441 0.9082,-2.38887 0.6915,-3.76122 -0.8353,-5.28798 -3.1153,-3.1154 -1.5815,-5.14036 3.5227,-4.65014 8.2888,0.79606 8.5849,1.75177 7.9212,25.56449 -0.4151,14.88905 -3.2139,18.05357 -10.5572,11.93715 z m -121.4962,-6.68251 c 0,-0.77661 0.6,-1.0412 1.3334,-0.58797 0.7333,0.45322 1.3333,1.08864 1.3333,1.41202 0,0.32339 -0.6,0.58798 -1.3333,0.58798 -0.7334,0 -1.3334,-0.63542 -1.3334,-1.41203 z m 80.2344,-42.57012 c -4.838,-4.41879 -6.8454,-10.39014 -4.0814,-12.14055 1.0158,-0.6434 2.147,-1.16044 2.5137,-1.149 1.3833,0.0432 9.3333,11.62131 9.3333,13.59285 0,3.68314 -3.5529,3.54437 -7.7656,-0.3033 z m 45.9723,-2.45618 c -1.2137,-1.34108 -2.2067,-3.44108 -2.2067,-4.66666 0,-1.22559 -0.9,-2.22835 -2,-2.22835 -2.1462,0 -2.4346,-1.57545 -1.1596,-6.33333 0.5486,-2.04708 1.8134,-3 3.9818,-3 1.7478,0 3.1778,0.66997 3.1778,1.48884 0,0.83562 1.1776,1.18089 2.6842,0.78693 3.7309,-0.97565 5.2078,2.44297 4.3486,10.06569 -0.6116,5.42635 -1.1326,6.3252 -3.6662,6.3252 -1.6243,0 -3.9463,-1.09724 -5.1599,-2.43832 z"
       id="path451" />
  </g>
</svg>
