<?xml version="1.0" encoding="UTF-8" standalone="no"?>
<!-- Created with Inkscape (http://www.inkscape.org/) -->

<svg
   version="1.1"
   id="svg76"
   width="3417.3333"
   height="1305.3333"
   viewBox="0 0 3417.3333 1305.3333"
   sodipodi:docname="stack2.png"
   inkscape:version="1.2.2 (b0a8486, 2022-12-01)"
   xmlns:inkscape="http://www.inkscape.org/namespaces/inkscape"
   xmlns:sodipodi="http://sodipodi.sourceforge.net/DTD/sodipodi-0.dtd"
   xmlns="http://www.w3.org/2000/svg"
   xmlns:svg="http://www.w3.org/2000/svg">
  <defs
     id="defs80" />
  <sodipodi:namedview
     id="namedview78"
     pagecolor="#ffffff"
     bordercolor="#000000"
     borderopacity="0.25"
     inkscape:showpageshadow="2"
     inkscape:pageopacity="0.0"
     inkscape:pagecheckerboard="0"
     inkscape:deskcolor="#d1d1d1"
     showgrid="false"
     inkscape:zoom="0.18079674"
     inkscape:cx="1183.6496"
     inkscape:cy="666.49431"
     inkscape:window-width="2048"
     inkscape:window-height="1189"
     inkscape:window-x="0"
     inkscape:window-y="926"
     inkscape:window-maximized="0"
     inkscape:current-layer="g82" />
  <g
     inkscape:groupmode="layer"
     inkscape:label="Image"
     id="g82">
    <path
       style="fill:#000000;stroke-width:1.33333"
       d="m 2694.7474,1219.865 c -1.7889,-0.7146 -4.8541,-0.9475 -6.8117,-0.5176 -1.9771,0.4342 -6.1615,-0.1911 -9.414,-1.4069 -11.7733,-4.4008 -11.8551,-4.4791 -11.8551,-11.3565 0,-6.5033 -1.2101,-7.9174 -6.7757,-7.9174 -2.0341,0 -2.5576,0.9552 -2.5576,4.6667 0,4.207 -0.3612,4.6647 -3.6667,4.6463 -6.6933,-0.037 -7.3522,-1.3156 -6.3256,-12.2717 0.7314,-7.8039 0.4844,-10.8445 -1.1349,-13.9759 -2.1405,-4.1395 -1.0439,-7.0654 2.6485,-7.0654 2.9084,0 3.3148,-2.4712 1.1082,-6.7386 -1.7287,-3.3428 -1.8578,-4.9717 -0.6635,-8.3725 2.2791,-6.4898 3.3655,-24.3206 1.5501,-25.4425 -1.0162,-0.6281 -1.5206,-7.1749 -1.5298,-19.8584 -0.013,-10.4067 -0.6016,-25.8213 -1.3202,-34.2546 -2.1857,-25.6549 -2.8064,-57.4918 -3.2493,-166.66669 -0.3747,-92.3644 -0.6847,-105.65244 -2.6377,-113.05353 -1.2172,-4.61277 -1.8771,-10.31277 -1.4662,-12.66667 2.1935,-12.56769 2.5691,-88.6081 0.4882,-98.83226 -0.7591,-3.72948 -1.629,-17.88087 -1.9332,-31.44753 -0.3043,-13.56667 -0.8647,-28.56667 -1.2454,-33.33334 -0.3808,-4.76666 -0.6765,-9.41666 -0.6573,-10.33333 0.048,-2.29777 0.091,1.25579 -0.7432,-62.07864 -0.6087,-46.24037 -0.4163,-57.48592 1.0133,-59.22357 1.1354,-1.37996 1.8407,-6.46381 1.9779,-14.25469 0.1173,-6.66038 0.7173,-16.30976 1.3333,-21.44309 1.0342,-8.61628 -0.1213,-18.88448 -2.3248,-20.66667 -3.226,-2.60893 -4.6977,-22.03644 -3.4341,-45.33333 0.6165,-11.36667 1.2488,-25.16667 1.4051,-30.66667 0.1562,-5.5 1.2201,-13.91156 2.3642,-18.69237 1.5871,-6.63163 1.7883,-10.58287 0.8486,-16.66667 -0.6775,-4.38585 -1.4951,-16.07429 -1.817,-25.97429 -0.3218,-9.9 -0.9541,-22.35649 -1.4048,-27.68109 -0.4508,-5.32462 -0.1266,-14.41622 0.719,-20.20356 1.4624,-10.00103 2.0309,-60.32737 1.1586,-102.55681 -0.3573,-17.29768 -0.6473,-19.29681 -3.0613,-21.09958 -3.6507,-2.72634 -14.1273,-1.27815 -21.3424,2.95018 -3.0572,1.79164 -6.8856,3.25753 -8.5076,3.25753 -1.622,0 -4.5699,0.83816 -6.5509,1.86259 -1.9811,1.02441 -6.9968,2.28674 -11.1462,2.80517 -6.9781,0.87188 -7.6668,0.71355 -9.1781,-2.11035 -1.4452,-2.70047 -1.2145,-3.41356 1.9977,-6.17665 2.7856,-2.39603 4.6134,-2.94216 7.8462,-2.34433 3.0024,0.55521 7.0478,-0.39259 14.0646,-3.29518 5.4176,-2.24102 11.4476,-4.07458 13.4,-4.07458 1.9526,0 4.12,-0.52752 4.8167,-1.17227 0.6967,-0.64474 3.4303,-1.86275 6.0747,-2.70668 5.8085,-1.85378 9.743,-0.61351 17.2877,5.44953 4.8572,3.90338 5.2717,4.74593 5.0875,10.33955 -0.1107,3.34943 0.2236,9.68987 0.7424,14.08987 0.5188,4.4 1.143,58.21885 1.3873,119.59745 0.2443,61.37861 0.8197,112.20523 1.2788,112.94806 0.4592,0.74283 0.7772,7.82397 0.7069,15.73588 -0.071,7.91189 -0.079,15.58527 -0.02,17.05193 0.2768,6.82886 -0.1642,32.33702 -0.83,48 -0.4052,9.53333 -0.5936,21.83333 -0.4186,27.33333 0.1749,5.5 0.2965,13 0.2702,16.66667 -0.2105,29.37993 -0.068,45.29685 0.4116,46.07336 0.3114,0.50365 0.6651,6.58201 0.7863,13.50745 0.1712,9.78806 -0.2751,13.34782 -2.0047,15.98752 -3.2508,4.9613 -3.7318,31.42545 -1.5537,85.48081 1.274,31.6183 2.3099,45.64522 3.4744,47.04842 1.27,1.53025 1.3956,6.28882 0.5356,20.28418 -1.5839,25.77135 -0.8929,61.70705 1.6079,83.61825 1.1717,10.26667 2.1621,25.56667 2.2009,34 0.1884,40.98665 -0.6723,86.87877 -1.6963,90.44912 -0.82,2.85935 -0.5944,4.76828 0.7988,6.7574 3.221,4.59853 4.6004,17.02836 2.9694,26.75623 -0.8027,4.78716 -1.6628,11.40391 -1.9115,14.70391 -0.4831,6.41023 -0.4811,60.20153 0,68.00003 0.1591,2.5666 0.3919,6.9521 0.5172,9.7453 0.1345,2.999 0.7739,4.7413 1.5612,4.2547 0.7333,-0.4533 1.3684,-0.039 1.4112,0.9213 0.2428,5.4384 -0.2925,32.7998 -0.8417,43.0269 -0.353,6.5715 -0.025,14.9715 0.729,18.6666 0.7539,3.6952 1.5399,13.3185 1.7467,21.3852 0.4711,18.3769 3.2692,25.9225 9.6215,25.9459 2.2,0.01 5.5,-0.8529 7.3333,-1.9133 6.4355,-3.7224 7.0359,-3.8217 8.7699,-1.4503 1.375,1.8805 2.7978,2.1665 7.1336,1.434 2.9786,-0.5033 5.7544,-1.4628 6.1682,-2.1323 0.4164,-0.6696 3.0842,-1.2174 5.931,-1.2174 2.8468,0 5.5468,-0.6 6,-1.3333 1.6816,-2.7209 13.1602,-1.4833 18.2366,1.9662 8.446,5.7392 22.341,7.7343 26.6576,3.8278 1.7719,-1.6035 5.2603,-2.2651 12.7718,-2.4225 5.6837,-0.119 13.034,-0.9683 16.334,-1.8873 3.9708,-1.1059 11.7185,-1.4733 22.9088,-1.0864 9.8814,0.3417 17.4413,0.052 18.1901,-0.6967 0.8197,-0.8197 2.414,-0.6688 4.4245,0.4188 4.391,2.3751 26.28,2.4797 30.067,0.1437 2.484,-1.5324 4.5892,-1.4664 14,0.4393 6.092,1.2336 11.6762,2.7216 12.4096,3.3066 2.1437,1.7101 6.504,2.0289 8.6666,0.6336 1.1,-0.7097 5.9,-1.3661 10.6667,-1.4586 4.7667,-0.093 13.9711,-0.768 20.4541,-1.5009 11.1459,-1.26 12.1255,-1.161 18,1.8197 3.417,1.7337 6.7255,3.1547 7.3526,3.1578 0.6269,0 3.8081,1.8063 7.0693,4.0073 5.5703,3.7593 6.2861,3.9119 11.8171,2.5192 3.7509,-0.9445 6.1776,-2.3967 6.687,-4.0017 0.6399,-2.0161 2.0974,-2.5192 7.2978,-2.5192 3.5738,0 6.8689,0.6 7.3221,1.3333 1.23,1.9902 17.5245,1.6101 30.186,-0.7041 11.9635,-2.1866 21.1587,-5.5053 22.8803,-8.2578 0.5864,-0.9376 2.1584,-1.7048 3.4933,-1.7048 1.7421,0 2.8309,-1.5993 3.858,-5.6666 1.8755,-7.4284 3.3236,-23.6296 3.0092,-33.6667 -0.5656,-18.0494 -0.2165,-124.1849 0.6049,-183.99999 1.108,-80.67207 1.2836,-111.69384 0.9811,-173.33333 -0.1333,-27.13333 -0.116,-50.53333 0.039,-52 0.1546,-1.46667 -0.1804,-11.66666 -0.745,-22.66666 -1.3924,-27.13788 -2.7966,-64.52416 -2.59,-68.95748 0.093,-1.99328 -0.7017,-5.29328 -1.7658,-7.33334 -2.4892,-4.77214 -2.4443,-6.38377 0.2945,-10.56368 1.9608,-2.9926 2.2245,-7.49236 2.0789,-35.47409 -0.1066,-20.56156 -0.6728,-32.5529 -1.5789,-33.45908 -0.7763,-0.77678 -1.4119,-3.99233 -1.4119,-7.14566 0,-4.42335 0.4994,-5.73334 2.1852,-5.73334 1.8972,0 2.0547,-1.09828 1.1954,-8.33333 -0.5446,-4.58333 -0.9498,-10.13333 -0.9008,-12.33333 0.487,-21.83883 0.446,-22.41564 -1.677,-23.60374 -2.6672,-1.49261 -2.7152,-3.54641 -0.1493,-6.38173 1.7041,-1.88297 1.8011,-5.21889 0.6812,-23.43832 -3.3663,-54.76404 -5.0236,-98.34556 -4.7376,-124.57621 0.1719,-15.76666 0.4819,-28.96666 0.6888,-29.33333 0.4712,-0.83483 0.9811,-11.92065 1.8292,-39.76948 0.5275,-17.32231 0.2612,-22.73095 -1.3036,-26.47603 -1.7787,-4.25706 -1.7509,-4.94473 0.2905,-7.2006 1.6643,-1.83889 2.0652,-3.92554 1.5263,-7.94341 -0.5469,-4.07761 -0.2335,-5.64024 1.2453,-6.20771 1.5392,-0.59068 1.9438,-3.1512 1.8292,-11.58056 -0.081,-5.95221 0.2343,-16.28233 0.7003,-22.95581 l 0.8473,-12.1336 4.5415,-1.78193 c 4.0243,-1.57899 4.5415,-2.3424 4.5415,-6.70313 0,-2.74782 -0.8834,-5.65427 -2,-6.58107 -2.9876,-2.47945 -2.461,-7.16384 0.9762,-8.68383 1.6371,-0.72389 3.6612,-2.70397 4.4983,-4.40017 0.8369,-1.69621 1.8976,-3.04621 2.3569,-3 1.2043,0.12107 1.1763,-0.17855 -0.4044,-4.33613 -1.9122,-5.02958 -1.8116,-7.98133 0.2396,-7.02517 0.9167,0.4273 2.6435,1.12816 3.8375,1.55745 3.8597,1.3878 6.6089,10.29466 4.1013,13.28785 -1.9676,2.34881 -4.0556,10.54633 -4.9073,19.26667 -0.4656,4.76666 -1.3557,9.86666 -1.978,11.33333 -3.1387,7.39765 -5.3516,37.29533 -4.3423,58.66666 0.2078,4.4 0.3483,9.2 0.3123,10.66667 -0.3155,12.82393 1.3409,91.5713 2.0093,95.52712 0.6572,3.89052 0.2711,5.84689 -1.6318,8.26609 -2.3516,2.98956 -2.4683,5.95876 -2.057,52.35471 0.2964,33.41509 -0.041,50.918 -1.0536,54.58912 -1.3198,4.78784 -1.082,6.42229 2.0883,14.34123 2.8443,7.10496 3.364,9.96112 2.5348,13.92963 -1.2628,6.04389 -1.1623,61.06643 0.1456,79.73731 0.7547,10.77148 0.5403,14.18398 -1.0885,17.33373 -2.6364,5.09828 -3.4248,35.39608 -1.2131,46.61593 0.9195,4.66475 1.3603,14.78627 1.0519,24.15897 -0.3326,10.1092 0.4701,26.52375 2.1501,43.97179 1.4744,15.31256 2.5783,31.62448 2.4528,36.2487 -0.1253,4.62423 1.0449,14.80884 2.6005,22.63247 3.0007,15.09088 5.3018,35.82935 4.289,38.65303 -0.3342,0.93125 -1.8887,1.58793 -3.4546,1.4593 -8.4536,-0.6944 -7.7693,-5.9831 -7.7418,59.84752 0.032,76.3732 -0.013,73.24489 1.1981,89.66667 1.1745,15.96621 -0.2396,61.15802 -2.5032,80.00002 -1.6032,13.3451 -1.8463,68.2397 -0.422,95.3333 1.348,25.6446 1.0716,31.3771 -1.6075,33.3361 -2.069,1.5129 -2.1134,1.978 -0.3872,4.0594 1.4246,1.7175 1.9194,5.7034 1.8368,14.7957 -0.093,10.2395 -0.5605,12.9397 -2.6389,15.2362 -2.3716,2.6207 -2.3851,2.8701 -0.2204,4.0815 1.2681,0.7096 2.3056,2.1605 2.3056,3.224 0,1.0636 0.9188,1.9338 2.0419,1.9338 1.1229,0 2.425,1.05 2.8936,2.3333 0.4685,1.2833 1.9496,3.7643 3.2914,5.5131 3.8974,5.0796 3.1188,5.8899 -4.5602,4.7469 -3.85,-0.573 -11.2,-1.2025 -16.3334,-1.3988 -5.1333,-0.1963 -14.1333,-1.3547 -20,-2.5743 -11.9746,-2.4894 -23.0856,-1.9628 -28.1149,1.3325 -3.2827,2.1509 -5.4556,2.3406 -46.246,4.0372 -10.0985,0.42 -19.9985,1.4131 -22,2.2069 -2.0015,0.7937 -12.0669,1.7528 -22.3676,2.1311 -16.4744,0.6052 -19.2828,0.3923 -23.3333,-1.7689 -5.652,-3.0156 -25.106,-3.4628 -28.4892,-0.655 -2.2662,1.8808 -2.6518,1.8952 -46.1156,1.7254 -45.7943,-0.1789 -68.9815,0.568 -73.311,2.3613 -4.757,1.9704 -30.6577,0.237 -50.7509,-3.3965 -5.2877,-0.9562 -8.87,1.7207 -7.4065,5.5345 0.6425,1.6745 1.876,1.9665 5.4637,1.2934 5.1511,-0.9663 10.0047,0.9539 10.0047,3.9581 0,2.2299 -4.3178,2.4561 -9.2526,0.4848 z m 1.2971,-17.9187 c 1.4137,-1.7035 3.5452,-1.8815 12.4967,-1.0437 18.8953,1.7685 39.6417,1.2457 44.1254,-1.1119 3.3988,-1.7872 7.3066,-1.9649 26,-1.1819 12.1,0.5067 25,0.5771 28.6667,0.1563 3.6667,-0.4208 11.4667,-0.3628 17.3333,0.1288 19.0058,1.5929 30.847,1.2987 32.5967,-0.8097 0.8745,-1.0537 4.998,-2.3261 9.1633,-2.8277 4.1654,-0.5016 9.5872,-1.7356 12.0487,-2.7422 4.272,-1.7472 4.7851,-1.6226 11.2985,2.7431 5.028,3.37 7.2711,4.2018 8.5248,3.1613 1.9282,-1.6002 2.1846,-4.9263 0.5752,-7.4625 -0.9452,-1.4896 -19.1434,-3.4574 -28.8738,-3.1222 -41.3983,1.4264 -120.608,2.09 -145.6667,1.2204 -5.6833,-0.1972 -17.2333,-0.1378 -25.6667,0.1321 -8.4333,0.2699 -19.0746,0.042 -23.6476,-0.5068 -7.2476,-0.8696 -8.4292,-0.6979 -9.2104,1.3379 -0.4929,1.2846 -0.2014,3.4479 0.6476,4.8075 0.8491,1.3596 1.5438,3.3448 1.5438,4.4116 0,4.1438 24.8608,6.5458 28.0445,2.7095 z m -816.5283,9.6856 c -2.0829,-1.523 -2.4158,-4.6415 -2.8133,-26.3464 -0.2479,-13.5404 -0.7572,-25.5189 -1.1319,-26.6189 -0.3745,-1.1 -1.0413,-9.18 -1.4817,-17.9557 -0.8259,-16.4568 -2.4149,-21.834 -3.9827,-13.4772 -0.4917,2.6215 -1.3633,4.7663 -1.9369,4.7663 -0.5735,0 -0.906,5.25 -0.7391,11.6666 0.167,6.4167 0.3634,16.6316 0.4364,22.6997 0.128,10.6115 0.2659,11.0835 3.6112,12.3554 2.8828,1.0961 3.1972,1.6611 1.8367,3.3004 -0.9028,1.0878 -2.2313,1.9779 -2.9524,1.9779 -0.7209,0 -3.0911,1.4978 -5.2667,3.3285 -3.3848,2.8481 -4.3748,3.0979 -6.8592,1.7307 -3.9876,-2.1947 -59.049,-3.584 -65.1608,-1.6442 -1.5584,0.4946 -9.188,1.0602 -16.9546,1.2568 -7.7667,0.1967 -16.2212,0.7397 -18.7879,1.2067 -2.5667,0.467 -10.9667,0.3579 -18.6667,-0.2426 -7.7,-0.6004 -21.5,-0.6185 -30.6666,-0.04 -9.1667,0.5783 -17.8667,1.1111 -19.3333,1.1841 -1.4667,0.073 -6.2667,-0.5317 -10.6667,-1.3436 -8.1475,-1.5034 -42.0921,-2.0345 -55.2668,-0.8646 -3.9968,0.3549 -7.8968,0.206 -8.6667,-0.3309 -0.77,-0.537 -9.7998,-0.6263 -20.0665,-0.1986 -10.2667,0.4278 -22.1747,0.3306 -26.4624,-0.2158 -4.8952,-0.6239 -13.0804,-0.2901 -22,0.8973 -7.8123,1.0401 -17.1617,1.9027 -20.7763,1.917 -3.6146,0.014 -8.525,0.7323 -10.9122,1.5955 -3.4318,1.2409 -4.7772,1.2068 -6.428,-0.1633 -2.9747,-2.4688 -2.7082,-3.1279 3.1766,-7.8571 4.9427,-3.972 6.226,-4.3095 21,-5.5225 8.6546,-0.7106 18.933,-2.2445 22.8407,-3.4088 3.9079,-1.1642 8.7079,-1.7995 10.6667,-1.4118 4.752,0.9407 40.38,2.4267 70.8949,2.957 13.5667,0.2358 26.1667,0.515 28,0.6205 1.8333,0.1055 14.4333,-0.1868 28,-0.6496 37.2734,-1.2716 128.4872,-1.7189 141.3333,-0.6932 6.2333,0.4978 14.4833,0.5933 18.3333,0.2123 6.8216,-0.675 7,-0.8001 7,-4.9061 0,-2.3175 0.6556,-4.8691 1.4568,-5.6704 0.9358,-0.9357 1.0232,-2.3427 0.2447,-3.9333 -0.6668,-1.3621 -1.0792,-6.3765 -0.9165,-11.1431 0.3301,-9.6756 0.4701,-36.0672 0.2616,-49.3334 -0.1875,-11.9272 1.4568,-19.8187 4.4648,-21.4286 1.696,-0.9077 2.4278,-2.6831 2.3152,-5.616 -0.091,-2.3588 0.5674,-12.5984 1.4625,-22.7547 1.1555,-13.1118 1.2259,-20.0706 0.2428,-24 -1.4197,-5.6747 -0.8715,-15.4567 1.1323,-20.2007 0.6194,-1.4666 1.4461,-7.50569 1.837,-13.42006 0.3908,-5.91437 1.2942,-12.28819 2.0074,-14.16404 0.8689,-2.28545 0.8356,-3.87174 -0.1014,-4.80841 -0.9098,-0.90983 -1.2772,-11.32539 -1.0525,-29.83596 0.19,-15.641 0.4421,-48.53817 0.5604,-73.10484 0.1532,-31.82482 0.6844,-45.76917 1.8475,-48.5014 2.824,-6.63428 4.826,-72.23434 3.0772,-100.83193 -0.8296,-13.56666 -1.8992,-32.37893 -2.3767,-41.80505 -0.7773,-15.34131 -1.1967,-17.52852 -3.9992,-20.85913 -3.324,-3.95036 -4.2783,-12.57672 -1.8828,-17.02058 4.1244,-7.65125 7.2549,-94.81233 4.8481,-134.9819 -0.3734,-6.23333 -1.5212,-28.13333 -2.5505,-48.66667 -1.1371,-22.6817 -2.6625,-40.47295 -3.8872,-45.33333 -1.1087,-4.4 -2.3708,-17.3 -2.8047,-28.66666 -0.434,-11.36667 -1.3893,-23.06667 -2.1232,-26 -0.7337,-2.93334 -1.3164,-20.95488 -1.2945,-40.04789 0.021,-19.093 -0.5561,-38.593 -1.2844,-43.33334 -0.7283,-4.74032 -1.3297,-13.11877 -1.3367,-18.61877 -0.013,-5.5 -0.7162,-14.5 -1.5761,-20 -3.0451,-19.47592 -3.2536,-22.14116 -2.7903,-35.66667 0.4359,-12.72779 0.6555,-13.66666 3.1962,-13.66666 4.1438,0 6.266,3.92175 6.3129,11.66666 0.032,5.16726 0.5425,7 1.9525,7 2.1735,0 4.0371,-4.59473 2.7248,-6.71802 -0.4788,-0.77471 -0.1768,-4.30049 0.6712,-7.83509 1.0784,-4.49562 2.5154,-6.94767 4.7824,-8.16095 1.7824,-0.95392 3.5482,-1.42704 3.9238,-1.05139 0.3757,0.37567 0.1684,5.42656 -0.4607,11.22424 -0.6291,5.79767 -0.6585,12.25667 -0.065,14.35333 0.5928,2.09667 1.1745,17.99667 1.2926,35.33334 0.1174,17.33666 0.3954,36.54941 0.6163,42.695 0.2209,6.14558 0.5975,20.39306 0.8367,31.66109 0.2393,11.26801 0.8226,20.4898 1.2962,20.49286 1.4331,0.009 2.5007,18.81872 3.1407,55.33892 0.6437,36.73206 1.482,58.68187 2.7623,72.33333 0.5512,5.87854 0.3262,8.33334 -0.764,8.33334 -0.9862,0 -1.263,1.32666 -0.7647,3.66666 4.0937,19.22806 8.2516,198.49977 5.7133,246.33333 -0.5058,9.53333 -1.5557,29.17773 -2.3329,43.65421 -0.99,18.43982 -0.9932,29.41863 -0.013,36.66667 0.771,5.69019 1.5452,18.44579 1.7201,28.34579 0.2972,16.8187 0.1227,18.2625 -2.6641,21.99999 -3.8356,5.14452 -4.411,14.28036 -4.1144,65.33334 0.2801,48.22624 0.297,46.58617 -0.9735,94.00004 -1.5857,59.1765 -1.0997,107.9118 1.1119,111.4902 0.6156,0.9959 2.7613,56.218 2.4549,63.1764 -0.8696,19.7481 -2.7815,25.5956 -7.2903,22.2986 z m -8.044,-112.6042 c -1.3553,-1.3553 -2.4737,0.6852 -1.3617,2.4846 0.8401,1.3592 1.1541,1.3602 1.6059,0.01 0.3086,-0.9264 0.1989,-2.0469 -0.2442,-2.4899 z m 15.1944,-441.77308 c 0,-2.15672 -0.6,-3.9213 -1.3333,-3.9213 -0.7333,0 -1.3333,2.13541 -1.3333,4.74536 0,2.82404 0.5398,4.4117 1.3333,3.9213 0.7333,-0.45322 1.3333,-2.58864 1.3333,-4.74536 z m -1.7558,-10.83797 c -0.4256,-1.06364 -0.7416,-0.74771 -0.8056,0.80556 -0.057,1.40555 0.2573,2.19305 0.7004,1.75 0.443,-0.44305 0.4904,-1.59307 0.1053,-2.55556 z m -15.5775,-417.60734 c 0,-12.87464 -0.3348,-15.31914 -2.1957,-16.03325 -1.979,-0.75939 -2.1162,0.44431 -1.3895,12.19068 0.7515,12.14793 1.8635,19.03325 3.074,19.03325 0.2812,0 0.5112,-6.83581 0.5112,-15.19068 z m -377.4976,950.61789 c -6.0649,-5.2168 -6.9949,-10.8404 -5.9601,-36.0393 0.5132,-12.4967 1.4527,-27.2213 2.0877,-32.7213 0.9338,-8.0878 0.7542,-10.8484 -0.9388,-14.4367 -1.7168,-3.6389 -1.9449,-7.5368 -1.2688,-21.6737 0.4535,-9.4802 1.423,-18.3548 2.1542,-19.7213 1.4821,-2.7692 1.0542,-52.7716 -0.4823,-56.36141 -0.5163,-1.20622 -0.3064,-7.86306 0.4663,-14.79297 2.0733,-18.59322 3.2362,-98.2879 1.5009,-102.85218 -1.44,-3.78735 -3.36,-52.11788 -2.5491,-64.16169 1.1818,-17.54876 -0.8733,-56.6231 -4.1724,-79.33334 -1.3202,-9.08821 -1.8354,-51.09609 -0.87,-70.93865 0.3624,-7.4462 0.06,-11.77346 -0.8428,-12.07449 -0.9824,-0.32748 -0.965,-2.25855 0.057,-6.39468 1.7286,-6.99236 2.4589,-41.22057 1.9466,-91.25884 -0.4652,-45.45272 -0.7484,-52.51102 -2.8618,-71.33333 -1.6075,-14.31589 -2.4454,-83.58385 -2.7018,-223.33333 -0.081,-44.42173 1.7287,-65.75716 5.882,-69.3327 2.0006,-1.72225 4.9595,-8.66959 3.6883,-8.65985 -0.5343,0.004 -3.0791,0.59298 -5.6551,1.30865 -2.576,0.71567 -8.276,1.84796 -12.6666,2.5162 -4.3907,0.66824 -11.2831,2.12385 -15.3164,3.23469 -4.0334,1.11086 -11.2339,2.42911 -16.0012,2.92947 -7.6658,0.80456 -9.0918,0.57639 -12.3334,-1.97345 -3.734,-2.93716 -4.6944,-5.89639 -2.3781,-7.32794 0.7081,-0.4376 6.2977,-1.08326 12.4216,-1.4348 6.1237,-0.35153 13.1944,-1.27234 15.7127,-2.04626 2.5181,-0.77391 7.8784,-1.92523 11.9117,-2.55848 4.0333,-0.63326 13.4796,-2.79796 20.9916,-4.81046 l 13.6581,-3.65909 3.3419,3.13943 c 3.2761,3.07782 4.5923,9.74432 2.214,11.21421 -1.5535,0.96005 -3.3552,26.36446 -3.1297,44.12705 0.1026,8.06667 0.1373,20.36667 0.077,27.33333 -0.2025,23.6324 0.099,26.81031 2.8825,30.34864 2.8522,3.62595 3.7414,15.47424 1.2756,16.99814 -0.7453,0.46061 -0.9785,1.44668 -0.5184,2.19124 0.4602,0.74457 0.9596,15.7031 1.11,33.24119 l 0.2735,31.88746 -3.4217,0.001 -3.4216,10e-4 -0.4155,69.66502 c -0.3312,55.52426 -0.7969,70.80122 -2.2941,75.26262 -1.905,5.67619 -1.9159,16.42667 -0.048,46.60787 0.6774,10.94426 0.4136,14.59976 -1.3771,19.07496 -1.6,3.99873 -1.9825,7.51546 -1.3775,12.66361 1.5883,13.5139 2.845,34.75301 2.7248,46.05594 -0.067,6.23334 -0.3697,30.67534 -0.6745,54.31556 -0.4355,33.77437 -0.1939,43.12049 1.1277,43.62767 1.0952,0.42025 1.6622,3.33402 1.6251,8.35112 -0.032,4.2381 0.5953,11.30565 1.3925,15.70565 1.6396,9.04979 1.6752,20.86021 0.076,25.13361 -0.59,1.57651 -0.7512,8.26639 -0.358,14.86639 0.786,13.19823 0.7742,12.03157 0.3528,34.68247 -0.1638,8.80869 0.04,17.50869 0.4538,19.33333 1.9389,8.55792 2.6998,62.56697 1.6902,119.9842 -0.8913,50.69112 0.3766,81.46542 3.4846,84.57332 1.9694,1.9696 2.3013,5.2494 2.3466,23.1936 0.029,11.4948 0.3243,22.9997 0.6563,25.5664 0.3319,2.5666 0.8007,7.3316 1.0417,10.5887 0.2411,3.2572 1.1435,6.1572 2.0054,6.4445 2.4148,0.8049 1.6718,9.83 -1.1772,14.3001 -3.943,6.1863 -4.8264,8.7453 -5.823,16.8649 -0.5976,4.8696 -1.8388,8.3593 -3.5118,9.8733 -1.6364,1.4809 -2.5951,4.1039 -2.608,7.1351 -0.031,7.2044 -1.3819,8.41 -5.4772,4.8873 z m 6.8127,-47.0939 c -0.024,-8.3375 -1.2887,-13.184 -2.8129,-10.7794 -1.3115,2.0689 -1.4908,9.7754 -0.3284,14.1127 1.384,5.1644 3.1604,3.2795 3.1413,-3.3333 z m -3.952,-45.7249 c 2.4291,-4.7615 2.5881,-6.2704 1.3604,-12.9115 -0.7645,-4.136 -1.4303,-7.8598 -1.4793,-8.2751 -0.2894,-2.4491 -3.6771,11.5567 -4.4519,18.4049 -1.0953,9.6819 0.5421,10.6784 4.5708,2.7817 z m -4.2905,-648.94174 c -0.1382,-6.41667 0.2493,-20.06667 0.861,-30.33334 1.2692,-21.30341 1.281,-23.70978 0.192,-39.58725 -0.437,-6.37299 -0.3441,-11.86564 0.2066,-12.20589 1.2042,-0.74412 0.8146,-28.21704 -0.8918,-62.87352 -0.686,-13.93333 -1.3288,-28.93333 -1.4284,-33.33333 -0.1534,-6.78052 -0.3853,-7.49188 -1.5209,-4.66667 -1.5944,3.96683 -1.6871,9.18357 -1.3617,76.66666 0.1378,28.6 0.2293,53.2 0.2032,54.66667 -0.027,1.46667 -0.1576,7.76667 -0.2922,14 -0.3701,17.15489 -0.2738,22.48107 0.5906,32.66667 0.4356,5.13333 0.8469,10.98333 0.9138,13 0.067,2.01666 0.7198,3.66666 1.4503,3.66666 0.8004,0 1.2287,-4.63832 1.0775,-11.66666 z M 1488.924,224.3587 c -0.3381,-1.29729 -0.6369,-0.55871 -0.6641,1.64129 -0.027,2.2 0.2494,3.26142 0.6146,2.35871 0.3654,-0.90271 0.3875,-2.70271 0.049,-4 z m 6.4855,-21.35493 c 1.1952,-1.63456 1.2897,-2.8279 0.317,-4 -1.9666,-2.36968 -3.4148,-2.07752 -5.0746,1.02378 -2.5852,4.83054 1.5226,7.4003 4.7576,2.97622 z M 571.41577,1171.1598 c -2.28302,-1.2673 -8.95878,-2.563 -16,-3.1056 -6.64535,-0.5121 -13.88244,-1.8573 -16.08244,-2.9894 -2.2,-1.1322 -7.52267,-2.4871 -11.82815,-3.0111 -4.30547,-0.5239 -10.27876,-1.8173 -13.27397,-2.874 -2.9952,-1.0568 -6.26576,-1.6068 -7.26791,-1.2222 -1.98936,0.7634 -12.98393,-1.4356 -16.47794,-3.2957 -5.45552,-2.9043 -41.99647,-5.0324 -58.48536,-3.4061 -4.76667,0.4702 -19.16667,1.13 -32,1.4665 -27.42519,0.7189 -28.19418,0.7956 -67.19224,6.7042 -3.58907,0.5438 -10.04863,2.6953 -14.35458,4.7812 -4.30594,2.0858 -8.67081,3.7924 -9.6997,3.7924 -1.0289,0 -3.70784,1.05 -5.95323,2.3333 -5.69372,3.2542 -8.91387,1.1126 -8.49208,-5.6478 l 0.30817,-4.9395 -6.30817,0.6982 c -3.46949,0.3841 -8.25127,1.1083 -10.62615,1.6094 -5.99636,1.2654 -7.3394,-2.3356 -2.62821,-7.0468 4.46563,-4.4657 15.43959,-6.0653 28.42085,-4.1429 7.99146,1.1835 10.12055,1.0691 13.60046,-0.7304 2.26918,-1.1734 5.20558,-2.1526 6.52533,-2.1759 1.31975,-0.023 3.56423,-0.9234 4.98772,-2 1.42349,-1.0767 3.85349,-1.9576 5.4,-1.9576 1.54651,0 3.38183,-0.5127 4.07849,-1.1393 1.09155,-0.9818 13.76168,-3.5674 29.93334,-6.1084 4.87697,-0.7663 41.25068,-2.6371 49.33333,-2.5374 2.56667,0.032 10.06667,0.6443 16.66667,1.3615 6.6,0.7171 12.2,0.8058 12.44444,0.197 0.24445,-0.6087 2.22876,-1.1068 4.40957,-1.1068 4.92835,0 12.67343,-1.8113 29.81265,-6.9723 11.86334,-3.5723 14.36234,-3.9 22.66667,-2.9721 5.13333,0.5735 14.51972,1.0957 20.85864,1.1603 12.60248,0.1285 17.65444,2.5378 16.86672,8.0439 -0.37759,2.6393 -1.27595,2.7483 -24.39203,2.9592 -22.33257,0.2038 -31.33333,1.4072 -31.33333,4.1894 0,2.7518 13.27523,6.7502 24.97347,7.5219 4.56874,0.3014 9.65225,1.4904 11.29667,2.6422 1.64443,1.1518 5.22096,2.0942 7.94784,2.0942 2.72688,0 5.32879,0.6 5.78202,1.3333 0.45322,0.7334 1.74796,1.3334 2.87718,1.3334 1.12923,0 4.12622,0.9837 6.65996,2.1861 3.5135,1.6672 6.69238,1.9913 13.39432,1.3654 13.72112,-1.2812 13.86126,-1.5431 13.62775,-25.4649 -0.10787,-11.0477 0.21619,-26.3866 0.72007,-34.0866 0.58314,-8.9113 0.1929,-22.7236 -1.07362,-38 -1.09437,-13.2 -1.77878,-31.5 -1.52092,-40.6667 0.25787,-9.1667 -0.09,-22.65781 -0.77304,-29.9803 -0.68304,-7.32251 -1.57477,-33.1225 -1.98164,-57.33333 -0.40686,-24.21084 -1.14082,-45.21969 -1.63104,-46.68636 -0.4902,-1.46667 -0.90802,-5.60941 -0.92849,-9.20611 -0.0204,-3.59669 -0.70129,-6.76806 -1.51296,-7.04748 -1.70624,-0.58737 -3.51421,16.35732 -3.72283,34.89108 -0.11866,10.53734 -0.43112,12.02922 -2.6097,12.45838 -1.36123,0.26814 -3.10891,-0.1464 -3.88374,-0.92123 -0.95074,-0.95075 -1.48065,-25.80896 -1.62988,-76.45837 -0.1216,-41.27728 -0.75988,-90.9496 -1.41837,-110.38293 -1.42673,-42.10493 -1.47547,-68.28747 -0.1874,-100.66667 0.52512,-13.2 1.33527,-33.6 1.80033,-45.33333 1.20912,-30.50512 1.17263,-95.707 -0.0813,-145.33333 -0.75545,-29.89788 -0.62895,-45.85886 0.42271,-53.33333 0.82545,-5.86667 1.76538,-16.96667 2.08874,-24.66667 0.32338,-7.7 1.17782,-19.18172 1.89878,-25.51494 0.72096,-6.33322 1.4078,-21.63321 1.52632,-34 0.28936,-30.19361 0.29762,-29.47584 -0.43535,-37.81839 -0.35436,-4.03333 0.24617,-15.13333 1.33452,-24.66666 3.37207,-29.53728 3.56123,-36.08667 1.21188,-41.95826 -2.26793,-5.66814 -1.80869,-8.40531 2.05921,-12.27322 3.40583,-3.40583 7.38172,-3.03357 10.86622,1.0174 2.67396,3.10865 4.29457,3.56019 16.26937,4.53288 7.31479,0.59417 14.98865,1.74051 17.05307,2.54743 2.0644,0.8069 6.94093,1.4671 10.83673,1.4671 7.84277,0 10.85248,2.12119 9.41884,6.6382 -1.46705,4.62227 -6.57252,7.06357 -12.98307,6.20817 -3.13094,-0.41778 -11.20556,-1.33817 -17.94357,-2.0453 -6.73801,-0.70715 -13.33801,-1.84559 -14.66667,-2.52988 -3.45277,-1.77828 -5.74906,-0.5455 -5.74906,3.08645 0,1.72449 -0.61443,4.75149 -1.36539,6.72668 -1.72168,4.52833 -4.05297,26.13197 -4.88292,45.24901 -1.41997,32.70751 -1.06071,98.63851 0.57397,105.33333 2.15727,8.83507 4.52958,56.5224 5.07423,102 0.58792,49.09177 -1.38007,86.91768 -5.52971,106.28447 -1.76193,8.22312 -3.20352,17.62466 -3.20352,20.8923 0,3.26765 -0.98268,9.73964 -2.18374,14.3822 -1.87727,7.25636 -2.04904,13.02565 -1.2239,41.10769 0.52792,17.96667 1.17123,36.86667 1.42955,42 1.53539,30.51007 2.22411,56.21857 2.07173,77.33333 -0.17576,24.3546 2.72018,84.46868 5.29912,110 1.49622,14.81225 1.66231,18.68577 1.48654,34.66667 -0.35294,32.0889 1.61734,62.66666 4.03796,62.66666 0.67034,0 2.1374,-2.19848 3.26012,-4.88552 1.56529,-3.74628 2.19657,-12.37413 2.70718,-37 0.36626,-17.66296 0.61092,-34.21448 0.54372,-36.78114 -0.71992,-27.49826 0.5985,-131.52664 1.75832,-138.73781 0.40652,-2.52754 1.06095,-13.59552 1.45427,-24.59552 0.39333,-11 1.33256,-26.9 2.08717,-35.33333 0.75462,-8.43334 1.543,-28.53334 1.75196,-44.66667 0.20896,-16.13333 0.9382,-30.83333 1.62054,-32.66667 0.68233,-1.83333 1.09233,-5.43333 0.9111,-8 -1.28244,-18.16346 -1.66968,-84.77303 -0.51213,-88.09355 0.91889,-2.63594 0.92468,-5.16034 0.0179,-7.76179 -1.2322,-3.53471 -2.07568,-19.28988 -3.0058,-56.14465 -0.19434,-7.7 -1.13239,-16.46152 -2.08456,-19.47004 -1.36354,-4.30832 -1.3895,-6.10855 -0.12227,-8.47648 2.97263,-5.55443 4.50008,-0.57949 5.60739,18.26341 0.59309,10.09237 1.35428,19.08056 1.69154,19.97373 0.33727,0.89319 0.0395,1.9786 -0.66188,2.41203 -1.63344,1.00952 -1.67557,8.63068 -0.0477,8.63068 0.67507,0 1.57408,1.65 1.99781,3.66667 0.61202,2.91285 1.3366,100.51716 0.80423,108.33333 -0.0749,1.1 0.25359,10.1 0.73,20 0.47643,9.9 0.84992,20.1 0.83,22.66666 -0.1316,16.96603 -1.5884,49.9164 -2.82944,64 -0.80775,9.16667 -1.77548,26.86667 -2.15048,39.33333 -0.37501,12.46667 -0.96015,31.66667 -1.30029,42.66667 -1.57898,51.06341 -2.08575,76.21952 -2.65912,132 -0.65663,63.87954 -1.3287,79.61859 -3.57932,83.82394 -2.32942,4.35258 -3.71504,39.54848 -2.84148,72.17608 0.57372,21.4286 0.34724,32.8621 -0.75182,37.9547 -0.86508,4.0084 -1.94217,13.7424 -2.39353,21.6311 -0.71968,12.5784 -0.54977,14.447 1.38104,15.1879 1.6316,0.6262 2.20168,2.5342 2.20168,7.3689 0,6.36 0.10053,6.524 4,6.524 3.49611,0 4,0.4723 4,3.7493 0,7.3757 -11.94304,12.8003 -19.25089,8.7439 z m 5.91756,-176.49316 c 0,-0.73333 -0.26459,-1.33333 -0.58798,-1.33333 -0.32338,0 -0.9588,0.6 -1.41202,1.33333 -0.45323,0.73333 -0.18864,1.33333 0.58797,1.33333 0.77661,0 1.41203,-0.6 1.41203,-1.33333 z m 2.40174,-10.26805 c 0.27872,-3.74244 -0.18437,-5.61905 -1.51241,-6.12867 -1.39485,-0.53525 -2.14465,0.70692 -2.76377,4.57865 -0.46728,2.92226 -0.48172,5.90847 -0.0321,6.63602 1.69426,2.74134 3.92108,0.11253 4.30826,-5.086 z M 564.4733,462.99999 c 0.80439,-10.32981 0.78081,-8.69863 0.31305,-21.66667 -0.55176,-15.29685 -2.18982,-28 -3.61058,-28 -1.09882,0 -1.08532,12.70535 0.0584,55 0.19798,7.3214 2.55602,3.4388 3.23913,-5.33333 z m 0.0683,-56.97652 c 0.79577,-3.17059 -0.37171,-14.63785 -1.38691,-13.62265 -0.26959,0.2696 -0.79971,4.18969 -1.17805,8.71133 -0.68188,8.14937 0.96217,11.29735 2.56496,4.91132 z m 2175.7193,731.03743 c -1.8612,-1.8613 -2.1627,-9.0609 -0.3793,-9.0609 1.1661,0 2.6616,-11.8032 2.6769,-21.1286 0.013,-4.7137 -2.8589,-17.0173 -4.9185,-21.1099 -0.672,-1.3355 -1.1107,-8.4282 -0.9747,-15.7615 0.3567,-19.2326 0.3728,-19.3359 3.0013,-19.3129 5.1156,0.045 6.0035,2.0542 6.554,14.8329 0.2956,6.864 1.0854,14.58 1.755,17.1466 5.1797,19.8571 5.6889,22.9721 4.8806,29.8497 -0.469,3.9912 -1.1849,8.1221 -1.5908,9.1797 -0.4802,1.2516 0.6566,2.5004 3.2564,3.5773 3.2875,1.3617 5.7184,1.2674 13.7363,-0.5329 28.2239,-6.3374 35.8827,-6.9583 50.9663,-4.1319 8.3164,1.5584 12.2373,1.7964 13.2306,0.8031 1.6988,-1.6988 6.2116,-1.8824 6.2116,-0.2527 0,0.6373 2.235,1.5215 4.9667,1.9648 3.6257,0.5884 5.2636,0.2755 6.0663,-1.1589 1.4442,-2.5807 4.8365,-2.4963 7.8097,0.1944 3.482,3.1512 14.4907,1.4487 14.4907,-2.2409 0,-3.2487 0.8446,-3.2293 10.095,0.2318 4.5504,1.7025 11.5587,2.9821 17.7167,3.2348 5.6036,0.23 12.8883,1.0406 16.1883,1.8013 5.8725,1.3537 6.0924,1.283 10.3536,-3.3312 l 4.3534,-4.7142 4.7167,2.915 c 2.594,1.6033 5.0653,2.5662 5.4916,2.1399 0.4263,-0.4263 2.2756,0.4053 4.1097,1.8479 4.7086,3.7038 12.7194,3.5221 15.2882,-0.3467 1.5134,-2.2793 3.2621,-2.9697 7.5224,-2.9697 4.2881,0 5.3825,-0.4375 4.8122,-1.9237 -0.406,-1.058 0.032,-2.4035 0.9736,-2.99 2.2228,-1.3845 1.6086,-36.359 -0.7097,-40.4178 -1.0035,-1.7568 -1.4356,-8.192 -1.2129,-18.0624 0.1902,-8.4333 0.4626,-20.4333 0.6056,-26.6667 0.3449,-15.0544 -0.964,-28.915 -2.9576,-31.31713 -1.3999,-1.68666 -2.1007,-1.69478 -5.2602,-0.0609 -2.8382,1.46763 -9.9661,1.85143 -32.1992,1.73353 -20.4474,-0.1084 -30.0521,0.348 -33.8305,1.6078 -3.0641,1.0217 -10.3316,1.6725 -17.3333,1.5522 -31.113,-0.5347 -50.0054,-0.1026 -56.7236,1.2972 -7.5571,1.5746 -30.8247,0.9404 -56,-1.5262 -6.9667,-0.6826 -15.8607,-1.5143 -19.7644,-1.8483 -3.9038,-0.3339 -7.9538,-1.3176 -9,-2.18588 -2.5094,-2.08253 -2.4426,-6.58555 0.097,-6.58555 1.1,0 2,-0.6 2,-1.33333 0,-1.65289 9.8489,-1.67867 21.3333,-0.0559 20.9418,2.95923 50.5664,4.26715 58.3598,2.57659 5.0064,-1.08603 18.0784,-1.59199 37.9192,-1.46768 23.6577,0.14821 31.2824,-0.2296 34.868,-1.7278 7.9472,-3.32051 38.9305,-5.134 56.853,-3.32767 3.3,0.33259 10.3842,-0.23301 15.7426,-1.25688 l 9.7426,-1.8616 3.4418,3.44174 c 4.3113,4.3114 5.6474,14.43316 2.6568,20.12696 -1.81,3.4459 -1.7366,4.4659 0.8282,11.5083 2.6683,7.3264 2.7195,8.3405 0.9872,19.5522 -2.3358,15.1189 -2.0901,30.8614 0.5614,35.9457 1.4385,2.7585 2.0254,7.9978 2.0312,18.1339 0,8.0555 0.5881,14.6131 1.3416,15.0787 3.4845,2.1536 0,17.3406 -4.2338,18.4475 -1.3381,0.3499 -2.4329,1.7878 -2.4329,3.1953 0,1.4075 -1.35,3.8045 -3,5.3266 -2.598,2.3967 -4.2505,2.6885 -12.3333,2.1774 -5.1334,-0.3245 -12.9334,-1.2519 -17.3334,-2.0609 -4.4,-0.809 -10.1,-1.3774 -12.6666,-1.2633 -2.5667,0.1141 -27.4667,0.3857 -55.3334,0.6034 -45.1946,0.3532 -51.7377,0.1356 -60.5844,-2.015 -12.0369,-2.9261 -15.8196,-2.9578 -32.0822,-0.2685 -32.2604,5.3347 -45.479,6.512 -47.7391,4.2518 z m -2488.18642,-8.2551 c -1.7114,-3.1978 -1.6507,-4.8093 0.74336,-19.7344 0.50985,-3.1786 -0.0249,-7.0639 -1.50599,-10.9421 -1.67427,-4.384 -2.12476,-8.4678 -1.66255,-15.0714 0.58166,-8.31 -0.81762,-31.0776 -2.40046,-39.0579 -0.84563,-4.2635 -2.43395,-28.7467 -2.20571,-34 0.64319,-14.80388 2.67419,-28.12988 5.12376,-33.61848 1.57416,-3.52712 1.67747,-7.18289 0.58397,-20.66666 -0.73066,-9.00986 -1.40456,-24.66771 -1.49756,-34.79524 -0.16669,-18.15466 -0.2142,-18.43084 -3.37785,-19.63366 -3.20459,-1.21838 -3.20911,-1.25016 -3.45731,-24.25298 -0.13668,-12.66815 -0.37534,-25.133 -0.53036,-27.69967 -0.15502,-2.56666 0.17442,-9.91306 0.73207,-16.32534 0.55767,-6.41227 0.53061,-13.91227 -0.0601,-16.66667 -0.59072,-2.75439 -1.69799,-8.00799 -2.46059,-11.67465 -1.95623,-9.40568 -4.91571,-56.20286 -4.51117,-71.33334 1.02553,-38.35666 1.07477,-51.79901 0.2051,-55.99999 -0.53133,-2.56667 -1.30144,-10.66667 -1.71133,-18 -0.66627,-11.91994 -2.83381,-41.73723 -4.07089,-56 -1.11003,-12.79807 -0.56126,-47.26896 0.81538,-51.21801 1.01707,-2.91754 1.18172,-11.25496 0.52372,-26.51871 -1.91428,-44.40596 -0.76245,-81.13828 2.58455,-82.42265 2.11113,-0.81012 1.06161,-47.09883 -1.33704,-58.96936 -0.54137,-2.6792 -1.124,-17.77127 -1.29472,-33.53793 -0.17072,-15.76667 -0.66225,-37.89616 -1.09229,-49.17664 -0.55647,-14.59687 -0.32799,-21.32396 0.79249,-23.33333 0.89643,-1.60759 1.96828,-12.00972 2.48915,-24.1567 0.50313,-11.73333 1.33594,-23.22188 1.85069,-25.53012 0.86633,-3.88474 0.63265,-4.26338 -3.14281,-5.09262 -2.4186,-0.53122 -7.49527,0.007 -12.4727,1.32082 -11.15954,2.94702 -30.36657,4.12399 -34.16088,2.09332 -4.05289,-2.16902 -3.72408,-7.28276 0.6916,-10.75613 3.29279,-2.59011 4.61618,-2.74972 15.91919,-1.92003 11.03297,0.80987 12.90084,0.60626 17.78304,-1.93849 3.00037,-1.56388 7.68673,-2.84676 10.41415,-2.85085 2.72742,-0.004 7.22956,-0.63798 10.00473,-1.40864 8.85917,-2.46019 14.17097,1.76341 9.16831,7.29002 -3.98747,4.40508 -4.72612,11.36196 -4.6851,44.12606 0.0431,34.42724 0.78928,51.75932 2.98492,69.33333 2.94807,23.59645 4.03838,38.96337 4.16251,58.66666 0.0693,11 0.7656,26.6 1.54733,34.66667 2.51559,25.95839 2.62138,61.31605 0.21942,73.33333 -3.43558,17.18851 -2.66947,65.45961 1.19558,75.33333 3.80856,9.72939 4.54579,46.36269 1.2343,61.33333 -1.89898,8.58494 -2.06715,33.82731 -0.43082,64.66667 0.7782,14.66667 1.44706,42.37761 1.48634,61.57986 0.0479,23.3906 0.58433,36.15198 1.6255,38.66667 1.04659,2.52775 1.40567,11.37309 1.0996,27.0868 -0.88857,45.61904 0.15087,65.2706 4.57943,86.57782 2.26777,10.91095 2.78249,19.36807 2.39933,39.42218 -0.14012,7.33333 0.27063,17.08978 0.91275,21.68101 1.40577,10.05125 0.19371,16.26362 -4.1894,21.47265 -2.85731,3.39572 -3.41763,5.82053 -4.39869,19.03556 -1.94252,26.1659 -1.06067,59.5213 2.12768,80.4774 1.31861,8.667 1.27532,13.2913 -0.23096,24.6667 -1.64122,12.3944 -2.1684,14.045 -4.5969,14.3924 -1.8039,0.2581 -3.35001,-0.7416 -4.51577,-2.9199 z M 248.8451,738.19043 c -0.38277,-14.77141 -0.77178,-27.15711 -0.86448,-27.52378 -0.0927,-0.36667 -1.05438,1.73333 -2.13712,4.66667 -2.25764,6.11642 -2.38064,46.76338 -0.15025,49.65198 3.21809,4.16777 3.82129,-0.96023 3.15185,-26.79487 z M 248,691.06665 c 0,-3.65895 -0.3881,-4.54524 -1.50238,-3.43096 -0.84868,0.84868 -1.12769,2.99524 -0.64126,4.93333 C 247.0826,697.45477 248,696.8118 248,691.06665 Z m -6.05695,-76.30787 c 0.42192,-0.68266 0.15732,-1.61808 -0.58797,-2.07869 -0.7453,-0.46061 -1.35508,0.0979 -1.35508,1.2412 0,2.34204 0.80008,2.68688 1.94305,0.83749 z m 0.0289,-37.09213 c 0.3191,-20.65862 0.0507,-25.66666 -1.37578,-25.66666 -2.92075,0 -3.74384,2.70392 -4.04054,13.2733 -0.1553,5.53302 -0.43308,14.56003 -0.61728,20.06003 -0.18418,5.5 0.47324,13.55477 1.46095,17.8995 1.71465,7.54243 1.84963,7.72324 2.98603,4 0.6546,-2.14473 1.36858,-15.4495 1.58662,-29.56617 z M 1582.818,1106.1824 c -1.3656,-1.6455 -4.2941,-10.3034 -5.9248,-17.5158 -0.1659,-0.7333 -0.8172,-2.1596 -1.4475,-3.1694 -1.8849,-3.0202 -1.7112,-62.7435 0.1982,-68.1639 0.9041,-2.5667 1.8202,-7.4715 2.0358,-10.8996 0.4439,-7.05758 3.7995,-11.76706 8.3843,-11.76706 4.3672,0 5.0359,3.59645 1.8805,10.11466 -2.0921,4.3217 -2.4446,6.3719 -1.4234,8.2798 0.891,1.6652 0.9341,5.4662 0.1253,11.0707 -0.6776,4.6942 -1.7489,13.6348 -2.3807,19.8682 -1.6605,16.3829 1.3368,48.1709 4.9528,52.528 2.4179,2.9133 7.1271,2.6936 9.0736,-0.4233 1.3584,-2.1751 3.2378,-2.5727 12.4446,-2.6329 5.9644,-0.039 12.7388,0.7023 15.054,1.6473 4.7432,1.9359 19.4248,1.8593 20.7061,-0.108 0.9356,-1.4363 21.8585,-3.2642 38.1701,-3.3347 5.8667,-0.025 15.3484,0.933 21.0707,2.1298 9.8369,2.0573 10.6725,2.0454 15.3333,-0.2193 3.7113,-1.8034 6.5767,-2.1866 11.596,-1.5505 3.6667,0.4647 9.0667,0.2917 12,-0.3843 2.9333,-0.676 9.3833,-0.8702 14.3333,-0.4314 l 9,0.7979 0.2396,-5.676 c 0.3598,-8.5217 -0.2298,-14.1752 -2.3118,-22.1687 -1.0351,-3.9739 -1.5667,-8.4887 -1.1812,-10.0329 0.3854,-1.5443 -0.2228,-12.4077 -1.3516,-24.141 -2.3818,-24.7563 -2.6044,-36.17384 -0.7283,-37.33337 0.7333,-0.45323 1.3333,-1.74796 1.3333,-2.87719 0,-1.12923 0.9376,-4.02911 2.0838,-6.44419 1.1904,-2.50861 1.9049,-6.83782 1.6666,-10.09849 l -0.417,-5.70744 -6,0.0757 c -20.7443,0.26197 -28.4351,0.93628 -37.3334,3.27324 -5.5,1.44448 -13,3.4108 -16.6666,4.36958 -8.5804,2.24368 -19.256,3.76465 -29.3333,4.17916 -4.4,0.18099 -13.1,1.06151 -19.3334,1.95671 -11.9277,1.71301 -13.643,1.73721 -36,0.50793 -14.9726,-0.82327 -42.649,1.2814 -46.9218,3.56819 -3.2419,1.73497 -9.0782,-1.66854 -9.0782,-5.29404 0,-3.07509 4.0879,-6.84004 7.4383,-6.85079 1.4089,-0.004 4.3045,-0.91706 6.4345,-2.02788 2.1302,-1.11082 5.7302,-1.99442 8,-1.96357 2.27,0.0308 7.4272,-0.48143 11.4606,-1.1384 4.0333,-0.65697 7.6604,-1.01027 8.06,-0.78509 0.3997,0.22516 6.9997,0.7861 14.6666,1.24653 7.6671,0.46043 14.847,1.09607 15.9556,1.41253 1.1086,0.31648 10.1086,-0.3585 20,-1.49996 9.8914,-1.14145 21.8844,-2.02126 26.6511,-1.95514 5.4221,0.0752 10.0964,-0.64119 12.4857,-1.91362 2.1006,-1.11862 4.7579,-2.03385 5.9054,-2.03385 1.1474,0 3.9289,-0.58345 6.1809,-1.29655 2.2521,-0.7131 7.6946,-2.44934 12.0946,-3.85832 6.5867,-2.10916 10.8268,-2.46554 24,-2.01714 24.1783,0.82297 29.8232,1.36545 31.868,3.06246 2.6364,2.18796 1.3732,16.11432 -2.3077,25.44288 -2.3885,6.05323 -2.8719,9.89355 -2.7695,22.00002 0.155,18.3025 2.6934,52.6852 4.479,60.6667 0.7381,3.3 1.6686,11.8595 2.0676,19.0211 0.7152,12.8411 0.6806,13.038 -2.4995,14.2472 -1.7737,0.6743 -3.4377,1.7846 -3.698,2.4674 -0.4463,1.1706 -2.8473,0.9596 -20.2055,-1.7748 -3.8533,-0.607 -7.5661,-0.4582 -9.3333,0.3741 -1.6139,0.7601 -10.2784,1.9683 -19.2544,2.6849 -12.7605,1.0187 -17.9949,0.9087 -24,-0.5044 -11.2522,-2.6478 -21.2996,-2.263 -40.052,1.534 -14.3897,2.9135 -17.6494,3.1765 -23.5009,1.8958 -7.1736,-1.57 -42.8193,-1.1162 -48.8748,0.6222 -2.3791,0.683 -3.9259,0.3641 -5.1009,-1.0518 z m -1274.79419,-4.505 c -1.08691,-0.425 -2.78528,-1.5817 -3.77416,-2.5706 -0.98888,-0.9889 -2.43021,-1.4073 -3.20295,-0.9297 -0.93933,0.5806 -1.11445,-0.6306 -0.52837,-3.6544 1.81424,-9.3605 2.47221,-25.4349 1.1576,-28.2804 -3.97187,-8.5974 -4.246,-10.2751 -2.8834,-17.6461 1.33679,-7.2313 1.49692,-13.6464 1.02176,-40.9296 -0.40247,-23.10869 -0.12507,-34.46694 0.86595,-35.45797 0.42954,-0.42955 1.80221,-0.12533 3.05037,0.67601 2.65407,1.704 2.41708,8.63085 -0.44492,13.00457 -1.61568,2.4691 -1.46276,3.11843 1.37748,5.84908 4.36739,4.1989 4.3892,4.43187 6.82768,72.92831 0.44381,12.4667 1.07535,23.1167 1.4034,23.6667 0.99929,1.6754 2.35375,1.1538 6.65016,-2.561 2.26521,-1.9585 7.0444,-4.3756 10.62041,-5.3713 17.20304,-4.7899 20.79908,-5.0802 50.50184,-4.0765 38.8361,1.3122 40.27956,1.3078 42.9966,-0.1319 4.00055,-2.1199 36.47046,-3.4669 37.64784,-1.5619 0.79826,1.2916 3.64003,1.2908 13.5165,0 6.87814,-0.9017 16.10573,-1.7115 20.50573,-1.7997 l 8,-0.1603 0.39708,-5.4023 c 0.30044,-4.0876 -0.26743,-6.0037 -2.33333,-7.8733 -2.31715,-2.097 -2.73523,-4.1047 -2.76223,-13.2644 -0.0175,-5.9363 -0.66819,-13.1933 -1.44597,-16.1267 -3.073,-11.5893 -5.99555,-32.98403 -7.37467,-53.98658 -0.40881,-6.22598 -1.58652,-12.95054 -2.61711,-14.94348 -2.00561,-3.87842 -2.7793,-16.08484 -1.31245,-20.70647 0.48976,-1.54312 0.40996,-3.10265 -0.17735,-3.46564 -2.38496,-1.47397 -15.05988,2.62067 -18.62794,6.01779 -3.16434,3.0127 -5.97779,3.89606 -18.11811,5.68865 -8.74329,1.291 -21.27601,2.01093 -32,1.83824 -9.69536,-0.15613 -19.01457,0.18249 -20.70936,0.75252 -10.4694,3.52127 -44.51176,5.12872 -52.70465,2.48869 -3.04578,-0.98145 -6.0162,-1.19089 -7.33334,-0.51706 -1.21765,0.62293 -6.02593,1.51256 -10.68506,1.97696 -9.63378,0.96024 -15.72515,-1.47194 -17.06595,-6.81412 -1.82585,-7.27475 -0.94467,-7.35684 56.87044,-5.29847 1.83333,0.0652 9.03333,-0.69372 16,-1.68664 6.96667,-0.99292 21.36667,-1.87387 32,-1.95768 22.43708,-0.17684 40.873,-3.21247 48,-7.90361 2.56667,-1.68944 7.96667,-3.88539 12,-4.8799 4.03333,-0.9945 8.76425,-2.88706 10.51315,-4.20568 3.63856,-2.74337 12.94346,-3.23238 13.90576,-0.73081 0.35261,0.91667 0.32476,9.16667 -0.0619,18.33333 -0.46893,11.11738 -0.16744,18.44244 0.90551,22 0.88468,2.93334 2.72561,15.83334 4.09096,28.66667 2.45008,23.02919 4.52885,35.45899 6.80114,40.66669 1.8236,4.1793 4.88235,20.3469 5.92799,31.3333 0.52345,5.5 1.43649,11.3035 2.02896,12.8967 1.83458,4.9334 -1.76231,6.3996 -16.64984,6.7868 -7.40396,0.1925 -17.96175,0.6379 -23.46175,0.9895 -20.42917,1.3064 -53.5744,2.3536 -84,2.6539 -43.51669,0.4296 -48.84528,0.9192 -57.82474,5.3124 -4.12972,2.0205 -7.50859,4.0668 -7.50859,4.5473 0,2.877 -15.76119,7.4722 -19.97619,5.8242 z M 2836,1085.7555 c -4.7403,-0.7792 -11.8002,-4.6448 -12.6826,-6.9443 -0.4118,-1.0732 0.1546,-2.8547 1.2587,-3.9588 1.7877,-1.7878 2.2959,-1.7465 4.6421,0.3768 4.3027,3.8939 21.3039,1.0703 25.4736,-4.2307 3.7612,-4.7816 3.3808,-6.278 -3.3585,-13.2121 -4.9799,-5.1237 -6,-7.0367 -6,-11.2505 0,-2.7924 0.7263,-6.6711 1.6139,-8.6192 1.3949,-3.0615 1.2698,-3.7938 -0.9215,-5.3961 -1.3945,-1.0197 -4.1853,-1.854 -6.2019,-1.854 -5.4137,0 -5.9498,-2.3866 -1.5112,-6.7263 7.4936,-7.3263 18.8667,-8.8687 26.5958,-3.607 3.799,2.5863 4.408,3.7668 4.4158,8.5611 0.013,4.7072 -0.8098,6.3881 -5.3242,10.9479 -6.0238,6.0843 -6.478,8.0418 -2.6667,11.491 1.4667,1.3273 2.6667,2.9604 2.6667,3.629 0,0.6686 1.4674,3.1396 3.261,5.4911 2.7038,3.5448 3.082,5.0694 2.2135,8.9207 -1.7064,7.5658 -4.2703,10.6259 -8.9027,10.6259 -2.266,0 -7.0716,1.4975 -10.6792,3.3277 -6.5174,3.3065 -7.5013,3.4785 -13.8926,2.4278 z m -1166.4263,-28.7992 c -0.7806,-0.9407 -2.0393,-3.3407 -2.7969,-5.3334 -1.2197,-3.2082 -1.066,-3.6229 1.3439,-3.6229 1.4966,0 3.8384,0.5978 5.2037,1.3285 3.4848,1.8651 5.9517,0.5667 9.6811,-5.0953 4.8696,-7.3933 5.6136,-11.8081 2.2894,-13.5871 -2.814,-1.506 -7.9616,-0.6569 -7.9616,1.3133 0,0.6122 -1.8896,1.7717 -4.1989,2.5768 -5.1764,1.8045 -4.5467,1.861 -7.0396,-0.6319 -1.6423,-1.6422 -1.9117,-3.7337 -1.246,-9.6666 0.4672,-4.1641 1.4293,-8.6974 2.138,-10.074 2.8121,-5.4624 -4.5269,-5.4502 -11.8979,0.02 -2.3344,1.7324 -4.6397,3.1498 -5.1229,3.1498 -0.4833,0 -2.4043,1.2 -4.2688,2.6666 -1.8647,1.4667 -4.2092,2.6667 -5.2104,2.6667 -4.1344,0 -0.4653,-10.2523 5.1567,-14.4089 1.2961,-0.9583 2.3565,-2.3676 2.3565,-3.1318 0,-3.0896 8.3059,-9.12597 12.5572,-9.12597 2.3515,0 6.7589,-1.2 9.7947,-2.66666 10.7772,-5.20703 14.2489,-2.76806 14.2888,10.03823 l 0.027,8.3577 8.3334,8.0535 c 7.4804,7.2293 8.3333,8.5972 8.3333,13.3661 0,5.5433 -0.6304,6.4545 -13.7327,19.8511 -4.7589,4.8659 -6.324,5.6667 -11.0748,5.6667 -3.0429,0 -6.1714,-0.7697 -6.9521,-1.7104 z m 1072.5147,-9.2322 c -1.795,-5.7441 -1.579,-9.8298 0.7186,-13.5976 3.261,-5.3476 3.1904,-5.94 -0.8916,-7.492 -2.8244,-1.0738 -3.3453,-2.0292 -3,-5.5018 0.5359,-5.3896 6.6023,-10.4127 9.5854,-7.937 2.5948,2.1535 3.9644,10.7616 2.3649,14.8641 -0.702,1.8004 -2.5667,4.6336 -4.1439,6.2959 -2.5937,2.7338 -2.6696,3.2204 -0.7946,5.0953 2.8746,2.8747 2.5901,6.845 -0.6136,8.5596 -2.031,1.0869 -2.818,1.017 -3.2252,-0.2865 z m -2349.3145,-19.878 c -2.29676,-1.8066 -3.43981,-3.8436 -3.17981,-5.6666 0.34721,-2.4346 1.14349,-2.7812 5.50637,-2.3971 5.58252,0.4915 10.23287,-2.459 10.23287,-6.4925 0,-3.0788 -2.496,-4.9589 -7.30879,-5.5053 -6.02181,-0.6836 -7.45981,-6.1046 -3.49202,-13.16432 3.96654,-7.05753 8.07978,-11.33727 11.80081,-12.27848 2.83055,-0.71597 3,-0.35777 3,6.34161 0,7.39362 2.82907,14.54829 7,17.70299 3.22383,2.4383 3.0248,9.1591 -0.33333,11.2563 -1.46667,0.916 -2.66667,2.3034 -2.66667,3.0831 0,0.7798 -1.97856,3.3354 -4.39681,5.6793 -5.25352,5.0919 -10.88318,5.5938 -16.16262,1.441 z m -11.39817,-42.84613 c 0.11613,-8.2175 14.52911,-16.56182 19.69093,-11.39999 2.32283,2.32282 1.96506,3.73333 -0.94693,3.73333 -1.40081,0 -5.58317,2.4 -9.29411,5.33333 -7.72665,6.10756 -9.50945,6.54777 -9.44989,2.33333 z M 1739.7712,945.99335 c -0.3704,-0.37031 -5.8542,-0.91844 -12.1863,-1.21807 -6.3321,-0.29962 -13.672,-1.25729 -16.3107,-2.12814 -2.6387,-0.87086 -7.0049,-1.21451 -9.7026,-0.76366 -14.1679,2.36778 -19.6437,2.75848 -34.9049,2.49055 -9.1667,-0.16093 -27.1532,-0.33464 -39.9702,-0.38601 -21.6532,-0.0868 -23.5113,-0.28868 -26.2384,-2.8506 -2.5332,-2.3798 -4.2709,-2.69195 -12.6965,-2.28064 l -9.7616,0.47653 -3.1527,-6.60544 c -2.5956,-5.4384 -3.2718,-9.44313 -3.8276,-22.66667 -0.3712,-8.83368 0.016,-21.46122 0.859,-28.06122 2.5545,-19.98459 3.3864,-68.91556 1.3898,-81.75011 -1.5397,-9.89769 -1.4937,-11.56476 0.4063,-14.70649 2.8913,-4.78123 5.4572,-5.02973 9.2871,-0.89945 l 3.2072,3.45888 23.2488,0.0363 c 12.7868,0.02 29.5488,-0.7532 37.2488,-1.71809 11.4122,-1.43008 15.5608,-1.44035 22.444,-0.0556 6.068,1.22076 9.8198,1.31664 13.3333,0.34077 2.6892,-0.7469 7.6731,-1.36136 11.0753,-1.36544 6.5763,-0.008 21.244,-2.46069 39.814,-6.65782 23.0596,-5.21187 26.1968,-5.6257 37.0621,-4.88892 6.0423,0.40972 11.635,1.1461 12.4283,1.6364 0.9644,0.59605 1.1167,3.82053 0.4592,9.73052 -0.5409,4.86148 -1.0944,21.47434 -1.2303,36.91749 -0.1357,15.44313 -0.6164,28.67625 -1.068,29.40693 -0.4514,0.73067 -0.2449,3.69537 0.4592,6.58823 3.923,16.11692 5.4871,28.79708 5.9119,47.9264 0.2605,11.73333 0.8767,23.80797 1.3693,26.83254 0.5887,3.61494 0.3671,5.82582 -0.6468,6.4524 -0.8482,0.52427 -8.4496,1.22283 -16.8917,1.55235 -10.9595,0.42779 -17.2469,1.34707 -21.984,3.21425 -6.9924,2.75615 -8.3397,3.03354 -9.4313,1.94183 z M 1694,933.32996 c 6.1159,-0.81873 15.5384,-0.74649 27.3333,0.20955 23.5069,1.90535 42.1815,-0.11893 49.5357,-5.36945 l 4.8691,-3.47624 0.9349,-16.80772 c 0.6223,-11.18896 0.414,-19.31623 -0.6229,-24.31156 -0.8568,-4.12711 -1.7061,-8.89514 -1.8875,-10.5956 -0.1813,-1.70047 -0.6358,-3.66639 -1.01,-4.3687 -3.1618,-5.93392 -4.105,-12.93641 -2.7213,-20.20111 0.8112,-4.25836 1.5808,-20.34248 1.7101,-35.74248 l 0.2354,-28 -3.8551,0.20401 c -2.1203,0.11227 -6.5551,0.80789 -9.8551,1.54599 -3.3,0.73808 -10.5,2.06508 -16,2.94888 -5.5,0.8838 -14.2,2.68922 -19.3333,4.01205 -12.7987,3.29815 -26.6664,4.39012 -53.3333,4.19953 -12.4667,-0.0891 -27.7667,0.40588 -34,1.09995 -6.2333,0.69407 -19.1913,1.24063 -28.7956,1.21457 -22.7552,-0.0617 -21.4515,-1.89078 -22.5336,31.61352 -0.4469,13.83882 -1.3128,35.96149 -1.9241,49.16149 -0.6447,13.91816 -0.6036,27.64067 0.097,32.66667 0.6651,4.76667 1.3993,10.16667 1.6316,12 0.5599,4.41965 3.3532,4.75192 10.9303,1.30017 9.5281,-4.34056 14.0118,-4.65806 20.3216,-1.43906 3.0246,1.54305 6.894,2.80556 8.5986,2.80556 1.7047,0 6.6786,1.26294 11.0532,2.80654 6.3838,2.25258 10.1382,2.69383 19.0206,2.23551 6.0868,-0.31407 11.3722,-0.0771 11.7454,0.52679 0.899,1.45456 16.1836,1.32349 27.8544,-0.23886 z m -30.0163,-31.74342 C 1656.5691,899.55023 1652,893.62258 1652,886.03932 c 0,-1.7162 -2.1,-5.63392 -4.6667,-8.70601 -4.1122,-4.92199 -4.6982,-6.56076 -4.9328,-13.79281 -0.4368,-13.4674 -0.1333,-15.45932 3.0684,-20.13185 2.8008,-4.08754 3.638,-4.46643 9.7968,-4.4342 21.7291,0.1136 32.9735,-0.71322 33.6494,-2.47447 1.0352,-2.69768 5.4452,-2.23044 7.038,0.74568 1.6892,3.15619 1.7676,4.48441 0.208,3.52049 -0.6448,-0.39849 -2.5983,0.70132 -4.341,2.44406 -4.4365,4.43645 -18.9694,7.96057 -26.163,6.34429 -5.9048,-1.32673 -11.8792,-0.68587 -13.1767,1.41345 -0.7996,1.29377 1.4292,10.44255 3.4997,14.36536 0.5806,1.1 2.1726,1.87513 3.5378,1.72252 3.4649,-0.38736 19.5308,2.38319 21.1488,3.64708 0.7333,0.57285 2.8126,1.24904 4.6208,1.50264 4.4412,0.62289 9.3792,8.20896 9.3792,14.40881 0,3.61356 -0.9743,5.82014 -3.7396,8.4695 -2.0568,1.97053 -4.4068,3.58278 -5.2223,3.58278 -0.8155,0 -1.6975,0.64464 -1.9601,1.43255 -0.5696,1.70903 -14.9991,2.79509 -19.761,1.48735 z m 16.9683,-13.36532 c 1.6237,-1.95502 2.9737,-4.23111 3,-5.05799 0.077,-2.44089 -3.1524,-4.39329 -7.8625,-4.7522 -2.42,-0.18439 -4.6835,-1.07408 -5.0299,-1.97707 -0.4072,-1.06105 -1.4135,-1.24312 -2.8448,-0.5147 -1.2181,0.61992 -3.8648,1.77881 -5.8815,2.57533 -2.2589,0.89223 -3.6666,2.45079 -3.6666,4.05967 0,1.43629 1.65,4.40694 3.6666,6.60145 3.2906,3.58073 4.2822,3.91973 9.6667,3.30504 4.3557,-0.49725 6.8091,-1.65912 8.952,-4.23953 z m 1071.8522,54.04425 c -2.1666,-1.58427 -2.3657,-2.96816 -1.588,-11.03843 0.4891,-5.07488 0.8319,-17.32706 0.7619,-27.22706 -0.071,-9.9 0.4309,-21 1.1133,-24.66667 0.6826,-3.66667 0.8639,-9.66667 0.4032,-13.33333 -1.095,-8.71678 0.6248,-26.66535 3.1648,-33.02699 1.104,-2.76484 2.0072,-8.28081 2.0072,-12.25772 0,-5.96056 0.5206,-7.59536 2.9634,-9.30636 5.6749,-3.97484 6.4613,-2.89546 5.5309,7.59107 -0.4716,5.31667 -1.2964,10.26667 -1.8327,11 -0.7736,1.0578 -2.5765,52.55808 -3.2198,91.97228 -0.1267,7.72821 2.3549,9.28769 7.8721,4.94789 4.3619,-3.43104 15.3968,-4.61139 25.3528,-2.71184 4.4,0.83949 15.2,1.59189 24,1.672 33.6395,0.30623 40.4231,0.73327 42.3563,2.66636 1.9744,1.97448 11.2892,1.29336 22.977,-1.68015 8.1164,-2.06486 69.2379,-2.81478 76.594,-0.93976 3.34,0.85134 6.9727,1.35064 8.0727,1.10958 6.1496,-1.34775 10.1615,-33.89195 7.5243,-61.03636 -1.055,-10.85784 -1.1368,-17.91449 -0.5919,-51.02589 l 0.4009,-24.35922 -18.6666,0.53455 c -10.2667,0.294 -20.4604,1.24545 -22.6528,2.11435 -2.1924,0.86888 -5.7924,1.24668 -8,0.83954 -2.2076,-0.40713 -8.8139,-0.13213 -14.6806,0.61107 -5.8666,0.74321 -17.2666,1.93477 -25.3333,2.64792 -8.0667,0.71313 -19.6809,1.8294 -25.8096,2.48059 -8.8075,0.93582 -11.8815,0.78925 -14.6667,-0.69932 -2.7792,-1.4854 -9.8621,-1.83043 -33.5237,-1.63303 -16.5,0.13765 -38.1,-0.21417 -48,-0.78185 -15.4472,-0.88578 -18.4255,-1.42178 -21,-3.77951 -3.7933,-3.47392 -3.8475,-7.16719 -0.1227,-8.34949 2.7875,-0.88471 23.5664,0.11333 35.7891,1.71908 3.3,0.43352 7.2,0.67612 8.6667,0.53909 1.4666,-0.13701 13.4666,-0.52404 26.6666,-0.86005 18.1184,-0.4612 26.6952,-0.10774 34.9975,1.4425 6.0487,1.1294 11.6451,1.65327 12.4364,1.16418 0.7915,-0.48911 9.0425,-1.42058 18.3359,-2.06994 33.966,-2.37336 45.1329,-3.54358 47.8888,-5.0185 1.5482,-0.82858 3.643,-1.18872 4.6552,-0.80031 1.0122,0.3884 5.7057,-0.20488 10.43,-1.31841 5.2796,-1.2444 15.106,-2.03219 25.4997,-2.04431 14.9597,-0.0175 16.9908,0.24941 17.6095,2.31363 0.8176,2.72778 1.0388,11.37337 1.22,47.66666 0.015,2.93334 -0.3942,11.22038 -0.9082,18.41564 -0.7034,9.84419 -0.3812,16.09484 1.302,25.25331 1.7188,9.35309 2.012,15.43089 1.2664,26.25102 -0.9342,13.55642 -1.2068,16.08858 -2.9146,27.08003 -0.5035,3.24004 -0.2563,5 0.7022,5 0.8136,0 1.4792,2.1 1.4792,4.66667 0,3.90384 -0.4904,4.69248 -3,4.82456 -1.65,0.0868 -3.6,-0.0107 -4.3333,-0.21658 -10.7259,-3.01233 -59.9253,-3.68604 -84,-1.15024 -24.3204,2.56168 -36.5485,2.91472 -40.7453,1.17636 -4.0456,-1.67576 -32.0795,-2.18445 -34.5982,-0.62781 -3.5812,2.21324 -26.6353,3.2978 -39.4496,1.85587 -11.5758,-1.30256 -13.9286,-1.23016 -16.6754,0.51309 -4.9408,3.1356 -10.9016,3.9564 -13.7272,1.89024 z m 115.4134,-43.74709 c -1.2198,-1.42091 -3.6088,-4.02583 -5.3092,-5.78872 -2.1884,-2.26884 -2.9675,-4.42647 -2.6667,-7.38531 l 0.4249,-4.18004 5.3334,4.0474 c 7.2709,5.51784 11.0438,5.31368 16,-0.86577 2.2,-2.743 4.7144,-6.34299 5.5876,-7.99996 1.8306,-3.474 1.5872,-3.52863 -7.5876,-1.70192 -5.1978,1.03488 -6.8914,0.74192 -12.6667,-2.19107 -6.6915,-3.39824 -17.056,-12.35269 -19.5284,-16.87157 -0.9017,-1.64796 -0.8507,-2.98802 0.16,-4.2058 0.8157,-0.98298 1.1088,-3.27916 0.6511,-5.10264 -0.4642,-1.84965 -0.1948,-3.70925 0.6093,-4.20623 0.7927,-0.48994 1.4429,-2.20541 1.4449,-3.81213 0,-1.60672 2.252,-5.49363 5,-8.63757 4.384,-5.01563 5.9567,-5.8684 12.8304,-6.95735 11.2002,-1.77431 15.56,1.10072 11.0411,7.28072 -1.3067,1.78695 -2.8404,2.24684 -5.6667,1.69911 -5.1916,-1.00618 -12.117,3.27438 -13.0678,8.07718 -2.1372,10.79479 -2.3538,13.6166 -1.0455,13.6166 0.7656,0 1.7755,1.20871 2.2444,2.68603 0.4689,1.47732 1.3388,2.38549 1.9332,2.01817 1.1745,-0.72597 8.0695,4.14196 9.7936,6.91451 1.7616,2.83282 10.4732,1.98457 16.2671,-1.58392 6.5188,-4.01503 9.2044,-4.16375 12.6666,-0.70146 4.1452,4.14523 3.4172,10.44896 -1.8621,16.12392 -2.4511,2.63483 -5.4349,5.166 -6.6305,5.62483 -1.1958,0.45883 -2.174,1.63129 -2.174,2.60548 0,3.48445 -9.8504,11.46785 -15.7824,12.79111 -5.0262,1.12117 -6.0724,0.95198 -8,-1.2936 z M 314.86402,894.23779 c -1.56188,-1.88196 -4.14537,-52.17724 -3.3339,-64.90448 0.25714,-4.03333 0.67493,-13.93333 0.9284,-22 0.69674,-22.17365 2.41633,-41.97128 3.71528,-42.77408 0.63774,-0.39414 1.15953,-1.92165 1.15953,-3.39445 0,-2.16552 0.57395,-2.49872 3,-1.74161 4.35979,1.36058 5.17245,3.2104 4.26839,9.71585 -1.31595,9.46932 -2.20755,28.2544 -2.9187,61.49403 -0.70868,33.12453 0.71382,48.83543 4.55511,50.30947 3.24896,1.24675 11.47803,-1.93332 16.21011,-6.26428 4.40473,-4.03136 4.58729,-4.06976 18.66666,-3.92624 12.95844,0.13214 25.4894,-1.64672 28.8851,-4.10032 4.24948,-3.07052 20.0759,-6.51704 32.66666,-7.11382 14.6183,-0.6929 21.91932,-2.63478 29.6625,-7.88943 6.57768,-4.46373 18.68792,-7.19101 23.06844,-5.1951 1.867,0.85065 6.3663,1.54665 9.99846,1.54665 H 492 l 0.0107,-6.33333 c 0.007,-3.48334 0.63855,-11.73334 1.40562,-18.33334 1.772,-15.24661 -0.38774,-37.2611 -4.51283,-46 -2.51897,-5.33634 -2.83619,-8.39489 -2.86799,-27.65193 -0.0237,-14.35759 -0.52505,-21.83969 -1.48821,-22.20929 -1.95581,-0.75051 -22.71448,1.49162 -28.54752,3.08342 -15.74263,4.29604 -21.62571,5.45307 -28.08747,5.52395 -3.98522,0.0437 -9.94586,0.58744 -13.24586,1.20827 -3.3,0.62082 -11.4,2.13132 -18,3.35664 -6.6,1.22532 -15.7614,3.40997 -20.35868,4.85476 -4.59727,1.4448 -8.80326,2.35214 -9.34663,2.01632 -0.54337,-0.33583 -9.38197,-0.974 -19.64132,-1.41818 l -18.65311,-0.80757 -3.47533,4.23788 c -4.32971,5.27971 -7.18793,4.45147 -8.30063,-2.40531 -0.6505,-4.00854 -0.2758,-5.66312 1.73868,-7.6776 2.33955,-2.33956 4.9154,-2.59464 28.96924,-2.86873 22.58536,-0.25736 27.65404,-0.70368 35.06804,-3.08787 4.76667,-1.53286 9.7356,-2.79476 11.04207,-2.80422 1.30647,-0.009 6.10647,-1.30871 10.66667,-2.88723 4.5602,-1.57851 10.39126,-3.052 12.95793,-3.27444 15.10195,-1.30873 30.86604,-3.25864 36.66667,-4.53539 18.31338,-4.03087 37.46574,-5.07603 40.35022,-2.20194 1.21775,1.21334 1.78386,9.05038 2.04602,28.32404 0.33344,24.51424 0.59012,27.01641 3.20762,31.26881 5.69823,9.25733 7.60807,43.91152 3.53426,64.1294 -1.73895,8.63018 -1.87752,11.77321 -0.66667,15.12174 0.84069,2.32492 1.52855,5.23454 1.52855,6.4658 0,3.52515 -8.874,2.84938 -16.6014,-1.26424 -6.07395,-3.2334 -7.0811,-3.38726 -13.09111,-2 -3.58101,0.8266 -8.59947,1.50291 -11.15212,1.50291 -5.79815,0 -16.08893,2.30424 -20.48871,4.58768 -1.83333,0.95148 -8.13333,2.13609 -14,2.63248 -6.05057,0.51193 -15.70561,2.607 -22.31046,4.84117 -6.40408,2.16627 -12.56908,3.93867 -13.69998,3.93867 -1.13089,0 -5.4704,1.2 -9.64332,2.66667 -8.54261,3.00248 -15.2028,3.40334 -18.83698,1.13377 -1.97408,-1.23284 -3.86278,-0.87399 -9.64858,1.83328 -9.38558,4.39164 -15.51866,6.55053 -20.87304,7.34745 -2.39013,0.35574 -4.67553,1.18051 -5.07869,1.83282 -0.40315,0.6523 -2.19759,1.18601 -3.98764,1.18601 -1.79005,0 -3.25464,0.6 -3.25464,1.33333 0,1.94619 -4.76007,1.63064 -6.46931,-0.42885 z m 69.91467,-69.78653 c -4.04744,-5.95635 -4.71716,-15.06927 -1.31496,-17.89284 1.42187,-1.18004 1.919,-3.11897 1.49475,-5.82992 -1.59474,-10.19048 7.21925,-26.06185 14.47314,-26.06185 1.5997,0 3.65546,-0.9 4.56838,-2 0.91292,-1.1 2.40546,-2 3.31678,-2 0.91131,0 3.18248,-1.2 5.04704,-2.66667 1.96114,-1.54263 5.40904,-2.66667 8.17982,-2.66667 4.68457,0 4.78969,0.11494 4.78969,5.2381 0,6.1316 -3.22725,10.39641 -6.07728,8.0311 -2.41183,-2.00164 -6.51021,-0.56289 -14.78563,5.19051 -7.48578,5.20443 -10.84492,11.68304 -7.99409,15.41789 1.34068,1.75643 2.16419,1.68892 6.857,-0.56214 6.97457,-3.34558 12.18599,-3.37164 13.95309,-0.0697 2.52508,4.71816 1.62688,6.58883 -3.61976,7.53878 -2.75,0.49789 -6.5,1.66789 -8.33333,2.6 -4.54611,2.3113 -9.67583,8.46652 -8.84984,10.61901 1.60148,4.17337 21.81324,-5.56032 23.77663,-11.45048 0.83777,-2.51332 5.07321,-0.41256 5.07321,2.51628 0,3.12977 -8.50887,11.76923 -14.66667,14.89176 -2.56666,1.30152 -8.66625,2.78508 -13.55464,3.29681 l -8.88797,0.93042 -3.44536,-5.07031 z M 1573.6219,747.96662 c -0.892,-1.42841 -1.6219,-5.56185 -1.6219,-9.1854 0,-3.62356 -0.5792,-10.98169 -1.2872,-16.35143 -0.708,-5.36973 -1.5589,-28.2697 -1.8908,-50.88883 -0.5136,-34.99415 -0.2879,-42.15062 1.5139,-48 1.1645,-3.78087 1.9684,-8.25608 1.7861,-9.94491 -0.4015,-3.72092 2.0211,-6.9294 5.232,-6.9294 3.1948,0 3.3841,1.15456 2.8972,17.66667 -0.3876,13.14005 -0.6376,14.33333 -3.0036,14.33333 -2.97,0 -2.9727,0.0192 -1.1317,8 0.7612,3.3 1.5662,21 1.789,39.33333 0.2411,19.83063 0.9898,34.78068 1.8482,36.90631 0.7937,1.96513 1.0953,5.71513 0.6705,8.33333 -0.65,4.00543 -0.3748,4.79109 1.7353,4.95419 7.2958,0.56386 12.4058,-0.80043 18.5078,-4.9413 7.4065,-5.02609 9.9028,-5.35586 25.3333,-3.34666 13.4135,1.74654 62.8937,1.70829 71.9076,-0.0556 3.7175,-0.72747 9.4591,-1.55986 12.759,-1.84978 4.1559,-0.36509 6.8196,-1.47073 8.6667,-3.59713 2.5827,-2.97329 3.3616,-3.07003 24.7241,-3.07003 19.0178,0 22.5639,0.33168 25.7319,2.40682 2.4401,1.5983 5.5561,2.27014 9.2759,2 l 5.6014,-0.40682 -0.014,-13.99999 c -0.023,-21.33088 -5.4456,-46.59862 -9.7993,-45.6543 -2.6268,0.56975 -3.506,-3.90393 -1.1113,-5.65496 1.719,-1.25704 2.0641,-3.329 1.6466,-9.88741 -0.2905,-4.56341 -1.1156,-9.01101 -1.8333,-9.88356 -1.7004,-2.06676 -5.6449,-59.70876 -5.0508,-73.80741 0.2524,-5.98821 0.017,-11.60273 -0.5233,-12.47673 -0.7575,-1.22556 -2.469,-1.2307 -7.4815,-0.0224 -3.5747,0.86165 -10.6993,2.43541 -15.8327,3.49724 -5.1333,1.06182 -11.2386,2.55313 -13.5673,3.31401 -2.3287,0.76088 -8.3287,1.89235 -13.3333,2.51436 -8.4764,1.05352 -19.7895,4.26193 -24.4327,6.92925 -1.1,0.63191 -2.9,1.49215 -4,1.91167 -1.1,0.41952 -3.5925,1.61571 -5.539,2.65819 -1.9466,1.04248 -5.1359,1.89541 -7.0876,1.89541 -1.9518,0 -4.7668,0.65191 -6.2555,1.44868 -1.4888,0.79677 -8.4995,2.02111 -15.5791,2.72073 -7.0797,0.69964 -16.0994,1.60775 -20.044,2.01802 -4.553,0.47358 -8.3069,0.13845 -10.2806,-0.91786 -2.667,-1.42732 -4.2659,-1.16198 -11.2494,1.86664 -4.4773,1.94175 -9.4864,3.53046 -11.1312,3.53046 -1.6448,0 -4.1552,0.88092 -5.5788,1.9576 -3.3513,2.53479 -13.6505,2.55607 -17.9214,0.0371 -1.8334,-1.08134 -4.9834,-2.70404 -7,-3.606 -3.8926,-1.74092 -4.2012,-2.25616 -2.6463,-4.41576 2.1009,-2.9179 8.8592,-4.63953 18.2124,-4.63953 6.8225,0 10.2491,-0.57247 11.3473,-1.89577 0.8654,-1.04267 4.0888,-2.2705 7.1634,-2.72848 3.0744,-0.458 8.3677,-1.44744 11.7629,-2.19878 4.4243,-0.97906 7.8109,-0.92504 11.9545,0.19071 7.8087,2.10268 29.9423,-0.66505 33.9584,-4.24639 1.7744,-1.58233 4.8046,-2.45462 8.5267,-2.45462 3.8007,0 9.0119,-1.53928 15.2475,-4.50382 5.5676,-2.64701 14.4205,-5.39585 21.4732,-6.66752 6.5999,-1.19004 21.5999,-3.95222 33.3333,-6.13821 11.7333,-2.18597 24.4833,-4.36289 28.3333,-4.83759 l 7,-0.86308 0.1941,4.50511 c 0.1067,2.47781 0.3399,7.50511 0.518,11.17177 0.1783,3.66667 0.6839,18.66667 1.1238,33.33334 0.4397,14.66666 1.3761,30.5233 2.0808,35.23698 0.7046,4.71367 0.96,9.08995 0.5674,9.72507 -0.3925,0.63512 -0.1146,1.87848 0.6163,2.76301 0.7315,0.88455 2.0359,5.50827 2.8987,10.27493 0.8626,4.76667 2.376,12.26667 3.3629,16.66667 0.9868,4.4 2.1573,10.4 2.6011,13.33333 0.4437,2.93334 1.9268,12.40864 3.2957,21.05624 1.3885,8.77126 2.3973,21.44579 2.2817,28.66667 -0.1933,12.07517 -0.3861,12.9273 -2.8738,12.6985 -9.9103,-0.91148 -24.8375,-3.47942 -29.3334,-5.04628 -6.8814,-2.39825 -28.689,-3.58814 -34.3149,-1.87233 -9.3531,2.85259 -17.9721,4.89609 -24.3517,5.77363 -3.6667,0.50437 -9.6667,1.76826 -13.3333,2.80866 -5.0696,1.43848 -9.222,1.61028 -17.3334,0.7172 -12.6174,-1.38922 -33.3754,-0.737 -42.479,1.33471 -3.5635,0.81095 -8.5972,2.91187 -11.186,4.66872 -3.7166,2.52208 -6.4499,3.19428 -12.9887,3.19428 -4.5549,0 -10.2464,-0.68492 -12.6479,-1.52205 -3.5206,-1.22734 -5.0437,-1.13368 -7.8656,0.4837 -5.221,2.9925 -12.574,2.8265 -14.5442,-0.32834 z m 811.1874,-10.07569 c -1.6019,-4.17444 -0.7316,-6.75116 3.9605,-11.72568 l 4.7699,-5.05698 -0.9749,-10.22081 c -0.5363,-5.62145 -0.921,-11.12081 -0.855,-12.22081 0.067,-1.1 -0.154,-3.35379 -0.489,-5.00841 -0.5704,-2.8167 -1.096,-2.95878 -8.2483,-2.22944 -4.2016,0.42844 -8.9892,1.33222 -10.6392,2.00841 -14.7844,6.0588 -17.096,6.71105 -23.9739,6.76432 -3.7001,0.0287 -8.057,-0.65949 -9.6822,-1.52923 -5.3718,-2.87485 -22.8506,-4.06878 -64.0106,-4.37237 -22.3666,-0.16497 -41.4725,-0.81991 -42.4576,-1.45541 -0.9849,-0.63551 -4.2849,-1.11847 -7.3333,-1.07324 -3.0483,0.0452 -6.8713,-0.78483 -8.4955,-1.84454 -3.6965,-2.4118 -40.7997,-2.75377 -46.6268,-0.42974 -2.1928,0.87453 -15.9505,1.73917 -33.0868,2.0794 -16.1333,0.32032 -31.1333,0.66788 -33.3333,0.77234 -2.2,0.10454 -8.05,0.0688 -13,-0.0795 -6.9915,-0.20924 -9,-0.71571 -9,-2.26935 0,-1.1 0.6,-2 1.3333,-2 0.7334,0 1.3334,-0.78887 1.3334,-1.75305 0,-1.98168 8.9072,-6.6818 9.8308,-5.18746 0.9698,1.56924 63.2629,0.92768 74.1692,-0.76388 31.287,-4.85256 42.4294,-4.52192 68.6666,2.03763 7.6547,1.91375 14.2363,2.27141 36.5938,1.98864 15.1324,-0.1914 30.7329,0.28489 35.0657,1.07059 4.2929,0.77845 12.7257,1.42518 18.7396,1.43717 6.9004,0.0137 12.7673,0.79508 15.9031,2.11788 6.3824,2.69235 24.3626,1.00936 24.3674,-2.28085 0,-1.37616 1.4576,-2.03244 4.6667,-2.10399 6.7985,-0.15159 16.4139,-1.99588 18.2875,-3.50768 1.073,-0.86589 1.3516,-3.29513 0.8212,-7.16399 -0.5006,-3.65189 -0.2158,-6.56068 0.7572,-7.73294 2.2758,-2.74219 10.2177,-3.8941 13.7792,-1.99856 5.1466,2.73924 13.0186,9.53796 13.0186,11.24362 0,0.89294 1.5919,2.66656 3.5376,3.9414 3.5671,2.33724 8.6051,2.30242 26.8208,-0.1854 6.5554,-0.89528 9.6416,0.909 9.6416,5.63655 0,2.06281 -1.2546,3.79815 -3.6666,5.07136 -2.0167,1.06453 -9.3667,7.37521 -16.3334,14.02371 -6.9666,6.6485 -13.2989,12.09292 -14.0717,12.09872 -0.7728,0.005 -3.4559,2.12629 -5.9621,4.71221 -2.5064,2.58592 -6.7792,5.36742 -9.4951,6.18113 -2.716,0.81371 -7.5079,4.09795 -10.6488,7.29832 -6.0369,6.15111 -12.1107,7.79829 -13.6796,3.70981 z m 26.2783,-23.40509 c 1.6018,-0.83278 3.8885,-2.48278 5.0814,-3.66667 1.1931,-1.18388 5.2378,-4.53644 8.9882,-7.45013 6.0114,-4.67023 6.586,-5.53063 4.8514,-7.26522 -2.5001,-2.50002 -13.0229,-5.30188 -20.1993,-5.37833 -6.5903,-0.0701 -7.1427,0.9048 -7.1427,12.60783 0,12.71653 1.5259,14.73734 8.421,11.15252 z m -3.468,-37.26623 c -1.92,-3.07432 -3.4338,-3.25553 -4.4774,-0.53599 -1.1482,2.99234 2.0791,6.40252 4.3083,4.55243 1.3913,-1.15472 1.4271,-2.00208 0.1691,-4.01644 z m 330.162,43.30084 c -1.827,-2.78825 -1.9203,-4.13332 -0.5938,-8.56088 2.5294,-8.44183 3.4903,-47.40551 1.5375,-62.33441 -1.3329,-10.1907 -1.3633,-16.51835 -0.1417,-29.62518 0.8542,-9.16666 1.6724,-20.86666 1.8181,-26 0.2433,-8.57186 0.5099,-9.36811 3.2672,-9.75969 5.6767,-0.80617 9.1208,5.67115 4.8849,9.18669 -1.6245,1.34814 -1.9094,3.11031 -1.2328,7.62239 1.7562,11.71116 2.6727,78.69501 1.3291,97.14505 -0.8087,11.10436 1.5521,14.14196 6.6301,8.5309 1.3756,-1.52006 4.9382,-2.95083 8.54,-3.42983 3.3988,-0.452 7.8716,-1.46852 9.9394,-2.25893 5.0521,-1.93118 10.7216,-1.64183 14.4805,0.73902 5.0333,3.18818 16.7621,5.16208 20.09,3.38108 1.5587,-0.8342 8.6797,-1.67417 15.8247,-1.86661 7.1448,-0.19243 13.6718,-0.77089 14.5044,-1.28547 0.8326,-0.51457 3.6833,-0.52857 6.335,-0.0311 3.2087,0.60194 4.241,1.26312 3.0862,1.97678 -2.2954,1.41866 9.2265,2.59679 11.9196,1.2188 1.1,-0.56286 4.189,-1.37193 6.8648,-1.79794 2.6756,-0.426 6.5012,-2.06179 8.5012,-3.63508 2.9441,-2.31583 4.3028,-2.61219 7.1353,-1.55635 1.9243,0.71731 4.9987,0.91564 6.832,0.44073 1.8771,-0.48622 4.9063,-0.0823 6.9337,0.92472 1.9803,0.9835 6.1095,1.78818 9.176,1.78818 3.3358,0 7.3943,1.12409 10.1032,2.79828 3.9823,2.46114 5.6879,2.6819 14.1574,1.83238 5.2964,-0.53124 10.8244,-1.40724 12.2846,-1.94666 1.7666,-0.65262 3.1652,-0.28288 4.18,1.10501 0.991,1.35509 3.6978,2.10773 7.7266,2.14839 3.5868,0.0363 6.653,0.79301 7.2726,1.79506 0.7534,1.21832 3.8056,1.61402 10.2852,1.33334 9.6408,-0.41763 9.4063,-0.20811 7.5575,-6.75228 -0.5119,-1.81188 -0.12,-2.14427 1.7017,-1.44503 2.0943,0.80367 2.2716,0.30744 1.542,-4.31352 -2.5834,-16.35948 -3.7798,-36.75043 -2.3904,-40.73645 1.9228,-5.51578 1.8846,-16.20382 -0.065,-18.15335 -1.4701,-1.47008 -2.1921,-4.49419 -5.3319,-22.33184 -1.165,-6.61855 -2.0761,-23.31556 -2.468,-45.23112 -0.039,-2.14378 0.5463,-4.51378 1.2991,-5.26666 1.9819,-1.98179 1.6803,-7.09744 -0.4669,-7.92139 -2.2951,-0.88069 -11.0603,1.00328 -21.4975,4.62063 -4.5463,1.57565 -12.3172,2.94189 -18,3.16465 -5.5,0.21561 -14.5,0.9772 -20,1.69244 -20.3491,2.64625 -47.8812,4.59385 -52.5524,3.71752 -3.6828,-0.69089 -4.9999,-0.42368 -5.5983,1.13583 -0.5416,1.41142 -1.4598,1.6879 -2.9826,0.89802 -1.21,-0.62768 -5.5,-0.69837 -9.5334,-0.1571 -8.7618,1.17581 -29.6572,0.47597 -45.3333,-1.51835 -16.2148,-2.06284 -49.3333,-2.67832 -49.3333,-0.9168 0,2.52532 -19.3588,0.77589 -22.4588,-2.02956 -5.1164,-4.63031 -2.4142,-5.76845 17.8754,-7.52867 15.5944,-1.35289 22.1108,-1.34286 34.254,0.0527 23.2339,2.67019 76.1587,1.95612 103.0938,-1.39096 6.2156,-0.77239 14.2824,-1.00885 17.9262,-0.52549 3.82,0.50674 7.3344,0.31601 8.3006,-0.45048 1.8946,-1.5032 10.3328,-3.40818 25.0088,-5.64587 5.5,-0.83861 11.2,-2.03601 12.6666,-2.66091 8.7772,-3.7396 32.4899,-5.27685 38.5818,-2.50118 4.2238,1.92452 5.5348,7.93597 3.4328,15.74198 -0.8447,3.13712 -1.7712,14.97266 -2.0587,26.30119 -0.4877,19.21237 -0.2923,21.33097 2.908,31.50844 1.8869,6.00112 3.782,11.49396 4.2113,12.20629 0.4292,0.71235 0.661,10.01235 0.515,20.66667 -0.2472,18.04545 1.3694,35.36722 3.7366,40.03817 0.5576,1.1 1.4379,6.64555 1.9563,12.32344 l 0.9425,10.32343 -3.7794,1.51394 c -2.8607,1.14589 -9.1279,1.06727 -25.7795,-0.32343 -12.1,-1.01055 -30.4621,-1.64301 -40.8048,-1.40543 -17.1201,0.39324 -19.3643,0.16888 -25.0519,-2.50458 -6.1532,-2.89234 -6.5321,-2.90892 -25.1952,-1.10233 -10.4214,1.0088 -23.4481,1.55564 -28.9481,1.21521 -11.6087,-0.71854 -29.1256,-0.77152 -60,-0.18145 -12.1,0.23125 -23.0271,0.31861 -24.2824,0.19413 -2.1232,-0.21053 -8.9405,2.32096 -14.9597,5.55501 -1.4166,0.76107 -4.278,1.87203 -6.3588,2.4688 -3.1955,0.91647 -4.1202,0.57108 -5.9508,-2.22294 z M 737.58934,720.17639 c -1.11375,-0.69994 -1.43327,-2.33406 -0.88416,-4.52186 0.9948,-3.9636 11.05784,-8.98788 18.00167,-8.98788 2.31688,0 8.20565,-1.12359 13.08616,-2.49685 4.8805,-1.37327 11.57365,-3.24416 14.87365,-4.15752 3.3,-0.91336 11.7,-1.79363 18.66667,-1.95615 9.62956,-0.22464 13.94545,-0.94159 18,-2.99009 2.93333,-1.48204 7.73333,-3.05171 10.66666,-3.48818 18.53888,-2.75845 22.67912,-3.66421 27.71823,-6.06388 4.39813,-2.09444 10.62033,-3.00481 28.70925,-4.2005 12.70179,-0.8396 23.95207,-1.19732 25.00064,-0.79495 3.03149,1.16329 51.13392,-1.70207 53.95947,-3.21424 1.40448,-0.75167 14.71682,-2.52431 29.58301,-3.93923 14.86621,-1.4149 30.62941,-2.98474 35.02941,-3.48852 4.4,-0.50378 9.8,-0.8976 12,-0.87514 2.2,0.0224 10.3,-0.53971 18,-1.24923 15.8452,-1.46009 51.2967,-3.98143 55.3333,-3.93535 6.2484,0.0713 32.4363,-2.77544 37.3296,-4.05792 2.9313,-0.76824 13.4313,-1.5565 23.3334,-1.75168 19.8888,-0.39202 22.0616,-0.86864 23.1631,-5.08074 0.9449,-3.61326 -1.4171,-27.0991 -3.0119,-29.94898 -1.8446,-3.29597 0.9586,-9.53634 4.7061,-10.47692 3.6898,-0.92606 8.4797,2.52534 8.4797,6.11006 0,3.09533 7.2621,12.72114 16.3287,21.64348 l 7.7102,7.58745 9.352,-0.78404 c 8.5261,-0.71479 9.6431,-0.51061 12.6473,2.31163 4.2445,3.98757 4.158,6.04124 -0.3715,8.81361 -10.1466,6.21044 -14.6695,9.70045 -20.1605,15.55628 -3.3036,3.52316 -7.6348,7.36755 -9.6248,8.54308 -1.99,1.17555 -4.9075,4.59296 -6.4833,7.59427 -8.6478,16.4707 -13.1214,21.11962 -17.1255,17.79649 -2.4703,-2.05012 -0.9805,-12.46861 2.4716,-17.28559 2.9972,-4.18204 3.2368,-9.69066 0.8261,-18.98958 l -1.7117,-6.60226 -7.2626,0.36228 c -3.9945,0.19924 -9.9626,0.95647 -13.2626,1.68271 -3.3,0.72624 -10.8,1.26365 -16.6667,1.19427 -13.7687,-0.16286 -23.9185,1.01324 -30.9892,3.59081 -3.8733,1.412 -7.4452,1.76332 -11.3333,1.11472 -7.791,-1.29965 -8.6644,-1.27416 -17.0108,0.49663 -4.0334,0.85572 -13.9334,1.80749 -22,2.11505 -8.0667,0.30756 -17.6667,1.13327 -21.3334,1.83489 -3.6666,0.70164 -21.0666,2.25003 -38.6666,3.44086 -35.02135,2.36958 -50.78183,3.93202 -62.00004,6.14646 -12.01926,2.37258 -22.90594,3.03739 -73.33334,4.47819 -17.08021,0.48801 -26.62781,1.81869 -31.33333,4.36703 -1.46667,0.79429 -6.26666,1.87824 -10.66666,2.40876 -4.4,0.53053 -13.4,2.72656 -20,4.88006 -6.88911,2.24784 -17.47902,4.45471 -24.86432,5.18158 -7.07538,0.69636 -15.40082,2.16104 -18.50098,3.25484 -3.10014,1.0938 -7.31544,1.98872 -9.36729,1.98872 -4.52916,0 -15.78433,2.19306 -23.93408,4.66355 -10.39712,3.15175 -11.29281,3.30103 -13.07732,2.17952 z m 487.54806,-49.17641 c 3.4638,-3.48333 8.0748,-7.62226 10.2468,-9.19764 6.0547,-4.39146 3.1091,-6.01421 -7.0476,-3.88256 -4.5816,0.96156 -9.2316,2.49644 -10.3334,3.41084 -2.9498,2.44815 -2.691,16.0027 0.3056,16.0027 0.292,0 3.3649,-2.85 6.8286,-6.33334 z m -6.9103,-21.11104 c 0.4746,-1.2369 -0.3708,-3.29193 -2.0418,-4.96296 l -2.852,-2.85192 v 4.96296 c 0,3.56784 0.574,4.96296 2.0419,4.96296 1.123,0 2.4063,-0.94996 2.8519,-2.11104 z m 467.134,52.85563 c -4.2179,-1.08679 -5.8338,-8.72236 -4.7199,-22.3042 0.8355,-10.18773 -0.061,-12.17287 -4.1115,-9.10675 -1.5386,1.16467 -5.7182,1.9315 -10.6684,1.9573 -6.8462,0.0356 -8.7042,-0.48187 -11.7012,-3.25926 -3.5048,-3.2482 -3.5565,-3.54476 -3.1946,-18.31698 0.3094,-12.63104 0.7128,-15.08146 2.5398,-15.43172 1.4364,-0.27534 2.4895,0.84824 3.1091,3.31698 0.5155,2.05336 0.8665,3.9048 0.7804,4.11432 -0.087,0.20954 0.8036,1.34131 1.9775,2.51507 1.5888,1.58884 1.9097,3.46159 1.2562,7.32957 -0.6253,3.70156 -0.2686,6.12499 1.2404,8.4281 2.0583,3.14148 2.2734,3.17784 7.6255,1.28946 7.4355,-2.62333 9.0504,-2.46022 10.464,1.05686 1.5891,3.95322 1.7263,2.91856 1.8967,-14.30696 0.124,-12.50219 0.468,-14.70368 2.357,-15.07442 1.2166,-0.23876 3.4188,0.8612 4.8938,2.44436 3.3141,3.55728 5.1885,15.17248 2.8945,17.93658 -1.7017,2.05045 -2.1965,13.62009 -1.4437,33.75654 0.2554,6.83252 -0.065,12.89168 -0.7128,13.4648 -0.6475,0.57312 -2.6647,0.65878 -4.4828,0.19035 z m 379.4691,-8.68209 c -2.0186,-3.08078 -1.9694,-3.46627 0.8467,-6.63351 2.584,-2.90632 3.744,-3.25483 8.5483,-2.56809 4.9938,0.71382 5.5217,1.14009 5.1958,4.19593 -0.4345,4.07536 -5.2137,8.27651 -9.4154,8.27651 -1.7476,0 -3.9402,-1.38568 -5.1754,-3.27084 z m -1751.93384,-3.0625 c -0.67138,-1.12958 -2.52988,-20.22258 -2.95266,-30.33333 -0.1533,-3.66667 -0.99138,-18.66667 -1.86237,-33.33333 -0.871,-14.66667 -1.52449,-37.16667 -1.45221,-50 0.0723,-12.83333 -0.0397,-25.73333 -0.24884,-28.66667 L 306,543.33332 l 18.90809,-1.48875 c 10.39945,-0.81881 19.99945,-1.91485 21.33333,-2.43564 1.33388,-0.52078 8.42524,-1.21857 15.75858,-1.55062 7.33333,-0.33207 17.23333,-1.74032 22,-3.12946 4.76666,-1.38913 12.26666,-2.91454 16.66666,-3.38982 4.99664,-0.53972 12.0045,-2.74028 18.66667,-5.8616 5.86667,-2.7486 13.66667,-6.40442 17.33333,-8.12402 6.08462,-2.85357 9.02783,-3.61605 23.33334,-6.04474 7.15097,-1.21404 22.9839,-6.22548 26.24392,-8.30672 3.95242,-2.52327 7.8237,-0.3305 8.89778,5.03988 0.45502,2.2751 -0.13133,9.64641 -1.30292,16.38069 -1.80696,10.38612 -1.89761,14.67209 -0.59744,28.24413 0.84303,8.8 1.85243,19.9 2.24311,24.66667 0.39068,4.76667 1.23441,11.96666 1.87495,16 0.64054,4.03333 1.53565,13.33333 1.98912,20.66666 0.45348,7.33334 1.41276,15.73334 2.13172,18.66667 5.59993,22.8474 6.3026,29.41953 3.51976,32.92027 -2.62038,3.29634 -15.75611,4.1825 -24.46586,1.6505 -4.86085,-1.41308 -9.90665,-1.88445 -14.93729,-1.39541 -20.91657,2.03335 -28.47597,3.33065 -38.26352,6.5666 -5.86667,1.93964 -15.46667,4.06875 -21.33333,4.73137 -9.99664,1.1291 -19.10406,3.67442 -20.69892,5.78488 -0.38442,0.50868 -6.86867,1.28655 -14.40946,1.7286 -7.54077,0.44206 -15.02626,1.28282 -16.6344,1.86838 -1.60814,0.58556 -6.70948,1.15048 -11.3363,1.25538 -4.62683,0.10494 -11.91343,1.09795 -16.19246,2.20675 -8.57264,2.2214 -12.92565,2.54113 -13.8321,1.01601 z m 21.72926,-14.5034 c 3.72884,-3.13761 5.4449,-3.54564 16.43563,-3.9079 6.74965,-0.22248 14.23663,0.20538 16.63775,0.95081 3.49844,1.08608 5.74978,0.82243 11.33333,-1.32728 11.65147,-4.48587 25.24952,-8.07397 32.70733,-8.63045 3.89015,-0.29027 7.76015,-1.21492 8.6,-2.05478 0.83986,-0.83985 2.907,-1.527 4.59367,-1.527 1.68667,0 3.06667,-0.53436 3.06667,-1.18745 0,-1.54393 6.60705,-2.65581 24.66666,-4.15109 14.90596,-1.23416 22,-0.76838 22,1.44449 0,0.67505 2.25614,1.22739 5.01363,1.22739 6.90985,0 12.97711,-5.48291 11.62081,-10.5016 -0.51998,-1.92412 -1.40894,-10.9984 -1.97546,-20.16507 -0.56652,-9.16667 -1.71463,-21.16667 -2.55136,-26.66667 -0.83672,-5.5 -1.8182,-17.18497 -2.18107,-25.96659 -0.36287,-8.78164 -1.24479,-16.55164 -1.95981,-17.26667 -1.8873,-1.88729 -1.59331,-15.57245 0.464,-21.59909 0.97024,-2.8422 1.92069,-8.1012 2.11212,-11.68666 0.31308,-5.86378 0.10226,-6.41784 -2.0974,-5.51244 -3.413,1.40482 -11.37111,3.22576 -20.24712,4.6329 -14.23714,2.25705 -23.81919,5.62021 -46.72831,16.40096 -3.22481,1.51756 -9.82481,3.13202 -14.66667,3.5877 -4.84184,0.45568 -10.81297,1.84308 -13.26918,3.08311 -2.87868,1.45332 -9.27579,2.52457 -18,3.01425 -7.44379,0.41782 -17.73418,1.30484 -22.86751,1.97116 -5.13333,0.66634 -13.23333,1.60739 -18,2.09123 -12.7902,1.29829 -12.63964,1.11665 -12.83931,15.48961 -0.0949,6.83496 -0.31166,17.5272 -0.48157,23.76053 -0.16991,6.23334 0.62265,19.73334 1.76125,30 1.13859,10.26667 2.45168,26.76667 2.91799,36.66667 0.46632,9.9 1.08261,18.75 1.36956,19.66667 0.91341,2.91797 8.17536,1.85637 12.56437,-1.83674 z m 86.08662,-39.67092 c -2.88287,-2.67174 -3.83294,-5.19373 -4.92296,-13.06817 -0.74288,-5.36663 -1.62306,-10.03119 -1.95595,-10.36569 -0.33291,-0.33451 -2.53159,0.42844 -4.88597,1.69544 -4.68712,2.52236 -13.00115,2.40494 -17.96899,-0.25376 -6.59873,-3.53154 -11.22889,-22.04964 -6.65644,-26.6221 0.9104,-0.91039 1.9604,-5.01861 2.33333,-9.12937 0.46143,-5.0861 1.41186,-7.93441 2.97471,-8.91477 4.18535,-2.62543 5.48936,0.563 3.71864,9.09247 -1.93655,9.32829 0.24699,25.3773 3.62927,26.67521 3.00405,1.15276 14.8139,-3.05454 16.28386,-5.80118 0.68,-1.27058 0.89803,-6.7837 0.48451,-12.25138 -0.80571,-10.65324 0.70941,-14.00167 5.85636,-12.94261 1.92341,0.39576 2.32671,1.60374 2.03987,6.11009 -0.3315,5.20783 -0.11307,5.61681 3,5.61681 4.27525,0 4.40618,3.19771 0.48065,11.73981 -2.84847,6.1984 -2.85408,6.37186 -0.56967,17.57378 1.26895,6.22246 2.80499,11.92246 3.41343,12.66666 2.43265,2.97546 2.02857,7.66854 -0.82464,9.57747 -2.58961,1.73257 -3.19291,1.60135 -6.43001,-1.39871 z m 2460.95436,28.94176 c -1.65,-1.15098 -3,-2.82733 -3,-3.72521 0,-0.89789 -0.8306,-3.37471 -1.8458,-5.50404 -1.0152,-2.12933 -2.205,-9.81135 -2.644,-17.07113 -0.4391,-7.25979 -1.1175,-13.51878 -1.5075,-13.90887 -0.3901,-0.39008 -2.6503,1.1002 -5.0227,3.31175 -4.902,4.56978 -12.5366,7.13006 -21.2613,7.13006 -9.8936,0 -12.6017,-5.46778 -10.0572,-20.30606 1.1808,-6.88608 2.28,-9.55582 4.5451,-11.04003 3.8632,-2.53119 4.4964,-1.30804 4.6248,8.93331 0.059,4.62704 0.6682,9.10254 1.356,9.94558 0.7437,0.91178 3.3121,1.25624 6.3393,0.85022 2.7989,-0.37542 6.2577,-0.0571 7.6863,0.7075 3.2418,1.735 4.7434,0.81942 9.0402,-5.51221 2.3796,-3.50664 3.4135,-6.80211 3.4135,-10.881 0,-4.84744 0.5004,-6.00973 2.9172,-6.77684 5.6111,-1.78087 7.3832,2.82475 7.5727,19.68017 0.2156,19.197 1.1376,25.42406 5.0306,33.98059 3.7335,8.20547 3.6814,7.69309 1.051,10.32353 -2.585,2.58486 -4.3786,2.55495 -8.2382,-0.13732 z M 2124.258,639.13181 c -1.0426,-6.29132 -1.0571,-9.63881 -0.051,-11.52031 0.8343,-1.55877 1.0593,-5.36678 0.5459,-9.23706 -2.7299,-20.57867 0.9864,-55.01585 7.0186,-65.04112 1.5444,-2.56667 3.979,-7.07727 5.41,-10.02355 5.1799,-10.66414 18.2458,-17.48781 28.405,-14.83444 8.7832,2.29402 12.6858,22.99576 5.746,30.48008 -1.8334,1.97718 -3.3334,4.01315 -3.3334,4.52439 0,0.51125 -1.4866,4.07205 -3.3036,7.91289 -5.7401,12.13359 -16.6898,17.30913 -26.2754,12.4195 -1.2351,-0.63004 -2.5851,-1.14554 -3,-1.14554 -1.5935,0 -0.655,10.57872 1.3681,15.42059 1.474,3.52788 1.8821,7.14153 1.3361,11.82949 -0.4324,3.71245 -1.1517,13.34992 -1.5985,21.41659 -0.4808,8.67837 -1.4345,15.06662 -2.3363,15.64625 -0.838,0.53877 -3.085,0.98877 -4.9933,1 -3.2455,0.0191 -3.5644,-0.55221 -4.9391,-8.84776 z m 30.1854,-69.7203 c 2.3228,-2.89034 4.2232,-6.67034 4.2232,-8.4 0,-1.72967 0.5515,-3.71486 1.2255,-4.41152 1.5225,-1.57375 4.3785,-16.77374 3.3457,-17.80652 -0.4152,-0.41526 -2.6521,-0.85042 -4.9709,-0.96704 -9.6436,-0.485 -20.9336,15.93172 -20.9336,30.43936 0,5.88434 0.5917,6.40086 7.3324,6.40086 4.8635,0 6.0801,-0.65396 9.7777,-5.25514 z M 800.66438,641.32612 c -0.46676,-1.47062 -2.21695,-4.32062 -3.88931,-6.33334 -2.90025,-3.49048 -4.72782,-10.14238 -5.58452,-20.32613 -0.2159,-2.56667 -0.97776,-7.37623 -1.69298,-10.68792 -0.71524,-3.31168 -1.72644,-13.30468 -2.24714,-22.20665 -0.9092,-15.54401 -0.8008,-16.58549 2.73555,-26.28156 3.98643,-10.93009 7.88051,-15.06436 17.00708,-18.05604 4.18885,-1.37311 5.67144,-1.29831 9.20485,0.46439 2.31648,1.15561 5.60419,2.10112 7.30603,2.10112 8.15605,0 9.19061,18.17781 1.70623,29.97946 -2.13227,3.36223 -3.87684,6.58772 -3.87684,7.16775 0,0.58004 -1.38867,2.3592 -3.08594,3.95371 -4.19209,3.93825 -8.58689,3.74264 -10.5052,-0.46762 -1.35634,-2.97684 -1.07152,-3.86462 2.45963,-7.66666 4.33139,-4.66367 12.46484,-20.5177 12.46484,-24.29692 0,-1.90564 -0.76819,-2.18275 -4.16667,-1.50306 -2.29166,0.45834 -5.60048,0.83334 -7.35292,0.83334 -1.7526,0 -5.3696,2.0009 -8.03874,4.44698 -4.24718,3.89226 -4.93087,5.3919 -5.48066,12.02166 -0.76352,9.20697 2.05647,41.03539 3.79188,42.79802 0.68591,0.69667 1.24711,3.10063 1.24711,5.34213 0,2.24151 0.63676,6.17151 1.41501,8.73334 4.54776,14.97002 5.28218,19.01452 3.78116,20.82313 -2.23888,2.69768 -6.22333,2.23321 -7.19845,-0.83913 z M 2260.3333,621.03933 c -1.65,-0.79577 -3,-2.27945 -3,-3.29709 0,-1.01763 -1.2272,-3.51011 -2.7271,-5.53884 -4.0794,-5.51764 -4.6246,-35.69387 -0.967,-53.51335 1.4326,-6.97953 3.1498,-13.26006 3.8161,-13.95673 0.6663,-0.69667 1.2113,-2.94667 1.2113,-5 0,-2.42963 0.6984,-3.73333 2,-3.73333 1.1,0 2,-0.6 2,-1.33334 0,-0.73333 0.9211,-1.33333 2.047,-1.33333 1.1257,0 3.5844,-1.00741 5.4636,-2.23871 1.9673,-1.28905 6.2321,-2.27884 10.0537,-2.33333 5.9635,-0.0851 7.0807,0.38921 11.0079,4.6728 3.791,4.13503 4.4969,6.04809 5.3221,14.42221 0.6963,7.06535 0.4941,10.2058 -0.7536,11.70926 -0.9379,1.12996 -2.6281,4.66528 -3.7563,7.85628 -2.7054,7.65298 -15.3138,21.91149 -19.3757,21.91149 -2.0161,0 -3.3001,1.00444 -3.8349,3 -1.2502,4.6648 -0.9812,16.45616 0.462,20.25181 0.8898,2.34076 0.8221,4.47925 -0.2142,6.75347 -1.6224,3.56085 -3.9574,4.01446 -8.7549,1.70073 z m 14.9685,-45.77242 c 4.9827,-3.8004 8.6975,-10.60184 10.1594,-18.60026 0.536,-2.93333 1.3732,-6.59389 1.8602,-8.13456 0.518,-1.63866 0.151,-3.5988 -0.8846,-4.72298 -0.9736,-1.05696 -2.4315,-3.0964 -3.2396,-4.5321 -3.5655,-6.33337 -12.2548,-1.94032 -15.0967,7.63239 -0.9401,3.16649 -2.2284,6.39596 -2.8629,7.1766 -1.484,1.82579 -1.8964,14.62971 -0.6522,20.24732 1.1964,5.40179 4.483,5.68811 10.7164,0.93359 z m -1148.7195,25.06337 c -4.6258,-5.42803 -4.5468,-9.66363 0.1801,-9.66363 4.5069,0 5.1976,-4.18417 4.5993,-27.86122 -0.5818,-23.0236 -1.3821,-30.87376 -3.5816,-35.13408 -0.6612,-1.28076 -1.8366,-5.78076 -2.6119,-10 -1.1637,-6.33272 -2.2507,-8.36936 -6.2291,-11.67136 -2.6506,-2.2 -6.0463,-4.61391 -7.5459,-5.36423 -1.5204,-0.76076 -2.9132,-2.97253 -3.1484,-5 -0.3775,-3.253 0,-3.63577 3.6256,-3.63577 6.5527,0 14.464,4.8918 16.3511,10.11045 0.9061,2.50592 2.0466,4.55621 2.5344,4.55621 0.9264,0 4.585,9.96178 8.4256,22.94159 1.2532,4.23536 2.1875,11.62403 2.1074,16.66667 -0.079,4.98213 0.4244,10.89616 1.119,13.14229 0.7065,2.28465 0.8948,10.90687 0.4275,19.57063 -0.6911,12.81214 -1.3187,16.13657 -3.6339,19.24945 -3.4384,4.62313 -9.5931,5.64394 -12.6192,2.093 z m 1244.4458,-2.58319 c -0.6335,-1.32757 -0.7416,-11.71377 -0.2404,-23.08044 0.5012,-11.36666 0.5919,-25.00558 0.2015,-30.3087 -0.6358,-8.63768 -1.1862,-10.16542 -5.2834,-14.66667 -5.4128,-5.94636 -6.7996,-9.01024 -5.9916,-13.23673 0.8884,-4.64731 2.9986,-3.86252 10.4298,3.87877 10.9576,11.41503 11.8077,14.59333 11.8337,44.24076 0.02,23.27033 -0.2099,25.82117 -2.7165,30.08821 -3.1295,5.32705 -6.5514,6.6092 -8.2331,3.0848 z M 858.90711,588.75413 c -5.95606,-3.388 -7.2008,-6.80924 -7.16006,-19.67996 0.0376,-11.88881 1.73453,-17.57521 3.54367,-11.87506 1.46184,4.60584 4.70927,3.4318 4.70927,-1.70254 0,-4.97441 2.58365,-7.96457 6.26928,-7.25568 2.03441,0.39131 2.43041,2.00363 2.61548,10.64911 0.3206,14.97641 3.24936,18.90981 9.64408,12.95221 2.61907,-2.44002 2.97085,-3.89829 2.58475,-10.71469 -0.33564,-5.92573 0.0511,-8.2052 1.55308,-9.15515 6.24006,-3.94648 12.88608,2.17136 11.3548,10.4524 -1.7368,9.39242 -9.67156,20.79219 -17.49218,25.1308 -4.52532,2.51049 -14.16338,3.16603 -17.62217,1.19856 z m 183.01439,-1.37841 c -1.4235,-1.07667 -3.3739,-1.97667 -4.3342,-2 -0.9604,-0.0233 -4.4451,-2.2924 -7.7438,-5.0424 -9.182,-7.65457 -10.635,-11.99808 -13.2689,-39.66667 -0.3491,-3.66666 0.3478,-13.26666 1.5487,-21.33333 1.7296,-11.61881 3.0116,-15.98279 6.169,-21 3.2598,-5.17989 4.6888,-6.33333 7.8467,-6.33333 2.3984,0 3.861,-0.69871 3.861,-1.8445 0,-1.57998 3.6918,-3.4104 7,-3.47064 0.55,-0.0107 1,1.4818 1,3.31514 0,2.74797 -0.6443,3.33333 -3.669,3.33333 -2.9746,0 -4.2153,1.07237 -6.5561,5.66667 -4.896,9.60912 -5.7627,14.38933 -6.108,33.68584 -0.4095,22.89029 0.8905,33.55485 4.219,34.61126 1.3068,0.41479 3.0404,2.21231 3.8525,3.99451 0.9788,2.14823 3.2939,3.72975 6.869,4.69243 2.9901,0.80516 5.3926,2.2707 5.3926,3.28957 0,1.01063 0.7429,2.08515 1.651,2.38783 1.3041,0.43472 1.3101,1.29833 0.028,4.1111 -1.8302,4.01681 -3.9797,4.461 -7.7581,1.60319 z m -117.44894,-1.6318 c -1.57341,-0.30776 -3.91641,-1.72605 -5.20665,-3.15176 -2.23872,-2.47375 -2.23875,-2.71056 -6.8e-4,-5.1836 1.9452,-2.14941 2.79229,-2.31999 4.96631,-1 2.26306,1.37405 3.0627,1.04507 5.85437,-2.40857 4.18688,-5.17972 3.58167,-6.57692 -3.06269,-7.07047 -4.5906,-0.34099 -5.57164,-0.94351 -6.30703,-3.87352 -1.33505,-5.31927 2.75325,-7.03025 10.75151,-4.49959 2.12609,0.67271 5.51562,1.58415 7.53229,2.02542 3.11505,0.6816 3.66667,1.47761 3.66667,5.29116 0,4.46665 -1.51979,8.32209 -5.33334,13.52981 -2.07606,2.83504 -8.06774,7.39955 -9.29668,7.08228 -0.38682,-0.0999 -1.99066,-0.43339 -3.56408,-0.74116 z M 2339.197,581.03928 c -5.838,-6.63311 -9.8637,-12.99587 -9.8637,-15.59001 0,-3.66031 -3.9872,-13.44928 -5.4781,-13.44928 -0.6538,0 -1.1886,-1.16459 -1.1886,-2.58798 0,-1.42338 -0.5492,-2.9274 -1.2204,-3.34224 -0.6712,-0.41484 -1.6374,-5.20432 -2.147,-10.64329 -0.7506,-8.00951 -0.5187,-10.47167 1.2204,-12.95445 1.1809,-1.68596 2.147,-4.44003 2.147,-6.12015 0,-3.12685 2.387,-8.33324 4.5331,-9.88735 0.6599,-0.47782 2.6995,0.52194 4.5327,2.22171 l 3.3329,3.09047 -2.676,5.7783 c -3.7921,8.1885 -4.9547,16.91988 -2.6128,19.62424 1.8711,2.16064 4.2129,9.19771 3.7437,11.24935 -0.1377,0.60241 0.8664,3.30241 2.2315,6 1.3651,2.6976 3.9089,7.74024 5.6529,11.20588 1.7442,3.46564 3.9416,6.59681 4.8832,6.95816 1.9339,0.74209 2.3858,10.07401 0.4879,10.07401 -0.6733,0 -2.0521,0.31768 -3.064,0.70596 -1.0119,0.38828 -3.0435,-0.66172 -4.5147,-2.33333 z m -1263.0597,-5.19756 c -1.7454,-1.62608 -2.7321,-3.74797 -2.325,-5 5.6019,-17.22869 10.9725,-41.54003 9.8328,-44.51012 -1.3238,-3.44977 -10.4593,-1.79695 -13.897,2.51428 -2.7187,3.40963 -3.1886,3.5474 -6.3422,1.85963 -1.8732,-1.00254 -3.4059,-2.692 -3.4059,-3.75436 0,-3.27915 10.0257,-12.2845 13.6765,-12.2845 1.8279,0 5.0893,-0.35316 7.2475,-0.7848 3.0287,-0.60574 4.8919,0.0297 8.1666,2.7852 3.6638,3.08283 4.2384,4.41806 4.2109,9.78479 -0.017,3.41815 -0.6561,8.61481 -1.4191,11.54815 -2.8346,10.89769 -3.7799,16.71584 -3.0323,18.6639 1.0824,2.82058 5.3313,2.48806 8.4832,-0.6639 2.901,-2.90098 12.5,-3.76034 14.0469,-1.25755 2.0087,3.25015 -0.7365,7.72472 -5.7129,9.31189 -2.7504,0.87718 -7.7006,3.82698 -11.0006,6.55508 -10.7006,8.8462 -13.7317,9.70211 -18.5294,5.23231 z m -114.80398,-1.17507 c 0,-0.73333 -0.831,-1.33333 -1.84665,-1.33333 -3.64636,0 -7.37211,-9.75145 -8.15085,-21.33333 -0.074,-1.1 -0.61456,-5.37515 -1.20134,-9.50032 -1.62257,-11.40716 2.67212,-27.83302 7.27719,-27.83302 0.54911,0 1.37657,6.45 1.83883,14.33334 1.33366,22.74465 2.19482,29.31818 4.18036,31.90989 1.73536,2.26516 2.18469,2.03193 6.87954,-3.57076 8.59936,-10.2622 10.98803,-12.0058 16.44755,-12.0058 4.51188,0 5.17712,0.4504 6.40029,4.33333 2.10756,6.69042 3.22948,16.60695 2.29851,20.31626 -0.59064,2.3533 -1.746,3.35041 -3.88216,3.35041 -4.05317,0 -6.24127,-2.40313 -6.24127,-6.85464 0,-5.97631 -2.5706,-5.81545 -8.57065,0.53631 -3.11237,3.2948 -6.91777,6.6643 -8.45645,7.48777 -3.46838,1.85623 -6.9729,1.9386 -6.9729,0.16389 z m 1248.95708,0.51259 c -0.5264,-0.52637 -0.9571,-2.35703 -0.9571,-4.06815 0,-2.75653 0.6459,-3.12178 5.6667,-3.20482 3.1166,-0.0516 6.7894,-0.53495 8.1618,-1.07423 2.5107,-0.9866 7.5018,-12.04543 7.5038,-16.62633 0,-4.0973 -4.3554,-10.20506 -7.2864,-10.21394 -1.4919,-0.004 -4.4311,-0.90452 -6.5316,-2 -2.1006,-1.09548 -5.4402,-1.99178 -7.4214,-1.99178 -3.0898,0 -4.0164,0.99921 -6.5142,7.02577 -4.0832,9.85149 -3.9763,20.04696 0.2436,23.23005 2.9102,2.19522 3.0021,2.6148 1.18,5.39558 -2.7203,4.15174 -4.3464,3.8154 -10.115,-2.09211 l -4.9872,-5.10737 1.4662,-9.89263 c 0.8065,-5.44095 1.7785,-11.96213 2.1602,-14.49152 0.7886,-5.22611 10.9951,-16.06777 15.1263,-16.06777 1.3544,0 3.3848,-0.35396 4.5121,-0.78656 1.213,-0.46542 3.4574,0.62092 5.4971,2.66065 1.896,1.89597 5.3727,4.41604 7.726,5.60015 2.3532,1.1841 6.5287,4.30857 9.2787,6.94326 4.6365,4.44216 5,5.34463 5,12.41611 0,6.55013 -0.6112,8.4264 -4.3334,13.30212 -2.503,3.27876 -5.9749,6.11455 -8.2197,6.71376 -2.1375,0.57056 -4.2375,1.58936 -4.6667,2.264 -1.023,1.60817 -11.2552,3.30051 -12.4898,2.06576 z M 902.89374,561.66665 c -1.66266,-3.23274 -0.61444,-5.39786 3.69124,-7.62442 3.62121,-1.8726 3.70026,-1.82716 5.17366,2.97358 1.14768,3.73951 1.11712,5.11616 -0.1312,5.90931 -2.86106,1.81783 -7.49492,1.15013 -8.7337,-1.25847 z m 668.66186,-18.55556 c -0.4889,-0.48888 -0.8923,-4.53888 -0.8964,-9 0,-4.4611 -0.6436,-10.40202 -1.4211,-13.20205 -0.8605,-3.09875 -0.9377,-5.70756 -0.1973,-6.66667 1.8439,-2.38888 1.614,-33.65257 -0.3255,-44.24238 -2.1154,-11.5512 -1.5512,-60.74328 0.8162,-71.1336 1.1568,-5.07748 2.4193,-7.43428 4.3802,-8.17679 3.3152,-1.2553 5.5219,-0.25657 3.6248,1.64055 -0.9278,0.92781 -0.7154,2.35 0.6654,4.45755 1.1154,1.70226 1.6509,3.70517 1.19,4.45092 -0.461,0.74574 -1.1094,3.47497 -1.441,6.06494 -0.3316,2.58996 -1.3154,5.8501 -2.1864,7.24472 -1.218,1.95027 -1.2224,4.18054 -0.019,9.66036 0.988,4.49894 1.6954,24.40887 1.9194,54.02345 0.1952,25.79434 0.8242,47.36802 1.3976,47.94154 0.5735,0.5735 3.1207,-0.0763 5.6604,-1.44406 4.3976,-2.36825 8.8844,-3.48148 23.9438,-5.9407 3.6666,-0.59878 10.5666,-0.60427 15.3333,-0.012 4.7667,0.59206 9.8667,0.81612 11.3333,0.49792 4.261,-0.92444 59.2482,-3.73252 67.5294,-3.44858 5.3874,0.18472 8.1354,-0.34796 9.6601,-1.87256 2.2044,-2.20441 3.6012,-2.42686 24.8105,-3.95125 6.9667,-0.50071 14.8513,-1.46156 17.5213,-2.13523 8.5166,-2.14872 12.6654,-11.21057 13.2363,-28.91104 0.6057,-18.7763 0.5765,-20.99312 -0.6552,-49.62259 -1.3269,-30.84435 -1.3341,-37.9163 -0.048,-47.1359 0.8484,-6.0822 0.7401,-6.41772 -1.8104,-5.60822 -1.8552,0.58884 -3.1361,0.10493 -4.0523,-1.53078 -0.981,-1.75148 -3.2384,-2.4826 -8.4324,-2.73106 -14.9978,-0.71746 -21.4189,-0.32238 -27.3196,1.68098 -3.3618,1.14138 -9.4861,2.59035 -13.6094,3.21995 -9.6425,1.47233 -27.5052,6.36276 -32.3035,8.84403 -2.0502,1.06021 -5.7653,1.92766 -8.2557,1.92766 -2.4904,0 -6.3452,0.9065 -8.566,2.01443 -2.2209,1.10793 -7.5441,2.66256 -11.8292,3.45471 -4.2852,0.79216 -10.2103,2.73566 -13.1669,4.3189 -4.7799,2.55959 -7.1488,2.84135 -21.3756,2.54227 -25.1627,-0.529 -36.0176,-3.81587 -33.5802,-10.16796 0.753,-1.96203 3.0484,-2.11224 21.2122,-1.38813 19.2514,0.76746 20.9161,0.63134 30.368,-2.48294 5.5,-1.8122 14.8,-4.65314 20.6666,-6.31318 5.8667,-1.66006 14.8667,-4.39834 20,-6.08507 11.6095,-3.81467 24.8002,-7.31407 32.6667,-8.66624 6.0373,-1.03776 14.5094,-3.08621 22.0946,-5.34225 5.4603,-1.62404 16.058,-1.53088 22.2758,0.1958 3.6442,1.01202 6.225,0.96965 9.3333,-0.15322 2.9053,-1.04957 6.2388,-1.16713 10.2963,-0.36314 l 6,1.18888 0.1978,35.29024 c 0.1094,19.40962 0.7088,44.42792 1.3334,55.5962 0.6341,11.33965 0.6274,22.23147 -0.015,24.66666 -1.3461,5.10217 -1.9281,10.6316 -2.8403,26.98587 -0.5292,9.4877 -1.2038,12.49536 -3.2654,14.55692 -2.1864,2.18633 -2.9334,2.32054 -4.7098,0.8462 -2.581,-2.14202 -19.2846,-1.13363 -33.3674,2.01436 -20.2087,4.51736 -34.8072,6.0431 -64,6.68889 -28.1755,0.62328 -41.1535,2.06823 -43.0756,4.79597 -0.9583,1.35987 -2.9621,2.4725 -4.4529,2.4725 -1.491,0 -3.8447,1.35 -5.2307,3 -2.0336,2.42092 -2.7537,2.64532 -3.7313,1.1625 -1.4138,-2.14446 -4.1762,-0.87696 -4.1762,1.91619 0,1.05672 -0.6,1.92131 -1.3333,1.92131 -0.7333,0 -1.3333,-0.9 -1.3333,-2 0,-1.22756 -1.2479,-2 -3.2311,-2 -1.7771,0 -5.0136,-1.5 -7.1924,-3.33334 -2.1788,-1.83333 -4.3181,-3.33333 -4.7541,-3.33333 -0.436,0 -4.343,2.7 -8.6822,6 -7.5808,5.76531 -10.6741,7.02163 -12.5846,5.11111 z m 762.186,-38.63585 c -2.3823,-0.96909 -0.5011,-4.47525 2.401,-4.47525 2.788,0 2.8832,0.17914 1.7147,3.22428 -0.8363,2.17925 -1.4073,2.35281 -4.1157,1.25097 z m -667.0828,-18.14192 c -2.9624,-6.44389 -2.6835,-22.62273 0.4497,-26.08487 2.3722,-2.62124 2.3627,-2.7773 -0.3333,-5.47331 -1.9781,-1.97812 -2.7752,-4.47578 -2.7752,-8.69646 0,-3.25672 -0.4567,-6.20352 -1.0147,-6.54844 -1.5878,-0.98133 -5.1658,2.1708 -6.2145,5.47487 -1.59,5.0096 -5.2859,3.22329 -6.6857,-3.2314 -1.117,-5.15033 2.7834,-11.83467 9.4592,-16.21076 5.5677,-3.64979 6.0493,-3.62708 10.9748,0.51741 5.2004,4.37591 6.1764,9.76403 4.0068,22.11964 -2.4786,14.11489 -2.7006,26.62796 -0.525,29.5882 1.5975,2.17368 2.3303,2.26463 6.3974,0.79397 2.5262,-0.9135 8.6416,-5.20054 13.5898,-9.52677 9.8403,-8.60349 15.0064,-9.95065 14.304,-3.73003 -0.5754,5.09727 -7.0137,13.41882 -12.252,15.83599 -2.5886,1.19457 -5.4745,3.19864 -6.4128,4.45348 -1.9937,2.6664 -9.6444,5.03379 -16.3018,5.04437 -3.9795,0.007 -4.9707,-0.63689 -6.6667,-4.32589 z M 585.04509,420.24242 c -0.46364,-1.70002 -0.24679,-4.8012 0.4819,-6.89154 0.8946,-2.56622 0.86419,-5.45978 -0.0936,-8.90909 -0.7802,-2.80965 -1.42522,-9.90847 -1.4334,-15.77513 -0.008,-5.86667 -0.64026,-12.9186 -1.40462,-15.67095 -0.91632,-3.29956 -0.94434,-5.79769 -0.0823,-7.33333 1.8308,-3.26115 2.36515,-1.24354 4.07587,15.3899 1.6055,15.61027 1.70753,29.16192 0.27818,36.94771 -0.83522,4.54955 -1.103,4.87909 -1.8221,2.24243 z M 2742.618,404.33332 c -1.7846,-2.10868 -5.2886,-15.65088 -5.282,-20.4136 0,-1.1536 1.5004,-2.02368 3.7556,-2.18021 2.8266,-0.19619 4.2632,0.62647 5.8205,3.33333 1.1372,1.9766 1.8357,4.2284 1.5521,5.004 -0.2834,0.7756 0.996,2.83019 2.8435,4.56575 4.4361,4.16755 4.2445,7.49764 -0.5748,9.98983 -4.9829,2.57672 -5.7037,2.55016 -8.1149,-0.2991 z m -5.2847,-27.05818 c 0,-3.7333 5.8796,-9.86248 8.4973,-8.85799 1.71,0.65624 1.8202,1.52012 0.6288,4.93747 -0.8746,2.50918 -2.1262,3.88024 -3.1746,3.4779 -0.952,-0.36528 -2.0616,0.19796 -2.466,1.25166 -1.099,2.86404 -3.4855,2.31009 -3.4855,-0.80904 z M 580.17482,350.21064 c -0.81676,-0.98413 -1.09544,-2.17893 -0.61927,-2.65509 1.00066,-1.00067 4.44444,1.53648 4.44444,3.27436 0,1.75544 -2.14216,1.40864 -3.82517,-0.61927 z m -1.50816,-6.95601 c 0,-1.14328 0.6,-1.70787 1.33333,-1.25464 0.73334,0.45323 1.33334,1.38864 1.33334,2.07869 0,0.69006 -0.6,1.25464 -1.33334,1.25464 -0.73333,0 -1.33333,-0.93541 -1.33333,-2.07869 z M 1854.4732,180.33333 c -0.1067,-0.55 -0.3906,-3.1 -0.6314,-5.66667 -0.2409,-2.56666 -0.8114,-7.81336 -1.2681,-11.65932 -0.678,-5.71108 -0.436,-7.1439 1.3205,-7.81793 1.389,-0.53297 3.1251,0.41345 4.9016,2.67203 3.0563,3.88538 5.1795,3.50528 5.2514,-0.94014 0.052,-3.22858 3.83,-10.70245 3.9056,-7.72661 0.031,1.18132 1.1981,0.61953 3.1973,-1.53769 5.8128,-6.27216 10.9541,-8.0279 20.5108,-7.00446 8.5524,0.91588 8.6028,0.94571 8.044,4.75342 l -0.5624,3.83174 17.8176,-0.63602 c 11.1208,-0.39698 18.7991,-0.1108 20.4288,0.76138 3.8103,2.03919 3.2579,6.06864 -1.0556,7.7009 -3.7649,1.42468 -22.9256,3.091 -39.9096,3.47077 -8.5513,0.19121 -9.9335,0.59952 -12.9132,3.81469 -1.8352,1.9803 -2.7759,3.94722 -2.0904,4.37092 1.9983,1.23498 1.4383,6.89748 -0.9149,9.25062 -1.993,1.99302 -2.3212,1.93325 -4.2127,-0.76714 -1.8757,-2.6781 -1.8401,-3.08288 0.4163,-4.73286 2.3504,-1.71863 2.3288,-1.8043 -0.454,-1.8043 -1.6068,0 -2.9215,0.6 -2.9215,1.33334 0,0.73333 -2.1,1.33333 -4.6667,1.33333 -4.5177,0 -10,3.65484 -10,6.66667 0,1.53324 -3.9013,1.84334 -4.1934,0.33333 z M 3090,131.85271 c -3.7979,-2.25121 -7.7391,-6.55805 -6.8318,-7.46548 0.4235,-0.42338 3.0338,-0.83371 5.8008,-0.91184 4.8207,-0.13612 5.0483,-0.35088 5.4446,-5.1381 0.2857,-3.45226 1.2864,-5.46316 3.2382,-6.50776 3.559,-1.90469 20.8966,-0.73377 25.2266,1.70371 4.6305,2.60674 15.6342,5.34451 22.4549,5.58688 5.6432,0.20053 6.0235,0.45247 6.3948,4.23732 0.3681,3.75296 -0.033,4.15049 -5.9573,5.89964 -3.4936,1.03154 -12.6712,1.97466 -20.3947,2.09583 -7.7236,0.12117 -18.2428,0.63885 -23.3761,1.15039 -6.3543,0.63321 -10.1846,0.42555 -12,-0.65059 z m -26.4444,-4.7416 c -1.6774,-1.67731 -0.8888,-5.77778 1.111,-5.77778 1.2444,0 2,1.25926 2,3.33333 0,3.23716 -1.2982,4.25725 -3.111,2.44445 z"
       id="path244" />
  </g>
</svg>
