<?xml version="1.0" encoding="UTF-8" standalone="no"?>
<!-- Created with Inkscape (http://www.inkscape.org/) -->

<svg
   version="1.1"
   id="svg345"
   width="3478.6667"
   height="690.66669"
   viewBox="0 0 3478.6667 690.66669"
   sodipodi:docname="queue4.png"
   xmlns:inkscape="http://www.inkscape.org/namespaces/inkscape"
   xmlns:sodipodi="http://sodipodi.sourceforge.net/DTD/sodipodi-0.dtd"
   xmlns="http://www.w3.org/2000/svg"
   xmlns:svg="http://www.w3.org/2000/svg">
  <defs
     id="defs349" />
  <sodipodi:namedview
     id="namedview347"
     pagecolor="#ffffff"
     bordercolor="#000000"
     borderopacity="0.25"
     inkscape:showpageshadow="2"
     inkscape:pageopacity="0.0"
     inkscape:pagecheckerboard="0"
     inkscape:deskcolor="#d1d1d1"
     showgrid="false" />
  <g
     inkscape:groupmode="layer"
     inkscape:label="Image"
     id="g351">
    <path
       style="fill:#000000;stroke-width:1.33333"
       d="m 109.66667,570.64639 c -2.38334,-2.16816 -4.34252,-5.00057 -4.35375,-6.29424 -0.0112,-1.29368 -0.56937,-3.2198 -1.2403,-4.28029 -0.76127,-1.20325 -0.6752,-2.94591 0.22893,-4.63529 1.46332,-2.73424 3.47991,-9.72402 4.30956,-14.9375 0.24806,-1.55887 1.09094,-4.02997 1.87305,-5.49136 0.78211,-1.46139 1.20405,-2.88596 0.93764,-3.16572 -0.26641,-0.27975 -0.86943,-4.39829 -1.34005,-9.15232 -0.51002,-5.15205 -1.59181,-9.05564 -2.67804,-9.66352 -2.10734,-1.17933 -1.3177,-5.91716 1.53785,-9.22709 1.19374,-1.38368 1.40084,-2.50874 0.55775,-3.0298 -2.28746,-1.41372 2.85982,-8.65923 7.16736,-10.08903 2.2,-0.73024 5.5,-0.96931 7.33333,-0.53124 1.83333,0.43805 4.53333,0.69372 6,0.56813 1.46667,-0.1256 11.51667,-0.26734 22.33333,-0.31504 10.81667,-0.0477 19.66986,-0.45766 19.67375,-0.91105 0.004,-0.45339 10.6539,-0.99844 23.66667,-1.21121 17.02445,-0.27839 27.58576,0.22628 37.65959,1.79954 23.0451,3.59902 66.51242,3.08014 78.50806,-0.93718 2.6539,-0.88879 6.32527,-1.50742 8.1586,-1.37474 9.54302,0.69064 28.43672,2.92746 36.66667,4.34094 10.60043,1.8206 10.05429,1.80536 28,0.7819 7.33333,-0.41822 19.03333,-1.06285 26,-1.43252 6.96667,-0.36966 15.89856,-1.29888 19.84865,-2.06493 9.60152,-1.86204 29.72774,-1.77097 34.39788,0.15563 3.96611,1.63617 28.81228,2.75238 66.42014,2.98396 12.46667,0.0768 24.05149,0.63985 25.74407,1.25133 1.82121,0.65795 5.72161,0.47744 9.55512,-0.44221 7.2475,-1.73864 36.57066,0.0913 41.20486,2.57145 1.79918,0.96288 4.87455,0.92029 10.15754,-0.14068 9.31906,-1.87153 77.09452,0.45497 104.67174,3.59305 10.93463,1.24427 27.94387,1.973 43.33334,1.85655 34.04246,-0.25763 52.16846,0.1216 67.34928,1.40915 14.79017,1.25438 51.13827,0.39058 55.98405,-1.33043 10.18364,-3.61681 64.38202,-5.40332 75.23827,-2.48003 8.33865,2.24536 41.95459,2.32223 54.51979,0.12467 14.6937,-2.56983 23.7256,-2.88171 44.2419,-1.52772 13.6961,0.90388 19.7116,0.71512 28.6667,-0.89951 14.2327,-2.56618 19.5467,-2.52445 38.8677,0.30526 16.2215,2.37577 16.7318,2.35652 58.4656,-2.20679 5.5,-0.60139 14.501,-1.13612 20.0022,-1.18829 5.5012,-0.0521 17.5012,-1.63088 26.6667,-3.50824 24.3927,-4.99634 23.7023,-4.89666 36.1285,-5.21676 6.3052,-0.16243 12.1276,-0.70546 12.9387,-1.20672 2.7307,-1.68767 7.6157,0.60448 10.4483,4.90256 1.9805,3.00526 2.8495,6.53225 2.9378,11.92356 0.1887,11.52273 2.6496,29.12909 4.3594,31.18936 0.8314,1.00176 0.9882,1.83056 0.3484,1.84178 -0.6398,0.0107 -0.3413,0.54115 0.6634,1.17759 4.472,2.83296 2.2893,25.26339 -2.9001,29.802 -3.6144,3.16107 -7.5933,3.02763 -7.5933,-0.25464 0,-1.42338 -0.6239,-2.97357 -1.3864,-3.44486 -1.3351,-0.82511 -0.7782,-11.54336 0.7262,-13.97755 0.3869,-0.626 -0.8262,-5.69499 -2.6958,-11.26443 -1.9084,-5.68496 -3.7522,-14.93589 -4.2039,-21.09239 -0.4425,-6.03137 -1.3985,-11.7191 -2.1244,-12.6394 -1.5205,-1.92766 -25.4627,-1.21492 -35.649,1.06126 -12.161,2.71744 -31.8071,5.06748 -49.2235,5.88805 -9.8396,0.46359 -18.3772,1.14388 -18.9724,1.51173 -3.4718,2.1457 -36.3086,2.0514 -53.8911,-0.15476 -10.5227,-1.32033 -20.0329,-1.90374 -21.4193,-1.314 -5.6347,2.39674 -35.2971,3.15099 -56.4937,1.43651 -9.3167,-0.75357 -16.4145,-0.46003 -26.8378,1.10997 -15.9281,2.39915 -41.72191,2.781 -53.93568,0.79847 -9.16887,-1.48829 -45.90586,-2.09925 -55.64178,-0.92537 -3.5284,0.42542 -9.5284,1.40472 -13.33333,2.17618 -17.41616,3.53123 -46.1397,4.33578 -73.58474,2.06114 -14.32437,-1.1872 -17.9074,-1.2359 -62.66666,-0.85175 -16.13334,0.13847 -31.75342,-0.0243 -34.71128,-0.36155 -5.67632,-0.64732 -13.97724,-1.3023 -43.28872,-3.41566 -9.9,-0.71379 -31.8,-1.40595 -48.66667,-1.53815 -16.86667,-0.13213 -36.36667,-0.69337 -43.33333,-1.24708 -6.96667,-0.55371 -35.76667,-1.33369 -64,-1.73331 -53.09187,-0.75146 -56.29623,-0.91458 -70.48058,-3.5877 -8.66424,-1.63283 -20.66424,-1.19676 -40.85276,1.48454 -30.27724,4.02124 -47.39473,3.8083 -88.75648,-1.10416 -5.38243,-0.63926 -12.57509,-0.45093 -18.66667,0.48875 -28.94136,4.46449 -64.9906,5.07316 -79.24352,1.33795 -10.14157,-2.65775 -36.96149,-3.53867 -55.33333,-1.81746 -5.5,0.51528 -18.94403,1.01574 -29.87563,1.11211 -10.9316,0.0964 -19.10961,0.64865 -18.17336,1.22728 1.33012,0.82207 1.25076,1.30473 -0.363,2.20784 -1.13589,0.63568 -2.10788,1.60577 -2.15997,2.15577 -0.0521,0.55 -0.15043,1.15 -0.21854,1.33334 -0.0681,0.18333 -0.31142,7.42221 -0.54069,16.0864 -0.38567,14.5743 -1.25695,19.29892 -5.02258,27.23555 -1.47657,3.11208 -0.58536,5.9656 3.68215,11.78962 1.84954,2.52416 1.80662,3.04242 -0.46939,5.66667 -3.37784,3.89469 -6.68006,3.57952 -11.85899,-1.13187 z m 2393.66083,0.0107 c -0.4564,-0.73852 0.1341,-1.71264 1.3121,-2.16472 2.553,-0.97963 3.9758,0.0999 2.7486,2.08543 -1.1072,1.79144 -2.9799,1.82801 -4.0607,0.0793 z m -836.2164,-58.04924 c 0,-1.06774 0.5,-1.94135 1.1112,-1.94135 0.611,0 1.111,0.56459 1.111,1.25464 0,0.69005 -0.5,1.56367 -1.111,1.94135 -0.6112,0.37769 -1.1112,-0.1869 -1.1112,-1.25464 z M 1559.75,451.08899 c 0.9625,-0.38516 2.1125,-0.3378 2.5556,0.1052 0.4431,0.44305 -0.3445,0.75819 -1.75,0.70029 -1.5533,-0.064 -1.8692,-0.37992 -0.8056,-0.80554 z m 46.2943,-32.75147 c -3.0163,-2.62815 -3.5519,-4.38195 -4.2771,-14.00439 -0.456,-6.05 -1.2363,-11 -1.7339,-11 -0.4976,0 -0.6576,-1.68413 -0.3556,-3.7425 0.8766,-5.9715 -2.0253,-7.2695 -16.0148,-7.16368 -6.7813,0.0513 -18.9296,-0.73523 -26.9962,-1.74784 -8.0667,-1.0126 -20.6667,-1.62347 -28,-1.35748 -15.6547,0.56782 -44.2703,2.94892 -45.6838,3.80133 -0.5406,0.32601 -6.0829,0.96821 -12.3162,1.42709 -6.2334,0.4589 -15.5334,1.25612 -20.6667,1.77163 -5.1333,0.51551 -10.2333,0.78969 -11.3333,0.60932 -1.1,-0.18037 -7.978,-0.64169 -15.2846,-1.02517 -7.3064,-0.38348 -13.4565,-0.8693 -13.6668,-1.07959 -0.2102,-0.21031 -0.6297,-2.43228 -0.9321,-4.93773 -0.39,-3.23111 0.2087,-5.37378 2.0589,-7.37059 2.4906,-2.68756 3.5887,-2.79121 24.2167,-2.28604 27.6691,0.67759 49.0347,0.53416 50.4469,-0.33865 0.6091,-0.37643 5.7695,-0.92304 11.4675,-1.2147 22.7313,-1.16348 34.5515,-2.15169 38.4507,-3.21461 4.3573,-1.18781 14.7302,-0.0957 17.9416,1.88904 2.7217,1.68213 45.2293,1.66364 45.575,-0.0199 0.1506,-0.73333 0.3006,-8.08077 0.3334,-16.32765 l 0.06,-14.99432 -7.7528,-0.005 c -7.0676,-0.005 -8.0691,-0.38016 -11.3334,-4.2434 -1.9693,-2.33074 -4.3016,-5.93074 -5.1828,-8 -1.4486,-3.40144 -2.2322,-3.76228 -8.1701,-3.76228 -3.9833,0 -7.1736,-0.72997 -8.1073,-1.85505 -0.8467,-1.02028 -4.2399,-2.26 -7.5404,-2.75493 -3.7831,-0.56732 -6.596,-1.85279 -7.6111,-3.47828 -1.6112,-2.57998 -7.6355,-3.65478 -7.6355,-1.36227 0,0.66888 -2.3968,1.62108 -5.3264,2.11601 -2.9294,0.49495 -5.6648,1.44768 -6.0786,2.1172 -1.788,2.89316 -23.2616,-1.04814 -23.2616,-4.26948 0,-1.24164 -4.8563,-6.5132 -6,-6.5132 -0.3667,0 -0.6695,0.75 -0.6728,1.66667 -0.013,2.05415 -5.966,8.50316 -13.593,14.71225 -5.7217,4.65811 -18.3542,8.95442 -26.3288,8.95442 -5.411,0 -10.7388,-4.67848 -10.7388,-9.43011 0,-2.14677 0.6,-3.90323 1.3334,-3.90323 0.7333,0 1.3333,-0.89985 1.3333,-1.99968 0,-1.94614 10.9079,-13.3052 17.9255,-18.66698 1.9196,-1.46667 4.2258,-4.16667 5.1249,-6 1.1667,-2.37876 2.9069,-3.45551 6.0771,-3.75996 5.1972,-0.49914 8.0981,2.40478 8.1634,8.17198 0.1094,9.63171 5.042,-3.93876 6.2082,-17.07869 0.3254,-3.66667 0.8645,-8.35803 1.198,-10.42524 0.3334,-2.06723 -0.013,-6.49935 -0.7586,-9.84916 -1.9525,-8.71255 1.4438,-19.05894 6.2563,-19.05894 6.05,0 7.9396,2.0111 8.2924,8.82523 0.1804,3.48499 0.6087,6.79046 0.9516,7.34548 0.5812,0.94042 -0.9955,18.88348 -2.9504,33.57607 -1.1071,8.32089 1.0913,12.4872 7.6215,14.44367 5.1992,1.55773 7.1526,1.16746 18.0777,-3.61155 5.3072,-2.32149 9.7337,-8.62236 9.8545,-14.02692 0.065,-2.94417 6.0438,-9.02205 9.8012,-9.96512 1.8678,-0.46877 5.2764,-0.0427 7.5758,0.94713 4.0749,1.75399 4.1628,1.97471 3.4814,8.75616 -0.4649,4.62763 -1.8486,8.46424 -4.133,11.45919 -1.8888,2.47631 -3.4342,5.13648 -3.4342,5.91149 0,1.87408 7.9574,6.49172 13.1535,7.63299 2.2821,0.50124 4.4916,1.46519 4.9099,2.14211 1.6478,2.66618 3.27,1.00074 3.27,-3.35723 0,-2.52339 0.6409,-4.98408 1.4242,-5.4682 0.7834,-0.48413 1.0812,-1.77395 0.6622,-2.86628 -1.0446,-2.72192 8.9912,-22.82397 13.851,-27.74421 8.0374,-8.13739 7.3911,-8.09214 15.3504,-1.07476 3.9896,3.51749 7.5815,7.70049 7.9818,9.29554 0.4529,1.80466 2.1372,3.20964 4.4588,3.71956 2.9046,0.63798 4.2169,2.13084 5.9256,6.74096 1.3281,3.58367 1.6896,6.2337 0.9152,6.71224 -0.7036,0.4349 -0.8995,1.40536 -0.4352,2.15659 1.4986,2.42489 -2.4083,17.02096 -5.5278,20.65132 -3.7296,4.34033 -5.052,11.77681 -6.573,36.96067 l -0.7951,13.16213 12.3809,-0.89981 c 22.2131,-1.61439 42.5076,-2.21744 74.381,-2.21021 27.7281,0.007 41.3493,-0.97879 60.6667,-4.38728 0.7333,-0.12934 2.2333,-0.8184 3.3333,-1.53111 1.1,-0.71271 13.1,-1.43063 26.6667,-1.59536 13.5666,-0.16475 27.6666,-0.88308 31.3333,-1.59632 3.6667,-0.71324 22.2667,-1.66972 41.3333,-2.12552 19.0667,-0.4558 37.9667,-1.47967 42,-2.27527 4.0334,-0.7956 19.0334,-1.67573 33.3334,-1.95586 14.3,-0.28012 30.05,-0.59339 35,-0.69615 8.4333,-0.17507 9,-0.37884 9,-3.2364 0,-1.67727 -1.1254,-5.92179 -2.5008,-9.43227 -3.3639,-8.58537 -2.0107,-12.38269 4.4125,-12.38269 2.5655,0 6.9348,0.98692 9.7097,2.19316 11.0534,4.80486 13.133,5.66338 15.3155,6.32249 2.5357,0.76576 8.0739,11.18213 6.9297,13.03352 -0.4033,0.65256 1.1819,1.85412 3.5226,2.67011 4.1312,1.44012 4.2318,1.65957 3.4333,7.48493 -0.4524,3.30072 -0.8225,6.74944 -0.8225,7.66383 0,0.95293 -2.6111,2.05407 -6.1176,2.57991 -4.9418,0.74104 -7.2742,2.11572 -12.134,7.15138 -3.3091,3.42871 -6.5412,7.584 -7.1827,9.234 -0.6416,1.65 -2.0601,3 -3.1525,3 -1.0923,0 -2.589,1.12658 -3.3259,2.50351 -1.3736,2.56656 -7.2373,4.40564 -10.2999,3.23043 -3.1374,-1.20395 -3.4537,-8.85566 -0.7092,-17.15534 1.5162,-4.58486 2.1255,-8.439 1.449,-9.16533 -0.642,-0.68937 -5.8234,-1.12923 -11.5139,-0.97745 -5.6907,0.15177 -21.9779,0.5597 -36.1937,0.90652 -14.2159,0.34681 -26.5159,1.1791 -27.3334,1.84953 -1.3285,1.08953 -12.4906,1.83849 -20.4862,1.37457 -12.8731,-0.7469 -35.2843,-0.19972 -54.3334,1.3266 -12.4666,0.9989 -29.1432,1.71022 -37.059,1.58072 -12.0899,-0.19778 -54.1387,4.12772 -56.9369,5.857 -1.9122,1.18183 -46.8914,2.17187 -88.6708,1.95174 -1.4666,-0.008 -7.9364,0.37682 -14.3772,0.85456 -12.89,0.9561 -13.323,1.26534 -14.7472,10.52961 -0.4509,2.93333 -1.3333,7.78168 -1.9608,10.77411 -0.6324,3.01642 -0.6321,6.81577 7e-4,8.52657 1.4479,3.9138 0.2793,7.6562 -2.9263,9.37179 -1.9338,1.03497 -3.2745,0.65881 -5.9449,-1.66808 z M 2000,349.98669 c 0,-0.19065 -1.5,-1.32949 -3.3333,-2.53073 -3.1519,-2.0652 -3.3333,-2.04633 -3.3333,0.34665 0,1.81056 0.9485,2.53074 3.3333,2.53074 1.8333,0 3.3333,-0.156 3.3333,-0.34666 z m -400.5148,-30.67875 c 4.8376,-3.68989 7.1621,-9.84844 7.174,-19.0076 0,-4.90105 -0.4739,-5.88265 -3.4276,-7.00565 -2.8547,-1.08537 -3.3717,-2.04031 -3.0604,-5.65287 0.206,-2.39078 -0.1173,-5.14181 -0.7173,-6.1134 -1.6198,-2.6208 -9.0408,6.88902 -11.2282,14.38835 -4.7128,16.15825 -4.6252,24.87193 0.2598,25.82887 5.6268,1.10228 6.6582,0.8737 10.9997,-2.4377 z m -128.3424,-7.9746 c 1.1,-1.1 2.4543,-2 3.0093,-2 1.4012,0 7.1812,-5.55297 7.1812,-6.89908 0,-4.16993 -17.1876,5.00668 -17.2921,9.23242 -0.057,2.31282 4.6777,2.09057 7.1016,-0.33334 z M 3145,385.21687 c -2.8593,-5.02382 -2.9524,-7.36064 -0.3333,-8.3657 2.5973,-0.99666 2.6391,-9.83749 0.092,-19.61398 -1.0491,-4.02771 -2.2097,-10.90376 -2.5792,-15.28014 -0.3695,-4.37637 -0.7111,-8.02131 -0.7592,-8.09985 -0.048,-0.0785 -4.9209,-0.4741 -10.8284,-0.879 -16.0561,-1.10052 -23.1029,-6.78359 -20.6297,-16.6374 2.0925,-8.33723 5.6666,-9.00408 12.04,-2.24636 4.1549,4.40546 4.9694,4.72092 10.9057,4.22338 6.1793,-0.51792 6.4437,-0.71145 7.1831,-5.25996 0.4221,-2.59724 0.6617,-16.34776 0.5324,-30.55672 -0.1527,-16.77522 0.254,-26.15134 1.16,-26.73812 1.5206,-0.98504 4.83,-11.02181 4.8625,-14.74777 0.013,-1.27495 0.8787,-3.37495 1.9277,-4.66667 1.0492,-1.29172 3.5247,-4.32488 5.5011,-6.74037 9.5005,-11.61091 27.9123,-13.2793 33.2225,-3.01048 1.8351,3.54876 3.916,21.06045 2.312,19.45641 -0.3377,-0.33773 -1.9086,1.31194 -3.491,3.66591 -3.0231,4.49729 -9.8747,7.04204 -8.3646,3.10665 0.4379,-1.14104 0.3208,-2.36836 -0.2601,-2.72737 -0.5808,-0.359 -0.7732,-4.0637 -0.4276,-8.23263 l 0.6287,-7.57989 -3.7822,0.94924 c -4.1373,1.0384 -15.1693,12.22493 -15.2176,15.43063 -0.016,1.1 -1.1409,5 -2.4988,8.66666 -1.7516,4.7303 -2.5258,10.73304 -2.6657,20.66667 -0.108,7.7 -0.4407,17 -0.7383,20.66667 -0.2976,3.66666 -0.2121,8.97221 0.19,11.79009 0.6767,4.74171 1.0131,5.08203 4.5163,4.56788 4.8476,-0.71148 10.946,5.12117 10.2795,9.83147 -0.5054,3.57068 -8.6147,7.14077 -11.2887,4.96974 -1.0487,-0.8514 -1.6964,0.0407 -2.1187,2.91767 -0.64,4.36068 0.013,8.40657 3.64,22.58982 1.2192,4.76666 2.3288,10.46666 2.4655,12.66666 0.1368,2.2 0.74,5.39407 1.3404,7.09792 0.8189,2.32391 0.4785,3.56255 -1.3625,4.9576 -1.3499,1.02282 -1.9114,1.87875 -1.2476,1.90208 0.6636,0.0233 0.12,1.2424 -1.2067,2.70907 -3.8327,4.23499 -10.1665,3.52861 -13,-1.44981 z m 59.8826,-4.38563 c -1.8887,-2.47616 -3.0188,-4.91719 -2.5115,-5.42452 0.5073,-0.50733 -0.4899,-1.98771 -2.216,-3.28972 -2.6264,-1.98109 -2.8975,-2.81737 -1.662,-5.12604 0.8657,-1.61759 1.4504,-9.67668 1.4135,-19.48291 -0.037,-10.00163 0.5422,-17.85527 1.4429,-19.53811 1.728,-3.22893 3.7197,-13.32077 4.7305,-23.96993 0.3828,-4.03333 0.8142,-8.23333 0.9586,-9.33333 0.6428,-4.89908 -2.11,-19.55855 -4.0832,-21.74472 -2.9699,-3.29026 -0.6022,-6.92195 4.5129,-6.92195 3.3897,0 4.3659,1.02451 8.2577,8.66667 4.3263,8.49516 4.3979,8.91732 3.6174,21.33333 -0.4379,6.96667 -0.8555,14.31667 -0.9278,16.33333 -0.072,2.01667 -0.5774,3.66667 -1.1222,3.66667 -3.3527,0 -5.839,31.67799 -3.4535,44 2.2589,11.66767 3.0467,20.92428 1.9575,23 -2.0134,3.8366 -7.1062,2.82467 -10.9148,-2.16877 z m 86.0568,-7.14292 c -1.9834,-2.00476 -4.206,-3.45476 -4.9394,-3.22221 -0.7333,0.23253 -0.882,-0.0285 -0.3304,-0.58012 0.5516,-0.5516 0.1214,-1.97654 -0.9552,-3.16654 -2.6196,-2.89468 -8.7144,-19.27194 -8.7144,-23.41655 0,-1.81658 -0.5789,-3.30289 -1.2864,-3.30289 -0.7076,0 -1.9102,-1.16571 -2.6728,-2.59047 -1.7834,-3.33252 0.7956,-9.40953 3.9935,-9.40953 3.7723,0 9.0079,5.0678 10.6969,10.35419 0.8751,2.73853 2.1184,5.54914 2.7632,6.24581 0.6448,0.69667 1.1815,3.09667 1.1927,5.33334 0.037,7.35278 1.6664,8.32322 8.2713,4.92617 6.4383,-3.31129 9.1782,-2.88469 12.3258,1.91912 2.8648,4.37231 5.6549,4.05205 6.7141,-0.77068 0.4823,-2.19564 1.5925,-4.44564 2.4673,-5 2.2292,-1.41267 5.379,-8.5444 5.0088,-11.34128 -0.5014,-3.7899 10.6019,-3.25964 13.9599,0.66666 3.2619,3.81392 6.5031,9.53067 4.8105,8.48462 -0.707,-0.43693 -2.2454,1.22879 -3.4189,3.70161 -1.1735,2.47283 -3.2743,4.79434 -4.6684,5.15892 -1.7285,0.45203 -2.818,2.33964 -3.4255,5.93447 -0.6886,4.07687 -2.1362,6.229 -6.3869,9.49599 -6.3011,4.84278 -12.4421,5.49922 -18.4187,1.96884 -3.5864,-2.11851 -3.9697,-2.11851 -6.3106,0 -3.532,3.19642 -6.5248,2.80693 -10.6764,-1.38947 z m -47.9764,-13.71119 c -5.7036,-5.48056 -6.2466,-7.05512 -7.4639,-21.64379 l -0.6397,-7.66666 h 3.8084 c 2.0946,0 4.6646,-0.85618 5.711,-1.90262 3.2144,-3.21446 9.4902,1.77776 14.2208,11.3124 5.3631,10.80945 5.1183,15.32751 -1.1584,21.37322 -4.7465,4.57189 -8.595,4.18047 -14.4782,-1.47255 z m -277.4834,-8.68085 C 2960.8684,346.04431 2956,337.18893 2956,334.05313 c 0,-3.23629 -2.309,-2.40335 -4.7384,1.70931 -1.2224,2.06934 -5.8104,6.00514 -10.1954,8.74624 -8.0718,5.04555 -7.9326,5.02371 -17.3995,2.73328 -0.55,-0.13307 -2.1408,-0.31695 -3.5349,-0.40861 -2.7808,-0.18283 -7.8604,-7.80989 -9.0016,-13.5161 -0.8646,-4.32243 2.3793,-11.17793 6.5642,-13.87272 4.8927,-3.15048 12.7346,-4.06032 15.359,-1.78199 3.5929,3.11915 9.0584,3.94608 10.9573,1.65791 0.9071,-1.09291 1.1827,-1.98711 0.6127,-1.98711 -0.5702,0 -0.104,-1.05 1.0372,-2.33333 2.8404,-3.19567 6.6913,-12.17897 7.2289,-16.86308 0.2439,-2.12469 0.9624,-4.52469 1.5969,-5.33333 0.6344,-0.80864 1.489,-4.10672 1.8991,-7.32908 0.4101,-3.22236 1.4115,-6.27032 2.2252,-6.77327 0.8139,-0.50295 1.0952,-1.91647 0.6252,-3.14117 -0.4993,-1.3011 -0.2036,-2.22674 0.7113,-2.22674 0.9195,0 1.2411,-1.02317 0.7791,-2.47882 -1.2205,-3.84558 0.5719,-6.85451 4.0831,-6.85451 1.7548,0 3.1906,-0.6 3.1906,-1.33333 0,-2.54999 3.8234,-1.31192 6.5147,2.10957 2.9,3.68679 2.7905,6.92447 -0.5872,17.37601 -3.3192,10.27024 -6.0848,35.21538 -5.1312,46.28292 0.8291,9.62159 1.1677,10.53728 4.3441,11.74495 2.9544,1.12328 3.7988,0.82401 5.9302,-2.10184 2.7352,-3.75483 6.2628,-4.54993 6.2628,-1.41161 0,1.1 0.6,2 1.3333,2 0.7333,0 1.3333,1.5 1.3333,3.33333 0,1.83333 -0.6128,3.33333 -1.3618,3.33333 -0.7491,0 -2.0455,1.50001 -2.8808,3.33334 -0.8352,1.83333 -2.3652,3.33333 -3.3999,3.33333 -1.0347,0 -2.7813,0.9 -3.8813,2 -3.1835,3.18348 -6.5554,2.35443 -10.9966,-2.70373 z m -119.5337,-0.73441 c -1.8251,-3.52904 -1.9281,-6.03855 -0.7352,-17.89091 1.2572,-12.4927 1.1376,-14.51223 -1.2753,-21.52559 -1.4646,-4.25671 -3.2491,-8.32579 -3.9658,-9.04241 -2.5473,-2.54739 -1.3714,-5.77891 2.3638,-6.49596 3.4786,-0.6678 7,0.87158 7,3.0601 0,0.55399 1.0077,3.33052 2.2396,6.17008 4.8937,11.28163 6.8257,18.44818 6.1296,22.7379 -0.9428,5.80916 3.2508,5.78201 5.4014,-0.0349 0.5002,-1.35296 2.0915,-2.76902 3.5362,-3.14682 1.4458,-0.3781 3.3616,-2.71884 4.2612,-5.20675 1.2124,-3.35304 2.4257,-4.51984 4.6998,-4.51984 1.686,0 3.0655,-0.6 3.0655,-1.33333 0,-2.63664 3.5723,-1.24779 8.5737,3.33333 2.8022,2.56667 5.6194,4.66667 6.2606,4.66667 0.6412,0 1.1848,1.05 1.2081,2.33333 0.023,1.28333 0.9233,3.49801 2,4.92151 1.0767,1.42349 1.9576,3.93808 1.9576,5.58797 0,1.64989 0.6,3.37063 1.3333,3.82385 0.7334,0.45323 1.3334,1.98864 1.3334,3.41203 0,1.42339 0.6,2.58797 1.3333,2.58797 2.4633,0 1.3631,3.60667 -2.1819,7.15153 -3.8721,3.87216 -8.4848,4.67034 -8.4848,1.46824 0,-1.1258 -1.0176,-3.60003 -2.2614,-5.49827 -1.2438,-1.89824 -2.1319,-5.37344 -1.9738,-7.72268 0.4032,-5.9867 -3.7833,-9.75926 -8.4636,-7.62675 -1.845,0.84067 -3.8768,2.88587 -4.5148,4.54488 -0.6381,1.65901 -3.9261,5.07789 -7.3066,7.59752 -3.3806,2.51963 -6.1464,4.94027 -6.1464,5.3792 0,1.44216 -7.6852,5.373 -10.5048,5.373 -1.7339,0 -3.5494,-1.52622 -4.8827,-4.10481 z m 163.7383,0.25214 c -2.2476,-1.18102 -6.5263,-5.11242 -9.5082,-8.73643 -2.9818,-3.624 -6.3413,-7.10381 -7.4654,-7.73292 -2.7136,-1.51864 -2.7475,-10.15833 -0.044,-11.19581 1.1,-0.42212 2,-1.60328 2,-2.62483 0,-1.02153 0.6,-1.85734 1.3333,-1.85734 0.7333,0 1.334,-1.05 1.3349,-2.33334 0,-2.78024 4.8328,-8.63022 8.9108,-10.7905 5.5146,-2.92138 9.4202,-1.89302 13.0395,3.43334 4.26,6.26915 4.2741,11.47895 0.053,19.79786 -1.8302,3.60761 -3.3302,6.9044 -3.3333,7.32617 0,0.42177 3.2815,3.12177 7.2989,6 10.4207,7.4655 9.8186,9.96 -2.5428,10.53562 -4.4162,0.20564 -8.496,-0.46531 -11.0776,-1.82182 z m -696.1607,-0.98818 c -2.4621,-1.0727 -9.8079,-7.32234 -16.3237,-13.88809 -6.8464,-6.8987 -12.945,-11.93773 -14.4479,-11.93773 -5.2529,0 -8.6707,-8.93839 -4.8705,-12.73845 1.0346,-1.03472 1.6034,-2.94378 1.2638,-4.24236 -0.8573,-3.27862 4.5403,-14.84839 9.4671,-20.2924 3.7932,-4.19142 11.7571,-7.74252 18.9655,-8.45674 6.3702,-0.63114 6.8878,-0.42861 11.5457,4.51742 5.1615,5.48082 6.4293,11.81972 3.47,17.34934 -2.2577,4.2187 -10.7693,11.48843 -17.2601,14.74199 -3.3,1.65413 -6.222,3.15516 -6.4935,3.3356 -1.344,0.8936 1.4783,7.11893 3.2273,7.11893 1.1091,0 2.3547,0.8812 2.7679,1.95823 0.7929,2.06607 12.0735,10.04177 14.2028,10.04177 0.6861,0 0.8764,-0.96674 0.4231,-2.14833 -0.6628,-1.72709 -0.1871,-1.98835 2.4265,-1.3324 2.4837,0.62339 3.8905,0.003 5.9615,-2.63011 1.4909,-1.89532 3.361,-3.04408 4.156,-2.55281 0.7948,0.49128 2.2553,0.22087 3.2456,-0.60092 1.3553,-1.12488 2.3001,-0.99429 3.8228,0.52843 2.0134,2.01342 1.6824,6.77838 -0.5676,8.16894 -0.6448,0.39852 -1.1724,1.88918 -1.1724,3.31256 0,1.42339 -0.45,2.59075 -1,2.59415 -0.55,0.004 -2.8199,1.71221 -5.0443,3.79738 -5.0053,4.69228 -11.7664,5.96932 -17.7656,3.3556 z m -15.0479,-46.27029 c 0.9948,-0.79828 3.037,-2.07485 4.5382,-2.83681 1.501,-0.76196 3.9757,-3.06425 5.4993,-5.1162 2.3801,-3.20565 2.492,-3.9066 0.7952,-4.97959 -3.4444,-2.17792 -5.1564,-1.44445 -11.9793,5.13195 -7.1854,6.92573 -8.9362,11.78859 -3.6623,10.17179 1.65,-0.50584 3.814,-1.57284 4.8089,-2.37114 z m 491.444,46.56298 c -2.2442,-0.97743 -5.8442,-3.41173 -8,-5.40959 l -3.9196,-3.63245 -0.1293,-23.93859 c -0.124,-22.77263 0,-24.03275 2.63,-25.87157 3.422,-2.39682 6.7244,-2.47376 8.6109,-0.20063 1.0592,1.27629 0.5867,3.47013 -1.795,8.33333 -3.8251,7.81051 -3.946,8.60099 -1.3162,8.60099 1.6239,0 2.0039,2.19425 2.0204,11.66667 0.021,12.13858 0.6299,14.45473 3.9796,15.14646 4.255,0.87867 17.3334,-9.39444 17.3334,-13.61534 0,-1.30556 0.5212,-2.69586 1.1581,-3.08955 0.6371,-0.39369 1.5389,-3.09639 2.0041,-6.00597 0.8118,-5.07584 4.654,-9.4356 8.3159,-9.4356 1.9861,0 6.2827,8.96293 5.3996,11.26418 -0.3681,0.95931 0.033,2.49231 0.8931,3.40667 1.1969,1.27351 1.1725,1.80547 -0.104,2.27359 -0.9167,0.33612 -1.6667,1.68765 -1.6667,3.00341 0,1.31576 -0.9273,3.16189 -2.0607,4.10251 -1.1333,0.94061 -1.769,2.47021 -1.4125,3.3991 0.3564,0.9289 -0.2163,2.40623 -1.2727,3.28298 -1.0564,0.87674 -1.9208,2.42061 -1.9208,3.43081 0,1.01021 -1.0954,1.83675 -2.4342,1.83675 -1.3388,0 -3.8888,1.55938 -5.6667,3.46532 -2.5828,2.7689 -14.5727,10.03907 -16.1881,9.81583 -0.2076,-0.0287 -2.2139,-0.8519 -4.458,-1.82931 z M 3048.356,349.065 c -2.2068,-4.5169 -3.299,-12.73676 -1.8145,-13.65431 0.7096,-0.43851 2.7879,-3.93529 4.6184,-7.77064 1.8307,-3.83536 4.9767,-8.17337 6.9912,-9.64004 3.7128,-2.70311 6.1504,-5.05832 12.962,-12.52403 2.0788,-2.27845 5.0788,-4.22001 6.6667,-4.31457 1.5877,-0.0945 4.3869,-0.39183 6.2202,-0.66059 15.5878,-2.28514 14.5211,-2.39088 16.0343,1.58931 1.9409,5.10517 1.1507,7.83213 -2.4173,8.34068 -1.8898,0.26933 -2.884,1.21803 -2.6531,2.53137 0.2243,1.27486 -0.6788,2.20191 -2.2972,2.35834 -10.3969,1.00494 -14.1661,2.49266 -19.2856,7.61216 -2.9596,2.95958 -5.3811,5.95236 -5.3811,6.65062 0,0.69827 -1.7538,3.81872 -3.8974,6.93435 -2.1436,3.11561 -4.0936,7.72372 -4.3334,10.24023 -0.3984,4.18189 -0.8436,4.60973 -5.1757,4.97379 -3.8395,0.32264 -5.0244,-0.18398 -6.2375,-2.66667 z m -442.4166,-3.00439 c -1.8,-1.8 -3.2727,-4.72653 -3.2727,-6.5034 0,-1.77688 -0.9,-3.97761 -2,-4.89053 -2.6231,-2.17694 -2.5685,-7.86551 0.085,-8.88379 2.4711,-0.94827 8.5816,1.56768 8.5816,3.53341 0,0.7554 1.65,3.22531 3.6667,5.48867 2.0167,2.26336 3.6667,4.70653 3.6667,5.42927 0,0.72274 1.05,2.08185 2.3333,3.02024 3.2421,2.37073 3.0157,5.14181 -0.3333,4.07887 -1.5298,-0.48552 -2.6667,-0.2396 -2.6667,0.57681 0,2.67535 -6.7827,1.42843 -10.0607,-1.84955 z M 2451.5136,345.196 c -16.2837,-2.55743 -19.6713,-18.97366 -8.3102,-40.27168 l 4.13,-7.74236 10,0.87502 c 6.988,0.61147 10.4882,1.53787 11.6212,3.0757 0.8916,1.21036 2.3613,3.0534 3.2658,4.09564 2.4719,2.8482 3.873,17.91577 2.3919,25.72517 -0.7137,3.76372 -1.4435,6.89529 -1.6217,6.95904 -0.1782,0.0637 -1.5459,1.13663 -3.0394,2.38417 -5.1256,4.28155 -11.532,5.98386 -18.4376,4.8993 z m 8.3551,-19.00746 c 1.2701,-4.05108 1.9173,-9.07724 1.6123,-12.52186 -0.3679,-4.15439 -10.8143,1.43669 -10.8143,5.78797 0,0.91105 -0.5556,1.85647 -1.2348,2.10092 -0.6791,0.24444 -1.6431,2.09012 -2.1421,4.10149 -0.7492,3.01967 -0.3808,3.85183 2.1136,4.77456 5.1592,1.90852 9.0285,0.33975 10.4653,-4.24308 z m -760.5354,13.10635 c -2.9333,-1.05676 -5.429,-1.93043 -5.5461,-1.94147 -0.1173,-0.0107 -2.9799,-4.22008 -6.3617,-9.35341 -5.8026,-8.80775 -6.4308,-9.33333 -11.1571,-9.33333 -2.7547,0 -6.3176,-0.91706 -7.9179,-2.0379 -2.7474,-1.92436 -3.0249,-1.81468 -4.9813,1.96866 -3.5931,6.94798 -12.8339,14.66501 -17.6057,14.70257 -6.0383,0.0475 -8.7584,-4.14145 -13.1548,-20.25864 -2.0567,-7.53941 -4.235,-14.27803 -4.8407,-14.97469 -2.1483,-2.47075 -1.1749,-8.60011 1.6016,-10.08607 3.9103,-2.09269 10.2511,4.51116 11.4339,11.90811 0.4841,3.02705 1.4013,5.82584 2.0384,6.21953 0.6369,0.39369 1.1581,2.7804 1.1581,5.30379 0,2.52338 0.5277,4.58797 1.1727,4.58797 0.645,0 3.4756,-2.81031 6.2901,-6.24513 3.6035,-4.39748 5.5595,-8.44083 6.6116,-13.66667 1.3056,-6.48505 1.8579,-7.36889 4.3765,-7.00439 1.9027,0.27536 2.8824,-0.29112 2.8824,-1.66666 0,-2.9551 3.1378,-2.58116 6.1267,0.73012 1.8033,1.99778 2.54,4.80152 2.54,9.66666 0,9.50308 3.3545,9.4786 5.4683,-0.0399 2.1156,-9.52699 6.1392,-14.78783 12.1764,-15.9204 6.4176,-1.20396 11.0669,1.47086 13.4529,7.7396 1.7565,4.61532 1.67,5.11901 -1.6209,9.43373 -1.9122,2.50695 -3.4767,5.03264 -3.4767,5.61267 0,0.58002 -1.5,2.44473 -3.3333,4.14381 -1.8334,1.69908 -3.3334,3.62569 -3.3334,4.28137 0,2.89102 4.2407,9.28003 7.2167,10.87274 3.0797,1.64825 3.6931,1.29862 11.2796,-6.43059 4.4125,-4.49549 8.356,-8.17363 8.7632,-8.17363 1.2155,0 5.5495,4.7104 6.4192,6.97659 0.4677,1.21908 -0.2772,3.08839 -1.7685,4.43812 -1.4172,1.28256 -2.5768,3.17393 -2.5768,4.20307 0,1.02912 -2.55,5.10264 -5.6667,9.05226 -6.2532,7.92447 -8.4947,8.59583 -17.6667,5.29151 z m 650.9789,-4.29488 c -1.0972,-3.48333 -1.7086,-8.51621 -1.3584,-11.18419 0.4202,-3.20302 -0.124,-6.01166 -1.6026,-8.26805 -2.6529,-4.04889 -1.6874,-8.38308 2.1379,-9.59717 1.4772,-0.46888 5.7636,-4.09958 9.5252,-8.06822 3.7616,-3.96864 7.8721,-7.2157 9.1347,-7.2157 1.2625,0 2.527,-0.69476 2.8101,-1.54392 0.318,-0.95382 1.8308,-1.21359 3.9581,-0.67966 3.8954,0.97767 9.5143,11.18786 8.8235,16.03315 -0.3513,2.46388 -1.3021,2.86569 -6.9091,2.91963 -10.3765,0.0997 -12.7433,5.0106 -11.6288,24.12809 0.2602,4.46089 -0.2666,5.93633 -2.737,7.66667 -1.6826,1.17849 -4.6566,2.1427 -6.609,2.1427 -3.066,0 -3.8217,-0.86317 -5.5446,-6.33333 z m 43.351,2 c -2.619,-3.2822 -5.6632,-10.25047 -5.6632,-12.96357 0,-3.66236 10.2803,-14.7031 13.6904,-14.7031 3.2208,0 14.3096,-5.34928 14.3096,-6.90301 0,-1.62524 4.2311,-1.24427 7.7262,0.69568 1.6828,0.934 3.8652,3.25108 4.8498,5.14909 1.5619,3.01054 1.479,3.9257 -0.6502,7.1714 -1.3423,2.04627 -2.1654,4.16592 -1.8288,4.71035 0.3365,0.54441 -1.3478,0.94687 -3.7426,0.89435 -7.9761,-0.17496 -14.5796,3.39369 -16.9158,9.14154 -1.1579,2.84884 -2.5907,5.9209 -3.1839,6.82682 -1.3992,2.13658 -6.8808,2.12412 -8.5915,-0.0196 z m 98.7664,-5.64915 c -2.142,-1.5003 -3.0609,-4.01361 -3.7785,-10.33333 -0.5215,-4.59297 -1.3947,-8.95085 -1.9404,-9.68419 -0.5457,-0.73333 -1.3092,-2.63158 -1.6965,-4.21833 -0.7635,-3.12715 1.7141,-4.39568 8.6525,-4.43013 2.0167,-0.0107 3.6667,-0.54279 3.6667,-1.18395 0,-1.25069 6.6598,-8.49035 11.8144,-12.84292 2.5558,-2.15827 5.1005,-2.658 13.5345,-2.658 5.7127,0 10.1108,0.45 9.7736,1 -0.3373,0.55 0.5927,1 2.0665,1 1.4738,0 5.6563,0.63837 9.2944,1.41861 l 6.6148,1.41862 -1.2109,4.24805 c -1.8473,6.48045 -3.6856,7.13464 -19.0669,6.78521 -13.8254,-0.31406 -14.0191,-0.27576 -16.3795,3.23918 -4.0751,6.06789 -9.5196,18.17726 -10.484,23.31729 -0.7871,4.19599 -1.4351,4.90637 -4.4753,4.90637 -1.9552,0 -4.8286,-0.89212 -6.3854,-1.98248 z m -743.7629,-5.7803 c -3.324,-0.62752 -8.6667,-5.43776 -8.6667,-7.80296 0,-0.97218 -0.6,-1.76759 -1.3333,-1.76759 -0.7334,0 -1.3334,-1.16459 -1.3334,-2.58797 0,-1.42339 -0.5849,-2.9495 -1.2998,-3.39135 -0.7458,-0.46092 -0.9406,-3.42505 -0.457,-6.95371 0.6108,-4.45596 0.4222,-5.8902 -0.6848,-5.20606 -0.9674,0.59794 -1.2556,0.2348 -0.7856,-0.99012 0.4083,-1.06391 0.1014,-2.33048 -0.6818,-2.81462 -2.1115,-1.30496 -1.734,-4.04498 1.0272,-7.45485 l 2.4514,-3.02743 4.1655,4.35878 c 3.3416,3.4966 4.3419,5.91829 5.0575,12.24289 0.4907,4.33627 1.4573,8.23355 2.1484,8.66064 1.5385,0.95087 7.7257,-4.64903 7.7257,-6.9924 0,-6.77056 11.3172,-15.84359 15.4667,-12.39976 2.7667,2.29613 6.1473,0.29099 11.7369,-6.96165 3.4919,-4.53068 7.2202,-7.61179 11.3334,-9.36616 3.3713,-1.43792 7.6297,-3.33959 9.463,-4.22591 3.1198,-1.50821 13.6264,-1.04167 15.3498,0.68161 0.4029,0.40292 1.3025,2.72003 1.9992,5.14915 1.1996,4.18279 0.9328,4.7284 -5.0412,10.30737 -3.4692,3.23994 -8.8706,7.0181 -12.0027,8.39592 -7.5911,3.33919 -8.2499,5.67227 -2.8781,10.19234 6.7169,5.65188 10.2778,7.04996 17.9562,7.04996 6.0064,0 7.6546,-0.57622 10.8834,-3.805 4.2549,-4.25496 12.2169,-6.22379 13.3394,-3.29856 0.3808,0.9923 0.104,2.54654 -0.6162,3.45386 -0.7199,0.90734 -1.7078,3.86588 -2.1955,6.57455 -0.5812,3.22717 -1.7875,5.21068 -3.4993,5.75401 -1.437,0.45604 -3.5776,1.79435 -4.7574,2.97402 -1.3409,1.34096 -5.2114,2.35364 -10.3269,2.70193 -7.2739,0.49523 -9.1276,0.0624 -16.6981,-3.89887 -5.1256,-2.68189 -10.6555,-6.97745 -13.8898,-10.78928 -4.5717,-5.38829 -6.0885,-6.33238 -10.1648,-6.32696 -4.7209,0.007 -7.29,1.84719 -16.7913,12.032 -4.5863,4.91624 -13.2164,10.05768 -16,9.53218 z m 857.6375,-17.94855 c -3.4768,-6.61484 -4.466,-15.38775 -1.8483,-16.39225 3.0677,-1.1772 9.1188,1.17029 10.7823,4.18294 0.7857,1.42302 2.0285,3.0148 2.7618,3.5373 3.8875,2.76973 -0.099,10.7852 -6.0541,12.17185 -2.8287,0.65868 -3.7595,0.0812 -5.6417,-3.49984 z m -709.5136,-4.09912 c -3.3682,-3.27343 -6.1239,-6.55521 -6.1239,-7.29284 0,-0.73764 -0.45,-1.54115 -1,-1.7856 -2.6864,-1.19395 -5.7949,-10.96449 -6.8471,-21.52095 -1.0254,-10.28993 -0.8598,-12.38574 1.3384,-16.9356 1.3798,-2.85582 2.5087,-5.75281 2.5087,-6.43774 0,-0.68494 0.8963,-2.96391 1.9917,-5.06441 1.0956,-2.10049 1.9956,-4.79561 2,-5.98916 0,-1.19353 0.9083,-2.917 2.0083,-3.82992 1.1,-0.91292 2,-2.23541 2,-2.93886 0,-2.88936 9.7603,-13.05956 12.494,-13.01874 3.3443,0.05 6.6676,2.39184 7.8427,5.52656 1.1186,2.98435 -1.6559,8.63078 -5.1667,10.51452 -4.1483,2.22583 -9.364,11.9038 -13.9673,25.91653 -2.5183,7.66589 -1.8623,19.53668 1.3998,25.33333 4.0446,7.18695 6.8948,10.22237 8.8826,9.45961 0.9093,-0.34894 2.3706,0.2299 3.2473,1.28631 0.8768,1.05641 2.4569,1.92075 3.5113,1.92075 1.4002,0 1.8056,1.34852 1.5035,5 -0.4001,4.83374 -0.5981,5.01342 -5.9567,5.40394 -4.9988,0.3643 -6.1438,-0.18021 -11.6666,-5.54773 z m 42.842,-7.19223 c -2.8816,-3.18422 -3.0158,-12.21153 -0.3136,-21.11874 2.8198,-9.29536 2.497,-14.12851 -1.319,-19.75172 -1.8333,-2.70158 -3.3333,-5.22766 -3.3333,-5.61352 0,-0.38587 -2.4,-3.54785 -5.3333,-7.02661 -2.9334,-3.47876 -5.3334,-7.3364 -5.3334,-8.57254 0,-2.81683 4.4204,-2.97 7.1428,-0.24752 1.1,1.1 2.5415,2 3.2034,2 0.6617,0 2.006,1.5 2.9872,3.33333 0.9812,1.83333 2.275,3.33333 2.8752,3.33333 1.8706,0 13.0544,17.60665 13.9425,21.94979 0.9192,4.49496 -2.3025,15.70347 -6.1464,21.38355 -1.9851,2.93333 -4.1635,7.02937 -4.8411,9.10231 -1.2005,3.67349 -1.29,3.7046 -3.531,1.22834 z M 695.33334,255.14034 c -38.39585,-5.48308 -41.56735,-5.695 -82.66667,-5.52382 -38.21493,0.15914 -42.43986,-0.0569 -56,-2.86352 -9.21266,-1.90682 -23.34348,-3.48178 -38,-4.23534 -37.67273,-1.93692 -59.81579,-3.69647 -73.33333,-5.82727 -17.58839,-2.7725 -156.41447,-4.67632 -188.66667,-2.5873 -25.28179,1.63753 -33.36263,1.71862 -46.062,0.46222 -11.81124,-1.16854 -16.18619,-1.0221 -27.33333,0.91488 -9.26102,1.60924 -22.13526,2.40556 -42.60467,2.63527 -16.13334,0.18104 -30.83334,0.52913 -32.66667,0.77352 -2.99915,0.39981 -3.33744,-0.0235 -3.37433,-4.22231 -0.0526,-5.98969 1.4701,-8 6.05971,-8 4.72673,0 6.84099,-5.92325 3.0926,-8.66413 -1.80245,-1.31799 -1.99371,-2.13603 -0.82784,-3.54081 1.67795,-2.0218 2.09177,-26.07243 0.4659,-27.07728 -0.54415,-0.3363 -0.84444,-6.1852 -0.66731,-12.99755 0.17714,-6.81236 -0.27445,-13.50069 -1.00352,-14.86297 -0.90281,-1.68691 -0.86094,-2.94152 0.13127,-3.93374 0.80127,-0.80126 1.45685,-2.46338 1.45685,-3.6936 0,-1.2302 0.937,-3.01437 2.08222,-3.96481 2.25024,-1.86754 2.35921,-10.01308 0.173,-12.93178 -1.47843,-1.97376 1.09897,-5.66666 3.95496,-5.66666 2.62068,0 8.57248,4.06697 7.79434,5.32602 -0.35158,0.56888 0.0218,2.9306 0.82975,5.24828 1.24067,3.55899 1.08276,4.64072 -1.01597,6.95972 -1.53825,1.6997 -2.59707,5.1053 -2.77923,8.93921 -0.16185,3.40638 -0.36651,6.79344 -0.45481,7.52677 -0.0883,0.73333 0.19157,5.53333 0.62193,10.66667 0.43037,5.13333 1.03477,12.33333 1.34312,16 1.30343,15.49956 2.37349,24.00105 3.18332,25.29106 0.47496,0.75658 0.93803,1.9756 1.02905,2.70894 0.091,0.73333 0.25688,2.0306 0.36857,2.8828 0.47712,3.64021 26.03193,4.99349 41.53642,2.1996 20.3207,-3.66178 29.40679,-4.37188 36.4885,-2.8517 4.70045,1.00903 16.66112,1.14679 38.17817,0.43975 38.64864,-1.26999 52.3572,-1.3188 91.42161,-0.32551 16.91523,0.4301 31.52616,0.30536 32.46875,-0.27718 0.94259,-0.58255 3.90287,-0.48999 6.57839,0.2057 2.67552,0.69568 6.36458,1.08882 8.19792,0.87363 12.17361,-1.42889 56.78856,0.21981 65.84244,2.43316 4.31334,1.05445 9.41334,1.76405 11.33333,1.57689 1.91999,-0.18716 4.83569,0.39424 6.47935,1.29202 2.75386,1.50417 42.9534,3.28538 64.75596,2.8693 7.4594,-0.14236 18.70051,2.4953 24.25559,5.69142 1.85532,1.06745 17.67654,1.61338 52,1.79432 31.38752,0.16545 52.72848,0.84717 58.66666,1.87405 27.24354,4.7112 49.58656,4.46344 65.47011,-0.72597 3.00855,-0.98295 8.70855,-1.9396 12.66667,-2.12591 8.55254,-0.40256 25.31013,1.33408 27.19656,2.81847 3.31758,2.61052 21.13572,2.26561 46.65017,-0.903 23.49785,-2.91816 27.83497,-3.12146 36.66667,-1.71867 15.52461,2.46588 42.99716,2.79181 57.34983,0.6804 6.96666,-1.02487 17.16666,-2.51741 22.66666,-3.31677 7.24003,-1.05227 13.49596,-1.0483 22.66667,0.0144 6.96667,0.80725 15.36667,1.71864 18.66667,2.02529 3.3,0.30665 8.54348,0.84879 11.65217,1.20473 3.10871,0.35595 7.30871,-0.0172 9.33333,-0.82925 7.45532,-2.99016 14.38742,-3.61588 23.34782,-2.10751 4.95,0.83328 9,1.89362 9,2.35631 0,0.46269 3.75,0.30813 8.3333,-0.34348 21.8474,-3.106 26.3515,-3.76145 35.6767,-5.19184 8.9431,-1.37176 11.1988,-1.23477 21.1641,1.28523 6.1347,1.55134 11.7361,2.46088 12.4475,2.0212 0.7115,-0.43968 3.7693,-0.76526 6.7952,-0.7235 3.0259,0.0417 6.12,-0.40581 6.8758,-0.99462 1.9283,-1.50231 15.1162,-3.1802 20.7074,-2.63459 5.8622,0.57205 30.7924,0.53276 44,-0.0693 5.5,-0.25074 14.1703,-0.3781 19.2674,-0.28302 6.6971,0.12494 10.2101,-0.4519 12.6667,-2.07988 2.5367,-1.68114 6.9516,-2.34485 17.3992,-2.61569 26.9601,-0.69892 55.7965,-2.43001 56.7695,-3.40795 0.54,-0.54272 -0.4955,-2.35593 -2.3012,-4.02936 -4.8279,-4.47441 -5.5284,-7.33974 -2.4405,-9.98365 2.1256,-1.82004 2.642,-3.95248 2.6547,-10.96321 0.01,-4.78703 0.8825,-11.96002 1.9417,-15.93996 1.1187,-4.2037 1.8106,-12.02655 1.6508,-18.66667 l -0.275,-11.43045 4.7808,-0.40075 c 5.9996,-0.50292 7.7861,1.55307 7.967,9.16847 0.2045,8.61409 -1.5799,27.01648 -2.77,28.56561 -1.2189,1.58661 -0.6307,10.98988 1.5274,24.41625 1.3622,8.47503 1.2934,10.0233 -0.5266,11.84331 -1.6349,1.63489 -1.784,2.77353 -0.6804,5.1958 1.1077,2.43101 0.9102,3.87011 -0.9128,6.65245 -2.1462,3.2755 -2.8061,3.47923 -8.5225,2.63126 -6.371,-0.94504 -26.8886,-0.93291 -37.5295,0.0223 -3.3,0.29622 -13.8846,1.08996 -23.5213,1.76391 -9.6367,0.67395 -18.8937,1.95988 -20.5712,2.85764 -2.175,1.16401 -6.8406,1.3712 -16.2635,0.72221 -8.5316,-0.5876 -15.6795,-0.35822 -20.173,0.64736 -5.2166,1.16744 -11.3204,1.19239 -24.3754,0.0996 -15.161,-1.26902 -18.3449,-1.17392 -24.5892,0.73444 -9.4272,2.88114 -26.1121,2.93214 -38.2532,0.11694 -8.6356,-2.00238 -10.7637,-2.05188 -18.6667,-0.43424 -19.9397,4.08141 -32.8199,4.98321 -48.7561,3.41361 -10.9965,-1.08305 -17.52,-1.11065 -23.0017,-0.0973 -10.47638,1.93667 -21.72778,1.73689 -35.07187,-0.62272 -6.18373,-1.09347 -12.18373,-1.70551 -13.33333,-1.36011 -1.1496,0.3454 -7.49019,0.94704 -14.09019,1.33696 -6.6,0.38994 -16.5,1.29659 -22,2.0148 -15.36664,2.00663 -33.71755,2.54604 -40.87311,1.20144 -8.09365,-1.52088 -32.93383,-1.47328 -50.46023,0.0967 -32.49258,2.9106 -37.36701,3.03527 -48,1.22756 -12.20261,-2.07455 -40.02652,-2.00456 -42.5709,0.10707 -0.93762,0.77814 -6.85592,1.70138 -13.15179,2.05164 -6.29587,0.35026 -13.73384,0.8849 -16.52884,1.1881 -2.79499,0.30322 -6.8818,0.29424 -9.0818,-0.0199 z M 1230,196.80681 c -1.4667,-1.71103 -5.1966,-4.39448 -8.2887,-5.96323 -3.0922,-1.56876 -6.2002,-3.9324 -6.9067,-5.25255 -0.7065,-1.32013 -4.5728,-4.01033 -8.5917,-5.97821 -4.7185,-2.31043 -8.3328,-5.23737 -10.2021,-8.26205 -5.129,-8.29883 -6.5651,-6.54224 -8.7066,10.64924 -1.2528,10.05638 -3.122,14 -6.636,14 -4.2527,0 -6.6362,-3.49719 -6.4787,-9.50562 0.074,-2.83857 -0.4519,-5.16105 -1.1697,-5.16105 -0.7311,0 -0.8698,-1.02624 -0.3154,-2.33333 0.5444,-1.28334 0.9116,-3.72838 0.816,-5.43342 -0.096,-1.70505 0.4655,-4.29448 1.2467,-5.75428 0.7813,-1.4598 1.3899,-8.30624 1.3524,-15.2143 -0.067,-12.30502 -4e-4,-12.57709 3.2607,-13.39557 3.8491,-0.96608 8.6198,-6.47106 8.6198,-9.94661 0,-1.31151 1.5618,-4.24058 3.4706,-6.50906 3.1758,-3.77425 4.0716,-4.09431 10.549,-3.76897 6.8876,0.34595 7.2165,0.54725 12.1961,7.4652 5.568,7.73528 5.9206,10.8763 2.1207,18.89034 -3.1505,6.64439 -6.9083,17.59819 -6.9595,20.28643 -0.024,1.25753 1.3064,3.00274 2.9564,3.87826 1.65,0.87551 3.7841,2.69662 4.7423,4.04691 0.9583,1.35028 2.3866,2.45507 3.1741,2.45507 0.7875,0 4.3549,2.1 7.9275,4.66666 3.5726,2.56667 6.9443,4.69446 7.4926,4.7284 1.6097,0.0997 8.9969,9.99823 8.9969,12.05544 0,1.29932 -1.8595,1.97339 -6,2.17504 -4.8498,0.23619 -6.5112,-0.30417 -8.6667,-2.81874 z m -37.0892,-37.0568 c -0.4256,-1.06364 -0.7415,-0.74771 -0.8055,0.80556 -0.058,1.40554 0.2572,2.19305 0.7003,1.75 0.443,-0.44307 0.4904,-1.59307 0.1052,-2.55556 z m 5.7559,-5.22599 c 0,-2.40885 0.3409,-3.25928 2.6153,-6.52401 2.2931,-3.29158 4.6616,-12.00001 3.2637,-12.00001 -1.9724,0 -5.879,2.96515 -5.879,4.46216 0,0.93592 -1.1758,2.96368 -2.6128,4.50614 -3.4906,3.74677 -4.9306,9.66581 -2.6886,11.05145 1.9728,1.21926 5.3014,0.28012 5.3014,-1.49573 z M 168.46615,185.56514 C 166.59013,184.32821 164,176.39138 164,171.87973 c 0,-2.04728 -0.57708,-4.07899 -1.28239,-4.5149 -0.82096,-0.50738 -0.82096,-2.00621 0,-4.16549 1.45178,-3.81847 1.69367,-6.72172 0.45699,-5.48505 -1.18345,1.18345 -4.50793,-2.4688 -4.50793,-4.95238 0,-1.15238 -0.6,-2.09524 -1.33334,-2.09524 -1.97145,0 -1.61842,-2.57204 0.66667,-4.85715 1.1,-1.1 2,-3.42732 2,-5.17184 0,-1.7445 1.00755,-3.73569 2.23899,-4.42484 1.47376,-0.82476 2.33452,-3.22291 2.5185,-7.01686 0.15375,-3.17013 0.84468,-5.95226 1.53543,-6.18251 0.76725,-0.25575 0.81908,-3.61278 0.1332,-8.6281 -0.84291,-6.1635 -0.70361,-8.47294 0.55892,-9.26661 1.97067,-1.23882 22.95046,0.0845 27.40196,1.72836 2.48716,0.91848 2.80506,1.5922 1.71359,3.63164 -0.73705,1.37718 -0.97992,2.86412 -0.53972,3.30432 0.4402,0.4402 -0.23991,2.38803 -1.51135,4.32849 -2.42292,3.69785 -2.8504,3.7309 -14.9687,1.15723 l -4.25252,-0.90314 0.78636,7.81717 c 0.87038,8.65252 2.06444,10.18997 7.19092,9.25891 1.90972,-0.34684 4.00972,-0.12134 4.66666,0.50106 0.65694,0.62243 2.36814,1.34308 3.80264,1.60146 1.47086,0.2649 2.95055,1.91992 3.39327,3.79529 0.68107,2.88505 0.15897,3.54376 -3.94153,4.97293 -2.59963,0.90606 -5.9266,1.66975 -7.39327,1.6971 -1.46667,0.0273 -4.10383,1.15471 -5.86037,2.50525 -2.83352,2.1786 -3.03288,2.91684 -1.76771,6.54611 0.78428,2.24981 1.08995,5.37553 0.67925,6.94604 -0.41069,1.57051 0.0369,5.23012 0.99486,8.13248 1.48824,4.50941 1.44128,5.90671 -0.32284,9.60611 -1.9877,4.16825 -5.61527,5.78118 -8.59038,3.81957 z M 2492.6667,164.00001 c 0.4532,-0.73334 1.424,-1.33334 2.1573,-1.33334 0.7334,0 0.9626,0.6 0.5094,1.33334 -0.4532,0.73333 -1.424,1.33333 -2.1574,1.33333 -0.7333,0 -0.9625,-0.6 -0.5093,-1.33333 z"
       id="path355" />
  </g>
</svg>
