<?xml version="1.0" encoding="UTF-8" standalone="no"?>
<!-- Created with Inkscape (http://www.inkscape.org/) -->

<svg
   version="1.1"
   id="svg37"
   width="3464"
   height="749.33331"
   viewBox="0 0 3464 749.33331"
   sodipodi:docname="queue2.png"
   xmlns:inkscape="http://www.inkscape.org/namespaces/inkscape"
   xmlns:sodipodi="http://sodipodi.sourceforge.net/DTD/sodipodi-0.dtd"
   xmlns="http://www.w3.org/2000/svg"
   xmlns:svg="http://www.w3.org/2000/svg">
  <defs
     id="defs41" />
  <sodipodi:namedview
     id="namedview39"
     pagecolor="#ffffff"
     bordercolor="#000000"
     borderopacity="0.25"
     inkscape:showpageshadow="2"
     inkscape:pageopacity="0.0"
     inkscape:pagecheckerboard="0"
     inkscape:deskcolor="#d1d1d1"
     showgrid="false" />
  <g
     inkscape:groupmode="layer"
     inkscape:label="Image"
     id="g43">
    <path
       style="fill:#000000;stroke-width:1.33333"
       d="m 2350.6667,732.66664 c 0,-1.1 -0.6,-2 -1.3334,-2 -0.7333,0 -1.3333,-0.6 -1.3333,-1.33333 0,-0.73333 0.9,-1.33333 2,-1.33333 1.1496,0 2,-1.20332 2,-2.82992 0,-2.45 0.2881,-2.5908 2.1463,-1.04875 1.3425,1.11431 1.5921,1.96585 0.6666,2.27437 -0.8138,0.27126 -1.4796,2.24319 -1.4796,4.38207 0,2.13889 -0.6,3.88889 -1.3333,3.88889 -0.7333,0 -1.3333,-0.9 -1.3333,-2 z m 807.5601,-1.22298 c -0.3988,-1.03931 0.1371,-2.22048 1.1907,-2.62483 1.2657,-0.48569 1.9158,0.15555 1.9158,1.88965 0,3.03398 -2.0392,3.51655 -3.1065,0.73518 z M 3294,662.34285 c -2.2,-0.7554 -4.75,-1.57274 -5.6667,-1.81631 -2.0509,-0.54497 -2.2186,-8.02804 -0.2077,-9.27083 0.8024,-0.4959 1.1856,-2.33132 0.8515,-4.07869 -0.334,-1.74737 -0.1798,-3.17704 0.3428,-3.17704 0.5225,0 0.9224,-2.85 0.8888,-6.33333 -0.055,-5.69042 4.031,-22.14806 6.9633,-28.04599 4.5037,-9.05873 8.7372,-33.8136 6.2888,-36.77321 -1.9083,-2.30677 -15.5412,-5.39784 -20.0259,-4.54056 -1.9242,0.36784 -3.804,0.17457 -4.1773,-0.42948 -0.7571,-1.22484 -71.5151,-0.18484 -87.4261,1.28497 -5.5927,0.51664 -11.8411,0.49202 -13.8855,-0.0547 -2.0443,-0.54674 -8.5684,-0.51456 -14.4981,0.0715 -6.7804,0.67015 -11.0999,0.58108 -11.6398,-0.24002 -0.5029,-0.76468 -3.8173,-0.95351 -8,-0.45578 -20.1245,2.39476 -35.0505,3.23508 -46.4748,2.61648 -19.1837,-1.03878 -50.4232,-1.04536 -58.6666,-0.012 -9.5435,1.19591 -50.2394,-3.58496 -66.6667,-7.83185 -5.0796,-1.3132 -17.7827,-2.05379 -41.3333,-2.40971 -18.7,-0.28261 -35.5,-0.95538 -37.3334,-1.49505 -3.6658,-1.07907 -4.7041,-1.22909 -17.3333,-2.50429 -8.1015,-0.81803 -94.1543,-2.55868 -125.3333,-2.53522 -13.9138,0.0107 -42.5836,2.12984 -55.3334,4.09044 -11.0658,1.70164 -43.3626,0.95527 -49.0728,-1.13406 -4.2117,-1.54106 -5.2592,-1.55471 -6.1702,-0.0805 -0.9064,1.46663 -2.3266,1.41534 -8.1602,-0.29473 -5.391,-1.58036 -7.7176,-1.71823 -9.8297,-0.58252 -1.5219,0.81832 -4.5671,1.64929 -6.7671,1.8466 -9.6265,0.86336 -28.4981,3.4308 -34.039,4.63093 -3.9767,0.86136 -10.0744,0.84951 -17.856,-0.0347 -6.4995,-0.73851 -12.3122,-1.03678 -12.9172,-0.6628 -0.6052,0.37396 -15.3699,0.94328 -32.8107,1.26514 -35.3771,0.65288 -53.8775,1.7058 -55.3799,3.15186 -0.5514,0.53085 -6.2514,0.18836 -12.6666,-0.76111 -19.0442,-2.81861 -44.005,-3.90311 -58.3306,-2.53435 -5.1333,0.49047 -14.3182,1.34348 -20.411,1.89556 -6.0927,0.5521 -26.8871,0.88074 -46.2096,0.7303 l -35.1319,-0.27352 -0.8777,8.88472 c -0.4827,4.88658 -1.0567,11.65981 -1.2755,15.05161 -0.2188,3.39181 -0.7892,6.80012 -1.2675,7.57402 -0.4782,0.77391 -1.1617,5.7988 -1.5186,11.16642 -1.4438,21.70933 -6.5562,30.45186 -14.35,24.53928 -2.2744,-1.72532 -2.268,-2.07767 0.1489,-8.29094 1.4716,-3.78312 2.9631,-12.327 3.5765,-20.48902 0.5788,-7.7 1.2775,-17 1.5526,-20.66667 0.8402,-11.19998 0.341,-23.83452 -1.0058,-25.45736 -1.8464,-2.22481 -0.037,-5.87597 2.9123,-5.87597 1.9349,0 2.524,-0.96693 2.524,-4.14265 0,-3.22976 0.4648,-3.96431 2.1091,-3.33334 1.16,0.44514 2.9658,0.80932 4.013,0.80932 1.0472,0 2.9315,1.2 4.1872,2.66667 1.2559,1.46667 3.2858,2.66667 4.5111,2.66667 1.2252,0 2.5601,0.86658 2.9667,1.92576 0.5966,1.55514 2.9977,1.78753 12.4758,1.20753 6.4555,-0.39503 11.922,-1.2164 12.148,-1.82529 0.226,-0.60888 2.444,-0.25764 4.9287,0.78056 2.8691,1.19876 4.8157,1.40538 5.3344,0.5662 0.9485,-1.53466 7.2811,-1.73472 9.5277,-0.30102 0.8444,0.53878 11.3444,0.22498 23.3334,-0.69733 11.989,-0.92231 25.2049,-1.829 29.3686,-2.01488 4.1638,-0.18588 8.0138,-0.78127 8.5556,-1.32308 1.3306,-1.33051 16.6834,-1.04939 26.5407,0.48597 4.4,0.68534 13.6487,1.53342 20.5527,1.88462 6.904,0.35118 12.8488,0.93462 13.2106,1.2965 0.3619,0.3619 1.3132,0.14592 2.114,-0.47993 2.5648,-2.00443 8.7894,-3.00569 8.7894,-1.41381 0,0.95552 1.7629,1.20046 5,0.69468 2.75,-0.42968 14.3,-1.1678 25.6666,-1.64026 26.9339,-1.11949 28.2679,-1.22192 30.8891,-2.3716 1.2223,-0.53612 6.0223,-0.57248 10.6667,-0.0808 13.618,1.44168 44.2609,1.89707 45.7456,0.67983 0.7509,-0.61569 4.9653,-1.41304 9.3653,-1.77188 4.4,-0.35884 13.4,-1.36707 20,-2.24052 14.7181,-1.94781 33.6619,-1.39965 35.1553,1.01725 0.5819,0.94151 2.0352,1.3368 3.2296,0.87846 1.1946,-0.45836 4.1666,-0.17506 6.6046,0.62957 3.3792,1.11524 7.6998,0.97447 18.1781,-0.59227 7.5599,-1.13038 18.9399,-2.12053 25.2888,-2.20036 6.3491,-0.0799 15.1436,-1.13562 19.5436,-2.34625 6.2093,-1.70845 9.7907,-1.93455 16,-1.01012 8.5613,1.2746 12.8864,1.46541 21.3333,0.94113 2.9334,-0.18205 14.3334,0.27788 25.3334,1.0221 11,0.74421 29.9,1.03246 42,0.64057 34.1476,-1.10595 54.0121,-0.44188 72,2.40699 4.7666,0.75492 11.0666,1.30056 14,1.21253 2.9333,-0.088 14.8206,0.0935 26.4161,0.40336 16.8709,0.45087 21.5025,0.98301 23.1832,2.66367 1.5844,1.58445 2.9137,1.79094 5.4127,0.84085 2.1016,-0.79907 3.8802,-0.78811 4.8658,0.03 1.6262,1.34953 16.6824,3.75595 31.4555,5.02744 16.0389,1.38045 47.0165,0.94223 49.9436,-0.70655 2.3107,-1.30152 7.4543,-1.40272 6.6684,-0.1312 -0.4232,0.68471 -0.184,1.24494 0.5315,1.24494 0.7156,0 1.5364,-0.70623 1.8241,-1.5694 0.3416,-1.02495 1.1896,-1.1467 2.4444,-0.35092 3.6443,2.31113 63.1587,2.79425 67.9213,0.55136 0.3667,-0.17268 13.8667,-0.45152 30,-0.61964 43.6548,-0.45492 42,-0.36776 42,-2.21216 0,-1.1747 0.4172,-1.24868 1.415,-0.25092 0.8676,0.8675 4.8657,1.14046 10.3333,0.70549 4.9052,-0.39023 10.7184,-0.65287 12.9184,-0.58365 2.2,0.0692 13.45,0.14168 25,0.16101 13.7572,0.0231 21,0.51805 21,1.43532 0,0.77009 0.9,1.40017 2,1.40017 1.1,0 2,-0.69298 2,-1.53998 0,-0.94644 0.8996,-0.72582 2.3341,0.57241 1.4343,1.29803 3.105,1.7078 4.3334,1.06292 1.0996,-0.5772 6.2669,-0.43539 11.483,0.31516 11.9404,1.71807 12.8326,2.99351 13.2218,18.90085 0.1617,6.61208 0.7565,13.13254 1.3218,14.48987 0.6526,1.56701 0.3867,2.86412 -0.7284,3.55329 -0.9658,0.59696 -1.8033,3.23464 -1.8609,5.86151 -0.057,2.62686 -0.7585,4.77789 -1.5575,4.78005 -1.6926,0.004 -4.5473,5.7382 -4.5473,9.13332 0,1.28549 -0.5455,2.90727 -1.2123,3.60393 -1.1082,1.15791 -4.4289,11.06496 -6.4581,19.26667 -1.6547,6.6882 -0.9301,17.75111 1.2528,19.12801 1.7939,1.13156 1.5227,1.92658 -1.9648,5.75906 -2.2253,2.44544 -4.3997,4.38244 -4.8319,4.30442 -0.4321,-0.078 -2.5857,-0.75989 -4.7857,-1.51529 z m -2005.2236,-30.6762 c -5.4999,-5.3862 -7.0166,-9.74198 -4.444,-12.76222 1.8577,-2.18084 2.057,-5.23148 2.8029,-42.90445 l 0.198,-10 L 1272,565.77397 c -14.2735,-0.21039 -27.5392,-1.84108 -30.658,-3.76865 -3.0969,-1.91398 -34.6876,-6.03162 -51.342,-6.6921 -4.4,-0.17449 -9.7988,-1.03306 -11.9973,-1.90794 -2.7031,-1.0757 -13.3049,-1.54716 -32.7463,-1.45623 -15.812,0.074 -34.4132,-0.57761 -41.3361,-1.44791 -14.1058,-1.77329 -46.5709,-2.037 -80.587,-0.65457 -22.812,0.92709 -44.13014,1.0854 -69.99997,0.51984 -7.7,-0.16833 -20.6,0.16388 -28.66666,0.73827 -12.7009,0.90434 -54.3559,2.08009 -84,2.37096 -12.46027,0.12226 -32.09704,-1.43186 -38.54448,-3.05054 -6.87628,-1.72632 -27.78823,-1.50082 -36.88618,0.39775 -7.77046,1.62156 -30.4533,1.81885 -49.90268,0.43404 -6.6,-0.46992 -20.4,-0.27559 -30.66666,0.43187 -11.14346,0.76786 -21.89091,0.81066 -26.66667,0.10613 -12.1746,-1.79588 -37.51149,-2.50164 -48.2954,-1.34527 -5.29581,0.56788 -13.09581,0.54695 -17.33333,-0.0465 -4.23754,-0.59339 -18.2046,-1.32343 -31.03794,-1.62223 -12.83333,-0.29881 -27.53333,-0.8128 -32.66666,-1.14221 -22.08834,-1.41744 -53.01752,-2.49479 -85.33334,-2.97239 -36.38208,-0.5377 -72.22356,-1.548 -98,-2.76244 -8.43333,-0.39732 -32.73333,-1.02564 -54,-1.39625 -24.12821,-0.42048 -43.05889,-1.39551 -50.3483,-2.5932 -23.92908,-3.93167 -89.99212,-1.72544 -113.6517,3.79549 -8.06666,1.88235 -18.12074,4.16448 -22.34238,5.0714 -4.22164,0.90694 -7.545758,2.30216 -7.386925,3.10051 0.158832,0.79835 -0.51225,2.90253 -1.491296,4.67595 -2.717558,4.92253 -1.548664,24.13748 3.30803,54.37931 1.389201,8.6503 -0.02795,12.39628 -4.689644,12.39628 -2.74024,0 -4.139311,-0.80205 -4.7488,-2.72238 -0.591978,-1.86516 -1.615592,-2.48386 -3.250787,-1.96487 -2.197879,0.69759 -2.344435,-0.1866 -1.852139,-11.174 0.32856,-7.33303 0.0052,-12.25872 -0.839061,-12.78049 -0.755513,-0.46694 -1.373661,-2.49356 -1.373661,-4.50361 0,-2.01006 -0.744984,-4.39963 -1.655522,-5.31016 -1.318472,-1.31848 -1.250609,-1.91567 0.333334,-2.93334 1.761553,-1.13177 1.76028,-1.42786 -0.0112,-2.59073 -1.337404,-0.87795 -1.447838,-1.31968 -0.333334,-1.33333 2.189116,-0.0268 2.216244,-9.60418 0.03339,-11.78703 -1.288817,-1.28881 -1.288817,-2.18485 0,-4.24857 0.898303,-1.43842 1.642467,-3.97344 1.653696,-5.63339 0.0112,-1.65995 0.576908,-3.89797 1.257063,-4.97337 0.78395,-1.23952 0.716712,-2.58178 -0.183676,-3.66667 -0.861394,-1.03799 -0.90668,-1.71139 -0.115034,-1.71139 0.717879,0 1.241346,-1.72226 1.16326,-3.82725 -0.101653,-2.74033 -0.709964,-3.65839 -2.141974,-3.23265 -1.301212,0.38684 -1.184748,0.0704 0.333333,-0.90567 1.283333,-0.82515 2.333333,-2.67045 2.333333,-4.10068 0,-1.43023 0.835807,-2.60041 1.857348,-2.60041 1.021542,0 2.253819,-1.03319 2.738394,-2.29596 0.502542,-1.30962 1.279837,-1.73922 1.809318,-1 1.15828,1.61708 5.228451,4.19146 9.594934,6.0688 3.25223,1.39828 8.28436,0.82746 24.66667,-2.798 5.97838,-1.32304 12.10141,-2.34903 20,-3.35124 2.93333,-0.3722 9.83333,-1.31294 15.33333,-2.09051 16.06908,-2.27181 82.40262,-1.94923 87.08163,0.42348 1.32823,0.67355 17.61785,1.42705 36.19916,1.67447 28.42972,0.37853 34.54336,0.81008 38.57423,2.72285 2.63453,1.25017 5.80616,1.88312 7.04805,1.40656 2.41532,-0.92685 64.18041,-1.05167 73.09693,-0.14773 2.93334,0.29737 7.88686,1.11818 11.00782,1.82401 3.12097,0.70583 5.92184,0.88309 6.22416,0.39393 0.95492,-1.54509 87.60474,-0.59456 95.51593,1.0478 4.02555,0.8357 22.60409,1.8074 41.28564,2.15934 43.17991,0.81344 65.15108,1.6443 69.01767,2.61 1.67816,0.41912 5.15864,-0.238 7.73438,-1.46027 4.43063,-2.10247 5.27275,-2.07673 15.61546,0.47739 11.47237,2.83308 30.39086,3.17426 61.72889,1.11328 10.01135,-0.65842 16.094,-0.34206 23.72363,1.23389 7.53985,1.5574 11.39418,1.76547 14.5367,0.78476 12.24256,-3.82064 54.91598,-4.35879 65.32794,-0.82383 8.43029,2.86216 57.72234,2.84487 62.36082,-0.0219 1.79368,-1.10855 19.77192,-0.77996 25.2543,0.46157 2.76737,0.62671 9.82189,0.33389 17.33333,-0.71944 19.92143,-2.79361 47.78033,-3.23187 52.8662,-0.83167 3.60919,1.70331 7.07676,1.76396 24.66667,0.43148 49.56643,-3.75477 55.10843,-3.71264 149.13383,1.13392 10.6333,0.5481 19.5188,0.56982 19.7455,0.0483 0.2267,-0.52155 2.1842,-0.33053 4.35,0.42448 2.1658,0.755 4.7721,1.05261 5.7917,0.66135 1.0196,-0.39127 4.5926,0.1128 7.94,1.12028 3.3474,1.00742 8.0893,1.50661 10.5375,1.10932 5.9223,-0.96106 39.2376,3.10677 50.9686,6.22332 11.3667,3.01974 23.185,3.53056 37.3333,1.61362 13.3605,-1.8102 16.0707,-0.51249 17.3967,8.32999 0.4955,3.30452 0.5665,7.36589 0.1577,9.02528 -1.1129,4.51761 -1.2121,41.64829 -0.1401,52.46845 0.8709,8.78989 0.7199,9.65308 -2.157,12.33333 -4.0312,3.75564 -4.5802,3.67446 -9.8142,-1.45137 z m 1788.5569,-78.33333 c 0,-0.73334 0.9,-1.33334 2,-1.33334 1.1,0 2,0.6 2,1.33334 0,0.73333 -0.9,1.33333 -2,1.33333 -1.1,0 -2,-0.6 -2,-1.33333 z m -398,-10.66667 c -0.4532,-0.73333 0.1468,-1.33333 1.3334,-1.33333 1.1865,0 1.7865,0.6 1.3333,1.33333 -0.4532,0.73333 -1.0532,1.33333 -1.3333,1.33333 -0.2802,0 -0.8802,-0.6 -1.3334,-1.33333 z m 47.4959,-41.20468 c -1.0107,-0.64012 -1.4089,-1.85721 -0.8852,-2.70465 0.5237,-0.84746 0.35,-2.26651 -0.3861,-3.15348 -1.6691,-2.01115 -1.2888,-20.88939 0.4756,-23.60385 0.7149,-1.1 1.3674,-9.2 1.45,-18 0.083,-8.8 0.6066,-21.7 1.1646,-28.66667 0.5582,-6.96667 1.0692,-13.71667 1.1358,-15 0.067,-1.28333 0.5845,-2.33333 1.1512,-2.33333 1.1448,0 0.2578,-57.53797 -1.0187,-66.0764 -0.5869,-3.92545 -0.2664,-5.85989 1.168,-7.05036 2.5537,-2.1194 7.5823,-3.08988 7.5823,-1.46335 0,3.1841 4.1422,0.87908 4.8588,-2.70377 0.846,-4.23005 5.0845,-6.62949 7.4797,-4.23431 0.9345,0.93464 2.2167,0.9681 3.8384,0.10014 1.3392,-0.71676 3.9517,-0.92254 5.8055,-0.45728 2.1252,0.53341 4.5982,0.0413 6.694,-1.3318 1.828,-1.19775 3.3236,-1.959 3.3236,-1.6917 0,0.26732 2.85,-0.0327 6.3333,-0.66653 3.4833,-0.63391 7.6156,-1.37852 9.1829,-1.65469 1.5674,-0.27619 4.9872,-1.51647 7.5996,-2.75619 2.6126,-1.23972 5.3803,-1.86457 6.1504,-1.38856 0.7703,0.47601 1.4004,0.32609 1.4004,-0.33313 0,-0.65924 2.55,-1.94719 5.6667,-2.86211 3.1167,-0.91492 7.4667,-2.46617 9.6667,-3.44724 5.25,-2.34115 37.1762,-1.65963 40.2102,0.85836 1.6907,1.40317 2.2694,1.30363 3.3184,-0.57077 1.6807,-3.00318 11.5123,-3.03428 18.1808,-0.0576 2.7266,1.21704 5.5572,2.2943 6.2906,2.39393 0.7333,0.0996 1.1544,0.99079 0.9356,1.98036 -0.2188,0.98957 1.2065,3.47367 3.1672,5.5202 3.4777,3.62997 3.5436,4.00843 2.6944,15.47351 -0.4788,6.46388 -1.2107,15.22272 -1.6266,19.46408 -0.4185,4.26985 -0.175,8.43536 0.5456,9.33333 0.7159,0.89197 1.405,7.62177 1.5312,14.9551 0.1267,7.33334 0.5423,14.60276 0.9242,16.15428 0.3818,1.55152 0.013,5.35746 -0.8235,8.45763 -1.3357,4.96037 -1.2277,5.85664 0.9004,7.46999 1.33,1.0083 1.7456,1.85237 0.9236,1.8757 -1.0727,0.0304 -1.1339,1.82987 -0.2167,6.37574 0.703,3.48333 1.455,17.19402 1.6712,30.46821 0.2923,17.94313 0.9099,25.29751 2.4072,28.66667 3.555,7.99927 3.6607,9.17053 1.0627,11.76858 -2.0637,2.06368 -4.6504,2.5326 -14.5563,2.63876 -6.8808,0.0737 -12.4064,-0.45299 -12.8856,-1.22831 -0.4614,-0.74657 -1.335,-1.05081 -1.9413,-0.67608 -0.6064,0.37474 -2.8149,-0.22694 -4.9079,-1.33706 -2.5318,-1.34292 -7.8214,-2.05122 -15.8054,-2.11642 -6.6,-0.0539 -16.6502,-0.38984 -22.3338,-0.74653 -6.3865,-0.40081 -14.5352,0.13173 -21.3333,1.39421 -6.0497,1.12352 -16.6996,2.4267 -23.6663,2.89595 -6.9666,0.46924 -15.0666,1.68868 -18,2.70985 -2.9333,1.02118 -6.8937,1.86542 -8.801,1.8761 -3.6286,0.0203 -10.5156,1.93668 -15.4051,4.28657 -1.5801,0.75939 -3.5301,0.97451 -4.3333,0.47807 -0.8034,-0.49644 -1.4606,-0.26722 -1.4606,0.5094 0,1.70036 -3.9482,1.82622 -6.5041,0.20734 z m 24.8183,-20.43988 c 3.4938,-0.9045 6.7522,-2.20866 7.2409,-2.89814 0.4887,-0.68947 5.5887,-1.3543 11.3333,-1.47739 5.7447,-0.12307 12.095,-0.68399 14.1116,-1.2464 2.4587,-0.68568 3.6667,-0.52023 3.6667,0.5022 0,1.09963 0.7264,1.13601 2.6052,0.13053 1.4329,-0.76684 6.3829,-1.77033 11,-2.22998 4.6172,-0.45964 8.9948,-1.28187 9.7281,-1.82718 0.7334,-0.5453 7.0334,-0.71212 14,-0.3707 6.9667,0.34141 15.2167,0.70406 18.3334,0.80589 3.1166,0.10187 5.6666,0.58784 5.6666,1.08003 0,0.49218 2.1672,0.40609 4.8162,-0.19132 3.685,-0.83111 5.8325,-0.51526 9.1445,1.34492 2.3805,1.3371 7.1611,2.63909 10.6232,2.89328 l 6.2949,0.46217 0.3164,-25.68868 c 0.174,-14.12877 -0.016,-26.02089 -0.4218,-26.42692 -0.4062,-0.40603 -0.8319,-2.64612 -0.9463,-4.97797 -0.1147,-2.33187 -0.6205,-9.63976 -1.1247,-16.23976 -0.5041,-6.6 -0.8561,-13.2 -0.7821,-14.66667 0.5497,-10.90209 -0.1027,-28.19778 -1.2581,-33.35373 -1.663,-7.42024 -0.4146,-18.8668 2.1656,-19.85691 2.6258,-1.00765 2.2754,-6.03924 -0.4944,-7.0997 -1.2834,-0.49132 -3.2334,-1.99938 -4.3334,-3.35123 -1.8526,-2.27679 -3.965,-2.41516 -28.6666,-1.87771 -14.6667,0.31912 -27.781,0.67846 -29.1427,0.79854 -2.6452,0.23321 -16.1692,4.82352 -19.5677,6.64164 -1.1242,0.60134 -4.1242,1.53893 -6.6667,2.08353 -2.5427,0.54459 -5.3144,1.54572 -6.1593,2.22473 -0.8451,0.67902 -4.1451,1.48284 -7.3334,1.78628 -11.7004,1.11354 -16.4072,2.14359 -18.5161,4.05208 -2.5077,2.26951 -7.0473,2.52804 -10.6389,0.6059 -2.1798,-1.16656 -2.6211,-0.76551 -3.3019,3 -1.564,8.65014 -0.9885,37.01325 0.7508,37.01325 0.6453,0 0.8751,3.75 0.5105,8.33333 -2.051,25.79081 -3.531,41.21616 -4.6284,48.23951 -0.7022,4.49509 -0.7346,8.52192 -0.075,9.33333 1.2978,1.59659 0.8822,26.86884 -0.5143,31.26884 -0.7536,2.37421 -0.3535,2.82498 2.5075,2.82498 1.8721,0 6.2626,-0.74005 9.7564,-1.64455 z m 35.0192,-36.07486 c -2.1492,-1.08326 -3.7719,-3.44378 -4.5679,-6.64471 -1.0773,-4.33187 -0.8353,-5.38969 1.8991,-8.30023 1.7234,-1.8346 3.9501,-3.33564 4.9481,-3.33564 0.998,0 3.316,-0.9838 5.1511,-2.18622 3.1309,-2.05148 3.4489,-2.03264 5.1586,0.30554 1.7519,2.39584 1.9279,2.36451 4.5722,-0.81377 4.9812,-5.98736 3.4542,-7.19559 -10.4946,-8.30401 -5.9658,-0.47407 -13.3333,-5.87695 -13.3333,-9.77794 0,-1.61788 -1.8,-4.86849 -4,-7.2236 -3.4209,-3.66206 -4,-5.32332 -4,-11.47434 0,-3.95578 -0.15,-7.64232 -0.3333,-8.19232 -0.1834,-0.55 0.9602,-1.18434 2.5413,-1.40964 1.8345,-0.26143 3.1999,-1.70595 3.7737,-3.99253 1.376,-5.4821 3.2171,-6.93116 8.8064,-6.93116 4.0106,0 4.961,0.43585 4.3607,2 -0.4221,1.1 -0.1027,2 0.7085,2 0.8119,0 1.476,-0.51844 1.476,-1.15211 0,-0.63365 2.7895,-1.53444 6.1988,-2.00173 3.4094,-0.46731 7.0064,-1.51984 7.9934,-2.33896 2.1766,-1.80646 7.317,1.15342 10.5365,6.06704 1.7348,2.64753 1.8063,3.67282 0.412,5.90547 -2.068,3.31142 -4.2981,3.90164 -19.0159,5.03294 -9.5805,0.73642 -11.9225,1.36632 -13.5108,3.63374 -1.7761,2.53584 -1.4944,3.16882 3.7324,8.38531 4.5419,4.53289 6.9138,5.81579 12.0618,6.52409 4.1332,0.56868 7.5433,2.01694 9.606,4.0796 1.7589,1.75887 3.5681,3.19794 4.0205,3.19794 0.4524,0 1.7092,0.88676 2.7931,1.97058 1.0838,1.08382 2.8598,2.46828 3.9469,3.0766 1.0869,0.60831 2.318,3.21162 2.7356,5.78514 0.7087,4.36686 0.1953,5.22926 -7.6919,12.9234 -4.6481,4.53434 -9.0649,8.24428 -9.815,8.24428 -0.7502,0 -2.9816,1.5 -4.9588,3.33333 -4.0096,3.71793 -10.2626,4.36025 -15.7112,1.61391 z m -499.9032,51.53961 c -1.9219,-2.44328 -2.8006,-5.59011 -2.8851,-10.33334 -0.2149,-12.06473 -0.8892,-22.55019 -2.1964,-34.15351 -0.8451,-7.50199 -0.8243,-11.91484 0.061,-13.05346 0.877,-1.12716 0.9559,-9.86002 0.2287,-25.33333 -1.3969,-29.72981 -0.8845,-51.47132 1.368,-58.04197 1.5835,-4.61881 1.5401,-5.00809 -0.4633,-4.16187 -6.0347,2.54886 -7.8438,2.22252 -8.985,-1.62074 -2.0345,-6.8515 -1.4773,-11.71391 1.4414,-12.5793 1.4666,-0.43486 3.771,-0.23462 5.1209,0.44499 1.5601,0.78544 3.7463,0.71432 6,-0.19521 1.9501,-0.78698 5.6457,-1.51486 8.2124,-1.61751 4.7535,-0.19011 15.4517,-3.3868 18.1644,-5.42753 0.8236,-0.61971 2.4081,-0.77732 3.5212,-0.35024 1.1129,0.42708 5.2389,0.13581 9.1689,-0.64726 3.93,-0.78306 11.4292,-1.66556 16.6648,-1.96109 5.2358,-0.29555 10.862,-1.25588 12.503,-2.13408 2.3613,-1.26375 3.2062,-1.23627 4.0518,0.13173 0.8699,1.40751 1.767,1.38527 4.8304,-0.11973 4.246,-2.08604 21.1419,-4.103 32.962,-3.93488 5.1572,0.0733 8.25,-0.49265 8.9796,-1.64332 0.72,-1.13543 1.1203,-1.21193 1.1335,-0.21667 0.02,1.53331 22.1899,1.49606 33.5852,-0.0564 3.3153,-0.45166 5.4148,-0.0449 6.4967,1.25863 0.879,1.05927 2.3749,1.92595 3.324,1.92595 0.949,0 1.9256,0.45 2.1701,1 0.2444,0.55 2.5825,2.08424 5.1959,3.40942 4.7898,2.42892 11.9082,11.69692 11.9234,15.52414 0,1.13654 0.9254,3.82516 2.0463,5.97472 2.1309,4.08636 2.5433,27.14763 0.6096,34.09171 -0.5105,1.83334 -0.23,9.93334 0.6232,18 1.5147,14.31824 0.2453,36.26368 -2.2404,38.736 -0.5243,0.52138 -0.4379,1.91907 0.1917,3.10598 0.6298,1.18692 1.2147,7.17794 1.3,13.31341 0.085,6.13547 0.5202,12.60964 0.9663,14.38705 0.542,2.15924 0,4.13364 -1.6487,5.94964 -2.207,2.43894 -3.4178,2.62174 -11.793,1.78064 -5.1335,-0.51552 -11.4478,-1.64545 -14.0318,-2.51096 -2.7936,-0.9357 -7.1304,-1.20788 -10.6981,-0.67138 -3.3,0.49624 -6.9881,0.72528 -8.1959,0.50897 -2.5992,-0.46551 -16.1761,-0.93191 -17.1374,-0.58869 -0.3667,0.13093 -3.0667,0.42966 -6,0.66393 -2.9334,0.23427 -10.7334,2.23573 -17.3334,4.44769 -11.3776,3.81317 -22.7994,5.48832 -42.6666,6.25764 -9.9092,0.38371 -24.6667,3.25781 -24.6667,4.804 0,0.63217 -1.1645,1.14941 -2.588,1.14941 -1.4233,0 -2.9588,0.6 -3.412,1.33334 -0.4532,0.73333 -1.9968,1.33333 -3.4301,1.33333 -1.4334,0 -3.7979,0.6 -5.2547,1.33333 -1.4567,0.73334 -3.8404,1.93334 -5.2971,2.66667 -4.6149,2.32323 -9.0116,1.51931 -11.9213,-2.17981 z m 19.158,-17.19592 c 1.4236,-1.07668 3.9381,-1.9576 5.588,-1.9576 1.6498,0 3.3706,-0.6 3.8238,-1.33333 0.4532,-0.73334 3.3387,-1.33703 6.412,-1.34155 3.0735,-0.004 7.388,-0.96243 9.588,-2.12869 3.1667,-1.67874 6.2675,-1.94226 14.8842,-1.26496 7.0397,0.55333 11.1882,0.36332 11.7453,-0.53798 0.4737,-0.76642 3.0923,-1.39349 5.8192,-1.39349 2.7269,0 6.2585,-0.91097 7.8481,-2.02437 1.5898,-1.11342 3.3732,-1.91816 3.9634,-1.78834 0.5902,0.12987 1.9732,-0.0756 3.0732,-0.45645 12.0117,-4.15916 16.5262,-5.22116 19.269,-4.53279 1.7788,0.44646 3.5146,0.35954 3.8572,-0.19316 1.0055,-1.62161 42.3792,-1.07489 47.2192,0.62395 4.125,1.44789 4.451,1.32124 6.425,-2.49623 1.5876,-3.07004 1.7613,-4.93462 0.7342,-7.88092 -0.8953,-2.56848 -0.8997,-4.13486 -0.013,-4.6829 0.7328,-0.45292 1.1943,-2.11618 1.0255,-3.69614 -0.1688,-1.57996 0.2724,-4.97265 0.9806,-7.53932 0.9902,-3.5887 1.1704,-32.86562 0.3118,-50.66666 -0.053,-1.1 0.3289,-7.14631 0.8488,-13.43623 0.7913,-9.57229 0.5973,-11.78422 -1.1899,-13.57142 -1.2669,-1.26695 -2.1352,-4.3687 -2.1352,-7.62774 0,-7.36544 -4.9181,-11.9288 -12.9213,-11.98914 -3.0734,-0.0232 -5.9344,-0.60263 -6.3578,-1.28768 -0.8798,-1.4237 -8.898,-0.55668 -14.5108,1.56908 -2.6541,1.00521 -4.0525,1.01358 -4.6666,0.0279 -1.0747,-1.7249 -12.7435,-2.81538 -18.2102,-1.70177 -2.2,0.44816 -4.9206,0.27175 -6.046,-0.39204 -1.7773,-1.04839 -36.7502,2.65712 -47.954,5.08089 -1.8333,0.39662 -7.8333,1.04946 -13.3333,1.45075 -5.5,0.40128 -10.9,1.10605 -12,1.56616 -1.1,0.46011 -3.5,0.94335 -5.3333,1.07387 -5.2684,0.37509 -13.6127,1.92902 -18.3334,3.41418 l -4.3333,1.3633 v 19.68965 c 0,10.8293 0.6285,28.93277 1.3967,40.22993 1.5289,22.48408 2.5865,48.81676 2.525,62.87361 -0.039,8.98307 -0.032,8.99992 3.6862,8.9576 2.049,-0.0233 4.8901,-0.92333 6.3136,-2 z m 49.7452,-39.10575 c -4.6224,-4.71574 -5.2424,-13.91476 -1.0876,-16.13828 3.7105,-1.98586 7.68,-1.6988 8.5697,0.61976 1.2547,3.26946 4.4689,2.29059 7.662,-2.33333 1.6457,-2.38333 4.9867,-6.38333 7.4241,-8.88889 2.4375,-2.50555 4.4318,-5.26256 4.4318,-6.12668 0,-1.93206 -4.3246,-5.98443 -6.3864,-5.98443 -2.4479,0 -6.947,-5.603 -6.947,-8.65141 0,-1.54839 0.6678,-3.48298 1.4839,-4.29908 3.0383,-3.03826 -0.1173,-4.06427 -5.9972,-1.94991 -4.918,1.76849 -6.2357,1.8252 -8.0192,0.34507 -2.2223,-1.84428 -2.8281,-7.62232 -1.0865,-10.36126 1.7608,-2.76915 7.9304,-4.39382 11.9025,-3.13429 2.0441,0.64819 5.9832,1.55511 8.7536,2.0154 2.8328,0.47067 4.6788,1.41643 4.2185,2.16125 -0.4501,0.7284 -0.2116,2.0557 0.5303,2.94954 0.7419,0.89385 1.5435,4.01756 1.7815,6.9416 0.238,2.92404 1.047,5.31642 1.798,5.31642 2.5289,0 8.7216,6.79666 9.7928,10.74798 1.4301,5.27481 -1.1372,11.1003 -8.9959,20.4125 -10.9107,12.92876 -15.3499,17.06068 -20.0279,18.64139 -5.8748,1.98509 -5.5409,2.06288 -9.801,-2.28335 z m 573.4268,56.14815 c -2.8616,-3.08119 -3.2203,-4.30538 -2.2462,-7.66667 0.6378,-2.2 1.1504,-6.4 1.1394,-9.33333 -0.048,-12.73337 0.8889,-28.65343 1.7362,-29.50072 0.5063,-0.50632 0.2788,-1.69385 -0.5054,-2.63895 -1.3144,-1.58377 -1.8931,-44.77824 -1.1948,-89.19366 0.2478,-15.77265 -0.2579,-14.44524 9.172,-24.07196 1.757,-1.79376 2.4717,-3.26137 1.588,-3.26137 -0.8838,0 -1.2359,-0.6 -0.7827,-1.33334 0.4532,-0.73333 2.8588,-1.33333 5.3457,-1.33333 2.8999,0 5.0092,-0.83696 5.8808,-2.33333 1.2943,-2.22223 1.361,-2.22223 1.3996,0 0.044,2.53029 2.0524,3.13818 3.3628,1.01782 1.5426,-2.49588 18.9031,-6.80268 29.4424,-7.30409 11.455,-0.54497 25.902,-3.08865 25.902,-4.56055 0,-0.50329 1.05,-0.99246 2.3334,-1.08702 3.1925,-0.23524 13.882,-2.91966 16.3333,-4.10172 2.6533,-1.27947 29.3116,-1.24714 29.3239,0.0356 0,0.55 1.4785,1 3.2741,1 3.3804,0 10.6637,5.62717 9.1903,7.10057 -0.4592,0.45924 -0.1014,1.71884 0.7952,2.79911 1.2666,1.52629 1.2953,4.71641 0.1293,14.31084 -1.3748,11.30724 -0.8533,25.18454 1.0691,28.45098 0.43,0.73051 0.8853,7.63051 1.012,15.33333 0.2993,18.19623 1.4749,32.433 3.3345,40.38079 0.8204,3.5066 1.5773,12.5066 1.682,20 0.1487,10.65512 0.582,13.5422 1.988,13.24732 1.1461,-0.24039 0.7837,0.9122 -1,3.17981 -2.7927,3.55034 -3.7825,8.53058 -1.6955,8.53058 0.6064,0 0.8427,1.76966 0.5252,3.93258 -0.444,3.02567 0.2755,4.72274 3.1199,7.35884 4.3575,4.03839 5.0284,10.77913 1.3412,13.47525 -1.2956,0.94742 -1.9603,2.36248 -1.4768,3.14462 0.4833,0.78212 0.2435,1.42204 -0.5332,1.42204 -0.7765,0 -1.412,-0.5789 -1.412,-1.28643 0,-3.16928 -5.108,-3.95968 -12.7411,-1.97152 -5.2949,1.37919 -8.1394,1.57739 -9.084,0.63295 -0.7561,-0.75626 -2.7194,-1.375 -4.3629,-1.375 -1.6433,0 -3.3588,-0.6 -3.812,-1.33334 -1.072,-1.73456 -14.8296,-1.66184 -26.6667,0.14098 -5.1333,0.78181 -18.3333,1.5731 -29.3333,1.75845 -12.6784,0.21361 -21.4643,0.96787 -24,2.06039 -2.2,0.94786 -5.2,1.8941 -6.6667,2.10273 -10.4929,1.49257 -15.1305,2.53883 -18.267,4.12113 -5.7494,2.90036 -10.8228,2.25911 -14.6395,-1.85034 z m 24.7998,-17.09208 c 2.8748,-0.33301 6.7768,-1.37875 8.6714,-2.32387 1.8945,-0.94512 6.4225,-1.87254 10.062,-2.06094 3.6396,-0.18839 7.5028,-1.05816 8.5846,-1.93283 1.5814,-1.27828 1.7484,-1.22709 0.8519,0.26093 -0.9032,1.49906 -0.2107,1.68151 3.6401,0.9591 2.6155,-0.49068 5.0718,-0.38034 5.4583,0.24518 0.8028,1.29902 8.5132,0.85943 20.1633,-1.1496 15.5547,-2.68233 30.1595,-2.93757 39.7579,-0.69482 4.9955,1.16724 9.3403,2.12226 9.6551,2.12226 0.3148,0 0.5769,-2.85 0.5824,-6.33333 0,-3.48333 0.3481,-9.93333 0.7614,-14.33333 2.0923,-22.27596 2.0766,-28.33815 -0.1026,-39.33334 -1.304,-6.57934 -2.4123,-19.59609 -2.6422,-31.03146 -0.2177,-10.83396 -0.96,-20.43396 -1.6494,-21.33333 -1.3162,-1.71678 -2.2226,-16.29583 -1.8218,-29.30187 0.1294,-4.21667 -0.2368,-7.70543 -0.8146,-7.75279 -0.578,-0.0473 -4.1855,-0.37641 -8.0166,-0.73121 -4.394,-0.40693 -9.2106,0.11707 -13.0466,1.41945 -3.3446,1.13551 -7.7267,2.06455 -9.738,2.06455 -2.0114,0 -8.4404,1.63483 -14.2867,3.63295 -9.4808,3.24026 -12.5753,3.6366 -28.6297,3.66666 -11.1322,0.0208 -19.0175,0.62186 -20.6667,1.57514 -1.4667,0.84777 -6.3167,2.56249 -10.7777,3.81048 l -8.1112,2.26908 -0.306,8.85617 c -0.427,12.35344 -0.5358,50.41925 -0.1627,56.85618 0.1701,2.93334 0.2156,11.36308 0.1013,18.73278 -0.1146,7.36969 0.3888,16.06969 1.1183,19.33333 0.7293,3.26364 1.1031,8.33389 0.8304,11.26723 -0.2728,2.93333 -0.8644,9.45793 -1.3148,14.49912 l -0.8191,9.16577 3.7208,-0.90908 c 2.0464,-0.49999 6.0728,-1.18155 8.9475,-1.51456 z m 52.7734,-43.44044 c -2.9314,-2.45301 -4.4675,-2.69435 -12.7372,-2.00101 -8.1579,0.68396 -9.6894,0.4552 -11.5572,-1.72634 -1.1843,-1.38312 -1.8331,-2.83484 -1.4419,-3.22605 0.3912,-0.39121 0.1013,-2.46025 -0.6436,-4.59787 -1.1591,-3.32468 -0.6895,-5.20874 3.2479,-13.03186 2.5316,-5.02991 5.0218,-9.46203 5.5341,-9.84916 1.8493,-1.39786 5.5979,-9.6461 5.5979,-12.3177 0,-2.33773 -0.6268,-2.63212 -4.3334,-2.03516 -3.4961,0.56307 -4.8016,0.0743 -6.7572,-2.52972 -3.3369,-4.44345 -2.404,-7.35768 3.3439,-10.44521 4.6695,-2.50825 5.1009,-2.52466 9.6273,-0.36614 2.6064,1.24289 5.6563,1.90775 6.7776,1.47747 1.3863,-0.53197 1.8055,-0.17456 1.3099,1.11695 -0.4009,1.04459 0.422,2.94069 1.8285,4.21359 2.1495,1.94534 2.3698,3.14896 1.3811,7.54894 -0.6468,2.87903 -2.3743,7.19972 -3.8385,9.60154 -1.4644,2.4018 -2.6648,5.45977 -2.6676,6.79549 0,1.33571 -0.905,3.32857 -2.005,4.42857 -1.1,1.1 -2,3.45714 -2,5.2381 0,1.78094 -0.033,3.63409 -0.073,4.1181 -0.04,0.484 2.0596,1.61331 4.6667,2.50955 2.6069,0.89624 4.74,1.36621 4.74,1.04439 0,-0.32184 1.3334,0.34886 2.9633,1.49045 1.6299,1.14157 3.7247,2.0756 4.6551,2.0756 1.811,0 9.7149,7.69027 9.7149,9.4524 0,1.80975 -2.8704,2.9468 -8.5423,3.38392 -4.0206,0.30985 -6.3354,-0.31391 -8.791,-2.36884 z M 724.94604,490.10446 c -1.313,-0.99588 -5.513,-2.18746 -9.33333,-2.64794 -8.77784,-1.05806 -51.1018,-2.7145 -66.94604,-2.62008 -17.83875,0.10626 -60.27446,3.08858 -75.11034,5.27858 -5.61697,0.82915 -5.96612,0.65964 -12.60322,-6.11834 -5.84111,-5.96508 -6.52942,-7.18943 -4.76951,-8.48389 3.90684,-2.87363 6.77696,-14.72284 5.774,-23.83783 -1.29851,-11.80096 -1.82509,-28.12177 -0.95327,-29.54448 0.40542,-0.66156 0.92834,-5.46156 1.16206,-10.66667 0.23372,-5.2051 0.80117,-13.96382 1.261,-19.46382 0.45984,-5.5 1.03826,-12.64248 1.28541,-15.87216 0.24715,-3.22969 -0.49776,-8.62969 -1.65533,-12 -1.15759,-3.37032 -2.2697,-8.08316 -2.47135,-10.47299 -0.43295,-5.131 1.37733,-6.36752 10.07817,-6.88392 3.2987,-0.19578 6.46891,-0.64725 7.04494,-1.00324 0.57601,-0.356 4.16026,-0.93644 7.965,-1.28985 3.80474,-0.35343 7.61498,-1.22127 8.4672,-1.92855 2.92381,-2.42654 18.99698,-2.9387 61.1919,-1.94982 8.06667,0.18905 15.65042,-0.15414 16.85276,-0.76264 1.20235,-0.60851 9.74174,-1.19519 18.97643,-1.30374 9.23468,-0.10853 16.49116,-0.68144 16.12549,-1.27309 -1.22081,-1.97531 1.87331,-2.69453 12.10444,-2.81365 10.03995,-0.11694 10.20567,-0.0629 15.49711,5.05108 5.14033,4.96793 5.3194,5.42494 4.59811,11.73544 -0.41279,3.6114 -1.46584,7.00829 -2.34014,7.54862 -2.01712,1.24666 -1.99145,25.33776 0.0439,41.21851 1.42949,11.15345 0.92701,19.23128 -1.37793,22.15185 -1.34544,1.70479 -1.865,43.99608 -0.63288,51.51481 2.21472,13.51475 2.21796,14.0776 0.0933,16.20227 -2.58495,2.58496 -7.09473,2.68781 -10.32788,0.23554 z M 583.43031,472.89475 c 0.52608,-1.37095 4.66512,-1.7058 18.29148,-1.4798 15.61785,0.25902 28.24666,-0.88406 34.27821,-3.10266 1.1,-0.40461 2.6,-0.55348 3.33333,-0.3308 3.67659,1.11638 17.04507,2.83114 25.33334,3.2495 5.13333,0.25909 14.00398,0.74741 19.71256,1.08513 5.70857,0.33772 10.64042,0.1914 10.95968,-0.32515 0.83053,-1.34382 16.29545,-0.28049 19.29898,1.32695 1.38607,0.7418 3.11191,1.34873 3.83518,1.34873 1.85416,0 3.5459,-8.43812 1.8079,-9.01745 -0.88089,-0.29363 -0.98296,-1.8682 -0.27997,-4.31935 0.60843,-2.12149 0.57925,-9.92429 -0.0648,-17.33954 -1.27297,-14.65532 -0.58079,-21.18067 2.48765,-23.45132 1.5267,-1.12976 1.76714,-3.02276 1.06055,-8.34935 -0.69607,-5.24717 -0.50872,-6.80512 0.78635,-6.539 2.25778,0.46393 1.51197,-6.61203 -1.13146,-10.73465 -2.60878,-4.06862 -4.26113,-35.29097 -2.01113,-38.00205 1.17996,-1.42176 0.99413,-2.32668 -0.81375,-3.96279 -2.1205,-1.91903 -4.05013,-1.93855 -20.32862,-0.20559 -12.44124,1.32446 -25.7953,1.68935 -43.31907,1.18364 -40.66297,-1.17344 -58.08793,-0.78566 -66.10728,1.47118 -3.97433,1.11848 -9.77605,2.38897 -12.89272,2.82333 -6.39905,0.89183 -6.42981,0.95749 -3.61021,7.70573 1.6825,4.02682 1.92244,8.84483 1.3195,26.49616 -0.40532,11.86592 -1.42577,26.14399 -2.26768,31.72904 -0.84189,5.58505 -1.07004,11.28505 -0.50697,12.66667 0.56305,1.38161 1.16224,4.31201 1.33153,6.51201 0.16928,2.2 1.60366,6.52609 3.18748,9.61355 3.02474,5.89632 3.68326,10.3991 1.70008,11.62477 -0.64878,0.40097 -1.44145,2.51307 -1.76148,4.69353 -0.55286,3.76694 0.16914,4.58166 4.64959,5.24682 0.57303,0.0851 1.34783,-0.6427 1.7218,-1.61724 z M 633.66667,459.706 c -1.65,-0.79577 -3.00074,-1.80516 -3.00163,-2.24309 -8.9e-4,-0.43795 -1.50089,-2.53958 -3.33333,-4.67031 C 625.49927,450.66187 624,447.81187 624,446.45927 c 0,-1.3526 -0.75,-2.46847 -1.66667,-2.4797 -1.1111,-0.0136 -1,-0.45125 0.33334,-1.31292 2.93238,-1.89505 8.1247,-1.59952 12.56316,0.71504 3.07657,1.60439 4.11466,1.67894 4.93333,0.3543 0.57027,-0.92271 2.96837,-2.32799 5.32912,-3.12286 2.36075,-0.79485 5.16393,-2.75798 6.22929,-4.3625 1.90778,-2.87327 1.83391,-2.91731 -4.89228,-2.91731 -3.7561,0 -6.82929,0.5362 -6.82929,1.19156 0,0.66725 -2.41457,0.57868 -5.48743,-0.20129 -7.28325,-1.8487 -19.31402,-13.26563 -20.36256,-19.3236 -0.63681,-3.67934 -0.35258,-4.33334 1.88332,-4.33334 1.44834,0 2.63334,-0.75772 2.63334,-1.68382 0,-0.92611 1.35,-2.29807 3,-3.0488 1.65,-0.75074 2.85,-2.09302 2.66666,-2.98284 -0.18333,-0.88983 0.6071,-1.61787 1.75652,-1.61787 1.48308,0 1.84411,-0.77424 1.24348,-2.66667 -1.20681,-3.80233 0.31986,-7.59829 3.3775,-8.39788 1.44237,-0.37718 2.6225,-1.57297 2.6225,-2.65728 0,-1.65068 5.78974,-6.68589 8,-6.95742 0.36667,-0.0451 1.98238,-0.8134 3.59047,-1.70746 2.30569,-1.2819 3.69269,-1.27522 6.56079,0.0316 2.88925,1.31643 3.75012,1.3177 4.1873,0.007 0.86723,-2.60168 11.53786,-2.08025 13.96375,0.68235 3.02261,3.44214 4.03145,7.88501 2.45803,10.825 -1.20454,2.25066 -2.40984,2.49966 -9.1441,1.88902 -9.8111,-0.88964 -17.96284,2.75862 -20.79978,9.30882 -1.02682,2.37077 -3.43058,6.37706 -5.3417,8.90286 -1.91112,2.5258 -3.47476,5.3758 -3.47476,6.33334 0,1.96436 5.17802,2.15693 14.90308,0.55424 7.2173,-1.18942 9.45707,-0.30255 15.3887,6.09338 7.7814,8.3905 6.76317,17.74418 -2.45026,22.50862 -2.06936,1.0701 -4.40136,3.13944 -5.18224,4.59852 -0.78086,1.45908 -2.19865,2.65286 -3.15064,2.65286 -0.95197,0 -3.48086,1.78334 -5.61974,3.96296 -4.09511,4.17311 -8.33603,4.927 -13.55556,2.40972 z m -531.79926,27.39521 c -6.840429,-3.41237 -8.569405,-7.80792 -7.560953,-19.22206 0.48006,-5.43354 0.844668,-13.02916 0.810242,-16.87916 -0.04499,-5.03048 0.445618,-7 1.743685,-7 1.888429,0 2.403551,-1.62496 0.969673,-3.05883 -1.359478,-1.35948 -1.289264,-42.23329 0.07333,-42.68709 0.681934,-0.22712 1.28006,-9.4969 1.333333,-20.66407 0.05313,-11.13869 0.546613,-20.25318 1.09662,-20.25442 0.55,-10e-4 1.00919,-2.55226 1.02041,-5.66892 0.0266,-7.374 1.38138,-9.31486 6.12426,-8.77344 l 3.85532,0.4401 0.66667,14 c 0.36667,7.7 -0.10481,26 -1.04774,40.66667 -1.01028,15.71433 -1.26567,29.40474 -0.62181,33.33333 0.60092,3.66667 0.68846,9.36667 0.19452,12.66667 -0.49394,3.3 -1.03521,6.9 -1.20283,8 -0.86136,5.65269 0.28843,12.03193 2.67697,14.85229 2.41791,2.85503 2.82353,2.94576 4.36232,0.97575 1.06171,-1.35923 3.77529,-2.20064 7.25185,-2.24862 3.05542,-0.0421 6.94238,-0.92637 8.63768,-1.9649 1.69531,-1.03854 5.97844,-2.0248 9.51808,-2.19171 3.53964,-0.16692 8.78964,-0.47115 11.66667,-0.67607 2.87702,-0.20493 5.23096,0.13227 5.23096,0.74931 0,0.61704 7.7003,1.08288 17.11178,1.0352 9.4115,-0.0477 19.4615,0.54001 22.33334,1.30599 2.87185,0.76596 7.62154,1.49282 10.55488,1.61524 2.93333,0.1224 7.54009,0.75717 10.23725,1.41057 2.69716,0.65339 13.59981,1.36903 24.22813,1.59029 19.26808,0.40115 19.32844,0.39303 20.7797,-2.79209 0.8005,-1.75693 1.18806,-3.62708 0.86124,-4.15588 -0.32682,-0.52881 0.50109,-4.28156 1.8398,-8.33945 1.55848,-4.72406 2.25694,-9.97771 1.94177,-14.60528 -0.90516,-13.2901 -0.59713,-23.98974 0.76384,-26.53275 0.74155,-1.38559 1.34827,-4.05869 1.34827,-5.94024 0,-1.88155 0.75,-3.43017 1.66666,-3.4414 1.03218,-0.012 1.15908,-0.39335 0.33334,-1 -1.66022,-1.21973 -2.1088,-5.64625 -0.5722,-5.64625 0.62233,0 1.13156,-1.65 1.13162,-3.66667 6e-5,-2.01667 0.26191,-5.58005 0.5819,-7.91864 0.4136,-3.02284 -0.15452,-4.91832 -1.96528,-6.55705 -1.54646,-1.39951 -2.24396,-3.26009 -1.7755,-4.73608 0.42438,-1.33707 0.29871,-3.1864 -0.27924,-4.10963 -0.57796,-0.92322 -1.06668,-2.45881 -1.08606,-3.4124 -0.0324,-1.59384 -4.23256,-4.27225 -12.70191,-8.0999 -1.83333,-0.82856 -8.31657,-1.79007 -14.40721,-2.13668 -6.09064,-0.34663 -11.63744,-0.97852 -12.32624,-1.40423 -2.54724,-1.57428 -50.15558,-3.34379 -60.33996,-2.24271 -5.72371,0.61882 -10.72036,0.61767 -11.10367,-0.003 -0.38331,-0.6202 -6.87171,-1.04631 -14.41867,-0.94688 -12.59774,0.16596 -19.23773,-1.13286 -19.49612,-3.81351 -0.0505,-0.5242 -0.29652,-2.48053 -0.54666,-4.3474 -0.36194,-2.70124 0.36553,-3.75741 3.56287,-5.17269 3.40129,-1.50556 6.09325,-1.44687 17.54666,0.38252 7.44095,1.18849 16.829,2.09116 20.86233,2.00592 4.03334,-0.0852 8.39098,0.28718 9.68364,0.82762 1.29268,0.54043 3.14566,0.32254 4.11772,-0.48421 1.18298,-0.98177 10.3942,-1.36177 27.85598,-1.14916 17.13042,0.20857 25.80653,-0.14019 25.26718,-1.01569 -0.45176,-0.73334 0.82056,-0.25958 2.82736,1.05278 2.03631,1.33166 6.72731,2.54422 10.61511,2.74388 3.83149,0.19676 8.16635,1.01284 9.63301,1.81351 1.46667,0.80067 4.76667,1.65296 7.33334,1.89399 2.56666,0.24102 4.96666,0.75749 5.33333,1.1477 0.36667,0.39022 3.78925,2.1429 7.60573,3.89486 7.95487,3.65166 9.7276,6.97572 9.7276,18.24022 0,3.88062 0.6825,7.47748 1.51664,7.99301 1.07372,0.66359 1.24372,4.8725 0.58211,14.41202 -1.24996,18.02266 -1.31671,18.60248 -2.31991,20.15152 -1.52677,2.35746 -2.33969,10.14378 -3.20065,30.6565 -1.09116,25.99747 -1.32892,28.68018 -3.25239,36.69806 l -1.6167,6.73918 -12.85455,-0.87797 c -7.07,-0.48288 -13.42716,-1.21746 -14.12701,-1.63238 -1.88508,-1.11758 -28.96426,-1.31277 -32.04455,-0.23097 -1.60701,0.5644 -4.49381,-0.0259 -7.33333,-1.49936 -12.18904,-6.32532 -64.4658,-8.0788 -75.35426,-2.52754 -2.87425,1.4655 -6.19904,2.66445 -7.38843,2.66445 -1.18939,0 -2.61252,0.45 -3.16252,1 -0.55,0.55 -1.4,1.03545 -1.88889,1.07878 -5.54301,0.4913 -12.38437,2.51002 -13.64206,4.02544 -1.89693,2.28567 -2.14616,2.27431 -7.37942,-0.33633 z m 2412.31899,-4.10123 c -4.1088,-3.06863 -4.8235,-4.31906 -4.3819,-7.66666 0.5364,-4.06599 2.9058,-11.38425 5.0932,-15.73243 1.9172,-3.81081 1.5359,-20.69332 -0.7138,-31.6009 -2.296,-11.13206 -3.6588,-34.4384 -3.5471,-60.66667 0.056,-13.03665 -0.4275,-18.28002 -1.9481,-21.15241 -2.4246,-4.57931 -2.542,-7.58075 -0.4747,-12.11819 1.8627,-4.0881 -0.4171,-3.79412 33.1193,-4.27081 32.9183,-0.46789 31.727,-0.40167 50,-2.77905 17.2842,-2.24871 31.5587,-2.36631 35.4348,-0.29192 1.5255,0.81641 3.6267,1.15702 4.6694,0.7569 1.0428,-0.40012 1.8958,-0.2668 1.8958,0.29626 0,1.41652 9.6135,0.2205 11.699,-1.45546 0.9344,-0.75092 2.0632,-1.00093 2.5085,-0.55556 0.4455,0.44536 2.0809,0.0988 3.6345,-0.77008 1.5536,-0.86889 7.3247,-1.7274 12.8247,-1.90778 5.5,-0.18038 13.2791,-0.54184 17.2869,-0.80324 7.0642,-0.46076 7.3852,-0.33036 10.5046,4.26626 1.7697,2.60786 4.0049,5.35134 4.9672,6.09664 1.6297,1.2624 1.7064,5.74351 0.3766,22.02178 -0.4621,5.65582 0.9547,14.36525 2.6736,16.43646 1.1778,1.4191 1.2155,2.11096 0.1347,2.47123 -2.3,0.76665 -3.6797,43.5025 -1.5851,49.0923 0.74,1.9747 0.82,9.31135 0.1963,18 -1.6779,23.37463 -1.5572,25.73863 1.4452,28.30938 3.0861,2.64245 3.3888,5.52668 0.9324,8.88594 -1.5293,2.09159 -4.7716,2.44411 -27.4536,2.98492 -16.2796,0.38816 -26.3151,0.11894 -27.3421,-0.73352 -5.3143,-4.41038 -25.3523,-6.2549 -52.1367,-4.79926 -23.0493,1.25265 -34.57,2.30194 -37.4984,3.41532 -1.838,0.69881 -5.3028,1.27056 -7.6995,1.27056 -2.3968,0 -4.7178,0.36013 -5.158,0.80029 -0.4401,0.44016 -3.6901,0.9076 -7.2222,1.03876 -3.532,0.1312 -8.464,1.27102 -10.96,2.53304 -5.7779,2.92132 -5.4778,2.95784 -11.2755,-1.3721 z m 29.4743,-18.32106 c 4.58,-0.44549 10.398,-1.67515 12.9286,-2.73256 3.207,-1.33995 4.8712,-1.48583 5.492,-0.48139 0.5484,0.88723 2.7344,1.09528 5.6874,0.54131 3.9505,-0.74111 15.8805,-1.22111 54.898,-2.2088 4.5424,-0.11493 20.7281,3.2666 21.498,4.49144 0.4746,0.75519 8.7694,1.40599 19.3333,1.51687 l 18.502,0.1942 1.1445,-12.66667 c 1.4207,-15.72313 1.4682,-24.85521 0.1872,-36 -0.572,-4.97633 -0.2908,-17.03581 0.6603,-28.32141 1.5153,-17.97908 1.4596,-20.06972 -0.6533,-24.52228 -3.0879,-6.50733 -3.9076,-13.54987 -2.2682,-19.48755 1.8202,-6.59177 -0.253,-8.40478 -7.3129,-6.39512 -4.9955,1.42204 -32.5712,3.4624 -41.7576,3.08971 -2.5667,-0.10413 -8.4167,-0.27335 -13,-0.37603 -4.5833,-0.10266 -8.3333,-0.72004 -8.3333,-1.3719 0,-1.34024 -15.9879,-0.52836 -30,1.52342 -5.1334,0.75167 -15.555,1.31391 -23.1592,1.24942 -9.012,-0.0764 -14.5022,0.44401 -15.7683,1.49484 -1.5193,1.2609 -2.1603,1.25976 -2.942,-0.005 -1.1901,-1.92566 -13.1004,-1.10793 -15.2557,1.04743 -1.8742,1.87412 -1.4194,52.00722 0.597,65.80146 0.8355,5.71636 1.1783,10.73432 0.7615,11.151 -0.4167,0.4167 0.059,2.93967 1.0568,5.60662 2.2113,5.91034 3.9315,20.79942 3.6055,31.20925 -0.2296,7.32875 -0.099,7.66437 2.765,7.0778 1.6534,-0.33868 6.7534,-0.98028 11.3334,-1.42579 z m 57.9204,-22.08551 c -1.6972,-0.68064 -2.7374,-1.80116 -2.3116,-2.49001 0.4257,-0.68887 0.1642,-1.62936 -0.5811,-2.08997 -0.7453,-0.46062 -1.3551,-1.95208 -1.3551,-3.31435 0,-1.36228 -0.75,-2.7414 -1.6666,-3.06471 -1.2627,-0.44537 -1.123,-1.53556 0.5769,-4.49824 1.234,-2.15072 3.1204,-6.45545 4.1921,-9.56608 l 1.9486,-5.65568 -9.716,0.88046 c -9.4444,0.85582 -9.7802,0.78273 -12.0059,-2.61416 -3.0247,-4.61635 -1.7529,-10.7065 1.9879,-9.5192 1.4226,0.45152 4.0418,-0.157 5.8912,-1.3687 1.8313,-1.19992 5.9738,-2.18168 9.2056,-2.18168 h 5.876 l 2.09,-7.5089 c 1.1494,-4.1299 1.7988,-7.9799 1.443,-8.55555 -0.9605,-1.55412 -4.7937,-1.28081 -13.3712,0.95335 -4.2232,1.1 -11.6594,2 -16.525,2 -10.3799,0 -13.2599,-2.1089 -13.2599,-9.70957 v -4.83292 l 5.9907,0.27124 c 3.2949,0.14918 5.9949,0.75666 6,1.34994 0,0.59328 0.722,0.63822 1.593,0.0999 0.8711,-0.53835 4.9211,-1.06796 9,-1.17689 4.079,-0.10894 9.8778,-0.97234 12.8863,-1.91867 4.1084,-1.29227 6.1639,-1.34927 8.2572,-0.229 2.0688,1.1072 3.6644,1.09189 6.1912,-0.0595 2.8633,-1.30464 3.8529,-1.14676 6.2292,0.99387 4.7088,4.24172 5.6324,8.4526 3.0903,14.08985 -2.3998,5.3216 -1.7292,9.85135 1.2869,8.69396 2.2229,-0.85304 8.8085,5.70085 8.8085,8.76617 0,3.66423 -8.5022,9.2543 -12.5356,8.24198 -2.9902,-0.75052 -3.4702,-0.43919 -3.5068,2.27504 -0.023,1.7295 -0.9233,4.30922 -2,5.73272 -2.7866,3.68429 -2.5952,15.31826 0.2867,17.4256 2.0667,1.51116 1.9875,1.96562 -1,5.73989 -3.3961,4.29069 -7.2689,5.13689 -12.9965,2.83976 z m -17.5607,-23.59342 c -0.013,-1.65 0.5796,-3 1.3129,-3 1.6706,0 1.6706,1.41498 0,4 -1.0452,1.61728 -1.2964,1.42592 -1.3129,-1 z M 403.55557,484.49942 c -0.61109,-0.64136 -17.85892,-1.22614 -38.32849,-1.29952 l -37.2174,-0.13341 -3.33817,-3.60194 c -3.39767,-3.66615 -4.41786,-7.46456 -2.00484,-7.46456 0.73333,0 1.33333,-1.5 1.33333,-3.33334 0,-1.83333 -0.6,-3.33333 -1.33333,-3.33333 -0.73334,0 -1.33334,-1.5 -1.33334,-3.33333 0,-1.83334 0.6614,-3.33334 1.46979,-3.33334 1.58564,0 1.01513,-25.058 -0.63115,-27.72174 -0.48517,-0.78503 -0.23337,-1.82828 0.55956,-2.31835 0.79294,-0.49007 1.33915,-2.48152 1.2138,-4.42547 -0.12533,-1.94394 -0.11666,-3.83444 0.0192,-4.2011 0.13592,-0.36667 0.37855,-3.49572 0.53918,-6.95344 0.16061,-3.45774 0.69188,-6.68662 1.18057,-7.17531 0.48869,-0.48871 0.25003,-2.08161 -0.53039,-3.53983 -1.11486,-2.08313 -0.84881,-3.42241 1.24154,-6.24974 1.68296,-2.27634 2.42034,-4.85455 2.00694,-7.01712 -0.35944,-1.88026 0.003,-3.82439 0.80538,-4.3203 2.01712,-1.24665 1.84598,-11.0289 -0.20778,-11.87675 -1.0097,-0.41683 -0.48414,-1.04748 1.33334,-1.59995 3.23589,-0.98361 4.04586,-4.00515 1.33333,-4.97391 -0.91667,-0.32738 -1.23116,-1.06288 -0.69889,-1.63445 0.53228,-0.57156 1.88228,-0.28024 3,0.64739 1.26718,1.05166 2.03222,1.15282 2.03222,0.26869 0,-0.77984 -0.54366,-1.75391 -1.20816,-2.16459 -1.68613,-1.04208 -0.18525,-6.30324 2.55564,-8.95852 3.38428,-3.27857 16.17264,-4.55278 21.08718,-2.10109 3.31524,1.65385 7.76061,1.78377 27.7564,0.81123 13.09492,-0.6369 24.52018,-0.89268 25.38946,-0.56839 0.8693,0.32428 1.82134,-0.12667 2.11566,-1.00216 0.37245,-1.10789 4.00237,-1.47849 11.94116,-1.21913 6.27332,0.20494 14.02128,-0.25883 17.21768,-1.0306 3.19641,-0.77178 14.24226,-1.75119 24.54634,-2.17646 l 18.7347,-0.77322 4.24012,3.56782 c 4.28545,3.60598 7.91093,12.75124 6.17104,15.56644 -0.49802,0.8058 -1.01328,4.24196 -1.14504,7.63591 -0.13174,3.39394 -1.01292,7.59677 -1.95812,9.33961 -1.80978,3.337 -0.91386,19.51109 1.22776,22.16453 0.86692,1.07412 5.60365,15.41036 5.94724,18 0.0487,0.36667 0.57121,1.42726 1.16125,2.35686 0.59005,0.9296 0.9784,6.0296 0.863,11.33333 -0.29953,13.76675 0.90384,24.46189 3.59411,31.94328 3.70713,10.30919 2.97836,10.84829 -17.57075,12.99779 -5.86667,0.61367 -14.56667,1.55442 -19.33333,2.09055 -9.40063,1.05735 -13.17242,1.19748 -19.33334,0.7183 -2.2,-0.17112 -13.3,0.1096 -24.66666,0.62382 -11.47204,0.51899 -21.16099,0.41614 -21.77776,-0.23116 z m 25.99268,-14.47982 c 6.35154,-0.47737 19.46664,-1.07217 29.14467,-1.32179 10.32037,-0.26618 18.1982,-1.05561 19.05176,-1.90917 0.80043,-0.80043 3.73532,-1.45532 6.52199,-1.45532 5.26169,0 6.19496,-1.00504 3.46666,-3.73333 -1.24444,-1.24444 -1.24444,-1.95556 0,-3.2 2.24367,-2.24367 1.9915,-7.15136 -0.49524,-9.6381 -1.90476,-1.90476 -1.90476,-2.09524 0,-2.09524 2.56247,0 2.8386,-6.24304 0.50288,-11.36938 -1.11672,-2.45091 -1.18166,-4.16235 -0.21742,-5.7294 0.966,-1.56994 0.88957,-3.40946 -0.25698,-6.18479 -0.89754,-2.17263 -1.30222,-4.8094 -0.89926,-5.85948 0.40294,-1.05008 -0.32752,-2.68444 -1.62328,-3.63192 -1.29575,-0.94748 -2.07556,-2.51072 -1.73291,-3.47385 0.34265,-0.96315 -0.11827,-3.25118 -1.0242,-5.08451 -1.65497,-3.34907 -4.10333,-18.17571 -3.41273,-20.66667 0.20332,-0.73333 0.63118,-4.01269 0.95082,-7.28745 0.31966,-3.27477 1.00728,-6.27477 1.52808,-6.66666 0.5208,-0.39191 0.93411,-2.1728 0.91847,-3.95756 -0.0411,-4.67834 -5.29415,-5.65318 -21.97156,-4.07732 -17.80511,1.68241 -50.97528,2.80494 -89.66667,3.03448 C 342.52645,365.87711 340,366.08438 340,368.20068 c 0,1.26974 0.6,2.67942 1.33333,3.13264 1.93526,1.19606 1.61962,12.75329 -0.45697,16.73239 -1.90747,3.65505 -3.37691,14.22424 -4.34713,31.26761 -0.33398,5.86667 -0.82695,11.30227 -1.0955,12.07912 -0.26854,0.77684 0.53706,7.80147 1.79024,15.61025 1.25318,7.80879 1.8052,15.04355 1.22672,16.07724 -1.39426,2.49143 3.11183,6.57339 6.02315,5.45622 1.20605,-0.4628 2.19283,-1.33128 2.19283,-1.92995 0,-0.59868 1.67773,-0.25153 3.72829,0.77143 2.83656,1.41506 9.26695,1.78925 26.88555,1.56446 14.63918,-0.18676 23.32328,0.19896 23.60862,1.04864 0.47979,1.42874 9.7293,1.43159 28.65912,0.009 z m -20.80252,-10.51117 c -4.5266,-4.82003 -5.0104,-10.49674 -1.36833,-16.05523 1.27444,-1.94504 1.93737,-3.91623 1.47319,-4.38041 -0.46419,-0.46419 -4.29547,-0.73956 -8.51395,-0.61194 -8.99104,0.272 -10.64271,-0.55446 -12.24029,-6.12494 -1.41715,-4.9413 0.0596,-5.90903 7.23922,-4.74394 5.01948,0.81455 15.3311,-1.79786 15.3311,-3.88409 0,-0.65923 0.60508,-0.82465 1.34461,-0.36759 1.76907,1.09334 3.69744,-4.26293 2.94737,-8.18665 -0.44616,-2.33396 -1.7759,-3.30215 -5.44122,-3.96176 -2.66792,-0.48011 -5.46842,-1.35833 -6.22334,-1.9516 -2.15869,-1.69645 -9.98132,-1.22844 -17.66832,1.05707 C 376.53541,413.00011 372,411.36755 372,405.39264 c 0,-4.44525 5.31231,-9.02468 9.62201,-8.29456 3.24008,0.54891 17.04466,-2.35796 17.04466,-3.58915 0,-0.53277 6.00609,-1.11456 13.34688,-1.29288 12.99082,-0.31556 13.4363,-0.22772 16.69885,3.29262 4.76013,5.13626 5.16207,8.35305 2.03501,16.28648 -3.28117,8.3244 -3.27029,8.20484 -0.74741,8.20484 2.24112,0 7.33333,4.6187 7.33333,6.65142 0,2.3194 -4.33268,6.47056 -6.0612,5.80726 -0.91798,-0.35227 -2.06516,4.2e-4 -2.54929,0.78376 -0.48412,0.78332 -2.04481,1.42422 -3.4682,1.42422 -2.85597,0 -3.35144,2.74876 -1.215,6.74074 1.01787,1.90189 0.8392,3.38006 -0.69076,5.71508 -1.38472,2.11334 -1.80889,4.7532 -1.28919,8.02328 0.62788,3.9508 0.31686,5.01645 -1.64257,5.62793 -1.32941,0.41487 -3.45897,1.31051 -4.73236,1.99031 -2.81153,1.50094 -2.20471,1.78565 -6.93903,-3.25556 z M 170.31521,432.41073 C 167.86177,431.77088 164,425.5324 164,422.20885 c 0,-2.90892 3.31872,-3.60237 10.61656,-2.21837 4.80897,0.91201 7.46485,0.79659 9.82308,-0.42687 l 3.23209,-1.67684 -3.10524,-3.61005 c -1.70789,-1.98553 -3.74546,-3.61007 -4.52794,-3.61007 -1.6325,0 -0.44235,-6.35586 1.6979,-9.06748 1.01774,-1.28942 0.62864,-1.9277 -1.51718,-2.48885 -1.58727,-0.41508 -2.88594,-1.28471 -2.88594,-1.93251 0,-0.6478 -0.82157,-1.17782 -1.82572,-1.17782 -1.32086,0 -1.87533,-2.19515 -2.00516,-7.93862 l -0.17945,-7.93861 4.58532,-0.86021 c 2.52192,-0.47312 5.22425,-0.46534 6.00516,0.0173 0.78092,0.48263 1.41985,0.19924 1.41985,-0.62975 0,-0.84877 0.94887,-0.5584 2.17192,0.66466 1.19456,1.19456 2.99456,1.85624 4,1.47042 1.00544,-0.38582 1.82808,-0.1204 1.82808,0.58998 0,0.71032 0.80332,1.29149 1.78518,1.29149 2.38381,0 11.54816,7.90784 11.54816,9.96483 0,2.99046 -4.17338,10.03413 -6.76796,11.42272 -3.05955,1.63741 -3.35903,4.68926 -0.56538,5.76129 1.1,0.42211 2,1.95089 2,3.39729 0,1.4464 0.54367,2.96583 1.20816,3.37651 1.93174,1.19387 -0.0508,6.44232 -3.88509,10.285 -5.33568,5.3474 -18.90328,7.99781 -28.34119,5.53644 z m 19.48391,-34.36804 c 0.41309,-1.07652 0.0273,-2.37272 -0.85735,-2.88044 -0.88464,-0.50772 -1.16364,-0.43214 -0.62001,0.16796 0.54364,0.6001 0.32017,1.8963 -0.49659,2.88043 -0.93366,1.125 -0.98233,1.78935 -0.13106,1.78935 0.74466,0 1.69192,-0.88079 2.10502,-1.9573 z m 1752.50018,21.14994 c -1.1814,-3.18751 -1.6122,-6.12655 -0.9576,-6.5312 0.6548,-0.40466 0.8303,-3.77767 0.3899,-7.49558 -0.5955,-5.0282 -0.3221,-7.05829 1.0672,-7.9249 1.4319,-0.8931 1.5223,-1.71858 0.3875,-3.53634 -1.1963,-1.91609 -3.0388,-2.31049 -9.5983,-2.05458 -4.4648,0.17418 -8.4901,-0.2856 -8.9451,-1.02175 -0.4549,-0.73616 -1.358,-1.01044 -2.0066,-0.60952 -3.8939,2.40657 -51.3114,3.33091 -76.6363,1.49393 -8.0667,-0.58513 -25.1667,-0.90389 -38,-0.70837 -36.0748,0.54964 -48.89,0.0532 -63.3333,-2.45351 -14.205,-2.46529 -44.2486,-2.99836 -61.3334,-1.08822 -13.6678,1.5281 -21.6604,1.76409 -90.6666,2.67704 -37.9726,0.50237 -64.7683,1.39684 -68,2.26992 -3.2895,0.88869 -10.6986,1.11449 -19.3334,0.58924 -11.957,-0.72736 -14.3405,-1.25846 -16.3333,-3.63959 -2.8576,-3.41441 -3.0403,-8.60263 -0.3393,-9.63907 1.0966,-0.42084 5.2401,-0.16508 9.2077,0.56838 5.5023,1.01714 10.3279,0.82577 20.3393,-0.80664 7.2191,-1.1771 16.0616,-2.60052 19.6499,-3.16316 3.5884,-0.56264 11.3884,-0.49955 17.3333,0.1402 5.9451,0.63973 12.9091,1.35653 15.4758,1.59286 2.5666,0.23634 15.4666,-0.23852 28.6666,-1.05522 13.2,-0.81671 32.25,-1.4024 42.3334,-1.30152 18.3289,0.18336 21.0622,-0.539 16.012,-4.23176 -2.0827,-1.52288 -2.2806,-4.13364 -1.9254,-25.39511 0.2178,-13.03374 0.6211,-24.062 0.8963,-24.50721 0.2752,-0.44523 0.8467,-4.79795 1.2701,-9.67271 0.4235,-4.87477 1.0987,-9.71998 1.5006,-10.76717 0.7572,-1.97353 -2.8551,-3.53488 -8.2586,-3.56955 -8.7774,-0.0563 -5.8201,-25.60848 3.505,-30.28357 4.6546,-2.3336 21.507,-0.79541 23.3333,2.12972 2.9491,4.72369 3.1313,8.58109 0.7224,15.28621 -2.4644,6.85911 -5.1508,16.05708 -8.1088,27.76342 -1.4197,5.61852 -2.0524,35.08436 -0.8964,41.75269 0.2543,1.46667 0.9503,7.02511 1.5467,12.35208 0.8292,7.40656 1.4682,9.36684 2.7158,8.33142 0.8974,-0.74467 4.569,-1.26187 8.1592,-1.1493 3.5903,0.11253 14.7179,-0.27641 24.7282,-0.86439 13.459,-0.79056 20.406,-0.61264 26.6666,0.68296 4.6564,0.9636 10.8663,1.96687 13.7996,2.22947 2.9334,0.26261 8.0334,0.7454 11.3334,1.07288 6.7938,0.67417 28.3616,0.68949 41.3333,0.0293 7.9717,-0.40569 17.4855,-0.63487 29.3296,-0.70651 2.5645,-0.0155 9.0967,0.58847 14.5156,1.34219 7.4044,1.02984 10.3297,0.97455 11.7721,-0.22248 1.3118,-1.08872 2.2036,-1.14977 2.8176,-0.19288 0.4942,0.77 5.9606,1.51533 12.1478,1.65631 6.187,0.14096 11.6346,0.49449 12.1056,0.78561 0.471,0.29112 3.5582,-0.28379 6.8602,-1.27759 3.3278,-1.00149 9.2238,-1.55101 13.2278,-1.23285 3.973,0.31572 7.8237,0.53281 8.557,0.48243 0.7334,-0.0504 7.3954,-0.2928 14.8046,-0.53871 17.4564,-0.57937 21.0865,-2.21437 21.5081,-9.68734 0.1719,-3.04784 -0.5364,-7.94788 -1.5741,-10.88896 -1.8019,-5.10716 -1.7404,-5.50531 1.3692,-8.86062 2.4613,-2.6558 3.9842,-3.28261 6.2408,-2.56846 4.3164,1.36612 8.4474,4.7022 10.8898,8.79416 2.4303,4.07184 9.8618,9.07468 13.5856,9.14584 1.3802,0.0264 4.2267,1.4526 6.3256,3.16938 2.099,1.71679 4.8272,2.85708 6.0627,2.53399 3.5313,-0.92345 6.3919,6.43116 5.6617,14.55661 -0.1186,1.32399 -1.7705,2.68825 -3.874,3.20001 -4.5464,1.10615 -15.9054,10.37699 -17.0212,13.89203 -0.4538,1.43001 -1.6848,2.60003 -2.7353,2.60003 -1.0505,0 -1.9101,0.4859 -1.9101,1.07978 0,0.59388 -4.2615,5.48736 -9.4699,10.87439 -11.9228,12.33159 -15.6843,13.24159 -18.8975,4.5718 z m 539.4508,-58.90685 c -0.8708,-0.55371 -2.1862,-2.59259 -2.9232,-4.53088 -1.0824,-2.84712 -0.8424,-4.09779 1.25,-6.5102 1.4243,-1.64234 2.5898,-4.11538 2.5898,-5.49563 0,-1.38027 0.9396,-3.94356 2.088,-5.69623 2.3513,-3.58853 9.3898,-6.64312 10.6413,-4.61813 0.4336,0.70149 1.2788,0.97227 1.8784,0.60171 2.5271,-1.56179 4.1744,3.43998 3.7923,11.51382 l -0.4,8.44975 -5.0899,-0.40225 c -4.6031,-0.36378 -5.2367,-0.0133 -6.6256,3.66666 -1.502,3.9793 -4.0279,5.03908 -7.2011,3.02138 z M 431.75,347.08918 c 0.96249,-0.38516 2.11251,-0.3378 2.55556,0.1052 0.44305,0.44305 -0.34445,0.75818 -1.75,0.70029 -1.55327,-0.064 -1.8692,-0.37992 -0.80556,-0.80555 z M 126.66667,333.33332 c 0,-0.73333 0.63541,-1.33333 1.41202,-1.33333 0.77661,0 1.0412,0.6 0.58798,1.33333 -0.45323,0.73334 -1.08864,1.33334 -1.41203,1.33334 -0.32338,0 -0.58797,-0.6 -0.58797,-1.33334 z M 1753.1131,322.00199 c -0.3655,-0.36556 -2.4155,-0.89196 -4.5555,-1.16977 -9.972,-1.29454 -12.5071,-3.85146 -15.6136,-15.74744 -1.738,-6.65543 -5.5521,-13.08479 -7.7624,-13.08479 -0.4909,0 -1.2667,1.49077 -1.724,3.31283 -0.9913,3.94996 -18.3895,16.68717 -22.7933,16.68717 -4.4123,0 -7.9196,-4.68471 -7.5555,-10.09157 0.1712,-2.54252 -1.0723,-8.06204 -2.7633,-12.26559 -2.7098,-6.73599 -2.8644,-8.07791 -1.3039,-11.30951 1.2053,-2.49606 2.7965,-3.66666 4.9843,-3.66666 3.8532,0 5.5734,2.85658 7.3445,12.19576 0.7233,3.8138 1.6429,7.26196 2.0435,7.66257 0.9085,0.90845 9.9194,-8.51477 9.9194,-10.37325 0,-2.85303 3.1726,-8.15175 4.8807,-8.15175 0.9823,0 2.936,1.15 4.3416,2.55556 1.4055,1.40555 2.8083,2.30284 3.1171,1.99399 0.3089,-0.30887 2.4914,0.1112 4.8502,0.93348 3.6932,1.28744 4.5506,1.14941 6.1739,-0.99399 1.0368,-1.36897 1.9041,-3.77485 1.9275,-5.34639 0.023,-1.57154 0.948,-3.20485 2.0548,-3.62957 1.1068,-0.42472 1.8716,-1.23891 1.6996,-1.80931 -0.172,-0.57041 1.3277,-2.78047 3.3328,-4.91126 3.4692,-3.68671 3.8996,-3.79805 8.8954,-2.30124 5.8968,1.76671 10.7264,6.99044 10.7264,11.60174 0,3.49506 -1.9681,9.19766 -4.0066,11.60898 -0.7584,0.89724 -2.8652,3.43134 -4.6818,5.63134 -1.8165,2.2 -3.7546,4.04282 -4.3072,4.09515 -0.5524,0.0524 -2.6544,0.89864 -4.671,1.88068 -3.9052,1.90173 -5.1086,7.18555 -1.9155,8.41085 2.5788,0.9896 9.2664,-0.54712 11.3207,-2.60136 0.9818,-0.98192 3.5184,-1.78532 5.6365,-1.78532 3.3157,0 4.066,0.71682 5.3959,5.15578 2.137,7.13278 -0.3284,11.8768 -7.4376,14.31114 -5.9718,2.04488 -6.6091,2.14627 -7.5536,1.20175 z m 150.4408,-6.90884 c -3.4039,-3.53457 -6.196,-7.08431 -6.2048,-7.88831 -0.013,-0.804 -0.8887,-3.21162 -1.9556,-5.35029 -1.0668,-2.13867 -2.4168,-8.08084 -3,-13.20485 -1.3332,-11.7158 0.089,-37.03293 2.1192,-37.70947 0.818,-0.27269 1.4873,-1.07009 1.4873,-1.77201 0,-1.49553 5.5396,-9.63025 7,-10.27933 0.55,-0.24446 1,-1.60032 1,-3.01306 0,-1.41273 1.2,-3.59608 2.6667,-4.85188 1.4666,-1.2558 2.6666,-3.04992 2.6666,-3.98694 0,-0.93703 0.9194,-1.70368 2.043,-1.70368 1.9958,0 4.8208,-5.1279 3.7929,-6.8849 -0.2847,-0.4867 1.3005,-1.6867 3.5228,-2.66666 2.2221,-0.97998 4.7697,-3.42647 5.6611,-5.43664 1.1482,-2.58928 2.3049,-3.43775 3.9672,-2.91016 1.7725,0.5626 2.3568,-0.0107 2.3888,-2.34512 0.023,-1.69943 0.9137,-4.24148 1.9788,-5.64903 1.8152,-2.39899 2.0905,-2.41968 4.399,-0.33043 1.3546,1.22582 2.7142,1.97626 3.0214,1.66764 0.307,-0.30861 0.3572,2.29098 0.1106,5.77686 -0.3778,5.35569 -1.0494,6.69374 -4.3333,8.63358 -2.1373,1.26259 -3.8861,2.73487 -3.8861,3.27174 0,0.53685 -3.45,4.92182 -7.6667,9.74436 -10.7989,12.35062 -12.3333,14.31758 -12.3333,15.81066 0,0.72495 -0.4584,1.3181 -1.0188,1.3181 -1.0739,0 -5.1158,8.57205 -7.23,15.33333 -1.6992,5.43389 -1.5578,20.63101 0.2741,29.4553 1.5093,7.27035 6.7028,15.21136 9.9484,15.21136 0.9552,0 2.7352,2.4953 3.9555,5.54511 2.5005,6.24968 1.5296,8.26249 -4.7244,9.79364 -2.9114,0.71276 -4.4464,-0.17461 -9.651,-5.57892 z m -364.2122,2.12295 c -6.1248,-1.50616 -13.961,-8.5106 -18.937,-16.92684 -3.1062,-5.25366 -3.3018,-6.5076 -2.4435,-15.66667 0.5132,-5.47576 1.5223,-9.95593 2.2424,-9.95593 0.7201,0 0.9195,-1.22879 0.4428,-2.73066 -0.4767,-1.50185 -0.2864,-3.45185 0.4228,-4.33333 0.7092,-0.88146 1.7065,-3.55268 2.2161,-5.93601 0.5096,-2.38333 1.4983,-4.33333 2.197,-4.33333 0.6986,0 1.7009,-1.05 2.2273,-2.33334 2.1723,-5.29596 7.7723,-12.30142 9.846,-12.31682 1.2221,-0.009 2.4539,-0.71155 2.7371,-1.56106 0.7904,-2.3712 6.4596,-2.78393 12.374,-0.90086 6.2285,1.98306 8.1637,3.61564 9.9948,8.4318 2.6434,6.95286 1.669,9.50128 -6.3282,16.55097 -4.2166,3.71704 -8.3481,6.76674 -9.1809,6.77712 -0.8328,0.0107 -3.2328,0.91516 -5.3333,2.01064 -2.1006,1.09548 -4.7544,1.99548 -5.8976,2 -7.3355,0.0289 -9.6479,11.95113 -3.8506,19.85312 3.8487,5.24593 7.3614,6.82176 15.2066,6.82176 4.1228,0 6.0106,-0.62559 6.6112,-2.19084 0.4624,-1.20496 1.2173,-1.81428 1.6776,-1.35406 0.4601,0.46023 1.5484,-0.13645 2.4181,-1.32596 1.2541,-1.71514 2.3852,-1.89657 5.4652,-0.8766 6.0937,2.018 5.942,7.65028 -0.3963,14.70751 -4.3825,4.87987 -5.9382,5.71113 -11.72,6.26277 -3.6666,0.34983 -9.0629,0.0468 -11.9916,-0.67338 z m -0.104,-49.97801 c 1.1524,-1.15238 2.0952,-2.73624 2.0952,-3.51968 0,-1.96866 4.1774,-4.95804 7,-5.00935 3.5279,-0.0641 3.0724,-5.37573 -0.4608,-5.37573 -3.6217,0 -10.5392,4.93534 -10.5392,7.51936 0,1.10245 -0.9,2.90445 -2,4.00445 -1.1,1.1 -2,2.55713 -2,3.23809 0,1.96311 3.6083,1.43933 5.9048,-0.85714 z m 303.429,43.90122 c -7.4447,-2.26867 -9.6396,-3.94469 -12.5555,-9.58752 -2.2791,-4.41061 -2.7076,-15.4302 -0.7084,-18.21847 0.7705,-1.07478 1.9685,-5.24697 3.2541,-11.33333 0.7047,-3.33611 2.4198,-6.66666 3.433,-6.66666 0.6838,0 1.2434,-1.07232 1.2434,-2.38294 0,-1.48592 1.0842,-2.46458 2.88,-2.59986 1.584,-0.11934 3.2826,-0.86827 3.7746,-1.66432 0.492,-0.79606 2.9976,-1.78864 5.568,-2.20576 3.759,-0.61 5.3685,-0.11427 8.2254,2.53346 3.2078,2.97276 3.552,4.21414 3.552,12.80564 0,5.94151 -0.5424,9.51377 -1.4444,9.51377 -0.7945,0 -1.1902,0.75 -0.8796,1.66667 0.6972,2.05665 -10.2732,7.48355 -15.3426,7.58981 -7.2616,0.1522 -3.3239,6.74352 4.0285,6.74352 4.6987,0 7.1421,-1.63094 8.7333,-5.82922 0.7522,-1.98475 1.7998,-2.32512 5.1151,-1.66206 5.2069,1.04139 7.6925,4.21298 7.7473,9.88522 0.048,4.95636 -4.8789,10.9394 -9.0081,10.9394 -1.3777,0 -2.9464,0.44134 -3.4857,0.98076 -1.6419,1.64182 -7.8023,1.4203 -14.1304,-0.50811 z m -50.0618,-4.13932 c -3.4478,-3.60897 -3.4934,-3.90449 -2.8916,-18.78145 0.4802,-11.86716 1.0964,-15.59148 2.8684,-17.33334 2.1075,-2.07164 2.4279,-2.01012 4.8376,0.92916 1.4194,1.73126 2.5807,4.90008 2.5807,7.04186 0,2.34057 0.8516,4.22092 2.1345,4.71324 2.5939,0.99534 4.7879,-1.9853 3.9675,-5.38978 -0.8529,-3.53902 2.0296,-7.51302 5.4495,-7.51302 3.2014,0 11.1152,7.13673 11.1152,10.02388 0,1.0003 -0.6,2.18956 -1.3334,2.64278 -0.7333,0.45323 -1.3333,2.62404 -1.3333,4.82404 0,2.2 -0.5199,3.67875 -1.1552,3.2861 -1.3017,-0.80452 -5.892,3.73153 -4.8404,4.78317 0.3723,0.37229 -2.4764,3.31211 -6.3304,6.53291 -3.854,3.2208 -7.2073,6.3175 -7.4517,6.88156 -0.8994,2.0752 -4.2074,0.92826 -7.6174,-2.64111 z m 217.6956,1.78657 c -1.5792,-1.19809 -2.5294,-4.08162 -2.8568,-8.66862 -0.4346,-6.09191 -0.2212,-6.78791 1.8774,-6.12184 3.2698,1.03781 8.2702,-7.24698 10.057,-16.66278 1.6144,-8.50773 -0.52,-23.41086 -4.2966,-29.99999 -1.2611,-2.2 -2.0664,-4 -1.7896,-4 0.2766,0 -0.9508,-2.24258 -2.7278,-4.9835 -1.7769,-2.74092 -3.8365,-4.99092 -4.5768,-5 -0.7402,-0.009 -2.0953,-1.2165 -3.0112,-2.68317 -0.916,-1.46667 -2.6196,-2.66667 -3.7858,-2.66667 -1.1664,0 -4.1612,-0.96836 -6.6555,-2.15192 -3.6803,-1.74644 -4.5348,-2.91009 -4.5348,-6.17556 0,-3.93734 0.1173,-4.008 5.4368,-3.29441 2.9903,0.40108 6.4889,1.6814 7.7749,2.84515 1.2859,1.16374 2.7884,1.66553 3.3388,1.11508 0.5504,-0.55044 1.8288,0.13146 2.8407,1.5153 1.0119,1.38387 3.154,3.18292 4.7601,3.99791 1.6062,0.81499 3.5792,2.61189 4.3844,3.99313 0.8054,1.38126 3.1143,4.36496 5.131,6.6305 2.0166,2.26552 3.6666,4.61438 3.6666,5.21972 0,0.60532 1.2286,3.6216 2.7302,6.70285 3.2564,6.68217 5.5553,36.93558 2.8068,36.93558 -0.8454,0 -1.537,1.76598 -1.537,3.9244 0,2.55824 -1.0444,4.65588 -3,6.02567 -1.65,1.15571 -2.7878,2.41547 -2.5285,2.79947 1.0481,1.5524 -2.9268,8.5486 -5.2815,9.29597 -1.3878,0.44048 -2.5233,1.36043 -2.5233,2.04435 0,1.78528 -2.9403,1.45685 -5.6995,-0.63662 z m -427.4994,-8.6753 c -1.3648,-0.86416 -1.7694,-3.63243 -1.5071,-10.31292 0.1972,-5.02243 0.4875,-12.43168 0.6451,-16.46502 0.4002,-10.24853 0.5012,-10.66666 2.5742,-10.66666 2.1892,0 5.681,4.98708 6.9043,9.86112 1.2208,4.86405 2.9827,4.3709 9.4151,-2.63534 4.6202,-5.03234 6.041,-5.87542 8.0712,-4.78897 3.9317,2.10422 12.4294,10.56036 12.4294,12.36867 0,0.90816 0.8224,2.59845 1.8275,3.7562 1.0052,1.15774 2.1483,5.85498 2.5403,10.43832 l 0.7126,8.33333 h -3.6865 c -3.0644,0 -4.4492,-1.27953 -8.2068,-7.58329 -2.4863,-4.17082 -5.3539,-7.84866 -6.3727,-8.17299 -1.1194,-0.35637 -1.4838,0.007 -0.9213,0.91664 0.512,0.82847 0.1456,1.52355 -0.8144,1.54463 -0.9599,0.0211 -5.2096,3.32108 -9.4439,7.33333 -7.5702,7.17356 -10.4673,8.41545 -14.167,6.07295 z M 3331.54,290.895 c -1.2137,-1.34108 -2.2067,-4.04108 -2.2067,-6 0,-1.95892 -0.6,-3.56168 -1.3333,-3.56168 -0.7333,0 -1.3333,-1.18857 -1.3333,-2.64126 0,-2.9272 -4.819,-4.79158 -8.9752,-3.4724 -1.3755,0.43657 -8.4688,-0.10814 -15.763,-1.21038 -7.294,-1.10228 -19.5544,-2.35045 -27.2452,-2.77373 -7.6908,-0.42327 -14.3149,-1.30615 -14.7202,-1.96193 -0.4123,-0.66708 -8.6428,-0.85787 -18.6834,-0.43308 -9.8705,0.4176 -22.1464,0.83298 -27.2797,0.92309 -11.7376,0.20603 -34.0443,-2.37244 -35.1597,-4.06416 -0.9154,-1.38825 -15.3932,-3.92934 -33.4144,-5.86473 -18.623,-2 -66.355,-2.90095 -67.362,-1.27145 -0.4808,0.77789 0.6232,2.91158 2.453,4.74154 2.9703,2.9702 3.1108,3.54364 1.3099,5.34451 -2.5743,2.57424 -4.4807,2.54457 -8.2979,-0.12907 -1.9502,-1.36597 -4.4541,-1.86852 -6.8862,-1.38208 -2.102,0.42039 -8.5404,-0.0652 -14.3076,-1.07924 -6.0651,-1.06634 -19.167,-1.81462 -31.0771,-1.7749 -15.6932,0.0524 -22.1089,-0.44903 -26.9712,-2.10767 -3.5091,-1.19699 -8.9091,-2.191 -12,-2.20893 -3.0911,-0.0179 -8.3201,-0.68186 -11.6201,-1.47539 -3.3,-0.79353 -8.732,-1.37203 -12.0712,-1.28553 -3.3391,0.0865 -9.3391,-0.47402 -13.3334,-1.24559 -17.182,-3.31913 -33.4376,-5.05777 -37.1997,-3.97877 -2.8224,0.80945 -4.3508,0.61029 -5.4463,-0.70971 -1.5897,-1.91547 -22.9272,-2.60131 -62.6161,-2.01265 -9.9,0.14682 -21.6,0.26908 -26,0.27166 -30.4575,0.0179 -38.7604,0.007 -50,-0.0664 -6.9667,-0.0455 -16.2667,0.0288 -20.6667,0.16483 -4.4,0.13607 -10.7,0.27501 -14,0.30877 -3.3,0.0337 -6.3574,0.54704 -6.7944,1.14064 -1.1885,1.61499 -60.5445,1.85256 -70.5389,0.28235 -4.7667,-0.74889 -13.1239,-1.06161 -18.5716,-0.69495 -5.4804,0.36887 -14.1165,-0.0971 -19.3333,-1.04302 -5.6444,-1.02352 -12.6392,-1.35215 -17.4284,-0.81882 -13.353,1.48702 -15.9444,1.56206 -17.3334,0.5019 -3.2246,-2.46134 -17.8674,-3.8693 -42,-4.03844 -44.5977,-0.31259 -65.4173,-0.91292 -82.5706,-2.3809 -9.1139,-0.77996 -17.1043,-1.08828 -17.7566,-0.68514 -1.1166,0.69013 -8.0097,0.7227 -51.465,0.24318 -10.1455,-0.112 -18.1682,0.35534 -18.6667,1.08726 -0.4809,0.70597 -3.2228,1.42534 -6.0932,1.59861 -2.8703,0.17327 -5.6945,0.60916 -6.2763,0.96863 -1.2181,0.75285 -39.661,3.48061 -46.212,3.27902 -6.8594,-0.21109 -15.7602,4.3173 -16.825,8.55991 -0.8102,3.22756 -1.3266,3.49548 -5.1839,2.68901 -7.8429,-1.6398 -8.2715,-2.83676 -8.4089,-23.48718 -0.1094,-16.39968 0.8886,-28.51886 2.8117,-34.15468 0.3155,-0.92436 0.6411,-2.12436 0.7235,-2.66667 0.083,-0.54229 0.7458,-1.70423 1.4744,-2.58207 0.7285,-0.87784 1.2045,-2.97784 1.0578,-4.66666 -0.3325,-3.8246 2.8331,-11.74434 4.6831,-11.71686 4.674,0.0695 6.2716,5.08487 4.2404,13.31292 -1.2401,5.02403 -2.1808,13.86399 -3.0672,28.82358 l -0.7993,13.49024 6.1161,0.91717 c 3.8733,0.58085 7.1964,0.33908 9.0619,-0.65929 1.6201,-0.86706 5.7834,-1.51254 9.2517,-1.4344 4.4356,0.1 6.5308,-0.4432 7.0633,-1.83095 0.4164,-1.08516 1.4495,-1.97301 2.2956,-1.97301 1.0679,0 1.122,0.5097 0.177,1.66666 -1.0654,1.3043 0.9349,1.72192 9.1998,1.92078 7.0795,0.17034 10.2766,-0.20642 9.6979,-1.14284 -0.5589,-0.90424 0.1591,-1.07244 2.0355,-0.47688 1.7669,0.5608 4.1049,0.12986 5.9873,-1.1035 2.0569,-1.34776 3.5332,-1.5787 4.4204,-0.69152 0.8872,0.88719 1.9528,0.71132 3.1908,-0.52658 2.15,-2.15014 23.1107,-4.93254 25.5385,-3.3901 0.8972,0.57007 4.9314,1.05772 8.9647,1.0837 4.0333,0.026 10.9861,0.57585 15.4507,1.22196 5.0022,0.72392 10.6308,0.67085 14.6666,-0.13828 6.0563,-1.21416 44.9372,-1.55335 52.5494,-0.45843 1.8333,0.26371 4.5333,0.58928 6,0.72349 2.3,0.21046 2.2082,0.40395 -0.6667,1.40702 -2.1213,0.74013 0.5452,0.88578 7.3333,0.40058 5.8667,-0.41932 11.4624,-1.4139 12.435,-2.21017 1.2612,-1.0326 2.0258,-1.036 2.6666,-0.012 0.4942,0.78972 3.5984,1.42759 6.8984,1.41748 20.9772,-0.0643 64.8211,1.57267 72.6667,2.71309 5.1333,0.74618 10.8333,1.36486 12.6667,1.37486 4.9008,0.0267 13.3333,-2.65968 13.3333,-4.24768 0,-0.75612 0.8124,-0.26375 1.8053,1.09414 1.8747,2.56388 15.0779,5.18111 16.285,3.22812 0.8477,-1.37184 6.1745,-1.01956 8.243,0.54514 0.9167,0.69338 1.6659,0.73724 1.6648,0.0975 0,-1.50062 22.9043,-0.91489 23.909,0.61136 1.386,2.10542 12.2357,3.1 14.3825,1.31842 1.3833,-1.1481 6.3255,-1.52948 16.1843,-1.24895 26.1012,0.74271 34.3884,0.51057 42.1928,-1.18184 7.9504,-1.72409 23.0897,-1.82989 30.8433,-0.21552 4.2613,0.88724 8.5375,0.97916 11.3333,0.24363 7.4415,-1.95768 21.5432,-2.44863 29.745,-1.03558 5.6592,0.975 7.978,0.91962 8.6744,-0.20718 1.0089,-1.6325 5.404,-0.59343 5.404,1.2776 0,1.4067 15.2465,0.49809 21.0764,-1.25603 2.4253,-0.72976 5.2285,-1.01265 6.2292,-0.62865 1.0006,0.38398 3.0662,0.0308 4.5902,-0.78475 1.8288,-0.97877 2.7708,-1.01624 2.7708,-0.11027 0,0.81506 2.9791,1.23846 7.3334,1.04223 4.0333,-0.18176 7.3333,0.1068 7.3333,0.6412 0,0.53443 1.5,0.40137 3.3333,-0.29565 2.1066,-0.80088 3.3334,-0.80088 3.3334,0 0,0.7923 1.282,0.77993 3.4201,-0.0331 4.3819,-1.66596 6.2892,-1.65396 5.2465,0.0331 -1.1685,1.89072 0.1655,1.66093 5.0663,-0.87271 3.4928,-1.80579 3.9665,-1.84365 2.6104,-0.20873 -1.4389,1.73478 -0.7817,1.95261 5,1.65722 3.6612,-0.18705 6.6567,0.1312 6.6567,0.70723 0,1.23544 12.5686,0.86648 21.875,-0.64213 4.836,-0.78396 6.293,-0.65811 5.5879,0.48266 -0.5316,0.86031 -0.1813,1.58518 0.7917,1.63816 5.4583,0.29724 13.3763,1.39902 20.412,2.84028 9.226,1.88995 29.342,2.10094 46.6667,0.48948 6.6,-0.6139 12.9,-1.01489 14,-0.89109 1.1,0.12387 4.7,0.4128 8,0.6422 3.3,0.2294 6.3,0.55443 6.6667,0.72227 0.3666,0.16785 9.6492,0.53046 20.6277,0.80581 14.55,0.36491 20.2428,0.0663 21,-1.10168 0.6719,-1.03615 1.3923,-1.13119 2.0389,-0.26897 0.5506,0.73401 7.5926,1.3864 15.6667,1.4514 22.0653,0.17764 47.7445,1.33133 50,2.24637 1.1,0.44625 4.8343,0.99989 8.2984,1.23031 4.7291,0.31453 6.4348,-0.0811 6.8453,-1.58792 0.4143,-1.5198 0.5844,-1.44058 0.7016,0.3265 0.1851,2.79266 6.3186,3.16988 12.892,0.7929 2.3431,-0.84726 5.3856,-1.07739 6.7614,-0.51144 1.6574,0.68186 1.9362,1.23997 0.8264,1.65433 -4.2028,1.56899 0.5874,2.97005 7.7478,2.26608 5.0007,-0.49164 7.9271,-0.27816 7.9271,0.57829 0,0.74671 -1.05,1.63204 -2.3333,1.9674 -1.2834,0.33538 0.3666,0.71658 3.6666,0.84712 15.2783,0.6044 27.8158,1.43795 33.0251,2.19566 3.8877,0.56548 6.3829,0.25448 7.8724,-0.98123 2.2696,-1.88277 20.8377,-2.15471 31.7692,-0.46525 2.9333,0.45334 11.0333,1.3617 18,2.01858 6.9667,0.65688 18.0329,1.92016 24.5917,2.80728 9.3808,1.26883 12.041,1.26547 12.468,-0.0157 0.3719,-1.11563 1.157,-0.8714 2.492,0.77533 1.4056,1.73364 2.1424,1.93988 2.6424,0.73963 0.4119,-0.98881 1.9204,-1.35639 3.7166,-0.90559 2.6541,0.66616 3.2025,0.0555 4.4924,-5.00229 3.4372,-13.47905 4.4068,-28.65403 1.9334,-30.25996 -0.7069,-0.45895 -1.6844,-3.00713 -2.1724,-5.66264 -0.7536,-4.10144 -0.4313,-5.11617 2.1411,-6.74149 3.7117,-2.34524 9.8237,-2.40856 9.3615,-0.0969 -0.1834,0.91667 0.8666,1.66667 2.3333,1.66667 2.8708,0 3.4335,1.36644 1.4001,3.4 -0.7998,0.79992 -0.7642,3.47756 0.096,7.26667 1.4174,6.23865 0.2894,35.56296 -1.4082,36.61213 -1.1499,0.71063 -0.782,15.66472 0.5506,22.38786 0.6548,3.30295 0.5024,5 -0.4486,5 -0.792,0 -1.1123,0.85399 -0.7118,1.89775 0.8096,2.10948 -3.1968,4.76892 -7.1842,4.76892 -1.4012,0 -3.5407,-1.09724 -4.7543,-2.43832 z m -403.9011,-54.36723 c -0.443,-0.44306 -1.593,-0.49042 -2.5556,-0.1052 -1.0636,0.42562 -0.7477,0.74157 0.8056,0.80554 1.4055,0.0579 2.1931,-0.25724 1.75,-0.70029 z m -977.0974,49.61489 c -1.6818,-1.93418 -3.2174,-4.55754 -3.4126,-5.82968 -0.4309,-2.80967 2.4082,-9.64632 4.0059,-9.64632 0.6328,0 0.8079,-0.8928 0.3892,-1.984 -0.44,-1.14655 -0.079,-1.85005 0.8573,-1.66667 0.8903,0.17454 1.4687,-0.43266 1.2854,-1.34933 -0.1834,-0.91667 0.5456,-1.66667 1.6197,-1.66667 2.2259,0 5.2105,-4.78394 4.1028,-6.57622 -0.4172,-0.67503 -2.4123,-0.55436 -4.6215,0.27952 -4.6152,1.74206 -7.3645,0.0793 -8.706,-5.26522 -1.0638,-4.23886 3.5248,-9.77141 8.1044,-9.77141 1.6691,0 3.5447,-0.91139 4.1682,-2.02529 1.5066,-2.69222 6.1377,-3.46959 10.8608,-1.8231 2.7893,0.97238 4.4441,2.9311 6.0677,7.18266 2.4808,6.49568 2.2407,7.20106 -6.188,18.17778 -3.3241,4.32899 -3.4977,5.03035 -1.6295,6.58093 1.7179,1.42562 2.2836,1.42422 3.1688,-0.008 0.5926,-0.95889 1.8968,-1.45417 2.8983,-1.10061 1.0016,0.35355 4.4421,-0.73393 7.6459,-2.41661 7.144,-3.75227 10.2246,-2.439 12.2996,5.24336 1.2276,4.54546 1.076,5.36405 -1.302,7.02969 -1.4803,1.03684 -3.553,2.74663 -4.6059,3.79952 -1.2905,1.29053 -3.6683,1.70296 -7.2967,1.26561 -2.9602,-0.35682 -5.7474,-0.0579 -6.1938,0.66438 -0.4463,0.72221 -1.7,0.9722 -2.7859,0.55552 -1.0859,-0.41668 -2.7771,-0.0912 -3.7584,0.72316 -0.9813,0.81441 -4.5139,1.85489 -7.8501,2.31217 -5.4208,0.74301 -6.3911,0.45747 -9.1236,-2.68527 z M 462.33553,280.55775 c -0.266,-0.266 -5.25032,-1.09112 -11.07625,-1.83359 -5.82593,-0.74246 -13.80039,-1.93212 -17.72099,-2.64366 -7.30484,-1.32576 -13.0277,-1.47346 -28.20496,-0.7279 -26.98605,1.32563 -43.52956,0.32071 -68,-4.13058 -8.35649,-1.52008 -18.61056,-2.44104 -25.33333,-2.2753 -45.66259,1.12582 -60.92381,0.98339 -64.16421,-0.59885 -1.92366,-0.93928 -7.47886,-1.76752 -12.34488,-1.84052 -4.86604,-0.0729 -9.15768,-0.63484 -9.53696,-1.24854 -0.3793,-0.61371 -16.1241,-1.00312 -34.98846,-0.86538 -18.86436,0.13776 -40.29882,-0.18632 -47.63216,-0.72017 -11.41818,-0.83124 -30.70967,0.672 -38.66666,3.01297 -4.01729,1.18191 -16.517723,-7.69117 -14.78503,-10.49473 0.445245,-0.72041 -0.240621,-2.36001 -1.524147,-3.64353 -1.675644,-1.67566 -1.867082,-2.48923 -0.678921,-2.88528 0.910119,-0.30338 1.654761,-1.66618 1.654761,-3.02846 0,-1.36226 0.471926,-2.76853 1.048724,-3.12501 2.155842,-1.33237 1.787398,-17.05201 -0.480809,-20.51373 -1.65458,-2.52522 -1.79146,-3.57264 -0.565868,-4.3301 0.889159,-0.54953 1.252255,-2.14726 0.806879,-3.55052 -0.445375,-1.40325 0.09341,-6.01892 1.197302,-10.25704 3.072215,-11.79504 3.685379,-19.16952 1.69923,-20.43654 -1.974759,-1.25976 -2.524588,-7.08796 -0.668674,-7.08796 0.686686,0 0.90149,-0.90435 0.477342,-2.00966 -0.642746,-1.67497 0.163353,-1.86022 4.840228,-1.11236 8.521303,1.36262 9.529063,3.02183 8.221333,13.53598 -1.29205,10.38812 -1.4041,39.17401 -0.20858,53.58604 0.45624,5.5 0.86028,10.0399 0.89787,10.08869 0.72323,0.93843 22.58892,-0.14577 23.87207,-1.18369 2.18997,-1.77144 17.24839,-2.17495 20.61475,-0.5524 4.04984,1.95198 43.57787,2.48594 43.60195,0.589 0.0139,-1.08831 0.33712,-1.1482 1,-0.18526 0.58881,0.85534 6.56451,1.425 14.97959,1.428 13.76357,0.005 15.9831,0.23742 30.66666,3.21228 9.11592,1.84687 27.8733,3.04062 42.19678,2.68547 5.97489,-0.14815 11.2086,0.28911 11.63045,0.97168 0.45767,0.74053 3.60473,0.4946 7.80323,-0.60977 7.93462,-2.08716 35.23294,-1.50291 39.6258,0.84808 1.41264,0.75602 4.97246,1.37458 7.91073,1.37458 2.93827,0 5.71312,0.6 6.16635,1.33334 0.45322,0.73333 3.16526,1.33333 6.02674,1.33333 3.44783,0 6.02279,0.88025 7.63402,2.60969 2.24745,2.41237 2.84092,2.46857 7.8486,0.74328 2.97952,-1.02652 13.71937,-2.23381 23.86634,-2.68285 10.14698,-0.44905 18.88532,-1.08608 19.41855,-1.41564 1.08028,-0.66765 26.54567,2.809 35.84669,4.89395 4.16092,0.93273 6.11783,0.90857 6.44722,-0.0796 0.26012,-0.78035 1.17169,-0.96507 2.02572,-0.4105 0.85402,0.55458 3.05278,1.07022 4.88612,1.14587 1.83333,0.0756 6.1127,0.5832 9.50972,1.12785 3.9905,0.63983 11.5406,0.17115 21.33333,-1.32428 9.68179,-1.47848 24.78977,-2.42962 41.82361,-2.63308 C 558,264.46618 579.9,263.84005 592,263.24993 c 12.1,-0.59011 24.85363,-0.94359 28.3414,-0.78551 3.48776,0.15807 7.4418,-0.30151 8.78673,-1.02129 2.3425,-1.25368 26.22346,-2.63939 58.87187,-3.41611 8.43333,-0.20064 18.93333,-1.03731 23.33333,-1.85928 12.08356,-2.25733 31.2132,-3.25943 33.06462,-1.73205 2.44452,2.01666 36.93028,1.87857 36.9558,-0.14798 0.0159,-1.26108 0.25108,-1.258 1.05906,0.0139 0.78422,1.2344 2.28295,1.29135 6.11787,0.23248 8.00584,-2.21052 36.3074,-4.29144 76.13599,-5.59803 35.55366,-1.16634 51.74009,-2.32846 53.60268,-3.84846 0.88148,-0.71934 2.68606,-0.96404 4.01018,-0.54378 1.32412,0.42026 6.45292,0.27708 11.39732,-0.31816 4.9444,-0.59525 8.98872,-0.73953 8.98739,-0.32062 -0.003,0.96016 15.97597,0.2426 18.66909,-0.83836 3.54606,-1.42332 5.63975,-1.60124 28.60739,-2.43114 12.43408,-0.44929 23.09388,-1.11753 23.68838,-1.485 0.5946,-0.36746 0.6561,-1.37665 0.1367,-2.24265 -0.6139,-1.02355 -0.2021,-0.97337 1.1766,0.14339 2.4152,1.95621 20.781,3.13066 47.0576,3.00924 24.404,-0.1128 49.8209,-1.12576 51.3081,-2.04487 0.6921,-0.42779 5.031,-0.18584 9.6418,0.53764 6.5645,1.03001 48.05,3.10496 58.3834,2.92011 30.0841,-0.53818 58.2061,-1.67616 63.6242,-2.57462 4.8065,-0.79705 7.1097,-0.7021 7.4498,0.30708 0.3409,1.0115 1.1145,0.94758 2.5149,-0.20782 2.6439,-2.18135 12.4253,-2.53275 14.8349,-0.53294 1.5967,1.32518 1.8343,0.1878 1.5563,-7.45057 -0.9205,-25.29068 -2.4331,-45.18052 -3.5413,-46.56611 -0.8253,-1.03192 -0.2409,-2.48328 1.7449,-4.33333 3.5907,-3.34525 5.5284,-3.46871 9.8632,-0.62839 3.3563,2.19907 4.6654,8.51332 1.7652,8.51332 -1.4307,0 -1.1418,11.81662 0.652,26.66667 0.3101,2.56667 1.0033,8.72501 1.5405,13.6852 0.5372,4.9602 1.4392,9.30435 2.0044,9.65368 0.5652,0.34932 0.8508,3.44467 0.6347,6.87853 -0.3253,5.16823 -0.9914,6.55694 -3.8679,8.06411 -3.2039,1.67868 -3.7338,1.54149 -6.7921,-1.75843 -2.4146,-2.60548 -3.317,-3.00352 -3.317,-1.46314 0,1.1638 -0.75,2.60141 -1.6667,3.19469 -3.1824,2.05973 -112.1505,2.2696 -142.3333,0.27413 -13.2762,-0.87772 -24.9579,-0.9202 -32.6667,-0.1188 -15.1208,1.57198 -44.6214,1.8243 -58.9842,0.5045 -7.2568,-0.66684 -11.1592,-0.5408 -11.5,0.37141 -0.342,0.91565 -1.063,0.86724 -2.1403,-0.14373 -1.6369,-1.5362 -11.8021,-1.3716 -26.7088,0.43246 -4.03333,0.48814 -7.81381,0.77336 -8.40108,0.63386 -0.58725,-0.13951 -8.98725,0.33838 -18.66667,1.06197 -9.6794,0.72359 -25.99892,1.62087 -36.26558,1.99397 -10.26667,0.3731 -20.76667,0.9535 -23.33334,1.28979 -23.77056,3.11444 -34.63485,3.81249 -65.33333,4.19775 -35.98992,0.45166 -45.55903,0.99345 -52.66667,2.98192 -2.2,0.61549 -18.58648,1.21429 -36.41438,1.33066 -17.82792,0.1164 -33.02562,0.58936 -33.77267,1.05107 -1.92975,1.19264 -9.16797,1.68593 -36.47961,2.48613 -13.2,0.38673 -29.7,1.05631 -36.66667,1.48793 -6.96667,0.43163 -19.67283,1.04796 -28.23591,1.36962 -8.56309,0.32166 -18.46309,1.13024 -22,1.79684 -3.53692,0.66658 -19.93076,1.0751 -36.43076,0.9078 -18.31317,-0.18567 -36.23297,0.39074 -46,1.47968 -15.29562,1.70532 -51.9841,3.26116 -52.9978,2.24748 z m -101.2522,-20.13524 c 0.9625,-0.38516 2.11251,-0.3378 2.55556,0.1052 0.44306,0.44306 -0.34445,0.75819 -1.75,0.7003 -1.55326,-0.064 -1.8692,-0.37992 -0.80556,-0.80555 z m -208.7626,-40.40442 c -0.90973,-1.45672 -1.65406,-4.64204 -1.65406,-7.0785 0,-2.43645 -0.88092,-5.5946 -1.9576,-7.01809 -2.33899,-3.09243 -2.66302,-9.49241 -0.5168,-10.20781 1.13364,-0.37788 1.10602,-1.7798 -0.10747,-5.45672 -0.89819,-2.72151 -2.22297,-4.58362 -2.94397,-4.138 -0.8284,0.51197 -0.97227,-0.995 -0.39087,-4.09415 0.89868,-4.79035 -1.3736,-11.95416 -3.39537,-10.70464 -0.91424,0.56504 -1.13412,-0.42607 -1.4935,-6.73221 -0.11853,-2.07892 -0.82808,-3.16888 -1.81621,-2.7897 -2.30487,0.88446 -2.39197,-14.14727 -0.10013,-17.28154 1.66724,-2.28008 1.99252,-2.28459 6.90246,-0.0955 3.78579,1.68794 6.21803,1.98568 9.16816,1.12231 2.20847,-0.64631 5.9596,-0.88976 8.33586,-0.541 2.7265,0.40017 5.57706,-0.18927 7.72657,-1.59767 1.93605,-1.26854 6.51621,-2.34108 10.61216,-2.48504 7.86139,-0.27628 10.56691,1.331 11.9178,7.08008 1.20079,5.11026 -6.88124,9.85952 -16.14087,9.48491 -3.86249,-0.15627 -9.09236,0.63108 -11.85261,1.78437 -2.71697,1.13523 -6.10841,2.06405 -7.53652,2.06405 -1.93009,0 -2.48721,0.77003 -2.17051,3 0.38363,2.70116 1.04947,2.95547 6.68418,2.55295 8.41206,-0.60093 12.07086,0.64341 11.07916,3.76799 -0.68948,2.17234 -0.14855,2.36157 4.94428,1.72954 3.28246,-0.40736 6.57042,-1.76677 7.71845,-3.19121 1.94212,-2.40973 10.65783,-3.14317 10.66401,-0.89739 0.001,0.52903 1.95174,1.46694 4.33395,2.08423 4.90539,1.27111 5.97796,4.04552 3.69487,9.55739 -1.27639,3.08149 -2.59734,3.87037 -7.6375,4.5612 -3.3518,0.45948 -9.01044,0.83536 -12.57474,0.83536 -3.67227,0 -6.48058,0.61189 -6.48058,1.41202 0,0.77662 -0.55741,1.06752 -1.23869,0.64647 -0.68128,-0.42105 -3.87388,-0.0608 -7.09468,0.80069 l -5.85599,1.56624 0.1092,11.34767 c 0.0747,7.7576 0.63186,11.52189 1.76135,11.8984 2.11068,0.70356 2.14477,5.96927 0.0521,8.06184 -2.65405,2.65405 -10.85494,1.97939 -12.74593,-1.04857 z M 3225,217.22653 c -1.2833,-0.74747 -2.3333,-2.24806 -2.3333,-3.33463 0,-1.08659 -0.75,-2.26403 -1.6667,-2.61655 -1.1175,-0.42974 -1.7303,-4.15958 -1.8599,-11.31929 -0.1066,-5.87308 -0.7744,-11.41583 -1.4849,-12.3172 -0.7104,-0.90137 -1.302,-5.53887 -1.3147,-10.30553 -0.013,-4.76667 -0.4476,-9.68794 -0.9665,-10.93615 -1.2099,-2.90977 0.1333,-5.06385 3.1571,-5.06385 1.3056,0 4.2373,-1.95 6.515,-4.33333 6.645,-6.95303 7.8847,-7.67384 14.5459,-8.45726 3.4763,-0.40884 6.7488,-1.008 7.2721,-1.33146 0.5234,-0.32347 1.2864,-0.0464 1.6958,0.61582 0.4092,0.66216 2.7753,1.585 5.258,2.05076 5.4449,1.02148 12.1308,7.07979 13.4017,12.14395 0.7891,3.14361 0.1352,4.44761 -4.4288,8.83313 -2.9449,2.82977 -5.9241,5.14505 -6.6204,5.14505 -2.0409,0 -7.1875,11.83043 -6.2308,14.3233 0.7472,1.94724 1.0464,1.99058 2.1117,0.306 1.0867,-1.71839 1.2438,-1.7137 1.2616,0.0376 0.025,2.53833 14.4018,7.28669 19.2531,6.35932 1.9237,-0.36775 3.8188,-0.1491 4.2112,0.48589 0.3924,0.63499 2.2135,1.15452 4.0468,1.15452 1.8828,0 2.9748,0.58025 2.5093,1.33333 -0.4532,0.73334 0.112,1.33334 1.2547,1.33334 1.1432,0 2.0787,0.93541 2.0787,2.07869 0,1.14328 0.532,1.74988 1.1822,1.34801 1.9642,-1.21392 4.1446,2.43183 2.7619,4.61802 -0.6801,1.0754 -1.2459,3.37525 -1.2571,5.11078 -0.017,2.65394 -0.4972,3.00884 -3.0204,2.23279 -1.65,-0.50749 -5.4422,-1.43921 -8.4272,-2.07051 -2.985,-0.63128 -7.785,-2.02525 -10.6666,-3.09772 -2.8818,-1.07245 -9.7187,-3.3275 -15.1934,-5.01121 -6.0313,-1.85491 -11.0229,-4.30347 -12.6666,-6.21343 l -2.7128,-3.15213 -0.3547,8.33023 c -0.4853,11.40154 -4.5781,15.64181 -11.312,11.71968 z m 10.4835,-38.22654 c 1.1077,-2.75 4.5272,-7.20989 7.5986,-9.91088 4.2996,-3.7809 5.2235,-5.27708 4.0155,-6.5024 -2.2212,-2.25297 -10.0943,2.82586 -13.6053,8.77663 -2.6086,4.42109 -3.3172,12.62848 -1.091,12.634 0.5875,0.001 1.9744,-2.24735 3.0822,-4.99735 z M 1157.4077,213.4077 c -1.4258,-1.42577 -2.9222,-4.57577 -3.3254,-7 -1.0871,-6.53519 -1.5561,-45.07803 -0.5486,-45.07607 0.4768,9.4e-4 1.5867,-2.9983 2.4663,-6.66497 0.8958,-3.73429 2.3569,-6.66666 3.3218,-6.66666 0.9473,0 2.0909,-1.35 2.5413,-3 1.2864,-4.71298 6.9967,-10.3053 11.4276,-11.19148 2.2235,-0.44468 4.0426,-1.29176 4.0426,-1.88237 0,-1.70905 12.2958,-0.039 15.5862,2.11691 1.6427,1.07631 4.1505,1.95694 5.573,1.95694 2.982,0 10.8408,12.76661 10.8408,17.61089 0,1.87381 -2.5254,5.33084 -6.7854,9.28862 -3.732,3.4672 -6.3966,6.93322 -5.9214,7.70224 0.4753,0.76903 -0.071,1.39824 -1.2145,1.39824 -1.1637,0 -2.0787,1.13122 -2.0787,2.57014 0,1.7009 2.601,4.1501 7.6906,7.24189 11.4149,6.93419 13.8903,9.54376 15.6743,16.52365 1.5994,6.25755 1.5777,6.34263 -1.8733,7.33459 -5.2117,1.49805 -10.8249,-0.0736 -10.8249,-3.03085 0,-3.01775 -1.8906,-4.30566 -6.899,-4.69964 -2.0865,-0.16415 -5.1378,-1.27414 -6.7807,-2.46666 -1.6428,-1.19252 -5.1865,-3.6375 -7.8749,-5.4333 -2.6883,-1.7958 -5.2738,-3.8894 -5.7453,-4.65246 -2.0507,-3.3181 -4.7008,-1.29934 -4.7425,3.61264 -0.047,5.49806 -2.3613,9.54723 -4.9576,8.67259 -1.9895,-0.67021 -2.291,4.45083 -0.3333,5.66075 2.2492,1.3901 1.4873,5.15044 -1.8235,9 -3.7553,4.36646 -4.0944,4.41545 -7.4355,1.07437 z m 1169.5568,-7.74104 c -1.4653,-1.28333 -3.2436,-4.13333 -3.9517,-6.33333 -1.4615,-4.54059 -0.136,-18.74322 2.1473,-23.00979 1.9044,-3.55827 1.9248,-9.39231 0.052,-14.76515 -1.1841,-3.39693 -1.0621,-4.56542 0.6564,-6.28397 1.1612,-1.16112 2.5944,-1.81245 3.1851,-1.44741 2.9525,1.82477 4.4569,-1.94225 4.6421,-11.624 0.1526,-7.97435 0.6211,-10.20301 2.1448,-10.20301 1.0723,0 2.897,-0.84213 4.0547,-1.8714 2.0041,-1.78172 9.9528,-2.68721 20.1049,-2.29026 3.6732,0.14362 5.0215,0.94648 6.3334,3.77121 2.4058,5.18051 2.0598,8.08617 -1.1687,9.81405 -2.0707,1.10818 -3.6976,1.12456 -6.0324,0.0607 -2.3463,-1.06901 -4.7853,-1.03193 -9.1647,0.13936 -4.787,1.28035 -5.9676,2.1792 -5.9676,4.54383 0,6.20263 1.1595,7.13867 7.7272,6.23845 3.3778,-0.46297 7.671,-1.64001 9.5404,-2.61564 4.7752,-2.49204 6.8498,-2.18917 11.1979,1.63482 4.5031,3.9603 4.0771,7.88748 -1.2736,11.74254 -2.8037,2.01996 -5.6019,2.45904 -14.5479,2.28279 l -11.0765,-0.2182 -0.7596,3.7172 c -0.7031,3.44153 -0.8019,7.8038 -0.4691,20.70565 0.1564,6.06097 -0.9714,7.42392 -4.3813,5.29443 -3.8128,-2.38116 -3.9575,-2.2018 -3.9575,4.90781 0,4.71907 -0.5834,6.74792 -2.109,7.33333 -3.161,1.21296 -4.0162,1.02479 -6.9264,-1.52401 z"
       id="path205" />
  </g>
</svg>
