<?xml version="1.0" encoding="UTF-8" standalone="no"?>
<!-- Created with Inkscape (http://www.inkscape.org/) -->

<svg
   version="1.1"
   id="svg270"
   width="3536"
   height="784"
   viewBox="0 0 3536 784"
   sodipodi:docname="queue3.png"
   xmlns:inkscape="http://www.inkscape.org/namespaces/inkscape"
   xmlns:sodipodi="http://sodipodi.sourceforge.net/DTD/sodipodi-0.dtd"
   xmlns="http://www.w3.org/2000/svg"
   xmlns:svg="http://www.w3.org/2000/svg">
  <defs
     id="defs274" />
  <sodipodi:namedview
     id="namedview272"
     pagecolor="#ffffff"
     bordercolor="#000000"
     borderopacity="0.25"
     inkscape:showpageshadow="2"
     inkscape:pageopacity="0.0"
     inkscape:pagecheckerboard="0"
     inkscape:deskcolor="#d1d1d1"
     showgrid="false" />
  <g
     inkscape:groupmode="layer"
     inkscape:label="Image"
     id="g276">
    <path
       style="fill:#000000;stroke-width:1.33333"
       d="m 3369.8472,693.11168 c -3.7585,-0.99045 -4.1384,-1.57008 -4,-6.10304 0.1107,-3.65161 1.1224,-5.85408 3.7315,-8.12907 1.9681,-1.71624 3.2568,-3.95873 2.8637,-4.98332 -0.3932,-1.02458 -0.099,-3.63097 0.6548,-5.79196 1.4323,-4.10853 1.0203,-6.45077 -5.0611,-28.77096 -1.5984,-5.86666 -3.6406,-11.56666 -4.5384,-12.66666 -1.019,-1.2486 -1.4852,-5.25604 -1.2409,-10.66667 0.5727,-12.68509 0.4339,-16.51525 -0.6351,-17.52839 -0.5253,-0.49786 -8.455,0.30143 -17.6217,1.7762 -17.5715,2.82699 -45.2793,3.53951 -76.6667,1.97154 -8.8,-0.43962 -23.5,-1.12674 -32.6666,-1.52694 -9.1667,-0.4002 -18.5322,-1.33836 -20.8123,-2.0848 -2.5156,-0.82356 -9.5927,-0.99972 -18,-0.44804 -7.6199,0.50002 -15.0544,0.9149 -16.5211,0.92196 -7.0278,0.0339 -36.4288,-1.72902 -38.1024,-2.28464 -4.7817,-1.58754 -23.1234,-1.51918 -35.2309,0.13134 -30.8545,4.20614 -54.0345,4.90292 -79.8993,2.40172 -2.8779,-0.27831 -8.2779,0.13013 -12,0.90764 -3.722,0.7775 -8.2674,1.54838 -10.1007,1.71306 -1.8333,0.16468 -3.6333,0.47616 -4,0.69218 -2.2636,1.33349 -37.4943,3.30521 -41.9564,2.34813 -2.9093,-0.62403 -6.8093,-0.70384 -8.6667,-0.17739 -1.8573,0.52647 -3.8166,0.8622 -4.3541,0.74608 -6.0004,-1.29636 -42.5353,-1.54934 -52.1785,-0.3613 -6.6978,0.82514 -39.1776,1.78525 -72.1776,2.13356 -103.0036,1.0872 -128.9507,1.69506 -141.3334,3.31104 -7.994,1.04324 -18.8992,1.2344 -32.6666,0.57261 -30.0686,-1.44537 -60.5342,-0.96703 -72.0314,1.13096 -10.1665,1.85519 -21.2525,1.3552 -38.9158,-1.75517 -4.6851,-0.825 -14.943,-0.94406 -26.6667,-0.3095 -10.4791,0.56719 -22.9528,0.9821 -27.7195,0.92203 -22.7862,-0.28719 -37.4708,-1.01435 -38.007,-1.88205 -0.3248,-0.52536 -10.956,-1.03538 -23.625,-1.13338 -33.7965,-0.26141 -68.0322,-1.49274 -81.7013,-2.9385 -23.9048,-2.52838 -57.3996,-3.80543 -68.8768,-2.62607 -1.2155,0.12493 -3.1825,1.30172 -4.3712,2.61515 -1.7075,1.88676 -1.872,3.14841 -0.7839,6.01036 0.7575,1.99226 1.4363,7.92617 1.5086,13.18646 0.072,5.2603 0.6453,10.19642 1.2734,10.96918 1.7004,2.09193 0.051,31.76274 -2.0488,36.85816 -0.513,1.24474 -1.0306,4.84474 -1.1504,8 -0.1857,4.89725 -0.6673,5.80058 -3.2909,6.1725 -7.4716,1.05918 -8.8339,-5.49092 -6.3296,-30.43568 0.9937,-9.9 1.4951,-18.50748 1.114,-19.12773 -0.3812,-0.62027 -0.98,-5.33555 -1.3307,-10.47843 C 2253.0593,616.798 2250.3179,608 2247.9821,608 c -2.1404,0 -1.4997,-4.23797 0.9068,-5.99761 1.2439,-0.90954 2.2222,-3.43839 2.2222,-5.74395 0,-3.24039 0.7853,-4.44429 3.6814,-5.64389 2.0247,-0.83868 4.6871,-2.6362 5.9163,-3.99448 2.3491,-2.59562 4.5188,-2.04906 10.2999,2.59448 1.9976,1.60453 4.304,1.62154 15.681,0.11573 9.8495,-1.30363 14.1202,-1.38177 16.3247,-0.29869 1.6421,0.80673 10.1208,1.80192 18.8416,2.21152 8.7209,0.4096 16.5209,1.26844 17.3333,1.90852 1.1399,0.8979 44.2962,3.33713 50.8107,2.87185 0.7333,-0.0524 3.7333,-0.37637 6.6667,-0.71999 10.1497,-1.18894 28.715,-0.92314 30.3542,0.43459 0.9051,0.74981 7.3458,1.30943 14.3124,1.24359 14.009,-0.1324 32.9824,1.38812 39.0555,3.12985 2.7112,0.77756 5.0587,0.54176 7.5784,-0.7612 4.5065,-2.33041 34.6591,-3.80663 39.5751,-1.93753 5.4592,2.07556 56.0737,3.06378 63.1244,1.23248 10.1278,-2.63059 14.2456,-2.96447 17.1814,-1.39318 1.5503,0.82962 2.8186,1.0029 2.8186,0.38507 0,-1.16203 2.2481,-1.13883 38,0.39215 14.5108,0.62137 23.6785,0.416 28.6666,-0.6422 4.0334,-0.85564 19.3334,-1.76718 34,-2.0256 14.6667,-0.25844 27.0979,-0.52051 27.6248,-0.58238 0.5271,-0.0619 0.6128,-1.01246 0.1907,-2.11246 -0.4221,-1.1 -0.1675,-2 0.5659,-2 0.7333,0 1.6741,0.88816 2.0908,1.97369 0.6096,1.58871 3.7521,1.96413 16.1104,1.92467 8.4442,-0.0269 15.7041,-0.61676 16.1329,-1.31064 0.4873,-0.7885 1.6956,-0.77144 3.222,0.0455 1.4643,0.78368 9.0401,0.98206 18.9191,0.49539 31.037,-1.52896 68.7202,-0.89212 70.0028,1.18305 0.8633,1.39692 9.8554,-0.16914 12.3574,-2.15216 1.4099,-1.11736 2.0254,-1.07154 2.4472,0.18216 0.3102,0.92124 0.9907,1.4111 1.5126,1.08858 1.4773,-0.91299 25.0456,-2.5791 36.1568,-2.55602 5.5,0.012 16.3,0.0731 24,0.13692 7.7,0.0639 14.6,0.0887 15.3333,0.0549 0.7333,-0.0337 4.1661,0.29841 7.6284,0.73794 3.4623,0.43952 10.6623,0.20818 16,-0.5141 5.3377,-0.7223 13.9049,-1.69839 19.0383,-2.16911 5.1333,-0.47072 9.7369,-1.47577 10.2301,-2.23344 1.2959,-1.99048 31.1824,-2.43509 38.8184,-0.57749 7.694,1.87166 39.6555,-0.4211 52.1525,-3.74116 4.3272,-1.14962 9.1882,-1.75879 10.802,-1.35374 1.6139,0.40506 3.3023,0.36862 3.7519,-0.0809 2.4211,-2.42113 27.5784,-0.36383 27.5784,2.25529 0,1.00515 27.8073,0.65466 44.6667,-0.56298 3.6666,-0.26483 12.3666,0.10733 19.3333,0.82706 6.9667,0.71971 21.3667,1.5691 32,1.88752 18.812,0.56334 37.8359,1.35814 48.6667,2.03322 10.2432,0.63845 41.0514,-1.70214 49.8233,-3.78522 4.8639,-1.15502 12.7433,-2.30698 17.51,-2.55992 4.7667,-0.25292 10.3247,-0.56861 12.3512,-0.70153 2.0265,-0.13293 4.8057,0.77289 6.1759,2.01293 2.2564,2.04202 2.4646,4.2289 2.2088,23.19046 -0.1555,11.51472 0.1453,21.83584 0.6685,22.93584 0.5231,1.1 1.6912,3.8 2.5956,6 0.9044,2.2 2.1335,4.97613 2.7311,6.16918 0.5976,1.19306 1.4942,4.34306 1.9928,7 0.4984,2.65695 1.3361,4.83082 1.8616,4.83082 0.5254,0 1.0714,4.71597 1.2132,10.47994 0.1965,7.98903 -0.2243,10.88003 -1.7704,12.16326 -1.1156,0.92582 -2.0283,3.06825 -2.0283,4.76093 0,3.72491 -5.2235,12.16171 -8,12.92139 -1.1,0.30097 -3.8688,0.0548 -6.1528,-0.54718 z M 1413,677.78363 c 0.9167,-0.36988 2.4167,-0.36988 3.3333,0 0.9167,0.36988 0.1667,0.67252 -1.6666,0.67252 -1.8334,0 -2.5834,-0.30264 -1.6667,-0.67252 z M 3490.9072,665 c 0.2344,-1.65 1.0261,-3 1.7595,-3 0.7333,0 1.525,1.35 1.7594,3 0.2931,2.06423 -0.2557,3 -1.7594,3 -1.5038,0 -2.0526,-0.93577 -1.7595,-3 z m -1998.802,-20.44444 c 0.064,-1.55327 0.38,-1.8692 0.8056,-0.80556 0.3852,0.96249 0.3379,2.11251 -0.1053,2.55556 -0.4431,0.44305 -0.7583,-0.34445 -0.7004,-1.75 z M 109.33333,623.01733 c -1.83333,-0.34073 -3.77414,-1.30901 -4.31291,-2.15176 -1.56349,-2.44557 -1.17254,-6.19846 0.64625,-6.20368 1.17223,-0.004 1.65451,-2.67332 1.62568,-9 -0.0225,-4.94737 0.35179,-9.59522 0.83185,-10.32856 1.12411,-1.71718 0.67904,-16.30788 -0.53447,-17.52138 -0.50769,-0.50768 -0.92306,-2.27306 -0.92306,-3.92306 0,-1.65 -0.604,-3.20133 -1.34222,-3.44741 -0.86414,-0.28804 -0.75621,-1.99992 0.30302,-4.80613 1.31838,-3.4928 1.30494,-4.90363 -0.0677,-7.10152 -1.32502,-2.12171 -1.35537,-3.17358 -0.13404,-4.6452 0.96861,-1.1671 1.33152,-4.47652 0.93894,-8.56219 l -0.63992,-6.65977 h 5.65657 c 3.4557,0 6.72142,0.90785 8.39342,2.33333 2.7944,2.3824 4.21875,9.10776 2.51331,11.8672 -1.14026,1.84499 -1.21479,3.06156 -1.53975,25.1328 -0.24088,16.36071 -2.44452,39.25289 -4.22526,43.89343 -0.82214,2.14245 -1.30405,2.21778 -7.18974,1.1239 z M 1311.0988,604.75048 c -5.1772,-2.28872 -5.7598,-5.51947 -3.4752,-19.26997 0.9003,-5.41907 1.3436,-10.3276 0.9849,-10.90788 -0.3586,-0.58027 -0.042,-1.43191 0.7031,-1.89252 0.7453,-0.46062 1.3551,-2.23788 1.3551,-3.94948 0,-1.7116 0.9,-3.45735 2,-3.87947 1.4049,-0.53911 2,-2.73049 2,-7.36487 0,-4.08986 0.6334,-6.81061 1.6666,-7.15836 2.3525,-0.79176 -1.0779,-4.82017 -4.0889,-4.80169 -1.2344,0.008 -6.0533,-0.59548 -10.7086,-1.34013 -5.3589,-0.85718 -9.6723,-0.8946 -11.757,-0.102 -1.811,0.68853 -5.5021,0.93454 -8.2024,0.54668 -2.7004,-0.38786 -6.1097,-0.88092 -7.5764,-1.09568 -1.4667,-0.21478 -5.3667,-1.61304 -8.6667,-3.10727 -12.4701,-5.64647 -11.9849,-5.59961 -23.2586,-2.24565 -13.2075,3.92928 -24.1026,4.11293 -28.7414,0.48448 -1.8333,-1.43406 -4.6079,-2.62071 -6.1657,-2.63702 -1.5578,-0.0163 -5.4381,-0.94901 -8.6229,-2.07266 -4.0636,-1.43372 -12.5634,-2.18426 -28.5009,-2.51662 -13.0447,-0.27202 -27.6529,-1.38756 -34.3229,-2.62102 -21.3641,-3.95074 -31.6316,-4.46503 -59.4961,-2.98015 -11.8481,0.63139 -21.4736,0.50857 -25.3333,-0.32323 -20.621,-4.444 -24.9672,-4.83036 -54.8915,-4.87956 -17.23333,-0.0284 -31.94893,-0.43546 -32.70133,-0.90473 -1.8981,-1.18384 -25.50343,0.94181 -39.96534,3.59888 -9.13809,1.67892 -15.1799,1.96877 -25.33333,1.21535 -7.33333,-0.54418 -38.23333,-0.88574 -68.66667,-0.75904 -36.63889,0.15253 -60.73896,-0.33564 -71.33333,-1.44492 -10.57469,-1.10723 -20.52108,-1.31012 -29.33333,-0.59836 -7.33334,0.5923 -28.63334,0.62741 -47.33334,0.078 -18.7,-0.54939 -46.6,-1.12066 -62,-1.26947 -15.4,-0.14883 -37.3,-0.95536 -48.66666,-1.79232 C 548.2786,517.11131 528.79984,516.594 432,515.0772 c -71.61872,-1.12224 -86.81327,-0.99468 -106.66667,0.89545 -7.7,0.73308 -25.67297,1.65874 -39.93993,2.057 -14.26696,0.39827 -29.86696,1.27278 -34.66667,1.94335 -4.7997,0.67057 -15.32673,1.57611 -23.3934,2.01231 -8.06666,0.4362 -18.26666,1.05356 -22.66666,1.37192 -12.10488,0.87582 -34.97127,1.02389 -36.24818,0.23472 -0.62069,-0.38362 -3.81877,-0.20308 -7.10685,0.40118 -3.28807,0.60427 -11.22836,1.41763 -17.64509,1.80747 -6.41675,0.38985 -12.29303,1.09584 -13.05842,1.56888 -0.76538,0.47304 -2.21957,0.17292 -3.23152,-0.66692 -1.75922,-1.46003 -5.50818,-1.04843 -18.04328,1.98093 -2.02423,0.4892 -4.38061,0.0215 -6,-1.1911 -2.3337,-1.74736 -2.44627,-2.35719 -0.90156,-4.88407 0.9708,-1.58807 1.1208,-2.4892 0.33333,-2.00252 -0.78747,0.48672 -1.43177,0.32793 -1.43177,-0.35283 0,-0.68076 3.52421,-2.76614 7.83157,-4.63418 6.4706,-2.80623 9.19313,-3.27311 15.66666,-2.68666 4.30931,0.3904 14.43511,-0.0652 22.50177,-1.01242 13.29147,-1.56078 23.29403,-1.77307 42.66667,-0.9056 11.88519,0.5322 39.85657,-1.60131 45.33333,-3.45778 3.55342,-1.2045 11.11807,-1.74392 22.66667,-1.61629 9.53333,0.10533 17.63333,-0.21181 18,-0.70483 1.74888,-2.3515 71.2214,-3.75602 142.66667,-2.88428 7.7,0.094 23.9,0.19554 36,0.22574 42.51946,0.10613 89.65925,1.32452 102.43042,2.64749 14.62259,1.51476 58.16734,3.56096 66.23624,3.11249 18.71566,-1.04021 43.1385,-0.53474 45.91322,0.95023 2.3423,1.25357 10.90548,1.4226 35.91454,0.70893 43.01411,-1.22748 40.6715,-1.22642 62.17224,-0.0277 C 777.6,510.54045 788.7,510.83328 792,510.6188 c 3.3,-0.21447 7.8,-0.31992 10,-0.23435 2.2,0.0856 28.3,0.27068 58,0.41135 42.97204,0.20352 58.22057,-0.20367 74.66667,-1.99385 14.95642,-1.62804 24.35069,-1.96414 34,-1.2164 C 976,508.15381 982.9,508.47992 984,508.31021 c 1.1,-0.1697 10.7,-0.54178 21.3333,-0.82686 16.3606,-0.43862 20.9735,-0.0944 30,2.23874 11.1121,2.87216 17.4928,3.06762 61.3334,1.87874 10.3648,-0.28108 19.3864,0.0464 20.2851,0.73645 3.489,2.67875 22.9798,4.76448 53.0482,5.67672 19.9401,0.60497 42.7879,4.27944 44.5734,7.16849 2.203,3.56452 22.0872,3.29316 25.744,-0.35133 0.9254,-0.92231 4.3802,-2.36029 7.6773,-3.19552 5.555,-1.40721 6.6283,-1.21923 14.6335,2.56301 7.4151,3.5035 10.0652,4.06078 18.71,3.93448 5.5392,-0.0809 15.3311,0.97054 21.7597,2.33658 7.595,1.61388 13.5022,2.15202 16.8675,1.53664 5.583,-1.02091 6.109,-0.83004 9.8197,3.56286 3.9686,4.69826 4.8866,11.29562 1.9942,14.33078 -1.3453,1.41164 -2.446,3.62622 -2.446,4.9213 0,1.29508 -0.5307,2.68272 -1.1794,3.08366 -0.6488,0.40092 -1.5988,3.52452 -2.1111,6.94132 -0.5124,3.4168 -1.4232,7.17417 -2.0241,8.34972 -1.8081,3.53774 -3.5834,18.70598 -2.3354,19.95402 0.6349,0.63491 0.9659,3.7859 0.7356,7.0022 -0.3679,5.1363 -0.8245,5.88568 -3.7522,6.15906 -1.8334,0.17118 -5.2389,-0.53116 -7.5679,-1.56076 z m 939.0959,-42.68681 c -3.9322,-3.64419 -4.4538,-7.87868 -1.7788,-14.43983 1.1654,-2.85849 1.8193,-11.67953 1.9589,-26.42899 0.116,-12.17617 0.8281,-23.76524 1.5841,-25.75346 0.7559,-1.98824 1.3744,-10.66651 1.3744,-19.28503 0,-11.18284 0.7338,-18.46483 2.5624,-25.42992 1.9332,-7.36349 2.4223,-12.74315 1.9918,-21.90984 -0.7952,-16.93099 -3.1986,-30.13749 -6.3002,-34.62113 -2.0586,-2.9758 -2.258,-4.03562 -0.9153,-4.86543 0.9441,-0.58349 1.336,-2.05263 0.8709,-3.26472 -0.4961,-1.29268 -0.3008,-1.86703 0.4724,-1.38921 0.725,0.44802 1.318,0.17257 1.318,-0.61215 0,-0.91135 3.7328,-1.34005 10.3334,-1.18679 13.2293,0.30722 36.3062,-1.50264 39.3333,-3.08478 1.4728,-0.76979 3.3243,-0.68919 5.0204,0.21856 1.478,0.79096 8.528,2.01841 15.6667,2.72765 7.1388,0.70925 16.5796,1.85869 20.9796,2.55433 5.1394,0.81255 9.7565,0.79756 12.9125,-0.0419 2.7019,-0.71868 6.6019,-1.2541 8.6667,-1.18982 5.1361,0.15992 15.4596,-1.52586 17.0874,-2.79033 1.0418,-0.8092 44.9954,-1.98679 52.2794,-1.40064 0.887,0.0713 3.115,1.74999 4.9513,3.73027 3.2324,3.486 3.3165,4.04773 2.6467,17.66666 -0.3806,7.73639 -0.6768,15.26618 -0.6584,16.73284 0.019,1.46667 0,7.76667 -0.033,14 -0.1773,30.31159 0.016,41.10043 1.1262,62.66667 0.9509,18.48244 1.7109,24.28179 3.656,27.89549 2.1946,4.07768 2.2506,4.92727 0.5262,8 -1.5996,2.85044 -2.9457,3.46108 -7.8785,3.57383 -3.272,0.0748 -6.5492,-0.29195 -7.2825,-0.81499 -3.1358,-2.23652 -12.0258,-2.43204 -19.1583,-0.42136 -4.1296,1.16418 -9.3975,2.27351 -11.7063,2.46519 -2.3086,0.19168 -8.3086,1.0358 -13.3333,1.87581 -5.0245,0.84002 -16.3355,2.06275 -25.1355,2.71719 -16.1917,1.20415 -25.2264,2.68485 -37.3333,6.11861 -3.6667,1.03994 -10.5667,2.17443 -15.3333,2.5211 -10.5384,0.76641 -30.8654,4.14097 -37.5863,6.23986 -2.7057,0.84499 -6.8735,3.55224 -9.2615,6.01614 -5.1568,5.32046 -8.8364,5.64729 -13.6242,1.21013 z m 22.472,-22.90826 c 2.2,-0.1406 8.5,-0.91326 14,-1.71702 5.5,-0.80375 13,-1.75158 16.6666,-2.10626 3.6667,-0.35469 11.2034,-1.56593 16.7483,-2.69164 11.1215,-2.25782 18.9577,-3.36216 23.6816,-3.33733 1.7032,0.009 7.6661,-1.18059 13.2512,-2.64344 5.5849,-1.46284 12.8049,-2.65972 16.0443,-2.65972 3.2393,0 9.4336,-0.91831 13.7649,-2.04068 4.3315,-1.12237 9.9132,-1.90344 12.4041,-1.73568 2.4908,0.16775 5.4194,-0.43413 6.5079,-1.33752 1.2144,-1.00785 6.3485,-1.65872 13.2873,-1.68448 l 11.3084,-0.042 0.6611,-14.91317 c 0.6228,-14.0528 0.3024,-18.17958 -3.0736,-39.57984 -1.1629,-7.37139 -0.9463,-10.49291 1.4501,-20.88599 2.7198,-11.79563 2.7356,-12.37353 0.4579,-16.66667 -1.7523,-3.3028 -2.3676,-7.58698 -2.3905,-16.64702 l -0.031,-12.19967 -9.3693,-0.82796 c -18.1183,-1.60109 -32.118,-1.27209 -44.036,1.03487 -9.4311,1.82556 -15.2827,2.1258 -27.3334,1.40249 -18.411,-1.10509 -19.0544,-1.16335 -33.0318,-2.99121 -6.1951,-0.81015 -12.3332,-0.95671 -14,-0.3343 -1.6326,0.60962 -4.3598,0.584 -6.0607,-0.0569 -1.7009,-0.64093 -4.4009,-0.8382 -6,-0.43839 -4.2365,1.05922 -10.1919,1.74752 -16.0259,1.85223 l -5.1184,0.0919 0.6099,7.66666 c 0.3353,4.21667 1.106,10.96667 1.7125,15 1.5228,10.1257 1.2464,22.5986 -0.7976,36 -0.9506,6.23334 -1.9202,17.03334 -2.1545,24 -0.7619,22.65702 -1.1467,61.54322 -0.6141,62.07527 0.2856,0.2854 1.1856,0.10267 2,-0.40599 0.8144,-0.50869 3.2806,-1.03993 5.4806,-1.18053 z m 69.3768,-33.77402 c -3.4152,-3.77374 -5.2651,-14.6516 -2.818,-16.57124 1.0353,-0.81226 2.167,-4.17682 2.5148,-7.47682 0.3478,-3.3 1.2285,-8.21996 1.9572,-10.93325 0.7288,-2.71328 0.9949,-5.26328 0.5914,-5.66667 -0.4033,-0.40337 -3.4833,-0.75249 -6.8445,-0.77581 -6.8097,-0.0472 -10.7881,-2.30487 -10.7573,-6.10459 0.035,-4.25456 1.7028,-5.25374 9.135,-5.47101 5.3834,-0.15739 7.9424,-0.94852 10.3334,-3.19468 3.4982,-3.28653 4.2345,-8.86552 1.3176,-9.98485 -2.9823,-1.14443 -13.0728,2.11801 -17.1427,5.5425 -6.8936,5.80062 -19.016,5.35311 -20.6149,-0.76102 -0.5724,-2.18878 -1.8276,-2.65062 -7.2043,-2.65062 -5.0444,0 -6.5112,-0.47441 -6.5112,-2.10594 0,-2.05386 2.0001,-2.02792 10.6667,0.13825 1.14,0.28496 3.1757,-1.3344 4.7342,-3.7662 1.5039,-2.34636 3.6612,-4.11108 4.7942,-3.92161 1.1329,0.18948 6.7744,-2.08062 12.5366,-5.04467 10.0467,-5.16777 21.0854,-7.75325 22.605,-5.29449 0.7238,1.17132 3.53,0.93945 7.442,-0.61494 1.461,-0.58053 3.1949,0.72356 5.6257,4.23114 3.682,5.31309 3.6961,9.00014 0.055,14.34181 -3.0759,4.51255 -2.2695,8.5558 1.874,9.39617 11.9933,2.43246 15.4764,4.06976 16.7433,7.8705 1.094,3.28184 0.8235,4.17376 -1.9007,6.26848 -3.474,2.67132 -8.5418,3.27281 -9.8426,1.16817 -0.4532,-0.73333 -3.4067,-1.33333 -6.5632,-1.33333 h -5.7391 l -1.6691,7.86465 c -0.9178,4.32556 -1.7498,14.07556 -1.8488,21.66667 -0.099,7.5911 -0.7798,14.24282 -1.5132,14.7816 -2.6454,1.94357 -9.5914,1.01512 -11.9565,-1.5982 z M 2365.3333,468 c 0,-0.73333 0.9355,-1.33333 2.0787,-1.33333 1.1433,0 1.7079,0.6 1.2547,1.33333 -0.4532,0.73333 -1.3887,1.33333 -2.0787,1.33333 -0.6901,0 -1.2547,-0.6 -1.2547,-1.33333 z m 18.9167,-26.75 c 0.3208,-0.96251 1.3708,-2.01249 2.3333,-2.33333 1,-0.33334 1.5,0.16666 1.1667,1.16666 -0.3208,0.9625 -1.3708,2.0125 -2.3333,2.33334 -1,0.33333 -1.5,-0.16667 -1.1667,-1.16667 z m 1104.8333,112.50585 c 0.9626,-0.38516 2.1126,-0.3378 2.5556,0.1052 0.4431,0.44306 -0.3445,0.75819 -1.75,0.7003 -1.5533,-0.064 -1.8692,-0.37992 -0.8056,-0.80555 z m -807.9881,-3.43908 c -5.4532,-4.55533 -6.9687,-14.7634 -5.7875,-38.98344 0.5364,-11 0.8922,-34.03466 0.7907,-51.18813 -0.1655,-27.92852 -0.4407,-31.55171 -2.6333,-34.66667 -3.6343,-5.16304 -4.3967,-8.77153 -2.6591,-12.5853 1.9303,-4.23626 4.5019,-5.33383 6.5931,-2.81398 1.7289,2.08314 8.67,2.63307 9.8166,0.77775 0.3886,-0.62865 3.6916,-1.49656 7.3403,-1.92869 3.6487,-0.43212 8.5485,-1.77578 10.8887,-2.98587 3.3544,-1.73468 9.2232,-2.30193 27.7382,-2.68113 24.0023,-0.49156 38.4423,-1.57727 40.8171,-3.0689 3.8512,-2.41898 10.626,-3.79429 15.8116,-3.20978 3.5473,0.39982 6.2019,0.0744 6.76,-0.82882 0.5057,-0.81828 4.4084,-1.48714 8.6772,-1.48714 5.2041,0 8.2943,-0.64615 9.3871,-1.96283 1.3566,-1.63471 1.9258,-1.66593 3.4049,-0.18684 1.294,1.294 5.554,1.69569 15.6972,1.48015 7.6567,-0.16272 14.5052,-0.65671 15.2188,-1.09778 0.7136,-0.44106 3.6988,-1.18589 6.6336,-1.6552 4.7181,-0.75445 5.9001,-0.35805 10.2061,3.42274 4.1948,3.68305 4.8702,5.07566 4.8702,10.04264 0,3.64085 0.8324,6.59898 2.2578,8.02453 2.0576,2.05761 2.0694,2.39573 0.132,3.81201 -1.6908,1.23628 -2.0978,3.99818 -1.9908,13.50403 0.099,8.72468 -0.4558,13.06008 -2.053,16.06333 -1.2032,2.2624 -2.23,6.1624 -2.2819,8.66667 -0.052,2.50427 -0.1381,6.95321 -0.1919,9.88655 -0.053,2.93333 0.1267,13.32628 0.3998,23.09542 0.2734,9.76915 0.024,18.05456 -0.5543,18.41203 -0.5784,0.35745 -1.0516,4.54905 -1.0516,9.31464 0,6.76133 0.7323,9.97629 3.3333,14.63529 3.9356,7.04934 4.0047,7.68086 1.1511,10.53435 -1.8577,1.85773 -5.674,2.17821 -25.6667,2.15544 -12.9164,-0.0147 -28.8844,0.22 -35.4844,0.52159 -6.6,0.30158 -15.3,-0.009 -19.3333,-0.68998 -10.8593,-1.83373 -26.7776,-2.5704 -25.9307,-1.20001 0.4144,0.67067 -0.5008,0.72907 -2.108,0.13452 -1.571,-0.58115 -7.3301,-0.28184 -12.8857,0.66968 -5.5249,0.94625 -10.5647,1.39944 -11.1996,1.00708 -0.6348,-0.39235 -2.2451,-0.1296 -3.5783,0.58392 -1.3332,0.71351 -7.4956,1.65153 -13.6941,2.08451 -17.3775,1.21378 -24.2972,2.25602 -27.238,4.10254 -5.2419,3.29131 -7.9296,3.35827 -11.6037,0.28908 z m 27.5715,-17.77929 c 8.8,-1.08576 23.5,-2.55873 32.6666,-3.27327 9.1667,-0.71453 17.7819,-1.93708 19.1448,-2.71677 1.6834,-0.96293 3.6079,-0.99233 6,-0.0916 1.9371,0.72928 9.5219,1.7342 16.8552,2.23317 7.3334,0.49896 14.8334,1.02126 16.6667,1.16064 1.8333,0.13939 5.7333,-0.28442 8.6667,-0.94182 8.0262,-1.79879 21.9486,-2.18468 28.3749,-0.78648 6.3821,1.38861 12.6888,0.35453 11.8745,-1.94707 -0.2933,-0.82915 0.051,-3.00755 0.7651,-4.84088 0.714,-1.83333 1.5375,-8.73333 1.8297,-15.33333 0.2924,-6.6 0.9884,-17.4 1.5468,-24 0.6262,-7.40116 0.5227,-12.34458 -0.27,-12.89911 -0.8198,-0.57348 -0.7926,-2.00313 0.075,-3.94756 0.9303,-2.08475 0.9196,-4.21591 -0.033,-6.7414 -1.0127,-2.6828 -0.9311,-5.25011 0.2981,-9.38576 0.9307,-3.13107 1.9061,-7.49284 2.1677,-9.69284 0.2615,-2.2 1.0831,-7.6 1.8258,-12 1.116,-6.61191 0.9624,-8.9896 -0.8852,-13.70336 l -2.2355,-5.70336 -8.6667,0.73711 c -4.7666,0.4054 -16.4666,1.04981 -26,1.43202 -29.9312,1.20002 -34.8337,1.70759 -42.9717,4.4491 -6.0641,2.04288 -11.5044,2.67724 -23.1445,2.69876 -28.7783,0.0532 -34.5386,0.27249 -38.729,1.47428 -2.3106,0.66268 -4.6742,0.91245 -5.2525,0.55506 -0.5783,-0.35737 -1.4343,-0.0301 -1.9023,0.72706 -0.468,0.75725 -1.3872,1.04542 -2.0425,0.64037 -0.6553,-0.40504 -3.7639,0.9022 -6.9079,2.905 -3.144,2.0028 -6.9162,3.67441 -8.3829,3.71471 -2.5745,0.0707 -2.6545,0.86548 -2.3141,23.01425 0.1938,12.61755 0.7284,23.92035 1.1877,25.11735 0.4593,1.19698 0.4265,7.37354 -0.073,13.72566 -0.4995,6.35214 -1.2095,17.54932 -1.5779,24.88266 -0.3684,7.33333 -0.9255,14.08333 -1.2379,15 -0.998,2.92882 0.8771,5.6691 3.8244,5.58914 1.5715,-0.0427 10.0574,-0.96589 18.8574,-2.05166 z m 40.9096,-32.2394 c -1.6998,-1.78048 -2.7759,-4.05672 -2.3916,-5.05829 0.3844,-1.00158 0.1446,-2.16354 -0.5326,-2.58212 -1.7449,-1.07843 -0.045,-8.67064 2.8791,-12.8635 1.3579,-1.94653 2.4688,-4.21537 2.4688,-5.04185 0,-0.82647 0.9,-1.84804 2,-2.27015 1.1,-0.42212 2,-1.95864 2,-3.41452 0,-1.45586 1.1919,-4.1622 2.6485,-6.01406 1.4567,-1.85186 2.3287,-3.88438 1.9379,-4.51671 -0.3908,-0.63233 -4.1325,-0.83893 -8.3151,-0.45913 -10.1953,0.92582 -12.8982,-1.08746 -11.6198,-8.65483 0.8456,-5.00469 3.4456,-7.16861 5.2008,-4.32852 0.3721,0.60192 4.8814,0.38015 10.0208,-0.49284 11.1629,-1.89613 14.9645,-1.34408 18.7908,2.72873 2.46,2.61859 2.738,3.96924 1.9281,9.36915 -0.6699,4.46708 -1.6516,6.49397 -3.3621,6.94128 -1.3288,0.34748 -4.2826,4.32048 -6.564,8.82887 -2.2815,4.5084 -5.1487,9.81306 -6.3715,11.78814 -1.2229,1.9751 -1.7396,4.0751 -1.1483,4.66667 1.465,1.46559 19.6388,1.63912 22.4396,0.21427 1.3752,-0.69958 2.5899,-0.59995 3.1187,0.2558 0.6032,0.97584 1.3912,0.96605 2.5941,-0.0323 0.9503,-0.78865 5.6968,-1.80455 10.5479,-2.25756 8.3856,-0.78305 8.8203,-0.68275 8.8203,2.03584 0,1.57271 -0.6,2.85947 -1.3334,2.85947 -0.7333,0 -1.3333,0.75353 -1.3333,1.67452 0,1.7725 -3.9069,3.66004 -12.6667,6.11953 -12.9136,3.62577 -17.0706,4.22827 -27.5444,3.99208 -9.8624,-0.2224 -11.4722,-0.61749 -14.2126,-3.48805 z m -128.4956,47.05905 c -4.1724,-1.69064 -7.8619,-2.7982 -8.1988,-2.46121 -0.337,0.33697 -3.2232,-0.1276 -6.414,-1.03228 -6.5304,-1.85173 -54.0382,-3.6672 -67.1346,-2.56548 -0.7333,0.0617 -4.4833,-0.14072 -8.3333,-0.4498 -3.85,-0.30908 -7,-0.1104 -7,0.44164 0,1.04663 -12.8821,3.04648 -18.6667,2.89784 -9.1264,-0.23449 -14.4197,0.0496 -18.6666,1.00189 -6.3607,1.42624 -11.4,-1.18953 -12.4551,-6.46513 -0.9285,-4.64277 0.1795,-11.89817 2.2109,-14.47756 2.1732,-2.75935 3.9443,-15.78669 3.9763,-29.24704 0.016,-6.78333 0.5329,-12.33333 1.1485,-12.33333 0.6156,0 1.171,1.65 1.234,3.66666 l 0.1147,3.66667 1.126,-3.75091 c 0.6192,-2.063 0.8777,-5.063 0.5745,-6.66666 -1.669,-8.82576 -2.2742,-10.51564 -3.2188,-8.98734 -0.5496,0.88926 -1.9718,-5.18086 -3.1605,-13.48914 -2.8528,-19.93946 -3.2475,-28.08062 -1.3919,-28.70759 0.93,-0.31419 1.2594,0.71255 0.8744,2.72584 -0.3396,1.77644 0.045,3.63955 0.8556,4.14023 1.0027,0.6197 1.4007,-1.00127 1.2466,-5.07708 -0.1732,-4.57764 -0.8044,-6.13854 -2.6808,-6.62923 -2.6827,-0.70153 -3.5456,-8.0596 -1.121,-9.55812 0.7334,-0.45323 1.3334,-2.17396 1.3334,-3.82385 0,-1.6499 0.8048,-4.10046 1.7885,-5.4457 1.7223,-2.35542 2.0169,-2.35862 7.9659,-0.0867 5.7518,2.19669 6.492,2.20985 10.7462,0.19105 2.513,-1.19245 4.9412,-2.16811 5.3962,-2.16811 0.4548,0 3.149,-1.53662 5.987,-3.41473 3.4167,-2.26108 7.7991,-3.67381 12.9714,-4.18159 4.2964,-0.42176 8.8014,-1.27414 10.0114,-1.89417 1.4899,-0.76344 2.4376,-0.50849 2.9358,0.78977 0.5765,1.50226 2.5529,1.75443 9.1333,1.16531 12.7175,-1.13855 13.5551,-1.26176 16.0004,-2.35393 1.2483,-0.5575 2.8568,-0.65067 3.5745,-0.20706 0.7178,0.44362 1.682,0.19678 2.1426,-0.54852 0.4606,-0.74529 2.4874,-1.35508 4.504,-1.35508 2.0165,0 4.831,-0.88092 6.2546,-1.9576 1.4235,-1.07666 5.4027,-1.97666 8.8428,-2 3.44,-0.0233 6.5932,-0.59018 7.007,-1.25972 0.4138,-0.66952 3.1517,-1.62269 6.0844,-2.11814 2.9325,-0.49547 5.0868,-1.29767 4.7869,-1.7827 -0.5992,-0.96957 4.6424,-1.3037 22.0085,-1.403 6.3112,-0.0361 13.002,-0.64624 14.8686,-1.35588 2.6505,-1.00774 3.8258,-0.79752 5.3674,0.96006 3.7463,4.27105 3.9944,8.07016 0.8687,13.29644 -3.1296,5.23257 -3.5997,14.63326 -1.7023,34.0305 0.4443,4.54119 0.7316,10.17315 0.6386,12.51547 -0.093,2.34232 0.405,4.61356 1.1066,5.0472 0.7396,0.45709 0.8164,2.02937 0.1828,3.74124 -0.601,1.62404 -1.5141,6.21833 -2.0289,10.20953 -0.5149,3.9912 -1.3177,7.8741 -1.7841,8.62866 -1.4932,2.41614 -1.7952,24.53958 -0.3472,25.43453 0.7893,0.48783 1.0146,3.00603 0.5365,5.99627 -0.5295,3.31108 0,7.79458 1.4963,12.53337 2.1586,6.86285 2.1694,7.75619 0.1548,12.79127 -1.1912,2.97722 -2.1659,7.41849 -2.1659,9.86948 0,6.13192 -8.5503,16.78441 -13.3333,16.61149 -0.3667,-0.0133 -4.0804,-1.40735 -8.2527,-3.098 z M 2626.0788,530 c 0.044,-1.46667 0.8361,-4.46667 1.7617,-6.66667 1.0679,-2.53788 1.429,-7.16792 0.9878,-12.66666 C 2628.4459,505.9 2627.7701,497.5 2627.3265,492 c -0.5432,-6.73615 -0.1213,-13.48144 1.292,-20.66667 1.1542,-5.86666 2.4436,-12.46666 2.8655,-14.66666 1.3813,-7.20296 0.3908,-47.90294 -1.2045,-49.49832 -0.5204,-0.52038 -0.9462,-2.53144 -0.9462,-4.46907 0,-6.90604 -2.3022,-8.18291 -11.9336,-6.61859 -4.7301,0.76827 -10.8185,1.02207 -13.5298,0.564 -2.9606,-0.50018 -5.2819,-0.26269 -5.8118,0.59456 -0.4852,0.78508 -2.5468,1.42742 -4.5813,1.42742 -2.0344,0 -4.1112,0.41222 -4.6151,0.91605 -0.5038,0.50383 -1.9538,1.02111 -3.2222,1.14952 -1.2684,0.1284 -7.4062,1.53481 -13.6395,3.12533 -14.5044,3.70102 -28.0361,4.80782 -37.3744,3.05698 -7.4616,-1.39898 -19.1387,-0.0339 -21.8923,2.55926 -0.6966,0.65607 -2.5386,1.19286 -4.0932,1.19286 -1.5545,0 -4.6961,1.65 -6.9813,3.66666 -2.2851,2.01667 -5.2035,4.30706 -6.4853,5.08975 -1.7942,1.09553 -2.4875,3.85757 -3.0122,12 -1.15,17.84587 -0.8068,25.52591 1.2515,28.00589 1.5583,1.87743 1.9205,8.56404 1.9205,35.44239 0,38.19281 -1.589,34.83267 15.3334,32.42263 3.3,-0.46998 11.0497,-1.34175 17.2217,-1.9373 9.9512,-0.96018 11.8069,-0.77769 16.3916,1.61194 3.9119,2.03897 6.3724,2.46181 10.1116,1.73762 2.718,-0.5264 6.6405,-1.27592 8.7169,-1.66558 2.0763,-0.38968 5.188,0.0476 6.9148,0.97181 2.4352,1.30327 4.488,1.3408 9.1487,0.16725 7.6727,-1.93202 15.0745,-1.93818 16.264,-0.0136 0.6088,0.98496 4.09,1.27319 10.1451,0.83996 7.6722,-0.54894 9.7101,-0.24382 12.1518,1.81938 3.7518,3.17012 8.241,2.72609 8.3459,-0.82551 z m -74.5595,-18.92513 c -1.5016,-1.50159 -0.9145,-3.07487 1.1474,-3.07487 1.1,0 2,0.56459 2,1.25464 0,1.68131 -2.0822,2.88547 -3.1474,1.82023 z M 2547,501.88741 c -2.3833,-1.04228 -4.3333,-2.71988 -4.3333,-3.72797 0,-1.00811 -0.9,-2.57985 -2,-3.49277 -2.5811,-2.14211 -2.6036,-11.2059 -0.035,-13.77526 1.7321,-1.73209 1.7321,-2.0554 0,-2.72006 -1.0812,-0.41488 -1.9657,-1.67315 -1.9657,-2.79618 0,-1.12301 -0.5575,-2.04184 -1.2387,-2.04184 -1.464,0 -5.428,-12.95248 -5.428,-17.73577 0,-7.0588 9.1367,-18.26423 14.8923,-18.26423 1.2792,0 9.7652,-3.97978 15.7744,-7.39794 4.3206,-2.45768 11.1433,-2.4469 15.9237,0.0252 5.3076,2.74468 8.1197,13.73952 4.8072,18.79514 -2.4887,3.7981 -6.7365,3.41447 -9.7607,-0.88146 -4.5476,-6.46026 -5.2374,-6.66124 -12.6913,-3.69743 -3.82,1.51895 -8.2956,3.28571 -9.9456,3.92612 -1.6988,0.65935 -3,2.3012 -3,3.78536 0,1.44155 -0.6,2.9918 -1.3333,3.44503 -2.1892,1.35297 -1.5128,6.75761 1.1468,9.16457 2.032,1.83887 3.1766,1.97904 6.3333,0.77553 6.6455,-2.53354 20.5199,0.63328 20.5199,4.68363 0,1.02477 1.1352,2.22353 2.5226,2.66391 4.8478,1.53861 5.5879,12.27305 1.2647,18.3443 -2.9305,4.11558 -15.8839,11.01807 -20.0944,10.70776 -1.2689,-0.0935 -2.6543,0.3918 -3.0787,1.07847 -1.0161,1.64409 -3.0249,1.43448 -8.2809,-0.86409 z m 12.9336,-14.47404 c 0.8764,-1.05597 2.8999,-2.10597 4.4965,-2.33333 1.8766,-0.26719 2.9032,-1.35641 2.9032,-3.08004 0,-2.27687 -1.0232,-2.72557 -7,-3.06968 l -7,-0.40301 v 4.51412 c 0,6.43232 3.1556,8.52253 6.6003,4.37194 z m -2500.378044,2.3644 c -1.690388,-1.69038 -0.878547,-3.1111 1.777777,-3.1111 1.481482,0 2.666667,0.88889 2.666667,2 0,2.02988 -2.820539,2.73501 -4.444444,1.1111 z M 548,476.55559 c -1.83333,-1.01728 -2.76333,-1.85846 -2.06667,-1.86927 0.7239,-0.0107 0.67132,-0.615 -0.12266,-1.40901 -1.35987,-1.35987 -0.1614,-14.04683 1.75804,-18.61064 0.46262,-1.1 0.72022,-2.99684 0.57244,-4.21522 -0.1478,-1.21837 0.23013,-2.52352 0.83985,-2.90034 1.07131,-0.66211 1.05572,-17.18802 -0.0291,-30.88444 -0.29042,-3.66667 -0.0781,-7.57507 0.4719,-8.68534 0.54997,-1.11026 0.53518,-4.56026 -0.0328,-7.66666 -0.59003,-3.22658 -0.51783,-5.648 0.1684,-5.648 0.69748,0 0.71426,-0.9785 0.04,-2.33334 -0.63866,-1.28333 -1.0844,-7.13333 -0.99058,-13 0.0939,-5.86666 -0.37554,-11.41346 -1.04309,-12.32622 -0.66753,-0.91276 -0.90659,-2.834 -0.53121,-4.26942 0.37536,-1.4354 -0.004,-2.84102 -0.84264,-3.1236 -1.08983,-0.36713 -1.01667,-1.12981 0.25633,-2.67218 0.9798,-1.18714 1.37103,-2.82252 0.86939,-3.63419 -0.50164,-0.81167 0.10546,-2.60013 1.34916,-3.97439 1.24368,-1.37425 1.8508,-3.16272 1.34916,-3.97438 -0.50164,-0.81167 -0.19342,-2.34168 0.68494,-3.40004 0.87835,-1.05835 1.23055,-3.38439 0.78264,-5.16898 -0.4479,-1.78458 -0.4507,-4.19237 -0.007,-5.35065 1.05594,-2.75175 8.94288,-2.78327 13.65044,-0.0545 3.27737,1.89972 4.37705,1.79341 14.87238,-1.43764 6.23334,-1.91899 15.53334,-4.57296 20.66667,-5.89775 10.96189,-2.82899 16.84324,-5.35163 15.92831,-6.832 -0.3601,-0.58267 1.46424,-0.71552 4.0541,-0.29525 2.83194,0.45956 6.96262,-0.0728 10.36322,-1.3355 3.84953,-1.42945 12.25104,-2.3124 26.32104,-2.76621 22.51597,-0.72623 28.94412,-1.27693 39.85385,-3.41429 8.74641,-1.71354 15.68443,-0.15538 20.06349,4.50593 2.41012,2.56545 3.0369,4.66377 2.89194,9.68164 -0.10174,3.52348 -0.18698,10.56389 -0.18928,15.64536 -0.003,5.08145 -0.95171,12.88145 -2.10978,17.33333 -2.86644,11.01923 -2.608,23.07096 0.58751,27.39771 1.36617,1.8498 2.92776,5.76327 3.47021,8.6966 0.54244,2.93333 1.90528,7.28407 3.02852,9.66829 2.1035,4.46495 3.4267,33.66504 1.52554,33.66504 -0.51192,0 -1.67858,3.3416 -2.59258,7.42579 -1.44808,6.47071 -1.37976,7.90328 0.53123,11.13832 2.11195,3.57523 2.07233,3.82593 -1.07089,6.77885 l -3.26395,3.06632 -6.95915,-3.61053 c -6.00786,-3.11699 -8.518,-3.60465 -18.3629,-3.56748 -6.27207,0.0237 -13.36927,0.61889 -15.77155,1.32271 -2.40228,0.7038 -5.66805,1.02924 -7.25725,0.72318 -7.33112,-1.41185 -43.19006,-1.01268 -46.01104,0.51218 -1.63318,0.8828 -9.13318,2.52277 -16.66667,3.64438 -7.53349,1.12162 -16.31669,2.92432 -19.51824,4.00603 -3.20153,1.08171 -9.40533,2.34137 -13.78619,2.79927 -4.80668,0.50238 -8.23874,1.54533 -8.655,2.63009 -0.37938,0.98865 -2.35213,1.79756 -4.38388,1.79756 -2.03176,0 -4.44102,0.9 -5.35394,2 -1.99758,2.40693 -4.85676,2.37291 -9.33334,-0.11107 z m 29,-20.11598 c 4.00759,-0.39297 7.00451,-1.34614 7.01056,-2.22968 0.007,-0.98388 3.26892,-1.65694 9,-1.85692 7.8222,-0.27292 14.19613,-1.45664 21.65611,-4.02182 5.00281,-1.72027 13.97745,-2.10488 51.66622,-2.2142 22.18308,-0.0644 40.33308,-0.6024 40.33334,-1.19568 2.4e-4,-0.59328 0.60044,-0.70787 1.33377,-0.25464 0.75308,0.46542 1.33333,-0.62659 1.33333,-2.5093 0,-1.83333 0.66044,-3.7415 1.46766,-4.24038 0.84093,-0.51974 1.13552,-2.56779 0.68985,-4.79611 -0.53895,-2.69476 -0.19283,-4.11351 1.12712,-4.62003 1.45339,-0.5577 1.88205,-3.39013 1.80843,-11.94925 -0.0531,-6.17004 -0.5653,-11.21827 -1.13824,-11.21827 -0.57295,0 -1.82832,-3.06916 -2.78972,-6.82036 -0.9614,-3.75118 -2.53474,-7.12224 -3.49628,-7.49122 -0.96156,-0.36899 -1.42064,-1.70319 -1.02019,-2.9649 0.40045,-1.26172 -0.12053,-4.34066 -1.15784,-6.8421 -2.37319,-5.72315 -2.67201,-20.98404 -0.46332,-23.66139 1.29872,-1.57429 1.29301,-2.10353 -0.0275,-2.54796 -1.81598,-0.61121 -2.33237,-4.33873 -0.60106,-4.33873 0.58608,0 0.82044,-2.1 0.52078,-4.66667 -0.29964,-2.56667 0.0133,-4.66667 0.69486,-4.66667 1.39853,0 1.09801,-15.10165 -0.34706,-17.43981 -0.61369,-0.99299 -2.82852,-1.19216 -6.43497,-0.57871 -8.88223,1.51088 -27.88807,3.36535 -31.49921,3.0735 -17.96688,-1.45208 -39.22531,0.93385 -55.33334,6.21033 -2.93333,0.96087 -8.81129,2.52179 -13.06213,3.46872 -4.25084,0.94693 -8.03625,2.21916 -8.41203,2.82716 C 589.4834,339.50253 587.39253,340 585.2128,340 c -2.35781,0 -4.28595,0.84117 -4.76004,2.07663 -0.43828,1.14214 -1.49968,1.80693 -2.35867,1.47732 -0.85897,-0.32963 -3.03154,0.21462 -4.82793,1.20945 -1.79639,0.99483 -4.93101,1.83004 -6.96583,1.85601 -2.59028,0.0331 -4.036,0.94684 -4.8213,3.04726 -0.61691,1.65 -0.85396,18 -0.52679,36.33333 0.32717,18.33333 0.69676,42.22896 0.82131,53.1014 L 562,458.86945 l 4,-0.8717 c 2.2,-0.47946 7.15,-1.1806 11,-1.55814 z m 32.89583,-32.43158 c -9.01684,-5.80547 -10.32416,-7.38299 -8.67391,-10.46652 0.84621,-1.58116 1.06745,-2.89308 0.49165,-2.91539 -0.5758,-0.0223 -0.0192,-0.63965 1.23695,-1.37189 1.60273,-0.93431 3.66196,-0.75555 6.90472,0.59936 2.54148,1.06189 7.81375,2.31698 11.71615,2.78909 6.65161,0.80469 7.37804,0.59693 11.61722,-3.3226 4.23235,-3.9132 4.37867,-4.32417 2.28479,-6.41719 -1.68872,-1.68802 -4.19057,-2.15185 -10.20551,-1.89205 -4.66789,0.20161 -9.85758,-0.44521 -12.52956,-1.56164 -4.49509,-1.87816 -9.00341,-8.19804 -9.43314,-13.2236 -0.1148,-1.34257 -2.70544,-4.72327 -5.75696,-7.51263 -6.79439,-6.21068 -7.14935,-9.75101 -1.2149,-12.11734 2.38334,-0.95034 5.83334,-2.73611 7.66667,-3.96838 1.83333,-1.23228 7.19193,-2.62966 11.908,-3.10532 4.71607,-0.47565 9.94496,-1.76268 11.61976,-2.86005 6.6362,-4.3482 17.80557,-1.0546 17.80557,5.25047 0,4.56766 -2.97988,6.39986 -8.67201,5.33201 -2.69396,-0.50539 -6.16845,-0.29677 -7.76773,0.46639 -5.53652,2.64196 -8.24912,3.33684 -11.89359,3.04677 -3.83932,-0.30557 -5.04351,1.76216 -1.76001,3.02216 1.04866,0.40241 2.296,3.32795 2.77185,6.50119 0.8628,5.75358 0.87921,5.7682 5.93729,5.28584 2.78967,-0.26604 5.47774,0.17261 5.97351,0.9748 0.49577,0.80217 2.08711,1.45849 3.53629,1.45849 5.83475,0 19.8744,11.97801 19.8744,16.95596 0,3.82271 -4.87928,11.45652 -8.57421,13.41469 -15.19299,8.05168 -27.91772,10.10927 -34.86329,5.63738 z M 908,464.24879 c -2.56667,-1.27139 -7.36667,-3.16488 -10.66667,-4.20775 -3.3,-1.04288 -8.08928,-3.27873 -10.64284,-4.96859 -3.98142,-2.63474 -6.35577,-3.07389 -16.66666,-3.08252 -6.61311,-0.005 -15.92383,-0.64852 -20.6905,-1.42885 -10.9949,-1.79992 -10.87928,-1.80391 -22,0.75991 C 822.2,452.50445 815.3,453.95659 812,454.54796 c -11.71143,2.09875 -26.00575,5.83504 -31.7596,8.30143 l -5.83493,2.50114 -5.19358,-4.11338 c -4.00786,-3.1743 -4.9257,-4.62216 -4.0203,-6.34194 0.95654,-1.81694 1.14145,-8.89521 0.23236,-8.89521 -0.13735,0 -0.41296,-3.6 -0.61248,-8 -0.19952,-4.4 -0.93927,-7.89149 -1.64387,-7.75887 -0.7046,0.13267 -1.40904,-1.66737 -1.56543,-4 -0.15638,-2.33262 -0.66773,-6.04113 -1.13633,-8.24113 -0.4686,-2.2 -0.99228,-5.8 -1.16373,-8 -0.33094,-4.2462 -1.54979,-12.47971 -2.66466,-18 -0.37025,-1.83333 -0.0512,-5.43333 0.7089,-8 0.76014,-2.56667 1.74309,-10.06667 2.18432,-16.66667 0.44122,-6.6 1.35317,-12.69261 2.02653,-13.53913 0.67336,-0.84652 0.84432,-3.05305 0.37991,-4.90341 -0.46442,-1.85036 -0.26823,-4.39383 0.43596,-5.65214 0.93684,-1.67404 0.34312,-4.11454 -2.21303,-9.09658 -1.92136,-3.7448 -4.0308,-7.19818 -4.68767,-7.67418 -1.7022,-1.23348 0.078,-5.13456 2.34314,-5.13456 1.04454,0 2.22346,-0.84506 2.61981,-1.87793 0.80283,-2.09211 8.97243,-2.98197 38.23135,-4.16436 9.9,-0.40007 21.6,-1.27445 26,-1.94307 10.82948,-1.64562 35.80965,-5.04893 44,-5.99458 3.66666,-0.42335 13.36869,-0.93776 21.56006,-1.14316 8.20239,-0.20567 15.69006,-1.0271 16.66667,-1.8284 4.14176,-3.39831 11.56716,-2.52788 16.97929,1.99037 l 4.43863,3.70553 -1.57617,7.59242 c -0.86691,4.17584 -1.83099,14.05834 -2.14243,21.96114 -0.68224,17.31247 -1.00984,20.57932 -2.26061,22.54367 -1.75788,2.76075 -2.15748,19.65632 -0.78424,33.15837 0.74584,7.33334 1.25758,16.93334 1.1372,21.33334 -0.38971,14.24401 -0.37082,39.22306 0.0329,43.45064 0.64476,6.75209 -5.78423,8.55677 -14.71795,4.13148 z m -2.20088,-16.87275 c 0.41309,-1.07652 0.10027,-2.35955 -0.69524,-2.85119 -0.93635,-0.57869 -0.65205,-1.33837 0.80628,-2.15449 1.62692,-0.91047 2.02903,-2.2786 1.44767,-4.92551 -0.44272,-2.01569 -0.24312,-6.16538 0.44354,-9.22153 0.75248,-3.34904 0.76288,-5.55665 0.0261,-5.55665 -0.6723,0 -0.3862,-1.35 0.63574,-3 1.26074,-2.03554 1.69166,-5.78623 1.3404,-11.66667 -0.28473,-4.76667 -0.59314,-10.31667 -0.68537,-12.33333 C 909.02601,393.65 908.46071,392 907.86196,392 c -1.35544,0 -0.40229,-38.04708 1.01041,-40.33288 0.56614,-0.91604 0.85307,-3.34609 0.63762,-5.40013 -0.21547,-2.05404 0.15378,-4.4544 0.82054,-5.33414 1.39803,-1.84454 0.57383,-14.26618 -0.94656,-14.26618 -0.5578,0 -0.71313,-1.57483 -0.34518,-3.49962 l 0.66898,-3.49962 -28.8783,0.85706 c -18.89315,0.56072 -30.8292,1.49847 -34.52055,2.7121 -12.87972,4.23454 -34.64149,6.33582 -50.30892,4.85773 -5.5,-0.51888 -12.7,-0.41337 -16,0.23447 -9.83573,1.93088 -10.00995,2.04692 -7.40089,4.92989 2.0976,2.31783 2.16398,4.06789 0.77033,20.30555 -0.8388,9.773 -1.83283,18.82642 -2.20895,20.1187 -0.66353,2.27979 -0.70724,25.98903 -0.0709,38.48786 0.17277,3.39394 0.96543,6.99394 1.76143,8 0.79601,1.00606 1.80773,4.52921 2.24828,7.82921 0.44053,3.3 1.74666,9.15 2.90252,13 2.39702,7.98427 4.08841,8.56336 14.16392,4.84941 3.20886,-1.18282 8.2343,-2.38652 11.16764,-2.67488 9.64822,-0.94848 14,-1.94377 14,-3.20194 0,-0.76107 1.24742,-0.76566 3.23005,-0.012 2.42047,0.92025 3.66307,0.7063 4.95771,-0.85363 1.46182,-1.7614 4.196,-1.95937 17.76994,-1.28669 8.82326,0.43724 20.8423,0.9578 26.70896,1.15678 9.35772,0.3174 11.81199,0.968 20,5.30176 10.03435,5.31099 14.6057,6.20711 15.79912,3.09708 z m -76.6888,-42.28144 c -3.28457,-3.51615 -3.88719,-5.16407 -3.53495,-9.66667 0.23355,-2.98536 0.98604,-5.8322 1.67223,-6.3263 0.73017,-0.5258 0.45368,-1.87615 -0.66667,-3.25595 -1.05285,-1.29667 -1.252,-1.96121 -0.44257,-1.47677 0.82023,0.4909 2.13557,-0.57626 2.97141,-2.41072 0.82486,-1.81034 2.03759,-3.29152 2.69498,-3.29152 0.65738,0 1.19525,-1.60322 1.19525,-3.56268 0,-1.95948 0.87747,-4.20948 1.94992,-5 1.07245,-0.79054 1.976,-2.33732 2.00785,-3.43732 0.0319,-1.1 0.4728,-2.9958 0.97984,-4.21288 0.66608,-1.5988 0.0627,-2.45611 -2.17452,-3.0894 -8.15316,-2.30795 -10.42976,-3.75672 -10.42976,-6.63726 0,-3.79512 1.31507,-5.06881 3.42528,-3.31749 1.15748,0.96063 1.93606,0.95707 2.53471,-0.012 0.47523,-0.76895 4.61551,-1.39808 9.20063,-1.39808 14.95149,0 18.35094,7.61977 8.62528,19.33333 -1.21776,1.46667 -2.88407,5.19134 -3.70291,8.27704 -0.81883,3.08571 -2.07248,5.97111 -2.78588,6.41202 -0.71341,0.44136 -1.29711,3.42264 -1.29711,6.62553 v 5.82343 l 14.56114,0.0908 c 8.00862,0.0499 16.10862,0.6791 18,1.39821 4.21565,1.60279 4.72193,6.62091 0.7722,7.65379 -1.46667,0.38354 -2.66607,1.07737 -2.66532,1.54184 7.3e-4,0.46446 -5.64987,0.72349 -12.55691,0.57561 -9.60083,-0.20556 -12.93652,0.18693 -14.1646,1.66667 -0.91127,1.09801 -3.90052,1.93554 -6.90815,1.93554 -4.23801,0 -6.09628,-0.85049 -9.26137,-4.23873 z m -698.12248,57.0508 c -2.58473,-1.24844 -4.6893,-4.54104 -4.9223,-7.70096 -0.0361,-0.48888 -0.51033,-1.33368 -1.05397,-1.87732 -0.54364,-0.54364 -0.37911,-1.72261 0.36561,-2.61995 0.91699,-1.10492 0.9052,-5.44814 -0.0365,-13.45601 -0.76482,-6.50347 -1.72924,-18.42439 -2.14317,-26.49093 -0.41392,-8.06655 -0.99748,-14.91134 -1.2968,-15.21066 -0.29931,-0.29932 0.0809,-1.29746 0.84499,-2.21809 2.07747,-2.5032 2.88845,-15.23815 0.97039,-15.23815 -0.85749,0 -0.39534,-0.85094 1.027,-1.89098 1.42235,-1.04004 2.15813,-2.31894 1.63509,-2.84198 -0.52305,-0.52305 -0.33178,-2.108 0.42503,-3.52212 0.75681,-1.41412 1.56956,-5.38522 1.80611,-8.82468 0.23655,-3.43946 0.64623,-7.41201 0.9104,-8.82789 0.31874,-1.70832 -0.44278,-2.82964 -2.26375,-3.33333 -1.50923,-0.41746 -4.68143,-2.29162 -7.04933,-4.16479 -4.28181,-3.38721 -4.29144,-3.42173 -1.76621,-6.33333 1.73002,-1.99474 4.05733,-2.92756 7.30397,-2.92756 2.62071,0 5.12321,-0.57974 5.56112,-1.28828 0.44874,-0.72608 5.56004,-1.0758 11.7123,-0.80139 7.85362,0.35031 11.6632,-0.0364 13.57916,-1.37837 1.46469,-1.02592 3.9905,-1.8653 5.61293,-1.8653 1.62241,0 4.63892,-0.67661 6.70332,-1.50358 2.06441,-0.82698 6.67905,-1.37848 10.25476,-1.22556 8.81203,0.37682 39.8558,-2.72134 41.43204,-4.13491 0.69667,-0.62477 3.82569,-1.13595 6.9534,-1.13595 3.12771,0 8.55771,-0.98462 12.06667,-2.18805 7.90216,-2.71011 28.80314,-3.25324 31.24572,-0.81195 0.91714,0.91667 3.34754,1.66667 5.40088,1.66667 2.05333,0 4.85833,1.125 6.23333,2.5 1.375,1.375 3.26143,2.75381 4.19205,3.06401 2.34391,0.78131 3.27434,22.55486 1.36103,31.85026 -1.70101,8.26404 -1.73357,8.70998 -0.9674,13.2524 0.30924,1.83333 0.99003,6.33333 1.51289,10 0.52286,3.66666 1.55592,8.63885 2.29571,11.0493 0.7398,2.41047 1.39656,13.71566 1.45948,25.12264 0.1096,19.8809 0.23681,20.8202 3.06948,22.67624 4.20076,2.75244 4.90685,8.07374 1.49331,11.25395 -3.49354,3.25472 -5.7409,3.22485 -12.3013,-0.16352 -5.49332,-2.83723 -22.70942,-7.51227 -31.94858,-8.67564 -2.93334,-0.36936 -8.33334,-1.21573 -12,-1.88083 -15.59999,-2.82965 -21.62264,-2.84306 -37.79288,-0.0841 -8.92555,1.52284 -17.57352,3.29129 -19.2177,3.92988 -1.64418,0.6386 -5.68942,1.95412 -8.98942,2.92339 -3.3,0.96926 -7.5,2.52805 -9.33334,3.46397 -1.83333,0.93592 -4.45164,1.70536 -5.81846,1.70988 -2.73138,0.009 -11.98494,4.65321 -16.18154,8.12123 -3.58722,2.96441 -8.68,3.80281 -12.34549,2.03238 z m 23.67883,-20.66752 c 0,-0.65384 1.5,-1.56527 3.33333,-2.0254 1.83333,-0.46015 3.33333,-1.39704 3.33333,-2.08199 0,-1.8129 7.75146,-4.99032 14.54488,-5.96212 3.23303,-0.46248 7.55099,-1.829 9.5955,-3.03672 3.2019,-1.89141 4.67906,-1.97384 10.65468,-0.59449 5.80316,1.33953 7.42741,1.28029 9.93436,-0.36233 3.83882,-2.5153 30.29293,-1.57768 37.22669,1.31942 2.54369,1.06283 7.06311,1.93242 10.04313,1.93242 2.98002,0 9.07952,1.2334 13.55446,2.74089 4.47493,1.50751 8.8649,2.46129 9.7555,2.11953 1.85884,-0.7133 3.841,-16.36204 2.36412,-18.66429 -0.53962,-0.8412 -0.81446,-6.32947 -0.61077,-12.19613 C 278.59959,398.8 278.24273,392.2 277.60288,390 c -0.71784,-2.46816 -0.65131,-4.83397 0.17375,-6.17769 0.98776,-1.60874 0.54648,-3.5177 -1.68899,-7.30652 -4.74407,-8.0406 -5.85431,-20.301 -2.21241,-24.43156 4.57386,-5.18759 -1.12876,-20.80824 -7.87523,-21.57186 -5.67111,-0.64189 -9.38655,-0.5319 -10.66667,0.31574 -2.04022,1.35096 -16.48849,4.10605 -17.6779,3.37096 -0.5773,-0.35679 -4.93592,0.2528 -9.68586,1.35462 -4.74993,1.10183 -13.73624,2.23948 -19.96957,2.52812 -19.78343,0.91608 -33.93572,2.04555 -36,2.8731 -1.1,0.44098 -2.51316,0.68548 -3.14035,0.54332 -0.62718,-0.14215 -1.84554,0.3268 -2.70745,1.04212 -0.86191,0.71532 -3.94875,1.30916 -6.85965,1.31965 -2.9109,0.0107 -7.69255,0.88403 -10.62588,1.9412 -4.77776,1.72189 -5.50791,2.59628 -7.00912,8.39379 -0.9217,3.55942 -2.02582,11.87168 -2.45363,18.47168 -0.4278,6.6 -1.39115,14.01337 -2.14076,16.47416 -2.03553,6.68218 -1.38525,42.20956 0.90465,49.42442 0.79598,2.50788 2.74194,3.05866 13.69886,3.87728 1.65,0.1232 3,-0.31082 3,-0.96465 z m 47.3749,-29.16524 c -5.17241,-2.70635 -8.89404,-7.26243 -7.28026,-8.91264 1.9049,-1.94792 1.46956,-5.69277 -0.76131,-6.54884 -1.25085,-0.48 -2,-2.51619 -2,-5.43607 0,-3.65054 0.88013,-5.3193 4.03617,-7.65266 2.2199,-1.64124 3.74482,-3.74334 3.38871,-4.67132 -0.35611,-0.92799 0.1674,-2.15312 1.16335,-2.72251 1.02821,-0.58785 2.01269,-3.91643 2.27796,-7.70193 0.42586,-6.07762 0.20022,-6.70456 -2.55378,-7.09548 -1.84056,-0.26126 -5.02162,1.1558 -8.1414,3.6267 -7.47009,5.91642 -11.43256,7.16336 -13.93685,4.38576 -1.62316,-1.8003 -1.71612,-2.80578 -0.46485,-5.02801 5.39504,-9.58151 11.80353,-13.45153 22.69048,-13.70251 6.31097,-0.14549 7.94568,0.34022 10.82048,3.21502 1.86252,1.86252 3.47362,5.00912 3.58022,6.99245 0.39283,7.30852 -0.49436,12.99525 -2.35285,15.08156 -2.29664,2.57815 -0.67571,4.30385 5.41336,5.76323 5.959,1.4282 8.74567,5.50736 8.74567,12.80202 0,3.97287 -0.73866,6.91243 -2,7.95926 -1.1,0.91292 -2,2.39877 -2,3.30189 0,0.90312 -1.47135,3.22965 -3.26967,5.17008 -3.806,4.10675 -10.84081,4.58261 -17.35543,1.174 z m 5.6251,-12.29444 c 2.0613,-0.012 3,-0.81783 3,-2.57376 0,-1.40555 0.75,-2.85819 1.66666,-3.22807 C 213.25,393.84649 212.65,393.49649 211,393.4386 c -1.65,-0.0579 -4.13229,1.02703 -5.51621,2.41095 -1.38392,1.38392 -3.63392,3.2252 -5,4.09174 -2.22188,1.40938 -2.1323,1.49747 0.84954,0.83532 1.83334,-0.4071 4.68334,-0.7484 6.33334,-0.75841 z m 125.82638,60.31513 c -3.08389,-2.9632 -3.69204,-4.49802 -3.16986,-8 0.39233,-2.63113 0.0759,-4.33333 -0.80552,-4.33333 -1.00734,0 -1.05366,-1.04685 -0.15134,-3.42013 0.71519,-1.88107 1.30034,-5.14567 1.30034,-7.25464 0,-2.10899 0.60162,-4.20634 1.33693,-4.66079 0.89368,-0.55232 0.89361,-1.65464 -1.9e-4,-3.32472 -0.79464,-1.4848 -0.87692,-3.75101 -0.2028,-5.58576 0.62388,-1.69801 0.95699,-4.88729 0.74026,-7.08729 -0.21675,-2.2 -0.6623,-6.7 -0.99012,-10 -0.36248,-3.64888 6.1e-4,-6.40179 0.92661,-7.02534 1.09492,-0.73732 0.96083,-1.4864 -0.47736,-2.66666 -1.55232,-1.27394 -2.01803,-4.99896 -2.08051,-16.64134 -0.0443,-8.25 0.39087,-15 0.967,-15 0.57612,0 0.48528,-1.47876 -0.20188,-3.28613 -0.79568,-2.09281 -0.7758,-3.57881 0.0548,-4.09213 0.71728,-0.4433 0.95895,-1.36454 0.53703,-2.0472 -0.42191,-0.68266 -0.2142,-1.2412 0.46157,-1.2412 0.67578,0 1.03927,-1.65 0.80778,-3.66667 -0.2315,-2.01667 -0.56438,-6.27977 -0.73974,-9.47357 -0.18096,-3.29596 -1.07276,-6.09623 -2.06241,-6.47599 C 328.74551,334.66744 328,332.28696 328,329.483 c 0,-4.25552 0.54357,-5.10355 4.14192,-6.46176 3.37557,-1.27415 4.71049,-1.19085 7.215,0.45016 5.57405,3.65225 65.0258,5.41729 69.08201,2.05093 1.15522,-0.95874 3.47904,-1.91426 5.16407,-2.12338 8.44793,-1.0484 16.52916,-2.48254 17.63871,-3.13024 2.95416,-1.72451 40.87121,-2.46783 50.7761,-0.99542 3.27147,0.48632 6.96382,2.30263 9.50059,4.67344 4.04948,3.78459 4.11847,4.04868 2.86408,10.96563 -0.70693,3.8982 -1.87383,7.79928 -2.59309,8.66908 -0.80171,0.96947 -0.84223,2.51735 -0.1048,4 1.05492,2.12079 2.0413,13.06439 2.08076,23.08523 0.007,1.83333 -0.46348,10.23333 -1.046,18.66666 -1.05699,15.30243 0.43381,29.1104 3.55908,32.96472 1.88545,2.3253 0.81714,26.00432 -1.20359,26.67739 -0.87548,0.2916 -1.33177,1.24141 -1.01401,2.11071 0.31777,0.86928 0.0688,2.37874 -0.55316,3.35436 -0.93,1.45869 -4.4214,1.5004 -19.65266,0.23474 -10.18696,-0.8465 -23.02174,-1.83169 -28.52174,-2.1893 -5.5,-0.35762 -11.8,-1.07507 -14,-1.59435 -6.86155,-1.61959 -50.13595,0.72028 -53.66559,2.90172 -0.7138,0.44115 -3.33104,1.06383 -5.81611,1.38372 -2.48506,0.31991 -7.2183,1.47887 -10.5183,2.57548 C 352.70951,460.61827 340.50293,464 338.78265,464 c -0.81048,0 -3.1908,-1.65 -5.2896,-3.66667 z m 19.84028,-13.55638 c 0,-3.74703 28.85606,-8.8557 40.78526,-7.22062 3.26884,0.44804 6.58689,0.20258 7.52949,-0.55701 3.40232,-2.74175 10.47372,-3.15253 20.64241,-1.19912 23.2729,4.47073 53.69228,5.45512 57.29335,1.85405 2.55487,-2.55485 2.61697,-13.44921 0.11067,-19.41929 -0.8239,-1.96256 -1.35071,-5.97008 -1.17071,-8.9056 0.18,-2.93552 -0.27592,-6.92383 -1.01316,-8.86291 -0.73724,-1.93908 -0.96651,-3.8995 -0.50951,-4.35652 1.36131,-1.36129 1.42547,-6.6595 0.1008,-8.32456 -0.75045,-0.9433 -0.75164,-1.84453 -0.003,-2.3072 1.4437,-0.89224 1.9379,-8.43676 1.75632,-26.8115 -0.18946,-19.1703 -0.45936,-20.6625 -4.5259,-25.02204 l -3.6706,-3.93508 -19.66273,0.72854 c -10.81449,0.40071 -20.86272,0.95363 -22.32939,1.22872 -1.46666,0.2751 -5.06666,0.94686 -8,1.49279 -2.93333,0.54595 -9.23333,1.87259 -14,2.94812 -6.9738,1.57352 -12.9032,1.73059 -30.35568,0.80408 -11.92896,-0.63328 -23.92896,-0.78905 -26.66666,-0.34617 l -4.97766,0.80525 -0.8308,15.98123 c -0.45693,8.78968 -0.39336,16.58122 0.14128,17.31456 1.00787,1.38244 1.94454,28.52816 1.58724,46 -0.52198,25.52504 -0.63926,24.34412 2.67038,26.89026 3.4548,2.65783 5.09857,3.05116 5.09857,1.22002 z m 51.6138,-24.40026 c -3.21137,-2.97618 -6.28046,-8.74098 -6.28046,-11.79682 0,-0.68559 1.05353,-1.24654 2.34118,-1.24654 2.20459,0 3.66384,-2.32846 6.89375,-11 1.31884,-3.54078 1.21283,-3.66666 -3.08812,-3.66666 -2.44963,0 -5.97941,1.2 -7.84397,2.66666 C 395.10495,398.8 392.12861,400 390.35544,400 c -3.50079,0 -9.02211,-4.97647 -9.02211,-8.13179 0,-2.76904 6.48424,-6.17045 11.97318,-6.28073 2.55192,-0.0513 4.85192,-0.72943 5.11112,-1.50701 0.26125,-0.78378 3.98676,-1.4138 8.36014,-1.4138 7.50978,0 7.8889,-0.15898 7.8889,-3.30794 0,-3.5192 -1.64327,-4.21181 -10.65526,-4.49101 -2.56038,-0.0793 -6.31272,-0.83077 -8.33853,-1.66988 -3.98491,-1.65061 -12.02476,-11.54979 -10.88207,-13.39871 1.5807,-2.55761 13.87586,0.1729 13.87586,3.08156 0,2.60216 14.80502,1.09412 21.23206,-2.1627 5.27959,-2.67538 7.2669,-3.0554 10.75156,-2.05602 5.98139,1.71544 7.8645,3.61416 6.99568,7.05372 -0.40997,1.62304 -1.09802,3.25098 -1.52901,3.61764 -1.04423,0.88838 -6.79204,12.41076 -6.78733,13.60626 0.003,0.51676 2.05304,1.32404 4.55777,1.79392 3.38532,0.63509 4.76787,1.70625 5.38719,4.17381 1.85796,7.40268 -2.22324,10.65763 -11.75282,9.3734 -4.07025,-0.54852 -4.83966,-0.18221 -6.04681,2.87873 -2.84715,7.21952 -3.06584,10.7158 -0.93715,14.98287 2.56115,5.13392 2.69727,7.36179 0.46219,7.56407 -0.91667,0.0829 -4.1152,0.54836 -7.10784,1.03421 -4.62071,0.75016 -5.96952,0.39371 -8.94503,-2.36391 z m 1600.99217,2.35058 c -4.2532,-4.2533 -4.127,-6.83212 0.7915,-16.18244 2.9961,-5.69587 3.9596,-9.14738 3.6667,-13.1354 L 2010,390 l -9.2595,-1.24305 c -6.511,-0.87408 -14.0305,-0.71358 -25.3333,0.54076 -26.8928,2.98444 -34.1064,3.28673 -45.4072,1.90288 -12.1915,-1.49292 -42.5013,-1.00756 -52,0.83268 -7.0669,1.36913 -25.8459,1.82746 -77.3333,1.88748 -44.3096,0.0516 -75.576,0.70004 -89.7459,1.86114 -19.5405,1.60118 -24.6115,1.53356 -50,-0.66666 -33.4787,-2.90134 -64.4157,-2.89464 -83.6595,0.0181 -7.6604,1.15948 -15.428,2.11297 -17.2613,2.11888 -22.7125,0.0732 -31.1408,-0.21964 -37.3333,-1.29711 -17.9415,-3.12173 -44.3778,-1.29758 -51.2967,3.53955 -1.4465,1.01127 -3.6465,1.83868 -4.8889,1.83868 -1.2424,0 -2.5318,0.75 -2.8652,1.66667 -0.909,2.49852 -5.6086,-0.67839 -5.6458,-3.81654 -0.045,-3.80196 3.308,-9.85013 5.4608,-9.85013 1.0464,0 1.9024,-0.6 1.9024,-1.33333 0,-0.73334 1.1646,-1.33334 2.588,-1.33334 1.4234,0 2.9588,-0.6 3.412,-1.33333 0.4532,-0.73333 3.1675,-1.33333 6.0318,-1.33333 3.953,0 5.5749,-0.68592 6.7313,-2.8468 1.0699,-1.9991 1.82,-2.3671 2.5192,-1.23583 0.6441,1.04232 4.4765,1.57068 10.8567,1.49681 5.4236,-0.0628 14.5373,0.44728 20.2526,1.13348 19.9151,2.39103 51.4636,1.83887 69.6084,-1.21829 15.2532,-2.56995 30.9312,-3.02985 49.3334,-1.44717 9.5333,0.81992 22.4333,1.82076 28.6666,2.22406 6.2334,0.40332 14.0334,0.96312 17.3334,1.244 10.5646,0.89922 23.5813,1.06554 24.8093,0.31699 1.8071,-1.10156 38.9927,-3.90156 50.0884,-3.77156 5.3729,0.0629 11.2689,0.0389 13.1023,-0.0532 12.9052,-0.64924 80.6972,0.94032 82.298,1.92969 0.7273,0.4495 3.3577,0.22275 5.8454,-0.50388 15.9806,-4.66762 56.9127,-6.70169 77.8566,-3.86896 11.0826,1.49896 9.837,1.4723 20.6666,0.44244 4.7667,-0.45329 9.4671,-1.46848 10.4455,-2.25596 0.9972,-0.80262 10.1704,-1.68425 20.8756,-2.0063 l 19.0968,-0.57454 0.6704,-4.8358 c 0.8189,-5.90664 4.4275,-21.50413 5.0948,-22.02094 0.266,-0.20599 4.4315,-0.0185 9.2568,0.41654 11.8685,1.0702 15.8935,5.50755 15.8935,17.52206 0,2.88558 0.6,5.24653 1.3333,5.24653 0.7333,0 1.3333,1.07196 1.3333,2.38212 0,2.17039 0.9738,2.29845 10.955,1.44069 6.2354,-0.53585 11.9548,-0.40629 13.276,0.30075 4.164,2.22853 4.8232,15.87644 0.7668,15.87644 -2.5794,0 -13.5216,5.60187 -16.9978,8.70193 -1.8333,1.63503 -5.4813,4.39596 -8.1065,6.13543 -9.0128,5.97159 -17.7061,12.5034 -24.1735,18.16264 -3.5616,3.11667 -6.7829,5.66667 -7.1584,5.66667 -0.3756,0 -2.1556,-1.47274 -3.9556,-3.27274 z m 22.7628,-27.60818 c 6.3892,-5.81393 6.0398,-7.78576 -1.3796,-7.78576 h -6.0108 l 0.2271,6 c 0.1253,3.3 0.7456,6 1.3796,6 0.634,0 3.2367,-1.89641 5.7837,-4.21424 z m -1.16,-22.14122 c 1.1552,-0.73514 1.0967,-2.27702 -0.2336,-6.14652 -2.6074,-7.5847 -4.2424,-8.66279 -6.1394,-4.04847 -3.3054,8.03971 0.4128,13.98765 6.373,10.19499 z m -356.8776,-34.97994 c -4.057,-3.96588 -4.0864,-4.09546 -3.2536,-14.33333 0.4623,-5.6822 1.0174,-14.53127 1.2338,-19.6646 0.2162,-5.13333 0.834,-13.89061 1.3728,-19.46061 1.112,-11.49538 -0.083,-13.18531 -6.8403,-9.67923 -5.5519,2.88033 -11.7459,1.29772 -15.8184,-4.04167 -1.8473,-2.42194 -3.3588,-5.0969 -3.3588,-5.94434 0,-2.16036 -4.1071,-1.91711 -10.1315,0.60006 -7.0352,2.93946 -15.9016,1.63178 -20.808,-3.06888 -2.05,-1.964 -3.7272,-4.35865 -3.7272,-5.32145 0,-3.16455 -3.2682,-1.83193 -7.0109,2.85859 -3.7653,4.71913 -13.7639,10.05956 -18.8252,10.05496 -3.6289,-0.003 -11.4037,-11.50579 -14.7003,-21.7486 -0.8686,-2.69908 -3.4636,-1.8276 -3.4636,1.1632 0,1.05672 -0.5596,1.9213 -1.2434,1.9213 -0.6839,0 -1.6122,1.16156 -2.0628,2.58124 -0.9231,2.90847 -11.5396,14.08087 -15.0606,15.84915 -4.7297,2.37529 -14.2872,1.80489 -17.5778,-1.04904 -1.7215,-1.49308 -3.5603,-2.71468 -4.086,-2.71468 -0.5259,0 -1.7154,-2.71157 -2.6432,-6.02572 -2.3378,-8.34948 -1.1059,-22.2244 2.2974,-25.87745 1.4391,-1.54468 3.4615,-4.44838 4.4943,-6.45267 1.0328,-2.00429 2.6288,-4.12397 3.5467,-4.71041 0.9178,-0.58644 1.6688,-1.88058 1.6688,-2.87584 0,-0.99528 2.9616,-4.28919 6.5813,-7.3198 7.9227,-6.63322 18.23,-8.83052 22.6517,-4.82888 2.4003,2.1723 2.571,2.14202 3.4448,-0.61126 0.5058,-1.59322 1.0639,-4.18705 1.2404,-5.76404 0.3778,-3.37516 3.5491,-12.93885 4.9412,-14.9011 0.5335,-0.75194 1.323,-4.30811 1.7544,-7.90259 1.203,-10.02064 4.684,-12.47453 11.211,-7.90288 3.9012,2.73252 3.5378,6.99912 -2.484,29.17264 -5.2199,19.21997 -6.7103,29.36911 -5.3192,36.22133 3.4008,16.7522 4.4585,18.40218 10.4561,16.3114 2.4213,-0.84408 4.1889,-2.39165 4.1889,-3.66749 0,-2.33536 6.8486,-9.53191 9.071,-9.53191 1.5162,0 2.929,-3.1695 2.929,-6.57086 0,-2.79842 3.5746,-10.4827 6.4019,-13.76247 2.9507,-3.42288 7.5305,-2.85371 12.3331,1.53275 3.9652,3.62164 4.2294,4.43248 4.181,12.82386 -0.045,7.76855 -0.5073,9.43338 -3.4838,12.5402 -1.8876,1.97035 -3.4322,4.07764 -3.4322,4.68288 0,1.8923 11.7334,-0.12253 14.018,-2.4072 1.1948,-1.19486 3.389,-2.17249 4.8758,-2.17249 1.4868,0 4.7438,-0.96836 7.2381,-2.15192 3.4664,-1.64493 4.5348,-2.97999 4.5348,-5.66667 10e-5,-3.50268 4.7123,-8.28325 13.6501,-13.84808 6.0463,-3.7645 15.6832,-2.32644 15.6832,2.34034 0,1.05224 1.8324,3.26796 4.0722,4.9238 2.2396,1.65585 5.2206,5.60736 6.6246,8.78112 l 2.5526,5.77048 -3.2419,6.2588 c -4.4773,8.64385 -7.092,18.11177 -7.8148,28.29809 -0.3367,4.74505 -1.0324,9.67872 -1.5461,10.96369 -0.5138,1.28498 -0.555,3.84728 -0.091,5.69403 0.4635,1.84673 0.2668,4.43368 -0.4369,5.74876 -0.7962,1.48755 -0.8203,4.43569 -0.064,7.80207 1.684,7.49542 -2.9112,31.08549 -6.0554,31.08549 -0.3156,0 -2.4161,-1.80093 -4.6678,-4.00207 z m -7.764,-78.6646 c 1.5611,0 2.974,-1.11474 3.3799,-2.66666 0.3835,-1.46667 1.2228,-2.66667 1.8649,-2.66667 0.6423,0 2.6426,-1.28229 4.445,-2.84955 l 3.2773,-2.84956 -2.6276,-5.15044 c -3.1605,-6.19518 -4.6416,-6.41998 -7.6353,-1.15888 -1.2492,2.19536 -2.7214,3.99536 -3.2714,4 -0.55,0.004 -1,0.66379 -1,1.46479 0,0.801 -1.2,2.98192 -2.6666,4.84648 -3.2816,4.17187 -3.6263,9.01735 -0.5576,7.83981 1.16,-0.44513 3.3161,-0.80932 4.7914,-0.80932 z m -121.2556,-4.51304 c 0.5382,-0.81782 1.1668,-2.023 1.3971,-2.67816 0.2304,-0.65516 1.6325,-0.54164 3.116,0.25228 2.4303,1.30067 3.0655,0.69304 6.4215,-6.14214 2.0484,-4.17208 4.2634,-8.4856 4.9225,-9.5856 2.9396,-4.90634 6.4481,-13.66878 5.8564,-14.62618 -1.0329,-1.67128 -5.9476,-2.57786 -6.7691,-1.24865 -0.4106,0.66449 -1.9113,1.20816 -3.3346,1.20816 -1.4235,0 -2.588,0.6 -2.588,1.33333 0,0.73334 -0.7247,1.33334 -1.6104,1.33334 -2.1028,0 -11.723,9.40549 -11.723,11.46128 0,0.8727 -0.8066,1.89632 -1.7928,2.27468 -0.986,0.37837 -2.5612,3.43297 -3.5005,6.78801 -1.4951,5.33987 -1.4287,6.52639 0.5336,9.52101 1.72,2.62511 2.9221,3.20863 5.1672,2.50828 1.6092,-0.50197 3.3661,-1.58181 3.9041,-2.39964 z m 720.4007,75.2534 C 2260.0071,328.77543 2257.5943,320 2258.7259,320 c 0.7008,0 1.2741,-1.38 1.2741,-3.06667 0,-1.68666 0.5652,-3.63666 1.256,-4.33333 2.2017,-2.22039 4.0569,-18.08444 4.0672,-34.78023 0.013,-11.0369 0.6953,-18.45401 2.1657,-23.33333 1.1856,-3.9342 2.5856,-8.65311 3.1111,-10.48644 0.6801,-2.37241 1.8844,-3.33333 4.1777,-3.33333 H 2278 l -0.358,22 c -0.1969,12.1 -0.6347,23.5 -0.9729,25.33333 -0.3383,1.83333 -0.9304,8.21595 -1.3159,14.1836 l -0.7009,10.85027 4.3405,0.77745 c 4.6732,0.83705 29.3284,0.042 37.0567,-1.19496 2.594,-0.41517 7.394,-0.17568 10.6666,0.5322 3.2728,0.70788 8.757,0.84079 12.187,0.29533 3.43,-0.54544 7.18,-0.46364 8.3333,0.18179 1.4144,0.79153 2.0969,0.63115 2.0969,-0.49276 0,-1.22068 0.3958,-1.27057 1.4796,-0.18661 1.0584,1.0584 2.6244,1.0806 5.5006,0.078 3.1665,-1.10383 4.7849,-0.95039 7.6161,0.72206 1.9773,1.16806 4.7521,2.15943 6.1661,2.20303 1.414,0.0436 3.771,0.13989 5.2376,0.21397 1.4667,0.0741 10.1667,-0.30888 19.3334,-0.85101 27.0256,-1.59839 42.0981,-1.31087 43.4201,0.82824 0.3204,0.51835 1.7729,0.63113 3.228,0.25065 1.4549,-0.38049 3.7043,-0.21893 4.9987,0.359 4.5284,2.02212 24.9806,1.8347 36.7544,-0.33682 10.17,-1.87571 13.7253,-1.94335 26.6666,-0.50732 19.9707,2.21606 44.007,2.02504 79.5988,-0.6326 9.2986,-0.69432 44.1196,-1.20396 62.6667,-0.91718 6.2333,0.0964 22.2385,0.0949 35.5671,-0.003 17.477,-0.12867 24.786,0.28 26.2145,1.46565 1.372,1.13864 2.2519,1.20571 2.8623,0.21816 0.6038,-0.97716 8.2984,-1.16209 24.452,-0.58767 29.2656,1.04071 25.2832,0.98536 40.4162,0.56179 7.065,-0.19775 13.4735,0.0287 14.2412,0.50311 0.7676,0.47445 1.7564,0.27906 2.1972,-0.4342 0.4408,-0.71328 1.5323,-1.02494 2.4255,-0.69258 0.8932,0.33236 6.724,-0.33424 12.9573,-1.48134 19.0074,-3.49787 22.3364,-3.65438 29.2978,-1.37742 3.5952,1.17591 9.4238,2.17378 12.9528,2.2175 3.5289,0.0437 9.2874,0.55184 12.7969,1.12916 3.5095,0.57732 6.6393,0.63153 6.9552,0.12053 0.3157,-0.51107 6.3255,-1.33348 13.3547,-1.82759 7.0293,-0.4941 13.7994,-1.41044 15.0449,-2.03628 7.1293,-3.58265 13.6332,-4.4013 32.0932,-4.03962 29.9981,0.58773 36.9029,0.22146 49.5919,-2.63063 5.8634,-1.31795 45.9818,0.21537 53.246,2.03505 1.8333,0.45926 4.8333,1.05391 6.6666,1.32146 4.7963,0.69993 42.646,0.6853 43.7823,-0.0169 1.3213,-0.81661 16.0003,2.69591 17.9564,4.29678 0.8771,0.7178 6.0947,2.03992 11.5947,2.93804 10.1565,1.65849 19.4237,1.03534 41.3333,-2.77936 4.7667,-0.82992 12.8667,-1.3022 18,-1.0495 13.1491,0.6473 42.0332,0.28787 54.6667,-0.68025 27.0193,-2.07053 32.5701,-2.08617 36.3093,-0.10227 2.5848,1.37142 7.6857,1.92588 17.024,1.85048 11.9275,-0.0963 34.1812,1.27036 55.5985,3.4145 l 7.5987,0.7607 -0.5932,-14.39184 c -0.3261,-7.9155 -0.5895,-15.29184 -0.5852,-16.39184 0.035,-8.6756 -0.368,-11.52469 -1.8779,-13.29657 -5.1117,-5.99879 -2.665,-10.18829 6.6734,-11.42709 5.223,-0.69286 7.0118,-0.42579 8.4068,1.2551 0.9746,1.17438 2.6686,2.13523 3.7644,2.13523 1.3058,0 1.7622,0.87909 1.3249,2.55167 -0.4683,1.79045 0.1815,2.79525 2.1779,3.36821 2.7673,0.79423 2.7501,0.86869 -0.629,2.72332 -2.8406,1.55915 -3.6286,3.19357 -4.3217,8.96512 -1.4604,12.15928 -1.182,14.39109 1.7957,14.39109 3.3567,0 3.4535,2.15175 0.1759,3.90588 -1.8301,0.97946 -2.3079,2.31811 -1.8013,5.04691 0.3793,2.04264 1.254,4.08256 1.9437,4.53316 0.6899,0.4506 1.5421,4.71603 1.894,9.47872 0.7809,10.56907 -0.8611,12.92992 -8.4617,12.16677 -5.4443,-0.54661 -10.455,-0.90568 -32.4172,-2.323 -7.7,-0.4969 -15.8,-1.26548 -18,-1.70792 -2.2,-0.44244 -10.3,-0.99166 -18,-1.2205 -7.7,-0.22884 -20.3,-1.01426 -28,-1.74535 -19.1603,-1.81921 -36.7592,-1.64831 -49.9374,0.48497 -9.4812,1.53482 -12.5482,1.50908 -21.4952,-0.18028 -10.8905,-2.05633 -20.9893,-1.8527 -37.9008,0.76422 -15.9932,2.47482 -33.8202,2.11574 -46.6666,-0.93995 -12.4966,-2.97249 -32.4338,-4.977 -34.8219,-3.50104 -2.1429,1.3244 -22.9679,0.74812 -32.3237,-0.89448 -16.5564,-2.90679 -38.0099,-3.37783 -54.8544,-1.20441 -5.8667,0.75696 -23.2658,1.41758 -38.6647,1.46805 -15.3989,0.0505 -28.5989,0.54235 -29.3333,1.09305 -5.1,3.82431 -41.9603,7.03632 -56.002,4.88002 -10.5123,-1.6143 -34.4272,-1.72595 -56,-0.26146 -21.6807,1.47183 -66.8226,1.57379 -94,0.21234 -23.7136,-1.18795 -31.8171,-1.05862 -39.3844,0.62858 -5.8424,1.30262 -23.0686,0.62878 -36.1582,-1.41441 -4.5152,-0.70477 -9.0152,-0.97959 -10,-0.61069 -0.9849,0.36889 -9.2908,0.9241 -18.4574,1.2338 -9.1667,0.3097 -24.4667,1.20056 -34,1.97968 -22.8568,1.86798 -25.8271,1.86172 -60.3804,-0.12747 -14.8462,-0.85468 -23.6235,-0.86803 -24.6667,-0.0375 -4.9243,3.92008 -33.4063,4.16786 -50.9351,0.44311 -11.6828,-2.48249 -17.7806,-2.51099 -33.3184,-0.15573 -9.9457,1.5076 -37.0889,0.84458 -44.0328,-1.07556 -2.2,-0.60836 -6.7,-1.00295 -10,-0.87687 -17.9758,0.68683 -38.9177,0.62631 -40.1186,-0.116 -0.7566,-0.4676 -2.9895,-0.22587 -4.9619,0.5372 -1.9724,0.76305 -8.9861,1.72311 -15.5861,2.13344 -6.6,0.41033 -14.4,1.32949 -17.3334,2.04257 -6.7652,1.6446 -8.323,1.66146 -9.2877,0.10054 z m -383.7041,-29.04926 c -2.0123,-1.00586 -4.0272,-3.29783 -4.4779,-5.0933 -0.4507,-1.79545 -1.2728,-3.26446 -1.8271,-3.26446 -0.5541,0 -1.9874,-2.55 -3.185,-5.66667 -1.1976,-3.11667 -4.5792,-8.82884 -7.5146,-12.69372 -2.9353,-3.86487 -5.3369,-7.88505 -5.3369,-8.93375 0,-1.04868 -0.7852,-2.3865 -1.7449,-2.97294 -0.9598,-0.58644 -2.5326,-3.01626 -3.4951,-5.39959 -0.9627,-2.38333 -2.3203,-4.33333 -3.0169,-4.33333 -2.28,0 -5.1187,3.78441 -7.1435,9.52358 -2.4996,7.08448 -12.2097,19.81574 -15.0951,19.79155 -4.73,-0.0396 -7.9161,-1.69468 -9.3589,-4.86139 -0.832,-1.82613 -1.2092,-3.81138 -0.8383,-4.41169 0.3711,-0.60029 -0.2213,-3.63076 -1.3164,-6.73439 -1.095,-3.10361 -1.9909,-7.33209 -1.9909,-9.39661 0,-2.06452 -0.6,-4.12449 -1.3333,-4.57772 -0.7334,-0.45323 -1.3334,-1.89564 -1.3334,-3.20537 0,-1.30974 -1.1372,-3.41048 -2.527,-4.66835 -1.39,-1.25787 -2.7944,-4.10729 -3.121,-6.33207 -0.7418,-5.05546 3.4987,-7.70501 8.2566,-5.15869 3.2945,1.7632 9.3584,13.69381 9.3784,18.45213 0.016,3.68572 2.2608,8.24568 4.06,8.24568 1.8401,0 1.5924,-7.1606 -0.3136,-9.06666 -1.2444,-1.24444 -0.9482,-1.6 1.3333,-1.6 3.3767,0 3.5225,-0.42614 1.3409,-3.91931 -2.213,-3.54375 0.5044,-9.41403 4.3582,-9.41403 4.1885,0 10.5676,4.2231 10.5676,6.99599 0,3.23019 2.3821,3.96516 8.6384,2.66529 5.0061,-1.04012 8.5734,-4.73785 10.8426,-11.23874 0.8262,-2.36698 8.1699,-6.42254 11.6296,-6.42254 4.7714,0 12.3267,18.42927 8.9428,21.81323 -0.7628,0.76273 -1.3868,2.19209 -1.3868,3.17639 0,1.84721 -0.7001,2.80993 -7.1117,9.7795 -3.4812,3.784 -3.6123,4.29084 -1.6667,6.4407 1.1615,1.28342 2.1118,2.93166 2.1118,3.66276 0,0.73109 1.5524,2.78384 3.4497,4.56168 5.37,5.03169 8.1529,13.90506 7.3461,23.42309 -0.208,2.453 -3.1845,2.80152 -7.121,0.83375 z m 38.4354,-5.35776 c -7.9646,-14.34956 -9.7812,-19.91526 -11.2054,-34.33334 -1.6804,-17.00908 -1.5459,-19.13884 1.5025,-23.79138 1.2427,-1.89647 2.2593,-5.23383 2.2593,-7.41635 0,-2.18252 0.641,-4.36432 1.4243,-4.84844 0.7833,-0.48413 1.1428,-1.61364 0.7988,-2.51004 -0.344,-0.8964 1.4016,-4.88572 3.8789,-8.86513 2.4775,-3.97943 4.518,-8.16532 4.5346,-9.30199 0.083,-5.67004 6.1272,-6.79747 10.6473,-1.98595 2.4872,2.64746 2.9291,4.2236 2.2895,8.16538 -0.436,2.68656 -1.7183,5.90748 -2.8498,7.1576 -1.1313,1.25012 -2.0569,3.1557 -2.0569,4.23462 0,1.07892 -0.7007,2.6624 -1.5572,3.51886 -1.9413,1.94141 -4.9868,9.94498 -6.4596,16.97616 -0.6144,2.93333 -1.7864,7.97885 -2.6045,11.21225 -0.9207,3.63896 -1.0134,6.35304 -0.2432,7.12327 0.6844,0.68438 0.9393,3.51898 0.5664,6.2991 -0.838,6.24755 3.7148,13.36538 8.5489,13.36538 2.7693,0 3.0825,0.61617 3.0825,6.06366 0,4.84446 -0.7093,6.7211 -3.528,9.33334 -4.543,4.21036 -6.5192,4.12346 -9.0284,-0.397 z m 24.5564,0.44238 c 0,-3.52928 1.611,-6.10908 3.8094,-6.10038 2.718,0.0107 10.8573,-9.16563 10.8573,-12.24063 0,-1.24361 -0.7113,-3.95017 -1.5807,-6.01457 -1.2377,-2.93904 -3.2666,-30.98548 -3.7528,-51.87462 -0.036,-1.53329 -1.5502,-4.07932 -3.3657,-5.65784 -3.7065,-3.22277 -4.2629,-7.09602 -1.3648,-9.50118 3.8121,-3.16387 6.6071,-0.91278 10.3152,8.30838 4.5743,11.37494 6.3804,20.81887 7.1981,37.63846 0.3566,7.33333 1.2263,16.59353 1.9328,20.57821 1.9516,11.00707 1.5887,17.2812 -1.205,20.83293 -1.3694,1.7408 -2.7772,2.87756 -3.1287,2.52614 -0.3515,-0.35143 -2.8119,0.26892 -5.4675,1.37854 -6.256,2.61392 -14.2476,2.68491 -14.2476,0.12654 z m 1320.3566,-12.6597 c -2.265,-2.90286 -2.9604,-5.52455 -2.9087,-10.96548 0.037,-3.9328 0.056,-11.05054 0.043,-15.8172 -0.027,-9.04451 2.717,-23.4293 5.4222,-28.42475 0.8664,-1.59972 1.4618,-4.48205 1.3232,-6.40517 -0.2992,-4.15056 0.7218,-5.00728 10.744,-9.01624 6.4858,-2.59435 9.1668,-2.94118 17.6651,-2.28519 5.5103,0.42535 11.1897,1.50471 12.6211,2.39859 3.5052,2.18897 5.9933,12.66758 4.1557,17.50086 -0.7604,2.00024 -2.5249,4.07071 -3.9211,4.60102 -3.6294,1.37858 -20.178,16.27305 -20.1106,18.10042 0.069,1.8847 8.7004,7.53046 11.512,7.53046 1.2746,0 1.7598,0.7566 1.2828,2 -0.5703,1.48594 0.1974,2 2.9866,2 4.029,0 8.4559,3.1641 9.9119,7.0845 0.494,1.32982 1.5024,2.0444 2.2408,1.58799 0.7385,-0.45643 1.3428,-0.19447 1.3428,0.58215 0,0.77661 -0.6,1.41202 -1.3333,1.41202 -0.7334,0 -1.3334,1.13188 -1.3334,2.51528 0,3.68579 -9.7878,4.93959 -16.5394,2.11863 -5.1434,-2.14903 -6.5834,-3.12553 -11.8988,-8.06853 -1.6371,-1.52239 -4.232,-3.09632 -5.7667,-3.49763 -2.5164,-0.65807 -2.8628,-0.0268 -3.5295,6.4334 -0.7924,7.67659 -2.743,10.62161 -7.7712,11.73184 -2.3753,0.52448 -3.901,-0.25032 -6.1378,-3.11697 z M 3280,242.00197 c 0.3667,-0.0213 2.6167,-1.4934 5,-3.27116 3.0952,-2.30876 4.3333,-4.30356 4.3333,-6.98156 0,-4.20698 -0.3118,-4.36564 -4.4209,-2.2493 -5.5896,2.87877 -8.9124,6.90956 -8.9124,10.81116 0,2.75254 0.474,3.54534 1.6667,2.788 0.9166,-0.58206 1.9666,-1.07576 2.3333,-1.09714 z m -1503.3333,43.93804 c -6.9516,-5.14901 -20.155,-19.10988 -22.1428,-23.41348 -1.2214,-2.64373 -2.6439,-7.88481 -3.1612,-11.64684 -0.8795,-6.39424 -0.6824,-7.09838 3.0229,-10.80382 2.1801,-2.18007 4.3813,-5.62694 4.8915,-7.65968 1.5209,-6.06004 12.8128,-15.08286 18.8758,-15.08286 1.0886,0 4.1331,2.09178 6.7656,4.6484 4.6735,4.53892 4.7655,4.82495 3.9052,12.14483 -1.4529,12.3624 -10.614,24.51829 -18.4904,24.53512 -3.6096,0.008 -2.7888,2.42117 2.5291,7.43651 4.2541,4.01225 5.3797,4.45025 9,3.50216 5.0915,-1.33343 8.3476,-0.71358 9.3009,1.7706 1.1942,3.11209 -2.4998,11.8677 -5.6024,13.27856 -1.5918,0.72389 -2.8942,1.77389 -2.8942,2.33333 0,1.63571 -3.1146,1.09439 -6,-1.04283 z m -3.5668,-47.03796 c 2.4149,-4.33816 2.6716,-5.56872 1.1617,-5.56872 -1.0659,0 -2.6836,1.8 -3.5949,4 -0.9114,2.2 -2.184,4 -2.8284,4 -0.6444,0 -1.1716,0.95 -1.1716,2.11111 0,3.55932 3.1688,1.32187 6.4332,-4.54239 z m -325.8214,46.34258 c -0.4834,-0.78212 -0.5586,-1.7422 -0.1674,-2.13352 0.955,-0.95508 3.5556,0.72777 3.5556,2.30092 0,1.70396 -2.3019,1.59022 -3.3882,-0.1674 z m 867.0204,-3.58104 c -1.7146,-1.89468 -2.0304,-4.98274 -1.6701,-16.33334 0.2445,-7.6983 0.8448,-15.55426 1.334,-17.45769 0.6043,-2.35064 0,-5.03677 -1.8699,-8.37388 -3.5533,-6.32623 -3.4873,-7.0044 0.8858,-9.10032 2.7577,-1.32177 3.8597,-3.04376 4.526,-7.07276 0.4845,-2.92908 0.7177,-5.50199 0.5184,-5.71756 -0.1995,-0.21559 -2.0675,-0.70113 -4.1514,-1.07901 -5.6084,-1.01699 -7.205,-2.94327 -7.205,-8.69228 0,-5.12454 0.045,-5.17008 5.2222,-5.17008 2.8722,0 5.4594,-0.71156 5.7492,-1.58126 0.3656,-1.0966 5.4647,-1.60742 16.6368,-1.66666 13.55,-0.0719 16.5194,0.28532 18.689,2.24792 1.4186,1.28333 3.2821,2.33333 4.141,2.33333 2.446,0 1.8324,4.62968 -1.1092,8.36927 -2.4616,3.12933 -3.324,3.35016 -11,2.81652 -4.5809,-0.31847 -9.655,-0.87096 -11.2757,-1.22776 -3.8789,-0.85398 -5.4755,2.43956 -4.7063,9.70864 0.5816,5.49621 0.7459,5.66988 5.4596,5.7735 14.1747,0.31159 32.7595,1.34823 33.267,1.85559 1.2497,1.24975 -1.2316,7.37091 -2.9879,7.37091 -1.0249,0 -2.0635,0.45 -2.308,1 -1.2107,2.72418 -14.7075,5.8331 -24.1288,5.55801 -5.4591,-0.1594 -10.6133,0.13525 -11.4539,0.65477 -1.8776,1.16039 -2.0392,12.31411 -0.195,13.45388 0.7333,0.45323 1.3333,2.16258 1.3333,3.79856 0,4.88619 -3.9951,18.7055 -5.7255,19.80538 -2.6606,1.69104 -5.7373,1.1997 -7.9756,-1.27368 z m -599.2761,-2.13368 c -1.6376,-0.81179 -4.108,-3.88812 -5.4899,-6.83628 -1.382,-2.94816 -3.7833,-8.0603 -5.3365,-11.3603 -1.5532,-3.3 -3.4123,-10.2 -4.1313,-15.33333 -1.2528,-8.94401 -1.1727,-9.46856 1.9193,-12.57521 2.8341,-2.84754 3.648,-3.04991 6.6904,-1.66368 4.6947,2.13902 7.3252,9.09357 7.3252,19.36614 0,5.97004 0.6029,9.04658 2,10.20608 1.3819,1.1468 2,1.19727 2,0.16326 0,-0.82312 0.45,-1.34659 1,-1.16326 0.55,0.18334 2.35,-1.01666 4,-2.66666 2.4652,-2.46518 3.0036,-4.48563 3.0204,-11.33334 0.024,-9.73526 0.7272,-11.23041 5.5801,-11.86288 2.7982,-0.36465 4.6555,0.6824 8.3334,4.69775 5.3329,5.8222 5.6421,6.85711 2.5629,8.58031 -1.6153,0.90398 -1.8356,1.81189 -0.8616,3.55238 1.4516,2.59367 -1.8485,10.88974 -5.5555,13.96627 -1.1438,0.94932 -2.0797,2.29541 -2.0797,2.99133 0,2.7826 -12.726,13.149 -15.85,12.91114 -1.1825,-0.09 -3.4897,-0.82792 -5.1272,-1.63972 z M 1030,236.47009 c -4.4,-0.20349 -22.4,-1.037 -40,-1.85222 -17.6,-0.81524 -34.4,-1.71198 -37.33333,-1.99275 -7.04799,-0.67463 -62.90386,-0.58735 -80.66667,0.126 -23.75955,0.95424 -65.4998,0.69267 -75.71175,-0.47448 -5.34146,-0.61048 -13.44146,-0.6336 -18,-0.0513 -6.22366,0.7949 -133.64154,1.49522 -202.28825,1.11182 -3.3,-0.0184 -11.41756,-0.65129 -18.03903,-1.40637 -15.0114,-1.71181 -79.84708,-2.28384 -101.2943,-0.89368 -14.59595,0.94607 -50.77092,-0.41239 -68,-2.55355 -8.4419,-1.04912 -75.4622,-1.98486 -129.33334,-1.80576 -22.73333,0.0756 -52.43333,0.16802 -66,0.20539 -21.19302,0.0584 -66.89273,-0.81649 -71.51123,-1.36903 -2.14895,-0.25709 -3.00223,-6.13461 -1.31439,-9.05369 1.84642,-3.19333 1.97081,-10.18368 0.20357,-11.44003 -0.88681,-0.63042 -0.7839,-0.98685 0.28872,-1 2.15915,-0.0264 2.11595,-3.79478 -0.092,-8.02513 -2.63961,-5.05741 -0.45254,-26.92677 3.30006,-32.9986 2.03941,-3.29984 2.40411,-4.87297 1.28941,-5.56189 -1.06956,-0.66103 -1.21542,-2.59176 -0.46768,-6.19066 1.22319,-5.88728 4.0206,-7.22641 9.24971,-4.42788 3.0007,1.60594 3.2099,2.33826 2.60862,9.13152 -0.35953,4.06206 -1.47706,10.85126 -2.48338,15.08711 -1.2512,5.26663 -1.5405,10.95752 -0.91504,18 0.83884,9.44517 3.79117,18.57313 5.46565,16.89864 0.38104,-0.38103 1.06625,1.17452 1.52269,3.45677 0.74214,3.71062 1.28962,4.11828 5.17594,3.85399 2.3903,-0.16255 5.84601,0.0597 7.67934,0.49395 6.91411,1.6376 52.01436,2.15217 66.71347,0.76117 13.32827,-1.26127 32.14296,-2.1418 49.9532,-2.33783 7.91047,-0.0871 15.57107,0.7937 19.33333,2.22282 1.83334,0.6964 13.83334,1.38104 26.66667,1.52142 88.02768,0.96291 96.92936,1.211 102.66667,2.86123 4.08545,1.17509 11.53092,1.54255 23.33333,1.15153 41.47611,-1.3741 120.74073,-0.15726 124.95885,1.91832 1.76542,0.8687 8.35471,1.36143 15.70782,1.17459 6.96666,-0.17701 51.06666,-0.59583 98,-0.93071 46.93333,-0.33486 88.09272,-1.14564 91.46529,-1.80172 6.16264,-1.19882 25.60812,-0.29164 49.02701,2.28728 8.08866,0.89074 14.43382,0.92736 18,0.104 3.02923,-0.69946 10.9577,-1.28641 17.6188,-1.30433 6.66112,-0.018 12.48052,-0.402 12.93202,-0.85351 1.39529,-1.39528 11.78925,-1.71676 15.07808,-0.46634 1.98012,0.75284 3.42758,0.684 3.96692,-0.18867 0.53016,-0.85781 3.9291,-1.05232 9.0472,-0.51773 4.5089,0.47096 24.99801,1.04597 45.53134,1.27782 20.53334,0.23184 43.03334,1.08436 50,1.89448 15.58648,1.81247 32.29848,2.21876 75.33338,1.8315 18.3333,-0.16498 36.6333,-0.18752 40.6666,-0.0501 4.0334,0.13744 13.0334,-0.58032 20,-1.595 15.4552,-2.25101 108.6372,-2.63333 112.5178,-0.46164 1.6987,0.95063 3.9085,0.84511 7.385,-0.35264 3.2395,-1.1161 6.626,-1.33366 9.7594,-0.62696 2.7436,0.61879 5.3222,0.55844 6.0216,-0.14089 0.7419,-0.74193 3.7672,-0.65299 7.6898,0.22611 7.3055,1.63718 49.7045,0.46973 52.0419,-1.43296 0.9065,-0.73799 1.2625,-7.28054 0.9902,-18.1975 -0.4822,-19.3311 -0.6421,-20.75201 -2.6157,-23.24406 -0.7846,-0.99064 -1.5177,-2.70118 -1.6292,-3.80118 -0.1114,-1.1 -0.548,-4.46312 -0.97,-7.47361 l -0.7674,-5.4736 5.7796,-1.46703 c 11.8234,-3.00109 14.8621,4.36636 13.7257,33.27832 -0.6289,16.00055 -0.3861,19.17455 2.0113,26.29128 4.224,12.53848 3.6192,14.79806 -4.4801,16.73811 -2.4799,0.59399 -4.2277,0.35481 -4.8578,-0.66468 -0.6851,-1.10851 -4.7759,-1.4484 -13.4598,-1.11832 -18.71,0.71119 -72.2492,-0.1116 -96.4756,-1.48261 -16.3783,-0.92688 -77.9076,0.45308 -88,1.97364 -10.9015,1.64244 -77.7666,2.41521 -104,1.20193 z m 176.6667,-58.05082 c 0,-0.8694 -1.2186,-2.87787 -2.708,-4.46327 -2.2893,-2.43681 -5.816,-16.28045 -5.1538,-20.23044 0.098,-0.58239 0.053,-1.65889 -0.099,-2.39223 C 1198.5541,150.6 1198.495,147.3 1198.5748,144 c 0.08,-3.3 -0.4243,-6.86653 -1.1203,-7.92564 -0.9026,-1.37363 -0.4808,-2.60603 1.4713,-4.29905 1.6977,-1.47242 2.4769,-3.36603 2.0527,-4.98824 -0.3992,-1.52664 0.087,-2.91071 1.1689,-3.32578 1.0189,-0.39101 1.8526,-1.79731 1.8526,-3.1251 0,-1.32779 1.2,-3.27908 2.6667,-4.33619 1.4666,-1.05711 2.6666,-2.70442 2.6666,-3.66068 0,-3.19684 6.9103,-4.63542 17.9913,-3.74544 9.6305,0.77347 11.0123,1.24393 14.3334,4.88001 2.0214,2.21322 3.6753,4.59892 3.6753,5.30156 0,2.16996 -6.6181,11.89122 -8.0954,11.89122 -0.7674,0 -1.002,0.63637 -0.5213,1.41416 0.4807,0.77779 -1.3282,3.32778 -4.0199,5.66666 -5.997,5.2111 -5.4635,7.37955 3.0885,12.55255 9.616,5.81667 11.3077,6.62219 16.1332,7.68203 7.2133,1.58432 21.365,12.6846 16.1715,12.6846 -0.684,0 -1.6038,1.13521 -2.0442,2.5227 -1.2536,3.94978 -5.994,4.39668 -11.5769,1.0914 -2.7381,-1.62109 -12.1915,-7.14744 -21.0074,-12.28077 -8.816,-5.13333 -16.7527,-10.68333 -17.6372,-12.33333 -2.3777,-4.43567 -4.2598,-3.66643 -3.2622,1.33333 3.2845,16.46051 4.3514,25.80561 3.1207,27.33333 -1.707,2.11911 -9.016,2.18876 -9.016,0.0859 z M 1224,129.33333 c 0.9113,-2.2 2.1841,-4 2.8284,-4 2.1696,0 1.1944,-3.34428 -1.4581,-5.00084 -4.0961,-2.55802 -8.9382,0.2795 -9.9833,5.85028 -1.0381,5.53364 -0.1645,7.15056 3.8633,7.15056 2.1794,0 3.5822,-1.18132 4.7497,-4 z M 172.32308,166.73361 c -1.97109,-1.64418 -3.30113,-4.63321 -3.85288,-8.6587 -0.46345,-3.38124 -1.35884,-6.46674 -1.98976,-6.85667 -1.94463,-1.20185 -1.26592,-5.88491 0.85289,-5.88491 2.54736,0 2.57474,-4.33316 0.0797,-12.62337 -1.68647,-5.6037 -1.67792,-6.75038 0.0701,-9.41831 2.95081,-4.5035 7.38303,-5.01174 15.90385,-1.82368 5.50288,2.05889 7.92526,2.41967 9.00391,1.34102 2.10943,-2.10944 8.02196,-1.82232 14.31356,0.69508 10.58441,4.23504 3.87157,8.96474 -14.83097,10.44953 -5.34002,0.42395 -9.8529,0.91457 -10.0286,1.09029 -0.17572,0.17572 0.4655,4.21272 1.42494,8.97114 3.30186,16.37581 3.58668,21.3183 1.22856,21.3183 -1.33412,0 -1.83329,0.73971 -1.34966,2 1.14584,2.98603 -7.0729,2.53074 -10.82576,-0.59972 z m 13.04765,-50.2116 c -8.06984,-4.439 -12.0374,-8.38941 -12.0374,-11.98536 0,-2.76562 0.5955,-2.99575 7.66667,-2.96287 4.21667,0.0196 8.86667,0.51912 10.33333,1.11003 1.46667,0.59091 3.69176,1.4004 4.94464,1.79886 2.7813,0.88456 2.30806,7.40688 -0.89174,12.2904 -2.53922,3.87532 -2.51276,3.87598 -10.0155,-0.25106 z"
       id="path280" />
  </g>
</svg>
