<?xml version="1.0" encoding="UTF-8" standalone="no"?>
<!-- Created with Inkscape (http://www.inkscape.org/) -->

<svg
   version="1.1"
   id="svg46"
   width="1637.3333"
   height="1109.3333"
   viewBox="0 0 1637.3333 1109.3333"
   sodipodi:docname="queue1.png"
   xmlns:inkscape="http://www.inkscape.org/namespaces/inkscape"
   xmlns:sodipodi="http://sodipodi.sourceforge.net/DTD/sodipodi-0.dtd"
   xmlns="http://www.w3.org/2000/svg"
   xmlns:svg="http://www.w3.org/2000/svg">
  <defs
     id="defs50" />
  <sodipodi:namedview
     id="namedview48"
     pagecolor="#ffffff"
     bordercolor="#000000"
     borderopacity="0.25"
     inkscape:showpageshadow="2"
     inkscape:pageopacity="0.0"
     inkscape:pagecheckerboard="0"
     inkscape:deskcolor="#d1d1d1"
     showgrid="false" />
  <g
     inkscape:groupmode="layer"
     inkscape:label="Image"
     id="g52">
    <path
       style="fill:#000000;stroke-width:1.33333"
       d="m 1513.8154,1008.6666 c -0.4221,-1.1 -1.6032,-2 -2.6248,-2 -1.0922,0 -1.8573,-1.373 -1.8573,-3.3333 0,-1.8333 0.6,-3.33333 1.3333,-3.33333 0.7334,0 1.3334,-0.87663 1.3334,-1.94805 0,-1.07144 1.2976,-3.15696 2.8836,-4.63451 1.5858,-1.47753 3.0529,-4.27548 3.26,-6.21764 0.3502,-3.28472 2.9454,-10.08523 5.9209,-15.51504 0.6979,-1.27339 1.2688,-4.32339 1.2688,-6.77777 0,-2.4544 0.45,-4.91234 1,-5.46207 0.55,-0.54975 1.1092,-2.29975 1.2427,-3.88889 0.1334,-1.58915 0.6617,-6.58348 1.1738,-11.09852 l 0.9314,-8.20916 -7.5074,-6.98716 c -4.1289,-3.84295 -7.5072,-7.72981 -7.5072,-8.63749 0,-1.73008 -6.3629,-6.60554 -8.6773,-6.64886 -0.7392,-0.0139 -3.5783,-1.40601 -6.3091,-3.09372 -6.6306,-4.09802 -8.1882,-2.8555 -7.2932,5.81787 0.8427,8.16471 3.6491,14.28535 9.2642,20.20512 5.446,5.74148 4.4481,10.58122 -2.4484,11.87502 -6.9219,1.29854 -11.4707,-2.4649 -13.2012,-10.92179 -0.7342,-3.5882 -2.0887,-7.84144 -3.0098,-9.45166 -0.9212,-1.61026 -1.5908,-6.64681 -1.4881,-11.19284 0.1548,-6.84598 -0.2773,-8.63274 -2.5164,-10.40568 -3.84,-3.04049 -5.002,-7.83846 -2.5599,-10.56937 1.1007,-1.23079 2.7408,-6.13779 3.6448,-10.90445 0.9039,-4.76667 2.243,-9.43116 2.9756,-10.36556 0.7327,-0.93439 0.9519,-2.07918 0.4871,-2.54399 -0.4648,-0.4648 -0.1904,-1.63408 0.61,-2.59839 1.576,-1.899 1.9897,-15.86689 0.5996,-20.24662 -0.6171,-1.94442 -0.19,-2.83311 1.5333,-3.1902 2.7087,-0.56127 9.7222,1.70521 9.7222,3.14184 0,0.52017 0.9428,1.88864 2.0952,3.04101 1.1524,1.15239 1.4524,2.09524 0.6666,2.09524 -0.7857,0 -1.4338,2.25 -1.4404,5 0,2.75 -1.1173,11.45723 -2.4685,19.3494 -2.7327,15.96101 -2.5273,16.74691 5.1471,19.70336 2.5666,0.98877 7.6666,4.07775 11.3333,6.86439 3.6667,2.78664 8.4615,6.42028 10.6551,8.07473 2.1937,1.65447 4.7505,4.01929 5.6818,5.25516 1.2394,1.64459 2.9098,2.04968 6.2299,1.51089 4.1611,-0.67526 4.8161,-0.29312 7.9172,4.6193 1.8593,2.94549 4.1316,5.60576 5.0495,5.91169 1.2741,0.42473 1.1392,1.67216 -0.5711,5.27607 -1.2317,2.5959 -3.2073,9.15574 -4.3901,14.57741 -2.3915,10.96237 -4.3506,18.8405 -5.9328,23.8576 -0.5782,1.83333 -1.7866,6.18333 -2.6854,9.66666 -0.8986,3.48334 -2.1288,6.33334 -2.7336,6.33334 -0.6048,0 -1.4929,2.09593 -1.9734,4.65762 -0.8808,4.69514 -9.5327,15.34234 -12.4671,15.34234 -0.8417,0 -1.8757,-0.9 -2.2979,-2 z M 1348,995.05405 c -4.0112,-1.47489 -6.6323,-4.86091 -7.4082,-9.57047 -0.4365,-2.64932 -1.3265,-6.31694 -1.9778,-8.15028 -1.4727,-4.14524 -3.9135,-26.04934 -4.6802,-41.99999 -0.3172,-6.6 -0.9087,-13.5544 -1.3145,-15.45422 -0.4714,-2.20676 -0.01,-4.05852 1.2784,-5.12757 1.442,-1.1968 1.8237,-3.25087 1.3404,-7.21245 -0.9072,-7.43532 2.1543,-11.22162 9.4657,-11.70644 2.9538,-0.19587 5.9538,-0.0213 6.6667,0.38793 0.7128,0.40923 2.8487,1.11397 4.7461,1.56609 5.6107,1.33686 10.3791,5.94606 11.3155,10.93776 0.9631,5.13386 2.474,5.85467 4.4668,2.13106 2.0885,-3.90238 7.8175,-7.01336 14.0371,-7.62242 7.5382,-0.7382 12.154,2.74108 13.397,10.09856 0.4944,2.92658 1.4468,5.65962 2.1163,6.0734 0.6696,0.41379 1.2173,2.69694 1.2173,5.07366 0,2.37672 0.6762,4.99737 1.5024,5.82368 1.842,1.84204 0.5192,7.81488 -1.9397,8.75846 -0.9865,0.37858 -4.4228,-1.39214 -7.6361,-3.93492 -4.766,-3.77144 -6.0959,-4.2826 -7.2178,-2.7744 -0.7565,1.01687 -2.8994,2.8402 -4.7621,4.05186 -4.4985,2.92629 -12.0859,0.98593 -14.6136,-3.73726 -2.3732,-4.43436 -4.7228,-4.2065 -6.8801,0.66722 -0.9739,2.2 -2.4836,4 -3.3552,4 -0.8716,0 -1.9656,1.2 -2.4311,2.66666 -0.7743,2.43947 -2.1121,3.20199 -4.0937,2.33334 -1.9532,-0.85612 -2.751,4.39925 -1.771,11.66666 2.5231,18.71137 3.8328,26.11623 5.0094,28.32199 4.3161,8.0924 0.6265,15.34437 -6.478,12.73209 z m 4.033,-73.14088 c 1.9123,-5.0299 1.5858,-10.85168 -0.657,-11.71232 -2.6198,-1.0053 -2.9768,-0.072 -3.1107,8.13246 -0.1227,7.48944 1.6435,9.16704 3.7677,3.57986 z m 77.3003,24.73361 c -1.8333,-1.44497 -5.8833,-3.88515 -9,-5.42262 -5.0296,-2.48112 -5.6667,-3.31197 -5.6667,-7.39004 0,-2.52705 -0.8977,-5.96472 -1.9949,-7.63928 -2.9319,-4.47471 -2.8151,-8.76149 0.4304,-15.78068 2.8651,-6.19681 5.5645,-9.30036 5.5645,-6.39764 0,0.88703 0.8416,0.66571 2.0451,-0.53783 1.5915,-1.59137 2.8389,-1.7433 5.6229,-0.68478 7.7898,2.96161 8.3023,7.17669 1.4855,12.21652 -2.8104,2.07781 -3.8201,3.94408 -3.8201,7.06048 0,4.75048 4.416,11.2624 7.6376,11.2624 1.1609,0 4.1173,1.53053 6.5698,3.40118 5.5363,4.22268 5.8763,8.59772 0.8496,10.93215 -4.735,2.19908 -5.7785,2.08964 -9.7237,-1.01986 z m 31.4555,0.611 c -1.3832,-1.01148 -2.961,-1.56342 -3.506,-1.22654 -0.5451,0.33688 -2.026,-0.9669 -3.2908,-2.89727 -2.7058,-4.12948 -2.967,-12.68208 -0.718,-23.51494 1.7781,-8.56526 3.8505,-9.59799 9.8269,-4.89699 3.2184,2.53159 3.4623,3.48791 3.4861,13.66667 0.015,6.01953 0.1878,12.1446 0.3859,13.61126 0.2055,1.52052 -0.3353,2.53028 -1.2583,2.34933 -0.8902,-0.17454 -1.2993,0.51478 -0.909,1.5318 1.0482,2.73183 -1.1386,3.48131 -4.0168,1.37668 z m -155.4555,-4.13334 c -1.8333,-1.26327 -3.8131,-3.08307 -4.3996,-4.04399 -1.5462,-2.53361 -3.8541,-2.16142 -8.6814,1.40002 -8.3503,6.16069 -17.0471,0.0299 -15.7884,-11.13012 1.7606,-15.61114 4.9815,-20.86128 11.944,-19.4688 3.0247,0.60494 4.797,0.118 6.9575,-1.91174 2.2847,-2.14632 3.5889,-2.46112 6.1549,-1.48554 4.9885,1.89664 6.1138,4.12588 6.7546,13.38068 0.4615,6.66686 1.2155,9.03769 3.4497,10.84685 1.9803,1.60352 2.9744,4.10421 3.234,8.13503 0.3435,5.33589 0.098,5.85118 -2.9586,6.19714 -1.8334,0.20752 -4.8334,-0.65627 -6.6667,-1.91953 z m -53.6816,-1.79113 c -2.7365,-1.46667 -5.7276,-2.68291 -6.6469,-2.70275 -2.3927,-0.0516 -11.0253,-8.37801 -15.1533,-14.61575 -3.2055,-4.84385 -3.3904,-5.81625 -2.0846,-10.96098 1.0814,-4.26031 1.0405,-5.89512 -0.1669,-6.66263 -1.1215,-0.71287 -0.9662,-1.02316 0.5193,-1.03748 1.9886,-0.0192 5.214,-5.10192 5.214,-8.21648 0,-1.79908 8.6315,-10.4706 10.4222,-10.4706 0.7456,0 1.5556,-0.59859 1.8,-1.33019 0.2445,-0.7316 2.9903,-1.4298 6.1018,-1.55154 4.7404,-0.18548 6.199,0.40836 8.9984,3.66352 3.5132,4.08509 4.2917,9.62329 1.964,13.97253 -2.0364,3.80516 -6.1341,3.14587 -8.8318,-1.42099 -1.2996,-2.2 -2.7213,-4 -3.1593,-4 -0.438,0 -2.4725,1.74946 -4.521,3.88767 -2.4996,2.60904 -4.2679,6.49081 -5.3763,11.80251 -1.609,7.71044 -1.5623,8.01904 1.8085,11.95018 3.0528,3.56023 5.3679,5.07471 15.1087,9.88336 1.2734,0.62863 3.1795,1.14295 4.2357,1.14295 2.0292,0 6.3592,7.31213 5.0847,8.58658 -1.6933,1.69332 -10.6765,0.56732 -15.3172,-1.91991 z m -997.3184,-39 c -1.75991,-3.11667 -3.90487,-5.51667 -4.76657,-5.33334 -0.86171,0.18334 -1.56674,-0.44174 -1.56674,-1.38905 0,-2.35784 -10.3553,-12.16245 -15.66666,-14.83353 -4.08209,-2.05288 -5.10133,-3.65484 -4.31213,-6.77742 0.18534,-0.73333 0.28494,-8.7011 0.22133,-17.70614 -0.0747,-10.56255 0.35572,-16.0815 1.21264,-15.55188 1.85775,1.14814 5.21149,-1.92294 5.21149,-4.77224 0,-3.45118 11.22345,-5.97791 18.17308,-4.09131 11.71592,3.18051 17.45456,19.82145 6.82692,19.79676 -2.87808,-0.007 -3.66667,-0.63476 -3.66667,-2.92035 0,-1.6015 -0.85096,-4.07558 -1.89104,-5.49797 -1.85989,-2.54356 -1.95781,-2.53677 -5.946,0.41183 -2.23024,1.64888 -4.60629,2.99797 -5.28011,2.99797 -0.67383,0 -1.84528,2.44317 -2.60324,5.42928 -1.15058,4.53292 -0.94114,6.41712 1.2686,11.41257 2.87728,6.50458 2.97656,6.5702 11.78513,7.78987 6.987,0.96744 11.8452,4.47904 12.32694,8.91016 0.31528,2.90001 -0.0679,3.09256 -5.32694,2.6768 -3.19103,-0.25227 -5.66667,0.13511 -5.66667,0.88668 0,0.73408 2.7,3.71131 6,6.61608 5.04984,4.44505 6,6.05183 6,10.14632 0,3.99532 -0.61135,5.09735 -3.42013,6.16524 -5.10342,1.94032 -5.44708,1.77196 -8.91323,-4.36633 z m 447.45298,3.33333 c -1.26279,-0.91667 -3.40012,-1.66667 -4.74964,-1.66667 -1.34952,0 -2.81228,-0.93448 -3.25056,-2.07662 -0.43828,-1.14215 -1.61945,-1.76098 -2.62481,-1.37519 -1.06827,0.40993 -1.82795,-0.16533 -1.82795,-1.3842 0,-1.14712 -1.26137,-3.85709 -2.80304,-6.02217 -2.12576,-2.98535 -2.5964,-5.03804 -1.94783,-8.49528 0.6945,-3.70194 0.34423,-4.8779 -1.86361,-6.25671 -1.49537,-0.93388 -2.71885,-2.38943 -2.71885,-3.23457 0,-1.93247 -3.10542,-3.15526 -8.01311,-3.15526 -3.61129,0 -3.84048,0.3639 -4.73417,7.5168 -0.76852,6.15107 -0.44471,8.53455 1.78228,13.11835 3.46652,7.13513 2.25453,9.64497 -3.81668,7.90377 -5.17491,-1.48414 -9.01018,-7.54133 -9.39783,-14.84237 -0.14688,-2.76644 -0.81683,-6.13432 -1.48876,-7.48419 -0.79781,-1.60274 -0.62893,-3.88537 0.48673,-6.57884 1.24674,-3.00986 1.29943,-4.26089 0.19499,-4.62904 -3.0286,-1.00953 3.41936,-5.3955 8.85519,-6.02341 6.4165,-0.74117 17.93426,1.14305 18.5758,3.03887 0.78378,2.31617 7.84476,1.49468 8.76656,-1.01994 0.47044,-1.28333 1.79748,-4.03405 2.94896,-6.11272 1.74773,-3.15502 2.6784,-3.6343 5.63349,-2.90116 6.75521,1.67594 10.20716,4.06824 12.31665,8.53583 3.5931,7.6096 -0.10533,16.82905 -8.0755,20.13039 -7.15536,2.96385 -4.6692,11.673 3.93381,13.78037 2.14775,0.52611 5.80453,-0.37523 10.46263,-2.57885 5.62934,-2.66311 7.02092,-3.92287 6.50646,-5.89015 -0.35993,-1.37639 -0.2681,-2.68128 0.20404,-2.89977 0.47215,-0.2185 2.17583,-2.82092 3.78596,-5.78315 2.60483,-4.79224 2.69718,-5.53117 0.83779,-6.70404 -1.75188,-1.10505 -1.59788,-1.35521 0.95252,-1.54733 1.67324,-0.126 3.39624,-0.77835 3.82888,-1.44958 2.7811,-4.31472 15.4544,-3.16609 17.62478,1.59739 0.76016,1.66836 3.37546,3.75419 5.81179,4.63517 4.52352,1.63574 7.99323,5.6191 8.8728,10.18636 0.43176,2.24195 1.00553,2.0047 4.69241,-1.94025 2.31028,-2.47199 3.90562,-5.263 3.5452,-6.20225 -0.38582,-1.00542 0.35122,-1.70882 1.79218,-1.71039 2.72965,-0.003 9.38148,-1.30276 12.44748,-2.43227 5.8755,-2.16453 10.56858,-1.62113 15.84721,1.8349 3.01737,1.97552 5.48612,4.02108 5.48612,4.54569 0,1.222 -3.50708,2.57248 -6.68048,2.57248 -1.35431,0 -3.40063,0.93825 -4.54739,2.08501 -1.14676,1.14675 -2.66202,1.7284 -3.36725,1.29254 -0.70524,-0.43586 -2.83603,-0.4025 -4.73508,0.0741 -3.6968,0.92783 -10.00313,11.35963 -10.00313,16.54695 0,2.77488 -4.86903,5.6929 -7.19522,4.31213 -0.65737,-0.3902 -4.42018,-0.60407 -8.36181,-0.47527 -5.27339,0.17232 -7.36772,-0.28994 -7.92796,-1.7499 -1.39764,-3.64222 -5.43457,-3.7115 -8.99173,-0.15434 -2.98472,2.98472 -4.10759,3.2758 -9.78088,2.53554 -3.52499,-0.45996 -7.30907,-1.27267 -8.40907,-1.80602 -2.56873,-1.24549 -13.30282,-0.34594 -15.26061,1.27887 -2.05299,1.70381 -10.81048,1.09963 -13.61976,-0.93965 z m 44.1381,-17.96335 c 2.78534,-3.97661 2.61686,-6.36998 -0.44841,-6.36998 -2.64209,0 -4.14265,2.4543 -4.14265,6.77572 0,3.41584 2.04064,3.2355 4.59106,-0.40574 z m 710.23382,16.04356 c -2.7341,-2.79645 -4.1582,-5.58589 -4.1582,-8.14454 0,-3.57595 0.2961,-3.8171 3.6533,-2.9745 2.0093,0.50431 4.0104,1.4948 4.4469,2.2011 0.4366,0.7063 2.5426,1.75188 4.68,2.3235 4.9374,1.32039 5.6518,4.84271 1.6576,8.17152 -4.2368,3.53092 -5.4708,3.3416 -10.2796,-1.57708 z M 319.33333,901.15701 c -6.74507,-3.36196 -10.52503,-14.78496 -7.39387,-22.34424 1.18027,-2.84941 1.22808,-4.63122 0.17697,-6.59524 -1.61701,-3.02141 -0.82462,-6.31544 1.6076,-6.68294 12.89552,-1.94848 12.31432,-2.06132 16.68328,3.23897 2.27408,2.75885 3.82798,5.51236 3.45311,6.11892 -0.37487,0.60655 0.25317,2.43737 1.39567,4.06849 2.41041,3.44135 2.69726,10.86247 0.64718,16.74332 -2.03936,5.85011 -10.31136,8.57219 -16.56994,5.45272 z m -40.33626,-3.43173 c -4.63844,-0.89312 -6.05221,-4.99615 -5.13622,-14.90635 0.44832,-4.85042 0.83478,-10.01896 0.85884,-11.48562 0.024,-1.46667 0.64116,-4.90215 1.37137,-7.63439 l 1.32767,-4.96772 6.29062,0.67268 c 9.00952,0.96343 12.29064,2.95567 12.29064,7.46267 0,2.87272 -0.76814,3.94208 -3.28556,4.5739 -4.01102,1.00671 -4.96696,3.75588 -5.25396,15.10995 -0.12213,4.8306 -0.68606,9.53291 -1.25326,10.44957 -1.04418,1.68754 -1.81178,1.76475 -7.21014,0.72531 z m 133.62329,-0.30221 c -1.49212,-0.61864 -3.56582,-2.15244 -4.60822,-3.40846 -1.93055,-2.32617 -2.21968,-3.34609 -3.13473,-11.05781 -0.28563,-2.40708 -0.74988,-4.56927 -1.0317,-4.80488 -0.28181,-0.2356 -3.36238,-2.07319 -6.84572,-4.08352 -4.78672,-2.76256 -6.33333,-4.43821 -6.33333,-6.86179 0,-2.9174 1.78527,-3.97738 5.66667,-3.36453 0.55,0.0868 1,-0.74211 1,-1.84211 0,-1.1 0.52629,-2 1.16954,-2 1.47922,0 0.18039,-12.51106 -1.36112,-13.1111 -0.62797,-0.24446 -1.14176,-1.54842 -1.14176,-2.89771 0,-1.34929 -1.49473,-4.22964 -3.32162,-6.40079 -1.82691,-2.17114 -3.47691,-5.36717 -3.66667,-7.1023 -0.28965,-2.64831 0.32403,-3.21985 3.82265,-3.56021 3.48718,-0.33926 4.95676,0.51636 9,5.23999 2.65778,3.105 4.83231,6.66399 4.83231,7.90886 0,1.24488 0.83588,2.95713 1.85752,3.80501 1.02162,0.84788 2.59373,5.44343 3.49356,10.21232 1.50681,7.9858 1.99201,8.81944 6.14248,10.55361 5.54521,2.31695 5.68537,4.00752 0.55232,6.66194 -4.14284,2.14233 -4.25782,4.41012 -0.44931,8.8623 1.04128,1.21727 1.9778,5.61274 2.13067,10 0.24221,6.95128 -0.026,7.85876 -2.39391,8.10203 -1.46667,0.15067 -3.88749,-0.23221 -5.37963,-0.85085 z m -56.36597,-1.32524 c -1.13328,-0.75938 -4.2544,-14.51916 -4.2544,-18.75598 0,-1.71802 0.92754,-2.07722 4.14462,-1.60506 3.66157,0.5374 4.04532,0.29544 3.29261,-2.07616 -2.28855,-7.21058 16.93609,-3.0879 20.32939,4.35958 0.76698,1.68334 3.28714,4.16742 5.60037,5.52019 3.81512,2.23107 4.14321,2.93432 3.53155,7.56969 -0.37088,2.81056 -1.02091,5.4567 -1.4445,5.8803 -1.34893,1.34893 -10.92737,-2.19848 -13.44362,-4.9789 -3.21908,-3.55705 -5.8085,-3.38288 -7.28086,0.48975 -1.17981,3.10312 -7.81282,5.38055 -10.47516,3.59659 z M 1348.846,811.66664 c -2.3262,-3.70766 -4.7614,-11.24556 -5.5524,-17.18641 -0.328,-2.46413 -1.2531,-8.08025 -2.0558,-12.48025 -1.0402,-5.70351 -1.0537,-10.48788 -0.047,-16.66667 0.7768,-4.76667 1.7572,-12.42376 2.1786,-17.01576 0.6671,-7.26975 0.4558,-8.44581 -1.6352,-9.09732 -1.3208,-0.41153 -3.4432,-1.30445 -4.7165,-1.98425 -1.2735,-0.6798 -3.6899,-1.236 -5.37,-1.236 -4.4013,0 -8.9815,-3.65971 -8.9815,-7.17652 0,-1.66392 1.4815,-4.41712 3.2923,-6.11822 1.8107,-1.70109 2.9796,-3.59879 2.5974,-4.21714 -0.3822,-0.61833 0.1527,-0.799 1.1886,-0.40149 1.2265,0.47065 2.7435,-1.04619 4.3491,-4.3486 1.356,-2.78926 2.3396,-5.52136 2.1857,-6.07136 -0.1539,-0.55 0.4703,-0.85 1.3869,-0.66667 1.0034,0.20068 1.6506,-1.06456 1.6262,-3.17915 -0.024,-2.12377 0.5693,-3.27842 1.5021,-2.92048 0.8485,0.32562 1.9281,-0.94377 2.3993,-2.82085 0.4711,-1.87707 1.7338,-3.41285 2.8058,-3.41285 1.072,0 2.3105,-1.43959 2.7521,-3.1991 1.3936,-5.55269 6.5387,-5.24237 11.9247,0.71923 2.561,2.83481 4.6565,5.75249 4.6565,6.48371 0,0.73122 0.9119,1.32949 2.0265,1.32949 2.402,0 11.2788,5.41987 13.7463,8.39289 2.7108,3.26638 2.2443,9.36072 -1.1835,15.45955 -2.513,4.4715 -4.8768,6.39649 -11.8638,9.66157 -4.7991,2.24263 -9.5234,4.47035 -10.4984,4.95049 -1.0087,0.49668 -1.9823,3.7458 -2.2587,7.53758 -0.2671,3.66552 -1.0744,10.41976 -1.794,15.00941 -1.436,9.15835 -0.756,32.00008 1.1407,38.32184 1.2205,4.06792 1.7653,8.79213 1.4992,13 -0.2127,3.36163 -5.0515,2.91981 -7.3016,-0.66667 z m 12.9634,-89.66666 c 1.1,-1.1 2.6783,-2 3.5074,-2 0.8289,0 1.1364,-0.6 0.6832,-1.33333 -0.4532,-0.73334 -0.1887,-1.33334 0.588,-1.33334 2.3928,0 1.5658,-2.78106 -1.588,-5.3401 -2.8306,-2.29676 -3.1206,-2.3052 -5.1344,-0.14964 -3.1111,3.32996 -4.5787,12.15641 -2.0212,12.15641 1.0808,0 2.865,-0.9 3.965,-2 z M 294.78159,800.33331 c -2.18686,-1.7922 -3.0366,-4.39617 -3.66404,-11.22821 -0.44928,-4.89219 -0.3618,-9.99219 0.19439,-11.33334 1.35599,-3.26969 0.81012,-16.78144 -0.74221,-18.37178 -0.68003,-0.69667 -1.2364,-2.91126 -1.2364,-4.92131 0,-2.01005 -0.51435,-3.97253 -1.143,-4.36107 -0.62866,-0.38852 -1.50791,-3.78745 -1.9539,-7.55318 -0.446,-3.76572 -1.47874,-7.65148 -2.29501,-8.63502 -0.81625,-0.98353 -1.287,-3.44589 -1.04609,-5.47193 0.43646,-3.67077 0.40542,-3.68551 -8.85366,-4.20285 -7.29774,-0.40778 -9.80132,-1.10683 -11.66666,-3.25759 -2.85555,-3.29246 -3.12023,-10.71872 -0.46072,-12.92592 1.05286,-0.8738 2.32746,-3.49726 2.83245,-5.82993 0.50499,-2.33265 2.02583,-5.80893 3.37964,-7.72504 1.35383,-1.91611 2.07923,-3.86611 1.612,-4.33333 -0.46723,-0.46723 -0.14949,-0.8495 0.70605,-0.8495 0.85556,0 1.55556,-1.87346 1.55556,-4.16325 0,-3.49384 0.3122,-3.90417 1.9416,-2.55188 2.16463,1.79648 4.72507,0.80832 4.72507,-1.82357 0,-2.76438 4.59092,-6.12796 8.36397,-6.12796 1.91803,0 5.10547,1.39186 7.08319,3.09304 3.03627,2.61168 3.61847,4.21978 3.74103,10.33333 0.17213,8.58648 1.20981,10.57363 5.5215,10.57363 3.62403,0 15.29031,5.28928 15.29031,6.93236 0,0.5872 0.9,1.06764 2,1.06764 2.11347,0 2.62339,2.42924 0.97959,4.66666 -1.73186,2.35727 -11.49458,7.07768 -16.59875,8.02574 -7.08433,1.31585 -8.19495,3.24833 -7.06751,12.29751 0.52606,4.22222 1.46038,8.6212 2.07628,9.77554 0.61591,1.15432 1.42232,4.60842 1.79204,7.67577 0.36972,3.06733 1.12335,6.30692 1.67472,7.19905 0.55138,0.89215 1.0879,9.73804 1.19226,19.65756 0.1044,9.91952 0.66113,19.9855 1.23724,22.36883 1.03108,4.26555 0.97416,4.33333 -3.63816,4.33333 -2.57708,0 -5.96684,-1.05 -7.53278,-2.33333 z m -12.11493,-92.33333 c 0,-2.59892 -1.41423,-3.47467 -3.01924,-1.86964 -1.06816,1.06815 0.32984,4.53631 1.82856,4.53631 0.65487,0 1.19068,-1.2 1.19068,-2.66667 z m 464.0767,89.44106 c -2.97387,-4.17641 -5.41004,-14.54924 -5.41004,-23.03508 0,-3.14716 -0.531,-4.90185 -1.33334,-4.40598 -0.73333,0.45322 -1.33333,-0.0673 -1.33333,-1.15688 0,-1.08951 0.93001,-2.17492 2.06669,-2.41203 1.71043,-0.35679 2.18048,-3.68636 2.72683,-19.31523 0.43319,-12.392 0.18107,-19.18021 -0.73336,-19.74536 -0.76643,-0.47366 -1.39349,-2.02581 -1.39349,-3.4492 0,-1.42338 -0.62631,-2.58797 -1.39179,-2.58797 -0.76548,0 -1.26231,-0.75 -1.10407,-1.66666 0.15824,-0.91667 -0.17597,-5.04767 -0.74269,-9.18 -0.80597,-5.87687 -1.69944,-7.87139 -4.10212,-9.15726 -1.68945,-0.90417 -3.72893,-1.23776 -4.5322,-0.74132 -0.80325,0.49644 -1.46046,0.2295 -1.46046,-0.59321 0,-0.82271 -1.05,-1.38903 -2.33334,-1.25848 -4.53136,0.46093 -6.73486,-0.0948 -9.52901,-2.40307 -2.58411,-2.13478 -2.66332,-2.63918 -0.93095,-5.92774 1.1907,-2.26026 1.38627,-3.76348 0.52691,-4.04994 -0.75164,-0.25054 1.52287,-2.82324 5.05443,-5.71709 3.53157,-2.89385 5.90629,-4.42868 5.27716,-3.41072 -0.79132,1.28039 -0.65272,1.54729 0.44969,0.86596 0.87647,-0.54168 1.23549,-2.11313 0.79783,-3.49209 -0.76968,-2.42502 2.01314,-7.45386 7.89572,-14.26838 2.59186,-3.00248 8.79155,-4.17778 8.79155,-1.66666 0,0.73333 0.80702,1.33333 1.79335,1.33333 0.98635,0 2.82065,1.13515 4.07624,2.52256 1.41721,1.566 5.00871,2.86313 9.47121,3.42068 12.40212,1.54955 18.65171,9.37368 14.81738,18.55052 -1.11216,2.66176 -2.55134,4.83957 -3.19816,4.83957 -0.64684,0 -2.00092,1.54126 -3.00907,3.425 -1.82349,3.40722 -11.09637,8.575 -15.38669,8.575 -2.53362,0 -2.3369,2.6949 1.41128,19.33334 2.41914,10.73882 2.78901,33.36419 0.74864,45.79554 -0.76391,4.65421 -1.04639,9.01644 -0.62774,9.69383 0.41864,0.67738 1.03663,4.04438 1.37328,7.48221 0.33666,3.43783 1.46306,7.95637 2.50311,10.04121 2.60145,5.21474 1.31887,7.65387 -4.02468,7.65387 -3.37671,0 -5.09373,-0.9276 -7.20477,-3.89227 z M 758.6147,683.74857 c 3.58415,-3.84714 3.43464,-4.53319 -0.94805,-4.35034 -2.93057,0.12227 -3.75136,0.86722 -4.08856,3.71071 -0.51205,4.31793 1.38528,4.55888 5.03661,0.63963 z M 207.98538,636.99998 c -1.45314,-2.38333 -2.69024,-5.23333 -2.74908,-6.33333 -0.0588,-1.1 -0.46561,-3.2 -0.9039,-4.66667 -0.43831,-1.46667 -0.85734,-13.16667 -0.93119,-26 -0.0739,-12.83333 -0.60473,-24.08333 -1.17976,-25 -0.69181,-1.10284 -0.22952,-1.67357 1.36652,-1.68708 1.75689,-0.0149 1.94707,-0.31544 0.7002,-1.1066 -0.94368,-0.59878 -1.3284,-2.08538 -0.85735,-3.31292 0.50903,-1.3265 0.2001,-2.22673 -0.76416,-2.22673 -1.0288,0 -1.25884,-0.85028 -0.63129,-2.33333 0.54304,-1.28334 0.9454,-3.37152 0.89416,-4.64042 -0.0512,-1.26889 0.46864,-2.6543 1.15531,-3.07869 1.83525,-1.13424 1.52093,-6.94813 -0.41818,-7.73495 -1.29693,-0.52624 -1.26638,-0.95696 0.13767,-1.94154 1.43883,-1.00898 1.48163,-1.86823 0.21128,-4.2419 -2.58261,-4.82565 -0.65788,-11.09392 4.04581,-13.17597 2.23456,-0.98911 5.38488,-1.41873 7.00071,-0.95469 15.54528,4.46424 18.46855,4.93089 20.47217,3.26802 2.42504,-2.0126 49.88325,-3.18764 51.07181,-1.2645 0.42071,0.68073 3.30748,0.72332 6.7208,0.0992 3.29083,-0.60178 6.35499,-0.86444 6.80923,-0.58371 3.6974,2.28513 43.60243,3.01421 45.13192,0.82459 0.40256,-0.57631 4.2666,-1.11967 8.58675,-1.20747 5.75973,-0.11707 9.7627,0.71304 15.00789,3.11224 6.03325,2.75967 7.62149,3.01779 10.14519,1.64879 1.9727,-1.07012 11.62306,-1.75142 28.32544,-1.9997 13.93333,-0.20712 30.13333,-0.73406 35.99999,-1.17098 14.55956,-1.08432 13.92918,-1.08271 20.66667,-0.0531 12.32041,1.88297 45.45539,1.93339 50.71647,0.0772 2.77334,-0.97849 5.43802,-1.38348 5.92152,-0.89999 0.9986,0.9986 7.7255,1.88566 12.69534,1.67408 16.29086,-0.69349 26.47371,-1.74725 28.94612,-2.99545 1.85606,-0.93701 6.31819,-1.17395 12.05968,-0.64033 6.98484,0.64917 9.77688,0.38241 11.95337,-1.14207 2.17628,-1.52432 3.68331,-1.66839 6.44976,-0.61659 1.98548,0.75487 4.63874,1.04598 5.89612,0.6469 1.2574,-0.39908 5.52815,0.11586 9.49056,1.14438 4.86214,1.26203 7.74228,1.43711 8.85884,0.53852 1.70062,-1.36861 7.05207,-0.89993 11.56427,1.0128 1.80751,0.7662 2.2708,0.62672 1.58799,-0.47809 -0.53026,-0.85799 -0.27331,-1.55995 0.57096,-1.55995 0.84428,0 3.029,-1.17513 4.85493,-2.61141 3.36525,-2.64711 9.79188,-2.55731 13.3018,0.18585 1.32751,1.03751 15.26045,1.31054 46.4656,0.91052 7.73884,-0.0992 22.66667,0.89282 22.66667,1.5063 0,0.54828 9.26453,1.60492 13.33333,1.52072 39.99748,-0.82779 65.82945,-0.13582 87.8289,2.35273 7.3351,0.82973 14.25326,0.87829 18.21042,0.12787 3.50984,-0.66563 8.11544,-0.71295 10.23466,-0.1052 2.11924,0.60778 6.6196,0.68522 10.00083,0.17208 3.83645,-0.58223 9.82773,-0.19022 15.93643,1.04272 10.76853,2.17344 19.02412,2.39176 43.33489,1.14604 13.00601,-0.66646 17.0071,-0.43452 20.2287,1.17264 4.34163,2.16588 4.72503,2.19408 25.5585,1.87982 7.7,-0.11613 14.6,-0.11946 15.33333,-0.008 0.73333,0.11214 6.58333,0.19443 13,0.18295 6.41667,-0.012 11.66662,0.51128 11.66662,1.16172 0,0.65043 3.45,0.89457 7.6667,0.54253 4.2167,-0.35204 13.6667,-0.11333 21,0.53046 7.3333,0.64378 16.8866,0.7792 21.2294,0.30092 4.3429,-0.47828 11.1926,-0.35264 15.2217,0.27918 5.1826,0.81271 7.6021,0.7015 8.2706,-0.38017 0.6015,-0.97321 1.2432,-1.04641 1.7655,-0.20137 0.4512,0.73016 8.1762,1.72701 17.1666,2.21522 15.6597,0.85036 29.5141,2.7869 32.3462,4.52122 0.7333,0.44909 7.5177,0.62388 15.0763,0.38844 7.7679,-0.24198 15.3039,0.19462 17.3333,1.00422 5.4165,2.16082 23.7069,4.36856 34.5147,4.16611 5.4581,-0.10227 10.9162,0.53467 12.6666,1.47808 4.1374,2.22992 7.1381,2.36328 25.1926,1.1196 9.4812,-0.65311 19.0109,-0.53857 24.6667,0.29647 19.7771,2.91994 56.2172,2.31008 55.6592,-0.93152 -0.1302,-0.75656 2.6588,-1.10042 6.6667,-0.82191 3.7898,0.26335 9.8906,0.41559 13.5572,0.33829 24.5556,-0.51757 23.5238,-0.6513 27.4586,3.55891 5.2033,5.56751 7.6046,18.72655 8.7197,47.78192 0.5908,15.39849 0.1187,16.30333 -9.126,17.47058 -3.1455,0.39718 -6.6189,1.48991 -7.7189,2.42832 -2.5111,2.14223 -13.4795,3.83299 -17.2016,2.65163 -1.5392,-0.48849 -2.7793,-1.89773 -2.756,-3.13165 0.054,-2.88031 3.2705,-7.15274 4.4765,-5.94679 0.5071,0.50705 2.3399,-0.72823 4.0728,-2.74508 2.3319,-2.71368 3.9644,-3.47523 6.2796,-2.92936 3.2133,0.75757 7.7083,-1.15377 6.218,-2.64401 -0.4584,-0.45837 -0.093,-2.25908 0.8103,-4.00157 1.9092,-3.6801 1.5256,-21.15742 -0.6436,-29.31676 -1.4942,-5.61991 -5.8719,-8.94654 -10.2627,-7.79834 -1.286,0.33631 -5.7528,0.076 -9.9262,-0.57844 -7.2797,-1.14156 -11.8935,-0.78401 -29.9196,2.31864 -5.8999,1.01548 -11.8574,0.97827 -21.3334,-0.13333 -7.2311,-0.84823 -16.4964,-1.65277 -20.5895,-1.78787 -4.0932,-0.1351 -7.9932,-0.51546 -8.6667,-0.84525 -0.6735,-0.32979 -4.5246,-0.40724 -8.5579,-0.17211 -19.153,1.11658 -34.3873,0.58436 -49.6479,-1.73448 -7.527,-1.14372 -19.6109,-2.31872 -26.8532,-2.6111 -7.2422,-0.29238 -16.2422,-1.11368 -20,-1.82512 -3.7577,-0.71146 -8.9323,-1.24752 -11.4989,-1.1913 -2.5667,0.0563 -8.2667,-0.61954 -12.6667,-1.50172 -4.4,-0.88217 -13.1,-1.73801 -19.3333,-1.90185 -6.2334,-0.16385 -12.1001,-0.7786 -13.0372,-1.36612 -0.9371,-0.58751 -5.1371,-1.27737 -9.3333,-1.53301 -4.1962,-0.25495 -13.6295,-0.82099 -20.9629,-1.25716 -7.3333,-0.43618 -14.3833,-1.12171 -15.6666,-1.52339 -1.2834,-0.40169 -2.3334,-0.12827 -2.3334,0.60768 0,1.30939 -19.54,1.10456 -51.99995,-0.54507 -7.7,-0.39132 -22.71995,-0.8736 -33.37767,-1.07173 -10.65772,-0.19813 -20.02429,-0.75988 -20.8146,-1.24833 -2.68671,-1.66047 -15.76613,-2.61192 -30.4744,-2.21683 -20.49802,0.5506 -20.52852,0.54931 -41.33333,-1.75228 -10.26667,-1.13577 -18.99395,-1.86376 -19.39396,-1.61775 -1.3784,0.84775 -15.28761,2.16944 -21.93937,2.08476 -3.66667,-0.0467 -10.26667,-0.72453 -14.66667,-1.50633 -4.4,-0.78179 -24.2,-1.69012 -44,-2.01851 -19.8,-0.32837 -41.7,-1.1875 -48.66666,-1.90917 -6.96667,-0.72167 -19.56667,-1.27572 -28,-1.23123 -8.43334,0.0445 -23.73334,-0.0107 -34,-0.122 -10.26667,-0.1116 -22.86667,0.38594 -28,1.10566 -5.86806,0.82274 -12.05606,0.85024 -16.66667,0.074 -4.03333,-0.67902 -10.63333,-1.35858 -14.66667,-1.51014 -8.20864,-0.30848 -64.6255,3.66427 -83.70234,5.89414 -14.23699,1.66413 -36.88109,1.75277 -45.63099,0.17861 -3.3,-0.59369 -12.9,-0.77944 -21.33333,-0.41277 -21.48959,0.93433 -80.95882,0.46061 -87.12184,-0.69399 -2.98074,-0.55843 -6.325,-0.36867 -8,0.45392 -2.51638,1.2358 -12.30954,2.98655 -18.21149,3.25573 -1.1,0.0501 -7.7,-0.90022 -14.66667,-2.11198 -9.62338,-1.67386 -15.70994,-1.95366 -25.33333,-1.16455 -6.96667,0.57125 -17.76667,0.53741 -24,-0.0752 -11.9228,-1.17179 -17.02335,-1.33563 -33.33333,-1.07075 -15.87676,0.25786 -16.87183,0.65212 -17.90175,7.09288 -0.76228,4.76706 -0.46677,5.8607 2.10855,7.80327 2.51108,1.89411 2.71783,2.59328 1.27936,4.32652 -0.94365,1.13704 -1.3816,2.60797 -0.97321,3.26876 0.4084,0.66079 0.13733,4.73708 -0.60236,9.05841 -1.86986,10.92396 -3.50963,44.59236 -2.27075,46.624 1.22204,2.004 1.54843,15.7004 0.43449,18.23297 -1.57362,3.5777 -4.50272,2.78843 -7.42228,-2 z m 13.16984,-143.22254 c -3.33034,-0.88663 -6.24657,-10.48585 -7.22353,-23.77745 -0.48511,-6.6 -1.15361,-12.45 -1.48555,-13 -0.33193,-0.55 0.0337,-1 0.81272,-1 0.87558,0 1.17703,-2.16334 0.78964,-5.66667 -1.71462,-15.50633 -1.96414,-34.08319 -0.55777,-41.52707 0.8458,-4.47677 1.44388,-10.2396 1.32908,-12.80626 -1.04233,-23.30257 -0.99896,-44.44789 0.102,-49.74481 1.28556,-6.18492 1.43416,-6.34371 4.2054,-4.49371 2.342,1.56344 2.87611,3.24068 2.89087,9.07813 0.009,3.93822 0.3894,7.76039 0.8432,8.49372 2.0744,3.35215 2.80821,12.08954 2.46356,29.33333 -0.98036,49.05158 0.0652,82.18858 2.69322,85.35514 2.17528,2.62105 3.78916,2.5033 11.31448,-0.8255 5.31416,-2.3507 9.22716,-2.83542 24.21855,-3 10.15934,-0.1116 18.29093,-0.77205 18.83125,-1.52964 1.24095,-1.73992 1.82708,-1.78934 32.28429,-2.72253 28.91026,-0.88579 26.92308,-0.85924 38.17368,-0.50989 4.49554,0.1396 8.83747,-0.15643 9.64876,-0.65783 0.81128,-0.50141 3.73314,-0.28457 6.49298,0.48187 7.19142,1.99712 8.34988,1.77662 8.36245,-1.59162 0.0133,-3.57209 -3.89084,-20.74994 -5.41581,-23.82889 -0.58902,-1.18923 -0.51434,-2.71883 0.16594,-3.39911 0.6803,-0.68029 1.28868,-3.60729 1.35196,-6.50445 0.11227,-5.13645 -1.09265,-27.17625 -1.61033,-29.45696 -0.14281,-0.62916 0.20273,-2.20156 0.76787,-3.49423 0.56513,-1.29268 0.4125,-3.09268 -0.33916,-4 -2.0626,-2.48976 -4.5926,-22.62318 -2.96895,-23.62665 0.87144,-0.53857 0.89863,-2.35301 0.0781,-5.21393 -0.69213,-2.41333 -0.92402,-6.05989 -0.51532,-8.10345 0.4309,-2.15446 0.0929,-4.1174 -0.80433,-4.67195 -1.09136,-0.67449 -0.86683,-1.45405 0.76181,-2.64495 2.16628,-1.58402 2.13938,-1.83402 -0.43458,-4.03792 -3.55744,-3.04598 -16.14494,-7.4794 -17.05499,-6.0069 -1.02127,1.65245 -15.24487,0.37669 -31.32677,-2.80982 -12.14695,-2.40681 -35.14111,-3.38082 -52.66667,-2.23089 -0.73333,0.0481 -6.16661,-0.35253 -12.07396,-0.89035 -8.99512,-0.81893 -11.02598,-0.63398 -12.49658,1.13798 -0.96579,1.16369 -3.22195,2.11581 -5.01371,2.11581 -1.79175,0 -4.33264,0.57528 -5.64644,1.2784 -2.87853,1.54055 -11.66853,-0.56495 -15.10264,-3.61757 -3.02485,-2.68883 -2.95035,-5.04382 0.26121,-8.25538 2.00747,-2.00746 3.70144,-2.41492 7.48644,-1.80069 4.50319,0.73077 4.8217,0.57265 4.00836,-1.98991 -0.87126,-2.74512 -0.807,-2.75369 4.6305,-0.61778 4.12041,1.61854 6.41116,1.83009 9.06374,0.83702 1.95236,-0.73092 8.19975,-1.14034 13.88308,-0.90984 5.68333,0.23051 10.3342,-0.0332 10.33525,-0.5859 0.003,-1.63875 42.83159,-0.95767 47.96751,0.7628 2.54985,0.85417 5.73513,1.20421 7.07839,0.77788 1.34325,-0.42634 4.54604,0.22314 7.1173,1.44329 3.34319,1.58644 7.78408,2.15356 15.5883,1.99067 11.7445,-0.24512 19.85389,0.6929 23.67654,2.73872 1.3171,0.70489 3.87202,1.28162 5.6776,1.28162 4.78854,0 11.92248,8.479 11.05018,13.13363 -2.71363,14.47996 -2.96582,30.46033 -0.65544,41.53304 0.68856,3.3 1.20116,10.02857 1.1391,14.95238 -0.062,4.92382 0.72371,11.52382 1.74612,14.66667 1.42879,4.39203 1.61186,9.0752 0.79118,20.23892 -0.6222,8.46391 -0.56102,15.47148 0.14664,16.79373 2.01412,3.76344 2.91924,9.55036 2.92193,18.68163 0.003,11.0934 0.18451,10.34176 -2.89049,11.98745 -1.96236,1.05023 -5.31108,0.78676 -13,-1.02276 -11.1067,-2.61386 -39.28907,-2.90226 -58.35678,-0.59717 -5.76262,0.69665 -11.01041,0.62316 -13.71698,-0.19209 -3.82016,-1.15067 -19.9612,0.008 -34.28302,2.46044 -1.46666,0.25117 -5.66666,0.84216 -9.33333,1.3133 -13.20456,1.69672 -22.16208,4.00363 -24.68981,6.35856 -2.51299,2.3412 -8.57233,5.17998 -10.39699,4.87094 -0.50225,-0.0851 -1.89334,-0.41562 -3.0913,-0.73455 z m 615.51143,-2.93851 c -5.65003,-2.52774 -23.95296,-5.94022 -30.66667,-5.71762 -2.2,0.0729 -8.9801,-1.0959 -15.06689,-2.5974 -10.66417,-2.63068 -11.33144,-2.64683 -18.33635,-0.44351 -6.11104,1.92216 -8.46154,2.04711 -14.7504,0.78413 -4.11453,-0.82632 -8.08052,-1.13185 -8.8133,-0.67897 -1.36808,0.84553 -9.18032,1.47401 -29.03305,2.33568 -11.85496,0.51455 -33.5444,2.764 -41.0526,4.25767 -5.13198,1.02093 -9.61407,-2.11143 -9.61407,-6.71891 0,-1.573 -0.68919,-3.5492 -1.53153,-4.39155 -1.15316,-1.15316 -1.05706,-2.28962 0.38902,-4.6 1.91495,-3.05948 1.98231,-5.19792 0.37752,-11.98473 -0.50049,-2.11663 -0.0517,-5.17757 1.09666,-7.47948 1.60954,-3.22643 1.71302,-6.39373 0.60164,-18.41707 -0.7382,-7.98628 -1.16918,-20.82052 -0.9577,-28.52052 1.04224,-37.94882 0.42679,-50.28087 -3.14734,-63.06505 -2.78542,-9.96302 -2.7399,-10.5167 0.8238,-10.01876 1.9228,0.26867 2.9906,-0.2807 3,-1.54348 0.0183,-2.45976 5.89097,-5.59501 9.05818,-4.83592 1.45622,0.34903 3.17526,-0.64872 4.43792,-2.57581 2.11732,-3.23143 4.82966,-3.43607 15.57311,-1.17496 2.04671,0.43076 4.50791,0.1304 5.46935,-0.66759 1.65142,-1.37054 6.48101,-1.25656 24.1427,0.56983 8.22471,0.85051 14.38125,-0.30817 13.08903,-2.46341 -0.51384,-0.857 0.11266,-0.70835 1.39226,0.33032 2.8674,2.32754 43.51871,3.9858 43.51871,1.77521 0,-2.04479 4.95753,-2.91867 9.37327,-1.65225 2.15825,0.61897 4.21424,0.65597 4.56885,0.0823 0.3546,-0.57376 3.66269,-0.75322 7.35131,-0.39878 3.72868,0.35828 6.70657,0.0911 6.70657,-0.60164 0,-0.68534 1.68564,-1.12935 3.74587,-0.98672 2.06022,0.14264 5.14968,-0.49198 6.86546,-1.41023 2.81386,-1.50592 3.47278,-1.26249 6.723,2.48375 1.98187,2.28432 3.69156,5.0533 3.79931,6.1533 0.75757,7.73431 1.84687,48.98347 1.65449,62.65241 -0.12893,9.15883 0.38428,19.35883 1.14038,22.66667 0.7561,3.30784 1.62526,12.31425 1.93148,20.01425 0.30621,7.7 1.2339,17 2.06153,20.66667 0.86919,3.85073 1.13557,10.20889 0.63065,15.05279 -0.66673,6.39632 -0.32302,9.82918 1.44854,14.46794 2.23552,5.85363 2.22905,6.1748 -0.17236,8.55972 -2.41034,2.3938 -2.67603,2.39692 -7.82835,0.0919 z m -8.50808,-19.83894 c 1.74403,-4.48471 1.91129,-10.13712 0.66084,-22.33334 -0.52631,-5.13333 -0.89272,-13.13177 -0.81425,-17.7743 0.0785,-4.64254 -0.41082,-9.14254 -1.08731,-10 -2.63553,-3.34056 -4.81367,-35.18295 -2.59351,-37.91479 1.23474,-1.51932 0.77822,-11.69246 -1.1807,-26.3109 -0.29482,-2.2 -0.75651,-7.3 -1.026,-11.33334 -0.2695,-4.03333 -0.55622,-7.6725 -0.63716,-8.08704 -0.0809,-0.41454 -8.69716,-0.56825 -19.14716,-0.34157 -25.44707,0.55199 -51.8952,0.44475 -52.9623,-0.21475 -1.03916,-0.64224 -8.06892,-0.68878 -32.26709,-0.21364 -12.44181,0.2443 -18.88616,0.90303 -20.29808,2.0748 -1.39974,1.1617 -5.20597,1.56575 -11.77061,1.24954 -8.01047,-0.38586 -9.66568,-0.11867 -9.49405,1.53266 0.1144,1.1 1.46433,8.19411 3,15.76468 3.09125,15.2393 3.54286,29.01782 1.34141,40.92653 -1.15164,6.22984 -1.00816,10.74696 0.69603,21.91155 1.32177,8.65928 2.00736,20.21255 1.78405,30.06391 -0.19948,8.8 0.0959,17.63844 0.65627,19.64098 l 1.01896,3.64099 12.6477,-0.1276 c 6.95624,-0.0702 12.64771,-0.57009 12.64771,-1.11095 0,-1.45432 19.76519,-2.81077 50.73468,-3.48182 21.85952,-0.47367 28.7359,-0.18892 34,1.40789 3.62925,1.10091 10.19865,2.01732 14.59865,2.03649 4.4,0.0192 8.9,0.61647 10,1.32735 3.90457,2.52333 7.99419,1.518 9.49192,-2.33333 z M 741.87674,443.2012 c -6.75055,-2.41248 -12.22745,-7.95468 -13.33539,-13.49441 -0.79323,-3.96614 -0.58111,-4.24518 3.8604,-5.0784 5.61157,-1.05275 10.06883,0.1312 13.31685,3.53704 1.31189,1.37568 3.41189,2.49204 4.66666,2.48081 1.6079,-0.0144 1.79739,-0.32788 0.64188,-1.06191 -1.14229,-0.72562 -0.44018,-1.74993 2.31511,-3.37753 10.18339,-6.01547 -4.57231,-15.72868 -15.09659,-9.9376 -4.52517,2.49001 -5.81797,2.35793 -8.88602,-0.90787 -3.22391,-3.43168 -7.28973,-18.78372 -5.81349,-21.95096 0.53245,-1.14237 1.0444,-2.67705 1.13766,-3.41038 1.82346,-14.33876 1.89715,-14.49409 9.07378,-19.12308 3.79998,-2.45101 8.40906,-4.55101 10.24239,-4.66667 1.83334,-0.1156 3.63787,-0.6103 4.01008,-1.09925 1.0976,-1.44181 13.77647,1.93051 16.42526,4.3688 1.54656,1.42367 2.27645,3.63072 2,6.04767 -0.43495,3.80246 -0.44507,3.80621 -11.31522,4.19118 -6.80172,0.24088 -11.41221,1.02674 -12.30005,2.09652 -2.35073,2.83246 -5.30689,16.02263 -3.96561,17.69429 0.66612,0.8302 5.76405,2.18663 11.32874,3.01427 5.5647,0.82764 10.64218,1.829 11.2833,2.22523 2.44837,1.51318 8.83786,12.08773 9.5167,15.75005 1.46283,7.89192 -5.39873,20.83432 -11.04553,20.83432 -1.13905,0 -2.641,0.53679 -3.33767,1.19287 -2.43564,2.29372 -9.3117,2.60897 -14.72324,0.67501 z m -136.54342,35.39971 c -3.3,-1.35075 -7.3,-2.48854 -8.88889,-2.52842 -1.58888,-0.0399 -3.08888,-0.64033 -3.33334,-1.33433 -1.14617,-3.25415 -29.15353,-5.21891 -50.44443,-3.53875 -6.23334,0.4919 -18.35042,1.1175 -26.92684,1.39023 -8.57643,0.27272 -16.30064,0.93291 -17.16492,1.46705 -1.50875,0.93247 -10.16862,1.70946 -27.24158,2.44418 -4.4,0.18936 -9.9062,0.79217 -12.23601,1.3396 -4.94604,1.16214 -11.88444,-1.8 -12.86548,-5.49252 -0.34309,-1.29138 -0.69541,-11.27111 -0.78293,-22.17718 -0.0875,-10.90606 -0.4696,-20.33158 -0.84908,-20.9456 -1.37434,-2.22372 -2.8452,-19.27516 -1.8309,-21.22518 4.10902,-7.89967 4.27858,-35.78951 0.29466,-48.46485 -4.3154,-13.73 -5.53154,-20.86848 -3.55522,-20.86848 1.00374,0 1.82496,-0.6 1.82496,-1.33334 0,-2.15573 3.40895,-1.52974 5.74868,1.05563 1.1891,1.31393 3.43306,8.66393 4.98658,16.33333 1.55352,7.66942 3.3901,16.64438 4.08129,19.94438 0.69119,3.3 0.95144,8.7 0.57832,12 -3.60209,31.85915 -3.73316,35.28134 -1.66105,43.36958 1.13157,4.41696 1.80032,10.78276 1.48612,14.14623 -0.6556,7.01786 2.14465,15.02684 5.96973,17.07396 1.71044,0.91541 7.63721,0.9093 18.33553,-0.0189 8.69448,-0.75432 16.95379,-1.37144 18.35404,-1.37138 1.40024,6e-5 3.61587,-0.57252 4.9236,-1.2724 1.52479,-0.81604 5.87262,-0.76855 12.12076,0.1324 16.23962,2.34166 29.06234,1.54541 33.16592,-2.05952 1.66955,-1.46667 2.59699,-1.91667 2.06099,-1 -0.935,1.59901 3.11541,2.48118 8.51616,1.8548 14.39205,-1.66923 31.37518,1.05074 41.84536,6.70184 3.50738,1.89304 5.06541,-0.89946 4.21606,-7.55664 -0.37424,-2.93334 -1.02044,-8.93334 -1.43601,-13.33334 -0.41557,-4.4 -1.46536,-10.1 -2.33287,-12.66666 -0.86749,-2.56667 -1.61136,-5.56667 -1.65302,-6.66667 -0.0416,-1.1 -0.7894,-5.3 -1.66163,-9.33333 -0.87223,-4.03334 -1.86323,-12.14084 -2.20221,-18.01668 -0.33899,-5.87584 -1.01639,-11.72584 -1.50534,-13 -0.53097,-1.38364 -0.26289,-2.31659 0.6657,-2.31659 0.85506,0 1.18385,-0.6 0.73062,-1.33333 -0.45322,-0.73333 -0.1244,-1.33333 0.73063,-1.33333 0.85507,0 1.25112,-0.79104 0.88012,-1.75788 -0.37101,-0.96683 -0.18045,-4.41683 0.42345,-7.66667 0.64155,-3.45243 0.58554,-6.43536 -0.13476,-7.17545 -0.67802,-0.69667 -1.23277,-2.64667 -1.23277,-4.33334 0,-1.68666 -1.17857,-4.24524 -2.61905,-5.68572 -2.30586,-2.30585 -2.38436,-2.85373 -0.65643,-4.58165 1.22168,-1.22168 1.45537,-2.27608 0.61904,-2.79297 -0.73896,-0.45671 -1.34356,-2.84596 -1.34356,-5.30946 v -4.47909 l -22.4556,0.22445 c -14.76989,0.14763 -23.09826,-0.2823 -24.33333,-1.25612 -1.82797,-1.44132 -9.20257,-0.96168 -27.21107,1.76983 -9.39925,1.42567 -24.45226,0.88185 -26.67604,-0.96371 -1.0303,-0.85508 -6.00626,-1.70998 -11.05768,-1.8998 -5.05141,-0.1898 -9.87782,-0.77365 -10.72533,-1.29745 -2.51235,-1.55271 -1.76541,-8.01013 1.22247,-10.56844 3.62278,-3.10193 9.23658,-5.24548 9.23658,-3.52687 0,0.71519 0.52672,1.30034 1.17051,1.30034 0.64377,0 3.49377,1.00608 6.33333,2.23573 6.18687,2.6792 6.59999,2.76532 18.62412,3.88248 7.30163,0.6784 10.19298,0.42013 12.66667,-1.13143 2.69617,-1.69109 10.5724,-3.05633 24.60604,-4.26512 1.50369,-0.12946 3.5464,-0.73758 4.53935,-1.35125 1.13326,-0.7004 1.49038,-0.60616 0.95929,0.25317 -0.50317,0.81415 1.43972,1.71371 4.79399,2.21964 3.10202,0.4679 7.89004,1.21022 10.64004,1.64962 2.83281,0.45262 5,0.24929 5,-0.46912 0,-0.69742 2.76679,-1.30986 6.14843,-1.36098 3.38164,-0.0511 6.80164,-0.74616 7.6,-1.54452 1.94918,-1.94917 11.75252,-1.77204 14.25156,0.25751 4.0581,3.29571 5.23924,5.96404 7.23459,16.34375 1.1222,5.83761 3.06527,15.00937 4.31792,20.38166 1.42441,6.10895 1.79481,10.10451 0.98884,10.66667 -0.74207,0.51757 -1.17229,8.25127 -1.01425,18.23219 0.29682,18.74597 0.31856,18.95003 4.54617,42.66666 1.56864,8.8 2.86887,17.45623 2.8894,19.23605 0.0205,1.77984 0.81701,5.10211 1.76997,7.38284 1.6067,3.84536 1.52028,16.07264 -0.17229,24.38111 -0.75855,3.72353 -5.23964,3.80984 -13.89368,0.26759 z m -84.05478,-45.2185 c -3.17596,-1.85966 -3.022,-9.4142 0.29992,-14.71576 3.36281,-5.36681 4.361,-9.33333 2.34876,-9.33333 -0.76416,0 -3.8731,1.2 -6.90875,2.66667 -3.03564,1.46666 -6.48667,2.66666 -7.66892,2.66666 -2.84611,0 -5.34956,-2.62065 -5.34956,-5.6 0,-1.32 -0.5,-2.4 -1.11111,-2.4 -0.61112,0 -1.11112,-0.87429 -1.11112,-1.94286 0,-2.1509 6.6321,-4.11858 8.9835,-2.66534 1.42506,0.88075 4.13078,-0.068 12.21809,-4.28408 2.00532,-1.04542 4.67203,-1.72233 5.92601,-1.50424 2.84692,0.49512 5.71516,-4.78094 5.74164,-10.56163 0.0149,-3.26244 0.49923,-4.10746 2.01966,-3.52402 1.1,0.42212 2,0.11467 2,-0.6831 0,-0.79782 -1.35,-1.7788 -3,-2.17996 -3.35694,-0.81618 -24.38011,1.19217 -28,2.67484 -1.39258,0.57037 -2.33334,0.36061 -2.33334,-0.52028 0,-0.8118 -0.84716,-1.47599 -1.88258,-1.47599 -2.71935,0 -1.70868,-6.35924 1.37214,-8.63375 1.38074,-1.01937 2.97043,-1.4038 3.53264,-0.85429 1.28916,1.26003 19.87231,-1.01152 21.5778,-2.6376 0.69667,-0.66423 3.7732,-1.20769 6.83675,-1.20769 3.12724,0 6.24428,-0.81238 7.10737,-1.85235 2.13255,-2.56956 7.3384,-3.35192 9.8898,-1.48629 1.17035,0.85577 2.76328,3.2271 3.53984,5.26961 1.22508,3.22223 0.96736,4.15821 -1.94758,7.07316 -1.84774,1.84772 -3.35951,4.14787 -3.35951,5.11143 0,0.96356 -0.85223,2.23174 -1.89384,2.81818 -1.04161,0.58644 -2.30288,2.7012 -2.80281,4.69947 -0.78382,3.13292 -0.38532,3.84429 2.89384,5.16602 9.80822,3.95339 9.55706,3.6682 7.78074,8.83518 -1.82409,5.30594 -5.02693,7.7178 -8.39225,6.31965 -1.23879,-0.51467 -4.20235,-1.179 -6.58568,-1.47632 -3.22927,-0.40283 -4.33333,-0.0229 -4.33333,1.49085 0,1.11727 -0.6,2.0314 -1.33334,2.0314 -0.73333,0 -1.33333,0.87047 -1.33333,1.93438 0,5.77216 -3.35877,16.21228 -6.09659,18.95009 -3.32676,3.32675 -5.34061,3.75435 -8.62486,1.83129 z m -232.31567,-6.03265 c -7.05232,-7.43883 -7.02148,-12.46837 0.0889,-14.50761 3.98017,-1.1415 5.96922,-3.50883 2.94818,-3.50883 -0.73333,0 -1.33333,-1.46459 -1.33333,-3.25464 0,-1.79005 -0.60932,-3.63123 -1.35404,-4.09149 -1.70169,-1.0517 5.32645,-11.25236 7.78011,-11.29207 1.05645,-0.0171 1.58917,-1.22709 1.33333,-3.02846 -0.30895,-2.17532 -1.34239,-3.01771 -3.7594,-3.0644 -1.83333,-0.0355 -3.63333,0.26458 -4,0.66666 -0.36667,0.4021 -1.94225,1.43968 -3.50131,2.30576 -2.26117,1.25612 -3.40756,1.1734 -5.66666,-0.40893 -1.55762,-1.091 -2.83203,-2.65237 -2.83203,-3.46971 0,-0.81734 -1.00583,-2.59749 -2.23516,-3.9559 -3.21703,-3.55478 -1.02636,-4.96423 8.97033,-5.77144 18.67646,-1.50808 19.70376,-1.40134 24.26483,2.52138 4.02699,3.46339 4.98669,9.98376 1.9254,13.08133 -2.25179,2.27847 -3.82164,6.42858 -2.43172,6.42858 2.82827,0 10.83965,8.57204 10.83965,11.59824 0,3.84556 -2.82882,7.06018 -6.23809,7.08884 -2.77417,0.0233 -6.07849,1.83701 -5.8064,3.18705 0.1008,0.50012 -1.2206,2.57773 -2.93645,4.61691 -3.82351,4.54398 -13.56102,7.49062 -16.05618,4.85873 z M 1202.6666,274.42497 c -15.3342,-3.00122 -19.7315,-3.39091 -25.8011,-2.28651 -3.5573,0.64727 -7.3245,0.69743 -8.3716,0.11147 -1.047,-0.58596 -5.9689,-0.63103 -10.9374,-0.10014 -4.9686,0.5309 -23.1014,0.85944 -40.2951,0.73012 -25.0177,-0.18817 -31.9272,-0.6324 -34.5948,-2.22418 -2.6093,-1.55704 -8.6906,-2.01722 -28,-2.11876 -30.9417,-0.16271 -62.78639,-1.82531 -74.66662,-3.89832 -5.30571,-0.9258 -18.76523,-1.27384 -42,-1.08606 -8.8,0.0711 -25,0.11867 -36,0.1056 -49.49353,-0.0585 -64.1992,0.41274 -73.62465,2.35962 -9.29255,1.91942 -15.75795,1.8763 -34.37535,-0.22927 -6.79976,-0.76903 -9.52384,-0.79264 -43.33333,-0.37563 -35.72318,0.44062 -67.26305,-0.1272 -76.66666,-1.38032 -9.37734,-1.24957 -36.5511,-2.44124 -78.66667,-3.44981 -12.46667,-0.29855 -33.76666,-0.86359 -47.33333,-1.25564 -25.73561,-0.74372 -33.90975,-0.81316 -74.66667,-0.63435 -13.56666,0.0595 -26.16666,0.0305 -28,-0.0644 -1.83333,-0.0949 -8.13333,-0.0949 -14,1.2e-4 -21.67226,0.35111 -49.76142,-0.28176 -64.66666,-1.45697 -8.43333,-0.66493 -19.06377,-1.20795 -23.6232,-1.20671 -4.55943,0.001 -9.73325,-0.54652 -11.49737,-1.21724 -1.84614,-0.70189 -3.70538,-0.72161 -4.38054,-0.0464 -0.64517,0.64518 -13.47136,1.35136 -28.50264,1.56931 -15.03126,0.21793 -27.62958,0.78825 -27.99625,1.26737 -0.89439,1.16868 -25.02775,3.99703 -34.46254,4.0389 -11.41311,0.0507 -16.01114,2.03869 -17.00827,7.35389 -0.45428,2.42152 -1.50919,4.47385 -2.34424,4.56073 -3.52784,0.36708 -5.69728,-0.555 -8.6462,-3.67489 -3.20535,-3.3912 -3.34531,-5.80547 -1.08871,-18.77975 0.41103,-2.36316 0.20055,-4.63458 -0.46774,-5.04761 -0.71411,-0.44133 -0.63144,-2.03187 0.20049,-3.85777 0.96024,-2.10751 1.05129,-9.06128 0.28305,-21.61904 -0.62288,-10.18174 -0.9313,-22.56224 -0.6854,-27.51224 0.38338,-7.71712 0.79978,-9 2.92131,-9 3.29405,0 3.827,1.10906 4.46637,9.29468 0.29856,3.82229 1.20787,7.61464 2.0207,8.42746 0.93982,0.93983 1.4832,8.29784 1.49253,20.21119 0.008,10.30333 0.38657,20.98333 0.84112,23.73333 l 0.82644,5 h 7.04777 c 3.87627,0 7.25018,-0.60721 7.49755,-1.34936 0.25209,-0.75628 5.57536,-1.41922 12.11112,-1.50829 6.41372,-0.0875 11.66132,-0.61672 11.66132,-1.17625 0,-0.55954 1.35,-1.02476 3,-1.03386 1.65,-0.009 6.3,-0.3653 10.33333,-0.79161 10.08752,-1.06619 17.13856,-1.09375 22.76059,-0.0889 3.04324,0.5439 6.52426,0.11386 9.6496,-1.19192 4.73834,-1.97982 22.69102,-2.14087 27.63848,-0.24795 1.07324,0.41061 9.15133,0.51089 17.95133,0.22284 8.8724,-0.29041 18.92765,0.1276 22.57197,0.93823 5.04108,1.1214 6.69739,1.08572 7.11035,-0.15318 0.56944,-1.70833 6.39323,-0.90392 9.16291,1.26563 0.83154,0.65136 12.53154,1.13159 25.99999,1.06717 19.97834,-0.0956 37.6556,-0.0517 57.15478,0.14155 6.98728,0.0693 18.57994,-0.89488 19.28868,-1.60423 0.46352,-0.46392 3.23528,-0.30593 6.15946,0.35108 2.96808,0.6669 8.97619,0.71127 13.60094,0.1004 11.9089,-1.57284 55.17905,-0.89276 62.28425,0.97892 3.3,0.86931 8.02577,1.20146 10.50173,0.73812 2.47595,-0.46332 6.17151,-0.15077 8.21236,0.69458 2.57752,1.06765 4.48608,1.122 6.25001,0.17796 1.73204,-0.92696 4.41991,-0.9136 8.45431,0.042 3.2532,0.77056 11.61492,1.33273 18.58159,1.24924 32.46988,-0.38908 56.69482,0.0947 57.97565,1.15762 1.40767,1.16826 6.7502,1.41298 26.69101,1.22263 5.86667,-0.056 17.6718,0.26584 26.23362,0.71523 8.56182,0.44938 15.85451,0.35174 16.20598,-0.21696 0.35147,-0.56872 8.34633,-0.89839 17.76639,-0.73259 56.02061,0.98593 57.93622,0.95916 59.03909,-0.82532 0.59855,-0.96845 1.40589,-1.24676 1.79413,-0.61847 0.71299,1.15387 19.06039,1.11956 68.90304,-0.1288 17.23288,-0.43162 29.20817,-0.16277 32.52441,0.7302 3.87786,1.04419 5.4988,1.0089 6.20587,-0.13516 1.0942,-1.77044 41.43128,-0.93593 44.32103,0.91694 0.9202,0.59002 7.0731,1.23353 13.6731,1.43001 24.60349,0.73247 30.76309,1.15273 32.48419,2.21641 0.9712,0.60026 4.8596,0.93604 8.6408,0.74618 14.3182,-0.71894 37.893,0.0487 46.875,1.52636 10.7133,1.76246 28.4723,2.03493 39.7372,0.60968 4.7384,-0.59951 8.365,-0.45783 9.3571,0.36556 2.414,2.00338 26.1816,2.44873 27.3779,0.513 0.6404,-1.03615 2.2938,-1.2125 4.8809,-0.52059 2.1519,0.57549 6.8791,0.5774 10.5049,0.004 3.6259,-0.57317 10.8411,-0.46293 16.0339,0.24496 5.1928,0.70789 16.3414,1.33449 24.7748,1.39245 8.4333,0.058 18.0333,0.15754 21.3333,0.22131 11.9563,0.23103 24.9459,-0.0591 38.6667,-0.8636 7.7,-0.45148 20.3,-1.03935 28,-1.30636 7.7,-0.26701 15.5,-1.05705 17.3333,-1.75564 2.9359,-1.11872 5.8706,-1.16929 13.3333,-0.22977 1.1,0.13849 3.855,0.15728 6.122,0.0417 l 4.1219,-0.21004 -1.2115,-6.33333 c -1.4409,-7.53212 -1.3704,-15.83762 0.1599,-18.83807 1.5297,-2.99961 0.2289,-12.37359 -1.5635,-11.26584 -0.8794,0.54355 -1.0992,0.0509 -0.5802,-1.30133 0.4592,-1.19682 0.2612,-2.53066 -0.4402,-2.96408 -0.7013,-0.43344 -1.275,-2.47919 -1.275,-4.54611 0,-2.06693 -0.9135,-4.5162 -2.03,-5.44284 -1.7796,-1.47692 -1.7928,-2.04696 -0.1067,-4.62036 1.058,-1.61457 2.1215,-4.07988 2.3635,-5.47848 0.2418,-1.39859 1.3398,-3.28149 2.4398,-4.18423 1.6071,-1.3189 1.6603,-1.86585 0.2703,-2.78436 -1.3933,-0.92072 -1.3477,-1.46008 0.2344,-2.77316 2.8288,-2.34776 6.3136,-1.34896 10.3783,2.97454 2.7864,2.96382 3.6572,5.4007 4.0501,11.33333 0.2752,4.15671 -0.025,8.4618 -0.668,9.56688 -0.6727,1.15689 -0.6408,6.53023 0.075,12.66667 0.684,5.86158 0.8348,12.15744 0.3349,13.99077 -1.1204,4.10931 2.0483,18.4494 4.7317,21.41464 1.0844,1.19831 1.7062,3.62024 1.3815,5.38205 -0.3247,1.76182 -0.6348,3.8912 -0.6893,4.73196 -0.064,0.98878 -2.3638,1.37462 -6.5112,1.09248 -3.5268,-0.2399 -12.9768,0.52863 -21,1.70786 -15.1817,2.23129 -27.0941,3.03098 -29.0753,1.95181 -1.7879,-0.97389 -24.3555,-0.74131 -25.9883,0.26784 -0.7978,0.49305 -4.0171,0.8788 -7.1541,0.8572 -3.1369,-0.0216 -9.6035,0.24293 -14.3702,0.58783 -18.1139,1.31066 -50.2427,1.5581 -56,0.4313 z M 918.41665,247.08918 c 0.96249,-0.38516 2.1125,-0.3378 2.55556,0.1052 0.44305,0.44305 -0.34446,0.75819 -1.75,0.70029 -1.55327,-0.064 -1.8692,-0.37992 -0.80556,-0.80554 z M 1285.9213,222.0423 c -1.4234,-1.07663 -3.5045,-1.97657 -4.6247,-1.99991 -1.1202,-0.0233 -5.2056,-3.6424 -9.0786,-8.0424 -3.8731,-4.4 -7.9999,-8 -9.1708,-8 -1.1709,0 -4.0986,-1.5024 -6.5061,-3.33865 -5.1657,-3.94011 -6.1445,-3.05115 -4.4911,4.07892 0.6708,2.89285 1.234,7.84775 1.2515,11.01088 0.032,5.69076 -0.014,5.74676 -4.3015,5.33333 -3.5357,-0.3409 -4.7998,-1.37321 -6.8673,-5.60788 -1.3937,-2.85453 -2.7467,-7.35453 -3.0068,-10 -0.26,-2.64546 -1.0796,-9.00993 -1.8214,-14.14326 -2.9649,-20.51878 -3.053,-24.12695 -0.6775,-27.75244 1.2625,-1.92669 2.0648,-5.25701 1.8227,-7.56529 -0.2583,-2.4626 0.3041,-4.57876 1.3964,-5.2538 1.0058,-0.62168 1.4661,-1.71722 1.0228,-2.43454 -2.0017,-3.23889 6.7351,-7.11373 11.4301,-5.06934 1.4495,0.63114 3.086,0.21416 4.4286,-1.12842 2.6674,-2.66737 3.4085,-2.70248 2.4154,-0.1144 -0.5608,1.46139 -0.1632,1.78102 1.4469,1.16318 3.6135,-1.38663 11.7996,3.28137 15.7947,9.00664 7.2768,10.42814 5.9587,16.54737 -5.9943,27.82905 -5.3142,5.01576 -6.4959,6.88617 -5.7785,9.14646 0.9849,3.10339 8.6199,9.50622 11.3356,9.50622 2.8747,0 19.4531,15.57569 19.6721,18.48218 0.1314,1.74472 -0.8437,3.05424 -2.7071,3.63546 -1.6018,0.49964 -3.2478,1.42753 -3.6577,2.06197 -0.4099,0.63444 -1.9099,0.27265 -3.3334,-0.80397 z m -29.2982,-46.26505 c 2.4651,-1.12322 3.1964,-2.24524 2.6289,-4.0335 -0.4325,-1.36257 -0.2911,-2.33486 0.3142,-2.16065 2.9482,0.84864 7.1004,-3.2054 7.1004,-6.93261 0,-5.48631 -4.8811,-8.59817 -10.9026,-6.95073 -2.4369,0.6667 -5.0307,1.00982 -5.764,0.76246 -0.7982,-0.26921 -1.4639,3.82906 -1.6586,10.21069 -0.2986,9.786 -0.1124,10.66042 2.2706,10.66042 1.4277,0 4.1327,-0.70024 6.0111,-1.55608 z M 248.66666,201.10782 C 244.79585,199.32742 240,191.34649 240,186.68535 c 0,-2.21028 0.6,-4.01869 1.33333,-4.01869 1.77515,0 1.7186,-7.60451 -0.0648,-8.70668 -1.65497,-1.02284 0.85964,-4.6268 3.228,-4.6264 1.58384,2.5e-4 2.01545,-26.3477 0.47252,-28.84424 -2.33185,-3.77301 4.04224,-5.85852 10.19414,-3.33536 2.85984,1.17295 5.85254,1.20404 11.81528,0.1228 4.39196,-0.7964 8.79928,-1.13569 9.79406,-0.75396 0.99477,0.38174 2.18858,0.0793 2.65292,-0.67194 0.46432,-0.7513 1.68874,-1.04192 2.72093,-0.64584 1.0322,0.39609 3.29872,0.17952 5.03672,-0.48127 4.40197,-1.67362 8.81684,1.59599 8.81684,6.52967 0,3.52825 -3.37172,6.13697 -7.12781,5.51484 -0.6203,-0.1028 -8.5703,0.55145 -17.66667,1.45378 l -16.5388,1.64058 v 5.96369 c 0,3.54644 0.84792,6.90063 2.09193,8.27525 1.85478,2.04951 2.49718,2.10012 5.66667,0.44654 1.96611,-1.02576 5.0376,-1.86872 6.82556,-1.87324 3.82808,-0.009 11.82343,5.1225 12.45029,7.99178 0.8099,3.70704 -0.62145,6.76347 -2.8664,6.12075 -1.19242,-0.34139 -5.75512,-0.80822 -10.13933,-1.03739 l -7.97127,-0.41669 0.40003,5.57604 c 0.22001,3.06681 -0.37039,6.96681 -1.312,8.66666 -0.94161,1.69984 -1.57644,3.56494 -1.41075,4.14464 0.50199,1.75622 -2.31629,6.14215 -4.76529,7.41596 -1.37044,0.7128 -3.38244,0.70115 -4.96944,-0.0288 z"
       id="path214" />
  </g>
</svg>
