<?xml version="1.0" encoding="UTF-8" standalone="no"?>
<!-- Created with Inkscape (http://www.inkscape.org/) -->

<svg
   version="1.1"
   id="svg420"
   width="3409.3333"
   height="660"
   viewBox="0 0 3409.3333 660"
   sodipodi:docname="queue5.png"
   xmlns:inkscape="http://www.inkscape.org/namespaces/inkscape"
   xmlns:sodipodi="http://sodipodi.sourceforge.net/DTD/sodipodi-0.dtd"
   xmlns="http://www.w3.org/2000/svg"
   xmlns:svg="http://www.w3.org/2000/svg">
  <defs
     id="defs424" />
  <sodipodi:namedview
     id="namedview422"
     pagecolor="#ffffff"
     bordercolor="#000000"
     borderopacity="0.25"
     inkscape:showpageshadow="2"
     inkscape:pageopacity="0.0"
     inkscape:pagecheckerboard="0"
     inkscape:deskcolor="#d1d1d1"
     showgrid="false" />
  <g
     inkscape:groupmode="layer"
     inkscape:label="Image"
     id="g426">
    <path
       style="fill:#000000;stroke-width:1.33333"
       d="m 100.52067,543.92808 c -2.465786,-2.46579 -2.584532,-3.29588 -1.192091,-8.33333 0.850571,-3.07711 2.326511,-7.39475 3.279871,-9.59475 0.95337,-2.2 1.92405,-6.1 2.15707,-8.66667 0.43971,-4.84328 3.07868,-16.75066 6.47721,-29.22609 1.08269,-3.97435 1.65773,-7.72895 1.27788,-8.34356 -0.37985,-0.61461 0.28619,-2.09429 1.48009,-3.2882 1.53456,-1.53456 1.75485,-2.58659 0.75168,-3.58976 -2.42116,-2.42116 -1.66146,-9.45564 1.24762,-11.55239 1.46667,-1.05712 2.66667,-2.68957 2.66667,-3.62768 0,-0.9381 0.55956,-1.70565 1.24348,-1.70565 0.68391,0 1.59045,-1.09319 2.01451,-2.42931 0.93065,-2.93222 10.82434,-8.74689 13.27971,-7.80468 3.31663,1.27271 3.69728,8.87234 0.68828,13.741 C 134.36541,461.97816 132.66109,464 132.10527,464 130.75602,464 128,470.17843 128,473.20317 c 0,2.21295 1.78012,2.439 21.66667,2.75139 28.00209,0.43989 27.42713,0.45916 33.66914,-1.12867 2.93471,-0.74653 8.63471,-1.04897 12.66667,-0.67212 4.03197,0.37687 11.83085,0.52226 17.33085,0.32308 23.4664,-0.8498 45.046,-0.0724 47.42,1.7084 0.781,0.58584 8.281,1.36062 16.66667,1.72171 8.38566,0.36111 15.54666,0.71425 15.91333,0.78477 3.97097,0.76379 75.01613,-0.34982 78.56969,-1.23154 2.62,-0.6501 11.2458,-1.20875 19.16846,-1.24146 7.92264,-0.0327 17.72757,-0.80308 21.78873,-1.71193 8.08659,-1.80969 16.72585,-0.83805 37.13979,4.17703 8.81397,2.16533 13.56149,2.49686 27.33333,1.9088 18.13359,-0.77432 38.1568,-2.78706 41.33333,-4.15482 1.1,-0.47364 2.6,-0.6879 3.33333,-0.47613 0.73334,0.21176 7.93334,0.60141 16,0.86588 19.21427,0.62996 27.36134,1.25676 38.61607,2.97092 5.10551,0.7776 9.55031,1.14625 9.87733,0.81924 0.32702,-0.32703 1.42034,0.0908 2.4296,0.92836 1.2314,1.02196 8.728,1.44852 22.78935,1.29672 25.94831,-0.28012 31.927,-0.71631 36.78552,-2.68379 2.10715,-0.85329 5.70715,-1.24298 8,-0.86597 7.64421,1.25695 20.01671,2.20225 35.50213,2.71249 8.43334,0.27787 17.23818,1.08547 19.56631,1.79466 2.32813,0.70918 4.52675,0.99565 4.8858,0.6366 0.35907,-0.35907 1.94257,0.0375 3.51893,0.88104 1.96647,1.05242 3.38167,1.106 4.50866,0.17068 0.90342,-0.74978 3.71506,-1.05447 6.2481,-0.6771 8.16944,1.21708 21.83959,0.8235 32.69008,-0.9412 10.10702,-1.64377 27.80971,-1.8598 103.24879,-1.25997 17.58013,0.13977 30.74966,-0.47248 40.66666,-1.8906 21.94919,-3.13873 45.86526,-4.67953 52.66667,-3.39307 6.21072,1.17475 48.09931,0.8936 58.66671,-0.39374 12.1659,-1.4821 23.8452,-2.23158 44.6666,-2.86632 11.7334,-0.35771 23.7334,-1.02368 26.6667,-1.47996 31.6996,-4.93087 57.8264,-6.4526 76.3295,-4.44576 13.1665,1.42802 15.6825,1.31488 29.0429,-1.30615 15.9222,-3.12359 37.3936,-4.76039 54.6276,-4.16431 2.9333,0.10147 10.0039,-0.22213 15.7124,-0.71909 15.8177,-1.37701 22.1187,2.55965 20.117,12.56844 -0.424,2.1198 0.1971,16.07005 1.3801,31.00057 2.2707,28.65882 2.2265,33.14284 -0.357,36.25583 -2.4455,2.94661 -8.5039,3.31549 -11.1025,0.67599 -1.553,-1.57738 -1.7595,-2.45016 -0.6667,-2.81722 1.1981,-0.40242 1.1598,-1.3273 -0.1576,-3.80114 -1.2808,-2.40524 -1.3778,-4.22448 -0.367,-6.88312 0.9469,-2.4906 0.932,-8.06924 -0.048,-17.94886 -0.7822,-7.88429 -1.817,-18.82704 -2.2996,-24.31722 l -0.8775,-9.98215 -26,0.44544 c -14.3,0.245 -29.3,1.02912 -33.3333,1.74249 -16.3613,2.8938 -29.5021,3.72006 -45.3333,2.85044 -22.6004,-1.24144 -36.3184,-0.71296 -54.6667,2.10602 -14.2989,2.19682 -18.6768,2.50562 -50.6667,3.57381 -15.7666,0.52647 -30.1666,1.5216 -32,2.2114 -5.664,2.13113 -34.19695,2.57791 -58.71306,0.91935 -23.57598,-1.59496 -30.87297,-1.22387 -57.95358,2.94733 -5.36223,0.82593 -35.99646,1.60216 -72,1.82437 -34.46667,0.21272 -68.06667,0.94567 -74.66667,1.62876 -21.70602,2.24656 -62.05664,0.71591 -96.37724,-3.65596 -10.6695,-1.35912 -21.08228,-1.04793 -39.62253,1.1841 -11.56321,1.39208 -44.17257,0.70734 -56.00023,-1.1759 -27.26521,-4.34125 -47.23688,-5.29042 -69.33333,-3.29509 -26.18129,2.3642 -60.78349,1.42044 -75.26756,-2.05288 -3.49032,-0.83699 -11.17786,-1.08525 -18.66666,-0.60284 -7.00284,0.45111 -19.21143,1.06369 -27.13019,1.36129 -7.91877,0.2976 -14.88053,0.83947 -15.47061,1.20415 -1.14395,0.707 -74.4894,0.87405 -83.46498,0.19009 -2.93333,-0.22352 -11.03333,-0.80616 -18,-1.29476 -6.96666,-0.48858 -17.06996,-1.56253 -22.45176,-2.38653 -6.41058,-0.98151 -16.98632,-1.16024 -30.66666,-0.51824 -27.06527,1.27012 -44.52943,2.00429 -67.54824,2.83967 -18.85778,0.68436 -25.3565,2.19693 -24.0514,5.59797 0.38967,1.01549 0.13848,2.91143 -0.55821,4.21321 -1.2041,2.24988 -3.63659,14.64391 -4.63024,23.59196 -0.25358,2.2836 -1.41482,5.60763 -2.58053,7.38672 -1.16571,1.7791 -2.03775,5.40831 -1.93788,8.06491 0.31212,8.30237 -6.21905,11.82645 -11.72107,6.32444 z M 1347.6444,514.50121 c 0.9045,-0.91122 1.9804,-1.32089 2.3909,-0.91037 0.4104,0.41052 -0.3296,1.15607 -1.6445,1.65677 -1.9003,0.72358 -2.0533,0.57043 -0.7464,-0.7464 z m 6.1333,-4.46417 c 0,-1.12037 0.85,-2.03704 1.889,-2.03704 1.0389,0 1.6513,0.71249 1.361,1.58333 -0.8057,2.41747 -3.25,2.75868 -3.25,0.45371 z m 789.5008,-6.12575 c -0.4835,-0.78212 -0.5929,-1.708 -0.2435,-2.0575 0.3496,-0.34951 0.9908,0.29041 1.4251,1.42204 0.9016,2.34948 0.1333,2.76274 -1.1816,0.63546 z M 475.52234,436.51597 c -2.09714,-2.87805 -2.34545,-4.86808 -1.61688,-12.9581 0.47343,-5.25683 1.05567,-14.35787 1.29388,-20.22454 0.23822,-5.86666 0.84164,-20.71442 1.34095,-32.99502 0.53364,-13.12502 1.65992,-24.46003 2.73248,-27.49999 1.00356,-2.84439 1.79959,-7.79663 1.76895,-11.00497 -0.0344,-3.605 1.29889,-8.76203 3.49036,-13.50002 3.08902,-6.67852 4.02996,-7.66666 7.30034,-7.66666 2.06486,0 4.84026,1.2 6.16758,2.66666 3.11032,3.43687 4.57294,3.3614 12.92274,-0.66666 3.80031,-1.83334 8.0548,-3.33334 9.4544,-3.33334 1.39961,0 4.13732,-0.8499 6.0838,-1.88869 4.76424,-2.54255 23.48979,-4.9634 41.54545,-5.37105 8.94782,-0.20202 15.39396,-0.94062 16.32374,-1.87039 0.84509,-0.84509 3.11653,-1.53653 5.04764,-1.53653 1.93112,0 3.88581,-0.3747 4.34378,-0.83267 1.1827,-1.18271 18.54332,-7.04932 20.94511,-7.07792 1.1,-0.0133 2.97848,1.94717 4.17439,4.35615 1.86753,3.7618 1.98276,6.15637 0.8165,16.96718 -0.74685,6.92299 -1.1995,16.48726 -1.00593,21.25392 0.37321,9.18956 0.27781,12.66047 -0.64128,23.33334 -0.31576,3.66666 -0.62533,7.83901 -0.68795,9.27188 -0.0627,1.43288 -0.61464,3.23288 -1.22673,4 -1.89956,2.38069 -4.43108,24.51049 -3.50801,30.66593 0.482,3.21428 1.76052,6.57791 2.84113,7.47473 1.12148,0.93075 1.62624,2.69718 1.17605,4.1156 -0.49968,1.57435 -0.0221,2.77916 1.30323,3.28774 1.15056,0.44152 2.09193,1.93856 2.09193,3.32677 0,1.3882 0.62111,2.52401 1.38024,2.52401 3.00206,0 -1.7513,5.54736 -8.4417,9.8518 -6.69274,4.30595 -11.69027,5.23443 -15.50023,2.87975 -2.32885,-1.43932 -9.266,-2.07516 -38.77164,-3.55373 -26.62128,-1.33403 -36.57124,-0.84671 -48,2.35088 -4.03333,1.12846 -9.43333,2.54865 -12,3.15597 -2.56666,0.60731 -7.13628,1.75171 -10.15469,2.54311 -8.00275,2.09822 -10.22548,1.74826 -12.98963,-2.04514 z m 22.72339,-15.9395 c 0.98223,0.37692 3.12876,0.15578 4.77007,-0.4914 12.82775,-5.05814 33.03309,-6.91594 44.31753,-4.0748 2.93333,0.73853 16.02588,1.7202 29.09454,2.18149 l 23.7612,0.83869 -0.70157,-4.51522 c -0.38587,-2.48338 -1.06088,-9.36482 -1.50004,-15.29208 -0.63883,-8.62215 -0.40207,-11.10583 1.18413,-12.42226 1.09044,-0.90498 2.03114,-2.6554 2.09046,-3.88982 0.12733,-2.65036 2.06604,-17.37282 3.89104,-29.54882 0.71206,-4.75076 1.10833,-8.95076 0.8806,-9.33333 -0.22775,-0.38257 -0.81326,-3.69559 -1.30115,-7.36225 -0.48788,-3.66667 -1.45229,-7.23667 -2.14313,-7.93334 -1.83655,-1.85202 -1.53664,-4.64324 0.74392,-6.92381 2.03024,-2.03024 2.84037,-11.14285 0.99062,-11.14285 -0.55516,0 -6.40516,1.49254 -13,3.31677 -12.60966,3.488 -19.97113,4.20547 -21.28797,2.07479 -0.43343,-0.70131 -1.51884,-1.04002 -2.41203,-0.7527 -0.89317,0.28731 -8.6291,0.8486 -17.19094,1.24732 -8.56184,0.39871 -18.16184,1.6287 -21.33334,2.7333 -3.17149,1.10461 -6.99634,2.0171 -8.49968,2.02778 -1.50333,0.0107 -3.30333,0.51507 -4,1.1209 -1.50425,1.3081 -10.60809,4.04144 -15.13289,4.54349 -9.04345,1.00343 -12.12434,15.74592 -12.75233,61.02168 -0.2492,17.96667 -0.19073,33.09375 0.12987,33.61572 0.32066,0.52197 2.16525,0.34749 4.09909,-0.38775 1.93384,-0.73525 4.31971,-1.02842 5.30193,-0.6515 z M 31.802078,433.1828 C 30.335157,432.25321 30.371966,432.02132 32,431.93591 c 1.1,-0.0577 0.581513,-0.67291 -1.152194,-1.3671 -2.308102,-0.92417 -2.784762,-1.70488 -1.780049,-2.91548 0.75468,-0.90933 1.273167,-2.24525 1.152193,-2.9687 -0.120973,-0.72344 1.462016,-2.12151 3.517752,-3.1068 3.204355,-1.5358 4.188786,-1.49587 6.898876,0.27985 3.639751,2.38485 5.563727,7.14201 3.65889,9.04685 -2.011854,2.01186 -10.477607,3.55564 -12.49339,2.27827 z m 70.276412,-3.147 C 100.26985,428.61316 100.05802,428 101.37517,428 c 1.14542,0 0.69739,-0.83173 -1.14206,-2.12013 -2.350007,-1.646 -2.689242,-2.52698 -1.516963,-3.9395 1.625043,-1.95805 1.953273,-23.40092 0.621581,-40.60704 -0.42568,-5.5 -0.736525,-11.95 -0.690766,-14.33333 0.105093,-5.47385 0.06688,-6.69799 -0.612284,-19.61632 -0.314596,-5.98388 0.02163,-11.31491 0.770542,-12.21729 0.936186,-1.12804 0.278815,-2.57447 -2.225314,-4.89643 l -3.554002,-3.29545 3.071126,-4.15392 c 2.347493,-3.17516 4.09739,-4.15392 7.42663,-4.15392 3.86761,0 4.44146,0.48541 5.12286,4.33333 0.42204,2.38333 0.65309,8.23333 0.51345,13 -0.13964,4.76667 0.14487,14.96667 0.63225,22.66667 0.48738,7.7 1.16407,19.57584 1.50376,26.39074 0.33968,6.81491 0.86197,12.81491 1.16063,13.33334 0.29867,0.51842 0.10364,2.14258 -0.43341,3.60925 -0.53704,1.46667 -0.34405,4.06407 0.42886,5.77201 1.12248,2.48036 2.09054,2.93555 4.80996,2.26168 1.87255,-0.46401 5.80465,-1.37258 8.73798,-2.01904 2.93333,-0.64645 9.30531,-2.08862 14.15993,-3.20482 4.85463,-1.1162 10.32163,-1.75836 12.14888,-1.42702 1.82726,0.33135 8.00126,-0.59424 13.72002,-2.05685 5.71875,-1.46261 14.00261,-2.65929 18.40857,-2.65929 8.54632,0 24.68545,2.36834 26.89593,3.94685 3.70335,2.64457 18.26201,6.99113 19.44711,5.80604 0.71257,-0.71257 1.58281,-7.68757 1.93388,-15.5 0.41961,-9.33785 1.52184,-16.611 3.21713,-21.22867 1.41835,-3.86332 2.98203,-9.28085 3.47483,-12.03896 0.49281,-2.75809 1.428,-5.3435 2.0782,-5.74534 2.11585,-1.30767 1.37354,-5.89632 -0.81782,-5.05543 -1.1,0.42212 -2,0.10333 -2,-0.70851 0,-0.8118 0.6,-1.47598 1.33334,-1.47598 0.73333,0 1.33333,-0.6 1.33333,-1.33334 0,-0.73333 -1.27347,-1.33333 -2.82992,-1.33333 -2.20437,0 -2.50441,-0.39223 -1.35735,-1.77436 1.10379,-1.32997 0.88791,-2.41523 -0.86197,-4.33333 -2.32875,-2.55262 -2.66819,-8.12787 -1.17056,-19.22564 1.30013,-9.63423 0.5636,-10.33187 -11.55724,-10.94683 -5.98929,-0.30388 -12.08963,-0.1224 -13.55629,0.40335 -1.46667,0.52572 -6.26667,1.66704 -10.66667,2.53628 -4.4,0.86924 -11,2.24869 -14.66667,3.06546 -3.66666,0.81678 -7.17982,1.34175 -7.80701,1.16662 -0.62719,-0.17515 -1.82719,0.24009 -2.66667,0.92274 -0.83948,0.68266 -5.94618,1.91999 -11.34823,2.74963 -5.40207,0.82964 -10.80207,2.01287 -12,2.6294 -2.37826,1.22397 -15.42315,4.50433 -19.20283,4.82887 -1.29694,0.11133 -3.20655,1.35192 -4.24357,2.75681 -1.51116,2.04721 -2.22097,2.22344 -3.57526,0.88767 -0.92937,-0.91667 -2.91976,-1.68575 -4.42309,-1.70907 -3.81007,-0.0591 -7.4,-3.08207 -7.4,-6.23128 0,-5.32091 5.76715,-7.98581 19.49386,-9.00779 13.04815,-0.97145 25.33066,-3.6159 34.50614,-7.42926 1.46667,-0.60955 6.56666,-2.09675 11.33333,-3.30488 4.76667,-1.20815 10.76667,-2.79175 13.33333,-3.51911 2.56667,-0.72736 7.5722,-1.85224 11.12342,-2.49971 3.5512,-0.64748 7.19458,-1.78958 8.09641,-2.53804 0.90183,-0.74844 3.69629,-1.06969 6.20992,-0.71388 2.51364,0.35582 9.07025,0.67703 14.57025,0.71382 11.85306,0.0792 15.09524,1.5674 18.66351,8.56634 3.29516,6.46324 3.29525,6.88227 0.003,13.33952 -3.23704,6.34928 -3.32932,9.44127 -0.48258,16.17051 4.8456,11.45417 5.5355,16.67673 3.7747,28.57493 -1.906,12.87943 -2.72234,16.58727 -4.1663,18.92366 -0.56394,0.91249 -1.14449,3.97676 -1.29009,6.80948 -0.1456,2.83273 -0.89012,5.77581 -1.65449,6.54018 -0.90943,0.90943 -0.94839,2.21448 -0.11267,3.77598 0.83505,1.5603 0.77956,3.47812 -0.16035,5.54097 -1.17908,2.5878 -0.82073,4.31457 1.99387,9.60812 4.20343,7.90556 4.25729,9.45347 0.41653,11.97004 -3.33724,2.18664 -7.63885,2.05679 -13.56978,-0.40961 -2.15482,-0.8961 -5.15482,-1.46964 -6.66667,-1.27456 -1.51184,0.19508 -3.3488,0.003 -4.08213,-0.42906 -0.73334,-0.43105 -3.58334,-1.18973 -6.33334,-1.68593 -2.75,-0.49621 -5,-1.42849 -5,-2.07172 0,-5.05077 -36.28242,-6.35289 -49.33333,-1.77051 -1.1,0.38623 -4.1427,0.92212 -6.76156,1.19086 -12.57425,1.29033 -37.81282,9.37234 -40.04628,12.82381 -1.48804,2.29953 -11.01966,2.58681 -13.78033,0.41532 z m 2925.98231,0.99032 c -5.6046,-2.20619 -12.6624,-14.28267 -10.5516,-18.05441 0.8176,-1.46099 0.7849,-3.17656 -0.092,-4.81484 -0.7492,-1.39982 -1.8908,-8.29528 -2.5368,-15.32324 C 3013.6128,379.04284 3012.1868,376 3006.9914,376 c -4.532,0 -14.0949,-2.8754 -15.3044,-4.60176 -0.5388,-0.76903 -0.9888,-0.94071 -1,-0.38152 -0.032,1.58417 -10.6661,-5.52367 -14.1758,-9.475 -1.7303,-1.94795 -3.8259,-5.7176 -4.657,-8.377 -1.3445,-4.3026 -1.1717,-5.29409 1.5682,-9 3.386,-4.57983 5.884,-5.10819 9.8777,-2.08924 2.2568,1.70599 2.3907,2.37921 0.9365,4.70765 -0.9332,1.49435 -1.3328,3.86388 -0.8878,5.26563 0.9936,3.13033 7.5144,7.93431 10.857,7.99849 1.3535,0.026 3.8738,0.83075 5.6006,1.78838 1.7269,0.95762 4.6464,1.45314 6.4876,1.10116 l 3.3478,-0.63998 -0.6541,-43.48173 c -0.6716,-44.644 0.056,-57.459 3.4787,-61.28641 1.0798,-1.20743 2.378,-5.00036 2.8848,-8.42874 0.7768,-5.25418 2.021,-7.266 7.9201,-12.80664 6.8679,-6.45048 9.7772,-7.81226 19.6561,-9.20046 4.0591,-0.57039 5.5384,-0.0815 8.394,2.77404 1.9066,1.90656 3.94,3.46646 4.5188,3.46646 1.6011,0 7.2822,6.86142 9.1598,11.06274 0.9166,2.05117 1.6666,8.15514 1.6666,13.56437 0,8.6354 -0.421,10.33531 -3.4518,13.93725 -1.8986,2.25627 -3.9712,4.10231 -4.606,4.10231 -0.6348,0 -2.6866,1.53231 -4.5594,3.40512 -3.9898,3.98989 -6.0494,3.28835 -6.0494,-2.06063 0,-2.55494 0.8206,-4.09192 2.4632,-4.61324 6.4133,-2.03553 6.2836,-20.5905 -0.1892,-27.06337 -2.9582,-2.95804 -4.0507,-3.23752 -9.4755,-2.42401 -3.3725,0.50573 -6.1319,1.54641 -6.1319,2.3126 0,0.7662 -1.4476,2.53177 -3.2169,3.92349 -3.1615,2.48681 -7.2496,9.96853 -9.7555,17.85337 -1.3656,4.29727 -1.165,94.28684 0.2152,96.52011 0.4454,0.72061 1.8479,1.26472 3.1168,1.20913 1.269,-0.0556 3.8516,0.32116 5.7394,0.83723 2.3724,0.64856 3.9596,0.30291 5.14,-1.1194 1.3148,-1.5842 2.3184,-1.73087 4.3616,-0.63737 2.1525,1.15196 3.0221,0.89472 4.6022,-1.36135 1.0716,-1.52992 3.1232,-2.78168 4.5591,-2.78168 3.3911,0 7.8933,7.39463 7.8999,12.9746 0,5.50436 -2.1531,6.09495 -20.0576,5.48584 L 3023.7358,378 l 0.8648,5.33333 c 0.4758,2.93334 1.1323,7.13334 1.4592,9.33334 0.3268,2.2 1.4706,5.8 2.5414,8 3.4118,7.0094 6.3213,23.82013 4.8102,27.79433 -1.3753,3.61741 -1.9624,3.89889 -5.3506,2.56512 z m 59.7593,-9.66404 -4.1555,-3.97127 0.8582,-13.6954 c 1.0601,-16.9193 3.7478,-34.0062 6.0002,-38.14569 0.9328,-1.71432 1.9603,-4.71432 2.2834,-6.66667 0.9977,-6.02974 4.6932,-20.49524 5.8108,-22.74648 3.1374,-6.31954 5.3145,-17.06998 6.1028,-30.13657 0.4865,-8.06667 0.9737,-15.86667 1.0824,-17.33333 0.3212,-4.33426 5.898,-4.29499 7.5512,0.0532 1.608,4.22941 3.0722,32.179 1.7942,34.24698 -0.4869,0.78788 -1.0633,3.41639 -1.2809,5.84114 -0.2176,2.42474 -1.2572,5.7849 -2.3103,7.467 -2.7697,4.42424 -7.1248,18.92625 -8.9265,29.72504 -0.8565,5.13333 -2.3987,11.9043 -3.4271,15.0466 -2.5128,7.67844 -2.3582,9.62006 0.7662,9.62006 1.4498,0 3.6366,1.52714 4.8596,3.39363 2.0838,3.18039 2.0713,3.89649 -0.1998,11.39703 -1.3326,4.40188 -2.9194,8.31016 -3.5261,8.68506 -0.6067,0.37491 -1.1029,2.11223 -1.1029,3.8607 0,2.85902 -4.2548,7.33025 -6.9755,7.33025 -0.5768,0 -2.9188,-1.78707 -5.2044,-3.97125 z m -2798.48677,0.56275 c 0,-1.1047 -0.85987,-2.33848 -1.91083,-2.74178 -1.4646,-0.56201 -1.87538,-3.32049 -1.75909,-11.81248 0.11973,-8.74256 -0.32089,-11.55186 -2.08917,-13.32014 -2.44032,-2.44031 -2.9117,-8.09107 -1.08142,-12.96363 0.63772,-1.69775 1.58092,-9.3868 2.09599,-17.0868 0.67601,-10.10608 1.65148,-15.22645 3.50717,-18.40955 2.7342,-4.69002 3.47562,-14.20713 1.2156,-15.60389 -0.74529,-0.46061 -1.00989,-1.39603 -0.58797,-2.07869 0.42191,-0.68266 -0.23825,-1.2412 -1.46703,-1.2412 -1.64945,0 -2.03852,-0.78511 -1.48666,-3 0.4111,-1.65 1.25326,-5.1 1.87148,-7.66667 1.38813,-5.76324 5.66857,-6.83787 11.13586,-2.79572 2.06114,1.52385 4.06436,2.25799 4.4516,1.63141 0.74155,-1.19984 12.9223,-2.62861 30.77114,-3.60937 5.86666,-0.32237 16.36666,-1.27525 23.33333,-2.11753 6.96667,-0.84227 23.77179,-1.61136 37.34472,-1.7091 13.57293,-0.0977 25.27955,-0.54944 26.01471,-1.0038 3.74021,-2.31157 10.19613,7.4872 10.19613,15.47567 0,3.30025 1.15,8.25613 2.55555,11.01304 1.40556,2.75692 2.55556,5.96571 2.55556,7.13065 0,1.16495 0.68514,2.80323 1.52254,3.64063 1.5949,1.59489 -0.4343,30.50728 -2.83153,40.34412 -2.51491,10.31973 -2.88972,20.58523 -0.92499,25.33333 3.4012,8.21959 -2.02432,14.7146 -9.76602,11.69111 -1.83334,-0.716 -8.73334,-1.58719 -15.33334,-1.93599 -6.6,-0.34878 -16.51797,-1.05368 -22.03994,-1.56641 -5.52198,-0.51275 -11.82198,-0.50451 -14,0.0183 -4.94399,1.18677 -38.69476,3.7203 -59.96006,4.50097 -8.8,0.32305 -17.65,0.88092 -19.66666,1.23969 -2.66596,0.47428 -3.66667,0.10414 -3.66667,-1.3562 z m 35.27788,-14.50092 C 329.77504,407.17328 338.5,406.33528 344,405.56169 c 11.63356,-1.63626 27.08364,-2.01028 32.31109,-0.78218 2.00444,0.4709 4.70444,0.39176 6,-0.1759 3.51761,-1.54122 10.16176,-1.83633 11.76693,-0.52262 0.77624,0.6353 6.04572,1.10113 11.70995,1.03518 11.29537,-0.13146 12.87869,-1.2087 12.87869,-8.76185 0,-2.10155 0.56826,-4.39099 1.26278,-5.08765 C 420.62396,390.57 421.54598,384.6 421.97837,378 c 0.93165,-14.22065 1.58735,-19.1898 3.65065,-27.66617 1.4195,-5.83154 1.3149,-6.54399 -1.32133,-9 -1.57457,-1.46694 -3.44027,-2.66716 -4.146,-2.66716 -0.70573,0 -1.67699,-1.79312 -2.15833,-3.98471 -0.48136,-2.1916 -1.42903,-4.327 -2.10595,-4.74536 -0.67691,-0.41836 -1.23075,-2.22524 -1.23075,-4.01529 0,-3.11822 -0.37726,-3.2593 -9,-3.36575 -4.95,-0.0611 -10.5,-0.43991 -12.33333,-0.84176 -5.84783,-1.2818 -63.48013,1.14283 -78.16184,3.28832 -7.30241,1.06713 -13.98651,5.05985 -12.95791,7.74036 0.63607,1.65757 -0.76765,9.70479 -3.59178,20.59085 -3.12918,12.06194 -3.63564,21.78987 -1.81988,34.95567 2.53282,18.36516 4.62805,21.61161 13.14262,20.36399 2.90283,-0.42536 9.50283,-0.97844 14.66667,-1.22908 z m 969.03059,13.88569 c -3.8637,-0.56341 -7.8837,-1.73712 -8.9333,-2.60823 -1.0497,-0.87112 -3.8971,-1.41252 -6.3277,-1.2031 -2.4306,0.2094 -5.2209,-0.1148 -6.2008,-0.72034 -0.9798,-0.60558 -6.5586,-1.28596 -12.3973,-1.51193 -5.8386,-0.22599 -11.3628,-1.03085 -12.2758,-1.78859 -0.913,-0.75774 -7.3256,-1.48356 -14.2501,-1.61292 -6.9246,-0.12933 -13.2598,-0.75856 -14.0782,-1.3982 -0.8184,-0.63964 -6.3129,-1.76797 -12.2099,-2.50738 -8.4993,-1.06574 -11.9221,-0.9527 -16.5119,0.54528 -17.029,5.55769 -37.1938,7.85434 -42.4568,4.83558 -1.8333,-1.05157 -3.7333,-1.93321 -4.2222,-1.95918 -1.4181,-0.0754 -3.0197,-2.04726 -1.6629,-2.04726 0.6744,0 1.3533,-3.45 1.5087,-7.66666 0.1554,-4.21667 0.6609,-16.36667 1.1232,-27 0.4623,-10.63334 0.9441,-22.63334 1.0705,-26.66667 0.1264,-4.03333 0.6977,-8.072 1.2694,-8.97483 1.6612,-2.62314 2.8401,-24.3585 1.3212,-24.3585 -0.7814,0 -0.9921,-2.04336 -0.5156,-5 0.6869,-4.26167 1.3624,-5.06398 4.5747,-5.43328 2.2523,-0.25892 4.8201,0.51817 6.3815,1.93121 1.437,1.30047 3.634,2.56863 4.8821,2.81813 2.5212,0.504 11.2269,0.73572 12.2694,0.32658 0.3667,-0.14391 3.9667,-0.42839 8,-0.63219 4.0333,-0.20379 13.3095,-2.23951 20.6136,-4.52383 7.3042,-2.2843 15.826,-4.15329 18.9373,-4.15329 3.1113,0 7.0352,-0.55119 8.7197,-1.22487 6.6455,-2.6577 8.5219,-3.22385 11.7294,-3.53908 1.8333,-0.18017 11.7333,-1.0319 22,-1.89274 10.2667,-0.86083 22.2667,-2.45947 26.6667,-3.55252 19.9226,-4.9492 19.8233,-4.94188 25.7886,-1.89859 3.0496,1.55576 5.5447,3.643 5.5447,4.63831 0,0.9953 0.838,2.50517 1.8623,3.35525 1.9806,1.64372 1.6379,4.91801 -1.198,11.44757 -0.9815,2.25982 -1.964,10.98816 -2.2584,20.06306 -0.4462,13.75605 -0.9503,16.75762 -3.5099,20.89913 -2.5345,4.101 -2.9726,6.62473 -2.882,16.60361 0.064,7.05563 -1.0156,17.37336 -2.6964,25.76754 -1.5417,7.7 -2.9672,17.23364 -3.1676,21.18585 -0.2623,5.17375 -1.0591,7.69383 -2.8454,9 -2.689,1.96625 -3.1969,1.98325 -13.6628,0.45708 z m -0.3085,-18.68477 c 0,-1.4897 0.8712,-3.04283 1.936,-3.45144 1.5377,-0.59007 4.4394,-11.36552 3.4517,-12.81786 -0.1329,-0.19554 0.434,-2.13305 1.26,-4.30558 0.826,-2.17254 1.5203,-10.70792 1.543,-18.96754 0.035,-12.92382 0.4102,-15.48672 2.6887,-18.38328 1.4561,-1.85118 2.3188,-3.3658 1.9171,-3.3658 -0.4018,0 -0.1131,-1.62384 0.6415,-3.60853 1.939,-5.10009 1.8312,-23.71788 -0.1653,-28.53785 -1.4365,-3.46807 -2.1663,-3.91524 -5.1401,-3.14962 -5.0827,1.30856 -10.8775,1.80164 -29.4872,2.50908 -9.1784,0.34891 -22.0784,1.27859 -28.6667,2.06596 -11.844,1.41548 -15.0832,2.01382 -33.312,6.15319 -21.806,4.95168 -27.1982,5.80563 -36.9531,5.85209 -12.0896,0.0576 -13.0469,0.97778 -13.0469,12.54123 0,4.0338 -0.5967,8.90367 -1.326,10.82191 -0.7294,1.91825 -1.6754,13.86708 -2.1024,26.55297 l -0.7763,23.06525 4.8676,2.30983 c 4.181,1.98405 5.841,2.09141 11.769,0.7612 3.7958,-0.85175 9.0791,-2.36715 11.7406,-3.36755 6.8863,-2.58833 21.7953,-2.6094 31.1608,-0.044 9.3696,2.56651 25.6175,3.77254 26.7231,1.98358 1.1468,-1.85552 6.3489,-1.50059 10.8394,0.73954 2.1847,1.08988 6.3874,2.19915 9.3393,2.46504 2.9518,0.26588 5.9961,0.87222 6.765,1.3474 0.7688,0.47519 3.7083,0.85372 6.5322,0.84119 2.8239,-0.012 7.5344,0.52041 10.4677,1.18433 2.9333,0.66392 5.7833,1.27612 6.3333,1.36046 0.55,0.0843 1,-1.0655 1,-2.55518 z m 842.9931,13.04184 c -0.7334,-0.91667 -1.7711,-3.0918 -2.306,-4.83364 -1.4298,-4.65487 1.4146,-2.37208 3.1122,2.49785 1.507,4.32272 1.2888,4.95449 -0.8062,2.33579 z M 3196,411.86972 c -1.8334,-0.71971 -5.0658,-4.03901 -7.183,-7.37627 -3.3809,-5.32885 -4.2738,-5.96202 -7.3333,-5.19978 -10.0527,2.50449 -11.0363,2.44264 -14.1249,-0.88831 -2.8418,-3.06475 -3.9687,-7.57005 -6.8214,-27.27139 -0.3344,-2.30964 -1.4921,-4.9331 -2.5728,-5.82992 -2.9168,-2.42073 -2.4872,-8.9306 0.702,-10.63738 6.1272,-3.27915 12.4632,5.44234 13.9344,19.18057 0.7819,7.30047 1.3678,8.89257 3.1464,8.55005 1.202,-0.2315 2.8964,-1.84665 3.7651,-3.58922 4.5908,-9.20814 15.1541,-6.31588 15.1541,4.14921 0,2.61101 1.05,6.02985 2.3334,7.59744 l 2.3333,2.85013 3.6271,-3.38636 c 3.0774,-2.87318 3.431,-3.90205 2.3333,-6.78922 -1.7601,-4.6297 -1.6293,-5.89594 0.6095,-5.89594 2.6398,0 7.4413,-6.41925 6.5462,-8.75176 -1.3284,-3.46194 5.6776,-2.27033 8.0639,1.37152 2.3464,3.58116 2.9756,15.38024 0.82,15.38024 -0.7333,0 -1.3333,1.08532 -1.3333,2.41183 0,1.32651 -0.881,3.57651 -1.9576,5 -1.0767,1.42349 -1.9767,3.63817 -2,4.92151 C 3216.0184,398.95 3215.4,400 3214.6666,400 c -0.7333,0 -1.3577,0.75 -1.3874,1.66667 -0.095,2.89752 -7.1572,10.0903 -10.6202,10.81532 -1.8292,0.38294 -4.8257,0.10746 -6.659,-0.61227 z m -78.236,-5.18763 c -4.8886,-4.77945 -7.7526,-13.97108 -6.5316,-20.96218 0.9972,-5.70974 7.4832,-20.38658 9.0092,-20.38658 0.5498,0 2.8412,-1.8 5.0917,-4 2.2505,-2.2 4.6999,-4 5.4428,-4 0.7429,0 4.2376,2.88671 7.7657,6.4149 7.2618,7.26166 8.1684,10.37093 7.3662,25.25802 -0.4659,8.64283 -0.9731,10.16923 -4.7623,14.33334 -2.4775,2.72262 -5.5051,4.66041 -7.2813,4.66041 -1.6722,0 -3.4112,0.6 -3.8644,1.33333 -1.6916,2.73708 -8.1576,1.33604 -12.236,-2.65124 z m 13.5073,-15.01542 c 0.2865,-0.91667 0.8948,-3.91667 1.3519,-6.66667 0.7753,-4.66528 0.608,-5 -2.5002,-5 -2.7134,0 -3.5885,0.927 -4.7196,5 -2.0229,7.28399 -1.7746,8.33333 1.9718,8.33333 1.8562,0 3.6096,-0.75 3.8961,-1.66666 z M 1461.6,406.4 c -2.5536,-2.55367 -1.8637,-7.05929 1.6636,-10.86547 2.8363,-3.06038 3.7395,-3.34065 6.8967,-2.14028 1.9981,0.7597 4.5794,0.97104 5.7362,0.46967 18.4855,-8.01125 36.32,-10.62273 62.7702,-9.19133 22.7398,1.23062 29.6749,1.69466 31.3406,2.09708 0.7294,0.17618 2.226,-0.0352 3.326,-0.46983 4.1124,-1.62477 16.336,-3.63317 22.1126,-3.63317 3.3221,0 7.4797,-0.98184 9.3518,-2.20848 2.5004,-1.63835 6.6603,-2.24071 16.114,-2.33334 l 12.7435,-0.1248 0.3621,-26.66666 c 0.3758,-27.65907 1.0142,-38.18128 2.6244,-43.25463 0.8456,-2.66433 0.662,-2.82339 -1.7612,-1.52648 -1.4878,0.79628 -4.1985,1.44777 -6.0236,1.44777 -4.484,0 -11.5177,-7.17097 -11.544,-11.76922 -0.013,-1.96027 -0.5397,-4.38388 -1.1745,-5.38582 -2.1405,-3.37876 6.8575,-18.62168 15.1897,-25.73186 4.155,-3.54554 8.2859,-6.44643 9.1799,-6.44643 2.6476,0 4.8253,2.96211 4.8253,6.56335 v 3.36333 l 2.0194,-2.88305 c 2.36,-3.36934 6.5581,-3.05879 10.3852,0.76825 2.3174,2.31755 2.3894,3.17541 0.8682,10.35748 -0.9122,4.30685 -2.4717,9.15953 -3.4657,10.78373 -0.9939,1.6242 -1.8071,3.78202 -1.8071,4.79515 0,1.01313 -0.8653,3.58424 -1.923,5.71357 -3.8998,7.85094 -6.7898,48.36142 -4.2712,59.87152 0.4813,2.2 1.0882,7.6 1.3485,12 l 0.4732,8 6.0803,0.71619 c 9.217,1.08568 41.8313,0.19344 51.6255,-1.41232 4.7667,-0.78151 12.8346,-1.97063 17.9287,-2.64249 5.0941,-0.67188 10.7941,-1.79168 12.6667,-2.48847 7.19,-2.67543 24.1734,-4.54076 32.4094,-3.5596 15.9102,1.89537 33.8711,1.33811 39.9771,-1.24036 1.2733,-0.53772 5.1733,-0.73912 8.6667,-0.44756 4.0766,0.34025 6.829,-0.0701 7.6848,-1.1458 3.5802,-4.50016 47.1957,-6.63955 55.2952,-2.71228 1.871,0.90727 7.8217,1.55697 13.3714,1.45992 5.5,-0.0961 10.75,0.41932 11.6667,1.14555 1.0861,0.86045 2.2472,0.86688 3.3333,0.0184 2.2856,-1.78544 32.6138,-4.22198 53.6667,-4.31152 20.8981,-0.0889 32.2944,-1.72782 34.7777,-5.00144 2.354,-3.10319 2.3288,-4.29318 -0.1106,-5.22942 -2.2236,-0.85314 -2.7634,-4.48218 -0.6671,-4.48218 0.7333,0 1.3333,-1.48618 1.3333,-3.3026 0,-4.47042 5.1574,-7.7863 10.1922,-6.55295 4.6848,1.14763 5.7612,2.6546 5.7874,8.10208 0.023,4.602 2.1674,11.27491 3.9862,12.39895 0.6226,0.38485 5.7262,0.39518 11.341,0.0229 11.4426,-0.75857 13.0394,0.0855 14.6704,7.75445 1.1799,5.54736 -1.6273,9.02111 -8.865,10.97003 -2.8222,0.75992 -7.207,3.45739 -9.7439,5.99437 -2.5369,2.537 -5.1676,4.61272 -5.8457,4.61272 -1.3495,0 -5.5226,9.55632 -5.5226,12.64674 0,3.99468 -9.4296,5.95984 -12.8241,2.67257 -0.8199,-0.79403 -1.9005,-2.73508 -2.4016,-4.31345 -0.5303,-1.67094 -1.6615,-2.58172 -2.7077,-2.18023 -2.1359,0.81963 -3.353,-10.52309 -1.9766,-18.42053 0.8242,-4.72787 0.7178,-4.90663 -2.6154,-4.39676 -1.9111,0.2923 -6.7746,0.85649 -10.8079,1.25376 -4.0333,0.39725 -8.8333,1.06032 -10.6667,1.47348 -1.8333,0.41316 -12.9333,1.00004 -24.6666,1.30418 -11.7334,0.30414 -27.1619,0.94024 -34.2858,1.41358 -7.7257,0.5133 -19.2937,0.17282 -28.6666,-0.84374 -19.608,-2.12664 -40.0936,-1.8334 -49.7019,0.71143 -4.0401,1.07007 -12.4457,2.55264 -18.6791,3.29461 -6.2333,0.74198 -14.9333,1.87943 -19.3333,2.52767 -4.4,0.64824 -11.3,0.69999 -15.3333,0.11493 -10.2688,-1.48937 -22.8947,-1.4888 -27.4678,10e-4 -2.126,0.69274 -6.2656,1.5725 -9.1989,1.95502 -23.4784,3.06163 -28.6667,3.91707 -28.6667,4.72656 0,1.04844 1.1908,0.98568 -37.2062,1.96083 -22.878,0.58103 -28.9825,1.12553 -30.7717,2.74476 -2.9608,2.67957 -6.1568,2.55183 -9.0712,-0.36259 -1.8323,-1.83225 -4.7522,-2.42785 -12.6423,-2.57877 -5.6429,-0.108 -10.6061,0.36419 -11.0295,1.04919 -0.4233,0.685 -3.0294,1.24545 -5.7912,1.24545 -2.7618,0 -11.5764,1.125 -19.588,2.50001 -8.0116,1.375 -15.7665,2.5235 -17.2332,2.5522 -1.4666,0.0287 -3.8666,0.18648 -5.3333,0.3506 -3.4777,0.38916 -27.2756,-1.25322 -36.6667,-2.53052 -4.0333,-0.54858 -8.8333,-0.57908 -10.6666,-0.0677 -1.8334,0.51131 -6.191,0.98947 -9.6836,1.06256 -3.4926,0.0731 -10.6926,1.40561 -16,2.96113 -5.3074,1.55552 -11.6054,3.12182 -13.9955,3.48066 -2.3901,0.35882 -4.6755,1.18613 -5.0787,1.83844 -1.0844,1.75465 -10.4554,1.43948 -12.3089,-0.41399 z m 551.7333,-34.52141 c 0,-0.62052 -0.8,-0.82124 -1.7777,-0.44603 -0.9779,0.3752 -1.7779,1.54685 -1.7779,2.60365 0,1.45003 0.4363,1.55947 1.7779,0.44603 0.9777,-0.81148 1.7777,-1.98313 1.7777,-2.60365 z m -375.4186,-85.04696 c 0.9968,-1.92752 3.0737,-4.64616 4.6154,-6.04143 3.8826,-3.51364 3.7634,-7.43953 -0.1968,-6.48133 -5.5265,1.33721 -13,10.2134 -13,15.44002 0,3.19294 6.578,0.9567 8.5814,-2.91726 z m -842.91471,110.952 c -0.91666,-0.36988 -1.66666,-2.00252 -1.66666,-3.62807 0,-1.62556 -0.64286,-3.59841 -1.42856,-4.38412 -1.01586,-1.01585 -0.53436,-2.38763 1.66666,-4.74833 2.60063,-2.78928 4.16054,-3.27251 9.7619,-3.02402 5.35005,0.23735 11.72482,1.99124 15.10802,4.15668 1.36047,0.87079 -3.28305,6.34212 -7.80552,9.19703 -4.87258,3.07592 -11.48822,4.10443 -15.63584,2.43083 z m 89.44583,-4.14662 c -1.58814,-1.26702 -3.8617,-4.68333 -5.05235,-7.5918 -2.11357,-5.16288 -2.09256,-5.34388 0.88751,-7.643 1.71509,-1.3232 3.92856,-1.95633 5.05234,-1.44514 2.61268,1.18845 10.27647,1.10489 15.38316,-0.16775 3.03499,-0.75635 4.8054,-0.39699 7.06511,1.43405 2.90608,2.3548 2.93696,2.60024 0.85252,6.77663 -1.18952,2.38333 -3.00171,4.33333 -4.02709,4.33333 -1.02538,0 -5.2561,1.5 -9.40159,3.33334 -4.14549,1.83333 -7.6126,3.31998 -7.70468,3.30368 -0.0921,-0.0163 -1.4668,-1.06631 -3.05493,-2.33334 z M 728.9463,391.96527 c -4.11785,-4.8093 -0.56296,-13.31382 5.55028,-13.27819 4.41077,0.0257 6.56527,1.38445 8.6904,5.48065 2.02511,3.9034 1.38153,6.48384 -1.63143,6.54134 -1.22222,0.0233 -3.3869,0.92333 -4.8104,2 -3.46428,2.62025 -5.04777,2.46924 -7.79885,-0.7438 z m 1512.7758,0.35721 c -6.3953,-5.58217 -10.0841,-17.39017 -9.7553,-31.22787 0.1828,-7.69746 -0.1544,-9.1012 -2.486,-10.34901 -2.5226,-1.35 -5.4566,-8.64197 -5.4734,-13.60295 -0.013,-3.12797 3.9771,-4.23661 6.6238,-1.84146 1.2349,1.11768 2.5706,2.03214 2.9682,2.03214 0.3975,0 1.1272,-3.45 1.6216,-7.66666 0.4943,-4.21667 1.7718,-8.83135 2.8388,-10.25484 1.0671,-1.4235 1.9402,-3.54974 1.9402,-4.72496 0,-1.51674 2.2248,-2.6266 7.6666,-3.82468 6.6768,-1.46995 8.2262,-1.40678 12,0.48928 2.3834,1.19745 4.3334,2.98968 4.3334,3.98274 0,0.99307 1.4046,2.91052 3.1216,4.26102 11.9896,9.431 5.386,23.56545 -13.9883,29.94077 l -9.8,3.22477 -0.112,6.95295 c -0.061,3.82412 0.4287,6.95295 1.0899,6.95295 0.6612,0 0.8284,1.17733 0.3717,2.6163 -1.0852,3.41926 1.2417,7.6351 4.8457,8.77894 4.398,1.39586 14.4716,1.77554 14.4716,0.54545 0,-0.60188 1.2,-1.47519 2.6667,-1.94069 1.4667,-0.46551 2.6856,-1.55594 2.7088,-2.42319 0.023,-0.86724 1.4944,-3.22681 3.2693,-5.24348 3.5363,-4.01767 10.53,-5.07364 11.7936,-1.78069 1.1218,2.9233 -3.4453,10.66712 -9.2157,15.62597 -2.8725,2.46843 -5.4227,4.93805 -5.6671,5.48805 -0.2445,0.55 -1.3156,1 -2.3802,1 -1.0647,0 -3.2647,0.82922 -4.889,1.84268 -1.6241,1.01348 -6.3169,2.2086 -10.4282,2.65582 -6.0038,0.65306 -7.999,0.35596 -10.136,-1.50935 z m 10.9953,-56.40472 c 0.4812,-0.77857 2.3167,-1.96372 4.0787,-2.63367 4.1635,-1.58294 4.0651,-4.41308 -0.272,-7.82464 -2.6172,-2.05873 -4.0809,-2.41021 -5.9257,-1.42293 -3.089,1.65317 -3.3832,2.19756 -4.4838,8.29681 -0.8442,4.67902 -0.6893,5 2.413,5 1.8232,0 3.7086,-0.63701 4.1898,-1.41557 z M 2933.6428,392 c -1.8702,-2.99457 -6.2888,-3.39812 -13.9403,-1.27312 -9.0837,2.52279 -14.1145,-2.00432 -23.0327,-20.72688 -3.5694,-7.49348 -7.1021,-12.53275 -11.8753,-16.93948 -3.7371,-3.45004 -7.1385,-6.30004 -7.5589,-6.33333 -0.4204,-0.0333 -2.4742,5.18948 -4.564,11.60614 -2.0898,6.41667 -4.2508,12.27395 -4.8023,13.01619 -0.5516,0.74224 -2.2908,4.79224 -3.8652,9 -3.1713,8.47627 -6.2893,9.93025 -9.9724,4.65048 -1.1511,-1.65 -4.0291,-5.78779 -6.3956,-9.19508 -2.3665,-3.40731 -6.7885,-9.44475 -9.8268,-13.41653 -3.0381,-3.97179 -7.6375,-11.41854 -10.2208,-16.54832 -2.5833,-5.12979 -5.6476,-10.11583 -6.8095,-11.08007 -2.6412,-2.19208 -2.7205,-5.92872 -0.1708,-8.04487 2.1186,-1.75825 4.7182,-0.82704 4.737,1.6969 0,0.87338 3.0065,5.08654 6.6666,9.3626 3.6602,4.27604 6.6548,8.5856 6.6548,9.57681 0,0.9912 1.05,2.14203 2.3334,2.55737 1.2833,0.41535 5.0097,4.01306 8.2809,7.99492 5.9328,7.22184 8.0524,8.13703 8.0524,3.47691 0,-2.12687 1.6396,-6.05276 6.8336,-16.36255 0.6415,-1.27338 1.1697,-3.07338 1.1739,-4 0,-0.92661 0.6401,-3.96333 1.4134,-6.74825 1.8703,-6.73476 6.6548,-8.78592 11.5368,-4.94579 1.8711,1.47178 3.9847,2.67595 4.6968,2.67595 0.7123,0 2.475,1.5 3.9171,3.33333 3.2089,4.07964 5.1007,4.3092 4.104,0.49804 -0.4793,-1.8329 0.036,-3.27048 1.4581,-4.06625 1.2098,-0.67703 2.1996,-2.11175 2.1996,-3.18827 0,-2.6044 8.8094,-11.06118 12.4827,-11.98313 1.6011,-0.40185 5.2975,-0.50109 8.2141,-0.22053 4.7018,0.45225 5.8534,1.32105 10.1534,7.65981 3.2772,4.83096 4.5084,7.82276 3.7964,9.22501 -0.5796,1.14143 -1.7911,6.27532 -2.6923,11.40866 -0.9012,5.13333 -2.2581,10.52804 -3.0153,11.98825 -1.8371,3.54193 -7.7051,9.28551 -10.6056,10.38051 -5.9763,2.25614 -0.5028,10.28868 6.6666,9.78366 2.3834,-0.16789 4.3522,0.0291 4.3752,0.43783 0.023,0.40869 1.5051,1.80748 3.2934,3.10841 3.2368,2.35482 3.2668,2.34196 6.7296,-2.89066 1.9129,-2.89082 4.5353,-9.36591 5.8274,-14.38912 1.2922,-5.02322 2.9635,-10.32242 3.7142,-11.776 0.7506,-1.45359 1.6837,-5.15182 2.0734,-8.21828 0.8384,-6.59654 5.928,-17.54418 9.5611,-20.56534 4.7808,-3.97554 31.1667,-2.38225 36.7591,2.21967 1.1,0.90517 3.193,1.8646 4.6513,2.13207 3.1631,0.58014 4.5045,5.12233 1.5127,5.12233 -1.1174,0 -2.5348,0.89936 -3.15,1.99859 -1.2535,2.23988 -7.9074,2.76584 -18.5394,1.46548 -11.3572,-1.38908 -19.0078,3.49953 -19.0969,12.2026 C 2957.3537,350.05 2956.7333,352 2956,352 c -0.7334,0 -1.3334,1.17177 -1.3334,2.60393 0,1.43216 -0.5456,3.98216 -1.2125,5.66667 -0.6668,1.68451 -2.1955,6.66273 -3.3968,11.06273 -1.2015,4.4 -2.8992,10.39335 -3.7727,13.31855 -2.763,9.25171 -9.1386,12.95761 -12.6418,7.34812 z m -24.3095,-41.33333 c 0,-0.73334 0.9,-1.33334 2,-1.33334 1.1,0 2.0037,-1.05 2.0083,-2.33333 0,-1.28333 0.9366,-4.11405 2.0716,-6.29049 2.8982,-5.5582 0.333,-13.69251 -2.7466,-8.70951 -0.4532,0.73333 -1.9772,1.33333 -3.3866,1.33333 -1.6891,0 -2.8684,1.24982 -3.4599,3.66667 -0.4936,2.01667 -1.498,4.05959 -2.2323,4.53983 -2.3434,1.53301 -2.2276,7.67229 0.1714,9.07181 2.9258,1.70692 5.5741,1.73307 5.5741,0.0551 z m -1937.33331,36.347 c -2.87859,-0.6116 -5.33333,-6.65802 -5.33333,-13.13684 0,-6.26106 2.26486,-8.14523 6.20373,-5.16099 1.35461,1.02631 4.01995,1.88509 5.92295,1.90843 4.08033,0.05 7.87332,3.77069 7.87332,7.72326 0,4.70166 -8.81402,9.90962 -14.66667,8.66614 z M 2306.419,383.0108 c -1.1076,-1.28928 -2.3861,-3.39413 -2.8412,-4.67747 C 2303.1226,377.05 2302.2321,376 2301.5988,376 c -1.4612,0 -0.3675,-14.90168 1.2184,-16.6 0.6505,-0.69667 1.1828,-2.44003 1.1828,-3.87415 0,-1.4341 1.4405,-4.49617 3.2013,-6.80458 1.7607,-2.30842 3.936,-6.86504 4.8341,-10.12586 3.8523,-13.98722 8.4383,-19.23673 15.5563,-17.80737 5.4471,1.0938 7.6269,3.21832 9.4172,9.17816 1.9144,6.37276 0.8987,7.73133 -5.9551,7.96488 -4.6209,0.15745 -5.1978,0.60869 -6.7341,5.2672 -0.9241,2.80225 -2.7889,6.67901 -4.1437,8.61503 -3.0251,4.32246 -4.5016,9.9281 -4.3512,16.52002 0.063,2.75 -0.4722,5 -1.1887,5 -0.7165,0 -1.3028,1.70702 -1.3028,3.79335 0,2.08635 -1.1027,4.7912 -2.4503,6.0108 -2.2876,2.07027 -2.5838,2.06187 -4.464,-0.12667 z m 470.3642,-2.30243 c -6.0983,-2.98694 -12.6247,-9.10414 -12.7352,-11.93672 -0.027,-0.67558 -1.098,-2.38858 -2.3814,-3.80665 -1.8537,-2.04836 -2.3226,-4.94744 -2.2812,-14.10499 0.069,-15.34917 1.2271,-20.2832 5.8751,-25.03726 2.1424,-2.19124 4.3001,-5.59779 4.7952,-7.57008 0.4951,-1.97231 1.3933,-3.586 1.9964,-3.586 2.0223,0 10.5011,-5.98322 10.5581,-7.45063 0.089,-2.29455 9.6315,-2.07723 12.2347,0.27865 1.2763,1.15492 2.9581,1.70568 3.7377,1.2239 0.7795,-0.48178 1.4174,0.044 1.4174,1.16848 0,1.12445 1.8204,2.98578 4.0452,4.13632 2.2249,1.15052 3.8789,2.81593 3.6757,3.7009 -0.2032,0.88498 0.032,1.60904 0.5215,1.60904 1.7768,0 7.8921,10.39283 7.1908,12.22055 -0.396,1.032 0.108,4.27767 1.1184,7.2126 1.0112,2.93493 1.568,6.66313 1.2373,8.28488 -2.0527,10.06616 -6.9284,23.61531 -8.4981,23.61531 -0.4746,0 -1.5263,1.45629 -2.3374,3.23621 -1.5593,3.42263 -6.8189,6.34229 -15.6201,8.67107 -6.9975,1.8515 -6.9483,1.85782 -14.5501,-1.86558 z m 18.9916,-14.03284 c 0.3345,-1.00345 1.9041,-3.06594 3.488,-4.58333 5.8465,-5.60104 7.886,-20.03595 3.4038,-24.0922 -1.4666,-1.32732 -2.6666,-2.92187 -2.6666,-3.54345 0,-0.62159 -2.4,-3.29842 -5.3334,-5.9485 -2.9333,-2.65009 -5.3333,-5.64853 -5.3333,-6.6632 0,-1.05466 -1.3605,-1.84485 -3.1765,-1.84485 -4.0544,0 -14.1568,9.91216 -14.1568,13.8902 0,1.60039 -0.6706,3.58031 -1.49,4.39981 -0.9186,0.91855 -1.292,4.99538 -0.9736,10.62984 0.6124,10.83695 4.4928,17.74682 9.9664,17.74682 1.8266,0 3.043,0.45 2.7032,1 -0.3399,0.55 2.4372,0.96249 6.1713,0.91666 4.5003,-0.0552 6.9944,-0.69846 7.3975,-1.9078 z m -444.2819,7.34134 c -3.9956,-3.02538 -4.5981,-18.27922 -1.086,-27.49651 4.2052,-11.03636 9.6869,-21.73704 11.7413,-22.91995 1.0184,-0.58644 1.8518,-1.89558 1.8518,-2.90921 0,-2.67269 6.5674,-6.84823 12.1306,-7.71248 3.7156,-0.57724 5.5442,-0.0952 8.1096,2.138 2.8319,2.46493 3.2922,3.96549 3.1727,10.342 -0.095,5.01569 -0.8631,8.18191 -2.3479,9.66667 -3.0014,3.00146 -3.7317,2.7844 -3.7317,-1.1092 0,-2.92347 -0.5143,-3.2767 -4.3333,-2.97628 -3.7656,0.29621 -4.7471,1.2111 -7.4911,6.98381 -1.7368,3.65363 -4.0687,8.37403 -5.1819,10.4898 -1.1132,2.11576 -2.024,6.18092 -2.024,9.03368 0,2.85276 -0.5182,5.50708 -1.1516,5.89851 -0.6333,0.39141 -1.1514,2.65626 -1.1514,5.03298 0,6.87608 -3.6242,9.23543 -8.5071,5.53818 z m -1242.5201,-0.59926 c -4.2081,-0.8555 -6.9192,-5.20829 -8.2872,-13.3057 -0.7359,-4.35554 -0.4874,-5.60502 1.2473,-6.27068 1.1915,-0.45722 3.1941,-0.008 4.4501,0.99706 4.4809,3.58752 8.0181,4.98151 10.7967,4.25488 3.5388,-0.92542 3.7255,1.95904 0.5872,9.07228 -2.5147,5.69963 -3.5504,6.31819 -8.7941,5.25216 z m -55.424,-4.78977 c -1.5852,-1.82313 -2.8821,-5.07481 -2.8821,-7.22596 0,-2.15115 -0.6909,-4.33816 -1.5354,-4.86005 -1.0638,-0.65747 -0.7808,-1.50058 0.9215,-2.74535 2.8729,-2.10073 8.6139,-2.40221 8.6139,-0.45235 0,0.73927 2.3536,2.2859 5.2304,3.43694 6.7707,2.70909 7.4549,4.87182 3.0349,9.59329 -5.2447,5.6024 -9.8038,6.37007 -13.3832,2.25348 z m 1361.1178,-0.97508 c -6.4125,-2.99597 -9.3333,-7.33037 -9.3333,-13.85019 0,-5.10718 0.7885,-6.95584 5.0148,-11.75722 2.7583,-3.13344 5.9073,-7.42552 6.998,-9.53794 1.0905,-2.11241 2.4959,-4.21444 3.1228,-4.67118 0.6268,-0.45674 0.4777,-2.0673 -0.3313,-3.579 -1.915,-3.57831 -1.8555,-4.25723 0.3736,-4.25723 1.0144,0 2.1722,-1.2538 2.573,-2.78621 0.8447,-3.22979 3.5802,-2.75743 11.0156,1.90213 3.9012,2.44475 4.4992,3.46184 3.926,6.67692 -0.4798,2.69119 0.071,4.43391 1.8971,6 3.4995,3.00127 7.7325,11.01457 8.7865,16.63281 1.3366,7.12444 -3.814,14.6936 -12.1848,17.90638 -6.079,2.33324 -18.1321,3.06152 -21.858,1.32073 z m 16.5163,-14.97596 c 1.9753,-1.49548 2.346,-2.95515 1.7237,-6.78947 -1.0318,-6.35832 -1.8613,-7.02129 -4.3462,-3.47356 -1.1247,1.60576 -2.6648,2.91956 -3.4223,2.91956 -1.4181,0 -6.348,5.29444 -6.4271,6.90224 -0.124,2.53023 9.2735,2.86271 12.4719,0.44123 z m 49.0685,13.93792 c -3.4548,-3.2186 -3.2064,-2.27764 -3.683,-13.94805 -0.2096,-5.13334 -0.7466,-12.93334 -1.1931,-17.33334 -1.1303,-11.13808 -1.0537,-12.85818 0.6465,-14.5321 1.0882,-1.07126 1.9568,-0.83742 3.215,0.86544 2.473,3.34738 4.5752,2.8798 5.6113,-1.24815 2.4819,-9.88888 14.7003,-19.64459 24.6429,-19.676 6.21,-0.0196 14.8488,5.86809 18.2862,12.46276 l 2.5694,4.92963 -3.948,2.26588 c -4.705,2.70033 -6.6338,2.8307 -8.8653,0.59921 -0.9167,-0.91667 -2.0867,-1.71848 -2.6,-1.78183 -0.5133,-0.0633 -1.9327,-0.55808 -3.154,-1.09942 -1.2215,-0.54135 -3.9215,-0.78954 -6,-0.55151 -3.4084,0.39029 -4.1809,1.51036 -7.8708,11.41317 -2.2504,6.03924 -4.5004,11.38924 -5,11.8889 -0.4997,0.49965 -0.9285,5.75846 -0.9529,11.68625 -0.035,8.54349 -0.5632,11.39969 -2.5471,13.77777 -3.0988,3.71455 -5.3963,3.78515 -9.1571,0.28139 z M 2586,360.86312 c -2.9334,-1.70116 -5.16,-3.86144 -4.948,-4.80061 0.4616,-2.04612 -1.7636,-9.25315 -5.2995,-17.16379 -3.7328,-8.35123 -2.9229,-11.56539 2.9141,-11.56539 3.7139,0 4.7058,0.54443 4.8583,2.66667 0.1053,1.46667 0.2553,3.30831 0.3333,4.09252 0.077,0.78423 2.5326,4.63031 5.4547,8.54685 5.8543,7.84643 7.7295,14.25496 5.4289,18.55356 -1.8649,3.48447 -2.1857,3.47236 -8.7418,-0.32981 z M 1528,329.29149 c 0,-0.75636 -1.05,-1.76304 -2.3333,-2.23709 -3.3054,-1.22096 -8.283,-6.07037 -8.3103,-8.09624 -0.013,-0.93969 -0.8864,-2.03981 -1.9416,-2.44472 -1.0552,-0.40492 -2.3013,-2.47921 -2.7692,-4.60953 -0.468,-2.13034 -1.4047,-4.21562 -2.0815,-4.63398 -0.6769,-0.41836 -1.2308,-2.40524 -1.2308,-4.41529 0,-2.01005 -0.6648,-4.3194 -1.4772,-5.13189 -1.0808,-1.08078 -1.011,-2.85212 0.26,-6.6 0.9556,-2.81751 1.8779,-7.22275 2.0498,-9.78942 0.6508,-9.72789 3.9098,-17.33333 7.4274,-17.33333 0.6491,0 3.5404,-2.48111 6.4251,-5.51359 4.9012,-5.15224 5.6115,-5.46442 10.8369,-4.76353 9.2844,1.24529 14.8834,10.71131 13.1687,22.26373 -0.5803,3.9091 -1.6503,5.13302 -6.6907,7.6529 -3.3,1.64978 -6.93,3.00581 -8.0666,3.01338 -1.1367,0.008 -2.6367,0.5676 -3.3334,1.24451 -0.6966,0.67691 -3.0666,1.42691 -5.2666,1.66667 -3.5174,0.38332 -4.0479,1.00533 -4.3971,5.15405 -0.2689,3.19581 0.7487,6.76799 3.1539,11.07132 3.3221,5.94379 3.8605,6.32712 8.3562,5.94855 3.968,-0.33415 5.4667,-1.39206 8.601,-6.07132 4.8388,-7.22423 7.9712,-7.34715 10.263,-0.40274 2.3426,7.09795 0.5095,10.99415 -8.9717,19.0694 -6.8932,5.87108 -13.672,8.3294 -13.672,4.95816 z m 3.6225,-55.45366 c 3.319,-0.88978 5.3394,-5.40928 3.3206,-7.42806 -1.6152,-1.61526 -12.2508,4.09888 -12.2662,6.59023 -0.013,1.76927 4.0519,2.14977 8.9456,0.83783 z M 2581.6798,325 c -0.7224,-0.91667 -1.6585,-4.74085 -2.0805,-8.49819 -0.6883,-6.12888 -0.4225,-7.13113 2.5832,-9.74454 2.6727,-2.32395 4.0715,-2.67386 6.9172,-1.73034 3.1641,1.04911 3.6121,1.95206 3.9671,7.9952 0.337,5.7387 -0.031,7.04312 -2.3334,8.27544 -1.5034,0.8046 -2.7334,2.3418 -2.7334,3.416 0,2.38427 -4.5062,2.58848 -6.3202,0.28643 z m -991.4949,-8.51179 c -3.6317,-3.91669 -5.2484,-9.77636 -4.033,-14.61845 1.2093,-4.81849 -1.2938,-3.93768 -8.3792,2.94865 -3.4814,3.38346 -7.6824,7.03807 -9.3358,8.12136 -2.7862,1.82564 -3.2546,1.70128 -6.408,-1.70121 -2.8989,-3.12807 -3.2512,-4.37816 -2.3821,-8.45469 1.3092,-6.1408 1.3089,-17.08414 -4e-4,-21.76356 -0.7961,-2.84491 -0.3819,-4.28491 1.8848,-6.55154 l 2.9052,-2.90516 2.9875,3.74668 c 1.6432,2.06068 3.33,5.45887 3.7485,7.55154 1.0512,5.2561 3.8217,4.77985 9.8616,-1.69516 3.5899,-3.84854 6.2233,-5.5 8.7704,-5.5 4.5853,0 4.4011,-0.21907 7.694,9.14628 1.6907,4.80836 2.5139,9.7017 2.1231,12.61952 -0.6247,4.66497 -0.5138,4.79909 5.2478,6.34009 8.1454,2.17853 8.8116,4.98004 2.454,10.3176 -2.8234,2.37041 -5.8654,4.02893 -6.7602,3.6856 -0.8947,-0.34332 -2.0228,0.0167 -2.507,0.80001 -1.4774,2.39071 -4.4496,1.60247 -7.8712,-2.08756 z m 149.1484,2.53239 c -2.3217,-0.58339 -12.1209,-7.43344 -14,-9.78655 -1.8707,-2.3425 -7.0101,-3.74325 -15.0613,-4.10482 -5.7949,-0.26024 -8.9387,-0.95926 -8.9387,-1.98755 0,-3.5554 -3.4446,-2.30909 -8.5692,3.10047 -4.3712,4.61418 -6.6014,5.88433 -11.4308,6.50966 -5.9546,0.77107 -6.0245,0.73342 -9.2422,-4.98744 -4.0698,-7.2358 -5.2999,-26.36505 -1.9132,-29.75176 2.9376,-2.93756 5.5137,-2.48201 9.3534,1.65406 2.8926,3.11564 3.315,4.60018 2.8104,9.87857 -0.4298,4.49796 -0.1488,6.04123 1.0184,5.59332 2.4143,-0.92648 4.6399,-6.66104 4.6399,-11.95561 0,-6.72031 1.8628,-9.42095 6.5912,-9.55539 4.7401,-0.13477 8.0755,3.70169 8.0755,9.28887 0,3.49398 3.045,6.4169 6.6849,6.4169 1.7029,0 0.5496,-7.57637 -1.5514,-10.19182 -1.7281,-2.15124 2.5952,-12.35672 6.7928,-16.03496 4.8112,-4.21578 10.1384,-6.21338 13.9911,-5.2464 4.2667,1.07088 9.6075,6.05016 11.3196,10.55342 1.8092,4.75856 -0.6535,18.04963 -4.0157,21.67236 -3.1238,3.36583 -3.251,6.3606 -0.3916,9.21995 1.7054,1.70545 3.7858,1.99697 9.8348,1.37805 7.3553,-0.75257 7.6977,-0.64996 8.2973,2.48628 0.8483,4.43782 -1.8752,10.44812 -6.318,13.94287 -2.0187,1.58781 -4.0392,2.81732 -4.4904,2.73225 -0.4511,-0.0851 -2.0201,-0.4562 -3.4868,-0.82473 z m -12.3049,-42.10393 c 0.6872,-2.06251 0.8581,-4.14128 0.3798,-4.61951 -1.6449,-1.64495 -5.4089,1.97691 -5.8414,5.62099 -0.5915,4.98314 3.7318,4.19038 5.4616,-1.00148 z m 162.9469,35.91204 c -8.3732,-4.65232 -12.2917,-12.92087 -13.4071,-28.29088 -1.0504,-14.47326 2.0354,-31.44131 7.0656,-38.85392 1.7524,-2.58214 2.8852,-5.47858 2.5176,-6.43654 -0.3676,-0.95796 -0.252,-1.93052 0.2568,-2.16122 0.5088,-0.23072 2.0879,-3.71948 3.5092,-7.75282 1.4214,-4.03333 3.9714,-8.42688 5.6667,-9.76344 1.6953,-1.33656 3.0825,-3.25253 3.0825,-4.25773 0,-2.34092 5.1616,-5.97883 8.4831,-5.97883 3.6484,0 6.092,3.86298 6.1412,9.70851 0.031,3.62569 -0.6129,5.27225 -2.2909,5.86213 -2.8756,1.01094 -9.6667,7.16798 -9.6667,8.76426 0,0.64312 -1.5519,4.58086 -3.4485,8.75054 -1.8966,4.16967 -4.2576,9.38123 -5.2466,11.58123 -2.7665,6.15403 -7.0634,29.57311 -5.7934,31.57581 0.6129,0.96664 1.1236,3.31454 1.1348,5.21754 0.031,5.20664 4.2062,8.33721 9.5537,7.16272 2.4085,-0.529 5.4153,-1.6089 6.6816,-2.39976 1.7796,-1.11139 2.9251,-0.87455 5.0439,1.04286 3.7918,3.43166 3.4274,7.6206 -1.0728,12.3297 -4.2891,4.48798 -13.5736,6.4763 -18.2107,3.89984 z m -75.6547,-4.02366 c -8.3945,-3.06941 -11.7566,-7.34044 -15.3285,-19.47172 -3.5169,-11.94544 -3.3969,-13.85256 1.0363,-16.4713 2.2152,-1.30862 5.328,-4.13791 6.917,-6.28734 1.5892,-2.14941 3.6766,-3.90802 4.6387,-3.90802 0.962,0 1.7492,-0.9 1.7492,-2 0,-1.1 0.5767,-2 1.2813,-2 0.7048,0 2.4459,-1.2499 3.8692,-2.77756 3.1304,-3.36014 11.7427,-5.55183 14.989,-3.81447 3.2046,1.71507 5.5969,9.70473 4.4705,14.92997 -1.0811,5.01468 -6.252,14.33462 -9.6219,17.34214 -1.2768,1.13952 -4.8714,2.75078 -7.9881,3.58061 -10.2504,2.72917 -5.0479,7.88979 8.3333,8.26631 6.4194,0.18064 10.878,-1.09092 15.5248,-4.42754 1.7444,-1.25248 2.648,-1.11709 4.4287,0.66348 1.2304,1.23038 3.0537,2.23706 4.0519,2.23706 2.4438,0 3.7822,4.65973 2.192,7.63122 -1.7115,3.19802 -5.7247,6.61215 -8.1974,6.97366 -9.473,1.385 -28.0136,1.11761 -32.346,-0.4665 z m 139.346,-0.66992 c -1.2833,-1.39233 -3.6077,-3.94833 -5.1653,-5.67998 -1.9035,-2.11626 -3.1485,-5.87687 -3.7979,-11.47086 -1.4901,-12.83946 -3.4314,-12.22226 -7.3885,2.34904 -0.8961,3.3 -1.8397,6.75 -2.0969,7.66667 -0.6051,2.15632 -5.9052,2.07292 -8.8154,-0.13871 -2.7528,-2.09202 -3.3084,-11.0791 -1.1889,-19.23141 1.016,-3.90772 3.4723,-7.63577 7.8012,-11.84069 3.4752,-3.37548 5.7184,-6.3587 4.9851,-6.62938 -0.7334,-0.27066 -1.2854,-3.19234 -1.2267,-6.49262 0.059,-3.3003 -0.3099,-6.00052 -0.8189,-6.00052 -1.3142,0 -5.2878,-10.83599 -5.2878,-14.41976 0,-1.6485 0.8531,-3.32464 1.8959,-3.72476 3.9248,-1.50612 7.0805,2.07448 10.0975,11.45718 1.6652,5.17854 3.4766,9.69312 4.0257,10.03243 0.5489,0.33929 3.2384,-0.90337 5.9765,-2.76148 7.5936,-5.15316 11.9502,-5.59009 14.6502,-1.46929 3.546,5.4118 2.1712,9.14044 -4.6354,12.57228 -3.2942,1.66096 -7.3268,4.36096 -8.9612,6 -2.7105,2.71838 -2.8042,3.27277 -1.0676,6.3134 1.0472,1.83333 2.5672,4.82112 3.3779,6.63953 0.8107,1.8184 2.1392,3.71732 2.9523,4.21981 2.159,1.33438 2.827,18.43374 0.8634,22.10274 -1.9792,3.69821 -3.1452,3.79382 -6.1752,0.50638 z m -189.3889,-2.18021 c -4.0756,-2.91311 -9.8476,-12.21467 -9.3612,-15.08572 0.214,-1.26311 -1.2547,-4.06927 -3.2637,-6.23592 -3.6155,-3.89908 -5.068,-8.33196 -2.1366,-6.52021 0.834,0.51541 2.484,-0.336 3.6667,-1.89204 2.3432,-3.08286 8.1504,-2.72239 8.1504,0.5059 0,0.9621 0.9383,2.68751 2.0851,3.83427 1.1466,1.14676 1.7369,2.64816 1.3114,3.33644 -0.4253,0.68829 -0.1636,1.62831 0.5818,2.08892 0.7453,0.46061 1.355,2.00208 1.355,3.42547 0,3.91378 4.8915,3.23498 9.4359,-1.30947 2.1436,-2.14359 3.8975,-5.01008 3.8975,-6.36999 0,-3.36782 3.6965,-8.39924 6.1708,-8.39924 1.1108,0 2.7268,0.75 3.591,1.66667 2.1099,2.23775 6.3852,14.33333 5.0663,14.33333 -0.5743,0 -1.886,1.57304 -2.9149,3.49564 -2.248,4.20027 -15.7004,13.60735 -20.8791,14.60032 -2.2931,0.43968 -4.8631,-0.1212 -6.7564,-1.47437 z m 220.8603,-5.98452 c -1.7119,-0.99953 -1.972,-2.27281 -1.1807,-5.78137 1.0641,-4.71832 5.3575,-12.8557 6.7828,-12.8557 0.4575,0 1.5281,-1.52822 2.3792,-3.39606 2.4541,-5.38636 1.7983,-16.52754 -1.5269,-25.93727 -3.69,-10.44216 -13.8643,-26.36965 -17.5794,-27.52005 -4.3025,-1.3323 -10.1137,-5.90499 -9.26,-7.28639 2.3384,-3.78361 13.9136,-5.57219 13.9136,-2.14991 0,1.527 1.5451,3.34595 10.8146,12.73148 3.3814,3.42368 7.4453,8.53282 9.031,11.35363 6.8658,12.21352 10.5779,36.65928 6.6554,43.82755 -1.0088,1.8436 -3.5107,6.4647 -5.5595,10.26912 -3.0197,5.60697 -4.2192,6.7603 -6.3333,6.08932 -1.4767,-0.46867 -2.6082,-0.21036 -2.6082,0.5954 0,1.74874 -2.5885,1.77696 -5.5286,0.0603 z m -396.5127,-49.37069 c -1.267,-2.04998 0.4684,-3.37263 2.1798,-1.66131 0.9576,0.95757 0.9805,1.70336 0.069,2.26619 -0.7465,0.4614 -1.7589,0.1892 -2.2496,-0.60488 z M 115.22593,239.82621 c -0.39415,-0.63774 -0.40267,-1.15954 -0.0189,-1.15954 0.38374,0 -0.63085,-1.38243 -2.25465,-3.07207 -1.62379,-1.68963 -3.5787,-2.87288 -4.34425,-2.62945 -0.81977,0.26068 -1.53298,-2.44992 -1.73513,-6.5946 -0.18879,-3.87047 -0.62423,-12.73722 -0.96765,-19.70388 -0.69601,-14.11903 -0.70057,-19.59958 -0.0271,-32.47071 0.25378,-4.84985 -0.041,-8.50743 -0.65498,-8.12795 -0.61401,0.3795 -0.4753,-1.14906 0.30826,-3.39678 0.78356,-2.24772 1.11584,-5.26767 0.7384,-6.711 -0.37744,-1.44334 -0.14258,-2.96024 0.52191,-3.37092 1.67641,-1.03608 1.52178,-5.92264 -0.18742,-5.92264 -2.03278,0 2.97629,-6.45768 5.733,-7.39096 4.69462,-1.58936 6.39482,2.50498 6.64507,16.00236 0.14419,7.77662 0.77652,12.72986 1.62669,12.74234 0.76495,0.0107 0.64192,0.49596 -0.2734,1.07718 -2.27517,1.44472 -2.29062,44.14962 -0.0173,47.71809 0.5194,0.81529 1.08393,3.31409 1.25452,5.55289 0.27019,3.5459 0.88566,4.13772 4.77524,4.59182 2.56776,0.29977 5.65184,-0.30998 7.25796,-1.43496 2.28235,-1.59862 10.12964,-2.00538 42.92667,-2.22512 43.25921,-0.28983 56.40292,-1.06902 66.80041,-3.9601 3.66667,-1.01953 10.56667,-2.15349 15.33334,-2.5199 4.76666,-0.36643 12.56666,-1.3122 17.33333,-2.10175 4.76667,-0.78953 17.93739,-1.76341 29.26828,-2.16416 11.33089,-0.40075 20.93089,-0.92581 21.33333,-1.16681 0.40244,-0.24102 6.43172,0.1564 13.39839,0.8831 16.59925,1.73152 56.51279,1.46631 69.93759,-0.46472 6.99984,-1.00685 16.5171,-1.17045 28,-0.48133 9.56765,0.57419 19.49574,0.90192 22.06241,0.72829 7.89401,-0.53401 9.81401,-0.47444 15.33333,0.4757 3.90911,0.67294 69.05291,2.13421 102.66667,2.30294 0.73333,0.004 5.23333,-0.59822 10,-1.33758 12.21689,-1.89496 87.39702,-0.9876 89.89429,1.08496 1.04537,0.86757 7.31831,1.7892 13.93985,2.04806 6.62155,0.25887 12.55742,0.79094 13.19079,1.18239 1.5568,0.96216 20.39084,-1.63881 23.29031,-3.21637 3.20773,-1.74528 6.02341,-1.574 6.69016,0.40697 0.43824,1.30209 1.04208,1.26952 2.76045,-0.14889 1.21249,-1.00083 3.55352,-1.4773 5.21683,-1.06176 1.65953,0.41458 5.14377,0.27262 7.74276,-0.31544 2.599,-0.58808 6.10124,-0.5603 7.78276,0.0617 1.68153,0.62204 6.15508,1.38047 9.94122,1.68539 9.16771,0.73836 15.82301,2.1768 17.99605,3.88957 0.97835,0.77113 10.27835,1.65761 20.66667,1.96996 15.77151,0.4742 19.76781,0.19012 24.22119,-1.72177 8.59553,-3.69019 19.61152,-4.86504 48.66666,-5.1903 15.03334,-0.16828 30.33334,-0.75677 34,-1.30777 19.61268,-2.94721 25.47255,-4.05871 26.82012,-5.08723 0.81774,-0.62413 5.61774,-1.6766 10.66667,-2.33881 5.04893,-0.66223 11.71355,-2.12356 14.81025,-3.24741 4.01026,-1.4554 9.59676,-1.93971 19.41468,-1.6831 7.58136,0.19816 14.34764,0.7039 15.03624,1.12384 2.5061,1.52838 42.5226,-3.13134 49.85,-5.80476 6.4713,-2.3611 9.2377,-2.55258 25.3333,-1.75354 12.3663,0.6139 20.5935,0.38097 26.0687,-0.73807 11.1549,-2.27987 63.7133,-3.03072 79.3333,-1.13336 6.9667,0.84624 20.5948,1.65615 30.2846,1.79979 12.2035,0.1809 18.2629,0.7964 19.7164,2.0027 1.6954,1.40711 3.8171,1.43487 11.0487,0.14455 4.9227,-0.87833 14.6503,-1.84241 21.617,-2.14239 17.52,-0.75438 30.3729,-2.5092 32.2695,-4.40577 2.9573,-2.95729 8.8177,-1.88737 11.3356,2.06949 1.2833,2.01667 2.9472,4.12764 3.6974,4.69107 0.8614,0.64683 0.5041,1.53125 -0.9692,2.39959 -1.2833,0.75634 -2.3333,2.48033 -2.3333,3.83105 0,3.22513 -2.6567,3.80285 -25.6163,5.57044 -46.5721,3.58544 -57.5239,3.71044 -63.302,0.72248 -2.9803,-1.54125 -5.9419,-1.73823 -13.5603,-0.90193 -10.3801,1.13944 -19.2106,0.50704 -23.4469,-1.67915 -3.6113,-1.86369 -44.4105,-2.34529 -66.0744,-0.77995 -9.9001,0.71532 -28.8,1.44675 -42,1.62539 -18.8587,0.25521 -26.9991,0.96393 -38,3.30837 -11.6634,2.48563 -18.0768,2.97614 -38.42551,2.93887 -23.189,-0.0424 -39.59232,1.74449 -47.57455,5.18271 -12.19596,5.25322 -22.02025,7.09013 -39.65997,7.41545 -13.15551,0.24261 -18.96508,0.85589 -20.58928,2.17347 -1.24445,1.0095 -1.84891,1.14512 -1.34325,0.30136 2.13496,-3.56248 -38.34836,-2.21063 -44.31987,1.47996 -0.54013,0.33382 -5.64641,1.5704 -11.34729,2.74794 -14.08,2.90831 -37.55934,2.48638 -47.31278,-0.85024 -3.98149,-1.36205 -7.52629,-2.18925 -7.87731,-1.83824 -0.35102,0.35103 -1.32191,0.0708 -2.15754,-0.6227 -3.98012,-3.3032 -31.25962,-4.50206 -46.72604,-2.05346 -13.56344,2.14732 -28.33354,2.1567 -48,0.0304 -11.73333,-1.26854 -24.4473,-1.9424 -28.25326,-1.49745 -3.80596,0.44495 -7.25038,0.27431 -7.65427,-0.3792 -0.40769,-0.65967 -8.5984,-0.85999 -18.41341,-0.45035 -29.9463,1.24984 -126.64286,1.03891 -159.67906,-0.34833 -38.52711,-1.6178 -49.57118,-1.47499 -82.94953,1.07265 -18.23989,1.39219 -29.22518,1.63663 -35.8978,0.79879 -10.39888,-1.30573 -53.65473,-1.89349 -55.49829,-0.75412 -0.61935,0.38277 -8.89496,1.35692 -18.39023,2.16475 -9.49528,0.80782 -22.96414,2.59118 -29.93081,3.96301 -23.26168,4.58052 -37.04207,5.62741 -66,5.01396 -26.89656,-0.56979 -44.21196,0.30575 -56.36205,2.84989 -3.21931,0.67411 -6.00694,0.68846 -6.41202,0.0331 z M 2789.451,225.40613 c -0.986,-0.6094 -1.3804,-1.77506 -0.8765,-2.5904 1.0821,-1.7509 6.0921,-2.00776 6.0921,-0.31232 0,2.15224 -3.3832,4.03518 -5.2156,2.90272 z M 1310.3333,179.47727 c -1.2833,-0.97419 -2.3333,-2.7197 -2.3333,-3.87891 0,-1.1592 -0.5795,-2.46579 -1.2878,-2.90352 -1.628,-1.0062 -1.6123,-21.89875 0.021,-27.59313 0.9561,-3.33355 0.7451,-4.80163 -0.9607,-6.68654 -1.275,-1.40892 -1.5546,-2.41517 -0.671,-2.41517 0.833,0 1.8767,-1.44311 2.3194,-3.20689 0.4427,-1.7638 2.2865,-4.59876 4.0973,-6.29993 3.0631,-2.8776 3.5393,-2.95445 6.8372,-1.10334 4.8636,2.72986 6.0348,9.16377 3.4832,19.13536 -2.3469,9.17177 -2.7002,17.46196 -0.8444,19.81535 2.1963,2.78513 3.2506,13.0915 1.549,15.1418 -1.9367,2.33349 -9.1329,2.3305 -12.2097,-0.005 z M 176,171.02815 c -2.83986,-1.08103 -3.95611,-3.1459 -3.97959,-7.36148 C 172.00918,161.65 171.4,160 170.66666,160 c -0.73333,0 -1.33333,-1.30276 -1.33333,-2.89501 0,-1.59226 -0.85614,-3.84226 -1.90256,-5 -2.75145,-3.0442 -3.58501,-12.73726 -1.34897,-15.68668 1.00836,-1.33007 1.85247,-3.48758 1.8758,-4.79447 0.0233,-1.30689 0.97445,-4.60689 2.11364,-7.33333 1.13918,-2.72645 1.90009,-4.95718 1.69092,-4.95718 -0.20918,0 0.65876,-1.4835 1.92876,-3.29667 C 174.99228,114.1787 176,110.29254 176,107.1319 c 0,-6.81737 2.75113,-10.17462 7.03816,-8.588748 1.62901,0.602612 2.96184,1.833388 2.96184,2.735058 0,1.95324 10.71228,2.60556 23,1.40058 7.44141,-0.72973 8.33333,-0.56005 8.33333,1.58534 0,1.3214 0.6,2.40254 1.33333,2.40254 2.52371,0 1.32852,6.20635 -1.7526,9.10091 -3.3913,3.18597 -6.26934,3.67714 -8.49646,1.45002 -0.79699,-0.79699 -6.21168,-1.77551 -12.03264,-2.17449 l -10.58356,-0.72541 -1.66364,4.01638 c -2.47458,5.97414 -1.47292,12.98682 1.86384,13.04887 1.46754,0.0273 3.4976,0.56219 4.51125,1.18865 2.82771,1.74763 12.01953,1.67588 20.15381,-0.15728 9.01206,-2.03098 13.76184,-2.18635 12.66667,-0.41432 -0.45323,0.73333 0.34717,1.33333 1.77865,1.33333 3.2151,0 4.93126,3.93804 2.60367,5.97459 -4.17379,3.65195 -16.60153,6.52447 -28.58645,6.60741 -10.62714,0.0736 -12.75896,-0.30422 -16.24387,-2.87861 l -4.01133,-2.96327 0.44913,4.83254 c 0.24703,2.65789 2.30037,7.4589 4.563,10.66892 4.41925,6.26964 5.0774,10.3774 2.2578,14.09176 -1.7338,2.284 -6.15989,2.87805 -10.14393,1.36148 z m 1049.3333,-9.4552 c -1.1,-0.49846 -3.5,-1.92656 -5.3333,-3.17358 -1.8333,-1.24701 -8.7237,-4.44004 -15.3119,-7.09561 -6.5883,-2.65557 -12.712,-5.43695 -13.6083,-6.18083 -0.8963,-0.74388 -2.2559,-0.96544 -3.0214,-0.49236 -0.7655,0.47308 -1.3917,0.20136 -1.3917,-0.60382 0,-0.80518 -1.2771,-0.27418 -2.838,1.18 -1.6633,1.5496 -2.5059,3.50922 -2.0358,4.73441 1.118,2.91352 -1.7809,8.72929 -4.3403,8.70731 -4.8036,-0.0413 -8.1193,-1.7308 -8.1193,-4.13731 0,-1.38113 -0.6,-2.51116 -1.3333,-2.51116 -0.7333,0 -1.3333,-1.15715 -1.3333,-2.57143 0,-1.41429 -0.8384,-3.4098 -1.8631,-4.43448 -1.0247,-1.02468 -3.1312,-4.81753 -4.6811,-8.42857 -3.1734,-7.39345 -3.2615,-21.44998 -0.1579,-25.18957 0.9618,-1.15888 1.4132,-2.44256 1.0032,-2.85262 -0.4101,-0.41005 0.2544,-1.83256 1.4766,-3.16113 6.8531,-7.44938 10.8889,-13.630612 10.8889,-16.677441 0,-1.109951 0.6055,-2.018092 1.3455,-2.018092 1.8571,0 9.3212,-7.28486 9.3212,-9.097439 0,-2.402353 4.4011,-4.043503 8.6808,-3.23702 6.365,1.199435 13.2612,6.286451 17.7889,13.122145 4.9166,7.422638 5.0529,8.484074 1.6003,12.464916 -1.4282,1.646681 -2.7782,3.475181 -3,4.063341 -0.2218,0.58816 -2.2874,2.18268 -4.5901,3.54338 -2.3027,1.36071 -7.5563,4.47007 -11.6745,6.9097 -8.6722,5.1373 -10.6644,7.8848 -8.1805,11.28178 2.0781,2.84186 14.0637,9.09304 15.6064,8.13958 0.6061,-0.3746 1.102,-0.1044 1.102,0.6005 0,1.01648 5.8383,3.98848 9.3334,4.75118 2.2199,0.48444 10.686,5.07731 11.3553,6.16028 0.4411,0.71371 2.4736,1.29766 4.5167,1.29766 2.0431,0 4.7076,1.09724 5.9213,2.43832 2.7156,3.00065 2.9552,9.56168 0.3493,9.56168 -1.0215,0 -2.2027,0.9 -2.6248,2 -0.8261,2.15264 -1.7286,2.32125 -4.8512,0.90628 z m -31.177,-63.753295 c 4.9091,-2.223423 5.3663,-2.818564 4.3237,-5.628454 -0.9704,-2.615196 -1.7745,-2.989374 -4.7952,-2.231242 -3.7515,0.941574 -11.0181,8.014621 -11.0181,10.724631 0,2.7193 1.7259,3.37181 3.8918,1.47131 1.1595,-1.01746 4.5785,-2.968768 7.5978,-4.336245 z M 1808,120 c 0,-0.73333 0.6,-1.33333 1.3333,-1.33333 0.7333,0 1.3333,0.6 1.3333,1.33333 0,0.73333 -0.6,1.33333 -1.3333,1.33333 -0.7333,0 -1.3333,-0.6 -1.3333,-1.33333 z"
       id="path430" />
  </g>
</svg>
